<svg width="743" height="743" viewBox="0 0 743 743" fill="none" xmlns="http://www.w3.org/2000/svg">
<path d="M560.958 454.489L510.193 454.283L510.475 383.883L345.729 383.216L345.832 358.312L505.323 119.018L562.313 119.245L561.426 338.588L593.994 338.719L593.808 384.214L561.24 384.083L560.958 454.489ZM516.55 184.202L411.519 339.902L514.005 340.315L514.307 266.083L517.513 184.202H516.55Z" fill="#F8BAB4"/>
<path d="M494.301 407.818V523.712C494.301 596.03 438.748 639.131 370.262 639.131C300.819 639.131 245.266 596.03 245.266 523.712V407.818C245.266 335.98 300.819 292.398 370.262 292.398C438.748 292.398 494.301 335.98 494.301 407.818ZM438.748 540.952C440.668 531.376 442.099 520.836 442.099 509.347V422.664C442.099 411.168 440.661 400.635 438.748 391.059C431.566 358.491 404.749 341.25 370.262 341.25C335.781 341.25 308.483 358.491 301.3 391.059C299.388 400.635 297.95 411.175 297.95 422.664V509.347C297.95 520.843 299.388 531.376 301.3 540.952C308.483 573.039 335.781 589.804 370.262 589.804C404.742 589.804 431.559 573.039 438.748 540.952Z" fill="#FFECDD"/>
<path d="M250.04 588.532C244.357 588.532 239.019 586.316 235.001 582.306C226.711 574.016 226.711 560.518 235.001 552.228C243.291 543.938 256.782 543.938 265.079 552.228C273.369 560.518 273.369 574.016 265.079 582.306C261.061 586.323 255.723 588.532 250.04 588.532ZM250.04 548.644C245.266 548.644 240.498 550.46 236.866 554.092C229.601 561.357 229.601 573.176 236.866 580.441C240.381 583.964 245.066 585.897 250.04 585.897C255.014 585.897 259.692 583.957 263.215 580.441C270.479 573.176 270.479 561.357 263.215 554.092C259.582 550.46 254.808 548.644 250.04 548.644Z" fill="#FFECDD"/>
<path d="M444.403 219.501C440.234 219.501 436.162 218.256 432.639 215.855C423.077 209.347 420.593 196.269 427.108 186.706C433.623 177.144 446.694 174.66 456.257 181.175C460.887 184.326 464.017 189.1 465.063 194.604C466.109 200.108 464.946 205.694 461.795 210.324C458.644 214.954 453.87 218.084 448.366 219.13C447.038 219.378 445.717 219.501 444.403 219.501ZM444.472 179.606C438.418 179.606 432.467 182.503 428.807 187.869C422.939 196.489 425.175 208.281 433.795 214.149C437.971 216.99 443.007 218.043 447.967 217.1C452.927 216.158 457.234 213.337 460.075 209.161C465.944 200.541 463.708 188.749 455.088 182.881C451.84 180.666 448.139 179.606 444.472 179.606Z" fill="black"/>
<path d="M438.356 457.929C434.091 457.929 429.825 456.305 426.578 453.058C420.084 446.564 420.084 436.003 426.578 429.509C433.073 423.015 443.64 423.015 450.127 429.509C453.271 432.653 455.005 436.836 455.005 441.287C455.005 445.738 453.271 449.914 450.127 453.065C446.887 456.305 442.622 457.929 438.356 457.929ZM438.356 426.702C434.621 426.702 430.885 428.126 428.037 430.968C422.347 436.657 422.347 445.91 428.037 451.599C433.726 457.289 442.979 457.289 448.669 451.599C451.427 448.841 452.941 445.181 452.941 441.28C452.941 437.379 451.421 433.719 448.669 430.961C445.827 428.126 442.092 426.702 438.356 426.702Z" fill="#FFECDD"/>
<path d="M471.688 302.958C473.538 302.119 475.403 300.406 476.201 298.521C475.678 298.301 475.155 298.081 474.632 297.86C474.219 300.316 476.091 302.263 478.333 302.889C478.265 302.367 478.196 301.844 478.127 301.321C475.589 302.731 475.176 304.74 474.35 307.313C474.901 307.464 475.458 307.616 476.008 307.767C476.565 304.726 474.275 301.857 471.131 301.933C470.023 301.961 470.023 303.681 471.131 303.653C473.084 303.605 474.715 305.325 474.35 307.313C474.151 308.393 475.664 308.84 476.008 307.767C476.689 305.648 476.847 303.997 479.001 302.8C479.654 302.435 479.496 301.424 478.794 301.231C477.57 300.887 476.043 299.807 476.29 298.314C476.435 297.441 475.128 296.684 474.722 297.654C474.02 299.312 472.451 300.743 470.828 301.479C469.817 301.933 470.69 303.412 471.688 302.958Z" fill="black"/>
<path d="M341.168 264.687C343.018 263.848 344.883 262.135 345.681 260.249C345.158 260.029 344.635 259.809 344.112 259.589C343.699 262.045 345.571 263.992 347.813 264.618C347.745 264.095 347.676 263.572 347.607 263.049C345.068 264.46 344.656 266.469 343.83 269.042C344.381 269.193 344.938 269.344 345.488 269.496C346.045 266.455 343.754 263.586 340.611 263.662C339.503 263.689 339.503 265.409 340.611 265.382C342.564 265.334 344.195 267.053 343.83 269.042C343.631 270.122 345.144 270.569 345.488 269.496C346.169 267.377 346.327 265.726 348.481 264.529C349.134 264.164 348.976 263.153 348.274 262.96C347.05 262.616 345.523 261.536 345.77 260.043C345.915 259.169 344.608 258.413 344.202 259.383C343.5 261.041 341.931 262.472 340.308 263.208C339.29 263.655 340.163 265.141 341.168 264.687Z" fill="black"/>
<path d="M404.818 405.788C406.669 404.949 408.533 403.236 409.331 401.351C408.808 401.131 408.285 400.91 407.763 400.69C407.35 403.146 409.221 405.093 411.464 405.719C411.395 405.196 411.326 404.674 411.257 404.151C408.719 405.561 408.306 407.57 407.481 410.143C408.031 410.294 408.588 410.446 409.139 410.597C409.696 407.556 407.405 404.687 404.261 404.763C403.153 404.79 403.153 406.51 404.261 406.483C406.215 406.435 407.845 408.155 407.481 410.143C407.281 411.223 408.795 411.67 409.139 410.597C409.82 408.478 409.978 406.827 412.131 405.63C412.785 405.265 412.627 404.254 411.925 404.061C410.7 403.717 409.173 402.637 409.421 401.144C409.565 400.271 408.258 399.514 407.852 400.484C407.15 402.142 405.582 403.573 403.958 404.309C402.947 404.756 403.821 406.242 404.818 405.788Z" fill="black"/>
<path d="M455.397 536.336C455.397 536.336 449.577 520.623 451.063 512.622C452.549 504.628 457.695 496.854 456.808 491.391C455.92 485.929 457.564 479.806 445.862 475.94C434.16 472.073 424.054 470.223 409.448 469.039C409.448 469.039 377.809 469.844 377.417 470.106C377.025 470.367 366.636 454.647 365.205 452.7C363.774 450.753 361.181 446.206 361.181 446.206C361.181 446.206 334.419 456.078 324.932 464.781C315.445 473.484 296.478 492.843 293.884 495.829C291.284 498.814 290.506 500.245 290.506 500.245L331.688 534.41L330.257 553.769C330.257 553.769 339.868 554.161 347.538 555.331C355.209 556.5 359.234 556.762 359.234 556.762C359.234 556.762 362.921 582.478 363.657 584.789C364.394 587.101 364.916 589.729 364.916 589.729C364.916 589.729 387.564 590.052 395.489 591.511C403.415 592.969 403.566 603.832 418.22 596.443C420.903 595.088 429.551 600.488 429.551 600.488C429.551 600.488 426.008 583.805 426.84 578.171C427.672 572.543 432.055 559.61 434.559 557.732C437.063 555.853 437.063 555.853 437.063 555.853C437.063 555.853 442.278 545.637 444.362 543.759C446.447 541.888 455.397 536.336 455.397 536.336Z" fill="#FFECDD"/>
<path d="M380.843 535.655L333.27 553.377L308.689 487.408L154.31 544.922L145.614 521.586L210.393 241.406L263.799 221.51L340.377 427.053L370.895 415.681L386.78 458.314L356.262 469.686L380.843 535.655ZM243.91 298.432L200.583 481.182L296.622 445.401L270.707 375.841L244.805 298.094L243.91 298.432Z" fill="#F8BAB4"/>
<path d="M237.567 323.157C234.808 326.211 231.953 329.218 229.463 332.506C228.3 334.047 227.2 335.643 226.291 337.349C225.892 338.092 225.528 338.849 225.198 339.627C225.026 340.026 223.381 343.837 222.996 343.094C222.48 342.11 220.994 342.984 221.51 343.961C223.223 347.222 225.597 343.417 226.229 341.697C228.754 334.887 233.997 329.665 238.778 324.375C239.528 323.549 238.31 322.331 237.567 323.157Z" fill="black"/>
<path d="M191.102 339.558C191.315 336.785 193.689 334.096 195.553 332.197C196.668 331.062 197.638 330.415 197.631 328.723C197.624 326.954 196.503 325.173 195.657 323.687C194.095 320.921 192.884 318.176 191.687 315.232C189.355 309.508 186.857 303.846 184.161 298.28C182.599 295.061 180.975 291.868 179.317 288.697C177.295 284.824 174.144 279.602 177.997 275.811C178.788 275.034 177.57 273.816 176.779 274.594C172.252 279.045 175.403 284.913 177.825 289.564C181.223 296.079 184.456 302.676 187.38 309.411C188.949 313.016 190.297 316.711 191.866 320.309C192.829 322.524 194.294 324.464 195.264 326.672C196.62 329.775 193.964 331.144 192.258 333.366C190.848 335.196 189.554 337.198 189.369 339.551C189.293 340.659 191.013 340.659 191.102 339.558Z" fill="black"/>
<path d="M223.278 343.342C221.799 341.649 218.965 338.01 216.461 337.769C214.204 337.549 212.14 340.672 211.005 342.179C209.987 343.534 209.327 345.241 208.267 346.534C205.839 349.506 202.433 347.263 199.915 345.867C198.023 344.821 196.427 343.486 194.673 342.248C193.682 341.546 191.116 340.679 191.295 339.166C191.426 338.072 189.699 338.079 189.575 339.166C189.286 341.663 191.433 342.124 193.153 343.259C196.654 345.571 199.709 348.075 203.74 349.506C207.208 350.737 208.57 349.43 210.262 346.486C211.59 344.174 213.186 341.023 215.904 340.432C218.373 339.895 220.478 342.764 222.054 344.559C222.79 345.392 224.008 344.174 223.278 343.342Z" fill="black"/>
<path d="M238.227 321.678C227.014 310.079 217.073 297.303 205.432 286.11C199.447 280.359 187.057 267.631 177.694 273.452C176.758 274.036 177.618 275.522 178.56 274.938C182.771 272.323 187.8 274.71 191.577 277.029C197.445 280.634 202.522 285.539 207.345 290.41C217.671 300.839 226.821 312.349 237.017 322.895C237.787 323.687 238.998 322.469 238.227 321.678Z" fill="black"/>
<path d="M235.902 326.122C227.695 314.33 218.401 303.316 208.054 293.334C203.286 288.731 198.353 284.115 193.015 280.18C188.639 276.953 183.321 273.851 177.728 273.837C176.621 273.837 176.621 275.557 177.728 275.557C183.631 275.57 189.313 279.334 193.758 282.918C198.924 287.08 203.843 291.586 208.563 296.244C218.118 305.669 226.746 315.981 234.416 326.996C235.042 327.89 236.535 327.03 235.902 326.122Z" fill="black"/>
<path d="M206.045 331.447C205.081 330.704 204.07 330.05 202.983 329.507C202.536 329.28 202.075 329.08 201.614 328.887C201.332 328.771 200.011 328.495 199.88 328.275C199.832 328.619 199.791 328.97 199.743 329.314C199.777 329.28 199.818 329.245 199.853 329.211C199.571 329.287 199.296 329.355 199.014 329.431C199.069 329.445 199.124 329.459 199.179 329.472C198.965 329.197 198.759 328.922 198.546 328.64C198.546 328.674 198.539 328.715 198.539 328.75C198.47 329.858 200.19 329.851 200.259 328.75C200.259 328.715 200.266 328.674 200.266 328.64C200.286 328.275 199.984 327.897 199.633 327.807C199.172 327.69 198.862 327.766 198.518 328.096C198.243 328.358 198.195 328.812 198.381 329.135C198.958 330.14 200.534 330.257 201.525 330.704C202.825 331.295 204.029 332.052 205.164 332.919C206.051 333.607 206.911 332.114 206.045 331.447Z" fill="black"/>
<path d="M206.857 328.729C204.552 326.948 202.02 325.592 199.275 324.608C198.229 324.237 197.782 325.895 198.821 326.266C201.422 327.195 203.809 328.523 205.99 330.215C206.863 330.896 207.723 329.397 206.857 328.729Z" fill="black"/>
<path d="M206.12 324.34C202.908 321.719 199.392 319.676 195.526 318.183C195.375 318.733 195.223 319.291 195.072 319.841C195.395 319.903 195.712 319.965 196.035 320.027C197.115 320.233 197.583 318.575 196.489 318.369C196.166 318.307 195.849 318.245 195.526 318.183C194.425 317.977 194.04 319.442 195.072 319.841C198.649 321.224 201.938 323.136 204.91 325.558C205.756 326.253 206.98 325.042 206.12 324.34Z" fill="black"/>
<path d="M202.337 317.316C199.771 314.991 196.84 313.25 193.572 312.101C192.526 311.73 192.079 313.395 193.118 313.759C196.097 314.812 198.78 316.408 201.126 318.534C201.938 319.277 203.162 318.066 202.337 317.316Z" fill="black"/>
<path d="M199.062 310.897C196.854 309.349 194.432 308.187 191.845 307.416C190.786 307.1 190.332 308.758 191.391 309.074C193.847 309.81 196.097 310.911 198.195 312.383C199.103 313.016 199.963 311.523 199.062 310.897Z" fill="black"/>
<path d="M195.966 305.249C194.101 304.265 192.244 303.275 190.38 302.291C189.403 301.775 188.529 303.254 189.513 303.777C191.377 304.761 193.235 305.751 195.099 306.735C196.069 307.251 196.943 305.772 195.966 305.249Z" fill="black"/>
<path d="M194.226 359.206C194.893 356.716 195.43 354.184 195.994 351.666C196.345 350.111 196.696 346.96 197.246 345.963C197.783 344.993 196.297 344.126 195.76 345.096C194.928 346.603 194.831 348.983 194.46 350.641C193.854 353.345 193.276 356.069 192.561 358.752C192.279 359.818 193.937 360.272 194.226 359.206Z" fill="black"/>
<path d="M219.088 355.753C219.804 351.267 220.643 346.802 221.613 342.365C221.847 341.285 220.189 340.824 219.955 341.911C218.985 346.348 218.146 350.813 217.43 355.298C217.252 356.379 218.91 356.846 219.088 355.753Z" fill="black"/>
<path d="M245.025 196.978C242.686 200.741 240.216 204.463 238.29 208.46C237.588 209.911 236.955 211.411 236.453 212.952C236.095 214.053 235.813 215.167 235.593 216.302C235.559 216.481 234.981 220.073 234.203 219.082C233.522 218.208 232.318 219.433 232.986 220.3C233.591 221.07 234.527 221.352 235.462 220.926C237.168 220.141 237.051 217.713 237.361 216.199C238.758 209.457 242.92 203.603 246.497 197.851C247.096 196.902 245.603 196.035 245.025 196.978Z" fill="black"/>
<path d="M202.247 221.455C201.965 218.683 203.658 215.766 205.137 213.523C205.942 212.305 206.98 211.377 206.808 209.815C206.616 208.054 205.206 206.465 204.132 205.157C202.151 202.736 200.465 200.362 198.787 197.714C195.209 192.052 191.453 186.514 187.49 181.113C185.681 178.643 183.824 176.208 181.952 173.786C179.201 170.23 174.798 165.462 178.072 160.839C178.712 159.931 177.219 159.071 176.586 159.972C173.091 164.919 176.855 170.009 179.964 174.006C184.67 180.067 189.217 186.252 193.462 192.65C195.457 195.65 197.321 198.725 199.282 201.752C200.692 203.933 202.633 205.701 204.057 207.868C205.887 210.641 203.623 212.429 202.344 214.878C201.291 216.887 200.287 219.151 200.52 221.462C200.637 222.542 202.357 222.556 202.247 221.455Z" fill="black"/>
<path d="M234.692 219.419C232.793 217.905 229.628 214.995 227.028 215.071C224.682 215.14 223.196 218.545 222.302 220.306C221.572 221.744 221.063 223.244 220.499 224.744C219.13 228.39 215.546 227.076 212.594 226.127C210.303 225.39 208.336 224.255 206.176 223.272C205.144 222.804 202.461 222.391 202.378 221.022C202.309 219.921 200.589 219.914 200.658 221.022C200.816 223.581 202.839 223.732 204.848 224.572C208.934 226.285 212.56 228.404 217.073 228.947C220.128 229.312 221.118 227.867 222.164 225.198C222.955 223.175 223.815 219.804 225.528 218.249C228.156 215.862 231.369 218.944 233.481 220.63C234.334 221.318 235.559 220.107 234.692 219.419Z" fill="black"/>
<path d="M245.39 195.306C232.442 185.977 220.561 175.224 207.249 166.391C199.929 161.534 186.115 151.971 177.446 159.078C176.593 159.779 177.811 160.99 178.664 160.295C182.647 157.028 188.268 158.541 192.595 160.247C198.835 162.717 204.566 166.528 210.028 170.36C221.896 178.692 232.772 188.316 244.53 196.785C245.424 197.439 246.284 195.953 245.39 195.306Z" fill="black"/>
<path d="M243.896 200.08C233.866 190.07 222.927 181.01 211.17 173.098C205.542 169.308 199.729 165.531 193.627 162.531C188.749 160.13 183.17 158.108 177.68 159.078C176.593 159.27 177.054 160.928 178.134 160.736C184.291 159.649 190.703 162.779 195.918 165.71C201.532 168.867 206.994 172.293 212.298 175.947C223.189 183.445 233.329 191.962 242.686 201.298C243.463 202.082 244.681 200.865 243.896 200.08Z" fill="black"/>
<path d="M215.642 210.73C214.562 210.173 213.447 209.691 212.285 209.333C211.666 209.141 211.033 208.989 210.393 208.866C210.132 208.817 209.031 208.824 208.831 208.583C208.879 208.927 208.921 209.278 208.969 209.622C208.996 209.581 209.031 209.54 209.058 209.498C208.811 209.643 208.563 209.781 208.315 209.925C208.37 209.932 208.425 209.932 208.487 209.939C208.198 209.65 207.916 209.368 207.627 209.079C207.634 209.113 207.634 209.154 207.641 209.189C207.772 210.276 209.492 210.29 209.361 209.189C209.354 209.154 209.354 209.113 209.347 209.079C209.292 208.59 208.996 208.253 208.487 208.219C208.006 208.184 207.758 208.384 207.483 208.755C207.249 209.079 207.387 209.526 207.62 209.794C208.295 210.599 209.712 210.448 210.654 210.668C212.099 211.005 213.461 211.528 214.775 212.202C215.759 212.725 216.626 211.239 215.642 210.73Z" fill="black"/>
<path d="M215.958 207.916C213.372 206.575 210.654 205.653 207.779 205.171C206.698 204.992 206.231 206.643 207.324 206.829C210.056 207.283 212.636 208.129 215.092 209.402C216.075 209.911 216.942 208.425 215.958 207.916Z" fill="black"/>
<path d="M214.266 203.623C210.709 201.656 206.946 200.28 202.956 199.502C202.88 200.067 202.804 200.631 202.729 201.195C203.059 201.195 203.382 201.202 203.712 201.202C204.82 201.209 204.82 199.489 203.712 199.482C203.382 199.482 203.059 199.475 202.729 199.475C201.786 199.468 201.525 200.975 202.502 201.167C206.354 201.917 209.966 203.211 213.406 205.109C214.369 205.646 215.236 204.16 214.266 203.623Z" fill="black"/>
<path d="M209.292 197.383C206.416 195.602 203.286 194.418 199.949 193.868C198.869 193.689 198.402 195.347 199.495 195.526C202.708 196.049 205.666 197.15 208.432 198.869C209.368 199.454 210.234 197.968 209.292 197.383Z" fill="black"/>
<path d="M205.123 191.749C202.591 190.58 199.963 189.85 197.191 189.534C196.09 189.41 196.104 191.13 197.191 191.254C199.647 191.536 202.013 192.196 204.256 193.235C205.253 193.689 206.127 192.21 205.123 191.749Z" fill="black"/>
<path d="M200.872 186.651C198.863 186.011 196.854 185.372 194.852 184.732C193.792 184.395 193.345 186.053 194.398 186.39C196.407 187.03 198.416 187.669 200.418 188.309C201.47 188.646 201.924 186.988 200.872 186.651Z" fill="black"/>
<path d="M185.64 357.816C186.933 359.578 188.708 360.004 190.827 360.142C195.031 360.424 199.337 359.963 203.493 359.378C207.847 358.766 212.154 357.885 216.454 356.97C219.391 356.344 222.164 355.684 224.317 353.475C225.095 352.684 223.877 351.467 223.1 352.258C221.008 354.397 218.153 354.851 215.346 355.443C212.333 356.076 209.32 356.695 206.286 357.211C202.908 357.782 199.502 358.222 196.076 358.387C193.503 358.511 188.846 359.289 187.126 356.943C186.479 356.062 184.986 356.922 185.64 357.816Z" fill="black"/>
<path d="M185.296 357.603C184.89 365.157 184.601 373.385 181.877 380.519C181.54 381.407 182.73 381.833 183.315 381.359C187.085 378.29 192.052 378.036 196.675 377.444C200.369 376.969 204.064 376.474 207.696 375.655C214.624 374.087 221.043 371.211 225.769 365.776C226.491 364.944 225.281 363.726 224.551 364.558C219.027 370.908 211.239 373.419 203.176 374.789C196.242 375.965 187.821 375.476 182.09 380.141C182.572 380.423 183.046 380.698 183.528 380.98C186.294 373.729 186.596 365.274 187.009 357.603C187.078 356.496 185.358 356.502 185.296 357.603Z" fill="black"/>
<path d="M223.561 352.753C223.898 356.606 224.833 360.575 224.276 364.448C224.118 365.528 225.776 365.996 225.934 364.902C226.519 360.843 225.631 356.791 225.28 352.746C225.184 351.659 223.464 351.645 223.561 352.753Z" fill="black"/>
<path d="M222.735 367.585C220.575 396.714 217.465 426.214 210.262 454.572C209.987 455.645 211.645 456.106 211.92 455.026C219.158 426.523 222.281 396.851 224.455 367.579C224.537 366.478 222.817 366.485 222.735 367.585Z" fill="black"/>
<path d="M184.628 378.847C179.62 401.97 174.866 425.147 170.03 448.304C167.684 459.552 165.324 470.794 162.903 482.021C160.852 491.522 158.905 501.649 164.292 510.469C173.291 525.198 193.269 520.079 206.801 516.612C225.218 511.9 243.085 505.309 259.871 496.358C279.251 486.025 297.014 472.975 314.516 459.793C315.39 459.133 314.53 457.64 313.649 458.307C298.927 469.397 284.053 480.37 268.154 489.733C252.826 498.766 236.563 505.969 219.563 511.225C210.455 514.046 200.981 516.887 191.522 518.236C183.934 519.316 175.052 518.965 169.06 513.564C160.694 506.031 162.043 494.102 164.182 484.209C166.466 473.635 168.702 463.047 170.91 452.459C176.008 428.064 181.003 403.655 186.28 379.302C186.52 378.228 184.862 377.767 184.628 378.847Z" fill="black"/>
<path d="M204.511 461.596C215.436 452.515 226.354 443.433 237.278 434.352C247.426 425.918 257.429 417.119 268.663 410.129C279.788 403.208 292.494 398.104 305.765 398.179C317.233 398.241 328.028 402.679 336.799 409.964C346.327 417.883 353.331 428.539 357.837 440.001C358.236 441.019 359.901 440.578 359.495 439.546C351.694 419.712 335.712 400.89 313.739 397.147C286.722 392.552 263.311 410.501 243.835 426.675C230.316 437.902 216.805 449.144 203.293 460.378C202.44 461.087 203.665 462.297 204.511 461.596Z" fill="black"/>
<path d="M233.075 219.405C231.534 222.274 231.21 226.374 231.355 229.573C231.534 233.502 231.857 237.76 232.641 241.626C232.861 242.713 234.519 242.252 234.299 241.172C233.639 237.932 233.646 234.582 233.274 231.307C232.889 227.908 232.896 223.375 234.561 220.279C235.084 219.295 233.598 218.428 233.075 219.405Z" fill="black"/>
<path d="M196.572 235.627C203.747 238.813 211.37 240.347 219.109 241.448C226.209 242.459 233.77 244.014 240.663 241.317C240.312 241.117 239.955 240.918 239.604 240.718C240.897 244.784 241.75 248.981 242.803 253.109C243.078 254.182 244.736 253.728 244.461 252.654C243.401 248.527 242.548 244.33 241.262 240.264C241.131 239.858 240.649 239.487 240.202 239.666C233.281 242.369 225.466 240.677 218.346 239.624C211.184 238.565 204.077 237.1 197.432 234.148C196.434 233.694 195.56 235.18 196.572 235.627Z" fill="black"/>
<path d="M196.194 235.022C196.606 242.644 197.067 250.267 196.971 257.904C196.964 258.447 197.528 258.901 198.058 258.736C213 253.948 231.314 265.347 244.427 253.734C245.259 252.998 244.034 251.788 243.209 252.517C230.674 263.614 212.065 252.441 197.597 257.071C197.962 257.346 198.319 257.621 198.684 257.904C198.787 250.267 198.319 242.638 197.907 235.022C197.852 233.921 196.132 233.914 196.194 235.022Z" fill="black"/>
<path d="M224.778 241.984C225.294 247.226 225.583 252.476 225.473 257.745C225.453 258.853 227.173 258.853 227.193 257.745C227.303 252.476 227.014 247.226 226.498 241.984C226.395 240.89 224.668 240.883 224.778 241.984Z" fill="black"/>
<path d="M239.521 255.902C238.4 281.728 241.324 307.595 240.202 333.421C240.154 334.529 241.874 334.529 241.922 333.421C243.044 307.595 240.12 281.728 241.241 255.902C241.289 254.794 239.569 254.794 239.521 255.902Z" fill="black"/>
<path d="M200.149 257.429C199.633 265.134 199.2 272.839 198.684 280.538C198.608 281.645 200.328 281.638 200.403 280.538C200.919 272.832 201.353 265.127 201.869 257.429C201.945 256.321 200.225 256.328 200.149 257.429Z" fill="black"/>
<path d="M240.416 334.013C244.261 346.472 252.214 357.438 260.112 367.634C268.698 378.724 278.171 389.098 286.716 400.216C287.383 401.082 288.876 400.222 288.202 399.349C280.221 388.967 271.429 379.233 263.311 368.961C254.877 358.291 246.139 346.72 242.074 333.559C241.75 332.506 240.092 332.953 240.416 334.013Z" fill="black"/>
<path d="M220.781 387.984C226.828 401.585 236.068 415.103 246.745 425.491C247.536 426.262 248.754 425.051 247.963 424.274C237.389 413.982 228.259 400.587 222.267 387.11C221.82 386.105 220.334 386.979 220.781 387.984Z" fill="black"/>
<path d="M330.814 555.289C338.32 554.484 345.667 556.005 353.097 556.872C356.661 557.284 360.266 557.539 363.85 557.209C365.481 557.057 367.998 557.25 368.907 555.736C369.478 554.787 367.992 553.92 367.421 554.87C366.76 555.97 361.195 555.668 359.688 555.647C356.138 555.599 352.616 555.124 349.107 554.643C343.019 553.803 336.964 552.923 330.814 553.583C329.727 553.686 329.713 555.406 330.814 555.289Z" fill="black"/>
<path d="M363.602 500.782C363.252 519.02 365.687 537.278 367.4 555.399C367.503 556.493 369.223 556.5 369.12 555.399C367.407 537.272 364.978 519.02 365.322 500.782C365.343 499.674 363.623 499.674 363.602 500.782Z" fill="black"/>
<path d="M331.309 553.219C332.788 534.396 334.267 515.573 335.747 496.75C336.097 492.251 336.455 487.752 336.806 483.253C337.04 480.294 337.012 478.072 340.019 476.407C342.282 475.155 345.192 474.674 347.724 474.247C357.665 472.575 367.833 471.605 377.877 470.814C397.491 469.273 417.793 469.218 437.001 473.993C441.528 475.121 446.502 476.49 450.327 479.256C454.503 482.276 455.989 487.243 455.658 492.231C455.349 496.957 453.457 501.387 451.861 505.783C450.327 510.008 449.983 513.324 450.822 517.754C451.833 523.12 452.797 528.541 454.028 533.866C454.537 536.074 454.303 535.841 452.576 536.804C451.338 537.492 450.141 538.255 448.992 539.088C443.193 543.305 439.333 549.187 437.311 556.025C436.994 557.092 438.652 557.546 438.969 556.479C441.61 547.55 447.534 541.055 455.83 537.058C456.188 536.886 456.298 536.439 456.223 536.088C455.335 531.616 454.441 527.138 453.553 522.666C452.494 517.334 451.297 512.622 453.134 507.311C455.528 500.397 458.789 493.318 456.821 485.86C454.991 478.925 448.779 475.843 442.443 473.752C434.146 471.014 425.264 469.775 416.589 468.977C398.227 467.285 379.728 468.578 361.463 470.725C357.507 471.193 353.551 471.681 349.609 472.231C345.853 472.754 341.663 473.318 338.347 475.32C336.139 476.655 335.533 478.368 335.272 480.852C334.804 485.296 334.57 489.781 334.219 494.239C332.678 513.895 331.13 533.55 329.589 553.205C329.5 554.326 331.22 554.319 331.309 553.219Z" fill="black"/>
<path d="M361.876 501.752C366.148 500.851 370.75 501.484 375.105 501.202C378.875 500.954 382.625 500.486 386.353 499.86C394.554 498.491 402.603 496.372 410.625 494.219C411.691 493.93 411.237 492.272 410.171 492.561C402.149 494.714 394.1 496.833 385.899 498.202C381.682 498.904 377.43 499.399 373.158 499.592C369.251 499.764 365.274 499.282 361.428 500.094C360.335 500.321 360.796 501.979 361.876 501.752Z" fill="black"/>
<path d="M396.672 499.53C401.626 501.181 406.572 502.839 411.525 504.49C415.873 505.942 420.242 507.834 424.899 507.792C425.436 507.785 425.904 507.242 425.732 506.705C425.519 506.031 425.34 505.811 424.631 505.646C423.551 505.398 423.097 507.049 424.177 507.304C424.143 507.256 424.108 507.208 424.074 507.159C424.349 506.795 424.624 506.437 424.906 506.072C420.049 506.114 415.296 503.933 410.755 502.419C406.214 500.906 401.681 499.385 397.14 497.872C396.074 497.514 395.627 499.179 396.672 499.53Z" fill="black"/>
<path d="M377.726 469.342C373.557 465.324 370.454 460.034 367.496 455.108C364.503 450.127 361.428 444.94 359.481 439.443C359.117 438.404 357.452 438.852 357.823 439.897C359.818 445.539 362.942 450.863 366.01 455.975C369.037 461.018 372.236 466.439 376.508 470.553C377.306 471.33 378.524 470.113 377.726 469.342Z" fill="black"/>
<path d="M453.12 537.086C454.338 540.814 456.553 544 458.644 547.288C461.135 551.203 463.625 555.124 466.116 559.039C466.707 559.967 468.193 559.107 467.602 558.172C465.352 554.629 463.095 551.079 460.846 547.536C458.624 544.041 456.085 540.594 454.785 536.625C454.434 535.579 452.776 536.026 453.12 537.086Z" fill="black"/>
<path d="M443.096 589.667C442.443 587.431 441.514 583.358 439.477 581.955C438.404 581.212 435.948 581.638 435.811 579.808C435.577 576.761 439.071 577.511 440.991 577.772C442.085 577.916 442.071 576.197 440.991 576.052C438.445 575.708 432.708 575.412 433.905 579.698C434.325 581.198 435.35 582.471 436.712 583.138C437.035 583.296 437.427 583.111 437.744 583.228C438.652 583.565 439.065 584.356 439.539 585.085C440.475 586.53 440.95 588.47 441.431 590.121C441.748 591.187 443.406 590.733 443.096 589.667Z" fill="black"/>
<path d="M435.012 572.915C438.714 571.229 442.587 570.266 446.639 570.012C447.74 569.943 447.747 568.223 446.639 568.292C442.277 568.567 438.122 569.613 434.146 571.429C433.141 571.89 434.015 573.376 435.012 572.915Z" fill="black"/>
<path d="M469.762 568.471C462.538 562.465 453.416 556.679 444.018 554.952C440.743 554.347 437.18 554.471 434.469 556.624C431.311 559.135 429.949 563.82 428.649 567.459C425.299 576.857 426.035 588.023 428.284 597.613C430.362 606.467 434.992 614.667 442.842 619.566C443.784 620.15 444.651 618.664 443.708 618.08C436.616 613.656 432.316 606.336 430.238 598.376C428.064 590.059 427.087 579.774 429.234 571.353C430.169 567.666 431.573 563.442 433.623 560.222C436.492 555.716 441.548 555.895 446.116 557.25C454.324 559.679 461.988 564.254 468.537 569.695C469.39 570.39 470.615 569.179 469.762 568.471Z" fill="black"/>
<path d="M444.768 620.976C444.142 613.195 454.929 610.257 460 606.432C464.485 603.048 468.269 598.803 470.525 593.623C475.431 582.354 471.571 569.207 467.643 558.227C467.292 558.578 466.934 558.935 466.583 559.286C476.091 561.832 482.854 573.197 487.119 581.212C490.242 587.08 492.609 592.955 493.62 599.539C494.687 606.453 493.097 615.83 489.217 621.774C481.973 632.864 465.455 634.9 453.698 631.488C449.439 630.25 444.802 628.337 440.283 629.053C435.095 629.871 431.318 634.095 426.276 635.286C419.589 636.861 411.03 634.756 404.825 632.066C401.151 630.47 397.787 628.289 394.808 625.62C393.983 624.884 392.765 626.094 393.591 626.837C400.952 633.435 410.391 636.73 420.201 637.267C423.386 637.439 426.289 637.343 429.248 636.063C432.268 634.756 434.91 632.678 437.985 631.481C443.784 629.218 449.845 632.403 455.487 633.779C466.989 636.579 482.145 633.82 489.733 624.024C493.854 618.699 495.609 610.443 495.684 603.818C495.753 597.344 493.641 590.884 490.944 585.085C487.759 578.233 483.831 571.587 478.747 565.959C475.582 562.458 471.702 558.908 467.031 557.656C466.432 557.498 465.744 558.075 465.971 558.715C470.305 570.837 474.399 585.36 466.749 597.007C463.157 602.477 457.771 606.322 452.102 609.404C447.547 611.881 442.567 615.149 443.034 621.01C443.138 622.07 444.858 622.084 444.768 620.976Z" fill="black"/>
<path d="M429.021 599.236C424.742 598.714 420.394 594.283 415.908 595.769C414.058 596.381 412.62 597.957 410.693 598.418C407.233 599.236 405.541 596.154 403.167 594.311C396.404 589.061 384.688 588.387 376.701 590.616C375.635 590.912 376.089 592.57 377.155 592.274C382.074 590.898 387.53 591.05 392.517 591.965C395.029 592.426 397.546 593.107 399.837 594.256C402.142 595.411 403.415 597.296 405.396 598.803C408.815 601.397 411.622 599.911 414.959 598.177C419.795 595.659 424.157 600.365 429.014 600.956C430.115 601.087 430.108 599.367 429.021 599.236Z" fill="black"/>
<path d="M336.331 554.705C339.331 564.866 341.168 575.254 344.614 585.298C348.274 595.975 352.113 606.433 352.684 617.818C352.939 622.902 352.932 628.069 354.315 633.015C354.996 635.451 356.564 640.961 359.502 641.608C362.742 642.317 361.985 637.721 362.04 635.829C362.226 629.789 362.412 623.749 362.598 617.708C362.109 617.908 361.621 618.114 361.132 618.314C364.435 621.478 366.615 625.393 369.071 629.197C371.163 632.438 373.578 635.389 376.178 638.23C378.18 640.425 385.225 649.32 388.506 644.229C389.105 643.294 387.619 642.434 387.02 643.362C384.736 646.912 373.371 632.382 372.181 630.724C368.893 626.143 366.471 621.038 362.35 617.096C361.807 616.573 360.905 616.958 360.885 617.701C360.74 622.448 360.589 627.195 360.444 631.942C360.403 633.236 360.362 634.529 360.327 635.829C360.293 637.033 360.857 638.333 359.419 638.45C357.479 638.609 356.434 634.192 355.98 632.561C353.475 623.652 354.762 614.069 352.657 605.015C350.586 596.106 347.036 587.637 344.325 578.921C341.801 570.803 340.411 562.396 338.003 554.251C337.68 553.184 336.015 553.638 336.331 554.705Z" fill="black"/>
<path d="M371.121 618.809C375.346 626.108 380.037 633.153 385.266 639.778C386.821 641.746 388.857 644.401 391.664 644.408C393.04 644.408 394.478 643.644 394.065 642.124C393.776 641.058 392.118 641.512 392.407 642.578C390.955 642.833 389.717 642.358 388.699 641.14C388.444 640.879 388.197 640.617 387.942 640.356C386.917 639.269 385.968 637.914 385.08 636.744C383.56 634.749 382.088 632.72 380.657 630.656C377.788 626.535 375.125 622.283 372.607 617.935C372.05 616.986 370.564 617.853 371.121 618.809Z" fill="black"/>
<path d="M376.109 618.816C379.604 623.109 383.099 627.408 386.594 631.701C388.273 633.765 389.951 635.822 391.63 637.886C392.435 638.877 393.274 640.693 394.65 640.982C395.152 641.085 395.517 640.838 395.709 640.383C395.744 640.301 395.778 640.211 395.813 640.129C395.957 639.785 395.716 639.331 395.421 639.159C395.359 639.124 395.297 639.09 395.235 639.049C394.279 638.492 393.412 639.978 394.368 640.535C394.265 640.328 394.155 640.129 394.051 639.923C394.402 639.723 394.76 639.523 395.111 639.324C393.99 639.09 391.912 635.52 391.169 634.605C389.628 632.713 388.094 630.821 386.553 628.936C383.477 625.152 380.402 621.375 377.32 617.591C376.625 616.738 375.415 617.963 376.109 618.816Z" fill="black"/>
<path d="M357.947 556.534C359.681 570.817 360.892 585.36 367.964 598.191C375.917 612.624 385.59 626.232 395.902 639.063C396.597 639.923 397.808 638.705 397.12 637.845C387.158 625.448 377.946 612.315 370.097 598.473C362.749 585.518 361.435 571.044 359.667 556.534C359.536 555.454 357.81 555.441 357.947 556.534Z" fill="black"/>
<path d="M306.233 571.697C306.508 575.467 310.03 577.462 311.571 580.696C313.408 584.555 314.832 586.124 319.098 587.101C321.478 587.644 323.315 588.628 325.358 589.928C327.037 590.995 328.564 591.8 330.58 591.855C332.651 591.916 334.783 591.18 336.778 590.726C339.778 590.038 342.771 589.35 345.77 588.669C346.85 588.422 346.389 586.764 345.316 587.011C341.291 587.933 337.26 589.034 333.194 589.784C328.289 590.692 326.514 587.844 322.489 586.241C321.065 585.677 319.538 585.532 318.073 585.113C315.706 584.431 314.44 582.911 313.456 580.751C312.872 579.464 312.335 578.274 311.454 577.153C310.099 575.426 308.132 574.098 307.96 571.697C307.87 570.603 306.15 570.59 306.233 571.697Z" fill="black"/>
<path d="M308.482 571.718C308.627 571.456 308.771 571.202 308.916 570.94C309.452 569.97 307.966 569.104 307.43 570.074C307.285 570.335 307.141 570.59 306.996 570.851C306.46 571.814 307.946 572.688 308.482 571.718Z" fill="black"/>
<path d="M318.644 579.162C315.513 576.362 312.376 573.562 309.246 570.762C307.76 569.434 306.281 568.113 304.795 566.785C303.433 565.567 298.686 562.836 302.456 561.412C303.481 561.027 303.034 559.362 302.002 559.754C300.874 560.181 298.906 560.972 298.7 562.403C298.452 564.102 300.578 565.313 301.603 566.235C306.879 570.947 312.156 575.66 317.433 580.379C318.252 581.115 319.476 579.898 318.644 579.162Z" fill="black"/>
<path d="M323.969 573.727C319.848 570.927 315.741 568.099 311.661 565.244C309.707 563.882 307.76 562.506 305.813 561.13C304.988 560.545 303.055 559.699 302.635 558.867C301.933 557.484 301.851 555.413 303.295 554.787C304.307 554.347 303.433 552.861 302.429 553.301C300.716 554.044 298.961 554.34 299.044 556.576C299.119 558.764 301.252 559.974 302.828 561.103C309.521 565.898 316.298 570.576 323.102 575.206C324.024 575.839 324.884 574.346 323.969 573.727Z" fill="black"/>
<path d="M324.409 566.606C320.866 564.192 317.33 561.77 313.801 559.341C312.129 558.192 310.457 557.037 308.792 555.881C307.988 555.324 306.529 554.732 306.013 553.955C305.332 553.741 305.229 553.322 305.71 552.703C305.697 551.726 306.185 551.45 307.19 551.87C310.98 551.244 316.394 554.395 319.621 555.963C323.405 557.807 327.161 559.699 330.683 562.018C331.612 562.63 332.472 561.137 331.55 560.532C326.645 557.298 321.176 554.512 315.734 552.31C312.886 551.161 305.655 548.238 302.814 550.811C300.241 553.143 305.428 555.633 306.818 556.596C312.377 560.449 317.956 564.281 323.549 568.092C324.464 568.718 325.324 567.225 324.409 566.606Z" fill="black"/>
<path d="M317.041 552.022C316.897 551.856 321.004 551.684 321.403 551.726C323.811 551.96 326.143 552.469 328.152 553.858C331.302 556.032 334.151 558.805 337.081 561.261C337.928 561.969 339.145 560.759 338.299 560.043C333.421 555.957 329.177 551.058 322.627 550.15C320.66 549.875 312.122 549.07 315.823 553.232C316.559 554.065 317.77 552.847 317.041 552.022Z" fill="black"/>
<path d="M451.944 595.907C454.021 593.341 457.028 592.089 460.309 592.412C461.41 592.522 461.403 590.802 460.309 590.692C456.629 590.327 453.058 591.82 450.726 594.689C450.038 595.542 451.242 596.767 451.944 595.907Z" fill="black"/>
<path d="M438.68 596.78C436.113 596.491 433.582 598.431 433.217 600.991C433.059 602.071 434.717 602.539 434.875 601.445C435.143 599.567 436.795 598.28 438.68 598.493C439.773 598.624 439.767 596.904 438.68 596.78Z" fill="black"/>
<path d="M289.674 501.078C303.866 512.14 317.385 524.049 331.454 535.27C332.314 535.951 333.538 534.747 332.671 534.052C318.602 522.831 305.091 510.923 290.891 499.86C290.031 499.193 288.8 500.397 289.674 501.078Z" fill="black"/>
<path d="M433.512 591.669C434.146 590.238 433.901 588.741 432.963 588.325C432.025 587.909 430.75 588.732 430.116 590.163C429.481 591.594 429.727 593.091 430.665 593.507C431.603 593.923 432.877 593.1 433.512 591.669Z" fill="#F8BAB4"/>
<path d="M457.869 580.913C458.041 579.901 456.929 578.869 455.385 578.607C453.842 578.346 452.452 578.953 452.28 579.965C452.109 580.976 453.221 582.008 454.764 582.27C456.307 582.532 457.698 581.924 457.869 580.913Z" fill="#F8BAB4"/>
<path d="M206.479 225.562C206.444 229.759 206.561 233.956 206.829 238.145C206.898 239.246 208.618 239.253 208.549 238.145C208.281 233.956 208.164 229.766 208.198 225.562C208.212 224.455 206.492 224.455 206.479 225.562Z" fill="black"/>
<path d="M290.554 500.913C300.117 490.586 309.219 479.758 319.717 470.34C331.805 459.497 346.892 453.512 361.401 446.626C362.398 446.151 361.531 444.665 360.534 445.139C346.231 451.93 331.289 457.839 319.29 468.42C308.448 477.983 299.14 489.107 289.337 499.695C288.587 500.507 289.797 501.724 290.554 500.913Z" fill="black"/>
<path d="M284.136 482.331C288.91 485.22 293.561 488.302 298.081 491.57C298.982 492.217 299.835 490.731 298.947 490.084C294.421 486.816 289.777 483.734 285.002 480.845C284.053 480.274 283.186 481.76 284.136 482.331Z" fill="black"/>
<path d="M359.323 557.924C372.195 571.628 390.261 582.127 409.07 584.473C410.163 584.61 410.157 582.89 409.07 582.753C390.728 580.469 373.068 570.053 360.534 556.713C359.777 555.902 358.559 557.119 359.323 557.924Z" fill="black"/>
</svg>
