<svg xmlns="http://www.w3.org/2000/svg" fill="none" viewBox="0 0 743 743">
  <defs/>
  <path fill="#F8BAB4" d="M560.958 454.489l-50.765-.206.282-70.4-164.746-.667.103-24.904 159.491-239.294 56.99.227-.887 219.343 32.568.131-.186 45.495-32.568-.131-.282 70.406zM516.55 184.202l-105.031 155.7 102.486.413.302-74.232 3.206-81.881h-.963z"/>
  <path fill="#FFECDD" d="M494.301 407.818v115.894c0 72.318-55.553 115.419-124.039 115.419-69.443 0-124.996-43.101-124.996-115.419V407.818c0-71.838 55.553-115.42 124.996-115.42 68.486 0 124.039 43.582 124.039 115.42zm-55.553 133.134c1.92-9.576 3.351-20.116 3.351-31.605v-86.683c0-11.496-1.438-22.029-3.351-31.605-7.182-32.568-33.999-49.809-68.486-49.809-34.481 0-61.779 17.241-68.962 49.809-1.912 9.576-3.35 20.116-3.35 31.605v86.683c0 11.496 1.438 22.029 3.35 31.605 7.183 32.087 34.481 48.852 68.962 48.852 34.48 0 61.297-16.765 68.486-48.852z"/>
  <path fill="#FFECDD" d="M250.04 588.532c-5.683 0-11.021-2.216-15.039-6.226-8.29-8.29-8.29-21.788 0-30.078s21.781-8.29 30.078 0c8.29 8.29 8.29 21.788 0 30.078a21.124 21.124 0 01-15.039 6.226zm0-39.888a18.568 18.568 0 00-13.174 5.448c-7.265 7.265-7.265 19.084 0 26.349 3.515 3.523 8.2 5.456 13.174 5.456s9.652-1.94 13.175-5.456c7.264-7.265 7.264-19.084 0-26.349a18.582 18.582 0 00-13.175-5.448z"/>
  <path fill="#000" d="M444.403 219.501a20.815 20.815 0 01-11.764-3.646c-9.562-6.508-12.046-19.586-5.531-29.149 6.515-9.562 19.586-12.046 29.149-5.531a20.854 20.854 0 018.806 13.429 20.849 20.849 0 01-3.268 15.72 20.854 20.854 0 01-13.429 8.806 21.546 21.546 0 01-3.963.371zm.069-39.895c-6.054 0-12.005 2.897-15.665 8.263-5.868 8.62-3.632 20.412 4.988 26.28 4.176 2.841 9.212 3.894 14.172 2.951a18.798 18.798 0 0012.108-7.939c5.869-8.62 3.633-20.412-4.987-26.28a18.781 18.781 0 00-10.616-3.275z"/>
  <path fill="#FFECDD" d="M438.356 457.929a16.606 16.606 0 01-11.778-4.871c-6.494-6.494-6.494-17.055 0-23.549 6.495-6.494 17.062-6.494 23.549 0a16.549 16.549 0 014.878 11.778 16.56 16.56 0 01-4.878 11.778 16.599 16.599 0 01-11.771 4.864zm0-31.227a14.567 14.567 0 00-10.319 4.266c-5.69 5.689-5.69 14.942 0 20.631 5.689 5.69 14.942 5.69 20.632 0a14.486 14.486 0 004.272-10.319c0-3.901-1.52-7.561-4.272-10.319a14.564 14.564 0 00-10.313-4.259z"/>
  <path fill="#000" d="M471.688 302.958c1.85-.839 3.715-2.552 4.513-4.437l-1.569-.661c-.413 2.456 1.459 4.403 3.701 5.029l-.206-1.568c-2.538 1.41-2.951 3.419-3.777 5.992l1.658.454c.557-3.041-1.733-5.91-4.877-5.834-1.108.028-1.108 1.748 0 1.72 1.953-.048 3.584 1.672 3.219 3.66-.199 1.08 1.314 1.527 1.658.454.681-2.119.839-3.77 2.993-4.967.653-.365.495-1.376-.207-1.569-1.224-.344-2.751-1.424-2.504-2.917.145-.873-1.162-1.63-1.568-.66-.702 1.658-2.271 3.089-3.894 3.825-1.011.454-.138 1.933.86 1.479zM341.168 264.687c1.85-.839 3.715-2.552 4.513-4.438l-1.569-.66c-.413 2.456 1.459 4.403 3.701 5.029l-.206-1.569c-2.539 1.411-2.951 3.42-3.777 5.993.551.151 1.108.302 1.658.454.557-3.041-1.734-5.91-4.877-5.834-1.108.027-1.108 1.747 0 1.72 1.953-.048 3.584 1.671 3.219 3.66-.199 1.08 1.314 1.527 1.658.454.681-2.119.839-3.77 2.993-4.967.653-.365.495-1.376-.207-1.569-1.224-.344-2.751-1.424-2.504-2.917.145-.874-1.162-1.63-1.568-.66-.702 1.658-2.271 3.089-3.894 3.825-1.018.447-.145 1.933.86 1.479zM404.818 405.788c1.851-.839 3.715-2.552 4.513-4.437l-1.568-.661c-.413 2.456 1.458 4.403 3.701 5.029l-.207-1.568c-2.538 1.41-2.951 3.419-3.776 5.992l1.658.454c.557-3.041-1.734-5.91-4.878-5.834-1.108.027-1.108 1.747 0 1.72 1.954-.048 3.584 1.672 3.22 3.66-.2 1.08 1.314 1.527 1.658.454.681-2.119.839-3.77 2.992-4.967.654-.365.496-1.376-.206-1.569-1.225-.344-2.752-1.424-2.504-2.917.144-.873-1.163-1.63-1.569-.66-.702 1.658-2.27 3.089-3.894 3.825-1.011.447-.137 1.933.86 1.479z"/>
  <path fill="#FFECDD" d="M455.397 536.336s-5.82-15.713-4.334-23.714c1.486-7.994 6.632-15.768 5.745-21.231-.888-5.462.756-11.585-10.946-15.451-11.702-3.867-21.808-5.717-36.414-6.901 0 0-31.639.805-32.031 1.067-.392.261-10.781-15.459-12.212-17.406-1.431-1.947-4.024-6.494-4.024-6.494s-26.762 9.872-36.249 18.575c-9.487 8.703-28.454 28.062-31.048 31.048-2.6 2.985-3.378 4.416-3.378 4.416l41.182 34.165-1.431 19.359s9.611.392 17.281 1.562c7.671 1.169 11.696 1.431 11.696 1.431s3.687 25.716 4.423 28.027c.737 2.312 1.259 4.94 1.259 4.94s22.648.323 30.573 1.782c7.926 1.458 8.077 12.321 22.731 4.932 2.683-1.355 11.331 4.045 11.331 4.045s-3.543-16.683-2.711-22.317c.832-5.628 5.215-18.561 7.719-20.439l2.504-1.879s5.215-10.216 7.299-12.094c2.085-1.871 11.035-7.423 11.035-7.423z"/>
  <path fill="#F8BAB4" d="M380.843 535.655l-47.573 17.722-24.581-65.969-154.379 57.514-8.696-23.336 64.779-280.18 53.406-19.896 76.578 205.543 30.518-11.372 15.885 42.633-30.518 11.372 24.581 65.969zM243.91 298.432l-43.327 182.75 96.039-35.781-25.915-69.56-25.902-77.747-.895.338z"/>
  <path fill="#000" d="M237.567 323.157c-2.759 3.054-5.614 6.061-8.104 9.349-1.163 1.541-2.263 3.137-3.172 4.843-.399.743-.763 1.5-1.093 2.278-.172.399-1.817 4.21-2.202 3.467-.516-.984-2.002-.11-1.486.867 1.713 3.261 4.087-.544 4.719-2.264 2.525-6.81 7.768-12.032 12.549-17.322.75-.826-.468-2.044-1.211-1.218zM191.102 339.558c.213-2.773 2.587-5.462 4.451-7.361 1.115-1.135 2.085-1.782 2.078-3.474-.007-1.769-1.128-3.55-1.974-5.036-1.562-2.766-2.773-5.511-3.97-8.455a289.063 289.063 0 00-7.526-16.952 358.1 358.1 0 00-4.844-9.583c-2.022-3.873-5.173-9.095-1.32-12.886.791-.777-.427-1.995-1.218-1.217-4.527 4.451-1.376 10.319 1.046 14.97 3.398 6.515 6.631 13.112 9.555 19.847 1.569 3.605 2.917 7.3 4.486 10.898.963 2.215 2.428 4.155 3.398 6.363 1.356 3.103-1.3 4.472-3.006 6.694-1.41 1.83-2.704 3.832-2.889 6.185-.076 1.108 1.644 1.108 1.733.007z"/>
  <path fill="#000" d="M223.278 343.342c-1.479-1.693-4.313-5.332-6.817-5.573-2.257-.22-4.321 2.903-5.456 4.41-1.018 1.355-1.678 3.062-2.738 4.355-2.428 2.972-5.834.729-8.352-.667-1.892-1.046-3.488-2.381-5.242-3.619-.991-.702-3.557-1.569-3.378-3.082.131-1.094-1.596-1.087-1.72 0-.289 2.497 1.858 2.958 3.578 4.093 3.501 2.312 6.556 4.816 10.587 6.247 3.468 1.231 4.83-.076 6.522-3.02 1.328-2.312 2.924-5.463 5.642-6.054 2.469-.537 4.574 2.332 6.15 4.127.736.833 1.954-.385 1.224-1.217zM238.227 321.678c-11.213-11.599-21.154-24.375-32.795-35.568-5.985-5.751-18.375-18.479-27.738-12.658-.936.584-.076 2.07.866 1.486 4.211-2.615 9.24-.228 13.017 2.091 5.868 3.605 10.945 8.51 15.768 13.381 10.326 10.429 19.476 21.939 29.672 32.485.77.792 1.981-.426 1.21-1.217z"/>
  <path fill="#000" d="M235.902 326.122c-8.207-11.792-17.501-22.806-27.848-32.788-4.768-4.603-9.701-9.219-15.039-13.154-4.376-3.227-9.694-6.329-15.287-6.343-1.107 0-1.107 1.72 0 1.72 5.903.013 11.585 3.777 16.03 7.361 5.166 4.162 10.085 8.668 14.805 13.326 9.555 9.425 18.183 19.737 25.853 30.752.626.894 2.119.034 1.486-.874zM206.045 331.447a18.7 18.7 0 00-3.062-1.94 20.494 20.494 0 00-1.369-.62c-.282-.116-1.603-.392-1.734-.612-.048.344-.089.695-.137 1.039.034-.034.075-.069.11-.103-.282.076-.557.144-.839.22l.165.041c-.214-.275-.42-.55-.633-.832 0 .034-.007.075-.007.11-.069 1.108 1.651 1.101 1.72 0 0-.035.007-.076.007-.11.02-.365-.282-.743-.633-.833-.461-.117-.771-.041-1.115.289-.275.262-.323.716-.137 1.039.577 1.005 2.153 1.122 3.144 1.569 1.3.591 2.504 1.348 3.639 2.215.887.688 1.747-.805.881-1.472zM206.857 328.729c-2.305-1.781-4.837-3.137-7.582-4.121-1.046-.371-1.493 1.287-.454 1.658a25.801 25.801 0 017.169 3.949c.873.681 1.733-.818.867-1.486zM206.12 324.34a38.628 38.628 0 00-10.594-6.157l-.454 1.658.963.186c1.08.206 1.548-1.452.454-1.658l-.963-.186c-1.101-.206-1.486 1.259-.454 1.658a36.12 36.12 0 019.838 5.717c.846.695 2.07-.516 1.21-1.218zM202.337 317.316a25.574 25.574 0 00-8.765-5.215c-1.046-.371-1.493 1.294-.454 1.658a23.493 23.493 0 018.008 4.775c.812.743 2.036-.468 1.211-1.218zM199.062 310.897a24.917 24.917 0 00-7.217-3.481c-1.059-.316-1.513 1.342-.454 1.658a23.467 23.467 0 016.804 3.309c.908.633 1.768-.86.867-1.486zM195.966 305.249c-1.865-.984-3.722-1.974-5.586-2.958-.977-.516-1.851.963-.867 1.486 1.864.984 3.722 1.974 5.586 2.958.97.516 1.844-.963.867-1.486zM194.226 359.206c.667-2.49 1.204-5.022 1.768-7.54.351-1.555.702-4.706 1.252-5.703.537-.97-.949-1.837-1.486-.867-.832 1.507-.929 3.887-1.3 5.545-.606 2.704-1.184 5.428-1.899 8.111-.282 1.066 1.376 1.52 1.665.454zM219.088 355.753a239.229 239.229 0 012.525-13.388c.234-1.08-1.424-1.541-1.658-.454a239.366 239.366 0 00-2.525 13.387c-.178 1.081 1.48 1.548 1.658.455zM245.025 196.978c-2.339 3.763-4.809 7.485-6.735 11.482-.702 1.451-1.335 2.951-1.837 4.492a28.083 28.083 0 00-.86 3.35c-.034.179-.612 3.771-1.39 2.78-.681-.874-1.885.351-1.217 1.218.605.77 1.541 1.052 2.476.626 1.706-.785 1.589-3.213 1.899-4.727 1.397-6.742 5.559-12.596 9.136-18.348.599-.949-.894-1.816-1.472-.873zM202.247 221.455c-.282-2.772 1.411-5.689 2.89-7.932.805-1.218 1.843-2.146 1.671-3.708-.192-1.761-1.602-3.35-2.676-4.658-1.981-2.421-3.667-4.795-5.345-7.443a289.05 289.05 0 00-11.297-16.601 355.034 355.034 0 00-5.538-7.327c-2.751-3.556-7.154-8.324-3.88-12.947.64-.908-.853-1.768-1.486-.867-3.495 4.947.269 10.037 3.378 14.034 4.706 6.061 9.253 12.246 13.498 18.644 1.995 3 3.859 6.075 5.82 9.102 1.41 2.181 3.351 3.949 4.775 6.116 1.83 2.773-.434 4.561-1.713 7.01-1.053 2.009-2.057 4.273-1.824 6.584.117 1.08 1.837 1.094 1.727-.007z"/>
  <path fill="#000" d="M234.692 219.419c-1.899-1.514-5.064-4.424-7.664-4.348-2.346.069-3.832 3.474-4.726 5.235-.73 1.438-1.239 2.938-1.803 4.438-1.369 3.646-4.953 2.332-7.905 1.383-2.291-.737-4.258-1.872-6.418-2.855-1.032-.468-3.715-.881-3.798-2.25-.069-1.101-1.789-1.108-1.72 0 .158 2.559 2.181 2.71 4.19 3.55 4.086 1.713 7.712 3.832 12.225 4.375 3.055.365 4.045-1.08 5.091-3.749.791-2.023 1.651-5.394 3.364-6.949 2.628-2.387 5.841.695 7.953 2.381.853.688 2.078-.523 1.211-1.211zM245.39 195.306c-12.948-9.329-24.829-20.082-38.141-28.915-7.32-4.857-21.134-14.42-29.803-7.313-.853.701.365 1.912 1.218 1.217 3.983-3.267 9.604-1.754 13.931-.048 6.24 2.47 11.971 6.281 17.433 10.113 11.868 8.332 22.744 17.956 34.502 26.425.894.654 1.754-.832.86-1.479z"/>
  <path fill="#000" d="M243.896 200.08c-10.03-10.01-20.969-19.07-32.726-26.982-5.628-3.79-11.441-7.567-17.543-10.567-4.878-2.401-10.457-4.423-15.947-3.453-1.087.192-.626 1.85.454 1.658 6.157-1.087 12.569 2.043 17.784 4.974a212.429 212.429 0 0116.38 10.237c10.891 7.498 21.031 16.015 30.388 25.351.777.784 1.995-.433 1.21-1.218zM215.642 210.73a20.516 20.516 0 00-3.357-1.397 17.59 17.59 0 00-1.892-.467c-.261-.049-1.362-.042-1.562-.283.048.344.09.695.138 1.039.027-.041.062-.082.089-.124-.247.145-.495.283-.743.427.055.007.11.007.172.014l-.86-.86c.007.034.007.075.014.11.131 1.087 1.851 1.101 1.72 0-.007-.035-.007-.076-.014-.11-.055-.489-.351-.826-.86-.86-.481-.035-.729.165-1.004.536-.234.324-.096.771.137 1.039.675.805 2.092.654 3.034.874 1.445.337 2.807.86 4.121 1.534.984.523 1.851-.963.867-1.472zM215.958 207.916a27.545 27.545 0 00-8.179-2.745c-1.081-.179-1.548 1.472-.455 1.658 2.732.454 5.312 1.3 7.768 2.573.983.509 1.85-.977.866-1.486zM214.266 203.623a38.407 38.407 0 00-11.31-4.121l-.227 1.693c.33 0 .653.007.983.007 1.108.007 1.108-1.713 0-1.72-.33 0-.653-.007-.983-.007-.943-.007-1.204 1.5-.227 1.692a36.97 36.97 0 0110.904 3.942c.963.537 1.83-.949.86-1.486zM209.292 197.383a25.515 25.515 0 00-9.343-3.515c-1.08-.179-1.547 1.479-.454 1.658a24.009 24.009 0 018.937 3.343c.936.585 1.802-.901.86-1.486zM205.123 191.749a25.68 25.68 0 00-7.932-2.215c-1.101-.124-1.087 1.596 0 1.72 2.456.282 4.822.942 7.065 1.981.997.454 1.871-1.025.867-1.486zM200.872 186.651c-2.009-.64-4.018-1.279-6.02-1.919-1.06-.337-1.507 1.321-.454 1.658 2.009.64 4.018 1.279 6.02 1.919 1.052.337 1.506-1.321.454-1.658zM185.64 357.816c1.293 1.762 3.068 2.188 5.187 2.326 4.204.282 8.51-.179 12.666-.764 4.354-.612 8.661-1.493 12.961-2.408 2.937-.626 5.71-1.286 7.863-3.495.778-.791-.44-2.008-1.217-1.217-2.092 2.139-4.947 2.593-7.754 3.185-3.013.633-6.026 1.252-9.06 1.768-3.378.571-6.784 1.011-10.21 1.176-2.573.124-7.23.902-8.95-1.444-.647-.881-2.14-.021-1.486.873z"/>
  <path fill="#000" d="M185.296 357.603c-.406 7.554-.695 15.782-3.419 22.916-.337.888.853 1.314 1.438.84 3.77-3.069 8.737-3.323 13.36-3.915 3.694-.475 7.389-.97 11.021-1.789 6.928-1.568 13.347-4.444 18.073-9.879.722-.832-.488-2.05-1.218-1.218-5.524 6.35-13.312 8.861-21.375 10.231-6.934 1.176-15.355.687-21.086 5.352l1.438.839c2.766-7.251 3.068-15.706 3.481-23.377.069-1.107-1.651-1.101-1.713 0z"/>
  <path fill="#000" d="M223.561 352.753c.337 3.853 1.272 7.822.715 11.695-.158 1.08 1.5 1.548 1.658.454.585-4.059-.303-8.111-.654-12.156-.096-1.087-1.816-1.101-1.719.007zM222.735 367.585c-2.16 29.129-5.27 58.629-12.473 86.987-.275 1.073 1.383 1.534 1.658.454 7.238-28.503 10.361-58.175 12.535-87.447.082-1.101-1.638-1.094-1.72.006z"/>
  <path fill="#000" d="M184.628 378.847c-5.008 23.123-9.762 46.3-14.598 69.457a5093.539 5093.539 0 01-7.127 33.717c-2.051 9.501-3.998 19.628 1.389 28.448 8.999 14.729 28.977 9.61 42.509 6.143 18.417-4.712 36.284-11.303 53.07-20.254 19.38-10.333 37.143-23.383 54.645-36.565.874-.66.014-2.153-.867-1.486-14.722 11.09-29.596 22.063-45.495 31.426a228.59 228.59 0 01-48.591 21.492c-9.108 2.821-18.582 5.662-28.041 7.011-7.588 1.08-16.47.729-22.462-4.672-8.366-7.533-7.017-19.462-4.878-29.355a4545.046 4545.046 0 006.728-31.75c5.098-24.395 10.093-48.804 15.37-73.157.24-1.074-1.418-1.535-1.652-.455z"/>
  <path fill="#000" d="M204.511 461.596c10.925-9.081 21.843-18.163 32.767-27.244 10.148-8.434 20.151-17.233 31.385-24.223 11.125-6.921 23.831-12.025 37.102-11.95 11.468.062 22.263 4.5 31.034 11.785 9.528 7.919 16.532 18.575 21.038 30.037.399 1.018 2.064.577 1.658-.455-7.801-19.834-23.783-38.656-45.756-42.399-27.017-4.595-50.428 13.354-69.904 29.528-13.519 11.227-27.03 22.469-40.542 33.703-.853.709.372 1.919 1.218 1.218zM233.075 219.405c-1.541 2.869-1.865 6.969-1.72 10.168.179 3.929.502 8.187 1.286 12.053.22 1.087 1.878.626 1.658-.454-.66-3.24-.653-6.59-1.025-9.865-.385-3.399-.378-7.932 1.287-11.028.523-.984-.963-1.851-1.486-.874z"/>
  <path fill="#000" d="M196.572 235.627c7.175 3.186 14.798 4.72 22.537 5.821 7.1 1.011 14.661 2.566 21.554-.131-.351-.2-.708-.399-1.059-.599 1.293 4.066 2.146 8.263 3.199 12.391.275 1.073 1.933.619 1.658-.455-1.06-4.127-1.913-8.324-3.199-12.39-.131-.406-.613-.777-1.06-.598-6.921 2.703-14.736 1.011-21.856-.042-7.162-1.059-14.269-2.524-20.914-5.476-.998-.454-1.872 1.032-.86 1.479z"/>
  <path fill="#000" d="M196.194 235.022c.412 7.622.873 15.245.777 22.882-.007.543.557.997 1.087.832 14.942-4.788 33.256 6.611 46.369-5.002.832-.736-.393-1.946-1.218-1.217-12.535 11.097-31.144-.076-45.612 4.554.365.275.722.55 1.087.833.103-7.637-.365-15.266-.777-22.882-.055-1.101-1.775-1.108-1.713 0z"/>
  <path fill="#000" d="M224.778 241.984c.516 5.242.805 10.492.695 15.761-.02 1.108 1.7 1.108 1.72 0 .11-5.269-.179-10.519-.695-15.761-.103-1.094-1.83-1.101-1.72 0zM239.521 255.902c-1.121 25.826 1.803 51.693.681 77.519-.048 1.108 1.672 1.108 1.72 0 1.122-25.826-1.802-51.693-.681-77.519.048-1.108-1.672-1.108-1.72 0zM200.149 257.429c-.516 7.705-.949 15.41-1.465 23.109-.076 1.107 1.644 1.1 1.719 0 .516-7.706.95-15.411 1.466-23.109.076-1.108-1.644-1.101-1.72 0z"/>
  <path fill="#000" d="M240.416 334.013c3.845 12.459 11.798 23.425 19.696 33.621 8.586 11.09 18.059 21.464 26.604 32.582.667.866 2.16.006 1.486-.867-7.981-10.382-16.773-20.116-24.891-30.388-8.434-10.67-17.172-22.241-21.237-35.402-.324-1.053-1.982-.606-1.658.454zM220.781 387.984c6.047 13.601 15.287 27.119 25.964 37.507.791.771 2.009-.44 1.218-1.217-10.574-10.292-19.704-23.687-25.696-37.164-.447-1.005-1.933-.131-1.486.874zM330.814 555.289c7.506-.805 14.853.716 22.283 1.583 3.564.412 7.169.667 10.753.337 1.631-.152 4.148.041 5.057-1.473.571-.949-.915-1.816-1.486-.866-.661 1.1-6.226.798-7.733.777-3.55-.048-7.072-.523-10.581-1.004-6.088-.84-12.143-1.72-18.293-1.06-1.087.103-1.101 1.823 0 1.706z"/>
  <path fill="#000" d="M363.602 500.782c-.35 18.238 2.085 36.496 3.798 54.617.103 1.094 1.823 1.101 1.72 0-1.713-18.127-4.142-36.379-3.798-54.617.021-1.108-1.699-1.108-1.72 0z"/>
  <path fill="#000" d="M331.309 553.219l4.438-56.469c.35-4.499.708-8.998 1.059-13.497.234-2.959.206-5.181 3.213-6.846 2.263-1.252 5.173-1.733 7.705-2.16 9.941-1.672 20.109-2.642 30.153-3.433 19.614-1.541 39.916-1.596 59.124 3.179 4.527 1.128 9.501 2.497 13.326 5.263 4.176 3.02 5.662 7.987 5.331 12.975-.309 4.726-2.201 9.156-3.797 13.552-1.534 4.225-1.878 7.541-1.039 11.971 1.011 5.366 1.975 10.787 3.206 16.112.509 2.208.275 1.975-1.452 2.938a35.424 35.424 0 00-3.584 2.284c-5.799 4.217-9.659 10.099-11.681 16.937-.317 1.067 1.341 1.521 1.658.454 2.641-8.929 8.565-15.424 16.861-19.421.358-.172.468-.619.393-.97-.888-4.472-1.782-8.95-2.67-13.422-1.059-5.332-2.256-10.044-.419-15.355 2.394-6.914 5.655-13.993 3.687-21.451-1.83-6.935-8.042-10.017-14.378-12.108-8.297-2.738-17.179-3.977-25.854-4.775-18.362-1.692-36.861-.399-55.126 1.748-3.956.468-7.912.956-11.854 1.506-3.756.523-7.946 1.087-11.262 3.089-2.208 1.335-2.814 3.048-3.075 5.532-.468 4.444-.702 8.929-1.053 13.387-1.541 19.656-3.089 39.311-4.63 58.966-.089 1.121 1.631 1.114 1.72.014z"/>
  <path fill="#000" d="M361.876 501.752c4.272-.901 8.874-.268 13.229-.55 3.77-.248 7.52-.716 11.248-1.342 8.201-1.369 16.25-3.488 24.272-5.641 1.066-.289.612-1.947-.454-1.658-8.022 2.153-16.071 4.272-24.272 5.641-4.217.702-8.469 1.197-12.741 1.39-3.907.172-7.884-.31-11.73.502-1.093.227-.632 1.885.448 1.658z"/>
  <path fill="#000" d="M396.672 499.53c4.954 1.651 9.9 3.309 14.853 4.96 4.348 1.452 8.717 3.344 13.374 3.302.537-.007 1.005-.55.833-1.087-.213-.674-.392-.894-1.101-1.059-1.08-.248-1.534 1.403-.454 1.658l-.103-.145c.275-.364.55-.722.832-1.087-4.857.042-9.61-2.139-14.151-3.653-4.541-1.513-9.074-3.034-13.615-4.547-1.066-.358-1.513 1.307-.468 1.658zM377.726 469.342c-4.169-4.018-7.272-9.308-10.23-14.234-2.993-4.981-6.068-10.168-8.015-15.665-.364-1.039-2.029-.591-1.658.454 1.995 5.642 5.119 10.966 8.187 16.078 3.027 5.043 6.226 10.464 10.498 14.578.798.777 2.016-.44 1.218-1.211zM453.12 537.086c1.218 3.728 3.433 6.914 5.524 10.202 2.491 3.915 4.981 7.836 7.472 11.751.591.928 2.077.068 1.486-.867-2.25-3.543-4.507-7.093-6.756-10.636-2.222-3.495-4.761-6.942-6.061-10.911-.351-1.046-2.009-.599-1.665.461zM443.096 589.667c-.653-2.236-1.582-6.309-3.619-7.712-1.073-.743-3.529-.317-3.666-2.147-.234-3.047 3.26-2.297 5.18-2.036 1.094.144 1.08-1.575 0-1.72-2.546-.344-8.283-.64-7.086 3.646.42 1.5 1.445 2.773 2.807 3.44.323.158.715-.027 1.032.09.908.337 1.321 1.128 1.795 1.857.936 1.445 1.411 3.385 1.892 5.036.317 1.066 1.975.612 1.665-.454zM435.012 572.915a32.75 32.75 0 0111.627-2.903c1.101-.069 1.108-1.789 0-1.72a35.112 35.112 0 00-12.493 3.137c-1.005.461-.131 1.947.866 1.486z"/>
  <path fill="#000" d="M469.762 568.471c-7.224-6.006-16.346-11.792-25.744-13.519-3.275-.605-6.838-.481-9.549 1.672-3.158 2.511-4.52 7.196-5.82 10.835-3.35 9.398-2.614 20.564-.365 30.154 2.078 8.854 6.708 17.054 14.558 21.953.942.584 1.809-.902.866-1.486-7.092-4.424-11.392-11.744-13.47-19.704-2.174-8.317-3.151-18.602-1.004-27.023.935-3.687 2.339-7.911 4.389-11.131 2.869-4.506 7.925-4.327 12.493-2.972 8.208 2.429 15.872 7.004 22.421 12.445.853.695 2.078-.516 1.225-1.224z"/>
  <path fill="#000" d="M444.768 620.976c-.626-7.781 10.161-10.719 15.232-14.544 4.485-3.384 8.269-7.629 10.525-12.809 4.906-11.269 1.046-24.416-2.882-35.396l-1.06 1.059c9.508 2.546 16.271 13.911 20.536 21.926 3.123 5.868 5.49 11.743 6.501 18.327 1.067 6.914-.523 16.291-4.403 22.235-7.244 11.09-23.762 13.126-35.519 9.714-4.259-1.238-8.896-3.151-13.415-2.435-5.188.818-8.965 5.042-14.007 6.233-6.687 1.575-15.246-.53-21.451-3.22a37.236 37.236 0 01-10.017-6.446c-.825-.736-2.043.474-1.217 1.217 7.361 6.598 16.8 9.893 26.61 10.43 3.185.172 6.088.076 9.047-1.204 3.02-1.307 5.662-3.385 8.737-4.582 5.799-2.263 11.86.922 17.502 2.298 11.502 2.8 26.658.041 34.246-9.755 4.121-5.325 5.876-13.581 5.951-20.206.069-6.474-2.043-12.934-4.74-18.733-3.185-6.852-7.113-13.498-12.197-19.126-3.165-3.501-7.045-7.051-11.716-8.303-.599-.158-1.287.419-1.06 1.059 4.334 12.122 8.428 26.645.778 38.292-3.592 5.47-8.978 9.315-14.647 12.397-4.555 2.477-9.535 5.745-9.068 11.606.104 1.06 1.824 1.074 1.734-.034z"/>
  <path fill="#000" d="M429.021 599.236c-4.279-.522-8.627-4.953-13.113-3.467-1.85.612-3.288 2.188-5.215 2.649-3.46.818-5.152-2.264-7.526-4.107-6.763-5.25-18.479-5.924-26.466-3.695-1.066.296-.612 1.954.454 1.658 4.919-1.376 10.375-1.224 15.362-.309 2.512.461 5.029 1.142 7.32 2.291 2.305 1.155 3.578 3.04 5.559 4.547 3.419 2.594 6.226 1.108 9.563-.626 4.836-2.518 9.198 2.188 14.055 2.779 1.101.131 1.094-1.589.007-1.72zM336.331 554.705c3 10.161 4.837 20.549 8.283 30.593 3.66 10.677 7.499 21.135 8.07 32.52.255 5.084.248 10.251 1.631 15.197.681 2.436 2.249 7.946 5.187 8.593 3.24.709 2.483-3.887 2.538-5.779l.558-18.121c-.489.2-.977.406-1.466.606 3.303 3.164 5.483 7.079 7.939 10.883 2.092 3.241 4.507 6.192 7.107 9.033 2.002 2.195 9.047 11.09 12.328 5.999.599-.935-.887-1.795-1.486-.867-2.284 3.55-13.649-10.98-14.839-12.638-3.288-4.581-5.71-9.686-9.831-13.628-.543-.523-1.445-.138-1.465.605-.145 4.747-.296 9.494-.441 14.241-.041 1.294-.082 2.587-.117 3.887-.034 1.204.53 2.504-.908 2.621-1.94.159-2.985-4.258-3.439-5.889-2.505-8.909-1.218-18.492-3.323-27.546-2.071-8.909-5.621-17.378-8.332-26.094-2.524-8.118-3.914-16.525-6.322-24.67-.323-1.067-1.988-.613-1.672.454z"/>
  <path fill="#000" d="M371.121 618.809c4.225 7.299 8.916 14.344 14.145 20.969 1.555 1.968 3.591 4.623 6.398 4.63 1.376 0 2.814-.764 2.401-2.284-.289-1.066-1.947-.612-1.658.454-1.452.255-2.69-.22-3.708-1.438-.255-.261-.502-.523-.757-.784-1.025-1.087-1.974-2.442-2.862-3.612a167.715 167.715 0 01-4.423-6.088c-2.869-4.121-5.532-8.373-8.05-12.721-.557-.949-2.043-.082-1.486.874zM376.109 618.816c3.495 4.293 6.99 8.592 10.485 12.885 1.679 2.064 3.357 4.121 5.036 6.185.805.991 1.644 2.807 3.02 3.096.502.103.867-.144 1.059-.599.035-.082.069-.172.104-.254.144-.344-.097-.798-.392-.97-.062-.035-.124-.069-.186-.11-.956-.557-1.823.929-.867 1.486-.103-.207-.213-.406-.317-.612.351-.2.709-.4 1.06-.599-1.121-.234-3.199-3.804-3.942-4.719-1.541-1.892-3.075-3.784-4.616-5.669-3.076-3.784-6.151-7.561-9.233-11.345-.695-.853-1.905.372-1.211 1.225zM357.947 556.534c1.734 14.283 2.945 28.826 10.017 41.657 7.953 14.433 17.626 28.041 27.938 40.872.695.86 1.906-.358 1.218-1.218-9.962-12.397-19.174-25.53-27.023-39.372-7.348-12.955-8.662-27.429-10.43-41.939-.131-1.08-1.857-1.093-1.72 0zM306.233 571.697c.275 3.77 3.797 5.765 5.338 8.999 1.837 3.859 3.261 5.428 7.527 6.405 2.38.543 4.217 1.527 6.26 2.827 1.679 1.067 3.206 1.872 5.222 1.927 2.071.061 4.203-.675 6.198-1.129 3-.688 5.993-1.376 8.992-2.057 1.08-.247.619-1.905-.454-1.658-4.025.922-8.056 2.023-12.122 2.773-4.905.908-6.68-1.94-10.705-3.543-1.424-.564-2.951-.709-4.416-1.128-2.367-.682-3.633-2.202-4.617-4.362-.584-1.287-1.121-2.477-2.002-3.598-1.355-1.727-3.322-3.055-3.494-5.456-.09-1.094-1.81-1.107-1.727 0z"/>
  <path fill="#000" d="M308.482 571.718c.145-.262.289-.516.434-.778.536-.97-.95-1.836-1.486-.866l-.434.777c-.536.963.95 1.837 1.486.867z"/>
  <path fill="#000" d="M318.644 579.162c-3.131-2.8-6.268-5.6-9.398-8.4l-4.451-3.977c-1.362-1.218-6.109-3.949-2.339-5.373 1.025-.385.578-2.05-.454-1.658-1.128.427-3.096 1.218-3.302 2.649-.248 1.699 1.878 2.91 2.903 3.832 5.276 4.712 10.553 9.425 15.83 14.144.819.736 2.043-.481 1.211-1.217z"/>
  <path fill="#000" d="M323.969 573.727a1086.51 1086.51 0 01-12.308-8.483c-1.954-1.362-3.901-2.738-5.848-4.114-.825-.585-2.758-1.431-3.178-2.263-.702-1.383-.784-3.454.66-4.08 1.012-.44.138-1.926-.866-1.486-1.713.743-3.468 1.039-3.385 3.275.075 2.188 2.208 3.398 3.784 4.527 6.693 4.795 13.47 9.473 20.274 14.103.922.633 1.782-.86.867-1.479z"/>
  <path fill="#000" d="M324.409 566.606a2716.252 2716.252 0 01-10.608-7.265 1268.635 1268.635 0 01-5.009-3.46c-.804-.557-2.263-1.149-2.779-1.926-.681-.214-.784-.633-.303-1.252-.013-.977.475-1.253 1.48-.833 3.79-.626 9.204 2.525 12.431 4.093 3.784 1.844 7.54 3.736 11.062 6.055.929.612 1.789-.881.867-1.486-4.905-3.234-10.374-6.02-15.816-8.222-2.848-1.149-10.079-4.072-12.92-1.499-2.573 2.332 2.614 4.822 4.004 5.785a2549.85 2549.85 0 0016.731 11.496c.915.626 1.775-.867.86-1.486z"/>
  <path fill="#000" d="M317.041 552.022c-.144-.166 3.963-.338 4.362-.296 2.408.234 4.74.743 6.749 2.132 3.15 2.174 5.999 4.947 8.929 7.403.847.708 2.064-.502 1.218-1.218-4.878-4.086-9.122-8.985-15.672-9.893-1.967-.275-10.505-1.08-6.804 3.082.736.833 1.947-.385 1.218-1.21zM451.944 595.907c2.077-2.566 5.084-3.818 8.365-3.495 1.101.11 1.094-1.61 0-1.72a10.914 10.914 0 00-9.583 3.997c-.688.853.516 2.078 1.218 1.218zM438.68 596.78c-2.567-.289-5.098 1.651-5.463 4.211-.158 1.08 1.5 1.548 1.658.454.268-1.878 1.92-3.165 3.805-2.952 1.093.131 1.087-1.589 0-1.713zM289.674 501.078c14.192 11.062 27.711 22.971 41.78 34.192.86.681 2.084-.523 1.217-1.218-14.069-11.221-27.58-23.129-41.78-34.192-.86-.667-2.091.537-1.217 1.218z"/>
  <path fill="#F8BAB4" d="M433.512 591.669c.634-1.431.389-2.928-.549-3.344-.938-.416-2.213.407-2.847 1.838-.635 1.431-.389 2.928.549 3.344.938.416 2.212-.407 2.847-1.838zM457.869 580.913c.172-1.012-.94-2.044-2.484-2.306-1.543-.261-2.933.346-3.105 1.358-.171 1.011.941 2.043 2.484 2.305 1.543.262 2.934-.346 3.105-1.357z"/>
  <path fill="#000" d="M206.479 225.562c-.035 4.197.082 8.394.35 12.583.069 1.101 1.789 1.108 1.72 0a174.778 174.778 0 01-.351-12.583c.014-1.107-1.706-1.107-1.719 0zM290.554 500.913c9.563-10.327 18.665-21.155 29.163-30.573 12.088-10.843 27.175-16.828 41.684-23.714.997-.475.13-1.961-.867-1.487-14.303 6.791-29.245 12.7-41.244 23.281-10.842 9.563-20.15 20.687-29.953 31.275-.75.812.46 2.029 1.217 1.218z"/>
  <path fill="#000" d="M284.136 482.331a204.528 204.528 0 0113.945 9.239c.901.647 1.754-.839.866-1.486a205.773 205.773 0 00-13.945-9.239c-.949-.571-1.816.915-.866 1.486zM359.323 557.924c12.872 13.704 30.938 24.203 49.747 26.549 1.093.137 1.087-1.583 0-1.72-18.342-2.284-36.002-12.7-48.536-26.04-.757-.811-1.975.406-1.211 1.211z"/>
</svg>
