<svg width="317" height="634" viewBox="0 0 317 634" fill="none" xmlns="http://www.w3.org/2000/svg">
<path d="M40.1025 303.142C42.0047 302.279 43.9211 300.518 44.7414 298.581C44.2039 298.354 43.6665 298.128 43.1291 297.902C42.7048 300.426 44.6283 302.428 46.9336 303.071C46.8629 302.534 46.7921 301.996 46.7214 301.459C44.112 302.909 43.6877 304.973 42.8391 307.618C43.4049 307.774 43.9777 307.929 44.5434 308.085C45.1162 304.959 42.7613 302.01 39.5297 302.088C38.3912 302.117 38.3912 303.884 39.5297 303.856C41.538 303.807 43.2139 305.574 42.8391 307.618C42.6341 308.728 44.1898 309.188 44.5434 308.085C45.2435 305.907 45.4061 304.21 47.6195 302.979C48.2913 302.604 48.1286 301.565 47.4073 301.367C46.1486 301.013 44.5787 299.903 44.8333 298.369C44.9818 297.471 43.6382 296.693 43.221 297.69C42.4997 299.394 40.8874 300.865 39.2185 301.622C38.1719 302.088 39.07 303.609 40.1025 303.142Z" fill="black"/>
<path d="M223.29 75.3755C225.192 74.5128 227.109 72.752 227.929 70.8144C227.391 70.5881 226.854 70.3618 226.317 70.1355C225.892 72.6601 227.816 74.6613 230.121 75.3048C230.05 74.7674 229.98 74.2299 229.909 73.6925C227.3 75.1422 226.875 77.2071 226.027 79.8518C226.592 80.0074 227.165 80.1629 227.731 80.3185C228.304 77.1929 225.949 74.2441 222.717 74.3219C221.579 74.3502 221.579 76.118 222.717 76.0897C224.725 76.0402 226.401 77.8081 226.027 79.8518C225.822 80.962 227.377 81.4217 227.731 80.3185C228.431 78.1405 228.594 76.4433 230.807 75.2129C231.479 74.8381 231.316 73.7986 230.595 73.6006C229.336 73.247 227.766 72.1368 228.021 70.6023C228.169 69.7042 226.826 68.9263 226.409 69.9234C225.687 71.6276 224.075 73.0985 222.406 73.8552C221.367 74.3148 222.265 75.8423 223.29 75.3755Z" fill="black"/>
<path d="M89.3129 5.91899C91.2151 5.05626 93.1315 3.29545 93.9518 1.35785C93.4144 1.13156 92.8769 0.90528 92.3395 0.678992C91.9152 3.20352 93.8387 5.20476 96.144 5.84827C96.0733 5.31083 96.0026 4.7734 95.9318 4.23596C93.3224 5.68562 92.8982 7.7505 92.0496 10.3952C92.6153 10.5508 93.1881 10.7064 93.7538 10.862C94.3266 7.73636 91.9718 4.78754 88.7401 4.86533C87.6016 4.89361 87.6016 6.66149 88.7401 6.63321C90.7484 6.5837 92.4244 8.35158 92.0496 10.3952C91.8445 11.5055 93.4002 11.9651 93.7538 10.862C94.4539 8.68394 94.6165 6.98678 96.8299 5.75633C97.5017 5.38154 97.3391 4.34203 96.6178 4.14403C95.3591 3.79045 93.7892 2.68023 94.0438 1.14571C94.1923 0.247632 92.8486 -0.530239 92.4314 0.466844C91.7101 2.17108 90.0978 3.64195 88.429 4.3986C87.3895 4.86532 88.2875 6.39278 89.3129 5.91899Z" fill="black"/>
<path d="M81.5694 403.522C72.1289 403.522 64.4492 395.842 64.4492 386.402C64.4492 376.961 72.1289 369.282 81.5694 369.282C91.0098 369.282 98.6895 376.961 98.6895 386.402C98.6895 395.842 91.0028 403.522 81.5694 403.522ZM81.5694 371.41C73.3028 371.41 66.5707 378.135 66.5707 386.409C66.5707 394.683 73.2957 401.408 81.5694 401.408C89.843 401.408 96.5681 394.683 96.5681 386.409C96.5681 378.135 89.836 371.41 81.5694 371.41Z" fill="black"/>
<path d="M125.787 233.042C127.689 232.179 129.606 230.419 130.426 228.481C129.889 228.255 129.351 228.028 128.814 227.802C128.389 230.327 130.313 232.328 132.618 232.971C132.547 232.434 132.477 231.896 132.406 231.359C129.797 232.809 129.372 234.874 128.524 237.518C129.089 237.674 129.662 237.829 130.228 237.985C130.801 234.859 128.446 231.911 125.214 231.988C124.076 232.017 124.076 233.785 125.214 233.756C127.223 233.707 128.898 235.475 128.524 237.518C128.319 238.629 129.874 239.088 130.228 237.985C130.928 235.807 131.091 234.11 133.304 232.879C133.976 232.505 133.813 231.465 133.092 231.267C131.833 230.914 130.263 229.803 130.518 228.269C130.666 227.371 129.323 226.593 128.906 227.59C128.184 229.294 126.572 230.765 124.903 231.522C123.864 231.988 124.762 233.509 125.787 233.042Z" fill="black"/>
<path d="M262.817 357.283C265.89 369.577 296.111 443.848 271.764 529.138C263.358 558.583 241.25 568.25 209.676 577.026C178.102 585.802 165.387 599.733 170.182 611.754C171.596 615.304 174.064 618.522 177.692 621.23C161.144 626.689 146.534 629.992 135.828 631.357C64.6817 640.437 4.13535 616.217 0.302593 585.067C-3.96153 550.36 37.9796 546.541 54.428 547.453C78.4853 548.783 113.426 546.534 128.318 481.999C136.054 448.466 108.228 434.443 117.562 426.566C144.038 404.227 161.413 438.149 163.895 417.465C166.377 396.78 107.712 389.638 98.533 366.995C86.1225 336.383 94.7922 309.871 134.237 282.349C147.85 272.845 174.255 266.629 203.863 268.857C203.951 268.967 204.038 269.073 204.121 269.174L204.174 269.239C217.229 274.816 224.912 285.145 229.522 290.182C236.6 297.916 259.743 344.99 262.817 357.283Z" fill="#FFECDD"/>
<path d="M194.884 187.907C196.024 187.49 196.434 185.742 195.798 184.004C195.163 182.265 193.723 181.194 192.582 181.61C191.441 182.027 191.032 183.775 191.667 185.514C192.303 187.252 193.743 188.324 194.884 187.907Z" fill="#F8BAB4"/>
<path d="M170.301 292.711C170.301 292.711 111.685 400.114 108.284 406.733C104.882 413.351 88.0521 449.848 83.1374 462.513C78.2227 475.178 53.6421 532.287 53.6421 532.287C53.6421 532.287 62.34 537.393 76.3346 540.985C90.3291 544.578 105.83 544.387 105.83 544.387C105.83 544.387 118.877 511.674 127.009 496.173C135.141 480.665 143.457 456.841 147.241 448.143C151.024 439.445 163.689 428.103 163.689 428.103L191.671 547.795C191.671 547.795 202.448 553.466 213.982 549.499C225.515 545.525 229.864 541.558 230.055 537.775C230.246 533.992 215.12 439.827 214.929 437.182C214.738 434.538 215.495 433.399 217.574 429.05C219.653 424.701 243.293 381.777 245.181 377.619C247.069 373.461 255.201 356.631 258.228 345.097C261.255 333.564 263.525 314.463 263.334 309.174C263.143 303.877 262.959 302.555 262.959 302.555C262.959 302.555 232.516 303.312 208.31 299.337C184.104 295.363 170.301 292.711 170.301 292.711Z" fill="#F8BAB4"/>
<path d="M219.928 196.016C198.487 198.632 177.923 205.201 157.543 212.096C157.098 212.245 156.78 212.704 156.928 213.185C158.463 218.206 166.694 215.455 170.109 214.932C172.28 214.6 174.451 214.253 176.622 213.942C180.427 213.39 182.223 215.264 184.429 217.867C186.805 220.674 189.33 223.467 192.505 225.384C197.985 228.693 203.798 228.396 208.861 224.577C211.902 222.286 214.518 219.599 218.259 218.475C222.46 217.216 227.12 217.647 231.455 217.386C232.586 217.322 232.593 215.547 231.455 215.618C225.493 215.971 218.974 215.264 213.698 218.602C211.216 220.172 209.172 222.329 206.733 223.948C202.858 226.522 198.452 226.522 194.379 224.401C191.069 222.675 188.474 219.875 186.077 217.075C184.514 215.243 182.965 212.612 180.462 211.969C177.704 211.255 173.652 212.605 170.944 213.016C168.518 213.383 159.672 216.106 158.632 212.697C158.427 213.058 158.222 213.426 158.017 213.786C178.242 206.948 198.664 200.372 219.935 197.769C221.045 197.649 221.053 195.881 219.928 196.016Z" fill="black"/>
<path d="M219.843 197.692C238.498 196.291 257.188 195.733 275.892 196.016C277.031 196.03 277.031 194.262 275.892 194.248C257.188 193.965 238.491 194.523 219.843 195.924C218.712 196.009 218.705 197.776 219.843 197.692Z" fill="black"/>
<path d="M230.847 217.442C246.369 218.347 261.997 219.047 277.554 218.651C291.004 218.312 304.539 216.523 316.582 210.166C317.034 209.925 317.084 209.374 316.9 208.956C309.107 191.461 291.174 179.603 271.847 180.776C270.716 180.847 270.709 182.615 271.847 182.544C290.615 181.399 307.813 192.876 315.373 209.847C315.479 209.444 315.585 209.041 315.691 208.638C303.174 215.243 289.024 216.735 275.079 216.926C260.342 217.131 245.563 216.523 230.854 215.667C229.715 215.611 229.715 217.379 230.847 217.442Z" fill="black"/>
<path d="M232.105 169.809C236.002 169.858 239.53 171.591 243.144 172.856C247.161 174.264 251.241 175.529 255.371 176.541C263.255 178.478 271.317 179.397 279.414 178.514C279.336 177.934 279.258 177.354 279.18 176.774C270.815 179.942 264.054 185.882 259.939 193.838C259.416 194.849 260.943 195.74 261.466 194.729C265.363 187.204 271.713 181.477 279.647 178.478C280.503 178.153 280.482 176.625 279.414 176.739C270.56 177.7 261.792 176.484 253.235 174.15C249.438 173.118 245.676 171.916 241.977 170.558C238.738 169.37 235.599 168.076 232.105 168.026C230.967 168.026 230.967 169.794 232.105 169.809Z" fill="black"/>
<path d="M139.794 126.842C132.687 141.494 125.191 156.549 112.066 166.761C111.769 166.994 111.741 167.531 111.925 167.828C121.245 182.855 138.535 189.757 149.899 202.861C150.648 203.724 151.893 202.465 151.151 201.609C140.55 189.39 124.654 182.756 115.142 169.512C114.598 168.755 113.961 168.217 114.216 167.305C114.372 166.739 115.97 165.848 116.401 165.474C117.964 164.095 119.449 162.638 120.856 161.104C123.734 157.978 126.315 154.576 128.663 151.034C133.564 143.658 137.46 135.681 141.321 127.733C141.816 126.715 140.296 125.824 139.794 126.842Z" fill="black"/>
<path d="M141.554 194.736C147.155 226.564 160.605 257.531 159.141 290.335C159.127 290.703 159.424 291.106 159.792 291.191C180.561 295.703 201.535 299.444 222.636 302.039C243.144 304.563 264.019 305.461 284.307 300.844C285.417 300.589 284.944 298.885 283.84 299.139C254.409 305.829 223.648 301.028 194.329 296.077C187.031 294.847 179.748 293.496 172.492 292.047C169.303 291.41 165.286 291.205 162.302 289.925C160.45 289.133 161.029 287.832 161.044 285.958C161.058 284.07 161.022 282.189 160.945 280.308C160.358 266.702 157.508 253.302 154.241 240.128C150.457 224.874 146.002 209.77 143.273 194.276C143.068 193.145 141.364 193.618 141.554 194.736Z" fill="black"/>
<path d="M253.115 218.567C255.406 231.819 260.547 244.646 265.794 256.965C271.897 271.292 277.3 285.986 283.798 300.144C284.272 301.176 285.8 300.278 285.326 299.253C278.968 285.414 273.736 271.03 267.725 257.029C262.372 244.554 257.146 231.536 254.819 218.1C254.621 216.976 252.924 217.449 253.115 218.567Z" fill="black"/>
<path d="M193.339 162.695C195.376 169.618 202.758 172.333 209.271 173.323C217.199 174.532 225.741 173.733 232.735 169.547C237.847 166.492 242.748 161.917 245.612 156.663C249.275 149.952 248.844 142.555 246.135 135.575C245.725 134.529 244.021 134.981 244.431 136.042C246.906 142.435 247.507 149.153 244.282 155.397C241.892 160.022 237.854 163.819 233.654 166.817C227.77 171.018 220.466 172.418 213.345 171.979C206.605 171.569 197.236 169.667 195.036 162.214C194.725 161.139 193.021 161.599 193.339 162.695Z" fill="black"/>
<path d="M187.795 140.716C187.597 135.384 195.538 132.832 199.555 132.223C205.488 131.325 211.053 132.733 215.508 136.848C215.933 137.237 216.59 137.166 216.894 136.671C218.853 133.518 223.945 139.656 226.123 140.688C228.315 141.728 230.79 142.187 233.215 142.18C238.017 142.173 242.861 140.377 245.675 136.353C246.326 135.42 244.799 134.536 244.148 135.462C240.358 140.886 231.426 141.89 225.946 138.588C223.11 136.876 218.528 130.696 215.367 135.78C215.827 135.724 216.293 135.66 216.753 135.604C211.534 130.788 204.944 129.388 198.056 130.696C193.431 131.573 185.801 134.932 186.013 140.716C186.07 141.855 187.838 141.855 187.795 140.716Z" fill="black"/>
<path d="M186.664 139.854C180.597 138.05 176.318 145.122 175.922 150.319C175.54 155.368 177.888 160.715 179.161 165.516C179.352 166.244 180.406 166.386 180.773 165.728C182.174 163.26 185.561 167.772 186.105 168.663C187.124 170.325 187.788 172.227 188.524 174.023C188.899 174.935 190.179 174.829 190.263 173.79C190.589 169.66 191.968 165.947 194.626 162.765C195.355 161.895 194.11 160.644 193.375 161.514C190.369 165.106 188.856 169.137 188.495 173.783C189.075 173.705 189.655 173.627 190.235 173.549C188.934 170.36 187.746 166.718 184.875 164.568C183.27 163.366 180.462 162.709 179.26 164.837C179.798 164.908 180.335 164.979 180.872 165.049C179.953 161.584 178.836 158.162 178.136 154.647C177.195 149.902 179.041 139.436 186.204 141.565C187.286 141.883 187.753 140.179 186.664 139.854Z" fill="black"/>
<path d="M183.701 163.663C179.09 161.118 178.666 167.871 179.034 170.685C179.458 173.945 180.759 181.54 185.419 180.812C185.045 180.529 184.677 180.246 184.302 179.956C184.139 187.282 186.339 198.971 194.4 201.729C195.482 202.097 195.942 200.393 194.867 200.025C187.675 197.571 185.921 186.363 186.063 179.956C186.077 179.327 185.49 179.016 184.946 179.1C182.753 179.44 181.728 174.787 181.367 173.422C181.212 172.842 179.642 163.43 182.81 165.184C183.807 165.742 184.698 164.215 183.701 163.663Z" fill="black"/>
<path d="M224.991 172.036C223.733 180.31 220.642 188.951 215.989 195.931C215.353 196.878 216.888 197.762 217.517 196.822C222.241 189.743 225.423 180.89 226.703 172.51C226.865 171.393 225.161 170.912 224.991 172.036Z" fill="black"/>
<path d="M200.849 179.136C200.856 179.037 200.856 178.945 200.863 178.846C200.913 177.87 199.3 177.623 199.123 178.613C198.904 179.885 198.812 181.165 198.869 182.459C198.925 183.591 200.693 183.598 200.637 182.459C200.58 181.328 200.63 180.204 200.828 179.086C200.248 179.009 199.668 178.931 199.088 178.853C199.081 178.952 199.081 179.044 199.074 179.143C199.024 180.274 200.792 180.274 200.849 179.136Z" fill="black"/>
<path d="M215.756 179.412C215.19 180.508 214.787 181.66 214.568 182.877C214.37 183.987 216.074 184.468 216.272 183.343C216.463 182.276 216.781 181.264 217.283 180.303C217.799 179.291 216.272 178.393 215.756 179.412Z" fill="black"/>
<path d="M208.861 183.294C208.38 184.496 208.055 185.712 207.878 186.999C207.808 187.473 207.984 187.947 208.494 188.088C208.939 188.209 208.31 190.889 207.009 189.566C206.21 188.753 204.958 190.005 205.757 190.818C206.917 191.999 208.897 191.886 209.858 190.5C210.7 189.29 210.608 186.844 208.96 186.384C209.165 186.745 209.37 187.112 209.576 187.473C209.759 186.193 210.085 184.97 210.558 183.768C210.983 182.707 209.279 182.247 208.861 183.294Z" fill="black"/>
<path d="M199.103 191.391C198.678 193.611 199.683 195.888 201.712 196.949C202.716 197.479 203.614 195.952 202.603 195.421C201.309 194.743 200.531 193.321 200.807 191.857C201.019 190.747 199.322 190.273 199.103 191.391Z" fill="black"/>
<path d="M23.4604 63.3752C25.7728 67.8444 31.4017 70.871 35.2486 73.94C39.3642 77.2212 43.4869 80.7923 48.3875 82.8572C50.3675 83.6917 52.4607 83.7765 54.4407 84.4342C58.5988 85.8131 60.3596 90.2752 62.5517 93.6625C65.8471 98.754 69.1848 103.838 72.7064 108.774C75.832 113.152 79.2405 117.26 83.3703 120.725C87.7405 124.395 92.535 127.535 97.0183 131.064C106.275 138.347 114.86 146.437 122.752 155.178C123.515 156.026 124.76 154.767 124.003 153.926C116.394 145.497 108.142 137.669 99.26 130.597C94.7766 127.026 90.0104 123.83 85.5554 120.237C80.8033 116.404 76.9918 111.815 73.4914 106.83C69.991 101.844 66.6391 96.7457 63.3367 91.6188C61.0455 88.0548 59.5181 83.5502 55.0347 82.7229C48.4441 81.5066 43.7698 78.4517 38.5722 74.3431C36.1396 72.4197 33.7282 70.4821 31.3027 68.5515C29.0469 66.7554 26.3314 65.0936 24.9808 62.4842C24.4646 61.473 22.9442 62.364 23.4604 63.3752Z" fill="black"/>
<path d="M15.5331 32.9535C22.4491 38.5966 29.8246 42.7829 38.1549 45.9368C43.1969 47.8461 48.3025 49.8473 52.6515 53.1002C56.9863 56.339 59.9281 60.787 62.5799 65.44C67.5087 74.0743 72.6002 81.3368 80.393 87.68C88.596 94.3555 97.3647 100.409 105.942 106.575C116.649 114.276 127.511 121.772 138.719 128.73C139.688 129.331 140.579 127.804 139.61 127.203C120.566 115.386 102.131 102.247 84.3672 88.578C80.3152 85.4595 76.3835 82.1359 73.0033 78.2748C69.4888 74.2653 66.9925 69.6405 64.3831 65.037C59.7796 56.9259 54.3769 51.0212 45.7709 47.1248C40.637 44.7983 35.1636 43.2496 30.1499 40.6614C25.3696 38.1935 20.9428 35.0962 16.7777 31.7018C15.9079 30.9876 14.6492 32.2322 15.5331 32.9535Z" fill="black"/>
<path d="M140.621 127.931C147.233 132.697 153.795 137.584 160.881 141.628C163.907 143.354 166.941 144.747 169.706 146.89C171.842 148.544 173.864 150.362 176.134 151.833C177.089 152.455 177.98 150.92 177.025 150.305C174.55 148.7 172.365 146.678 170.01 144.903C167.436 142.958 164.558 141.685 161.772 140.094C154.686 136.042 148.124 131.156 141.512 126.396C140.586 125.739 139.702 127.266 140.621 127.931Z" fill="black"/>
<path d="M25.3274 63.5801C28.3045 61.9042 31.5433 63.7074 34.2941 64.9308C36.6489 65.9774 39.0108 67.024 41.3656 68.0776C42.3981 68.5373 43.2962 67.0098 42.2566 66.5502C38.8482 65.0369 35.468 63.3468 31.9747 62.0244C29.3936 61.0485 26.8973 60.6667 24.4294 62.0527C23.4393 62.6113 24.3304 64.1388 25.3274 63.5801Z" fill="black"/>
<path d="M14.8193 32.1685C12.9382 39.6007 19.0622 42.8253 24.288 46.2903C27.9935 48.7512 31.7555 51.1909 35.2064 54.0053C36.9955 55.4691 38.6291 57.0178 39.9585 58.9271C40.3757 59.5282 44.5479 66.9391 42.0587 66.3593C40.9485 66.0976 40.4818 67.8019 41.592 68.0635C43.862 68.5939 45.2268 66.1825 44.8449 64.1105C44.4206 61.8194 42.1577 58.8423 40.7576 57.0249C39.3433 55.1792 37.6249 53.6659 35.8075 52.2304C32.1869 49.3664 28.3117 46.8278 24.4648 44.282C20.1936 41.4534 14.9607 38.8087 16.5235 32.6352C16.8064 31.5391 15.1021 31.0653 14.8193 32.1685Z" fill="black"/>
<path d="M20.5328 42.7263C19.0973 43.3769 18.6588 44.8265 18.8922 46.3469C19.2316 48.5462 21.1551 49.5079 22.8593 50.6747C28.262 54.3872 34.9445 58.2129 36.6912 65.1006C36.9741 66.2037 38.6783 65.737 38.3954 64.6339C37.4691 61.0062 34.8526 57.6543 32.1442 55.1297C30.7582 53.8357 29.1176 52.8456 27.5548 51.7708C26.3739 50.9576 17.6688 45.9509 21.4238 44.2537C22.4562 43.787 21.5582 42.2596 20.5328 42.7263Z" fill="black"/>
<path d="M169.515 292.655C153.668 320.934 138.874 349.736 123.027 378.022C114.548 393.155 106.041 408.345 99.0262 424.22C91.6436 440.916 84.6074 457.768 77.4157 474.548C69.2693 493.55 61.1229 512.544 52.9836 531.545C52.8068 531.962 52.8351 532.521 53.3018 532.754C69.5097 540.929 87.2946 545.228 105.447 545.334C106.586 545.341 106.586 543.573 105.447 543.566C87.6057 543.46 70.125 539.26 54.1928 531.227C54.2989 531.63 54.405 532.033 54.5111 532.436C68.944 498.775 83.3346 465.094 97.8099 431.448C111.529 399.541 130.233 370.201 146.278 339.461C154.34 324.017 162.528 308.75 171.05 293.546C171.601 292.556 170.074 291.665 169.515 292.655Z" fill="black"/>
<path d="M162.253 427.898C154.439 433.138 149.241 440.746 146.087 449.515C142.354 459.917 138.62 470.058 133.861 480.064C123.855 501.088 111.727 521.588 105.271 544.097C104.96 545.193 106.664 545.66 106.975 544.563C113.276 522.578 125.057 502.523 134.879 482.009C139.362 472.646 143.542 463.156 146.703 453.256C149.772 443.653 154.58 435.153 163.137 429.418C164.084 428.796 163.201 427.261 162.253 427.898Z" fill="black"/>
<path d="M98.4187 433.35C100.406 439.078 102.386 444.806 104.373 450.526C104.705 451.481 106.035 451.297 106.113 450.293C106.53 444.346 106.275 438.477 105.377 432.586C105.229 431.596 103.602 431.836 103.637 432.819C103.864 438.972 106.247 444.516 110.561 448.907C111.36 449.72 112.611 448.469 111.812 447.655C107.824 443.596 105.618 438.505 105.405 432.819C104.826 432.897 104.246 432.975 103.666 433.053C104.536 438.781 104.748 444.509 104.338 450.286C104.917 450.208 105.497 450.13 106.077 450.053C104.09 444.325 102.11 438.597 100.123 432.876C99.7482 431.808 98.0439 432.268 98.4187 433.35Z" fill="black"/>
<path d="M262.329 303.297C262.655 316.245 261.933 329.25 258.624 341.823C256.114 351.377 252.267 360.598 247.96 369.473C239.637 386.628 229.362 402.779 220.643 419.737C218.882 423.16 217.15 426.618 215.721 430.189C214.95 432.119 213.932 434.41 214.293 436.539C214.484 437.656 216.188 437.182 215.997 436.072C215.686 434.241 216.952 431.822 217.616 430.189C219.101 426.582 220.89 423.089 222.687 419.624C227.241 410.855 232.141 402.263 236.964 393.643C245.853 377.76 254.904 361.652 259.861 344.015C263.581 330.763 264.444 317.002 264.097 303.29C264.069 302.166 262.301 302.159 262.329 303.297Z" fill="black"/>
<path d="M213.84 435.4C217.475 460.985 221.343 486.542 225.458 512.056C226.462 518.264 227.474 524.466 228.506 530.668C229.178 534.699 230.331 538.291 227.127 541.473C225.437 543.156 223.316 544.479 221.187 545.539C212.376 549.959 201.26 550.624 191.904 547.668C190.815 547.321 190.348 549.033 191.437 549.372C200.694 552.293 211.4 551.727 220.317 547.88C224.051 546.268 229.397 543.418 230.847 539.288C231.568 537.23 231.009 535.024 230.67 532.945C230.104 529.501 229.524 526.057 228.959 522.606C224.164 493.429 219.702 464.196 215.544 434.92C215.388 433.809 213.684 434.283 213.84 435.4Z" fill="black"/>
<path d="M162.67 434.184C171.906 472.307 181.601 510.323 190.836 548.446C191.062 549.393 192.689 549.217 192.576 548.212C192.477 547.357 192.378 546.508 192.279 545.652C192.151 544.535 190.376 544.521 190.511 545.652C190.61 546.508 190.709 547.357 190.808 548.212C191.388 548.135 191.968 548.057 192.547 547.979C183.312 509.849 173.617 471.84 164.382 433.717C164.106 432.607 162.402 433.074 162.67 434.184Z" fill="black"/>
<path d="M200.56 567.673C203.091 568.309 203.947 566.131 204.491 564.06C204.937 562.377 205.057 560.418 205.962 558.89C207.419 556.444 210 556.062 212.588 555.814C214.278 555.659 215.976 555.68 217.666 555.871C220.395 556.175 221.817 556.691 222.828 559.442C223.931 562.461 224.532 565.771 224.921 568.96C225.055 570.077 226.823 570.092 226.689 568.96C226.265 565.474 225.642 561.881 224.391 558.593C222.969 554.852 220.713 554.336 216.874 554.032C213.628 553.778 209.187 553.707 206.464 555.765C205.008 556.868 204.145 558.303 203.622 560.022C203.268 561.181 202.837 566.421 201.026 565.962C199.93 565.686 199.456 567.39 200.56 567.673Z" fill="black"/>
<path d="M197.922 550.376C197.498 554.556 197.667 558.862 197.667 563.063C197.667 564.201 199.435 564.201 199.435 563.063C199.442 558.862 199.265 554.556 199.69 550.376C199.803 549.245 198.035 549.259 197.922 550.376Z" fill="black"/>
<path d="M164.445 434.22C163.603 422.969 168.094 412.277 171.679 401.832C174.593 393.367 177.527 384.91 180.49 376.459C186.657 358.915 192.788 341.314 199.774 324.074C200.198 323.02 198.494 322.56 198.07 323.607C190.956 341.158 184.719 359.071 178.454 376.933C175.519 385.299 172.613 393.679 169.727 402.065C166.163 412.446 161.836 423.047 162.67 434.22C162.762 435.344 164.53 435.358 164.445 434.22Z" fill="black"/>
<path d="M212.454 435.804C210.248 440.789 208.36 445.873 206.797 451.092C207.362 451.248 207.935 451.403 208.501 451.559C208.543 451.262 208.593 450.965 208.635 450.668C208.805 449.558 207.101 449.077 206.931 450.201C206.889 450.498 206.839 450.795 206.797 451.092C206.634 452.188 208.169 452.683 208.501 451.559C210.021 446.489 211.839 441.532 213.981 436.688C214.434 435.662 212.914 434.764 212.454 435.804Z" fill="black"/>
<path d="M213.416 437.147C212.164 442.331 211.471 447.564 211.315 452.895C211.28 454.048 212.991 454.013 213.083 452.895C213.14 452.21 213.062 452.026 212.779 451.403C212.305 450.371 210.778 451.269 211.252 452.294C211.273 452.492 211.294 452.69 211.315 452.888C211.902 452.888 212.496 452.888 213.083 452.888C213.225 447.719 213.903 442.642 215.12 437.614C215.388 436.511 213.684 436.037 213.416 437.147Z" fill="black"/>
<path d="M170.711 448.801C174.246 453.603 178.758 457.365 184.153 459.896C185.179 460.377 186.077 458.857 185.044 458.369C179.939 455.972 175.583 452.45 172.238 447.903C171.573 446.998 170.032 447.882 170.711 448.801Z" fill="black"/>
<path d="M62.071 512.763C67.113 519.481 77.0909 521.532 84.7989 523.384C94.3667 525.682 103.743 525.548 113.495 525.039C114.627 524.982 114.634 523.215 113.495 523.271C104.84 523.724 96.3679 524.049 87.8114 522.253C83.5614 521.362 79.3821 520.153 75.2594 518.781C70.8892 517.331 66.4625 515.676 63.5985 511.872C62.9196 510.974 61.3851 511.851 62.071 512.763Z" fill="black"/>
<path d="M92.3513 543.022C93.7232 531.905 97.3085 521.397 102.81 511.653C108.22 502.071 115.44 493.882 121.62 484.837C127.956 475.574 131.082 465.214 134.929 454.805C138.755 444.466 143.719 434.545 149.659 425.26C156.469 414.617 164.573 404.887 173.723 396.189C174.551 395.404 173.299 394.152 172.472 394.937C156.674 409.957 144.037 428.131 135.622 448.249C130.99 459.323 128.253 471.182 121.762 481.408C115.56 491.174 107.668 499.688 101.863 509.736C95.8942 520.061 92.0402 531.177 90.5764 543.022C90.4491 544.146 92.217 544.139 92.3513 543.022Z" fill="black"/>
<path d="M189.669 539.359C198.162 539.698 206.98 539.712 215.077 536.785C220.529 534.819 227.035 531 229.107 525.202C229.489 524.127 227.785 523.667 227.403 524.735C225.168 530.972 217.192 534.55 211.358 536.092C204.3 537.952 196.903 537.881 189.669 537.591C188.531 537.541 188.531 539.309 189.669 539.359Z" fill="black"/>
<path d="M69.6515 559.958C69.7717 569.399 69.4605 578.874 68.4917 588.272C68.2937 590.203 67.7422 590.854 65.9319 591.836C64.9489 592.374 63.5629 592.685 62.5022 593.01C60.5716 593.611 58.6128 594.106 56.6894 594.722C52.8778 595.931 49.6108 597.706 46.2235 599.799C39.2157 604.12 31.041 605.881 22.8734 604.678C19.1255 604.127 15.4271 602.974 12.0681 601.22C10.1659 600.223 8.27072 599.58 8.19294 597.274C8.11515 595.005 8.59601 592.565 8.78694 590.302C8.88594 589.171 7.11806 589.178 7.01906 590.302C6.89178 591.78 6.77156 593.258 6.64427 594.743C6.55234 595.804 5.87348 598.229 6.26948 599.184C6.67256 600.146 7.54235 600.57 8.44043 601.164C12.0328 603.512 16.1272 605.152 20.3206 606.029C28.3255 607.698 36.8609 606.757 44.1728 603.031C48.9885 600.577 53.0476 597.685 58.3229 596.094C60.8333 595.337 63.3861 594.693 65.847 593.767C67.134 593.286 68.8453 592.812 69.6302 591.554C70.4152 590.295 70.2667 588.35 70.394 586.943C70.6839 583.803 70.9102 580.663 71.0799 577.517C71.3981 571.676 71.4971 565.82 71.4264 559.972C71.4052 558.82 69.6373 558.82 69.6515 559.958Z" fill="black"/>
<path d="M49.5825 546.833C49.6533 551.989 45.8771 555.984 42.5888 559.534C39.3218 563.063 36.0123 566.521 32.4341 569.738C24.6625 576.732 16.1484 582.82 7.79697 589.093C6.89889 589.765 7.77575 591.306 8.68798 590.62C17.8244 583.761 27.1729 577.107 35.5385 569.293C39.4632 565.63 43.3172 561.698 46.7257 557.54C49.2926 554.407 51.407 550.999 51.3504 546.833C51.3363 545.702 49.5684 545.695 49.5825 546.833Z" fill="black"/>
<path d="M50.5514 547.795C54.8933 547.449 61.7527 546.798 62.3396 552.498C62.6579 555.574 62.0073 558.643 62.6154 561.775C63.8247 567.949 68.6616 562.277 71.1649 559.965C71.9993 559.194 70.7477 557.943 69.9132 558.713C68.9727 559.583 65.9956 563.077 64.546 562.483C63.8247 562.186 63.9166 557.723 63.9024 556.762C63.86 554.386 64.7864 551.472 63.6125 549.273C61.3779 545.08 54.3913 545.723 50.5514 546.027C49.42 546.119 49.4129 547.887 50.5514 547.795Z" fill="black"/>
<path d="M69.4042 585.359C63.7823 587.622 58.1392 589.892 52.2699 591.448C46.9026 592.869 41.7192 593.477 36.5923 595.712C27.4842 599.686 15.8091 596.921 8.94977 589.779C8.15776 588.958 6.91318 590.21 7.69812 591.03C13.7443 597.324 23.8919 600.676 32.4908 598.972C34.9022 598.491 36.9883 597.395 39.2371 596.447C42.787 594.955 46.4995 594.609 50.2262 593.774C57.0007 592.254 63.457 589.651 69.8779 587.07C70.9175 586.646 70.4578 584.935 69.4042 585.359Z" fill="black"/>
<path d="M55.5366 546.911C57.9551 543.545 59.8573 539.903 61.2858 536.014C61.6747 534.946 59.9705 534.479 59.5815 535.547C58.2096 539.302 56.3428 542.781 54.0092 546.027C53.3444 546.947 54.879 547.83 55.5366 546.911Z" fill="black"/>
<path d="M71.8505 559.923C74.2831 553.926 76.8289 547.972 79.4807 542.067C79.9404 541.035 78.42 540.137 77.9533 541.176C75.2378 547.222 72.6355 553.318 70.1392 559.456C69.722 560.51 71.4333 560.962 71.8505 559.923Z" fill="black"/>
<path d="M32.4204 577.51C34.3226 578.097 36.1329 578.882 37.8301 579.928C38.8272 580.543 40.1 582.134 41.3305 582.043C41.6982 582.014 42.1083 581.788 42.1861 581.392C42.271 580.953 42.2144 580.642 41.8891 580.317C41.6204 580.055 41.1466 579.963 40.8213 580.176C40.8001 580.19 40.7718 580.211 40.7506 580.225C39.8101 580.855 40.694 582.389 41.6416 581.753C41.6628 581.738 41.6911 581.717 41.7123 581.703C41.3588 581.654 40.9981 581.611 40.6445 581.562C40.6799 581.59 40.7082 581.625 40.7435 581.654C40.6658 581.364 40.595 581.081 40.5172 580.791C40.5102 580.833 40.5031 580.869 40.496 580.911C40.7789 580.692 41.0618 580.48 41.3517 580.26C41.0123 580.282 40.0435 579.242 39.7323 579.03C39.0039 578.528 38.2544 578.068 37.4765 577.658C36.0198 576.887 34.4923 576.279 32.9224 575.798C31.7981 575.466 31.3313 577.17 32.4204 577.51Z" fill="black"/>
<path d="M36.1818 574.518C39.272 576.265 42.3269 578.054 44.6252 580.826C45.1838 581.498 46.4001 580.777 46.1031 579.963C46.0466 579.801 45.9829 579.645 45.9263 579.483C45.5374 578.422 43.8261 578.882 44.2221 579.949C44.2787 580.112 44.3423 580.268 44.3989 580.43C44.8939 580.14 45.3818 579.857 45.8768 579.567C43.4937 576.689 40.2903 574.801 37.0799 572.984C36.0828 572.425 35.1918 573.953 36.1818 574.518Z" fill="black"/>
<path d="M40.644 569.738C44.1444 570.848 47.2842 572.637 50.0138 575.091C50.7209 575.728 51.9938 574.893 51.3998 574.023C51.3078 573.889 51.2088 573.748 51.1169 573.613C50.4805 572.68 48.946 573.564 49.5895 574.504C49.6814 574.639 49.7804 574.78 49.8723 574.914C50.332 574.561 50.7987 574.2 51.2583 573.847C48.2954 571.188 44.894 569.243 41.1036 568.041C40.0288 567.687 39.5621 569.399 40.644 569.738Z" fill="black"/>
<path d="M45.0073 564.915C48.1471 566.499 51.1313 568.324 53.9811 570.389C54.9075 571.053 55.7843 569.526 54.8721 568.861C52.0223 566.796 49.0381 564.979 45.8983 563.388C44.8871 562.872 43.989 564.399 45.0073 564.915Z" fill="black"/>
<path d="M48.6561 560.354C49.9643 561.047 51.2796 561.74 52.5879 562.433C53.2031 562.758 53.8112 563.077 54.4265 563.402C54.773 563.586 55.1265 563.77 55.473 563.953C55.9893 564.448 56.2863 564.286 56.3641 563.451C55.2397 563.621 55.7206 565.325 56.8308 565.156C58.3653 564.915 57.7289 563.289 56.8874 562.702C54.674 561.16 51.9302 560.078 49.5471 558.82C48.543 558.296 47.6449 559.824 48.6561 560.354Z" fill="black"/>
<path d="M215.155 549.895C215.17 551.288 215.403 552.667 215.417 554.06C215.431 555.199 217.199 555.199 217.185 554.06C217.171 552.667 216.937 551.288 216.923 549.895C216.909 548.764 215.141 548.757 215.155 549.895Z" fill="black"/>
<path d="M201.316 566.061C199.873 564.152 193.057 553.947 192.045 560.877C191.621 563.784 191.996 567.03 191.975 569.964C191.953 572.991 191.925 576.018 191.904 579.051C191.847 585.571 191.798 592.098 191.741 598.618C191.734 599.757 193.502 599.757 193.509 598.618C193.58 589.531 193.658 580.451 193.728 571.365C193.742 569.271 193.764 567.171 193.778 565.078C193.785 563.883 193.17 560.078 194.839 560.955C196.663 561.917 198.551 565.318 199.796 566.966C200.467 567.85 202.002 566.966 201.316 566.061Z" fill="black"/>
<path d="M192.314 599.707C200.863 605.279 211.209 607.903 221.392 607.429C228.867 607.076 237.374 604.487 240.054 596.709C240.421 595.634 238.717 595.167 238.349 596.242C235.535 604.41 225.486 605.873 218.019 605.704C209.229 605.506 200.58 602.988 193.212 598.187C192.25 597.557 191.366 599.085 192.314 599.707Z" fill="black"/>
<path d="M192.944 592.657C201.132 598.837 212.178 602.861 222.524 601.857C228.683 601.263 238.272 597.211 238.307 589.871C238.314 588.732 236.547 588.732 236.54 589.871C236.504 598.081 223.889 600.442 217.765 600.174C209.243 599.799 200.602 596.242 193.828 591.129C192.922 590.443 192.046 591.978 192.944 592.657Z" fill="black"/>
<path d="M209.406 564.576C211.726 564.859 214.052 565.007 216.386 565.014C217.524 565.021 217.524 563.253 216.386 563.246C214.045 563.239 211.726 563.091 209.406 562.808C208.282 562.674 208.289 564.441 209.406 564.576Z" fill="black"/>
<path d="M208.939 570.382C212.1 570.877 215.212 570.792 218.337 570.106C218.047 569.611 217.765 569.123 217.475 568.628C217.284 568.826 217.093 569.031 216.902 569.229C216.117 570.056 217.369 571.308 218.154 570.481C218.344 570.283 218.535 570.077 218.726 569.879C219.349 569.222 218.726 568.211 217.864 568.402C215.063 569.017 212.242 569.116 209.406 568.677C208.303 568.501 207.822 570.205 208.939 570.382Z" fill="black"/>
<path d="M209.661 576.01C211.16 576.088 212.659 576.159 214.165 576.237C214.858 576.272 215.551 576.307 216.244 576.343C216.562 576.357 218.21 576.222 218.351 576.357C218.351 575.94 218.351 575.522 218.351 575.105C218.323 575.141 218.288 575.183 218.259 575.218C218.613 575.169 218.974 575.126 219.327 575.077C219.299 575.056 219.264 575.035 219.235 575.013C218.281 574.384 217.397 575.911 218.344 576.541C218.373 576.562 218.408 576.583 218.436 576.604C218.726 576.795 219.278 576.76 219.504 576.463C219.532 576.428 219.568 576.385 219.596 576.35C219.886 575.982 219.971 575.466 219.596 575.098C218.762 574.292 216.944 574.603 215.891 574.547C213.812 574.44 211.732 574.334 209.661 574.235C208.522 574.186 208.522 575.954 209.661 576.01Z" fill="black"/>
<path d="M211.45 581.943C213.267 582.092 215.169 581.887 216.965 581.653C218.776 581.42 220.897 581.166 222.411 580.048C223.316 579.383 222.439 577.849 221.519 578.521C219.052 580.338 214.413 580.409 211.45 580.168C210.318 580.084 210.318 581.859 211.45 581.943Z" fill="black"/>
<path d="M225.013 569.392C225.869 574.179 226.491 578.549 230.274 581.958C234.927 586.137 238.159 590.344 238.414 596.864C238.456 597.996 240.224 598.003 240.181 596.864C240.005 592.346 238.555 588.096 235.649 584.588C233.852 582.424 231.349 580.982 229.701 578.698C227.637 575.827 227.325 572.305 226.717 568.918C226.519 567.8 224.815 568.274 225.013 569.392Z" fill="black"/>
<path d="M227.502 167.178C234.955 164.42 240.867 158.897 244 151.571C244.438 150.539 242.918 149.633 242.472 150.68C239.531 157.568 234.071 162.871 227.035 165.474C225.974 165.863 226.434 167.574 227.502 167.178Z" fill="black"/>
<path d="M188.587 164.102C189.004 161.301 191.232 159.611 193.389 158.07C194.308 157.412 193.424 155.878 192.498 156.542C189.987 158.338 187.371 160.375 186.883 163.635C186.72 164.738 188.425 165.219 188.587 164.102Z" fill="black"/>
<path d="M184.507 217.067C186.953 217.329 189.351 216.749 191.423 215.427C192.377 214.819 191.493 213.284 190.532 213.899C188.693 215.08 186.685 215.533 184.514 215.3C183.375 215.172 183.382 216.947 184.507 217.067Z" fill="black"/>
<path d="M189.634 222.399C192.816 221.735 195.687 220.37 198.601 218.977C199.626 218.489 198.728 216.961 197.71 217.449C194.924 218.779 192.208 220.059 189.168 220.695C188.05 220.928 188.517 222.633 189.634 222.399Z" fill="black"/>
<path d="M195.482 226.006C198.509 225.256 201.203 223.962 203.6 221.954C204.47 221.218 203.218 219.974 202.349 220.702C200.192 222.513 197.731 223.63 195.015 224.302C193.905 224.577 194.372 226.282 195.482 226.006Z" fill="black"/>
<path d="M158.915 228.587C168.582 241.775 179.62 253.846 191.911 264.623C192.766 265.373 194.018 264.128 193.162 263.372C180.985 252.694 170.017 240.757 160.442 227.689C159.778 226.791 158.243 227.668 158.915 228.587Z" fill="black"/>
<path d="M234.29 326.464C244.579 328.316 254.918 325.403 262.71 318.416C263.559 317.653 262.307 316.408 261.459 317.165C254.182 323.692 244.388 326.485 234.764 324.752C233.647 324.554 233.173 326.259 234.29 326.464Z" fill="black"/>
<path d="M235.097 333.592C244.686 335.367 254.275 332.878 261.784 326.669C262.661 325.94 261.403 324.696 260.533 325.417C253.546 331.188 244.473 333.535 235.563 331.888C234.46 331.683 233.979 333.387 235.097 333.592Z" fill="black"/>
</svg>
