<svg width="454" height="766" viewBox="0 0 454 766" fill="none" xmlns="http://www.w3.org/2000/svg">
<path d="M349.392 585.434C387.971 553.814 398.27 473.482 319.165 446.886C273.509 431.534 228.057 450.699 197.902 490.022C225.246 502.237 249.726 528.266 265.352 576.054C283.477 631.49 249.038 682.501 201.392 718.796C228.441 750.284 265.432 766.381 297.577 765.993C363.376 765.209 357.022 740.073 335.05 709.345C305.922 668.585 303.94 622.692 349.392 585.434Z" fill="#FFECDD"/>
<path d="M199.841 490.358C189.426 485.01 178.537 482.302 167.61 481.588C141.487 479.873 121.448 482.302 104.072 462.713C88.8525 445.562 76.179 434.79 52.9506 444.467C-6.60645 469.287 -16.2067 565.235 38.0575 605.778C110.024 659.545 56.9785 716.456 71.9726 741.446C84.3822 762.128 111.677 775.361 161.696 748.384C176.069 740.631 189.915 730.34 202.868 719.001C189.061 700.53 187.687 677.543 182.433 648.688C171.033 585.956 174.486 528.355 199.841 490.358Z" fill="#F8BAB4"/>
<path d="M265.274 576.296C249.988 528.633 226.043 502.679 199.295 490.488C170.775 528.408 167.362 588.696 180.203 651.284C186.113 680.088 187.178 700.225 202.708 718.659C249.316 682.474 283.004 631.588 265.274 576.296Z" fill="#F8BAB4"/>
<path d="M357.04 653.638C356.978 658.209 359.306 661.95 362.116 665.388C365.849 669.951 370.086 674.259 374.394 678.287C383.575 686.862 393.835 694.165 403.862 701.693C404.863 702.446 405.825 700.762 404.84 700.017C395.674 693.141 386.338 686.451 377.801 678.776C373.874 675.244 370.242 671.449 366.656 667.577C363.047 663.673 358.903 659.296 358.98 653.638C358.996 652.388 357.056 652.388 357.04 653.638Z" fill="black"/>
<path d="M261.923 239.618C261.31 239.416 249.901 219.633 226.619 259.214C195.187 216.529 186.681 239.618 186.681 239.618L185.866 244.499C185.866 244.499 186.883 246.129 185.866 248.163C184.849 250.196 175.086 257.514 174.884 259.959C174.683 262.396 174.069 277.041 173.666 281.108C173.262 285.174 172.036 288.224 172.036 288.224C172.036 288.224 185.098 315.868 223.902 327.898C255.334 327.51 275.124 294.526 275.124 294.526L278.391 290.459C278.391 290.459 275.14 286.796 275.543 281.915C275.947 277.033 275.512 262.544 273.735 259.68C271.958 256.816 264.647 251.88 263.762 249.808C262.87 247.736 263.265 245.462 263.265 245.462L261.923 239.618Z" fill="#F8BAB4"/>
<path d="M160.752 366.252C160.752 366.252 178.695 375.488 204.873 375.767C231.05 376.046 253.704 371.545 262.854 368.588C272.004 365.631 274.674 364.506 274.674 364.506C274.674 364.506 318.492 505.157 320.207 511.606C321.923 518.047 328.799 540.608 330.948 546.406C333.098 552.203 338.251 568.105 339.322 573.258C340.393 578.412 355.007 635.555 355.007 635.555C355.007 635.555 344.693 642.431 332.237 646.079C319.78 649.734 312.64 650.914 308.915 650.487C305.19 650.06 299.338 649.532 299.338 649.532C299.338 649.532 296.56 597.713 286.618 573.181C276.684 548.641 230.243 441.564 230.243 441.564C230.243 441.564 222.738 482.937 222.133 494.09C221.528 505.242 221.318 514.772 222.335 522.277C223.351 529.782 233.891 598.326 233.891 598.326L244.841 645.582C244.841 645.582 234.907 657.348 210.973 654.104C187.046 650.86 176.499 644.775 176.499 644.775C176.499 644.775 175.482 631.387 175.28 627.134C175.079 622.874 159.867 513.771 158.447 504.031C157.027 494.299 158.245 446.841 158.447 438.731C158.649 430.621 160.752 366.252 160.752 366.252Z" fill="#F8BAB4"/>
<path d="M207.247 190.111C207.689 189.894 215.388 192.757 222.249 190.996C230.856 188.792 237.584 183.274 239.354 180.844C241.123 178.415 240.014 176.429 240.014 176.429C240.014 176.429 234.604 182.272 228.978 182.164C223.351 182.055 214.193 180.068 211.213 176.429C208.233 172.789 207.682 172.455 207.682 172.455L207.247 190.111Z" fill="#F8BAB4"/>
<path d="M201.101 142.785C199.424 139.813 196.879 136.646 193.084 136.863C189.7 137.058 188 139.758 187.791 142.894C187.38 149.172 192.447 162.28 200.775 157.593C200.301 157.399 199.828 157.205 199.347 157.011C202.451 165.649 206.184 174.651 214.085 179.967C220.907 184.562 229.777 184.834 236.584 180.092C252.268 169.157 250.126 146.409 248.675 130.003C248.566 128.769 246.626 128.761 246.735 130.003C248.046 144.865 250.251 163.514 238.958 175.505C232.882 181.954 223.716 183.537 216.033 178.912C207.969 174.061 204.259 164.95 201.217 156.499C201.008 155.909 200.371 155.591 199.789 155.916C194.054 159.145 190.616 150.437 189.941 146.394C189.359 142.878 190.515 136.778 195.653 139.401C197.414 140.302 198.478 142.11 199.409 143.763C200.038 144.857 201.714 143.879 201.101 142.785Z" fill="black"/>
<path d="M221.861 142.475C221.877 143.965 221.892 145.455 221.916 146.953C221.931 148.202 223.871 148.202 223.856 146.953C223.84 145.463 223.825 143.972 223.802 142.475C223.786 141.233 221.846 141.225 221.861 142.475Z" fill="black"/>
<path d="M240.565 143.134C240.558 144.407 240.604 145.68 240.728 146.953C240.845 148.187 242.785 148.194 242.668 146.953C242.552 145.68 242.498 144.415 242.505 143.134C242.513 141.885 240.573 141.885 240.565 143.134Z" fill="black"/>
<path d="M232.408 143.026C232.067 145.191 231.974 147.302 232.176 149.483C232.23 150.072 232.758 150.631 233.402 150.422C234.17 150.833 234.938 151.252 235.707 151.663C236.157 152.703 235.847 153.48 234.783 153.999C233.573 155.233 233.681 155.133 232.199 155.024C230.957 154.931 230.957 156.871 232.199 156.964C235.288 157.189 237.857 155.994 237.771 152.533C237.709 149.886 235.583 147.667 232.882 148.551C233.293 148.862 233.697 149.172 234.108 149.49C233.922 147.48 233.961 145.54 234.271 143.546C234.473 142.319 232.602 141.792 232.408 143.026Z" fill="black"/>
<path d="M226.262 164.329C230.452 165.944 235.101 164.919 238.299 161.791C239.191 160.914 237.818 159.541 236.925 160.418C234.178 163.111 230.344 163.833 226.782 162.451C225.61 162.009 225.105 163.887 226.262 164.329Z" fill="black"/>
<path d="M206.488 172.37C206.224 180.2 205.727 188.062 205.704 195.893C205.689 200.813 209.321 203.537 213.69 205.206C223.244 208.846 234.846 205.726 242.211 198.958C243.135 198.112 241.761 196.747 240.838 197.585C234.202 203.677 223.834 206.572 215.141 203.669C213.077 202.979 210.462 201.799 209.018 200.091C206.767 197.422 207.738 193.176 207.846 190.01C208.04 184.127 208.242 178.245 208.436 172.37C208.475 171.12 206.535 171.12 206.488 172.37Z" fill="black"/>
<path d="M239.09 175.924C238.71 183.343 239.564 190.639 240.185 198.027C240.285 199.261 242.226 199.277 242.125 198.027C241.512 190.646 240.658 183.351 241.03 175.924C241.093 174.675 239.152 174.675 239.09 175.924Z" fill="black"/>
<path d="M206.106 195.963C194.946 200.79 183.157 203.855 171.717 207.899C161.465 211.523 151.57 216.102 142.342 221.876C132.517 228.031 123.949 235.691 114.737 242.668C104.547 250.39 96.2814 259.649 87.6203 269.008C86.9451 269.73 87.6125 270.832 88.5671 270.63C96.4367 268.923 103.119 274.852 109.979 277.685C116.297 280.293 123.041 281.332 129.847 281.007C131.089 280.944 131.097 279.004 129.847 279.066C121.341 279.478 113.441 277.545 105.928 273.595C100.278 270.615 94.6517 267.332 88.0471 268.76C88.3653 269.303 88.6758 269.839 88.994 270.382C93.635 265.368 98.2216 260.3 102.917 255.341C107.123 250.91 111.904 247.247 116.755 243.56C125.928 236.583 134.481 228.977 144.337 222.924C154.116 216.917 164.608 212.307 175.474 208.659C186.052 205.105 196.816 202.086 207.076 197.647C208.225 197.142 207.239 195.474 206.106 195.963Z" fill="black"/>
<path d="M111.161 247.254C130.804 250.436 148.095 262.621 157.641 280.091C158.239 281.185 159.915 280.207 159.318 279.113C149.554 261.255 131.782 248.644 111.681 245.384C110.455 245.182 109.927 247.053 111.161 247.254Z" fill="black"/>
<path d="M130.012 281.076C140.675 280.432 156.36 288.115 162.786 275.915C165.991 269.831 165.728 262.629 169.942 256.979C174.125 251.375 180.543 247.961 186.597 244.748C186.108 244.468 185.626 244.189 185.138 243.909C185.774 250.196 177.384 252.734 175.017 257.972C173.131 262.163 173.349 266.967 173.325 271.453C173.31 274.146 173.209 276.831 172.914 279.509C172.41 284.072 171.859 288.954 166.333 289.675C161.358 290.32 158.409 291.794 154.327 294.743C144.719 301.682 132.938 303.971 121.296 304.351C112.224 304.646 101.894 304.274 93.2331 301.332C90.121 300.277 86.3337 299.02 83.5863 297.149C81.1494 295.488 80.4043 292.105 81.4753 289.458C82.0341 288.084 82.7093 286.757 83.4233 285.453C86.4656 279.92 90.3072 274.643 95.1267 270.537C96.0813 269.722 94.6999 268.356 93.7531 269.163C89.1198 273.114 85.3713 278.174 82.3368 283.428C80.2413 287.068 76.6713 292.803 79.8999 296.769C81.5141 298.748 84.3701 299.718 86.6053 300.711C89.112 301.821 91.6499 302.962 94.2963 303.684C99.24 305.019 104.486 305.546 109.57 305.958C121.863 306.959 135.01 306.291 146.488 301.394C152.844 298.686 158.145 292.524 165.091 291.717C170.508 291.088 173.17 289.45 174.226 283.847C175.638 276.342 174.001 268.217 176.026 260.898C177.245 256.505 180.396 254.526 183.562 251.655C185.875 249.559 187.38 247.084 187.062 243.902C186.985 243.164 186.294 242.699 185.603 243.064C180.667 245.687 175.646 248.403 171.548 252.26C167.148 256.404 165.091 261.286 163.671 267.068C161.777 274.759 158.898 281.495 149.709 280.867C143.074 280.417 136.686 278.725 129.996 279.128C128.77 279.214 128.762 281.154 130.012 281.076Z" fill="black"/>
<path d="M170.873 255.248C171.703 253.122 172.471 250.685 173.83 248.845C175.141 247.06 177.291 245.609 178.921 244.127C181.769 241.542 185.719 239.012 187.372 235.435C186.783 235.357 186.193 235.279 185.603 235.202C186.185 237.778 186.573 241.395 184.47 243.483C183.585 244.36 184.951 245.733 185.843 244.856C188.49 242.233 188.226 238.003 187.473 234.689C187.295 233.921 186.053 233.696 185.704 234.457C183.709 238.772 177.92 242.404 174.443 245.578C171.532 248.232 170.423 251.104 169.01 254.728C168.552 255.9 170.423 256.404 170.873 255.248Z" fill="black"/>
<path d="M159.168 292.648C155.047 315.651 147.433 338.321 134.69 358.026C134.248 358.709 134.853 359.399 135.528 359.485C147.596 360.967 158.345 367.463 169.878 370.932C179.564 373.85 189.598 375.604 199.672 376.419C220.735 378.126 242.295 375.806 262.496 369.582C273.346 366.237 283.808 361.704 293.524 355.822C294.588 355.177 293.618 353.501 292.547 354.145C257.421 375.402 210.817 380.843 171.492 369.388C159.37 365.856 148.171 359.089 135.528 357.544C135.808 358.033 136.087 358.515 136.366 359.003C149.195 339.167 156.894 316.311 161.038 293.16C161.256 291.942 159.385 291.422 159.168 292.648Z" fill="black"/>
<path d="M285.757 292.679C288.986 313.455 290.453 334.448 292.222 355.387C292.323 356.621 294.271 356.636 294.162 355.387C292.377 334.277 290.887 313.113 287.628 292.167C287.434 290.933 285.563 291.46 285.757 292.679Z" fill="black"/>
<path d="M171.665 288.333C176.174 298.795 184.012 305.834 193.248 312.966C203.182 320.634 214.016 328.565 226.573 328.395C249.902 328.077 264.648 310.824 279.262 290.04C279.463 288.822 277.593 288.294 277.391 289.528C262.32 310.824 249.514 325.57 226.573 326.454C214.101 326.625 203.383 318.6 193.636 310.824C185.029 303.948 180.054 301.123 173.535 287.821C173.302 286.587 171.432 287.107 171.665 288.333Z" fill="black"/>
<path d="M187.862 237.662C198.107 226.914 211.874 240.418 226.62 260.378C239.037 237.662 251.684 229.143 260.993 238.655C261.87 239.548 262.459 238.174 261.59 237.282C253.891 229.412 240.589 231.973 226.62 257.662C211.874 237.801 198.681 225.454 186.488 236.288C185.552 237.12 187 238.57 187.862 237.662Z" fill="black"/>
<path d="M249.977 249.398C261.415 256.351 266.519 260.929 266.957 276.642C267.846 277.515 268.598 276.504 268.598 276.504C267.517 260.349 263.822 255.703 250.884 248.325C249.827 247.676 248.92 248.749 249.977 249.398Z" fill="black"/>
<path d="M207.228 311.157C196.846 304.716 189.755 298.406 183.73 285.568C182.824 284.704 181.562 286.178 182.462 287.036C186.652 297.242 194.8 306.167 206.399 312.913C207.454 313.567 208.283 311.812 207.228 311.157Z" fill="black"/>
<path d="M159.386 366.772C158.664 390.978 158.098 415.185 157.438 439.391C156.778 463.791 155.319 488.207 158.462 512.498C161.598 536.697 166.153 560.701 169.56 584.869C171.392 597.853 172.96 610.883 173.992 623.953C174.473 630.022 174.504 636.145 175.055 642.198C175.389 645.846 176.887 646.793 180.263 647.988C192.447 652.319 205.408 655.012 218.353 655.361C228.846 655.648 237.189 652.621 245.462 646.18C246.448 645.411 245.066 644.053 244.088 644.806C235.823 651.24 227.581 653.801 217.173 653.382C205.726 652.924 194.395 650.611 183.522 647.041C182.335 646.653 180.464 646.335 179.425 645.629C176.592 643.712 176.995 641.779 176.879 639.148C176.77 636.611 176.631 634.081 176.475 631.543C176.095 625.466 175.591 619.397 174.985 613.336C173.868 602.129 172.409 590.961 170.787 579.816C167.38 556.371 162.855 533.049 160.038 509.518C157.36 487.175 158.695 464.691 159.308 442.27C159.999 417.101 160.589 391.933 161.334 366.764C161.365 365.523 159.425 365.523 159.386 366.772Z" fill="black"/>
<path d="M234.899 412.46C228.97 441.89 222.272 471.754 220.596 501.804C219.858 515.067 222.233 527.694 224.127 540.787C226.517 557.333 228.76 573.903 231.492 590.394C234.503 608.594 238.182 626.669 243.195 644.426C243.537 645.629 245.407 645.116 245.066 643.914C236.28 612.785 231.787 580.763 227.231 548.804C225.244 534.881 222.008 520.787 222.35 506.67C222.683 492.848 224.724 479.057 226.936 465.429C229.792 447.873 233.269 430.419 236.777 412.98C237.018 411.762 235.147 411.234 234.899 412.46Z" fill="black"/>
<path d="M274.62 365.336C290.026 415.844 306.129 466.197 320.782 516.93C323.956 527.912 326.797 538.707 330.902 549.386C335.054 560.197 337.623 571.52 340.681 582.672C344.74 597.449 349.055 612.164 352.206 627.166C352.64 629.238 353.184 631.341 353.471 633.444C353.696 635.074 353.719 635.097 352.415 636.098C351.5 636.797 350.429 637.363 349.427 637.93C344.499 640.755 339.23 642.967 333.836 644.736C323.196 648.236 311.321 650.588 300.146 648.632C298.927 648.415 298.4 650.285 299.634 650.503C309.094 652.156 318.919 650.813 328.139 648.43C337.708 645.955 347.27 642.191 355.349 636.417C355.729 636.145 355.884 635.78 355.791 635.322C353.556 623.541 350.747 611.915 347.573 600.352C345.648 593.336 343.684 586.336 341.767 579.32C339.253 570.115 337.15 560.74 333.859 551.776C330.832 543.542 327.806 535.572 325.586 527.073C322.971 517.046 319.905 507.136 316.878 497.225C310.592 476.628 304.313 456.03 298.027 435.433C290.848 411.894 283.662 388.355 276.483 364.816C276.126 363.629 274.255 364.141 274.62 365.336Z" fill="black"/>
<path d="M229.801 442.681C241.823 470.264 253.844 497.846 265.866 525.428C277.073 551.148 289.49 577.154 293.929 605.086C296.25 619.684 297.181 634.469 298.268 649.199C298.361 650.433 300.301 650.448 300.208 649.199C299.245 636.137 298.376 623.06 296.607 610.076C294.845 597.115 291.733 584.776 287.332 572.459C277.274 544.334 264.368 517.155 252.439 489.79C245.455 473.756 238.462 457.73 231.477 441.696C230.981 440.555 229.304 441.541 229.801 442.681Z" fill="black"/>
<path d="M241.706 198.4C250.731 200.324 259.517 204.22 268.147 207.402C278.927 211.376 289.691 215.163 299.773 220.766C310.863 226.921 320.285 234.946 330.25 242.683C335.442 246.711 340.812 250.491 345.422 255.209C350.513 260.425 355.356 265.912 360.307 271.259C360.626 270.716 360.936 270.18 361.254 269.637C354.65 268.201 349.031 271.492 343.373 274.472C335.868 278.422 327.96 280.355 319.454 279.943C318.205 279.881 318.212 281.821 319.454 281.883C326.26 282.209 333.005 281.169 339.322 278.562C346.175 275.729 352.865 269.8 360.734 271.507C361.681 271.717 362.349 270.615 361.681 269.885C356.427 264.212 351.336 258.29 345.826 252.858C341.138 248.248 335.705 244.538 330.56 240.479C320.874 232.85 311.577 225.097 300.743 219.082C290.816 213.572 280.254 209.8 269.645 205.889C260.696 202.59 251.577 198.516 242.218 196.521C241.007 196.265 240.487 198.136 241.706 198.4Z" fill="black"/>
<path d="M337.63 246.261C317.53 249.521 299.757 262.124 289.994 279.99C289.396 281.084 291.073 282.07 291.67 280.968C301.216 263.506 318.508 251.313 338.15 248.131C339.369 247.93 338.849 246.059 337.63 246.261Z" fill="black"/>
<path d="M319.291 280.013C312.803 279.617 306.625 281.201 300.199 281.705C295.667 282.062 291.693 281.239 289.024 277.242C287.153 274.456 286.408 271.158 285.617 267.945C284.243 262.373 282.318 257.607 278.158 253.541C273.983 249.474 268.791 246.649 263.684 243.94C262.994 243.576 262.295 244.041 262.225 244.779C261.519 251.763 269.225 253.603 272.105 258.787C275.535 264.965 273.711 273.587 274.456 280.378C274.953 284.902 275.341 290.444 280.37 292.058C283.335 293.005 286.416 292.493 289.272 294.021C292.237 295.62 294.743 297.98 297.654 299.687C308.55 306.074 321.984 307.611 334.401 307.153C345.507 306.749 356.9 305.314 366.702 299.695C372.352 296.458 370.699 291.328 368.115 286.377C364.964 280.339 360.757 274.472 355.558 270.04C354.611 269.233 353.237 270.599 354.184 271.414C358.406 275.015 361.813 279.501 364.677 284.235C365.942 286.338 367.68 288.899 368.239 291.305C369.45 296.536 364.964 298.5 361.107 300.184C352.019 304.142 341.976 305.151 332.128 305.275C320.735 305.414 308.612 303.87 298.632 298.018C294.549 295.628 291.072 291.825 286.276 290.917C282.691 290.234 278.756 290.746 277.398 286.299C276.49 283.335 276.296 280.036 276.117 276.963C275.783 271.422 276.653 265.508 274.813 260.153C274.115 258.12 272.99 256.296 271.468 254.775C268.473 251.787 263.676 249.792 264.181 244.779C263.692 245.058 263.211 245.337 262.722 245.617C268.488 248.675 274.549 251.903 278.764 257.025C283.537 262.823 283.164 270.382 286.532 276.785C292.958 288.985 308.651 281.301 319.307 281.946C320.533 282.031 320.533 280.091 319.291 280.013Z" fill="black"/>
<path d="M280.3 255.613C278.888 251.973 277.801 249.125 274.868 246.463C272.966 244.732 271.057 243.009 269.148 241.286C267.184 239.509 264.732 237.794 263.599 235.341C263.25 234.581 262 234.798 261.829 235.574C261.077 238.888 260.813 243.11 263.459 245.741C264.344 246.618 265.718 245.252 264.833 244.367C262.73 242.287 263.126 238.624 263.7 236.086C263.11 236.164 262.52 236.242 261.93 236.319C263.576 239.889 267.534 242.435 270.382 245.012C271.942 246.432 273.742 247.767 275.124 249.365C276.692 251.181 277.553 253.874 278.43 256.133C278.872 257.281 280.751 256.777 280.3 255.613Z" fill="black"/>
<path d="M220.779 153.986C221.656 153.135 221.315 151.361 220.016 150.022C218.718 148.684 216.955 148.288 216.078 149.139C215.201 149.99 215.543 151.764 216.841 153.102C218.139 154.441 219.902 154.836 220.779 153.986Z" fill="#F8BAB4"/>
<path d="M244.952 154.561C246.567 153.629 247.38 152.015 246.77 150.957C246.159 149.899 244.355 149.798 242.74 150.73C241.125 151.662 240.312 153.275 240.922 154.333C241.533 155.391 243.337 155.493 244.952 154.561Z" fill="#F8BAB4"/>
<path d="M160.302 405.235C172.479 398.739 181.644 387.959 186.177 374.937C186.588 373.757 184.718 373.245 184.306 374.424C179.929 386.989 171.051 397.303 159.316 403.567C158.222 404.149 159.2 405.825 160.302 405.235Z" fill="black"/>
<path d="M256.078 371.514C261.705 383.536 269.792 397.164 284.763 397.389C286.012 397.404 286.012 395.464 284.763 395.449C270.537 395.239 263.055 381.867 257.755 370.536C257.219 369.403 255.551 370.389 256.078 371.514Z" fill="black"/>
<path d="M172.269 532.164C179.626 531.939 185.432 527.523 190.74 522.836C191.679 522.005 190.305 520.64 189.366 521.462C184.454 525.793 179.091 530.007 172.261 530.216C171.02 530.263 171.012 532.203 172.269 532.164Z" fill="black"/>
<path d="M301.705 513.663C306.338 515.929 311.856 514.982 315.38 511.171C316.226 510.256 314.86 508.882 314.006 509.798C311.096 512.949 306.563 513.88 302.683 511.986C301.565 511.443 300.58 513.111 301.705 513.663Z" fill="black"/>
<path d="M216.125 671.154C214.185 671.643 213.727 666.249 213.378 665.015C212.835 663.075 212.028 661.5 210.437 660.196C207.418 657.705 202.451 657.767 198.733 658.054C194.814 658.364 192.175 658.814 190.639 662.641C189.149 666.358 188.442 670.464 187.961 674.429C187.814 675.663 189.754 675.656 189.901 674.429C190.328 670.937 190.988 667.297 192.199 663.983C193.316 660.933 194.822 660.405 197.864 660.064C199.719 659.854 201.574 659.831 203.436 660.002C206.277 660.266 209.11 660.693 210.708 663.378C211.709 665.062 211.834 667.196 212.323 669.051C212.92 671.31 213.867 673.715 216.638 673.017C217.848 672.722 217.336 670.852 216.125 671.154Z" fill="black"/>
<path d="M217.601 654.049C218.067 658.636 217.881 663.362 217.881 667.972C217.881 669.222 219.821 669.222 219.821 667.972C219.813 663.362 220.007 658.636 219.541 654.049C219.409 652.815 217.469 652.808 217.601 654.049Z" fill="black"/>
<path d="M335.023 668.034C334.945 674.46 335.054 680.879 335.403 687.289C335.574 690.494 335.807 693.7 336.094 696.897C336.241 698.566 336.039 701.158 336.994 702.695C339.027 705.97 346.067 706.668 349.404 707.677C355.209 709.423 359.633 712.582 364.933 715.29C372.943 719.373 382.341 720.436 391.111 718.581C395.721 717.603 400.199 715.818 404.149 713.242C405.127 712.605 406.105 712.132 406.532 711.069C406.912 710.129 406.268 707.987 406.175 706.893C406.019 705.038 405.856 703.183 405.701 701.329C405.593 700.095 403.652 700.079 403.761 701.329C403.955 703.634 404.289 705.97 404.351 708.282C404.436 711.185 403.094 711.72 400.672 713.04C396.838 715.12 392.616 716.478 388.301 717.114C379.338 718.441 370.366 716.493 362.675 711.759C359.159 709.594 355.76 707.677 351.817 706.396C349.497 705.644 347.138 705.038 344.802 704.317C343.754 703.991 342.652 703.719 341.658 703.253C339.447 702.229 338.484 701.577 338.228 699.109C337.157 688.795 336.823 678.395 336.955 668.034C336.979 666.785 335.038 666.785 335.023 668.034Z" fill="black"/>
<path d="M357.926 652.745C353.704 652.412 346.044 651.705 343.592 656.308C342.303 658.721 343.32 661.919 343.273 664.527C343.258 665.582 343.359 670.487 342.567 670.805C340.976 671.457 337.709 667.623 336.677 666.669C335.761 665.823 334.387 667.189 335.303 668.042C338.066 670.588 343.351 676.812 344.686 670.029C345.315 666.847 344.958 663.766 345.051 660.576C345.175 656.455 347.627 654.957 351.484 654.662C353.626 654.499 355.784 654.515 357.926 654.686C359.168 654.787 359.168 652.846 357.926 652.745Z" fill="black"/>
<path d="M336.716 697.782C343.762 700.615 350.856 703.471 358.283 705.139C362.373 706.055 366.44 706.435 370.343 708.073C372.811 709.113 375.101 710.316 377.747 710.843C387.185 712.722 398.321 709.043 404.957 702.128C405.818 701.228 404.453 699.854 403.583 700.754C396.055 708.593 383.242 711.627 373.246 707.266C367.627 704.813 361.923 704.138 356.04 702.586C349.599 700.886 343.405 698.387 337.236 695.904C336.071 695.446 335.575 697.324 336.716 697.782Z" fill="black"/>
<path d="M354.122 652.738C351.561 649.175 349.52 645.365 348.006 641.236C347.58 640.072 345.709 640.576 346.136 641.748C347.696 646.025 349.784 650.014 352.446 653.708C353.175 654.724 354.852 653.754 354.122 652.738Z" fill="black"/>
<path d="M336.412 667.483C333.673 660.747 330.817 654.057 327.837 647.422C327.324 646.281 325.656 647.266 326.16 648.399C329.071 654.88 331.865 661.414 334.534 667.996C335.008 669.136 336.886 668.64 336.412 667.483Z" fill="black"/>
<path d="M377.313 685.427C375.59 685.954 373.906 686.622 372.315 687.468C371.554 687.871 370.817 688.314 370.103 688.795C369.785 689.012 368.458 690.362 368.054 690.331C368.365 690.572 368.675 690.805 368.993 691.045C368.985 690.999 368.978 690.96 368.97 690.914C368.885 691.232 368.807 691.542 368.722 691.86C368.76 691.829 368.791 691.791 368.83 691.759C368.442 691.814 368.046 691.86 367.658 691.915C367.682 691.93 367.713 691.953 367.736 691.969C368.776 692.667 369.746 690.983 368.714 690.293C368.691 690.277 368.659 690.254 368.636 690.238C368.279 689.998 367.759 690.106 367.464 690.394C367.107 690.743 367.045 691.092 367.138 691.573C367.224 692.008 367.666 692.256 368.077 692.287C369.428 692.388 370.825 690.642 371.919 689.967C373.782 688.818 375.768 687.957 377.856 687.312C379.013 686.932 378.508 685.054 377.313 685.427Z" fill="black"/>
<path d="M372.717 682.338C369.194 684.332 365.678 686.404 363.063 689.563C363.606 689.881 364.141 690.192 364.685 690.51C364.747 690.331 364.817 690.161 364.879 689.982C365.313 688.81 363.435 688.306 363.008 689.47C362.946 689.648 362.876 689.819 362.814 689.998C362.488 690.89 363.823 691.674 364.436 690.945C366.959 687.902 370.311 685.939 373.703 684.022C374.781 683.401 373.804 681.725 372.717 682.338Z" fill="black"/>
<path d="M368.279 676.897C364.119 678.217 360.386 680.359 357.134 683.269C357.638 683.657 358.151 684.053 358.655 684.441C358.756 684.293 358.865 684.138 358.966 683.991C359.672 682.959 357.988 681.981 357.289 683.013C357.188 683.16 357.08 683.316 356.979 683.463C356.335 684.41 357.716 685.341 358.5 684.635C361.503 681.942 364.941 679.978 368.783 678.76C369.978 678.395 369.474 676.525 368.279 676.897Z" fill="black"/>
<path d="M363.032 671.798C359.586 673.537 356.311 675.539 353.184 677.805C352.183 678.527 353.153 680.211 354.162 679.482C357.289 677.216 360.564 675.221 364.01 673.475C365.12 672.908 364.142 671.24 363.032 671.798Z" fill="black"/>
<path d="M359.028 666.8C356.389 668.197 353.456 669.408 350.972 671.061C350.025 671.69 349.358 673.498 351.034 673.754C352.253 673.94 352.78 672.07 351.547 671.884C351.624 672.8 351.95 672.978 352.524 672.435C352.905 672.233 353.293 672.031 353.673 671.829C354.34 671.472 355.016 671.123 355.691 670.766C357.127 670.006 358.57 669.245 360.006 668.485C361.108 667.887 360.13 666.218 359.028 666.8Z" fill="black"/>
<path d="M217.484 672.233C218.927 670.316 220.86 666.863 222.924 665.636C224.756 664.55 224.073 668.097 224.081 669.393C224.104 671.946 224.12 674.507 224.143 677.06C224.22 687.033 224.306 696.998 224.383 706.971C224.391 708.22 226.331 708.22 226.324 706.971C226.262 699.815 226.207 692.652 226.145 685.496C226.122 682.431 226.099 679.358 226.067 676.292C226.036 672.893 226.549 668.911 225.982 665.551C224.709 658.031 217.476 669.02 215.808 671.24C215.055 672.256 216.739 673.226 217.484 672.233Z" fill="black"/>
<path d="M224.71 706.505C216.615 711.775 207.124 714.538 197.485 714.755C189.289 714.941 178.261 713.335 175.172 704.371C174.768 703.199 172.89 703.703 173.302 704.883C176.243 713.412 185.587 716.261 193.783 716.649C204.958 717.176 216.305 714.289 225.695 708.174C226.735 707.506 225.765 705.822 224.71 706.505Z" fill="black"/>
<path d="M224.027 698.775C216.6 704.386 207.116 708.282 197.756 708.701C191.035 708.996 177.198 706.404 177.151 697.394C177.143 696.144 175.203 696.144 175.211 697.394C175.25 705.457 185.781 709.897 192.533 710.549C203.887 711.651 216.01 707.235 224.997 700.452C225.99 699.707 225.02 698.023 224.027 698.775Z" fill="black"/>
<path d="M206.93 667.693C204.385 668.003 201.831 668.166 199.27 668.174C198.021 668.182 198.021 670.122 199.27 670.114C201.839 670.107 204.385 669.944 206.93 669.633C208.156 669.478 208.172 667.538 206.93 667.693Z" fill="black"/>
<path d="M206.929 674.127C203.817 674.616 200.72 674.499 197.647 673.824C196.708 673.614 196.017 674.724 196.7 675.446C196.91 675.663 197.119 675.888 197.329 676.106C198.19 677.014 199.564 675.64 198.702 674.732C198.493 674.515 198.283 674.29 198.074 674.072C197.756 674.616 197.445 675.151 197.127 675.694C200.557 676.447 203.972 676.54 207.441 675.997C208.675 675.811 208.147 673.94 206.929 674.127Z" fill="black"/>
<path d="M206.658 680.234C204.377 680.351 202.095 680.467 199.821 680.576C198.649 680.638 196.678 680.289 195.754 681.181C195.343 681.577 195.436 682.144 195.754 682.555C195.785 682.594 195.824 682.64 195.855 682.679C196.103 682.997 196.701 683.044 197.027 682.834C197.058 682.811 197.097 682.788 197.128 682.765C198.168 682.082 197.19 680.397 196.15 681.088C196.119 681.111 196.08 681.135 196.049 681.158C196.437 681.212 196.833 681.259 197.221 681.313C197.19 681.274 197.151 681.228 197.12 681.189C197.12 681.647 197.12 682.105 197.12 682.563C197.236 682.446 198.696 682.586 199.053 682.571C199.937 682.524 200.83 682.485 201.715 682.439C203.36 682.353 205.005 682.276 206.658 682.19C207.9 682.113 207.908 680.172 206.658 680.234Z" fill="black"/>
<path d="M204.694 686.754C201.449 687.018 196.343 686.932 193.642 684.945C192.633 684.208 191.663 685.884 192.664 686.622C194.325 687.848 196.653 688.127 198.64 688.383C200.619 688.64 202.699 688.865 204.694 688.702C205.928 688.593 205.935 686.653 204.694 686.754Z" fill="black"/>
<path d="M187.93 674.398C187.34 677.689 187.053 681.251 185.322 684.2C183.545 687.227 180.34 688.927 178.136 691.589C174.946 695.43 173.347 700.102 173.161 705.062C173.114 706.311 175.055 706.311 175.101 705.062C175.381 697.883 178.912 693.304 184.034 688.702C188.171 684.984 188.869 680.157 189.808 674.911C190.018 673.692 188.155 673.172 187.93 674.398Z" fill="black"/>
<path d="M196.08 659.342C196.134 656.758 196.119 654.181 196.034 651.597C195.995 650.355 194.055 650.347 194.093 651.597C194.179 654.181 194.194 656.758 194.14 659.342C194.117 660.592 196.057 660.592 196.08 659.342Z" fill="black"/>
<path d="M175.606 631.667C181.411 632.381 186.254 635.734 191.694 637.588C197.011 639.397 202.762 639.668 208.326 639.769C219.409 639.963 230.468 638.621 240.588 633.863C241.721 633.335 240.736 631.659 239.61 632.187C228.986 637.177 217.205 638.201 205.602 637.744C199.3 637.495 193.565 636.486 187.799 633.894C183.794 632.094 180.014 630.262 175.598 629.719C174.372 629.571 174.38 631.512 175.606 631.667Z" fill="black"/>
<path d="M298.733 636.766C316.824 635.493 335.582 633.592 350.847 622.874C351.864 622.16 350.894 620.476 349.87 621.197C334.868 631.729 316.506 633.576 298.733 634.826C297.499 634.911 297.484 636.859 298.733 636.766Z" fill="black"/>
<path d="M201.481 144.873C203.731 143.297 205.027 141.233 206.052 138.703C207.573 134.962 208.861 128.226 214.046 128.078C216.296 128.016 218.624 129.63 220.766 130.298C222.326 130.787 223.933 131.105 225.555 131.299C229.094 131.726 232.734 131.446 236.172 130.538C241.845 129.033 248.651 125.354 251.018 119.634C253.867 112.743 250.661 104.058 246.455 98.4781C245.71 97.4925 244.026 98.4548 244.779 99.456C249.668 105.952 252.974 116.499 246.261 122.909C240.673 128.241 232.206 130.484 224.662 129.227C219.75 128.412 214.527 124.097 209.855 127.675C204.725 131.602 205.757 139.525 200.495 143.196C199.478 143.903 200.448 145.587 201.481 144.873Z" fill="black"/>
<path d="M195.784 137.997C194.348 131.113 193.929 123.305 196.909 116.747C200.13 109.654 207.332 106.177 214.86 105.835C219.082 105.641 223.195 106.425 227.285 107.372C229.8 107.954 232.33 108.567 234.93 108.296C239.788 107.799 243.832 104.687 245.997 100.395C246.556 99.2852 244.887 98.2996 244.321 99.4172C242.435 103.158 239.035 105.866 234.798 106.324C230.615 106.767 226.401 105.005 222.303 104.376C215.97 103.406 209.249 103.732 203.529 106.875C192.261 113.061 191.578 127.302 193.914 138.517C194.17 139.735 196.04 139.215 195.784 137.997Z" fill="black"/>
<path d="M127.031 130.084C129.118 129.137 131.221 127.204 132.122 125.078C131.532 124.829 130.942 124.581 130.352 124.333C129.887 127.103 131.998 129.3 134.528 130.006C134.45 129.416 134.372 128.826 134.295 128.236C131.431 129.827 130.965 132.094 130.034 134.996C130.655 135.167 131.284 135.338 131.904 135.508C132.533 132.078 129.949 128.842 126.402 128.927C125.152 128.958 125.152 130.898 126.402 130.867C128.606 130.813 130.445 132.753 130.034 134.996C129.809 136.215 131.516 136.719 131.904 135.508C132.673 133.118 132.851 131.255 135.28 129.905C136.018 129.494 135.839 128.353 135.048 128.136C133.666 127.747 131.943 126.529 132.223 124.845C132.386 123.859 130.911 123.006 130.453 124.1C129.662 125.97 127.892 127.585 126.06 128.415C124.92 128.919 125.905 130.596 127.031 130.084Z" fill="black"/>
<path d="M80.512 203.889C82.5997 202.942 84.7029 201.01 85.6032 198.884C85.0134 198.635 84.4235 198.387 83.8337 198.138C83.3681 200.909 85.479 203.105 88.0091 203.812C87.9315 203.222 87.8538 202.632 87.7762 202.042C84.9125 203.633 84.4468 205.899 83.5155 208.802C84.1364 208.973 84.765 209.143 85.3859 209.314C86.0145 205.884 83.4301 202.648 79.8834 202.733C78.6339 202.764 78.6339 204.704 79.8834 204.673C82.0875 204.619 83.9268 206.559 83.5155 208.802C83.2904 210.02 84.9978 210.525 85.3859 209.314C86.1542 206.924 86.3327 205.061 88.7619 203.711C89.4992 203.299 89.3206 202.159 88.529 201.941C87.1476 201.553 85.4247 200.335 85.7041 198.651C85.8671 197.665 84.3925 196.811 83.9346 197.906C83.143 199.776 81.3735 201.39 79.5419 202.221C78.3933 202.725 79.379 204.402 80.512 203.889Z" fill="black"/>
<path d="M324.84 277.284C326.928 276.338 329.031 274.405 329.931 272.279C329.341 272.03 328.752 271.782 328.162 271.534C327.696 274.304 329.807 276.5 332.337 277.207C332.26 276.617 332.182 276.027 332.104 275.437C329.241 277.028 328.775 279.294 327.844 282.197C328.465 282.368 329.093 282.538 329.714 282.709C330.343 279.279 327.758 276.043 324.212 276.128C322.962 276.159 322.962 278.099 324.212 278.068C326.416 278.014 328.255 279.954 327.844 282.197C327.619 283.415 329.326 283.92 329.714 282.709C330.482 280.319 330.661 278.456 333.09 277.106C333.827 276.694 333.649 275.554 332.857 275.336C331.476 274.948 329.753 273.73 330.032 272.046C330.195 271.06 328.721 270.206 328.263 271.301C327.471 273.171 325.702 274.785 323.87 275.616C322.729 276.12 323.715 277.797 324.84 277.284Z" fill="black"/>
<path d="M211.857 18.4191C213.944 17.4723 216.048 15.5399 216.948 13.4134C216.358 13.165 215.768 12.9167 215.178 12.6683C214.713 15.439 216.824 17.6353 219.354 18.3415C219.276 17.7517 219.199 17.1619 219.121 16.5721C216.257 18.163 215.792 20.4292 214.86 23.3318C215.481 23.5025 216.11 23.6733 216.731 23.844C217.359 20.4137 214.775 17.1774 211.228 17.2628C209.979 17.2938 209.979 19.234 211.228 19.203C213.432 19.1487 215.272 21.0889 214.86 23.3318C214.635 24.5503 216.343 25.0547 216.731 23.844C217.499 21.4537 217.677 19.591 220.107 18.2406C220.844 17.8293 220.665 16.6885 219.874 16.4712C218.492 16.0831 216.769 14.8647 217.049 13.1805C217.212 12.1949 215.737 11.3412 215.279 12.4355C214.488 14.3059 212.718 15.9201 210.887 16.7506C209.738 17.255 210.724 18.9314 211.857 18.4191Z" fill="black"/>
<path d="M309.816 70.1693C311.903 69.2224 314.007 67.29 314.907 65.1635C314.317 64.9152 313.727 64.6668 313.137 64.4185C312.672 67.1891 314.783 69.3854 317.313 70.0917C317.235 69.5018 317.158 68.912 317.08 68.3222C314.216 69.9132 313.751 72.1793 312.819 75.0819C313.44 75.2527 314.069 75.4234 314.69 75.5941C315.318 72.1638 312.734 68.9275 309.187 69.0129C307.938 69.0439 307.938 70.9842 309.187 70.9531C311.391 70.8988 313.231 72.839 312.819 75.0819C312.594 76.3004 314.302 76.8048 314.69 75.5941C315.458 73.2038 315.636 71.3412 318.066 69.9908C318.803 69.5794 318.624 68.4386 317.833 68.2213C316.451 67.8333 314.728 66.6148 315.008 64.9307C315.171 63.945 313.696 63.0913 313.238 64.1856C312.447 66.056 310.677 67.6703 308.846 68.5007C307.705 69.0051 308.69 70.6815 309.816 70.1693Z" fill="black"/>
<path d="M0.0314226 107.957C1.51375 113.941 10.4621 111.387 12.1462 116.983C13.0775 120.087 11.4011 123.456 12.4023 126.599C13.0852 128.741 14.684 129.998 16.7173 130.79C20.039 132.093 24.812 131.605 26.3874 135.617C27.7611 139.125 25.8053 143.16 27.4429 146.715C28.9407 149.975 32.7125 152.256 35.359 154.499C39.0687 157.642 42.7784 160.793 46.4881 163.936C47.4349 164.736 48.8164 163.37 47.8618 162.563C44.3383 159.575 40.8149 156.587 37.2915 153.599C33.7447 150.595 28.8631 147.708 28.5837 142.648C28.2733 136.897 29.0804 132.148 22.4914 130.262C18.9292 129.237 14.7849 129.276 14.0553 124.759C13.5587 121.709 15.0177 118.535 13.7061 115.563C11.5719 110.72 3.08145 112.163 1.90956 107.445C1.60688 106.226 -0.263491 106.739 0.0314226 107.957Z" fill="black"/>
<path d="M99.029 28.1287C98.8815 30.8528 100.48 32.7542 102.77 34.0891C104.423 35.0515 106.332 35.424 108.001 36.332C110.678 37.7988 111.245 39.6847 111.454 42.5097C111.625 44.8224 111.377 47.5775 113.146 49.3781C116.033 52.3117 121.978 48.7029 123.452 53.4215C124.407 56.487 123.282 59.832 124.461 62.8743C125.975 66.7702 129.537 65.6371 132.129 68.043C134.357 70.1152 132.665 74.3759 134.745 76.8439C135.955 78.2874 137.965 78.7841 139.362 80.0181C141.481 81.8884 142.606 84.3797 143.01 87.1348C143.188 88.3688 145.059 87.841 144.88 86.6226C144.43 83.5493 143.08 80.7321 140.736 78.6521C139.083 77.1853 136.576 76.3937 135.552 74.2905C134.9 72.9557 135.334 70.9766 135.008 69.5253C134.372 66.6849 132.804 66.1028 130.352 65.0395C128.342 64.1626 126.503 63.5029 125.975 61.1281C125.765 60.158 125.781 59.1102 125.765 58.1168C125.734 56.5181 125.82 54.9582 125.439 53.3905C124.904 51.1631 123.67 49.2927 121.357 48.7494C119.037 48.1984 117.624 49.184 115.435 47.7948C113.076 46.2892 113.573 44.6051 113.379 42.0518C113.2 39.6537 112.696 37.4341 110.779 35.8198C107.853 33.3518 100.721 33.2277 100.992 28.1443C101.031 26.8792 99.091 26.887 99.029 28.1287Z" fill="black"/>
<path d="M265.998 71.7912C266.898 68.3143 265.517 65.1633 265.835 61.6865C266.177 57.9845 268.839 55.0587 271.012 52.257C275.04 47.065 276.398 42.0514 275.102 35.509C274.745 33.7007 274.007 31.9235 273.728 30.1152C273.13 26.2735 274.465 25.2258 276.949 23.4253C278.687 22.168 280.371 20.9806 281.209 18.9162C282.312 16.1766 281.566 13.1964 281.706 10.3482C281.892 6.63847 285.043 4.52751 285.245 0.93422C285.315 -0.315284 283.375 -0.307523 283.305 0.93422C283.134 3.94545 280.193 6.10297 279.836 9.23061C279.409 13.0024 280.946 17.2321 277.927 20.2588C276.235 21.9507 273.782 22.7889 272.416 24.83C270.895 27.1039 271.547 29.4865 272.222 31.97C273.487 36.6266 274.683 41.6789 272.595 46.3044C271.384 48.9974 269.304 51.2093 267.55 53.5453C266.006 55.6097 264.531 57.8371 264.05 60.4215C263.375 64.0768 265.059 67.6313 264.12 71.2712C263.817 72.4819 265.688 73.0019 265.998 71.7912Z" fill="black"/>
<path d="M324.437 111.247C326.074 106.156 333.75 106.568 336.823 102.509C338.701 100.025 338.181 96.9596 339.167 94.1734C340.618 90.0912 345.143 90.1377 348.527 88.6864C350.552 87.825 352.066 86.5988 352.88 84.5111C354.448 80.4677 354.565 76.952 358.833 74.6004C361.511 73.1259 364.491 73.1879 366.431 70.5648C369.302 66.6688 371.095 63.7041 376.14 62.3305C377.343 62.0045 376.831 60.1264 375.628 60.4601C372.376 61.3448 369.473 62.9979 367.3 65.6211C366.19 66.956 365.593 68.8263 364.382 70.0526C362.853 71.597 360.222 71.7056 358.336 72.6524C355.581 74.0339 353.408 76.432 352.275 79.2958C351.615 80.9721 351.654 83.1064 350.7 84.6508C349.427 86.7229 346.92 87.2041 344.786 87.856C342.434 88.5778 339.92 89.3073 338.399 91.3872C336.233 94.3519 337.428 98.4962 335.193 101.376C331.802 105.737 324.483 104.783 322.574 110.712C322.186 111.923 324.056 112.427 324.437 111.247Z" fill="black"/>
<path d="M382.357 150.378C384.685 139.854 399.935 147.188 406.284 141.849C408.433 140.041 408.278 137.743 408.534 135.159C408.798 132.52 409.551 129.385 412.019 127.918C414.464 126.459 417.677 127.212 420.339 127.158C423.427 127.095 425.919 126.141 427.991 123.813C429.333 122.307 430.335 120.499 431.724 119.032C433.517 117.146 435.697 116.168 438.126 115.392C444.102 113.483 451.84 112.575 453.617 105.373C453.92 104.162 452.05 103.642 451.747 104.86C449.535 113.817 436.9 111.597 431.118 116.89C427.657 120.056 426.33 124.837 420.936 125.217C417.42 125.466 413.742 124.426 410.606 126.544C408.34 128.081 407.285 130.712 406.819 133.32C406.361 135.889 406.998 138.946 404.444 140.793C402.24 142.384 398.81 142.245 396.218 142.268C390.226 142.315 382.07 142.625 380.463 149.874C380.215 151.077 382.085 151.597 382.357 150.378Z" fill="black"/>
</svg>
