<svg width="466" height="558" viewBox="0 0 466 558" fill="none" xmlns="http://www.w3.org/2000/svg">
<path d="M85.1006 42.6292L209.136 0.00354004L458 0.00357151L466 271L207.256 228.489L87.2024 59.425L85.1006 42.6292Z" fill="#FFECDD"/>
<path d="M71.4883 222.209C71.4883 222.209 63.8064 249.716 59.0128 270.777C54.2193 291.832 46.6848 335.49 45.1484 341.648C43.6121 347.805 29.3974 436.148 28.0269 444.537C26.6564 452.925 18.9561 502.397 18.9561 502.397L44.6322 503.767L78.187 398.826L111.398 281.728C111.398 281.728 109.345 384.617 108.657 395.403C107.968 406.188 103.009 501.543 103.009 501.543L132.624 497.776C132.624 497.776 141.529 425.19 142.211 416.457C142.894 407.725 153.851 330.518 155.049 324.354C156.248 318.19 164.465 279.332 165.319 272.996C166.173 266.659 167.033 248.684 161.896 236.018C156.758 223.352 155.222 219.412 155.222 219.412C155.222 219.412 144.092 225.748 137.418 226.431C130.744 227.113 111.447 227.322 102.64 224.863C93.8397 222.411 71.4883 222.209 71.4883 222.209Z" fill="#F8BAB4"/>
<path d="M86.938 42.4878C97.5698 42.2666 108.195 41.7565 118.797 40.9391C121.74 40.7117 126.952 41.228 129.127 38.6468C130.276 37.2764 130.547 34.6522 128.371 34.2527C128.015 34.1851 127.591 34.2896 127.413 34.6461C127.093 35.2606 127.111 35.5249 127.419 36.1517C127.542 36.3976 127.88 36.5942 128.156 36.5758C128.248 36.5696 128.341 36.5573 128.433 36.5512C129.514 36.459 129.527 34.7567 128.433 34.8489C128.58 35.0701 128.734 35.2852 128.881 35.5064C128.562 35.6355 128.242 35.7646 127.923 35.8998C127.849 36.5143 127.769 37.1227 127.695 37.7373C127.062 38.0261 126.429 38.3088 125.796 38.5977C124.918 38.8373 123.91 38.8189 123 38.9049C121.206 39.0709 119.399 39.1999 117.598 39.3351C114.2 39.5932 110.795 39.8145 107.39 40.0111C100.581 40.3983 93.7657 40.6503 86.9441 40.7978C85.8502 40.8101 85.8441 42.5062 86.938 42.4878Z" fill="black"/>
<path d="M89.9802 61.324C93.2005 62.2581 96.5375 62.4425 99.8192 61.6927C103.328 60.8938 105.737 58.8781 108.761 57.1143C112.657 54.8404 117.168 59.2283 121.347 59.5971C122.668 59.7138 124.955 59.7569 125.194 58.0607C125.348 56.9914 123.707 56.5243 123.553 57.6059C123.271 59.6155 115.054 55.5533 114.267 55.1846C112.362 54.275 110.617 54.2566 108.7 55.203C105.897 56.5858 103.814 58.7183 100.741 59.6831C97.3364 60.7524 93.8396 60.6787 90.435 59.6893C89.3779 59.3758 88.9293 61.0167 89.9802 61.324Z" fill="black"/>
<path d="M127.388 37.9155C126.331 44.6142 124.665 51.1961 123.608 57.8947C123.436 58.9641 125.077 59.425 125.249 58.3495C126.306 51.6508 127.972 45.0689 129.029 38.3703C129.195 37.2948 127.554 36.8339 127.388 37.9155Z" fill="black"/>
<path d="M83.4843 41.4614C80.3317 40.2446 77.0622 40.0971 73.719 40.0725C72.0167 40.0602 70.3021 40.0725 68.5998 39.925C67.4321 39.8206 62.5525 39.3166 62.1899 37.8171C62.0609 38.1367 61.9318 38.4562 61.7966 38.7758C61.7229 38.7881 61.6491 38.8004 61.5754 38.8065C61.3664 38.5361 61.1575 38.2596 60.9485 37.9892C60.9485 38.0506 60.9485 38.1121 60.9485 38.1736C60.9485 39.2675 62.6509 39.2675 62.6509 38.1736C62.6509 38.1121 62.6509 38.0506 62.6509 37.9892C62.6509 37.5959 62.3866 37.2886 62.024 37.1718C61.5877 37.0243 61.3111 37.0551 60.9363 37.3132C60.6105 37.5344 60.4508 37.8847 60.5429 38.2719C61.1759 40.8899 66.4734 41.4368 68.5936 41.6274C73.4548 42.0575 78.3589 41.3016 83.0234 43.1084C84.0497 43.4956 84.4922 41.8548 83.4843 41.4614Z" fill="black"/>
<path d="M73.9584 54.2934C71.1868 53.5191 68.6486 51.8844 66.3133 50.2435C64.2976 48.8239 61.8394 47.1646 60.4873 45.0382C59.9035 44.1164 58.4286 44.9706 59.0186 45.8986C60.4259 48.1049 62.7735 49.7764 64.863 51.2882C67.4871 53.1934 70.3571 55.0555 73.5036 55.9343C74.5607 56.2293 75.0093 54.5884 73.9584 54.2934Z" fill="black"/>
<path d="M90.9998 64.8331C89.3344 70.8742 93.6731 76.5588 99.9355 76.5588C101.029 76.5588 101.029 74.8565 99.9355 74.8565C94.7978 74.8565 91.2764 70.235 92.6407 65.2879C92.9295 64.2308 91.2887 63.7822 90.9998 64.8331Z" fill="black"/>
<path d="M99.7021 74.4202C98.7004 75.2744 99.1121 76.8845 100.102 77.5605C101.165 78.2919 102.744 78.5254 103.691 77.4929C104.403 76.7186 104.022 75.6247 103.371 74.9487C102.523 74.0699 101.257 73.824 100.108 74.1682C99.063 74.4816 99.5054 76.1225 100.562 75.8091C101.06 75.6616 101.564 75.6677 101.994 75.9934C102.136 76.0979 102.234 76.2147 102.32 76.356C102.382 76.4543 102.345 76.4851 102.394 76.5281C102.339 76.4851 102.388 76.5465 102.406 76.4482C102.431 76.27 102.64 76.2946 102.375 76.4298C102.296 76.4666 102.246 76.5035 102.154 76.5158C101.896 76.5588 101.54 76.3929 101.312 76.2946C101.091 76.1962 100.63 75.8767 100.913 75.6308C101.736 74.9057 100.526 73.7073 99.7021 74.4202Z" fill="black"/>
<path d="M112.608 60.1686C112.208 61.8709 112.841 63.1061 114.162 64.1632C115.201 64.9867 115.521 66.2957 114.255 67.1745C113.075 67.9919 111.52 67.3589 110.469 66.6767C109.547 66.0744 108.693 67.5494 109.609 68.1455C111.649 69.4791 114.709 69.8478 116.221 67.5248C116.78 66.6644 116.996 65.5398 116.651 64.5626C116.098 62.9832 113.794 62.553 114.248 60.6233C114.494 59.554 112.86 59.0992 112.608 60.1686Z" fill="black"/>
<path d="M106.414 76.4544C109.142 76.6818 111.828 76.5343 114.52 76.0549C115.595 75.8644 115.14 74.2235 114.065 74.414C111.527 74.8688 108.982 74.9671 106.414 74.7521C105.326 74.6599 105.332 76.3622 106.414 76.4544Z" fill="black"/>
<path d="M122.207 37.1903C120.621 23.7684 107.279 16.1356 94.6132 17.0636C80.8226 18.0776 68.0705 26.3188 62.7116 39.1999C62.2937 40.2077 63.9346 40.6502 64.3525 39.6546C69.2751 27.8121 80.9946 20.1917 93.5808 18.8581C105.491 17.5982 118.98 24.217 120.511 37.1903C120.634 38.2657 122.336 38.278 122.207 37.1903Z" fill="black"/>
<path d="M59.1475 46.7283C55.9702 54.7974 52.7008 62.8973 48.6017 70.5485C44.306 78.5623 37.1833 88.1678 27.1537 88.1801C26.3917 88.1801 26.0659 89.0958 26.5514 89.6305C33.2685 97.0236 42.6344 105.418 53.4997 104.755C54.5875 104.687 54.5936 102.985 53.4997 103.052C43.0707 103.692 34.1842 95.5056 27.756 88.4259C27.5532 88.9114 27.3565 89.3969 27.1537 89.8763C36.9313 89.864 44.3736 81.3708 48.8967 73.5168C53.6964 65.1834 57.267 56.1064 60.7822 47.1769C61.194 46.1629 59.547 45.7204 59.1475 46.7283Z" fill="black"/>
<path d="M82.4883 46.1628C82.5129 53.5682 85.9052 60.101 88.093 67.0147C89.3406 70.954 90.4284 75.0163 90.8524 79.1338C91.0306 80.8545 91.8787 90.6075 89.1439 90.6997C87.9886 90.7366 87.9824 92.5373 89.1439 92.5004C91.2949 92.4266 92.2351 89.612 92.4871 87.8851C93.1263 83.4541 92.8436 79.0109 91.9647 74.6352C90.0473 65.085 84.3258 56.0142 84.2889 46.169C84.2828 45.0013 82.4822 45.0013 82.4883 46.1628Z" fill="black"/>
<path d="M79.133 49.1189C79.1207 50.8826 79.1023 52.6403 79.09 54.4041C79.6493 54.2504 80.2085 54.1029 80.7678 53.9493C79.09 50.5569 73.7803 51.9028 73.5529 55.5471C73.9339 55.2583 74.3149 54.9694 74.6898 54.6806C73.4177 54.6376 72.545 53.9923 72.0779 52.7325C71.7399 52.0196 70.6153 52.2347 70.4309 52.9476C68.7163 59.7138 70.9226 66.222 71.9919 72.896C73.2886 80.9897 72.4774 89.3047 70.4125 97.2017C66.5223 112.092 58.232 125.25 50.1076 138.143C49.4869 139.127 51.0478 140.03 51.6624 139.053C59.6701 126.344 67.8129 113.371 71.8567 98.7627C73.8048 91.7322 74.8004 84.3698 74.2719 77.075C73.7065 69.2087 70.1667 61.3117 72.164 53.4331C71.617 53.5068 71.0639 53.5744 70.517 53.6482C71.2729 55.2521 72.4405 56.1555 74.2043 56.4259C74.8066 56.5181 75.3044 56.1924 75.3412 55.5594C75.4703 53.4822 78.3894 53.2302 79.2006 54.8711C79.6124 55.7008 80.8722 55.2644 80.8784 54.4163C80.8907 52.6526 80.9091 50.8949 80.9214 49.1312C80.946 47.9574 79.1453 47.9574 79.133 49.1189Z" fill="black"/>
<path d="M88.3273 91.6338C85.15 103.163 84.1421 115.22 82.532 127.032C80.971 138.445 79.4961 150.717 74.1372 161.085C73.6086 162.111 75.1573 163.027 75.692 161.994C80.9956 151.731 82.575 139.729 84.1421 128.427C85.8199 116.314 86.8093 103.937 90.0665 92.107C90.3737 90.9947 88.6345 90.5153 88.3273 91.6338Z" fill="black"/>
<path d="M42.7084 116.265C43.5749 123.597 44.4353 130.929 45.308 138.26C45.984 143.976 46.6231 149.986 49.6467 155.019C52.4368 159.678 57.4639 163.482 62.6815 164.981C67.0264 166.229 72.3177 166.204 75.4151 162.505C76.1526 161.62 74.8866 160.341 74.143 161.232C70.6031 165.454 63.8246 164.01 59.5718 161.736C54.342 158.946 50.6792 154.614 48.983 148.923C47.5019 143.939 47.1517 138.635 46.5494 133.497C45.8734 127.751 45.1912 122.005 44.5152 116.259C44.3739 115.128 42.5732 115.116 42.7084 116.265Z" fill="black"/>
<path d="M70.3269 99.0331C64.1507 99.3526 57.7654 101.43 52.0439 103.673C46.7157 105.762 41.8361 109.769 42.7457 116.142C42.8993 117.224 44.5402 116.763 44.3865 115.688C43.3787 108.632 50.5751 105.867 55.8603 104.097C60.4756 102.548 65.4351 100.987 70.3208 100.735C71.4208 100.68 71.427 98.9777 70.3269 99.0331Z" fill="black"/>
<path d="M98.6453 85.7833C104.508 89.2555 111.539 89.8148 115.638 83.5648C120.339 76.399 123.062 67.5802 124.475 59.2038C124.653 58.1344 123.019 57.6735 122.834 58.749C121.703 65.4476 119.706 71.9558 116.707 78.0583C115.189 81.1496 113.585 84.7447 110.248 86.1766C106.69 87.7007 102.609 86.152 99.4996 84.3084C98.5593 83.7553 97.7051 85.2241 98.6453 85.7833Z" fill="black"/>
<path d="M121.869 77.8064C128.63 82.1205 136.643 85.0704 142.635 90.4724C147.453 94.8173 152.118 99.3527 156.709 103.925C161.508 108.706 165.816 113.426 169.651 118.994C176.135 128.403 183.632 137.062 191.953 144.885C192.795 145.678 194.074 144.406 193.226 143.613C186.213 137.025 179.779 129.859 174.07 122.11C170.788 117.654 167.98 113.088 164.2 109.038C157.452 101.817 150.336 94.6083 142.789 88.2108C136.914 83.2329 129.238 80.3752 122.767 76.2515C121.796 75.6247 120.892 77.1857 121.869 77.8064Z" fill="black"/>
<path d="M122.65 76.6386C122.103 76.1716 120.948 74.4754 121.482 73.6642C121.888 73.0435 122.22 73.234 122.908 73.4552C124.156 73.8547 125.274 74.7028 126.399 75.3604C128.218 76.4174 130.111 77.2409 132.2 76.4912C133.226 76.1286 132.784 74.4816 131.745 74.8503C127.849 76.2392 124.739 70.9233 120.597 71.6423C120.327 71.6915 120.063 71.9742 120.001 72.2384C119.553 74.2603 119.805 76.4358 121.445 77.8432C122.269 78.5499 123.48 77.3515 122.65 76.6386Z" fill="black"/>
<path d="M132.919 75.2805C130.105 71.2674 126.657 67.746 123.252 64.2369C122.49 63.4503 121.286 64.6548 122.048 65.4415C125.348 68.8399 128.716 72.2569 131.444 76.1409C132.071 77.0258 133.546 76.1778 132.919 75.2805Z" fill="black"/>
<path d="M125.225 55.0555C129.115 59.3943 133.122 63.6347 137.018 67.9735C137.749 68.7908 138.948 67.5863 138.223 66.7689C134.333 62.4302 130.326 58.1897 126.429 53.851C125.698 53.0336 124.5 54.2443 125.225 55.0555Z" fill="black"/>
<path d="M122.656 59.5786C126.405 63.7207 130.584 67.4387 134.333 71.5809C135.07 72.3921 136.269 71.1875 135.537 70.3763C131.788 66.2342 127.609 62.5162 123.861 58.374C123.123 57.5567 121.925 58.7674 122.656 59.5786Z" fill="black"/>
<path d="M126.804 51.6017C129.957 52.8861 132.538 56.0818 134.873 58.4847C137.356 61.0351 139.618 63.7699 141.209 66.9656C141.701 67.9427 143.164 67.0823 142.678 66.1052C140.859 62.4609 138.18 59.3696 135.31 56.512C132.851 54.0599 130.528 51.3005 127.253 49.9608C126.239 49.549 125.803 51.1961 126.804 51.6017Z" fill="black"/>
<path d="M134.48 52.6342C136.293 49.0022 142.272 56.7763 143.532 58.2635C145.683 60.8016 147.723 63.4381 149.721 66.0991C152.836 70.2535 155.848 74.4939 158.785 78.7836C160.611 81.4446 163.112 83.5279 165.398 85.8018C178.224 98.5723 190.988 111.662 202.148 125.932C204.908 129.46 207.618 133.098 209.806 137.013C210.918 138.998 212.737 141.966 212.074 144.351C211.766 145.469 213.499 145.948 213.813 144.83C214.409 142.685 213.45 140.356 212.565 138.432C210.967 134.979 208.755 131.801 206.518 128.741C200.489 120.487 193.655 112.818 186.729 105.314C180.332 98.3817 173.762 91.6032 167.082 84.9414C165.349 83.2145 163.61 81.4876 161.852 79.7853C160.795 78.759 160.058 77.4684 158.921 75.8214C154.944 70.0999 150.87 64.4275 146.482 59.0133C144.177 56.1679 136.305 44.9522 132.925 51.7246C132.409 52.7632 133.963 53.6728 134.48 52.6342Z" fill="black"/>
<path d="M147.348 137.24C158.22 146.661 171.636 152.868 185.912 154.81C191.283 155.542 197.213 156.033 202.603 155.093C208.017 154.147 211.526 150.514 213.628 145.573C214.077 144.516 212.528 143.601 212.073 144.664C209.886 149.808 206.303 153.04 200.649 153.532C195.198 154.011 189.55 153.63 184.166 152.739C171.021 150.558 158.681 144.682 148.621 135.968C147.754 135.212 146.47 136.484 147.348 137.24Z" fill="black"/>
<path d="M106.794 98.9963C113.376 99.0823 120.056 97.9269 126.583 99.1192C132.95 100.281 139.876 103.12 145.505 106.248C154.797 111.41 164.433 117.046 172.681 123.769C173.572 124.494 174.85 123.228 173.953 122.497C169.762 119.08 165.202 116.142 160.617 113.285C155.651 110.187 150.667 106.912 145.487 104.195C139.882 101.264 133.281 98.5661 127.062 97.3861C120.37 96.1201 113.542 97.2878 106.794 97.2017C105.639 97.1833 105.633 98.984 106.794 98.9963Z" fill="black"/>
<path d="M73.0735 222.897C89.1441 220.912 104.281 227.297 120.173 227.856C131.819 228.268 145.37 226.971 155.289 220.291C156.192 219.683 155.344 218.208 154.428 218.822C144.319 225.632 130.344 226.744 118.501 226.08C103.168 225.22 88.6218 219.277 73.0673 221.195C72.0042 221.324 71.9919 223.026 73.0735 222.897Z" fill="black"/>
<path d="M154.552 219.142C154.263 219.787 154.712 220.365 154.976 220.943C155.762 222.62 156.543 224.292 157.25 226.007C160.279 233.393 162.664 241.217 164.163 249.059C166.142 259.389 164.876 270.07 162.854 280.29C160.919 290.062 158.682 299.759 156.819 309.549C149.273 349.268 144.362 389.429 139.759 429.572C137.16 452.249 134.665 474.939 131.868 497.591C131.733 498.673 133.436 498.667 133.571 497.591C138.493 457.663 142.488 417.631 147.773 377.747C150.471 357.374 153.507 337.044 157.188 316.832C158.983 306.999 160.925 297.197 163.07 287.431C165.122 278.066 166.984 268.583 166.831 258.947C166.677 249.169 163.967 239.496 160.71 230.333C159.769 227.69 158.737 225.079 157.588 222.516C157.256 221.785 156.961 220.998 156.555 220.303C156.057 219.455 156.408 219.142 156.021 220.002C156.469 219.013 155 218.146 154.552 219.142Z" fill="black"/>
<path d="M110.469 280.032C95.6341 338.735 77.9349 396.663 59.5965 454.351C54.4158 470.649 49.186 486.922 43.9561 503.202C44.2265 502.993 44.503 502.784 44.7734 502.575C36.1574 502.206 27.5413 501.838 18.9191 501.463C17.8252 501.414 17.8252 503.116 18.9191 503.165C27.5351 503.534 36.1512 503.903 44.7734 504.278C45.1545 504.296 45.4802 504.001 45.5908 503.651C64.1074 446.011 82.6301 388.354 98.9097 330.032C103.507 313.568 107.913 297.049 112.104 280.481C112.375 279.424 110.734 278.969 110.469 280.032Z" fill="black"/>
<path d="M71.4514 221.864C65.607 238.451 61.6861 255.757 57.8943 272.903C52.8242 295.851 48.4178 318.946 44.2388 342.065C39.937 365.886 35.9116 389.761 32.0338 413.655C28.8811 433.081 25.839 452.52 22.8216 471.964C21.3036 481.748 19.7672 491.532 18.1509 501.297C18.1018 501.58 18.0403 501.862 17.9666 502.139C17.6777 503.196 19.3186 503.645 19.6074 502.594C20.265 500.191 20.517 497.616 20.9103 495.158C21.8321 489.411 22.7171 483.659 23.6143 477.907C26.4905 459.372 29.3727 440.837 32.3533 422.314C36.1513 398.684 40.0906 375.079 44.2757 351.511C48.4486 328.011 52.8426 304.541 57.8328 281.2C61.7168 263.034 65.7667 244.775 71.4883 227.082C72.0045 225.484 72.5391 223.892 73.0984 222.307C73.4548 221.281 71.814 220.838 71.4514 221.864Z" fill="black"/>
<path d="M110.648 281.894C111.539 291.543 111.022 301.425 110.832 311.098C110.5 327.838 109.898 344.579 109.234 361.313C107.808 397.302 106.069 433.29 103.875 469.242C103.211 480.144 102.775 491.144 101.454 501.991C101.38 502.6 102.056 502.889 102.529 502.809C112.399 501.26 122.349 500.209 132.218 498.66C133.294 498.488 132.839 496.854 131.764 497.02C121.894 498.568 111.944 499.619 102.075 501.168C102.431 501.438 102.794 501.715 103.15 501.985C104.275 492.798 104.68 483.487 105.264 474.25C106.303 457.768 107.2 441.279 108.042 424.791C109.886 388.63 111.569 352.439 112.424 316.236C112.694 304.873 113.401 293.233 112.356 281.888C112.252 280.813 110.549 280.806 110.648 281.894Z" fill="black"/>
<path d="M147.496 243.036C149.377 252.119 156.954 258.971 166.111 260.157C167.193 260.299 167.186 258.596 166.111 258.455C157.685 257.367 150.852 250.859 149.137 242.581C148.916 241.512 147.275 241.967 147.496 243.036Z" fill="black"/>
<path d="M62.1899 257.779C71.4206 257.269 79.4282 250.902 81.9664 242.003C82.2675 240.946 80.6266 240.498 80.3255 241.549C78.0025 249.698 70.6647 255.604 62.1899 256.077C61.096 256.138 61.0899 257.841 62.1899 257.779Z" fill="black"/>
<path d="M124.143 515.124C125.501 516.827 125.581 519.617 125.557 521.7C125.544 522.929 125.243 524.011 126.042 525.043C126.804 526.033 128.181 526.488 129.312 526.893C131.53 527.686 133.657 528.313 135.801 529.321C140.632 531.595 145.524 533.727 150.489 535.675C153.335 536.794 156.205 537.851 159.087 538.877C161.797 539.842 169.872 541.913 166.197 546.528C165.589 547.296 166.671 548.39 167.285 547.616C170.223 543.923 167.672 540.696 163.917 539.018C157.581 536.191 150.809 534.28 144.417 531.533C141.252 530.175 138.149 528.694 135.021 527.256C133.196 526.42 131.254 526.021 129.392 525.295C126.306 524.097 127.271 521.59 126.927 518.843C126.712 517.103 126.337 515.426 125.225 514.037C124.61 513.262 123.529 514.356 124.143 515.124Z" fill="black"/>
<path d="M102.726 530.863C104.674 531.06 108.029 531.595 109.799 530.451C111.231 529.53 110.961 527.207 110.881 525.75C110.807 524.429 110.494 523.175 110.334 521.866C110.131 520.201 110.064 518.615 111.403 517.595C112.129 517.042 113.333 516.833 114.218 516.569C116.326 515.948 118.391 515.843 120.536 515.505C121.525 515.352 123.436 514.473 124.241 515.469C124.862 516.237 125.944 515.143 125.329 514.381C123.824 512.525 121.433 513.834 119.436 514.037C116.32 514.35 112.245 514.866 109.64 516.759C107.513 518.302 108.54 520.619 108.964 522.794C109.185 523.919 109.431 525.117 109.375 526.273C109.295 527.932 109.357 529.229 107.476 529.413C105.903 529.573 104.299 529.48 102.726 529.321C101.743 529.228 101.749 530.765 102.726 530.863Z" fill="black"/>
<path d="M103.076 552.25C115.908 553.995 128.703 556.404 141.689 556.65C150.207 556.81 164.44 556.742 167.894 546.866C168.219 545.932 166.738 545.527 166.413 546.461C162.971 556.3 146.894 555.384 138.739 555.015C126.89 554.487 115.22 552.36 103.488 550.769C102.517 550.64 102.099 552.121 103.076 552.25Z" fill="black"/>
<path d="M103.967 550.984C103.912 547.536 103.961 544.082 103.85 540.641C103.801 539.08 103.691 537.513 103.512 535.964C103.426 535.227 103.328 534.36 103.199 533.629C103.144 533.297 102.48 530.746 103.002 530.863C103.967 531.084 104.373 529.603 103.408 529.382C99.4134 528.46 101.853 534.882 102.025 536.456C102.535 541.268 102.351 546.147 102.425 550.984C102.449 551.973 103.986 551.973 103.967 550.984Z" fill="black"/>
<path d="M103.248 548.354C114.575 550.793 126.134 552.09 137.719 552.379C143.539 552.526 149.402 552.477 155.209 552.01C159.554 551.66 163.776 550.855 167.076 547.819C167.808 547.149 166.714 546.061 165.988 546.731C161.957 550.449 156.186 550.486 151.012 550.72C145.837 550.953 140.65 550.965 135.47 550.775C124.776 550.382 114.12 549.128 103.654 546.872C102.695 546.663 102.284 548.145 103.248 548.354Z" fill="black"/>
<path d="M119.571 528.387C120.573 528.294 121.562 528.135 122.533 527.864C123.05 527.717 123.554 527.545 124.051 527.348C124.236 527.274 125.053 526.783 125.207 526.832C125.016 526.586 124.832 526.34 124.641 526.088C124.641 526.131 124.635 526.174 124.635 526.211C124.764 525.99 124.887 525.769 125.016 525.547C124.973 525.572 124.936 525.59 124.893 525.615C125.201 525.658 125.514 525.695 125.821 525.738C125.803 525.713 125.784 525.689 125.766 525.67C125.133 524.908 124.051 526.002 124.678 526.758C124.697 526.783 124.715 526.807 124.734 526.826C124.949 527.09 125.385 527.102 125.662 526.949C126.024 526.752 126.147 526.5 126.172 526.094C126.19 525.75 125.92 525.449 125.606 525.351C124.746 525.086 123.855 525.799 123.074 526.082C121.937 526.488 120.763 526.746 119.565 526.856C118.594 526.942 118.582 528.479 119.571 528.387Z" fill="black"/>
<path d="M120.597 530.47C123.068 530.236 125.397 529.634 127.677 528.657C128.58 528.27 127.8 526.942 126.902 527.33C124.887 528.19 122.779 528.725 120.597 528.927C119.626 529.026 119.614 530.568 120.597 530.47Z" fill="black"/>
<path d="M123.682 532.682C127.026 532.455 130.234 531.748 133.355 530.507C133.159 530.04 132.962 529.573 132.766 529.106C132.538 529.247 132.311 529.394 132.083 529.536C131.248 530.064 132.022 531.392 132.858 530.863C133.085 530.722 133.312 530.574 133.54 530.433C134.24 529.991 133.792 528.694 132.95 529.032C129.963 530.224 126.896 530.937 123.689 531.152C122.699 531.214 122.693 532.75 123.682 532.682Z" fill="black"/>
<path d="M129.889 534.784C132.759 534.735 135.482 534.12 138.112 532.983C139.015 532.59 138.235 531.269 137.337 531.656C134.959 532.682 132.476 533.199 129.889 533.248C128.9 533.266 128.9 534.803 129.889 534.784Z" fill="black"/>
<path d="M135.482 536.8C137.688 536.493 139.784 535.823 141.781 534.839C142.666 534.403 141.892 533.076 141.007 533.512C139.126 534.44 137.153 535.03 135.076 535.319C134.099 535.46 134.511 536.941 135.482 536.8Z" fill="black"/>
<path d="M140.503 538.465C142.175 538.017 143.846 537.568 145.518 537.119C146.47 536.861 146.065 535.38 145.112 535.638C143.44 536.087 141.769 536.536 140.097 536.984C139.139 537.236 139.544 538.717 140.503 538.465Z" fill="black"/>
<path d="M107.919 501.051C107.636 506.029 106.88 511.019 106.26 515.96C105.879 518.965 105.491 521.977 105.055 524.976C104.914 525.934 104.779 526.893 104.613 527.852C104.551 528.184 104.428 528.565 104.422 528.903C104.404 529.61 103.992 529.099 104.772 528.946C103.801 529.136 104.213 530.617 105.178 530.427C106.131 530.236 106.131 528.03 106.235 527.366C106.702 524.435 107.077 521.491 107.458 518.554C108.208 512.752 109.117 506.902 109.449 501.051C109.511 500.062 107.974 500.062 107.919 501.051Z" fill="black"/>
<path d="M123.566 499.761C122.195 504.53 120.819 509.298 119.448 514.074C119.172 515.026 120.659 515.432 120.929 514.479C122.3 509.71 123.676 504.941 125.047 500.166C125.317 499.214 123.836 498.808 123.566 499.761Z" fill="black"/>
<path d="M34.6206 520.932C33.0842 521.319 32.7216 517.048 32.445 516.071C32.0149 514.534 31.3757 513.287 30.1159 512.255C27.7253 510.282 23.7921 510.331 20.8484 510.558C17.7449 510.804 15.6554 511.161 14.4386 514.19C13.2586 517.134 12.6994 520.385 12.3183 523.525C12.2016 524.503 13.738 524.496 13.8547 523.525C14.1927 520.76 14.7151 517.878 15.6738 515.254C16.5588 512.838 17.751 512.42 20.1601 512.15C21.6289 511.984 23.0976 511.966 24.5726 512.101C26.8219 512.31 29.065 512.648 30.331 514.774C31.1238 516.108 31.2221 517.798 31.6093 519.267C32.0825 521.055 32.8322 522.96 35.0262 522.407C35.9849 522.173 35.5793 520.692 34.6206 520.932Z" fill="black"/>
<path d="M40.2808 503.651C40.0534 503.134 40.1886 503.651 40.1026 503.983C39.9673 504.468 39.9489 505.027 39.869 505.525C39.6355 507.031 39.3897 508.53 39.15 510.03C38.8181 512.058 38.4863 514.08 38.1483 516.102C37.9885 517.066 39.4696 517.484 39.6293 516.507C40.0349 514.061 40.4406 511.621 40.8339 509.176C41.0858 507.633 42.2781 504.382 41.6082 502.87C41.2087 501.973 39.8813 502.753 40.2808 503.651Z" fill="black"/>
<path d="M35.6957 521.786C36.8388 520.268 38.369 517.533 40.0037 516.562C41.4541 515.702 40.9133 518.511 40.9194 519.537C40.9379 521.559 40.9502 523.587 40.9686 525.609C41.0301 533.506 41.0977 541.397 41.1591 549.294C41.1653 550.283 42.7016 550.283 42.6955 549.294C42.6463 543.628 42.6033 537.955 42.5542 532.289C42.5357 529.862 42.5173 527.428 42.4927 525C42.4681 522.309 42.8737 519.156 42.4251 516.495C41.4172 510.54 35.6896 519.242 34.3683 521C33.7721 521.805 35.1057 522.567 35.6957 521.786Z" fill="black"/>
<path d="M41.4176 548.925C35.0078 553.098 27.4918 555.286 19.859 555.458C13.3693 555.605 4.63642 554.333 2.19049 547.235C1.87092 546.307 0.383703 546.706 0.709418 547.641C3.03859 554.395 10.4378 556.65 16.9276 556.957C25.7772 557.375 34.762 555.089 42.1981 550.246C43.0216 549.718 42.2473 548.384 41.4176 548.925Z" fill="black"/>
<path d="M40.8768 542.804C34.9955 547.247 27.4856 550.332 20.0741 550.664C14.752 550.898 3.79447 548.845 3.7576 541.71C3.75145 540.721 2.21506 540.721 2.22121 541.71C2.25194 548.095 10.5915 551.611 15.9381 552.127C24.9291 552.999 34.5284 549.503 41.645 544.131C42.4316 543.541 41.6634 542.208 40.8768 542.804Z" fill="black"/>
<path d="M27.338 518.185C25.3223 518.431 23.3004 518.56 21.2723 518.566C20.2829 518.572 20.2829 520.108 21.2723 520.102C23.3065 520.096 25.3223 519.967 27.338 519.721C28.309 519.605 28.3213 518.068 27.338 518.185Z" fill="black"/>
<path d="M27.3384 523.286C24.874 523.673 22.4219 523.581 19.9883 523.046C19.2447 522.88 18.6977 523.759 19.2385 524.33C19.4044 524.503 19.5704 524.681 19.7363 524.853C20.4185 525.572 21.5062 524.484 20.8241 523.765C20.6581 523.593 20.4922 523.415 20.3263 523.243C20.0743 523.673 19.8285 524.097 19.5765 524.527C22.2929 525.123 24.9969 525.197 27.744 524.767C28.715 524.619 28.3032 523.138 27.3384 523.286Z" fill="black"/>
<path d="M27.123 528.122C25.3162 528.214 23.5094 528.307 21.7088 528.393C20.7808 528.442 19.2198 528.165 18.4885 528.872C18.1628 529.185 18.2365 529.634 18.4885 529.96C18.5131 529.991 18.5438 530.027 18.5684 530.058C18.7651 530.31 19.2383 530.347 19.4964 530.181C19.521 530.163 19.5517 530.144 19.5763 530.126C20.3998 529.585 19.6254 528.251 18.8019 528.798C18.7773 528.817 18.7466 528.835 18.722 528.854C19.0293 528.897 19.3427 528.933 19.65 528.976C19.6254 528.946 19.5947 528.909 19.5701 528.878C19.5701 529.241 19.5701 529.603 19.5701 529.966C19.6623 529.874 20.8177 529.984 21.1004 529.972C21.801 529.935 22.5077 529.904 23.2083 529.868C24.5111 529.8 25.814 529.739 27.123 529.671C28.1063 529.609 28.1125 528.073 27.123 528.122Z" fill="black"/>
<path d="M25.5685 533.285C22.9996 533.493 18.9558 533.426 16.8172 531.853C16.0183 531.269 15.2501 532.596 16.0429 533.18C17.358 534.151 19.2017 534.372 20.7749 534.575C22.3421 534.778 23.9891 534.956 25.5685 534.827C26.5456 534.741 26.5518 533.205 25.5685 533.285Z" fill="black"/>
<path d="M12.2938 523.501C11.8267 526.107 11.5994 528.927 10.2289 531.263C8.82156 533.659 6.28344 535.005 4.5381 537.113C2.01228 540.155 0.746291 543.855 0.598798 547.782C0.561924 548.771 2.09831 548.771 2.13519 547.782C2.35643 542.097 5.15266 538.471 9.20872 534.827C12.4843 531.883 13.0374 528.061 13.781 523.906C13.947 522.942 12.4659 522.524 12.2938 523.501Z" fill="black"/>
<path d="M25.3901 510.737C25.4761 508.241 26.5823 505.593 27.2276 503.19C27.4857 502.231 26.0046 501.825 25.7465 502.784C25.0644 505.322 23.9459 508.094 23.8537 510.737C23.8168 511.726 25.3532 511.726 25.3901 510.737Z" fill="black"/>
<path d="M61.9011 165.325C60.6228 181.082 58.0171 196.674 54.1208 211.995C53.9671 212.609 54.5571 213.353 55.227 213.101C59.83 211.386 64.8386 212.548 69.5584 213.15C74.3458 213.758 79.1394 214.355 83.939 214.889C93.7228 215.983 103.55 216.837 113.395 217.102C131.973 217.599 150.68 215.922 168.428 210.163C169.528 209.807 169.055 208.068 167.949 208.424C149.574 214.385 130.203 215.928 110.986 215.221C101.343 214.865 91.7255 213.98 82.1384 212.88C77.3387 212.333 72.5513 211.73 67.7639 211.11C63.3821 210.544 59.0004 209.764 54.7476 211.349C55.1164 211.718 55.4851 212.087 55.8538 212.456C59.7931 196.981 62.4111 181.224 63.7017 165.313C63.8 164.17 61.9994 164.176 61.9011 165.325Z" fill="black"/>
<path d="M143.219 126.873C146.138 134.591 147.877 142.488 149.082 150.631C150.182 158.049 151.632 165.338 152.837 172.731C153.992 179.817 156.788 186.478 159.351 193.165C161.6 199.04 164.249 204.632 167.832 209.813C168.483 210.759 170.051 209.862 169.387 208.903C165.65 203.495 162.952 197.657 160.648 191.518C158.159 184.905 155.578 178.458 154.453 171.465C153.943 168.3 153.15 165.258 152.536 162.123C151.768 158.178 151.411 154.128 150.821 150.152C149.617 142.009 147.877 134.112 144.958 126.393C144.553 125.324 142.813 125.785 143.219 126.873Z" fill="black"/>
<path d="M150.526 214.441C150.71 215.448 150.833 216.506 151.257 217.446C151.645 218.306 151.909 219.185 152.155 220.101C152.444 221.158 154.084 220.709 153.796 219.646C153.519 218.626 153.199 217.667 152.788 216.702C152.536 216.112 152.321 214.84 152.167 213.986C151.97 212.917 150.329 213.371 150.526 214.441Z" fill="black"/>
<path d="M77.0131 213.242C76.8594 214.742 76.6812 216.26 76.0236 217.636C75.4029 218.933 74.604 220.15 73.9526 221.434C73.4548 222.405 74.9236 223.272 75.4214 222.295C76.1588 220.844 77.0807 219.474 77.726 217.98C78.3712 216.481 78.5433 214.852 78.7092 213.242C78.8322 212.154 77.1298 212.167 77.0131 213.242Z" fill="black"/>
<path d="M60.7331 45.6404C60.8929 43.2375 61.2678 40.8838 61.8516 38.5546C62.1158 37.4914 60.4811 37.0366 60.2107 38.0998C59.59 40.5765 59.1967 43.09 59.0308 45.6404C58.9632 46.7282 60.6593 46.7282 60.7331 45.6404Z" fill="black"/>
<path d="M107.261 87.9957C106.739 90.9394 106.364 93.8954 106.149 96.876C106.069 97.9699 107.771 97.9638 107.851 96.876C108.054 94.0491 108.404 91.2405 108.902 88.4505C109.092 87.3811 107.452 86.9202 107.261 87.9957Z" fill="black"/>
<path d="M105.516 97.7548C102.923 105.056 95.2406 105.437 89.0889 102.61C88.0994 102.155 87.2329 103.624 88.2285 104.079C95.4864 107.416 104.164 106.623 107.151 98.2035C107.526 97.171 105.885 96.7285 105.516 97.7548Z" fill="black"/>
<path d="M438.249 37.0859C439.373 42.9242 438.937 49.3524 439.048 55.2583C439.287 67.6723 439.38 80.0925 439.503 92.5065C439.822 125.588 440.142 158.682 441.15 191.751C441.666 208.701 442.329 225.656 443.589 242.575C443.669 243.663 445.372 243.669 445.292 242.575C442.907 210.483 442.348 178.249 441.838 146.084C441.377 116.874 441.297 87.6577 440.805 58.4479C440.689 51.3559 441.242 43.6493 439.89 36.6434C439.681 35.5618 438.046 36.0166 438.249 37.0859Z" fill="black"/>
<path d="M226.031 32.4337C226.977 37.3255 226.713 42.6414 226.829 47.5948C227.069 57.5813 227.161 67.574 227.284 77.5667C227.616 105.179 227.973 132.797 228.925 160.403C229.472 176.172 230.203 191.936 231.371 207.674C231.451 208.762 233.153 208.768 233.073 207.674C229.165 155.087 229.706 102.333 228.581 49.6474C228.458 43.8706 228.771 37.6881 227.671 31.985C227.462 30.9034 225.822 31.3582 226.031 32.4337Z" fill="black"/>
<path d="M231.973 208.977C238.205 208.854 244.842 210.68 250.932 211.737C263.936 213.992 276.909 216.395 289.889 218.761C324.132 225.005 358.393 231.224 392.802 236.528C409.783 239.146 426.812 241.586 443.921 243.233C445.009 243.337 445.003 241.635 443.921 241.53C410.87 238.353 378.035 232.656 345.334 226.971C314.938 221.692 284.622 215.928 254.238 210.594C249.359 209.739 244.473 208.885 239.569 208.141C237.092 207.767 234.493 207.22 231.973 207.275C230.879 207.293 230.873 208.996 231.973 208.977Z" fill="black"/>
<path d="M227.315 33.0544C245.856 32.5566 264.563 33.7058 283.098 34.1852C316.893 35.064 350.687 36.0473 384.475 37.1105C402.426 37.6758 420.378 38.2658 438.329 38.9173C439.423 38.9541 439.423 37.2579 438.329 37.2149C405.008 36.0104 371.68 34.9841 338.347 34.0131C308.67 33.1466 278.999 32.3108 249.316 31.6655C241.997 31.5057 234.634 31.1554 227.309 31.3521C226.221 31.3828 226.221 33.0851 227.315 33.0544Z" fill="black"/>
<path d="M430.653 21.4762C431.458 23.3997 433.302 24.7394 435.453 24.3891C437.376 24.0757 439.601 22.0784 438.95 19.9398C438.636 18.9135 437.604 18.305 436.743 17.7642C435.766 17.1497 434.641 16.6335 433.455 16.6888C431.599 16.7809 429.854 18.6984 430.622 20.5543C431.034 21.5499 432.681 21.1136 432.263 20.0996C431.692 18.7107 433.425 18.219 434.426 18.5078C435.428 18.7967 436.584 19.4666 437.02 20.4007C437.407 21.2242 437.038 21.7588 436.295 22.2628C435.907 22.527 435.434 22.7053 434.967 22.7421C433.812 22.822 432.736 22.0784 432.294 21.0214C431.882 20.0258 430.235 20.4621 430.653 21.4762Z" fill="black"/>
<path d="M417.133 21.0951C417.938 23.0186 419.781 24.3583 421.932 24.008C423.856 23.6946 426.08 21.6973 425.429 19.5587C425.116 18.5324 424.083 17.9239 423.223 17.3831C422.246 16.7686 421.121 16.2523 419.935 16.3077C418.079 16.3998 416.334 18.3173 417.102 20.1732C417.514 21.1688 419.161 20.7325 418.743 19.7184C418.171 18.3295 419.904 17.8379 420.906 18.1267C421.908 18.4156 423.063 19.0855 423.499 20.0196C423.886 20.8431 423.518 21.3778 422.774 21.8817C422.387 22.1459 421.914 22.3242 421.447 22.361C420.291 22.4409 419.216 21.6973 418.773 20.6403C418.355 19.6508 416.708 20.0872 417.133 21.0951Z" fill="black"/>
<path d="M403.889 20.9169C404.694 22.8405 406.538 24.1802 408.689 23.8299C410.613 23.5165 412.837 21.5192 412.186 19.3806C411.872 18.3542 410.84 17.7458 409.98 17.205C409.002 16.5905 407.878 16.0742 406.692 16.1296C404.836 16.2217 403.09 18.1392 403.859 19.9951C404.27 20.9907 405.917 20.5544 405.499 19.5403C404.928 18.1514 406.661 17.6598 407.663 17.9486C408.664 18.2375 409.82 18.9073 410.256 19.8415C410.643 20.665 410.275 21.1996 409.531 21.7036C409.144 21.9678 408.671 22.1461 408.204 22.1829C407.048 22.2628 405.973 21.5192 405.53 20.4622C405.118 19.4727 403.471 19.9091 403.889 20.9169Z" fill="black"/>
<path d="M234.745 192.784C248.438 179.509 262.456 166.579 276.787 153.993C276.388 153.993 275.982 153.993 275.583 153.993C281.845 160.12 287.702 166.622 293.14 173.493C293.411 173.831 294.075 173.818 294.345 173.493C312.683 151.473 331.022 129.454 349.36 107.44C348.918 107.385 348.469 107.323 348.026 107.268C353.262 114.827 357.62 122.909 361.018 131.457C361.252 132.047 362.241 132.403 362.573 131.66C374.114 105.572 386.928 80.0679 400.958 55.2398C400.442 55.1722 399.92 55.1046 399.403 55.037C403.81 87.3811 412.143 119.092 424.201 149.433C424.446 150.047 425.104 150.256 425.62 149.808C430.752 145.389 435.883 140.964 441.015 136.546C441.845 135.833 440.64 134.628 439.81 135.341C434.679 139.76 429.547 144.185 424.416 148.603C424.889 148.726 425.362 148.855 425.835 148.978C413.778 118.644 405.444 86.9325 401.038 54.5822C400.934 53.8325 399.815 53.7956 399.483 54.3794C385.447 79.2136 372.639 104.718 361.098 130.799C361.614 130.867 362.137 130.935 362.653 131.002C359.199 122.312 354.811 114.096 349.489 106.408C349.206 105.996 348.53 105.781 348.155 106.236C329.817 128.255 311.479 150.275 293.14 172.288C293.54 172.288 293.945 172.288 294.345 172.288C288.906 165.417 283.049 158.915 276.787 152.788C276.443 152.45 275.933 152.481 275.583 152.788C261.251 165.374 247.233 178.305 233.541 191.579C232.754 192.347 233.959 193.546 234.745 192.784Z" fill="black"/>
<path d="M232.569 135.507C248.634 128.188 267.341 131.353 282.312 139.84C297.891 148.671 308.461 164.041 324.353 172.442C331.716 176.332 340.074 179.288 348.45 179.681C357.005 180.081 364.109 176.744 370.328 171.053C382.361 160.04 389.349 144.934 397.412 131.052C402.175 122.841 407.435 114.907 414.245 108.227C421.632 100.981 430.438 95.3089 440.037 91.4557C441.039 91.0501 440.603 89.4092 439.583 89.8148C424.114 96.0218 411.368 106.647 402.033 120.401C392.661 134.204 386.331 150.011 375.65 162.941C369.708 170.137 362.376 176.996 352.672 177.905C343.159 178.803 333.006 175.164 324.759 170.721C308.824 162.142 298.192 146.594 282.33 137.892C266.935 129.448 248.062 126.59 231.721 134.032C230.72 134.487 231.58 135.956 232.569 135.507Z" fill="black"/>
<path d="M306.402 157.225C306.009 156.476 305.013 156.328 304.35 156.808C303.563 157.379 303.637 158.473 304.141 159.217C305.062 160.575 307.176 160.692 308.369 159.641C309.622 158.528 309.407 156.494 308.191 155.437C306.894 154.306 304.485 154.749 304.153 156.611C303.962 157.68 305.603 158.141 305.794 157.066C306.021 155.8 307.797 156.863 307.496 157.951C307.361 158.436 306.863 158.663 306.384 158.651C306.169 158.645 305.947 158.596 305.769 158.473C305.652 158.393 305.603 158.27 305.499 158.19C305.48 158.135 305.468 158.086 305.45 158.031C305.351 158.27 305.179 158.289 304.933 158.086C305.443 159.051 306.912 158.196 306.402 157.225Z" fill="black"/>
<path d="M410.563 108.964C408.922 109.554 408.953 111.908 410.612 112.486C412.339 113.088 414.281 111.453 414.791 109.855C415.332 108.178 412.849 106.445 411.362 106.469C409.739 106.5 408.646 108.473 409.77 109.733C410.501 110.55 411.7 109.345 410.975 108.528C410.981 108.534 411.116 108.276 411.251 108.208C411.46 108.11 411.731 108.221 411.927 108.307C412.136 108.399 413.132 109.05 413.169 109.339C413.212 109.69 412.191 110.624 411.94 110.759C411.755 110.857 411.485 110.974 411.27 110.906C411.307 110.919 410.827 110.661 411.005 110.599C412.038 110.236 411.595 108.589 410.563 108.964Z" fill="black"/>
<path d="M244.32 206.206C244.32 208.651 244.473 211.085 244.781 213.513C244.916 214.582 246.618 214.6 246.483 213.513C246.176 211.085 246.022 208.651 246.022 206.206C246.022 205.112 244.32 205.105 244.32 206.206Z" fill="black"/>
<path d="M263.009 209.715C263.175 212.05 263.334 214.379 263.5 216.714C263.574 217.802 265.276 217.808 265.203 216.714C265.037 214.379 264.877 212.05 264.711 209.715C264.637 208.627 262.935 208.615 263.009 209.715Z" fill="black"/>
<path d="M284.284 213.998C284.653 216.155 284.849 218.318 284.905 220.5C284.929 221.594 286.632 221.6 286.607 220.5C286.552 218.165 286.318 215.848 285.925 213.543C285.741 212.468 284.106 212.923 284.284 213.998Z" fill="black"/>
<path d="M305.228 217.747C305.572 219.824 305.701 221.907 305.646 224.009C305.615 225.103 307.317 225.103 307.348 224.009C307.41 221.748 307.244 219.523 306.869 217.292C306.69 216.217 305.05 216.671 305.228 217.747Z" fill="black"/>
<path d="M327.936 222.915C328.071 224.36 328.102 225.798 328.022 227.248C327.967 228.342 329.669 228.342 329.725 227.248C329.798 225.798 329.768 224.36 329.639 222.915C329.54 221.834 327.838 221.821 327.936 222.915Z" fill="black"/>
<path d="M349.12 226.898C349.12 227.973 349.12 229.055 349.12 230.13C349.12 231.224 350.822 231.224 350.822 230.13C350.822 229.055 350.822 227.973 350.822 226.898C350.822 225.804 349.12 225.804 349.12 226.898Z" fill="black"/>
<path d="M368.522 230.567C368.725 231.697 368.78 232.828 368.725 233.971C368.669 235.065 370.372 235.065 370.427 233.971C370.488 232.674 370.39 231.39 370.163 230.112C369.972 229.042 368.331 229.497 368.522 230.567Z" fill="black"/>
<path d="M390.479 233.965C390.578 234.979 390.602 235.993 390.547 237.007C390.485 238.101 392.188 238.095 392.249 237.007C392.304 235.987 392.28 234.979 392.182 233.965C392.077 232.883 390.375 232.871 390.479 233.965Z" fill="black"/>
<path d="M416.414 237.413C416.512 239.035 416.469 240.651 416.291 242.268C416.168 243.355 417.87 243.343 417.993 242.268C418.172 240.651 418.215 239.035 418.116 237.413C418.049 236.325 416.346 236.319 416.414 237.413Z" fill="black"/>
<path d="M229.534 185.501C230.701 185.329 231.869 185.157 233.037 184.991C234.118 184.831 233.657 183.197 232.582 183.35C231.414 183.522 230.246 183.694 229.079 183.86C227.997 184.014 228.458 185.655 229.534 185.501Z" fill="black"/>
<path d="M228.882 164.576C229.915 164.496 230.953 164.41 231.986 164.33C233.067 164.244 233.08 162.541 231.986 162.627C230.953 162.713 229.915 162.793 228.882 162.873C227.801 162.959 227.788 164.662 228.882 164.576Z" fill="black"/>
<path d="M227.64 142.396C228.814 142.396 229.988 142.396 231.162 142.396C232.256 142.396 232.256 140.694 231.162 140.694C229.988 140.694 228.814 140.694 227.64 140.694C226.546 140.7 226.546 142.396 227.64 142.396Z" fill="black"/>
<path d="M227.652 121.993C228.605 121.409 229.631 121.053 230.75 120.967C231.831 120.881 231.844 119.178 230.75 119.264C229.336 119.375 228.009 119.781 226.792 120.524C225.864 121.09 226.718 122.564 227.652 121.993Z" fill="black"/>
<path d="M226.817 99.9795C227.782 99.8873 228.747 99.8013 229.711 99.7091C230.793 99.6108 230.805 97.9085 229.711 98.0068C228.747 98.099 227.782 98.185 226.817 98.2772C225.735 98.3817 225.723 100.084 226.817 99.9795Z" fill="black"/>
<path d="M226.399 78.8142C227.591 78.9126 228.765 78.8327 229.939 78.6176C231.014 78.4148 230.56 76.7801 229.484 76.9767C228.458 77.1672 227.431 77.198 226.393 77.1119C225.305 77.0197 225.311 78.7221 226.399 78.8142Z" fill="black"/>
<path d="M225.569 56.0695C226.601 55.9835 227.64 55.9896 228.666 56.131C229.127 56.1924 229.576 56.0203 229.711 55.5348C229.828 55.1354 229.57 54.5516 229.115 54.4901C227.929 54.3242 226.761 54.2689 225.563 54.3672C224.487 54.4594 224.475 56.1617 225.569 56.0695Z" fill="black"/>
<path d="M266.567 57.4707C260.532 60.0027 258.829 68.3115 260.384 74.1252C262.424 81.7764 271.538 82.1881 277.868 79.6254C284.856 76.7985 287.068 68.4405 282.871 62.2704C279.485 57.2925 270.598 52.8984 265.442 57.7534C264.643 58.5032 265.848 59.7077 266.646 58.9579C271.176 54.6868 279.319 59.4864 281.869 63.8621C285.286 69.7249 282.398 76.5527 276.012 78.4701C273.616 79.1891 270.918 79.4104 268.423 79.1215C264.625 78.679 262.56 76.4728 261.828 72.8407C260.9 68.2008 262.173 61.1396 267.015 59.1054C268.011 58.6937 267.574 57.0467 266.567 57.4707Z" fill="black"/>
<path d="M261.939 49.2602C253.63 52.5051 250.662 62.2703 250.293 70.4624C250.096 74.9179 250.908 79.7299 253.12 83.6446C255.511 87.8727 259.874 89.7471 264.532 90.3125C273.689 91.4187 285.188 89.4952 290.995 81.6043C296.852 73.6458 295.236 62.4178 288.912 55.2706C282.662 48.2032 268.158 41.566 260.194 49.6043C259.419 50.3848 260.624 51.5894 261.398 50.8089C267.962 44.184 279.945 49.254 285.753 54.5024C292.347 60.4635 295.174 70.3395 290.934 78.5008C286.81 86.4408 277.198 88.8192 268.926 88.8437C264.465 88.856 259.321 88.3152 256.07 84.8922C253.182 81.8562 252.149 76.8538 251.971 72.7977C251.621 64.9191 254.251 54.0783 262.375 50.9011C263.395 50.5077 262.959 48.8607 261.939 49.2602Z" fill="black"/>
<path d="M273.665 80.4367C273.917 82.7351 274.267 85.009 274.722 87.2767C274.937 88.346 276.578 87.8974 276.362 86.8219C275.932 84.7079 275.6 82.5815 275.361 80.4367C275.244 79.3612 273.542 79.3489 273.665 80.4367Z" fill="black"/>
<path d="M284.819 70.4255C287.376 70.7451 289.938 70.8864 292.513 70.8496C293.607 70.8311 293.613 69.1288 292.513 69.1473C289.938 69.1841 287.376 69.0428 284.819 68.7232C283.738 68.588 283.744 70.2903 284.819 70.4255Z" fill="black"/>
<path d="M283.885 63.733C285.6 62.0368 287.621 60.8077 289.92 60.0825C290.959 59.7507 290.516 58.1098 289.465 58.4416C286.89 59.259 284.598 60.6295 282.674 62.5346C281.9 63.3028 283.105 64.5012 283.885 63.733Z" fill="black"/>
<path d="M256.076 55.7438C257.938 57.7411 259.671 59.849 261.257 62.0737C261.89 62.9587 263.365 62.1106 262.726 61.2133C261.054 58.8719 259.241 56.641 257.281 54.5392C256.531 53.7403 255.326 54.9448 256.076 55.7438Z" fill="black"/>
<path d="M254.872 82.139C256.869 80.6579 258.989 79.3981 261.251 78.3656C262.246 77.9109 261.38 76.4421 260.39 76.8968C258.129 77.9293 256.009 79.1891 254.011 80.6702C253.145 81.3155 253.993 82.7966 254.872 82.139Z" fill="black"/>
<path d="M320.832 55.9343C316.186 58.0054 314.994 64.7286 316.53 69.1534C318.398 74.5431 325.564 74.5062 330.007 72.4659C334.862 70.2289 336.331 64.3169 333.565 59.8306C331.027 55.7008 324.23 52.4928 320.107 56.1187C319.283 56.8438 320.488 58.0422 321.311 57.3232C324.833 54.2258 330.886 58.0238 332.539 61.4776C334.764 66.1298 331.808 70.6161 327.094 71.6362C322.829 72.558 318.38 71.7223 317.728 66.7505C317.28 63.3397 318.294 58.9211 321.692 57.4031C322.688 56.9545 321.821 55.4918 320.832 55.9343Z" fill="black"/>
<path d="M317.605 49.7703C311.429 52.2593 309.149 59.3083 308.836 65.4846C308.467 72.6749 311.46 79.4288 319.13 80.5227C326.05 81.5122 334.776 80.068 339.244 74.1867C343.915 68.0411 342.501 59.2529 337.413 53.851C332.57 48.7133 322.165 44.2639 316.229 50.0776C315.448 50.8458 316.647 52.0504 317.433 51.2822C323.659 45.1858 335.09 52.1118 338.525 58.1775C343.153 66.3449 338.838 75.6677 330.05 78.1383C326.474 79.1461 322.362 79.4411 318.693 78.7467C314.041 77.8617 311.749 74.6599 310.858 70.1982C309.598 63.8683 311.386 54.1091 318.06 51.4174C319.062 51.0056 318.626 49.3586 317.605 49.7703Z" fill="black"/>
<path d="M326.123 73.062C326.313 74.7827 326.572 76.485 326.916 78.1812C327.131 79.2505 328.772 78.8019 328.557 77.7264C328.243 76.1778 327.997 74.6291 327.825 73.0558C327.708 71.9803 326.006 71.968 326.123 73.062Z" fill="black"/>
<path d="M334.604 65.8717C336.497 66.1114 338.396 66.2159 340.301 66.1851C341.395 66.1667 341.401 64.4644 340.301 64.4828C338.39 64.5135 336.497 64.4091 334.604 64.1694C333.522 64.0342 333.528 65.7365 334.604 65.8717Z" fill="black"/>
<path d="M334.069 60.8508C335.311 59.6216 336.773 58.7305 338.439 58.202C339.477 57.8702 339.035 56.2293 337.984 56.5612C336.042 57.1757 334.315 58.2143 332.858 59.6462C332.084 60.4206 333.289 61.6251 334.069 60.8508Z" fill="black"/>
<path d="M313.168 54.9387C314.539 56.4014 315.805 57.9439 316.966 59.5786C317.599 60.4636 319.074 59.6155 318.435 58.7182C317.188 56.9668 315.836 55.3013 314.367 53.7342C313.623 52.9353 312.425 54.1398 313.168 54.9387Z" fill="black"/>
<path d="M312.548 74.5123C314.023 73.4123 315.596 72.4843 317.268 71.7161C318.263 71.2613 317.397 69.7925 316.407 70.2473C314.736 71.0155 313.163 71.9435 311.688 73.0435C310.821 73.6888 311.669 75.1699 312.548 74.5123Z" fill="black"/>
</svg>
