<svg xmlns="http://www.w3.org/2000/svg" fill="none" viewBox="0 0 646 422">
  <defs/>
  <path fill="#FFECDD" d="M381.081 282.89c-29.553-24.257-37.442-85.882 23.155-106.285 34.974-11.777 69.79 2.925 92.89 33.091-20.946 9.37-39.698 29.338-51.668 65.998-13.884 42.526 12.496 81.657 48.995 109.501-20.72 24.155-49.057 36.503-73.68 36.206-50.405-.602-45.537-19.885-28.706-43.456 22.313-31.268 23.831-66.475-10.986-95.055z"/>
  <path fill="#F8BAB4" d="M481.62 209.953c7.978-4.102 16.319-6.179 24.69-6.727 20.011-1.316 35.361.548 48.673-14.479 11.657-13.158 21.365-21.422 39.16-13.997 45.622 19.039 52.976 92.643 11.408 123.745-55.128 41.246-14.494 84.904-25.979 104.075-9.507 15.866-30.416 26.017-68.731 5.322-11.011-5.948-21.618-13.842-31.54-22.54 10.576-14.169 11.629-31.804 15.654-53.94 8.734-48.122 6.088-92.31-13.335-121.459z"/>
  <path fill="#F8BAB4" d="M431.495 275.879c11.71-36.563 30.053-56.473 50.542-65.826 21.848 29.091 24.462 75.338 14.625 123.351-4.526 22.097-5.342 37.544-17.239 51.685-35.703-27.758-61.509-66.794-47.928-109.21z"/>
  <path fill="#000" d="M424.389 365.637c.035 2.557-1.265 4.649-2.835 6.572-2.085 2.553-4.452 4.962-6.858 7.216-5.129 4.797-10.86 8.881-16.46 13.093-.56.421-1.097-.521-.547-.938 5.12-3.846 10.335-7.589 15.103-11.882 2.195-1.975 4.223-4.099 6.226-6.265 2.016-2.183 4.331-4.631 4.287-7.796-.008-.699 1.076-.699 1.084 0z"/>
  <path fill="#FF4D4F" d="M477.521 134.039c.341-.112 6.714-11.179 19.72 10.962 17.557-23.877 22.309-10.962 22.309-10.962l.454 2.731s-.568.911 0 2.049c.568 1.137 6.022 5.231 6.134 6.599.114 1.363.456 9.554.682 11.83.225 2.274.909 3.981.909 3.981s-7.295 15.463-28.971 22.193c-17.558-.217-28.612-18.668-28.612-18.668l-1.825-2.275s1.817-2.049 1.591-4.78c-.225-2.73.018-10.836 1.01-12.438.992-1.601 5.077-4.363 5.571-5.521.498-1.16.278-2.431.278-2.431l.75-3.27z"/>
  <path fill="#F8BAB4" d="M534.032 204.877s-10.022 5.165-24.645 5.322c-14.621.157-27.276-2.362-32.387-4.016-5.111-1.654-6.603-2.283-6.603-2.283s-24.475 78.678-25.433 82.286c-.959 3.602-4.799 16.223-6 19.466-1.201 3.243-4.08 12.139-4.678 15.021-.599 2.882-8.762 34.848-8.762 34.848s5.762 3.846 12.72 5.887c6.958 2.045 10.946 2.705 13.027 2.465 2.081-.238 5.349-.534 5.349-.534s1.553-28.986 7.106-42.709c5.549-13.728 31.491-73.625 31.491-73.625s4.191 23.144 4.529 29.382c.339 6.238.456 11.57-.112 15.767-.568 4.198-6.455 42.542-6.455 42.542l-6.117 26.434s5.549 6.582 18.918 4.766c13.366-1.814 19.257-5.217 19.257-5.217s.568-7.49.681-9.869c.112-2.383 8.61-63.413 9.402-68.862.793-5.444.113-31.991 0-36.528-.112-4.537-1.288-40.543-1.288-40.543zM508.061 106.345c-.247-.121-4.548 1.481-8.38.495-4.807-1.233-8.566-4.319-9.554-5.678-.988-1.359-.369-2.47-.369-2.47s3.022 3.269 6.164 3.208c3.144-.061 8.259-1.172 9.923-3.209 1.665-2.035 1.973-2.222 1.973-2.222l.243 9.876z"/>
  <path fill="#000" d="M511.495 79.872c.936-1.663 2.357-3.434 4.478-3.312 1.89.108 2.839 1.619 2.956 3.373.229 3.512-2.601 10.844-7.252 8.222.264-.108.529-.217.797-.325-1.734 4.832-3.819 9.868-8.232 12.841-3.811 2.57-8.766 2.722-12.568.07-8.761-6.117-7.565-18.842-6.754-28.02.06-.69 1.144-.694 1.084 0-.733 8.314-1.964 18.747 4.343 25.454 3.395 3.608 8.515 4.493 12.807 1.906 4.503-2.713 6.576-7.81 8.276-12.538.116-.33.471-.508.797-.326 3.203 1.806 5.124-3.064 5.501-5.326.325-1.967-.321-5.38-3.19-3.912-.985.504-1.578 1.515-2.098 2.44-.352.612-1.288.065-.945-.547z"/>
  <path fill="#000" d="M499.897 79.698c-.008.834-.016 1.668-.029 2.505-.009.7-1.093.7-1.084 0 .009-.833.017-1.667.03-2.505.008-.694 1.092-.698 1.083 0zM489.451 80.067c.004.712-.022 1.424-.092 2.136-.065.69-1.149.695-1.084 0 .065-.712.096-1.42.092-2.136-.005-.699 1.079-.699 1.084 0zM494.007 80.007c.191 1.21.243 2.392.13 3.611-.031.33-.325.643-.685.526-.43.23-.859.464-1.288.694-.251.582-.078 1.016.516 1.307.676.69.616.634 1.444.573.693-.052.693 1.033 0 1.085-1.726.127-3.161-.542-3.113-2.478.035-1.48 1.223-2.722 2.731-2.227-.229.173-.455.347-.685.525.104-1.125.083-2.21-.091-3.326-.113-.686.933-.98 1.041-.29zM497.44 91.924c-2.341.903-4.938.33-6.725-1.42-.498-.49.269-1.259.768-.768 1.535 1.506 3.676 1.91 5.667 1.137.653-.248.936.803.29 1.05zM508.485 96.421c.148 4.381.426 8.778.438 13.159.009 2.753-2.02 4.276-4.46 5.209-5.337 2.036-11.818.291-15.932-3.494-.516-.474.251-1.238.767-.769 3.707 3.408 9.499 5.027 14.354 3.404 1.154-.386 2.614-1.047 3.421-2.002 1.257-1.493.714-3.868.654-5.639-.108-3.291-.221-6.582-.329-9.868-.022-.699 1.062-.699 1.087 0z"/>
  <path fill="#000" d="M490.274 98.41c.212 4.15-.264 8.231-.612 12.364-.056.689-1.14.698-1.084 0 .343-4.129.82-8.21.612-12.365-.035-.698 1.049-.698 1.084 0zM508.698 109.619c6.235 2.7 12.819 4.414 19.209 6.677 5.727 2.027 11.254 4.588 16.409 7.818 5.488 3.444 10.274 7.728 15.42 11.632 5.692 4.319 10.308 9.498 15.147 14.734.377.404.004 1.02-.529.906-4.396-.955-8.128 2.362-11.96 3.947-3.53 1.458-7.297 2.041-11.099 1.859-.693-.036-.698-1.121 0-1.086 4.752.23 9.165-.851 13.362-3.061 3.155-1.667 6.298-3.503 9.988-2.704l-.53.907c-2.592-2.804-5.154-5.639-7.777-8.413-2.35-2.48-5.019-4.528-7.73-6.591-5.123-3.902-9.901-8.157-15.407-11.543-5.461-3.361-11.323-5.939-17.392-7.979-5.909-1.989-11.922-3.678-17.652-6.161-.642-.282-.092-1.216.541-.942z"/>
  <path fill="#000" d="M561.734 138.311c-10.973 1.779-20.631 8.595-25.963 18.368-.334.612-1.27.065-.937-.547 5.454-9.989 15.382-17.044 26.609-18.868.686-.112.981.934.291 1.047z"/>
  <path fill="#000" d="M551.204 157.23c-5.956-.36-14.718 3.938-18.307-2.886-1.79-3.404-1.643-7.434-3.998-10.594-2.336-3.133-5.921-5.044-9.302-6.842.272-.155.542-.312.815-.469-.356 3.517 4.33 4.936 5.652 7.867 1.055 2.344.933 5.032.945 7.542.009 1.505.065 3.008.231 4.505.281 2.553.589 5.284 3.676 5.688 2.779.36 4.426 1.184 6.706 2.834 5.367 3.882 11.947 5.163 18.45 5.374 5.068.166 10.838-.043 15.676-1.688 1.739-.59 3.854-1.293 5.389-2.34 1.362-.929 1.777-2.821 1.179-4.302a22.126 22.126 0 00-1.088-2.24c-1.699-3.096-3.845-6.048-6.538-8.344-.532-.456.239-1.22.768-.769 2.588 2.21 4.682 5.041 6.377 7.979 1.171 2.036 3.164 5.245 1.362 7.463-.902 1.108-2.498 1.65-3.746 2.206-1.401.62-2.819 1.259-4.296 1.663-2.763.746-5.692 1.042-8.532 1.271-6.867.561-14.21.187-20.622-2.552-3.551-1.516-6.512-4.963-10.391-5.414-3.027-.352-4.513-1.267-5.103-4.402-.789-4.198.125-8.744-1.006-12.837-.68-2.457-2.44-3.565-4.209-5.171-1.292-1.171-2.133-2.557-1.955-4.337.043-.413.429-.673.815-.469 2.756 1.468 5.562 2.987 7.851 5.145 2.458 2.318 3.607 5.049 4.4 8.283 1.057 4.302 2.666 8.07 7.799 7.719 3.706-.252 7.273-1.199 11.01-.972.686.047.69 1.132-.008 1.089z"/>
  <path fill="#000" d="M528.38 142.782c-.464-1.189-.893-2.553-1.652-3.582-.733-.998-1.934-1.81-2.844-2.639-1.591-1.445-3.797-2.86-4.721-4.862l.989-.131c-.325 1.442-.543 3.465.633 4.633.494.49-.269 1.259-.768.768-1.478-1.467-1.331-3.833-.911-5.687.101-.43.794-.555.99-.131 1.113 2.415 4.347 4.447 6.289 6.222 1.626 1.484 2.247 3.091 3.035 5.119.256.655-.788.937-1.04.29zM534.917 163.703c2.302 12.868 6.554 25.549 13.673 36.572.247.382-.091.768-.468.816-6.741.829-12.745 4.463-19.187 6.403-5.411 1.633-11.016 2.613-16.643 3.07-11.766.955-23.808-.343-35.092-3.825-6.062-1.871-11.905-4.407-17.332-7.697-.595-.361-.052-1.298.545-.938 19.622 11.891 45.654 14.934 67.62 8.527 6.771-1.976 13.027-5.761 20.089-6.625-.156.273-.313.543-.468.816-7.166-11.096-11.467-23.882-13.781-36.832-.122-.682.923-.973 1.044-.287z"/>
  <path fill="#000" d="M464.207 163.721c-1.804 11.621-2.624 23.365-3.612 35.077-.056.691-1.144.699-1.084 0 .997-11.808 1.83-23.647 3.65-35.364.109-.691 1.154-.395 1.046.287zM527.938 161.29c-2.519 5.852-6.897 9.789-12.057 13.779-5.549 4.289-11.6 8.726-18.615 8.631-13.031-.178-21.267-9.829-29.43-21.455-.113-.682.931-.978 1.044-.287 8.419 11.913 15.572 20.161 28.386 20.656 6.967.095 12.954-4.393 18.399-8.743 4.808-3.847 7.586-5.427 11.228-12.868.13-.691 1.175-.4 1.045.287zM518.89 132.945c-5.723-6.012-13.413 1.542-21.65 12.707-6.936-12.707-14.001-17.472-19.2-12.151-.49.498-.819-.269-.334-.769 4.3-4.402 11.731-2.969 19.534 11.401 8.237-11.11 15.606-18.017 22.417-11.957.522.466-.286 1.276-.767.769zM484.193 139.51c-6.39 3.889-9.241 6.45-9.485 15.24-.497.488-.917-.078-.917-.078.603-9.037 2.668-11.635 9.895-15.762.591-.363 1.097.237.507.6z"/>
  <path fill="#000" d="M508.073 174.057c5.799-3.604 9.76-7.133 13.125-14.314.506-.483 1.211.341.708.821-2.34 5.709-6.892 10.701-13.371 14.476-.589.365-1.052-.617-.462-.983zM534.796 205.167c.403 13.541.72 27.082 1.088 40.622.368 13.649 1.183 27.307-.572 40.895-1.751 13.537-4.296 26.965-6.2 40.484-1.023 7.263-1.899 14.552-2.475 21.863-.269 3.395-.286 6.82-.594 10.206-.187 2.041-1.023 2.57-2.908 3.239-6.807 2.422-14.047 3.929-21.278 4.124-5.861.161-10.521-1.532-15.142-5.136-.55-.43.22-1.189.767-.769 4.617 3.6 9.221 5.032 15.034 4.799 6.395-.257 12.723-1.551 18.797-3.548.664-.217 1.708-.395 2.289-.79 1.582-1.072 1.358-2.154 1.423-3.625.06-1.42.137-2.835.225-4.255.212-3.399.494-6.793.832-10.184.624-6.27 1.439-12.516 2.346-18.75 1.903-13.115 4.43-26.161 6.004-39.324 1.495-12.499.75-25.076.407-37.618-.386-14.079-.715-28.158-1.132-42.237-.017-.694 1.067-.694 1.089.004z"/>
  <path fill="#000" d="M492.615 230.725c3.312 16.462 7.053 33.167 7.989 49.977.413 7.419-.914 14.483-1.972 21.807-1.336 9.256-2.588 18.525-4.115 27.749-1.681 10.181-3.735 20.292-6.536 30.226-.191.672-1.236.386-1.046-.287 4.908-17.414 7.418-35.326 9.963-53.204 1.109-7.788 2.918-15.672 2.727-23.568-.186-7.733-1.326-15.447-2.563-23.07-1.595-9.82-3.537-19.584-5.496-29.34-.135-.681.91-.976 1.049-.29zM470.428 204.364c-8.605 28.254-17.601 56.42-25.785 84.8-1.773 6.143-3.36 12.182-5.654 18.156-2.319 6.047-3.753 12.381-5.461 18.619-2.268 8.266-4.678 16.497-6.438 24.889-.243 1.159-.547 2.336-.707 3.512-.126.912-.139.925.59 1.485.511.391 1.109.707 1.668 1.024 2.754 1.581 5.697 2.818 8.71 3.808 5.943 1.958 12.576 3.274 18.819 2.179.681-.121.975.925.286 1.046-5.284.925-10.772.174-15.923-1.158-5.345-1.386-10.686-3.491-15.198-6.721-.213-.152-.3-.356-.249-.612 1.25-6.591 2.819-13.094 4.592-19.562 1.075-3.925 2.171-7.841 3.242-11.765 1.405-5.149 2.58-10.393 4.418-15.407 1.691-4.607 3.381-9.065 4.621-13.819 1.461-5.609 3.173-11.153 4.864-16.697 3.512-11.522 7.018-23.044 10.53-34.565 4.01-13.168 8.025-26.335 12.034-39.502.2-.665 1.245-.379 1.041.29z"/>
  <path fill="#000" d="M495.464 247.63l-20.146 46.287c-6.26 14.388-13.197 28.936-15.675 44.56-1.297 8.166-1.818 16.436-2.424 24.676-.052.69-1.136.699-1.084 0 .538-7.307 1.023-14.622 2.011-21.884.985-7.25 2.723-14.153 5.181-21.043 5.618-15.733 12.827-30.936 19.491-46.244 3.901-8.969 7.807-17.934 11.709-26.903.277-.639 1.213-.087.937.551zM488.813 110.982c-5.041 1.077-9.949 3.256-14.77 5.036-6.021 2.222-12.034 4.341-17.666 7.476-6.194 3.443-11.458 7.931-17.024 12.259-2.9 2.254-5.899 4.368-8.474 7.008-2.844 2.917-5.55 5.986-8.316 8.977l-.528-.907c3.689-.803 6.827 1.038 9.987 2.705 4.193 2.21 8.61 3.291 13.362 3.06.698-.034.693 1.051 0 1.085-3.802.184-7.569-.399-11.098-1.857-3.828-1.585-7.565-4.902-11.961-3.947-.529.117-.902-.499-.529-.907 2.935-3.174 5.779-6.486 8.857-9.525 2.619-2.579 5.653-4.654 8.527-6.924 5.411-4.267 10.603-8.605 16.656-11.969 5.544-3.083 11.445-5.193 17.371-7.38 4.998-1.846 10.092-4.124 15.319-5.241.678-.143.968.904.287 1.051z"/>
  <path fill="#000" d="M435.231 137.755c11.228 1.824 21.155 8.874 26.608 18.868.334.612-.602 1.163-.936.547-5.332-9.769-14.99-16.589-25.963-18.369-.68-.113-.39-1.158.291-1.046z"/>
  <path fill="#000" d="M445.474 156.636c3.625-.222 7.076.664 10.665.946 2.532.2 4.752-.26 6.243-2.496 1.044-1.559 1.461-3.404 1.903-5.201.767-3.117 1.843-5.783 4.166-8.057 2.332-2.276 5.232-3.855 8.085-5.371.386-.204.776.056.815.469.395 3.907-3.91 4.936-5.519 7.836-1.916 3.456-.897 8.279-1.314 12.078-.276 2.53-.494 5.631-3.303 6.533-1.655.53-3.377.244-4.972 1.099-1.657.894-3.057 2.214-4.682 3.169-6.086 3.572-13.591 4.433-20.527 4.176-6.204-.225-12.567-1.028-18.042-4.172-3.156-1.81-2.233-4.68-.79-7.45 1.76-3.377 4.11-6.659 7.014-9.138.53-.451 1.297.313.768.769-2.359 2.014-4.262 4.523-5.861 7.171-.707 1.177-1.678 2.609-1.99 3.955-.676 2.926 1.829 4.025 3.984 4.967 5.077 2.213 10.686 2.778 16.187 2.848 6.364.078 13.136-.786 18.711-4.059 2.28-1.337 4.222-3.465 6.902-3.972 2.002-.383 4.2-.096 4.958-2.584.508-1.659.616-3.503.716-5.223.186-3.099-.299-6.407.728-9.403a7.83 7.83 0 011.869-3.009c1.673-1.671 4.352-2.786 4.07-5.591l.815.469c-3.221 1.71-6.606 3.516-8.961 6.382-2.666 3.243-2.458 7.471-4.339 11.053-3.589 6.825-12.355 2.526-18.307 2.887-.686.047-.686-1.038.008-1.081z"/>
  <path fill="#000" d="M467.254 142.986c.789-2.036 1.397-3.629 3.035-5.118 1.062-.969 2.128-1.932 3.195-2.896 1.097-.994 2.466-1.953 3.099-3.325.195-.426.893-.305.989.13.42 1.854.568 4.216-.91 5.687-.494.491-1.262-.274-.768-.769 1.176-1.162.954-3.212.633-4.631l.989.13c-.92 1.996-3.13 3.42-4.722 4.862-.871.794-1.876 1.541-2.648 2.435-.876 1.016-1.357 2.523-1.847 3.786-.247.643-1.296.361-1.045-.291z"/>
  <path fill="#F8BAB4" d="M500.502 86.137c-.49-.475-.299-1.468.427-2.217.725-.748 1.71-.97 2.199-.494.49.476.299 1.469-.425 2.217-.726.749-1.711.97-2.201.494zM486.999 86.46c-.902-.522-1.356-1.425-1.015-2.016.342-.592 1.349-.65 2.251-.128.902.522 1.357 1.424 1.015 2.016-.341.592-1.349.649-2.251.127z"/>
  <path fill="#000" d="M534.284 226.683c-6.802-3.634-11.921-9.664-14.453-16.948-.231-.66.815-.947 1.044-.287 2.446 7.028 7.405 12.798 13.959 16.301.612.326.065 1.265-.55.934zM480.785 207.82c-3.143 6.725-7.661 14.348-16.023 14.474-.698.009-.698-1.077 0-1.086 7.946-.117 12.126-7.596 15.086-13.935.299-.634 1.231-.083.937.547zM527.599 297.686c-4.109-.126-7.352-2.597-10.318-5.219-.524-.464.243-1.228.768-.768 2.745 2.423 5.739 4.78 9.555 4.897.693.026.698 1.112-.005 1.09zM455.298 287.336c-2.588 1.267-5.67.738-7.638-1.394-.473-.512.29-1.281.767-.768 1.625 1.763 4.157 2.283 6.324 1.224.625-.304 1.176.629.547.938zM503.102 375.435c1.083.274 1.339-2.744 1.534-3.435.303-1.085.754-1.966 1.643-2.696 1.687-1.393 4.461-1.358 6.538-1.197 2.189.173 3.663.425 4.521 2.565.832 2.079 1.227 4.376 1.496 6.594.082.691-1.002.686-1.084 0-.238-1.953-.607-3.99-1.283-5.843-.625-1.706-1.466-2.001-3.165-2.192a15.204 15.204 0 00-3.113-.035c-1.586.148-3.168.386-4.061 1.889-.559.942-.629 2.135-.902 3.173-.334 1.263-.863 2.609-2.411 2.218-.676-.164-.39-1.211.287-1.041zM502.278 365.866c-.26 2.566-.156 5.21-.156 7.789 0 .699-1.084.699-1.084 0 .004-2.579-.104-5.223.156-7.789.074-.69 1.158-.695 1.084 0zM436.688 373.689c.043 3.595-.018 7.185-.213 10.771a146.26 146.26 0 01-.386 5.375c-.082.933.031 2.384-.503 3.243-1.136 1.832-5.068 2.223-6.931 2.787-3.243.977-5.714 2.744-8.675 4.259-4.474 2.284-9.724 2.878-14.622 1.84-2.576-.546-5.077-1.545-7.283-2.986-.547-.356-1.093-.621-1.331-1.215-.213-.526.148-1.724.199-2.337.086-1.038.178-2.074.265-3.112.061-.691 1.144-.7 1.083 0-.108 1.289-.295 2.596-.329 3.89-.048 1.624.702 1.923 2.055 2.661 2.141 1.163 4.5 1.923 6.91 2.28 5.006.742 10.018-.348 14.314-2.996 1.964-1.211 3.863-2.284 6.065-3.001 1.297-.421 2.615-.76 3.919-1.163.586-.182 1.201-.334 1.756-.595 1.236-.572 1.773-.937 1.916-2.318.599-5.769.785-11.587.711-17.383-.013-.698 1.071-.698 1.08 0z"/>
  <path fill="#000" d="M423.894 365.137c2.359-.186 6.637-.582 8.007 1.992.72 1.35.152 3.14.178 4.599.008.59-.048 3.333.394 3.512.889.364 2.714-1.78 3.291-2.314.511-.473 1.279.291.767.767-1.544 1.424-4.495 4.907-5.241 1.112-.352-1.78-.152-3.503-.204-5.288-.069-2.305-1.439-3.142-3.594-3.308a23.112 23.112 0 00-3.598.014c-.693.056-.693-1.03 0-1.086zM435.743 390.329c-3.937 1.585-7.899 3.183-12.048 4.117-2.285.512-4.557.725-6.737 1.64-1.378.582-2.657 1.255-4.136 1.55-5.271 1.051-11.492-1.007-15.198-4.874-.482-.505.281-1.273.767-.769 4.205 4.384 11.362 6.082 16.945 3.642 3.14-1.372 6.325-1.75 9.611-2.618 3.599-.95 7.059-2.349 10.505-3.738.65-.256.927.794.291 1.05z"/>
  <path fill="#000" d="M426.018 365.133a26.64 26.64 0 003.416-6.434c.238-.651 1.284-.37 1.046.287a27.572 27.572 0 01-3.526 6.69c-.407.568-1.343.025-.936-.543zM435.911 373.381a341.762 341.762 0 014.791-11.222c.286-.639 1.218-.087.936.547a325.188 325.188 0 00-4.678 10.962c-.264.638-1.313.36-1.049-.287zM413.065 383.418c.962.295 1.903.669 2.792 1.142.425.226.837.474 1.236.743.177.121.918.877 1.145.859-.175.135-.348.265-.525.399l.013-.074c.047.178.09.352.139.53-.022-.017-.04-.039-.062-.056.217.031.439.056.655.087l-.043.03c-.581.391-1.122-.551-.547-.938l.044-.03c.2-.134.49-.074.654.086.2.197.235.392.183.661-.048.243-.295.382-.525.399-.754.057-1.535-.921-2.146-1.298a14.305 14.305 0 00-3.316-1.485c-.647-.213-.364-1.263.303-1.055zM415.632 381.69c1.968 1.117 3.932 2.275 5.393 4.042-.304.179-.603.352-.906.53-.036-.1-.074-.196-.108-.295-.244-.655.806-.938 1.044-.287.035.1.074.195.108.296.182.498-.564.937-.905.529-1.41-1.702-3.282-2.8-5.176-3.873-.604-.347-.058-1.285.55-.942zM418.112 378.647a16.959 16.959 0 016.225 3.564l-.85.656-.174-.252c-.393-.577.547-1.124.937-.546l.174.251c.359.53-.413 1.05-.851.655a15.561 15.561 0 00-5.743-3.285c-.668-.205-.386-1.251.282-1.043zM421.042 375.795a40.171 40.171 0 015.501 3.361c.559.403.018 1.345-.546.937a41.002 41.002 0 00-5.501-3.361c-.62-.316-.074-1.249.546-.937zM423.279 373c1.474.781 3.113 1.458 4.5 2.382.528.352.902 1.364-.035 1.507-.681.105-.975-.942-.286-1.046-.043.512-.226.611-.546.308-.212-.113-.43-.226-.641-.339-.373-.199-.75-.395-1.127-.594l-2.411-1.276c-.616-.335-.069-1.269.546-.942zM502.343 376.038c-.806-1.073-1.885-3.004-3.039-3.69-1.023-.608-.641 1.376-.646 2.101-.013 1.428-.021 2.861-.034 4.29-.044 5.578-.092 11.152-.135 16.73-.004.7-1.088.7-1.084 0 .035-4.001.066-8.009.1-12.012.013-1.715.026-3.433.044-5.149.016-1.901-.269-4.128.047-6.008.711-4.207 4.752 1.941 5.683 3.183.421.568-.52 1.11-.936.555z"/>
  <path fill="#000" d="M498.307 395.209c4.521 2.949 9.823 4.494 15.208 4.615 4.577.105 10.738-.794 12.463-5.808.225-.656 1.275-.374 1.045.286-1.643 4.771-6.862 6.365-11.441 6.581-6.242.296-12.58-1.319-17.826-4.741-.58-.373-.039-1.315.551-.933z"/>
  <path fill="#000" d="M498.689 390.885c4.148 3.139 9.446 5.319 14.674 5.553 3.754.165 11.484-1.285 11.509-6.325.005-.699 1.089-.699 1.084 0-.021 4.51-5.903 6.993-9.676 7.358-6.341.617-13.113-1.854-18.134-5.648-.554-.417-.013-1.359.543-.938zM508.238 373.498c1.423.174 2.849.265 4.28.269.698.005.698 1.09 0 1.086a36.202 36.202 0 01-4.28-.269c-.685-.088-.693-1.172 0-1.086zM508.238 377.097c1.739.274 3.468.209 5.185-.168.525-.118.911.503.529.906l-.351.37c-.481.507-1.249-.261-.768-.769.118-.121.235-.247.352-.37l.528.908a15.396 15.396 0 01-5.76.17c-.69-.105-.395-1.15.285-1.047zM508.39 380.513c1.275.066 2.55.132 3.819.192.655.035 1.757-.161 2.273.339.229.221.177.538 0 .768l-.058.069c-.137.178-.472.204-.654.087l-.056-.039c-.581-.382-.035-1.324.546-.938l.056.04c-.216.03-.437.056-.655.086l.058-.069v.768c-.065-.065-.88.013-1.08.005-.495-.027-.993-.048-1.487-.074-.919-.048-1.839-.092-2.762-.139-.693-.043-.698-1.129 0-1.095zM509.488 384.161c1.811.147 4.664.099 6.173-1.011.563-.413 1.106.525.546.937-.928.686-2.228.842-3.338.985-1.105.144-2.268.269-3.381.178-.69-.061-.694-1.146 0-1.089z"/>
  <path fill="#000" d="M518.851 377.25c.329 1.841.49 3.833 1.456 5.483.994 1.693 2.783 2.644 4.015 4.133 1.782 2.149 2.675 4.762 2.779 7.536.025.699-1.058.699-1.084 0-.155-4.015-2.128-6.577-4.99-9.151-2.31-2.08-2.7-4.781-3.225-7.715-.117-.681.923-.972 1.049-.286zM514.3 368.827a80.26 80.26 0 01.025-4.333c.022-.694 1.106-.698 1.084 0a81.302 81.302 0 00-.026 4.333c.013.699-1.071.699-1.083 0zM525.735 353.346c-3.242.399-5.947 2.274-8.986 3.312-2.97 1.012-6.182 1.164-9.29 1.22-6.191.108-12.369-.642-18.022-3.303-.633-.296-.082-1.234.546-.938 5.935 2.792 12.516 3.364 18.997 3.108 3.52-.139 6.724-.703 9.944-2.153 2.238-1.007 4.348-2.032 6.815-2.336.686-.083.682 1.003-.004 1.09zM456.959 356.198c-10.105-.712-20.583-1.776-29.112-7.771-.567-.399-.025-1.341.547-.937 8.38 5.891 18.637 6.924 28.565 7.623.689.047.698 1.137 0 1.085zM511.282 81.04c-1.257-.882-1.982-2.036-2.554-3.452-.849-2.092-1.569-5.86-4.465-5.943-1.257-.035-2.557.868-3.755 1.242-.871.273-1.768.451-2.674.56-1.977.239-4.01.082-5.93-.426-3.169-.842-6.971-2.9-8.293-6.1-1.591-3.854.199-8.712 2.549-11.834.416-.551 1.356-.013.936.547-2.731 3.634-4.578 9.534-.828 13.12 3.121 2.982 7.851 4.237 12.065 3.534 2.744-.456 5.661-2.87 8.271-.869 2.866 2.197 2.289 6.63 5.228 8.683.568.395.026 1.337-.55.938z"/>
  <path fill="#000" d="M514.464 77.193c.802-3.85 1.037-8.218-.628-11.886-1.8-3.968-5.823-5.913-10.027-6.104-2.359-.109-4.657.33-6.941.86-1.404.325-2.818.668-4.27.516-2.714-.278-4.972-2.019-6.182-4.42-.312-.62.62-1.172.936-.547 1.053 2.093 2.952 3.608 5.32 3.864 2.336.248 4.69-.738 6.979-1.09 3.538-.542 7.292-.36 10.487 1.399 6.294 3.46 6.676 11.426 5.371 17.7-.143.68-1.188.39-1.045-.292zM578.854 114.053c-1.166-.529-2.341-1.61-2.844-2.8l.989-.417c.259 1.55-.92 2.778-2.333 3.173l.13-.989c1.6.89 1.86 2.157 2.38 3.781l-1.045.287c-.351-1.919 1.093-3.73 3.074-3.682.698.018.698 1.103 0 1.085-1.231-.03-2.259 1.056-2.029 2.31.126.682-.828.964-1.045.287-.429-1.337-.528-2.379-1.885-3.135-.412-.229-.313-.868.13-.989.772-.218 1.734-.899 1.578-1.841-.091-.552.733-1.029.988-.417.442 1.046 1.431 1.949 2.454 2.414.642.281.091 1.22-.542.933zM442.375 155.109c-1.166-.529-2.341-1.61-2.843-2.8l.988-.416c.26 1.55-.919 2.777-2.333 3.173l.131-.99c1.6.89 1.859 2.157 2.379 3.781l-1.044.287c-.352-1.92 1.092-3.73 3.073-3.681.698.016.698 1.102 0 1.084-1.23-.03-2.258 1.056-2.029 2.31.126.682-.828.964-1.044.287-.429-1.337-.529-2.38-1.886-3.135-.412-.23-.312-.868.13-.99.771-.217 1.734-.899 1.578-1.841-.091-.551.733-1.029.988-.416.443 1.046 1.431 1.95 2.454 2.414.637.282.087 1.22-.542.933zM505.486 10.303c-1.166-.53-2.341-1.61-2.844-2.8l.988-.417c.26 1.55-.918 2.779-2.332 3.174l.13-.99c1.6.89 1.86 2.158 2.381 3.781l-1.046.287c-.35-1.919 1.093-3.73 3.075-3.682.697.018.697 1.103 0 1.086-1.232-.03-2.26 1.055-2.029 2.31.125.68-.828.963-1.046.286-.429-1.337-.528-2.38-1.885-3.134-.411-.23-.312-.869.13-.99.772-.217 1.733-.899 1.578-1.841-.092-.551.732-1.029.988-.417.442 1.046 1.431 1.95 2.454 2.414.641.282.091 1.22-.542.933zM450.768 39.252c-1.167-.53-2.341-1.61-2.844-2.8.329-.14.659-.278.988-.417.26 1.55-.919 2.778-2.332 3.174l.13-.99c1.599.89 1.859 2.157 2.38 3.781-.346.096-.698.191-1.044.286-.352-1.918 1.091-3.729 3.073-3.68.698.017.698 1.102 0 1.084-1.232-.03-2.259 1.055-2.029 2.31.126.682-.828.964-1.044.286-.431-1.337-.53-2.379-1.887-3.134-.411-.23-.312-.868.13-.99.772-.217 1.734-.898 1.578-1.84-.091-.552.733-1.03.989-.417.442 1.046 1.43 1.949 2.454 2.414.637.282.087 1.22-.542.933zM623.809 60.39c-.828 3.347-5.826 1.919-6.767 5.049-.52 1.736.416 3.62-.143 5.379-.382 1.198-1.275 1.901-2.411 2.344-1.854.73-4.521.456-5.401 2.7-.767 1.963.326 4.22-.59 6.208-.837 1.824-2.943 3.1-4.421 4.355-2.072 1.758-4.144 3.52-6.217 5.279-.529.447-1.301-.317-.768-.768l5.905-5.015c1.982-1.68 4.709-3.295 4.864-6.126.173-3.216-.278-5.873 3.403-6.928 1.99-.573 4.305-.552 4.713-3.078.277-1.706-.538-3.482.195-5.145 1.192-2.709 5.935-1.901 6.589-4.54.169-.682 1.214-.396 1.049.286zM568.51 15.735c.083 1.524-.81 2.587-2.089 3.334-.923.538-1.989.747-2.922 1.255-1.496.82-1.812 1.875-1.929 3.455-.096 1.294.043 2.835-.945 3.842-1.613 1.641-4.933-.377-5.757 2.262-.534 1.715.096 3.586-.564 5.288-.845 2.18-2.835 1.546-4.282 2.891-1.245 1.16-.3 3.543-1.461 4.923-.676.808-1.8 1.086-2.58 1.776-1.184 1.046-1.813 2.44-2.037 3.98-.101.691-1.145.396-1.046-.285.252-1.72 1.007-3.296 2.316-4.46.923-.82 2.323-1.263 2.896-2.439.363-.747.121-1.854.303-2.666.356-1.588 1.231-1.914 2.601-2.509 1.123-.49 2.15-.86 2.445-2.188.117-.543.109-1.129.117-1.684.017-.895-.03-1.767.183-2.644.298-1.246.988-2.292 2.28-2.596 1.296-.308 2.085.243 3.307-.534 1.318-.843 1.041-1.785 1.149-3.213.099-1.341.381-2.583 1.452-3.486 1.634-1.38 5.618-1.45 5.467-4.294-.022-.707 1.062-.703 1.096-.008zM475.243 40.159c-.502-1.945.27-3.707.092-5.652-.191-2.071-1.678-3.708-2.891-5.275-2.251-2.904-3.01-5.709-2.285-9.369.2-1.011.611-2.005.767-3.017.333-2.149-.412-2.735-1.799-3.742-.972-.704-1.912-1.368-2.38-2.522-.616-1.533-.199-3.2-.278-4.793-.103-2.076-1.863-3.256-1.977-5.266-.038-.7 1.046-.695 1.084 0 .096 1.684 1.739 2.89 1.939 4.64.238 2.11-.621 4.476 1.066 6.17.945.946 2.315 1.415 3.078 2.557.85 1.272.485 2.604.108 3.994-.707 2.604-1.374 5.43-.208 8.018.676 1.506 1.837 2.744 2.818 4.05.862 1.155 1.686 2.401 1.955 3.847.377 2.045-.564 4.033-.039 6.07.169.676-.876.967-1.05.29zM442.6 62.23c-.914-2.848-5.201-2.618-6.918-4.888-1.048-1.39-.759-3.104-1.309-4.663-.81-2.283-3.338-2.257-5.229-3.07-1.131-.48-1.976-1.167-2.431-2.335-.876-2.261-.941-4.228-3.325-5.544-1.496-.824-3.16-.79-4.244-2.257-1.604-2.18-2.606-3.838-5.423-4.606-.673-.183-.386-1.233.285-1.046 1.817.494 3.439 1.42 4.652 2.886.62.747.953 1.793 1.631 2.48.853.863 2.323.924 3.376 1.454a7.09 7.09 0 013.386 3.716c.369.938.347 2.132.88 2.995.71 1.16 2.111 1.429 3.303 1.793 1.314.404 2.718.812 3.568 1.976 1.21 1.658.542 3.976 1.791 5.587 1.894 2.44 5.982 1.906 7.048 5.223.218.677-.828.96-1.041.3zM410.247 84.12c-1.3-5.887-9.819-1.785-13.364-4.772-1.201-1.011-1.115-2.296-1.257-3.742-.148-1.476-.569-3.23-1.948-4.05-1.365-.817-3.16-.395-4.646-.426-1.726-.034-3.118-.569-4.274-1.871-.751-.842-1.31-1.854-2.086-2.674-1.002-1.055-2.219-1.602-3.577-2.036-3.338-1.068-7.66-1.576-8.653-5.605-.168-.677.876-.968 1.046-.287 1.235 5.01 8.292 3.769 11.522 6.73 1.934 1.77 2.675 4.445 5.687 4.658 1.964.139 4.02-.443 5.771.742 1.266.86 1.855 2.332 2.115 3.79.256 1.437-.099 3.148 1.326 4.18 1.232.89 3.149.813 4.596.826 3.347.026 7.903.2 8.8 4.254.139.673-.905.964-1.058.282z"/>
  <path stroke="#FFECDD" stroke-miterlimit="10" stroke-width="3.5" d="M605.786 200.326c6.49 0 11.752-5.265 11.752-11.761 0-6.496-5.262-11.76-11.752-11.76-6.492 0-11.754 5.264-11.754 11.76 0 6.496 5.262 11.761 11.754 11.761z"/>
  <path stroke="#000" stroke-width="2" d="M457.978 91.343c.2-.06.4-.14.598-.236l-.598.236zm0 0c-1.172.436-2.456-.101-3.245-1.37l3.245 1.37zm-.009-5.569c.615-.197 1.396-.218 2.099.217l-2.099-.216zm0 0c-.425-.5-1.075-.91-1.897-.923l1.897.924zm-3.996 1.205c-.099.943.173 2.049.76 2.993l1.339-5.12a1.935 1.935 0 00-1.556.718c-.344.42-.495.937-.543 1.409zm7.034.428a2.004 2.004 0 00-.939-1.416l-1.492 5.116c1.02-.494 1.816-1.322 2.202-2.204.193-.442.311-.964.229-1.496zM538.282 98.763c.209-.018.42-.055.635-.11l-.635.11zm0 0c-1.234.19-2.384-.596-2.9-1.998l2.9 1.998zm-3.04-5.085c-.287.905-.244 2.043.14 3.087l2.347-4.745a1.937 1.937 0 00-1.671.389c-.421.342-.674.818-.816 1.27zm6.802 1.843a2.004 2.004 0 00-.633-1.577l-2.494 4.71c1.099-.278 2.045-.927 2.602-1.714.278-.394.498-.881.525-1.419zm-.633-1.577c-.601-.568-1.37-.705-2.012-.636-.315-.576-.87-1.11-1.67-1.288l3.682 1.924z"/>
  <path fill="#000" d="M620.156 386.503c-3.388-1.601-7.081-2.027-10.798-1.817-1.99.112-3.966.393-5.934.698-1.19.187-2.375.383-3.565.566-.433.065-.865.133-1.298.19-1.257.167-1.891-.247-2.9-.942-3.271-2.251-7.058-3.943-10.64-5.639a168.136 168.136 0 00-11.8-5.022v.818c4.477-1.194 9.058-1.91 13.69-2.069 1.064-.037 2.251-.149 3.294.102 1.186.284 2.151 1.064 3.148 1.729a56.316 56.316 0 004.974 2.93c6.9 3.628 14.31 6.151 21.568 8.941.508.197.729-.624.224-.817-7.875-3.028-15.967-5.727-23.323-9.924-1.763-1.007-3.386-2.374-5.202-3.259-1.63-.794-3.565-.601-5.319-.522-4.49.199-8.936.915-13.28 2.071-.434.116-.369.675 0 .818a162.818 162.818 0 0112.168 5.211c1.911.916 3.806 1.869 5.679 2.855.935.495 1.874.991 2.795 1.512.862.486 1.549 1.171 2.362 1.686 1.267.799 2.66.363 4.08.149 2.233-.339 4.453-.739 6.696-1.004 4.378-.515 8.891-.44 12.948 1.471.497.231.928-.502.433-.732z"/>
  <path fill="#000" d="M620.794 387.371c.877-1.529 2.751-1.759 4.296-2.272 1.914-.633 3.825-1.278 5.737-1.918 3.825-1.279 7.647-2.561 11.474-3.839.514-.173.294-.99-.224-.817-4.463 1.492-8.926 2.983-13.385 4.479a426.798 426.798 0 01-5.768 1.889c-1.239.397-2.196.894-2.859 2.051-.275.474.454.901.729.427z"/>
  <path fill="#000" d="M594.928 375.049c3.679-2.041 7.604-3.57 11.714-4.482 2.08-.462 4.29-.923 6.428-.753 2.474.196 4.52 1.617 6.645 2.753 6.889 3.69 14.612 5.524 22.283 6.693.532.082.762-.735.224-.817-4.28-.651-8.532-1.506-12.673-2.773-4.27-1.306-8.089-3.225-12.023-5.282-3.632-1.903-7.228-1.503-11.115-.641-4.178.925-8.176 2.495-11.917 4.57-.471.264-.044.997.434.732zM619.772 386.907c-4.346.457-8.183 1.878-12.106 3.726-2.189 1.031-4.541 1.53-6.787 2.411-2.105.827-4.158 1.797-6.225 2.712-.498.221-.068.95.427.733 2.094-.929 4.175-1.923 6.316-2.744 1.857-.711 3.812-1.125 5.645-1.905 1.979-.841 3.849-1.881 5.889-2.587a30.867 30.867 0 016.841-1.499c.536-.058.543-.905 0-.847z"/>
  <path fill="#000" d="M567.431 381.098c2.354 1.069 4.906 1.618 7.245 2.723 2.391 1.129 4.56 2.703 6.739 4.188 2.338 1.59 4.672 3.18 7.011 4.773 1.999 1.361 4.087 2.489 6.127 3.771.464.292.887-.44.426-.733-2.04-1.282-4.13-2.41-6.126-3.77-2.339-1.591-4.673-3.18-7.011-4.774-2.182-1.485-4.351-3.044-6.74-4.187-2.339-1.116-4.89-1.654-7.244-2.723-.492-.224-.922.508-.427.732zM595.643 400.656c1.179-1.797 4.385-2.567 6.259-3.343 2.132-.885 4.273-1.75 6.425-2.587a331.54 331.54 0 0113.317-4.867.432.432 0 00.253-.623c-.386-.766-.718-1.559-1.105-2.329-.243-.489-.975-.058-.731.426.386.767.718 1.56 1.104 2.33l.255-.623a329.924 329.924 0 00-15.16 5.591 322.384 322.384 0 00-6.811 2.801c-1.637.691-3.515 1.241-4.535 2.797-.301.458.43.885.729.427z"/>
  <path fill="#000" d="M621.724 389.954c1.014-.437 2.237-.589 3.304-.824 2.098-.461 4.206-.878 6.316-1.28 4.698-.899 9.417-1.767 14.164-2.357.278-.035.475-.241.41-.537-.311-1.403-.474-2.833-.812-4.234-.129-.528-.946-.306-.817.224.338 1.4.505 2.828.813 4.234l.41-.535c-4.825.6-9.617 1.475-14.391 2.387a238.75 238.75 0 00-6.466 1.315c-1.107.245-2.307.425-3.357.879-.502.213-.068.942.426.728z"/>
  <path fill="#000" d="M625.026 385.059c6.502-1.343 13.069-2.351 19.571-3.693.533-.111.309-.929-.223-.817-6.503 1.342-13.07 2.349-19.572 3.693-.536.111-.309.928.224.817zM567.369 381.17a56.891 56.891 0 01-.359 3.804c-.017.133.091.312.21.366 5.025 2.211 9.698 5.08 14.266 8.108 4.229 2.803 8.413 6.299 13.473 7.425.302.067.624-.197.521-.523-.42-1.322-.036-2.841-.456-4.167-.164-.518-.984-.298-.817.224.42 1.323.037 2.841.457 4.167l.522-.521c-5.622-1.248-10.356-5.463-15.09-8.531-2.429-1.574-4.892-3.097-7.441-4.47-1.243-.672-2.71-1.159-3.877-1.939-.727-.489-.727-.448-.768-1.404-.034-.821.155-1.715.206-2.539.031-.546-.816-.546-.847 0z"/>
  <path fill="#000" d="M575.153 390.708a126.67 126.67 0 00-.166 6.343c0 .227.193.428.423.424 4.711-.095 9.776.587 14.391 1.502.533.106.759-.711.224-.817-2.352-.465-4.758-.712-7.137-.973-2.47-.271-4.99-.607-7.478-.556l.423.424c.004-2.116.059-4.232.167-6.344.026-.546-.821-.546-.847-.003zM596.474 400.086c7.769.268 15.56 1.211 23.13 3.008.528.125.755-.692.224-.818-7.642-1.813-15.513-2.766-23.354-3.038-.546-.016-.546.831 0 .848z"/>
  <path fill="#000" d="M619.045 395.119c.179 2.319.322 4.641.433 6.967.024.483.681.571.834.113.037-.116.078-.231.115-.346.173-.519-.644-.743-.817-.224-.037.116-.077.23-.114.346l.833.111a253.552 253.552 0 00-.434-6.967c-.044-.54-.891-.543-.85 0z"/>
  <path fill="#000" d="M620.261 402.734c4.344-3.692 9.162-6.737 13.914-9.863.453-.298.03-1.034-.428-.733-4.811 3.167-9.687 6.26-14.086 9.996-.413.356.186.953.6.6zM619.774 395.461c4.059-3.109 8.881-5.072 13.255-7.676.468-.278.044-1.011-.427-.733-4.374 2.604-9.196 4.568-13.256 7.677-.427.329-.007 1.065.428.732z"/>
  <path fill="#000" d="M608.818 394.553c3.44.166 6.855.647 10.261 1.129.531.074.762-.743.224-.817-3.484-.489-6.972-.987-10.488-1.16-.539-.024-.539.824.003.848zM619.309 405.745c.03 1.699.373 3.374.413 5.073.014.546.861.546.848 0-.041-1.699-.387-3.374-.414-5.073-.01-.542-.858-.546-.847 0z"/>
  <path fill="#000" d="M575.268 404.782c1.057-.248 3.501.448 4.771.645 3.429.531 6.856 1.101 10.277 1.671 7.737 1.291 15.462 2.625 23.195 3.93 2.196.369 4.395.786 6.604 1.071.54.068.535-.78 0-.847-5.561-.716-11.094-1.841-16.621-2.784-7.661-1.302-15.319-2.631-22.997-3.825-1.241-.193-2.481-.387-3.724-.549-.526-.068-1.197-.258-1.729-.132-.532.125-.308.946.224.82z"/>
  <path fill="#000" d="M620.648 411.899c2.717-2.94 5.71-5.591 8.773-8.161.417-.352-.183-.949-.6-.6-3.063 2.57-6.056 5.221-8.773 8.161-.369.4.227 1 .6.6z"/>
  <path fill="#000" d="M628.699 396.119c.041 2.39.104 4.784.06 7.174-.01.546.837.546.847 0 .048-2.39-.016-4.784-.06-7.174-.01-.543-.858-.546-.847 0zM575.596 404.362c-.016 1.356-.101 2.747-.027 4.099.078 1.388 1.061 1.401 2.298 1.726 4.487 1.184 9.088 1.79 13.625 2.726 10.216 2.105 20.28 4.899 30.51 6.968.139.027.315.011.414-.108 3.337-4.168 6.258-8.66 9.786-12.679.359-.406-.237-1.01-.6-.6-1.782 2.029-3.419 4.171-5.018 6.345-.85 1.156-1.691 2.315-2.552 3.465-.484.648-1.142 2.041-1.826 2.38-.688.34-1.186.136-1.919-.013a482.815 482.815 0 01-18.009-4.069c-5.974-1.472-11.928-2.835-17.994-3.886-2.263-.393-5.052-.658-7.166-1.608-.989-.443-.701-1.229-.695-2.186.004-.855.007-1.709.017-2.56.01-.546-.837-.549-.844 0z"/>
  <path fill="#000" d="M631.788 401.47c.164.831.066 1.763.031 2.604-.031.854-.024 1.763-.214 2.6-.121.533.695.757.818.224.206-.909.209-1.898.243-2.824.034-.923.119-1.916-.06-2.828-.102-.536-.919-.309-.818.224zM633.219 387.345c.135 1.64.274 3.284.41 4.926.044.539.891.546.847 0-.136-1.642-.275-3.286-.41-4.926-.043-.54-.891-.546-.847 0z"/>
  <path fill="#000" d="M629.41 401.107a20.4 20.4 0 002.522.749c.531.122.755-.695.223-.817a21.32 21.32 0 01-2.521-.749c-.512-.19-.732.627-.224.817zM620.22 405.546a192.063 192.063 0 008.929-8.474c.383-.39-.213-.987-.599-.6a194.116 194.116 0 01-8.93 8.474c-.41.361.193.963.6.6z"/>
  <path fill="#000" d="M574.627 397.865c7.529 1.702 15.062 3.411 22.653 4.828 7.336 1.37 14.754 2.242 22.13 3.353.532.082.763-.735.223-.816-7.377-1.113-14.793-1.984-22.129-3.354-7.591-1.416-15.124-3.126-22.653-4.828-.528-.119-.755.698-.224.817zM621.047 414.171c.295 1.702.522 3.411.68 5.134.051.538.899.543.849 0a67.88 67.88 0 00-.713-5.358c-.091-.539-.907-.312-.816.224z"/>
  <path fill="#000" d="M621.853 414.249c3.772-3.923 7.191-8.162 10.685-12.329.349-.414-.248-1.017-.6-.6-3.494 4.167-6.912 8.406-10.684 12.328-.38.394.22.994.599.601z"/>
  <path fill="#F8BAB4" d="M264.453 417.913c-31.601-12.167-58.332 11.892-73.552-13.837a82.325 82.325 0 01-2.92-5.352c4.192.627 8.772 1.578 13.858 2.927 14.387 3.819 39.367-5.136 49.371-13.708 11.05-9.471 16.623-19.915 17.482-35.775.94-17.32-4.939-38.46-13.842-55.853 4.459.503 9.466 2.278 14.901 5.86 64.6 42.585 27.464 128.353-5.298 115.738z"/>
  <path fill="#F8BAB4" d="M251.21 387.945c-10 8.573-34.984 17.526-49.371 13.706-5.083-1.351-9.662-2.302-13.857-2.925-22.441-45.139 39.598-39.586 45.681-59.402 4.265-13.891-2.49-20.343-.846-28.79 1.364-7.011 9.553-15.626 22.034-14.225 8.906 17.396 14.782 38.534 13.841 55.853-.862 15.863-6.432 26.311-17.482 35.783z"/>
  <path fill="#FFECDD" d="M232.124 310.7c-1.643 8.449 5.112 14.9.847 28.791-6.082 19.819-68.117 14.263-45.683 59.401-24.959-3.718-36.227 4.193-58.521 9.491C77.763 420.498-4.403 418.797.963 381.682c3.339-23.119 18.228-17.317 41.07-22.397 21.764-4.841 21.205-4.896 24.327-14.474 3.93-12.044 33.768-7.208 29.855-15.592-13.027-5.955 10.803-32.496 34.668-37.218 23.863-4.726 33.122-3.222 35.599-13.961 2.122-9.216-13.621-14.4-.874-23.924 13.66-10.205 48.81-1.286 68.668 15.481 7.205 6.086 14.168 15.713 19.885 26.882-12.487-1.406-20.672 7.211-22.037 14.221z"/>
  <path fill="#000" d="M267.605 293.167c.534 6.5 9.018 63.057 9.978 69.502 1.347 9.052 2.73 18.096 4.12 27.144.368 2.382.739 4.763 1.098 7.144.095.629 1.048.36.953-.26-2.252-15.008-11.901-80.056-14.052-95.079-.402-2.804-.876-5.624-1.109-8.451-.052-.629-1.04-.632-.988 0zM199.051 278.846c-3.82 31.3-8.837 62.433-13.168 93.665a1638.736 1638.736 0 00-3.531 27.034c-.075.628.913.623.988 0 3.819-31.299 8.837-62.432 13.167-93.665a1648.148 1648.148 0 003.532-27.034c.075-.628-.913-.624-.988 0zM206.862 278.451c-3.856 31.576-8.683 63.022-12.951 94.542a2126.177 2126.177 0 00-3.472 26.915c-.075.628.913.624.988 0 3.855-31.575 8.683-63.02 12.95-94.542a2119.132 2119.132 0 003.472-26.915c.08-.627-.912-.624-.987 0zM255.86 278.265c2.24 15.439 14.453 96.197 16.765 111.623.241 1.608.482 3.215.731 4.819.095.604.09 1.395.332 1.967.24.576 1.197.323.951-.261-.655-1.572-.616-3.815-.864-5.478-.629-4.166-1.245-8.337-1.857-12.504-1.395-9.486-12.97-88.597-14.35-98.087-.319-2.212-.435-.124-.756-2.335-.09-.632-1.042-.364-.952.256z"/>
  <path fill="#000" d="M273.882 397.246c.742 1.418 2.701 1.849 4.179 1.975 2.034.174 3.986-.375 5.685-1.477.534-.344.036-1.201-.498-.853-1.228.793-2.571 1.295-4.041 1.366-1.324.064-3.762-.158-4.472-1.508-.296-.565-1.146-.067-.853.497zM182.47 400.058c.419 1.457 2.572 1.367 3.776 1.394 1.51.036 3.616.265 4.765-.924.442-.458-.257-1.157-.699-.699-.779.806-6.53 1.216-6.89-.036-.174-.607-1.126-.347-.952.265zM199.496 339.277c21.809.754 43.651.339 65.459 1.089.782.028.782-.959 0-.987-21.808-.754-43.65-.339-65.459-1.09-.782-.024-.782.963 0 .988zM200.683 332.053c21.159.635 42.324 1.154 63.477 1.789.918.028.918-.96 0-.987-21.159-.637-42.323-1.154-63.477-1.789-.912-.028-.912.959 0 .987zM195.704 279.044c18.105-.15 36.214-.296 54.319-.521 3.392-.044 6.787-.044 10.175-.17.652-.024.657-1.012 0-.987-19.006.706-38.084.465-57.103.627-2.462.02-4.924.043-7.391.063-.656.005-.66.992 0 .988z"/>
  <path fill="#000" d="M196.305 278.491c-.248-.937-.537-1.975.067-2.832.506-.714 1.38-1.236 2.055-1.778.498-.395-.205-1.089-.699-.698-.885.707-2.078 1.398-2.509 2.504-.383.991-.13 2.073.13 3.061.17.62 1.123.358.956-.257z"/>
  <path stroke="#333" stroke-width="2" d="M277.646 86.831a4.034 4.034 0 01-.635.11c-1.235.19-2.385-.596-2.901-1.998l3.536 1.888zm0 0c1.099-.277 2.047-.927 2.603-1.713.279-.394.499-.881.526-1.418a2.006 2.006 0 00-.633-1.577l-2.496 4.708zm.482-5.344c.643-.069 1.412.068 2.014.636l-2.014-.636zm0 0c-.314-.575-.87-1.108-1.67-1.287l1.67 1.287zm-3.341-.898a1.936 1.936 0 011.671-.39l-1.671.39zm0 0c-.422.342-.675.817-.818 1.269l.818-1.27zm0 0l-.818 1.269.818-1.27zm-.818 1.269c-.287.904-.244 2.042.141 3.085l-.141-3.085z"/>
  <path fill="#F8BAB4" d="M239.308 146.454s-3.733.399-6.453-1.046c-4.14-2.192-6.911-6.786-6.911-6.786l-2.316 12.161s2.172 1.041 6.031.97c5.029-.094 9.415-3.689 9.415-3.689l.234-1.61z"/>
  <path fill="#FFECDD" d="M237.48 156.312l2.117 1.092.451 2.438s5.678.192 7.604-.097c1.925-.289 3.37-.481 3.37-.481l.868 2.533s3.463 1.156 6.256 2.885c2.792 1.734 5.423 4.33 6.257 7.025.832 2.693 2.886 9.433 3.816 15.462.931 6.029 3.915 20.433 4.043 22.456.127 2.022.319 5.452.319 5.452s-6.096 1.827-7.733 2.727c-1.636.897-4.011 2.533-4.011 2.533s-3.176-2.503-9.241-3.081c-6.066-.578-9.627-.386-14.988.995-5.359 1.381-5.839 2.375-6.481 2.214-.642-.162-2.024 2.532-2.152 4.554-.055.851.371 2.134.247 3.349-.025.259 8.978-4.104 10.623-3.115 0 0-12.905 5.363-31.02 31.86-5.658 8.277-4.655 15.484-8.021 15.544-4.022.072-14.984-4.147-19.102-12.484-4.178-8.469-2.817-21.667-3.225-21.901-2.007-1.155-2.858-7.146-3.087-8.922-.229-1.776-.68-15.705-.042-21.416.633-5.711 3.047-12.059 5.334-20.116 2.287-8.059 4.697-13.962 7.047-17.132 2.351-3.173 5.585-6.854 12.19-9.203 6.601-2.35 23.234-6.408 23.234-6.408s1.504 2.154 5.84 2.856c6.287 1.011 9.487-1.619 9.487-1.619z"/>
  <path fill="#000" d="M319.004 319.181a142.97 142.97 0 015.603 7.21c.607.833 1.198 1.678 1.797 2.515.247.349 1.071 1.147.6 1.101.713.072.722 1.202 0 1.13-.893-.089-1.693-1.823-2.126-2.431a146.93 146.93 0 00-6.677-8.722c-.455-.557.34-1.36.803-.803zM332.466 315.701a132.536 132.536 0 014.05 7.715c.399.829.973 3.009 1.76 3.544.595.408.029 1.39-.57.973-.872-.599-1.321-2.2-1.751-3.088-1.399-2.907-2.87-5.776-4.463-8.58-.362-.628.616-1.198.974-.564z"/>
  <path fill="#000" d="M326.239 342.865c-1.352-3.161-.401-6.875-.387-10.199.004-1.274.178-1.397 1.212-2.039 1.402-.875 2.723-1.81 4.318-2.333 1.861-.616 3.834-.803 5.738-1.223 1.474-.328 3.303-1.331 4.747-.438 2.597 1.606 1.82 5.804 3.124 8.137 1.306 2.333 3.091 4.478 4.578 6.696 2.117 3.158 4.183 6.37 5.955 9.736 1.615 3.063 3.719 6.641 3.154 10.243-.429 2.762-2.465 4.488-4.977 5.538-4.209 1.763-7.358-1.679-10.129-4.377-1.382-1.343-2.81-2.792-3.839-4.437-.394-.633.605-1.211.999-.581.544.87 1.242 1.657 1.926 2.414a40.74 40.74 0 002.376 2.4c1.382 1.291 3.149 3.221 4.964 3.807 2.916.943 6.993-1.89 7.52-4.75.637-3.446-1.577-7.011-3.133-9.934-2.606-4.891-5.78-9.472-8.93-14.023-.854-1.232-1.76-2.366-2.138-3.841-.357-1.376-.408-2.838-.902-4.181-.156-.434-.53-1.373-.892-1.606-.446-.289-1.989-.179-2.491-.099-.858.142-1.721.447-2.58.608-1.594.307-3.221.519-4.765 1.029-1.202.4-2.04 1.011-3.072 1.682-.345.225-.898.362-1.178.629-.982.943-.536 4.084-.625 5.409-.119 1.73-.276 3.519.426 5.155.289.67-.706 1.262-.999.578z"/>
  <path fill="#000" d="M335.223 335.862c2.067-.237 3.962-.978 5.679-2.146.617-.42 1.195.583.583.999-1.892 1.291-3.987 2.043-6.262 2.303-.738.085-.731-1.071 0-1.156zM337.804 338.972a11.22 11.22 0 004.599-2.528c.548-.497 1.369.314.816.816a12.56 12.56 0 01-5.109 2.825c-.719.2-1.024-.913-.306-1.113zM339.513 342.125c.77-.178 1.522-.412 2.239-.748.316-.145.621-.306.919-.48.124-.072.816-.408.85-.497.051.187.098.373.149.561a1.368 1.368 0 01-.073-.081c.188.051.374.098.562.149-.03.013-.056.026-.085.033-.685.285-.986-.832-.307-1.112.03-.013.056-.026.086-.035.174-.071.441.014.56.149.026.026.052.055.073.081.128.144.221.366.149.561-.272.723-1.258 1.139-1.9 1.475-.923.48-1.9.824-2.917 1.058-.726.165-1.032-.948-.305-1.114zM341.574 345.579a9.763 9.763 0 002.351-.403c.378-.115 1.971-.544 2.104-.96.05.186.097.374.149.56-.03-.034-.064-.064-.094-.097-.519-.536.298-1.355.816-.816.03.034.064.064.094.098.14.145.208.365.148.561-.263.85-1.351 1.185-2.108 1.486-1.109.443-2.27.659-3.46.727-.744.043-.74-1.113 0-1.156zM246.185 112.291c1.552 5.851 2.376 11.889 1.9 17.957-.412 5.26-1.725 11.769-6.163 15.101-4.085 3.068-9.402.999-12.909-2.095-2.04-1.797-3.506-4.121-4.918-6.416-.731-1.185-1.87-2.593-2.248-3.972-.183-.66.845-.945 1.024-.282.268.982 1.123 2.035 1.632 2.886 1.28 2.115 2.564 4.278 4.272 6.076a14.633 14.633 0 006.41 3.93c3.124.939 5.695-.153 7.842-2.507 1.747-1.911 2.521-5.017 3.141-7.49.664-2.652.965-5.384.96-8.116-.003-5.066-.671-9.901-1.971-14.788-.17-.663.854-.943 1.028-.284z"/>
  <path fill="#000" d="M235.044 139.215c2.377.521 4.773.037 6.726-1.431.477-.36.011-1.175-.473-.811-1.754 1.318-3.849 1.81-6.002 1.337-.59-.131-.841.773-.251.905zM238.73 125.591c.102 1.003.14 2.001.119 3.012l-.531-.531c1.258.064 2.873.94 2.235 2.435-.45 1.054-1.908 1.308-2.907 1.003-.65-.2-.374-1.224.28-1.025.362.112.804.124 1.161-.016.383-.154.752-.429.379-.952-.209-.294-.838-.37-1.148-.386-.282-.014-.541-.234-.532-.532a24.468 24.468 0 00-.119-3.012c-.068-.677.995-.672 1.063.004zM234.237 124.477c-1.539.672-3.235.582-4.65-.352-.569-.374-.038-1.296.535-.918 1.076.71 2.381.875 3.575.352.625-.271 1.165.647.54.918zM242.271 123.832c.901.289 2.239.305 3.005-.353.513-.446 1.271.302.752.752-1.059.913-2.75 1.041-4.042.629-.65-.213-.37-1.241.285-1.028zM221.863 155.954c-7.442 1.943-15.05 3.328-22.276 6.035-3.383 1.266-6.537 2.647-9.117 5.238-2.121 2.129-3.775 4.687-5.178 7.334-2.924 5.52-4.803 11.528-6.609 17.481-1.998 6.591-3.868 12.994-4.153 19.924-.183 4.402-.229 8.83.043 13.228.276 4.509.454 9.951 4.029 13.202.507.459-.247 1.211-.752.752-2.534-2.303-3.392-5.481-3.838-8.77-.596-4.377-.719-8.796-.667-13.207.085-7.589 1.024-14.561 3.221-21.823 1.929-6.378 3.779-12.824 6.597-18.883 2.418-5.205 5.78-10.661 11.063-13.354 8.507-4.335 18.21-5.806 27.357-8.189.658-.166.944.862.28 1.032z"/>
  <path fill="#000" d="M234.96 226.269c-10.231 3.73-19.735 9.204-30.11 12.569-8.633 2.8-18.38 4.551-26.889.45-.617-.298-.076-1.211.536-.918 8.883 4.279 19.203 1.861 28.061-1.227 9.627-3.357 18.545-8.41 28.121-11.898.642-.233.923.795.281 1.024z"/>
  <path fill="#000" d="M234.168 225.368c2.576-1.109 5.466-1.054 8.191-.608 1.595.264 3.176.689 4.659 1.339 1.355.595 2.966 1.937 4.522 1.024.591-.349 1.127.569.536.917-2.257 1.326-4.561-.692-6.605-1.406-3.265-1.143-7.49-1.759-10.762-.348-.626.268-1.165-.646-.541-.918z"/>
  <path fill="#000" d="M251.685 227.081c.65-.574.867-1.386 1.046-2.197.076-.336.497-.489.782-.319.884.531 1.764 1.075 2.656 1.594.357.22.722.424 1.096.62 1.31.832 2.369.332 3.176-1.501-.132-.25-.073-.577.191-.725.442-.252 1.658-.689 1.913-1.174.573-1.083-.791-1.873-1.432-2.306-1.437-.97-3.074-1.67-4.667-2.342-.621-.259-.35-1.292.28-1.024 2.159.909 5.436 1.959 6.763 4.091 1.185 1.904-.855 2.84-2.321 3.668l.192-.727c.743 1.441.076 2.953-1.501 3.421-2.397.71-4.999-1.547-6.882-2.682.259-.106.518-.212.782-.318-.221.985-.544 1.98-1.318 2.664-.518.459-1.27-.289-.756-.743z"/>
  <path fill="#000" d="M256.574 218.731c-4.208-.875-8.314-1.716-12.637-1.406-4.395.314-8.629 1.585-12.527 3.624-.603.314-1.143-.599-.534-.918 3.846-2.009 7.994-3.292 12.317-3.705 4.693-.446 9.1.429 13.665 1.381.667.14.387 1.164-.284 1.024z"/>
  <path fill="#000" d="M230.684 219.687c-1.765 2.567-2.682 5.635-2.173 8.745.112.667-.913.955-1.024.28-.557-3.399.345-6.747 2.278-9.564.383-.557 1.306-.026.919.539z"/>
  <path fill="#000" d="M230.157 219.862c-6.86-1.641-13.9-2.524-20.959-2.453-6.401.069-12.841 1.088-18.355 4.522-.582.36-1.117-.557-.534-.918 5.457-3.399 11.828-4.521 18.179-4.657 7.382-.158 14.779.764 21.953 2.478.664.161.383 1.184-.284 1.028zM220.937 125.552c-2.304-.858-2.639 2.932-2.329 4.182.174.696.484 1.377.884 1.976.111.161.217.323.328.484.445.892 1.096 1.113 1.951.663-.035-.684 1.028-.68 1.063 0 .058 1.227-1.038 1.691-2.104 1.364-1.459-.447-2.351-2.07-2.87-3.383-.854-2.179-.153-7.61 3.358-6.301.638.229.365 1.258-.281 1.015z"/>
  <path fill="#000" d="M255.137 124.362c.127-3.675-.344-7.355-1.224-10.924-.85-3.437-1.93-6.862-4.366-9.514-5.045-5.498-12.233-7.495-19.539-6.127-7.26 1.36-12.399 6.212-17.474 11.197-5.699 5.595-10.631 11.918-16.695 17.128-3.172 2.719-6.117 5.604-9.786 7.669-3.243 1.828-7.119 3.578-10.822 2.142.201-.259.401-.518.6-.782 2.929 6.361 6.929 11.893 12.701 15.93 4.233 2.957 8.892 5.222 12.968 8.422.536.42-.221 1.168-.752.752-4.382-3.442-9.488-5.77-13.934-9.114-5.363-4.033-9.113-9.404-11.901-15.458-.17-.371.123-.965.6-.782 4.313 1.673 9.227-1.305 12.696-3.732 3.507-2.446 6.754-5.557 9.899-8.459 3.231-2.979 5.908-6.51 8.935-9.688a204.446 204.446 0 018.306-8.248c4.832-4.525 10.481-7.89 17.221-8.37 6.768-.485 12.884 1.627 17.546 6.573 2.407 2.553 3.601 5.685 4.519 9.029 1.096 4.007 1.708 8.197 1.561 12.352-.022.688-1.084.688-1.059.004zM227.244 234.181c-4.909 4.262-9.286 9.174-13.185 14.37-4.029 5.371-7.808 11.252-9.945 17.66a29.528 29.528 0 00-1.037 3.99c-.204 1.078-.328 2.142-1.424 2.647-2.427 1.117-6.504-.094-8.828-.986-5.31-2.035-9.985-6.064-12.391-11.248-3.179-6.862-3.744-14.811-3.663-22.265.008-.683 1.071-.683 1.062 0-.132 12.242 1.663 26.371 14.176 32.026 2.49 1.126 9.291 3.581 10.043-.455.451-2.409 1.224-4.725 2.181-6.981 2.393-5.638 5.785-10.839 9.496-15.693 3.804-4.979 8.028-9.7 12.768-13.817.51-.443 1.267.305.747.752zM313.126 316.834c-10.563 3.646-20.517 9.484-28.666 17.15-.285.267-.786.166-.888-.234-3.405-13.64-9.55-26.68-15.327-39.448-5.445-12.042-11.506-23.923-15.344-36.611-.2-.654.829-.934 1.024-.28 3.953 13.066 10.27 25.265 15.837 37.685 5.573 12.438 11.523 25.108 14.835 38.37-.298-.077-.591-.158-.889-.234 8.289-7.797 18.387-13.712 29.133-17.421.651-.225.926.803.285 1.023z"/>
  <path fill="#000" d="M255.098 263.47c-4.416 2.494-8.853 4.976-13.639 6.705-5.407 1.955-11.162 2.949-16.904 3.106-4.595.127-9.236-.28-13.725-1.279-2.551-.565-5.338-1.249-7.579-2.655-.578-.366-.042-1.284.536-.918 2.163 1.359 4.858 2.001 7.323 2.549 4.404.977 8.939 1.364 13.445 1.245 5.521-.148 11.042-1.1 16.258-2.94 4.832-1.704 9.3-4.216 13.75-6.726.595-.34 1.131.578.535.913zM263.701 222.543c2.605.629 5.151 1.597 7.264 3.293 1.709 1.372 2.652 3.08 3.736 4.962 3.91 6.783 7.489 13.75 10.865 20.813 6.435 13.478 12.207 27.275 18.005 41.033 3.289 7.802 6.554 15.615 9.873 23.404.264.621-.65 1.165-.917.536-11.345-26.595-21.64-53.896-35.445-79.348-1.632-3.009-3.142-6.56-5.347-9.196-2.074-2.477-5.262-3.739-8.319-4.473-.663-.158-.383-1.182.285-1.024z"/>
  <path fill="#000" d="M260.734 219.398c6.275-3.556 14.567-7.104 21.733-4.024 2.767 1.191 4.701 3.281 6.397 5.706 2.274 3.255 4.226 6.719 6.291 10.105 10.49 17.179 18.66 35.492 27.309 53.624 4.71 9.867 9.784 19.596 16.424 28.325.213.276-.017.7-.319.781-7.676 2.036-15.182 4.704-22.863 6.739-.663.174-.943-.849-.28-1.023 7.676-2.035 15.183-4.705 22.863-6.74-.106.259-.213.519-.319.782-11.14-14.638-18.052-32-25.915-48.49-4.098-8.588-8.335-17.111-13.032-25.389-2.092-3.688-4.327-7.296-6.508-10.933-1.937-3.23-3.808-6.79-6.371-9.582-6.711-7.313-17.657-3.055-24.869 1.037-.6.335-1.135-.582-.541-.918zM245.14 112.94c-4.782-2.918-13.942-3.968-16.888 2.241-.994 2.094-1.003 4.537-2.099 6.649-.927 1.793-2.47 4.007-4.744 3.828-.676-.05-.685-1.113 0-1.062 3.511.273 4.786-5.651 5.365-8.171.475-2.09 1.627-3.57 3.374-4.848 4.467-3.272 11.064-2.273 15.527.45.582.353.047 1.275-.535.913zM237.462 62.614c-1.033 1.352-2.071 2.703-3.104 4.055-.127-.3-.258-.6-.386-.9 1.695-.158 3.22.146 4.743.897.235.116.362.5.2.724-1.279 1.754-2.805 3.166-4.67 4.273-.591.352-1.138-.56-.547-.911 1.701-1.011 3.13-2.287 4.297-3.886l.199.724c-1.355-.672-2.697-.897-4.204-.76-.514.05-.637-.578-.385-.9 1.033-1.351 2.071-2.703 3.104-4.054.405-.545 1.162.202.753.738zM180.074 88.032c-.926 1.999-1.379 4.048-1.356 6.252-.241-.147-.481-.29-.725-.435 1.773-.648 3.379-1.678 5.158-2.323.296-.108.72.076.726.435.033 2.757-1.22 5.351-2.36 7.801-.289.622-1.266.2-.977-.422 1.052-2.26 2.308-4.718 2.277-7.261.241.147.481.29.725.435-1.772.647-3.379 1.677-5.158 2.323-.295.107-.72-.076-.726-.435-.025-2.395.434-4.615 1.436-6.79.292-.624 1.269-.201.98.42zM316.02 325.091c.637 1.525.328 3.335-.025 4.903-.149.663-.655 1.55-.681 2.218-.042 1.16 1.118 1.814 1.964 2.392 3.639 2.482 6.823 5.478 10.256 8.239 3.83 3.076 8.051 5.702 11.817 8.838 2.363 1.968 3.609 4.985.634 7.024-.63.434-1.221-.591-.596-1.02 4.502-3.093-5.495-8.493-7.638-10.096a183.438 183.438 0 01-9.946-7.988c-1.467-1.262-2.861-2.498-4.479-3.556-.999-.65-2.287-1.365-2.913-2.427-.527-.896-.263-1.533.035-2.455.565-1.751 1.168-3.99.433-5.754-.293-.706.85-1.011 1.139-.318z"/>
  <path fill="#000" d="M296.068 331.511c1.088.434 2.789 1.249 3.987 1.139 1.794-.161 1.964-3.684 2.053-5.155.12-1.865.099-3.467 2.223-3.93 2.785-.603 5.428.051 8.169.357 1.476.166 2.908-.204 3.52 1.453.264.714-.88 1.024-1.139.315-.289-.782-1.875-.514-2.508-.599-1.535-.209-3.013-.549-4.574-.578-1.657-.03-3.77-.221-4.45 1.656-.331.923-.106 2.269-.259 3.273-.187 1.223-.45 3.832-1.853 4.38-1.509.587-4.118-.629-5.479-1.168-.701-.284-.395-1.428.31-1.143zM293.216 347.802c8.191 3.595 16.199 7.627 24.692 10.491 5.895 1.989 17.12 5.843 21.669-.612.433-.616 1.462-.026 1.02.595-4.578 6.497-14.736 3.743-20.963 1.818-9.348-2.889-18.082-7.35-27.016-11.272-.694-.306-.094-1.326.598-1.02z"/>
  <path fill="#000" d="M292.4 347.747c1.139-4.224 2.584-8.562 2.138-12.989-.136-1.331-.212-4.306 2.027-3.065.668.37.069 1.39-.594 1.021-.366-.204-.153 3.262-.149 3.514.012 1.223-.115 2.443-.302 3.65-.429 2.77-1.249 5.476-1.976 8.179-.2.739-1.343.424-1.144-.31z"/>
  <path fill="#000" d="M294.168 344.955c7.061 3.778 14.418 6.965 22.022 9.467a137.945 137.945 0 0011.247 3.178c3.821.906 8.054 2.07 11.761.192.676-.345 1.275.675.595 1.019-3.094 1.569-6.426 1.262-9.725.587-4.289-.876-8.536-2.039-12.709-3.357-8.224-2.605-16.181-5.995-23.79-10.067-.667-.356-.073-1.38.599-1.019zM309.062 333.244c.931.174 1.875.238 2.819.17.624-.046 1.398-.374 1.967-.003.208.135.361.416.272.666-.101.289-.242.459-.548.527-.229.055-.561-.03-.667-.272a.6.6 0 00-.03-.063c-.302-.688.718-1.292 1.02-.596.009.022.017.043.03.064-.222-.089-.447-.183-.667-.271l.106-.027-.413.413c.013-.03.021-.06.034-.094l.273.668c-.124-.081-.864.123-1.038.14a11.85 11.85 0 01-1.16.055 13.055 13.055 0 01-2.303-.237c-.757-.14-.443-1.28.305-1.14zM309.381 335.004a16.67 16.67 0 005.156.135c.752-.092.748 1.089 0 1.182-1.84.229-3.651.162-5.471-.175-.744-.14-.428-1.283.315-1.142zM311.191 337.293c2.419.519 4.846.642 7.302.392.681-.068.779.982.158 1.159-.2.06-.396.115-.595.175-.731.212-1.046-.926-.315-1.139.2-.059.396-.114.596-.174.051.387.106.773.156 1.16-2.567.26-5.095.106-7.616-.433-.744-.162-.426-1.301.314-1.14zM315.344 340.162c1.982.527 3.971.65 6.002.386.752-.097.744 1.088 0 1.182a16.133 16.133 0 01-6.316-.429c-.736-.196-.425-1.335.314-1.139zM318.898 342.814c1.538.212 3.081.173 4.612-.098.744-.131 1.063 1.007.314 1.138a16.422 16.422 0 01-5.24.098c-.753-.102-.435-1.24.314-1.138zM322.107 345.086l3.999.064c.761.014.761 1.195 0 1.182l-3.999-.064c-.761-.012-.765-1.194 0-1.182zM355.405 366.341c-2.406 2.184-5.36 4.092-8.501 2.435-3.706-1.954-7.09-4.666-10.09-7.568-.536-.518.28-1.334.816-.816 2.257 2.188 4.692 4.164 7.336 5.873 1.475.951 3.29 2.404 5.138 1.993 1.637-.362 3.295-1.654 4.485-2.733.544-.501 1.364.31.816.816zM296.77 332.463a32.185 32.185 0 00-2.499-6.625c-.336-.662.659-1.245.999-.582a33.674 33.674 0 012.617 6.901c.183.718-.935 1.028-1.117.306zM309.321 324.309c-.803-1.819-1.432-3.714-2.239-5.532-.298-.676.697-1.263.999-.583.802 1.819 1.432 3.714 2.239 5.532.298.676-.697 1.263-.999.583zM202.456 187.997c.319 5.019.247 9.99-.905 14.902-1.183 5.043-2.776 9.959-3.821 15.038-.137.667-1.161.386-1.025-.282 1.011-4.923 2.52-9.695 3.711-14.574 1.211-4.976 1.3-9.989.977-15.084-.046-.684 1.017-.684 1.063 0z"/>
  <path fill="#F8BAB4" d="M229.641 129.55c-.933-.254-1.555-.955-1.389-1.566.167-.612 1.058-.902 1.991-.648.934.254 1.554.955 1.388 1.566-.166.613-1.058.902-1.99.648zM243.339 129.014c-.203-.6.374-1.338 1.29-1.649.916-.311 1.823-.076 2.027.524.204.6-.374 1.338-1.289 1.649-.916.311-1.824.076-2.028-.524z"/>
  <path fill="#000" d="M226.433 139.137a141.087 141.087 0 01-3.898 16.346c-.195.654-1.224.374-1.025-.28a140.694 140.694 0 003.898-16.347c.12-.675 1.144-.39 1.025.281zM240.094 146.789c-1.038 3.06-1.781 6.187-2.406 9.353-.131.671-1.156.387-1.024-.281.625-3.165 1.368-6.292 2.406-9.352.216-.645 1.245-.37 1.024.28zM246.811 159.005c-.66-2.446-1.259-4.924-1.982-7.355-.195-.658.829-.939 1.024-.28.724 2.431 1.323 4.903 1.982 7.355.174.658-.85.943-1.024.28z"/>
  <path fill="#000" d="M244.706 151.421c1.063-1.7 2.589-2.843 4.131-4.091 2.095-1.7 3.409-3.629 3.919-6.324 1.046-5.566.459-11.744-.339-17.307.259.107.518.213.781.319-2.21 1.033-1.84 5.545-2.048 7.585-.273 2.621-.541 5.248-.812 7.87-.068.67-1.135.679-1.063 0 .383-3.727.77-7.458 1.152-11.184.196-1.913.251-4.262 2.236-5.189.272-.126.726-.05.781.319.809 5.6 1.306 11.587.451 17.213-.344 2.266-1.113 4.365-2.716 6.042-1.785 1.874-4.143 3.039-5.546 5.286-.375.574-1.292.043-.927-.539z"/>
  <path fill="#000" d="M250.673 130.409c-2.252 2.597-2.226 6.259-3.77 9.229-1.499 2.886-4.067 4.93-5.959 7.525-1.725 2.358-1.236 4.916-.795 7.666.226 1.389.52 2.838.536 4.253.009.684-1.054.684-1.063 0-.046-3.803-2.311-8.443.022-11.91 1.912-2.847 4.756-4.989 6.346-8.069 1.594-3.089 1.581-6.735 3.936-9.446.446-.519 1.194.238.747.752zM237.395 157.135c-4.769 2.546-10.55 2.168-14.902-1.065-.544-.404-.013-1.326.536-.919 4.041 3.005 9.376 3.447 13.831 1.067.603-.322 1.139.595.535.917zM252.722 123.933c.434-.713.88-1.134 1.662-1.478.277-.123.719-.055.782.319 1.054 6.534.565 13.095-1.496 19.392-.212.647-1.237.37-1.024-.28 1.997-6.102 2.52-12.484 1.496-18.828l.782.319c-.565.175-.99.54-1.279 1.097-.362.581-1.28.046-.923-.541z"/>
  <path fill="#000" d="M251.031 159.75a39.008 39.008 0 01-11.306.675c-.676-.06-.685-1.122 0-1.062 3.71.318 7.37.114 11.021-.638.672-.14.956.883.285 1.025z"/>
  <path fill="#000" d="M239.869 159.996c-.731 8.961.267 18.194.99 27.122.778 9.594 1.683 19.206 3.018 28.741.093.667-.931.956-1.024.28-1.322-9.441-2.232-18.95-3.01-28.452-.748-9.114-1.781-18.543-1.032-27.691.05-.68 1.113-.684 1.058 0zM251.711 159.257c6.371 18.364 14.728 36.049 17.86 55.386.106.667-.914.956-1.024.281-3.133-19.338-11.489-37.027-17.86-55.387-.227-.647.798-.922 1.024-.28zM238.888 157.803c-.609-.34-1.217-.675-1.829-1.015-.598-.332-.063-1.25.536-.919.608.341 1.216.676 1.828 1.016.599.335.064 1.254-.535.918z"/>
  <path fill="#000" d="M252.569 161.168c2.644 1.823 5.845 2.563 8.332 4.733 3.889 3.395 5.521 8.945 6.234 13.836 1.705 11.672 5.501 22.928 5.973 34.787.025.685-1.037.685-1.063 0-.446-11.243-3.906-21.925-5.696-32.964-.85-5.244-1.925-11.205-6.201-14.911-2.423-2.099-5.547-2.799-8.118-4.568-.553-.381-.026-1.303.539-.913zM204.105 209.897c.102.421.03.803-.288 1.118-.171.166-.383.203-.566.327-.314.102-.548.323-.697.663a.968.968 0 01.094.369c.042.422-.145.688-.493.906-.646.403-1.148.641-1.416 1.431-.217.647-1.245.37-1.024-.28.169-.502.408-.96.781-1.339.183-.182.396-.348.617-.48.11-.072.225-.131.344-.178.187-.026.208-.072.068-.145.064-.497-.106-.815.247-1.283.131-.174 1.313-.79 1.305-.82-.158-.671.866-.955 1.028-.289zM206.132 204.067c.162-.353-1.24-.454-1.462-.633-.411-.326-.34-.918-.734-1.198-.408-.289-.953-.017-1.407-.31-.557-.362-.745-1.088-1.293-1.495-.543-.404-.013-1.326.536-.918.306.229.582.454.821.755.161.2.271.472.475.626.256.191.332.127.637.122.673-.007 1.173.204 1.416.872.043.11.039.36.106.445.302.371.391.09.723.162.285.064.54.111.778.297.591.463.6 1.181.314 1.807-.271.629-1.185.089-.91-.532zM193.062 216.593c.162-.352-1.241-.454-1.462-.633-.411-.326-.34-.918-.735-1.198-.408-.289-.952-.016-1.407-.31-.556-.362-.744-1.087-1.292-1.495-.544-.404-.013-1.326.536-.918.305.229.582.454.82.757.161.199.272.47.476.624.255.191.332.127.637.123.672-.008 1.173.203 1.416.871.043.11.038.361.106.446.302.37.391.09.723.161.285.064.539.111.777.298.592.464.6 1.182.315 1.806-.272.629-1.19.089-.91-.532zM182.466 221.225c.161-.352-1.241-.455-1.462-.633-.412-.327-.341-.918-.735-1.198-.408-.289-.953-.017-1.407-.31-.557-.362-.745-1.088-1.293-1.496-.543-.404-.012-1.326.536-.918.306.23.582.455.82.756.161.2.272.472.476.625.256.191.332.127.638.123.672-.008 1.172.204 1.415.871.043.111.039.362.107.447.301.37.39.088.722.161.285.064.539.11.778.298.591.463.599 1.181.315 1.806-.272.624-1.191.084-.91-.532zM198.078 195.778c.247 1.04-.552 1.304-1.267 1.784-.441.297-.305.697-.509 1.148-.234.522-1.217 1.159-1.059 1.767.17.663-.854.943-1.024.28-.34-1.308.956-1.707 1.173-2.829.076-.387.106-.672.404-.965.212-.208 1.331-.608 1.258-.905-.157-.663.866-.943 1.024-.28zM183.963 196.253c.245 1.042-.553 1.305-1.267 1.785-.443.297-.306.697-.51 1.147-.234.523-1.216 1.161-1.058 1.767.169.663-.855.944-1.025.282-.341-1.31.956-1.709 1.173-2.831.076-.386.106-.672.404-.964.213-.208 1.33-.608 1.258-.905-.158-.663.867-.944 1.025-.281zM207.362 192.127c.408-.806-.49-1.393-1.174-.943-.183.119-.501.089-.641-.085-.183-.221-.298-.408-.319-.705-.043-.54.207-.74-.366-1.041-.663-.353-1.318-.672-1.263-1.53.043-.68 1.105-.684 1.063 0-.029.463 1.156.773 1.428 1.139.128.17.2.352.234.565.025.166-.119.705-.025.82-.213-.03-.429-.056-.642-.085 1.671-1.097 3.498.667 2.627 2.397-.31.616-1.229.08-.922-.532zM192.361 206.12c.162-.353-1.241-.454-1.462-.633-.413-.328-.34-.918-.736-1.198-.408-.289-.952-.018-1.406-.311-.557-.361-.744-1.088-1.292-1.496-.545-.404-.014-1.326.535-.918.306.23.583.455.82.757.162.2.272.472.476.624.255.192.332.128.638.124.671-.009 1.173.204 1.416.871.041.111.038.361.105.446.303.37.392.089.723.161.285.064.54.111.778.298.591.463.599 1.181.314 1.806-.272.628-1.189.089-.909-.531zM190.55 193.198c.409-.807-.488-1.393-1.172-.943-.183.119-.502.089-.642-.085-.183-.221-.298-.408-.32-.706-.042-.539.209-.739-.365-1.04-.662-.353-1.317-.672-1.262-1.53.043-.681 1.105-.684 1.063 0-.03.463 1.155.773 1.428 1.138.128.17.199.353.234.566.025.166-.12.705-.026.82-.213-.03-.43-.055-.642-.085 1.671-1.097 3.498.667 2.627 2.397-.314.615-1.233.08-.923-.532zM199.987 186.2l-.027.633c-.007.23-.156.459-.39.515-.374.089-.923-.085-1.242.034-.484.182-.301 1.019-.513 1.414-.154.284-.396.497-.727.544-.387.059-1.331-.582-1.267.171.055.679-1.008.675-1.063 0a1.383 1.383 0 01.685-1.319c.213-.122.484-.186.726-.169.294.022.608.318.757.017.102-.208-.026-.625.051-.876.077-.246.233-.467.446-.62.57-.403 1.237-.072 1.863-.221-.133.171-.261.341-.392.515l.026-.633c.029-.685 1.092-.689 1.067-.005zM190.202 177.004l-.026.633c-.009.23-.156.46-.39.516-.375.088-.923-.085-1.242.033-.484.183-.302 1.02-.514 1.415-.153.284-.395.497-.727.544-.386.059-1.33-.582-1.266.17.055.68-1.008.676-1.063 0a1.38 1.38 0 01.685-1.317 1.31 1.31 0 01.726-.17c.293.021.608.318.757.017.101-.208-.026-.625.05-.875.078-.246.234-.468.447-.62.569-.404 1.237-.073 1.861-.222-.131.17-.259.34-.39.514l.025-.633c.034-.689 1.096-.693 1.067-.005zM213.72 179.567l-.025.633c-.009.229-.158.459-.392.514-.374.089-.922-.085-1.24.034-.486.183-.303 1.02-.515 1.415-.153.285-.395.498-.727.544-.387.06-1.33-.582-1.266.17.055.679-1.008.676-1.063 0a1.379 1.379 0 01.684-1.317c.212-.124.485-.188.727-.17.294.021.608.319.757.017.101-.208-.025-.625.051-.875.076-.247.233-.468.446-.621.569-.404 1.236-.072 1.862-.221-.132.17-.26.34-.392.514l.027-.633c.029-.688 1.091-.688 1.066-.004zM197.5 165.77l-.025.633c-.009.23-.158.459-.391.514-.374.09-.922-.085-1.241.034-.485.183-.302 1.021-.515 1.416-.153.284-.395.497-.727.543-.387.06-1.329-.582-1.267.17.055.68-1.006.676-1.062 0a1.378 1.378 0 01.684-1.317c.213-.123.485-.187.727-.17.293.021.609.319.757.017.102-.209-.026-.624.051-.875.076-.247.234-.468.447-.621.569-.404 1.236-.072 1.861-.22-.132.169-.259.339-.391.514l.025-.634c.034-.688 1.097-.692 1.067-.004zM211.382 161.406c-.009.213-.018.421-.025.634-.009.229-.158.458-.392.514-.373.089-.922-.085-1.24.034-.485.182-.302 1.019-.515 1.415-.153.285-.395.496-.727.544-.387.059-1.331-.583-1.267.17.055.679-1.007.675-1.062 0a1.376 1.376 0 01.684-1.317 1.31 1.31 0 01.727-.17c.293.021.608.317.756.016.103-.208-.025-.624.052-.876.076-.246.234-.466.445-.619.57-.404 1.238-.073 1.863-.221-.132.17-.259.34-.392.514l.026-.633c.034-.684 1.097-.688 1.067-.005zM228.06 173.81c-.007.212-.016.42-.025.633-.009.23-.157.459-.39.514-.375.089-.923-.085-1.242.033-.484.183-.302 1.021-.514 1.415-.153.285-.396.498-.728.544-.386.06-1.329-.581-1.266.17.056.681-1.007.676-1.062 0a1.38 1.38 0 01.684-1.317 1.34 1.34 0 01.727-.17c.293.021.608.319.756.018.102-.209-.025-.626.051-.876a1.21 1.21 0 01.447-.62c.569-.404 1.237-.073 1.861-.222-.131.17-.259.34-.39.514.007-.211.016-.42.025-.633.034-.688 1.096-.688 1.066-.003zM225.447 160.094c-.009.212-.018.42-.025.632-.009.229-.158.46-.392.515-.374.088-.922-.085-1.241.033-.485.183-.301 1.02-.514 1.415-.154.285-.395.498-.727.544-.387.06-1.331-.581-1.267.17.055.68-1.007.676-1.062 0a1.378 1.378 0 01.684-1.317c.213-.124.485-.187.726-.17.294.021.608.319.757.018.102-.209-.025-.626.052-.876.076-.246.234-.468.445-.62.57-.404 1.237-.073 1.863-.222-.133.17-.259.34-.392.514l.026-.633c.029-.684 1.097-.688 1.067-.003zM207.331 176.733c.247-.505.056-1.131-.399-1.449-.408-.285-.812-.127-1.263-.175-.569-.055-.972-.377-1.1-.943-.069-.301.034-.585.013-.883-.039-.565-.167-.443-.672-.459-.604-.021-1.11-.273-1.246-.888-.149-.667.876-.952 1.025-.28.043.186.994.067 1.185.131.311.106.536.301.668.599.149.328.111.667.09 1.016-.052.748.233.578.862.62 1.581.11 2.415 1.887 1.751 3.238-.298.62-1.215.085-.914-.527zM219.284 172.182c.246-.505.055-1.13-.4-1.448-.408-.286-.812-.128-1.262-.175-.57-.055-.973-.378-1.101-.944-.068-.301.034-.586.013-.883-.039-.565-.165-.442-.672-.459-.604-.021-1.109-.272-1.246-.888-.149-.667.876-.952 1.025-.28.043.186.994.067 1.186.131.31.107.535.302.667.599.149.327.111.667.09 1.016-.051.748.233.578.862.62 1.581.111 2.415 1.887 1.752 3.238-.298.624-1.216.085-.914-.527zM233.765 171.707c.247-.507.055-1.131-.4-1.45-.408-.284-.811-.128-1.262-.174-.569-.055-.974-.378-1.101-.943-.068-.302.035-.587.013-.884-.038-.566-.166-.442-.672-.459-.603-.022-1.109-.272-1.245-.889-.149-.666.876-.95 1.024-.28.042.188.995.069 1.186.133.311.105.536.301.667.598.149.327.111.668.089 1.015-.05.748.234.578.864.621 1.581.111 2.413 1.886 1.751 3.238-.298.624-1.215.085-.914-.526zM236.6 182.788c.247-.506.056-1.13-.4-1.449-.408-.285-.811-.128-1.262-.174-.569-.055-.973-.378-1.101-.944-.068-.301.035-.586.013-.884-.038-.564-.166-.441-.672-.459-.603-.021-1.109-.271-1.245-.888-.149-.667.876-.951 1.024-.28.043.187.995.068 1.186.132.311.107.536.302.668.599.149.327.11.667.089 1.015-.051.748.234.578.863.62 1.581.112 2.415 1.888 1.751 3.239-.298.624-1.215.085-.914-.527zM227.245 201.178l-.026.634c-.008.229-.157.458-.39.514-.374.089-.923-.085-1.242.034-.484.182-.301 1.019-.514 1.414-.153.284-.396.497-.726.544-.388.059-1.331-.582-1.267.171.055.679-1.008.675-1.063 0a1.383 1.383 0 01.684-1.319c.213-.122.484-.186.727-.169.293.022.608.318.756.017.103-.208-.025-.625.052-.876.076-.246.234-.467.446-.619.57-.404 1.237-.073 1.862-.222-.132.17-.26.341-.391.514l.025-.632c.034-.69 1.097-.693 1.067-.005zM224.418 183.634l-.025.633c-.009.229-.158.459-.392.514-.373.089-.921-.085-1.24.034-.485.182-.302 1.019-.515 1.415-.152.285-.395.496-.727.544-.387.059-1.33-.582-1.267.17.056.679-1.007.675-1.062 0a1.38 1.38 0 01.684-1.318c.213-.123.485-.187.728-.17.293.022.607.319.756.017.102-.208-.025-.624.051-.875.076-.246.234-.467.447-.62.569-.404 1.236-.073 1.861-.221-.131.17-.259.34-.392.514l.027-.633c.033-.685 1.096-.688 1.066-.004zM216.495 200.931l-.025.633c-.009.23-.158.459-.391.514-.374.09-.922-.084-1.241.035-.485.183-.302 1.02-.515 1.415-.152.284-.395.497-.727.544-.387.059-1.329-.583-1.266.17.056.679-1.007.676-1.063 0a1.381 1.381 0 01.684-1.318c.213-.123.485-.187.728-.169.293.021.607.318.756.016.102-.208-.025-.624.051-.875a1.21 1.21 0 01.447-.621c.569-.403 1.236-.071 1.861-.22-.131.17-.259.34-.391.514l.026-.633c.033-.684 1.096-.689 1.066-.005zM232.766 209.651l-.026.633c-.007.229-.156.459-.39.514-.375.089-.923-.085-1.242.034-.484.183-.302 1.019-.514 1.415-.153.285-.395.497-.726.544-.387.06-1.331-.582-1.267.17.055.679-1.008.675-1.063 0a1.38 1.38 0 01.684-1.317 1.31 1.31 0 01.727-.17c.293.021.608.318.757.017.102-.209-.026-.625.05-.876.078-.246.234-.467.447-.62.57-.404 1.237-.072 1.861-.221-.131.17-.259.34-.39.514l.025-.633c.034-.684 1.096-.688 1.067-.004zM222.905 196.168c.247-.506.055-1.13-.399-1.449-.408-.285-.813-.127-1.262-.174-.571-.055-.974-.379-1.101-.943-.068-.301.033-.587.012-.884-.038-.566-.165-.442-.671-.459-.604-.021-1.11-.272-1.245-.888-.149-.667.875-.952 1.024-.281.042.188.995.068 1.186.132.309.106.535.302.667.599.148.328.11.668.089 1.016-.051.748.234.578.863.62 1.582.11 2.414 1.887 1.751 3.239-.297.624-1.211.085-.914-.528zM233.407 191.328c.247-.505.057-1.129-.399-1.448-.408-.285-.811-.128-1.262-.174-.569-.055-.973-.379-1.101-.943-.068-.303.034-.587.012-.885-.037-.565-.165-.441-.671-.459-.603-.021-1.11-.271-1.245-.888-.149-.667.875-.952 1.024-.28.043.187.995.068 1.186.131.311.107.535.303.668.6.149.327.11.667.089 1.015-.052.748.234.578.862.621 1.582.11 2.415 1.886 1.751 3.238-.297.624-1.215.085-.914-.528zM246.882 171.655l-.025.633c-.009.229-.158.459-.392.515-.373.088-.921-.086-1.241.033-.484.183-.301 1.02-.514 1.415-.153.285-.395.498-.727.544-.387.06-1.331-.582-1.267.17.055.68-1.006.676-1.062 0a1.378 1.378 0 01.684-1.317c.213-.124.485-.187.727-.17.293.021.607.319.756.017.103-.208-.025-.625.052-.875a1.21 1.21 0 01.446-.621c.57-.404 1.237-.072 1.862-.221-.132.17-.259.34-.392.514l.026-.633c.034-.684 1.097-.688 1.067-.004zM252.587 169.557c.245-.507.055-1.131-.401-1.45-.408-.284-.811-.128-1.262-.174-.569-.055-.973-.378-1.101-.943-.068-.302.034-.587.013-.884-.038-.565-.166-.442-.671-.458-.604-.022-1.109-.273-1.246-.889-.149-.667.875-.951 1.024-.281.043.188.995.069 1.187.133.31.106.535.301.667.599.149.326.11.667.089 1.014-.052.748.234.578.862.621 1.582.111 2.415 1.887 1.752 3.238-.298.621-1.216.085-.913-.526zM255.422 180.638c.245-.505.055-1.131-.401-1.45-.408-.284-.811-.126-1.261-.174-.57-.055-.974-.377-1.102-.943-.067-.301.034-.586.013-.884-.038-.564-.165-.442-.671-.458-.604-.021-1.109-.273-1.246-.888-.149-.668.875-.952 1.024-.28.043.186.995.067 1.187.131.31.106.536.302.667.599.149.327.11.667.089 1.016-.051.747.234.578.862.62 1.582.11 2.415 1.887 1.753 3.238-.298.624-1.212.085-.914-.527zM245.594 181.062l-.025.634c-.009.229-.158.458-.392.514-.373.089-.921-.085-1.241.034-.484.183-.301 1.02-.514 1.415-.153.285-.395.497-.727.544-.387.059-1.331-.583-1.267.17.055.679-1.006.676-1.062 0a1.377 1.377 0 01.684-1.317 1.31 1.31 0 01.727-.17c.293.021.607.319.756.016.103-.208-.025-.624.052-.874.076-.248.234-.468.446-.621.57-.404 1.237-.072 1.862-.221-.132.17-.259.34-.391.514l.025-.633c.034-.684 1.097-.688 1.067-.005zM247.563 202.805l-.026.634c-.009.229-.157.458-.391.514-.374.089-.922-.085-1.241.034-.485.183-.302 1.019-.515 1.415-.153.284-.394.496-.726.544-.387.059-1.331-.583-1.267.17.055.679-1.007.675-1.062 0a1.376 1.376 0 01.683-1.317c.213-.124.486-.188.727-.17.293.021.609.318.758.016.101-.208-.027-.624.05-.876.076-.246.234-.466.447-.62.569-.403 1.236-.071 1.861-.22-.132.17-.259.34-.391.514.009-.213.018-.42.025-.633.034-.684 1.097-.689 1.068-.005zM252.229 189.179c.246-.506.055-1.131-.4-1.45-.408-.284-.812-.127-1.262-.174-.57-.055-.973-.377-1.101-.943-.067-.301.034-.586.013-.884-.038-.565-.165-.442-.671-.459-.605-.021-1.11-.272-1.246-.888-.148-.667.875-.951 1.024-.28.043.187.995.068 1.186.132.31.105.536.301.668.598.148.328.11.668.089 1.016-.051.748.234.578.862.62 1.581.111 2.415 1.888 1.752 3.239-.297.624-1.216.085-.914-.527zM246.967 197.618c.246-.506.055-1.131-.4-1.45-.408-.284-.812-.128-1.262-.174-.57-.055-.973-.378-1.101-.943-.067-.302.034-.587.013-.883-.039-.566-.165-.443-.671-.459-.604-.022-1.11-.273-1.247-.889-.147-.667.877-.952 1.025-.281.043.188.995.069 1.186.133.31.106.536.301.667.599.149.326.111.667.09 1.015-.051.747.234.578.862.621 1.581.11 2.415 1.886 1.752 3.237-.297.625-1.212.085-.914-.526zM259.128 191.617l-.026.633c-.009.23-.157.459-.391.514-.374.09-.923-.084-1.242.035-.484.183-.301 1.02-.514 1.415-.153.284-.395.496-.726.544-.387.059-1.331-.583-1.267.17.055.679-1.007.675-1.062 0a1.38 1.38 0 01.683-1.318 1.32 1.32 0 01.727-.169c.293.021.608.318.757.016.102-.208-.026-.624.051-.875a1.22 1.22 0 01.446-.621c.57-.403 1.237-.071 1.862-.22-.132.17-.259.34-.391.514l.025-.633c.034-.684 1.097-.689 1.068-.005z"/>
  <path fill="#000" d="M262.864 172.131l-.026.633c-.007.23-.156.459-.39.514-.375.09-.923-.085-1.242.035-.484.182-.302 1.019-.514 1.415-.153.284-.395.496-.726.544-.387.059-1.331-.583-1.267.169.055.68-1.008.675-1.063 0a1.38 1.38 0 01.684-1.317c.213-.123.485-.187.727-.171.293.022.608.319.757.018.102-.208-.026-.624.05-.876.078-.246.234-.466.447-.62.57-.403 1.237-.072 1.861-.22-.131.17-.259.339-.39.514l.025-.633c.034-.685 1.096-.689 1.067-.005zM257.84 201.025l-.026.633c-.008.23-.157.459-.391.514-.374.09-.922-.085-1.241.034-.485.184-.302 1.02-.515 1.416-.153.284-.394.496-.726.543-.387.06-1.33-.582-1.267.17.055.68-1.007.675-1.062 0a1.378 1.378 0 01.684-1.317c.212-.123.485-.187.726-.17.294.021.609.319.758.017.101-.209-.027-.624.05-.876.077-.246.234-.466.447-.62.569-.404 1.236-.071 1.861-.22-.132.169-.259.339-.391.514.009-.213.018-.422.025-.634.03-.683 1.093-.688 1.068-.004zM251.107 210.548l-.026.633c-.009.229-.157.459-.391.514-.374.089-.922-.085-1.241.034-.484.182-.302 1.019-.514 1.415-.153.285-.395.496-.727.544-.386.059-1.33-.583-1.266.17.055.679-1.008.675-1.063 0a1.379 1.379 0 01.685-1.317c.211-.124.484-.188.726-.171.294.022.608.319.757.017.101-.208-.026-.624.05-.875.078-.246.234-.467.447-.62.569-.404 1.237-.073 1.861-.221-.131.17-.259.34-.39.514l.025-.633c.035-.685 1.096-.688 1.067-.004zM259.213 217.579c.247-.505.055-1.129-.4-1.448-.408-.286-.811-.128-1.262-.174-.569-.055-.974-.379-1.101-.944-.068-.302.035-.586.012-.884-.037-.565-.165-.441-.671-.459-.603-.021-1.109-.271-1.245-.888-.149-.667.876-.952 1.024-.28.042.187.995.067 1.186.131.311.107.536.303.667.599.149.328.111.668.089 1.016-.05.748.234.578.864.62 1.581.112 2.413 1.887 1.751 3.239-.298.619-1.215.085-.914-.528zM264.016 209.97c.246-.507.055-1.131-.4-1.45-.408-.284-.812-.127-1.262-.174-.57-.055-.974-.378-1.101-.943-.068-.301.034-.586.013-.884-.039-.564-.166-.442-.672-.459-.603-.021-1.109-.272-1.246-.888-.148-.667.877-.951 1.025-.28.043.187.994.068 1.186.132.31.105.536.301.667.599.149.327.111.667.09 1.015-.051.748.233.578.862.62 1.581.111 2.415 1.888 1.752 3.239-.298.624-1.212.085-.914-.527zM265.355 186.612c.247-.505.055-1.13-.4-1.449-.408-.284-.811-.127-1.262-.174-.57-.055-.974-.378-1.101-.943-.068-.302.033-.587.012-.885-.038-.564-.165-.441-.671-.458-.603-.021-1.109-.272-1.245-.888-.149-.668.876-.952 1.024-.28.042.186.995.067 1.186.131.311.107.536.302.667.599.149.327.111.667.089 1.016-.051.747.234.578.864.621 1.581.11 2.413 1.886 1.751 3.237-.298.62-1.217.085-.914-.527zM234.925 202.168c.247-.505.056-1.13-.4-1.448-.408-.285-.811-.128-1.262-.175-.569-.055-.973-.378-1.101-.943-.068-.302.035-.587.014-.884-.039-.565-.167-.442-.672-.459-.604-.021-1.11-.272-1.246-.888-.149-.668.876-.952 1.024-.28.043.186.995.068 1.187.131.31.107.535.302.667.599.149.327.11.667.089 1.016-.051.748.234.578.863.621 1.581.11 2.414 1.886 1.751 3.237-.298.624-1.215.085-.914-.527zM234.798 214.92c.506.242 1.135.042 1.445-.417.306-.45.085-.904.175-1.398.101-.548.467-.892 1.011-.981.268-.043.523.038.786.016.63-.05.438-.289.463-.785.03-.544.307-1.05.876-1.144.668-.106.957.919.281 1.025-.162.025-.06 1.016-.119 1.189-.11.323-.311.545-.621.68-.28.124-.578.111-.88.094-.268-.017-.569-.137-.756.17-.076.127.046.544.038.693-.102 1.584-1.874 2.421-3.231 1.771-.624-.293-.085-1.211.532-.913zM219.131 225.815l-.026.633c-.008.229-.157.459-.391.514-.374.089-.922-.085-1.241.034-.485.182-.302 1.019-.515 1.414-.152.286-.394.497-.726.545-.387.058-1.33-.583-1.266.17.055.679-1.008.675-1.063 0a1.38 1.38 0 01.684-1.318c.212-.123.485-.187.727-.17.294.022.608.319.757.017.101-.208-.026-.624.051-.875.076-.246.233-.468.446-.62.569-.404 1.237-.073 1.861-.222-.131.171-.259.341-.39.515l.025-.633c.034-.685 1.097-.688 1.067-.004zM205.402 224.391l-.026.633c-.008.229-.157.459-.391.514-.373.089-.923-.085-1.241.034-.484.183-.301 1.02-.514 1.415-.153.285-.396.498-.727.544-.387.059-1.331-.583-1.267.17.055.679-1.008.676-1.063 0a1.38 1.38 0 01.685-1.317c.213-.124.484-.188.727-.17.293.021.607.319.756.016.103-.208-.025-.624.051-.874.077-.247.234-.468.446-.621.571-.404 1.238-.072 1.862-.221-.131.17-.259.34-.391.514l.026-.633c.034-.684 1.096-.688 1.067-.004zM185.365 209.341l-.025.633c-.009.229-.158.459-.392.514-.373.089-.921-.085-1.241.034-.484.182-.301 1.019-.514 1.414-.153.286-.395.498-.727.545-.387.059-1.331-.582-1.267.17.055.679-1.007.675-1.062 0a1.379 1.379 0 01.684-1.318c.213-.123.485-.187.727-.17.293.022.607.319.756.018.103-.209-.025-.626.052-.876.076-.246.234-.468.445-.62.571-.404 1.238-.073 1.863-.222-.132.171-.259.341-.392.515l.026-.633c.03-.685 1.093-.688 1.067-.004zM211.591 223.371c.245-.506.055-1.13-.401-1.449-.408-.285-.811-.127-1.261-.174-.57-.055-.974-.379-1.102-.943-.067-.302.034-.587.013-.884-.038-.566-.166-.442-.671-.459-.604-.021-1.109-.272-1.246-.888-.149-.667.875-.952 1.024-.281.043.188.995.068 1.187.132.31.106.535.301.667.599.149.328.11.668.089 1.016-.051.748.234.578.863.62 1.581.11 2.414 1.886 1.752 3.237-.298.626-1.212.087-.914-.526zM223.321 213.947c.247-.506.056-1.131-.399-1.449-.408-.285-.812-.128-1.263-.175-.569-.055-.972-.378-1.1-.943-.069-.302.034-.586.013-.883-.039-.566-.167-.443-.673-.459-.603-.022-1.109-.273-1.245-.889-.148-.666.876-.951 1.025-.28.043.187.994.068 1.185.132.311.106.536.301.668.599.149.327.111.667.09 1.015-.052.748.234.578.862.621 1.581.11 2.415 1.886 1.751 3.237-.298.626-1.215.09-.914-.526zM213.163 214.065c.247-.505.055-1.129-.399-1.448-.408-.285-.812-.128-1.263-.174-.57-.056-.973-.379-1.1-.944-.069-.302.033-.586.012-.884-.039-.565-.166-.441-.672-.459-.603-.021-1.109-.271-1.245-.888-.148-.667.876-.952 1.025-.28.042.187.994.068 1.185.131.31.107.536.302.667.6.149.327.111.666.09 1.015-.051.748.233.578.863.621 1.581.11 2.414 1.886 1.751 3.237-.298.625-1.216.085-.914-.527zM224.839 224.785c.247-.505.056-1.129-.399-1.448-.408-.284-.812-.128-1.262-.174-.57-.055-.974-.378-1.102-.943-.067-.302.034-.587.013-.884-.038-.566-.165-.442-.671-.46-.603-.021-1.11-.271-1.245-.888-.149-.666.875-.952 1.024-.28.042.188.994.069 1.186.133.309.105.536.301.667.598.149.327.11.668.089 1.015-.051.748.234.578.863.621 1.581.111 2.414 1.886 1.752 3.238-.298.624-1.212.085-.915-.528zM196.951 222.661l-.025.633c-.008.23-.157.459-.391.514-.374.089-.922-.085-1.241.034-.484.183-.302 1.021-.514 1.416-.153.284-.396.497-.727.543-.387.06-1.331-.582-1.267.17.055.681-1.008.676-1.063 0a1.381 1.381 0 01.685-1.317c.213-.123.484-.186.727-.17.293.021.607.319.756.017.103-.208-.025-.624.051-.875.077-.247.234-.468.447-.621.57-.404 1.237-.072 1.861-.22-.131.169-.259.339-.39.514.007-.212.016-.421.025-.634.03-.683 1.096-.688 1.066-.004zM186.814 224.582l-.025.634c-.009.229-.158.458-.392.514-.374.089-.922-.085-1.24.034-.485.182-.302 1.019-.515 1.414-.152.284-.395.497-.727.544-.386.059-1.33-.582-1.266.17.055.68-1.008.676-1.063 0a1.379 1.379 0 01.685-1.317c.212-.123.484-.187.727-.17.293.021.607.318.756.017.102-.208-.025-.625.051-.875.077-.246.234-.468.446-.62.569-.404 1.238-.073 1.862-.222-.131.17-.259.34-.391.514l.026-.633c.03-.684 1.091-.689 1.066-.004zM194.019 236.726c.161-.352-1.241-.455-1.462-.633-.412-.327-.341-.918-.736-1.198-.408-.289-.952-.017-1.407-.31-.556-.362-.744-1.088-1.292-1.496-.544-.404-.012-1.326.536-.918.305.23.582.455.82.756.161.2.272.472.476.625.255.191.332.127.638.123.672-.008 1.173.204 1.415.871.043.11.038.362.107.447.301.369.39.088.722.161.285.064.539.11.777.298.592.462.6 1.181.316 1.805-.273.629-1.191.09-.91-.531zM202.838 235.523c.163-.353-1.24-.454-1.462-.633-.412-.327-.339-.917-.735-1.198-.408-.289-.952-.017-1.407-.31-.557-.361-.743-1.088-1.291-1.495-.545-.404-.014-1.326.534-.919.307.229.583.455.821.757.162.199.272.472.476.624.255.192.332.128.637.123.672-.008 1.174.205 1.416.872.042.11.038.361.106.445.302.37.392.09.722.163.286.064.541.11.779.296.591.464.599 1.182.314 1.807-.272.629-1.185.088-.91-.532zM200.897 240.962c.101.421.029.803-.29 1.118-.17.165-.382.204-.565.327-.314.102-.548.323-.697.663a.945.945 0 01.093.37c.043.42-.145.688-.493.904-.646.404-1.147.642-1.415 1.432-.217.646-1.246.371-1.024-.28.17-.501.408-.96.782-1.338.183-.183.394-.349.616-.481.11-.072.225-.131.344-.178.187-.025.208-.072.068-.144.064-.498-.107-.816.246-1.284.133-.174 1.314-.79 1.306-.82-.158-.671.867-.951 1.029-.289zM189.853 247.663c.162-.353-1.24-.454-1.462-.633-.412-.327-.34-.917-.734-1.198-.41-.289-.953-.017-1.407-.311-.557-.36-.745-1.087-1.293-1.495-.545-.404-.013-1.325.536-.918.306.229.582.455.819.757.163.199.273.472.477.624.254.192.332.128.637.123.672-.008 1.173.204 1.416.872.042.11.039.361.106.445.302.37.391.09.723.163.285.062.539.11.778.296.591.464.598 1.182.314 1.806-.271.63-1.19.089-.91-.531zM202.192 255.461c-.007.211-.016.42-.025.633-.008.229-.157.459-.39.514-.375.089-.923-.085-1.242.034-.484.182-.302 1.019-.514 1.414-.153.286-.396.498-.727.545-.387.059-1.331-.582-1.267.17.056.679-1.007.675-1.063 0a1.383 1.383 0 01.685-1.318c.212-.123.484-.187.727-.17.293.022.607.319.756.018.103-.209-.025-.626.051-.876a1.21 1.21 0 01.447-.62c.57-.404 1.237-.073 1.861-.222-.131.171-.259.341-.39.515.007-.213.016-.421.025-.633.034-.685 1.096-.688 1.066-.004zM208.382 254.44c.246-.505.055-1.13-.401-1.448-.408-.286-.811-.128-1.261-.174-.57-.055-.974-.378-1.102-.944-.068-.301.035-.586.014-.884-.039-.565-.167-.441-.672-.459-.604-.021-1.109-.271-1.246-.888-.149-.667.876-.952 1.024-.28.043.187.995.067 1.187.131.31.106.535.303.667.599.149.328.11.668.089 1.016-.05.748.234.578.863.62 1.581.112 2.415 1.887 1.751 3.239-.297.62-1.211.085-.913-.528zM210.209 242.786c.246-.507.055-1.131-.399-1.45-.408-.284-.813-.128-1.263-.174-.57-.055-.974-.378-1.101-.943-.068-.302.034-.587.013-.884-.039-.565-.166-.442-.672-.459-.603-.021-1.109-.272-1.245-.888-.149-.667.876-.952 1.024-.281.043.188.994.069 1.186.133.31.106.536.301.667.599.149.326.11.666.09 1.015-.051.747.233.578.863.621 1.58.11 2.414 1.886 1.751 3.237-.298.624-1.216.085-.914-.526zM193.742 253.731c-.007.212-.016.42-.025.633-.008.23-.157.459-.39.514-.375.09-.923-.085-1.242.035-.484.182-.302 1.019-.514 1.414-.153.285-.396.497-.728.544-.386.059-1.329-.582-1.266.17.056.68-1.007.675-1.063 0a1.38 1.38 0 01.685-1.318 1.34 1.34 0 01.727-.17c.293.022.608.319.756.018.102-.208-.025-.625.051-.876.077-.246.234-.467.447-.62.57-.403 1.237-.072 1.861-.221-.131.171-.259.34-.39.515.007-.213.016-.422.025-.633.03-.685 1.093-.689 1.066-.005zM220.831 235.158c-.009.212-.018.421-.025.633-.009.23-.158.459-.392.514-.374.09-.923-.084-1.241.035-.484.182-.301 1.019-.514 1.415-.153.284-.396.496-.727.544-.387.059-1.331-.583-1.267.17.055.679-1.007.675-1.063 0a1.378 1.378 0 01.685-1.317c.213-.124.484-.188.727-.171.293.022.607.318.756.017.103-.208-.025-.624.052-.876a1.22 1.22 0 01.445-.62c.57-.403 1.238-.072 1.863-.22-.133.17-.259.34-.392.514l.026-.633c.034-.689 1.097-.693 1.067-.005zM185.429 252.142l-.025.633c-.009.229-.158.459-.392.514-.373.089-.923-.085-1.241.034-.484.183-.301 1.02-.514 1.415-.153.285-.396.498-.727.544-.387.06-1.331-.582-1.267.17.055.679-1.007.676-1.063 0a1.38 1.38 0 01.685-1.317c.213-.124.484-.188.727-.17.293.021.607.319.756.017.103-.209-.025-.625.052-.875.076-.247.234-.468.445-.621.57-.404 1.238-.072 1.863-.221-.132.17-.259.34-.392.514l.026-.633c.034-.684 1.097-.688 1.067-.004zM190.81 267.796c.161-.353-1.241-.456-1.462-.633-.412-.328-.341-.918-.735-1.199-.408-.289-.953-.017-1.407-.31-.557-.361-.745-1.088-1.293-1.496-.543-.404-.013-1.326.536-.918.306.23.582.455.821.757.161.2.271.471.475.624.256.191.332.128.638.124.672-.009 1.172.204 1.415.87.043.112.039.362.106.447.302.369.391.089.723.161.285.064.539.11.778.298.591.463.6 1.181.314 1.805-.271.629-1.19.09-.909-.53zM199.63 266.594c.162-.353-1.242-.456-1.463-.634-.412-.327-.339-.918-.735-1.199-.408-.289-.952-.016-1.407-.309-.557-.361-.743-1.088-1.292-1.496-.544-.404-.013-1.326.535-.918.307.23.583.455.821.757.162.199.272.471.476.624.255.191.331.127.638.124.671-.009 1.173.204 1.415.87.042.11.038.362.106.447.302.369.392.089.723.161.285.064.54.11.778.297.59.464.599 1.182.314 1.806-.272.629-1.189.089-.909-.53zM181.361 236.058c.246-.505.055-1.129-.4-1.448-.408-.284-.812-.128-1.261-.174-.571-.055-.974-.378-1.102-.943-.067-.302.034-.587.013-.885-.038-.565-.166-.441-.671-.459-.605-.021-1.11-.271-1.246-.888-.149-.667.875-.952 1.024-.28.043.187.995.069 1.187.131.309.107.534.303.667.6.149.327.11.667.089 1.015-.051.748.234.578.862.621 1.582.111 2.415 1.886 1.751 3.238-.296.624-1.215.085-.913-.528zM197.088 180.039c.131-.392-.136-.668-.523-.633-.284.025-.522.195-.825.182-.476-.026-.85-.331-.948-.795-.063-.314-.037-.259-.356-.378a1.3 1.3 0 01-.582-.399c-.307-.365-.328-.845.025-1.181.493-.471 1.245.276.752.752.188-.179.017-.187.34-.124.102.022.213.073.306.119.187.094.374.225.484.413.064.11.064.225.107.34.012.05.012.098.005.149-.027.101-.005.105.067.012.225.017.511-.178.756-.182 1.017-.018 1.739 1.066 1.428 2.001-.229.65-1.253.373-1.036-.276z"/>
  <path fill="#fff" d="M232.264 193.711c5.345-7.044 7.619-6.799 10.135-7.759 1.258-.961 4.403-.961 7.547.64 4.447 2.264 3.773 10.887 3.773 10.887l-3.459 8.324s-25.469 2.757-38.99 2.116c-3.145-8.005-3.774-15.216 0-19.059 3.178-3.237 5.394-2.003 8.515-1.733 7.972.694 12.398 7.562 12.479 6.584z"/>
  <path fill="#FF4D4F" d="M230.183 207.037c9.36-3.778 9.372-.851 13.173-.851 1.733.851 6.743-1.892 6.586 0-.157 1.893-.606.851-.606.851l-.434.882s-7.105 11.88-19.335 12.031c-13.284-3.304-17.756-11.685-17.756-11.685s1.807-1.766 4.507-2.079c6.863 0 10.106 2.367 13.865.851z"/>
  <path fill="#000" d="M209.394 204.979c1.723 4.673 4.652 7.083 8.31 9.87 3.813 3.466 8.462 5.859 13.435 5.792 9.24-.123 21.923-12.722 23.302-23.961.059-.48-.945-.331-1.033.15-2.08 11.435-13.172 21.831-22.269 22.872-4.939.066-8.881-2.505-12.742-5.545-3.408-2.688-5.546-4.159-7.972-9.356-.093-.483-1.124-.301-1.031.178z"/>
  <path fill="#000" d="M210.771 205.84c-9.359-25.99 16.044-18.617 21.397-10.743 4.601-9.702 22.973-14.9 21.241 2.08.366.35.95-.669.95-.669 1.509-16.3-16.345-13.219-22.191-3.124-6.17-7.804-31.103-13.88-22.815 11.56.158.485 1.058 1.253 1.418.896zM230.75 215.859c-3.595-.104-6.128-1.049-8.588-5.275-.326-.147-.67.874-.346 1.02 1.763 3.523 4.743 5.376 8.741 5.286.365.01.558-1.02.193-1.031zM280.813 127.691c-1.166-.529-2.342-1.61-2.846-2.799l.989-.417c.261 1.55-.919 2.777-2.333 3.172l.13-.989c1.6.89 1.86 2.157 2.381 3.78-.346.096-.698.191-1.046.287-.35-1.919 1.094-3.729 3.076-3.681.699.017.699 1.103 0 1.085-1.232-.031-2.26 1.055-2.03 2.309.126.681-.828.963-1.046.287-.428-1.337-.529-2.379-1.886-3.134-.412-.23-.312-.868.13-.99.772-.217 1.736-.897 1.579-1.839-.092-.552.733-1.028.989-.417.442 1.046 1.431 1.949 2.455 2.413.638.282.087 1.219-.542.933zM158.795 154.72c-1.167-.53-2.342-1.609-2.846-2.799l.989-.416c.26 1.549-.92 2.777-2.334 3.172l.131-.99c1.601.889 1.861 2.157 2.381 3.781l-1.045.285c-.352-1.918 1.093-3.727 3.074-3.68.699.018.699 1.102 0 1.086-1.231-.031-2.259 1.054-2.029 2.309.126.68-.829.962-1.045.285-.43-1.336-.529-2.378-1.888-3.132-.411-.231-.312-.868.13-.99.773-.217 1.736-.899 1.579-1.84-.09-.551.734-1.029.99-.417.442 1.046 1.431 1.948 2.455 2.413.638.282.086 1.22-.542.933zM200.549 40.697c-.529 1.431.009 2.71 1.01 3.802.724.787 1.682 1.3 2.422 2.061 1.186 1.226 1.178 2.327.821 3.87-.291 1.264-.878 2.695-.232 3.95 1.056 2.043 4.826 1.096 4.833 3.86.002 1.795-1.151 3.397-1.026 5.217.165 2.33 2.253 2.313 3.239 4.027.846 1.474-.762 3.471-.06 5.133.407.971 1.399 1.568 1.94 2.458.822 1.349 1.01 2.865.77 4.404-.108.689.977.715 1.084.035.268-1.716.013-3.444-.895-4.942-.639-1.057-1.847-1.893-2.045-3.186-.128-.82.432-1.806.497-2.635.131-1.623-.61-2.193-1.743-3.165-.928-.8-1.801-1.457-1.689-2.812.048-.553.23-1.11.385-1.644.249-.859.552-1.678.608-2.579.083-1.278-.266-2.48-1.411-3.153-1.147-.677-2.065-.384-3.003-1.487-1.01-1.194-.467-2.011-.148-3.407.301-1.311.399-2.58-.357-3.759-1.154-1.801-4.94-3.044-3.954-5.715.229-.67-.808-.986-1.046-.333zM252.59 77.842c.518-1.946-.278-3.71-.095-5.655.197-2.072 1.732-3.71 2.985-5.277 2.323-2.906 3.106-5.712 2.359-9.373-.207-1.012-.631-2.007-.792-3.019-.345-2.15.424-2.736 1.857-3.743 1.002-.704 1.974-1.369 2.457-2.524.635-1.533.206-3.2.286-4.795.107-2.076 1.925-3.257 2.04-5.268.041-.7-1.078-.695-1.118 0-.098 1.685-1.795 2.892-2 4.643-.246 2.11.639 4.477-1.102 6.171-.974.947-2.389 1.416-3.177 2.559-.876 1.272-.501 2.605-.111 3.995.729 2.606 1.418 5.434.214 8.022-.698 1.507-1.897 2.745-2.909 4.053-.89 1.155-1.74 2.401-2.018 3.848-.389 2.046.582 4.035.041 6.072-.175.677.903.968 1.083.29zM284.325 106.823c.918-2.864 5.219-2.633 6.942-4.916 1.052-1.398.761-3.122 1.313-4.69.813-2.297 3.349-2.27 5.245-3.087 1.135-.485 1.983-1.174 2.44-2.35.879-2.274.944-4.252 3.335-5.575 1.501-.83 3.171-.795 4.258-2.27 1.61-2.192 2.614-3.86 5.441-4.633.674-.184.387-1.24-.287-1.053-1.822.498-3.449 1.428-4.667 2.904-.622.751-.957 1.803-1.635 2.493-.857.87-2.331.93-3.387 1.463a7.126 7.126 0 00-3.398 3.738c-.369.943-.347 2.144-.882 3.013-.713 1.165-2.118 1.436-3.315 1.803-1.317.406-2.727.816-3.579 1.987-1.213 1.667-.544 4-1.796 5.619-1.9 2.454-6.001 1.917-7.072 5.253-.217.681.832.965 1.044.301zM165.844 116.832c-2.049-2.179-5.824-.131-8.35-1.445-1.544-.805-2.018-2.479-3.184-3.649-1.714-1.715-3.986-.607-6.042-.529-1.229.05-2.288-.207-3.2-1.066-1.762-1.667-2.665-3.415-5.384-3.58-1.706-.103-3.195.643-4.805-.217-2.384-1.28-4-2.348-6.877-1.833-.685.123-.878-.948-.19-1.068 1.854-.332 3.715-.193 5.442.612.881.408 1.632 1.21 2.537 1.539 1.143.414 2.497-.162 3.676-.136a7.096 7.096 0 014.654 1.904c.736.688 1.229 1.776 2.081 2.327 1.14.742 2.521.384 3.755.202 1.36-.199 2.805-.433 4.072.253 1.804.979 2.196 3.359 4.016 4.278 2.759 1.39 6.223-.846 8.611 1.692.486.518-.337 1.221-.812.716z"/>
  <path fill="#333" d="M113.034 286.046c1.377-.625 2.764-1.899 3.358-3.302-.39-.163-.778-.326-1.167-.491-.308 1.827 1.085 3.275 2.753 3.741-.05-.389-.102-.778-.153-1.166-1.889 1.049-2.195 2.542-2.811 4.456l1.234.339c.415-2.263-1.29-4.397-3.629-4.34-.823.02-.823 1.3 0 1.279 1.454-.036 2.668 1.244 2.395 2.722-.147.804.979 1.136 1.234.339.508-1.577.626-2.805 2.228-3.695.486-.272.368-1.024-.155-1.168-.91-.255-2.047-1.058-1.862-2.169.107-.65-.866-1.212-1.168-.491-.521 1.233-1.689 2.298-2.897 2.845-.753.333-.102 1.438.64 1.101zM83.341 355.386s.67-14.806-6.134-21.285c-6.25-5.952-1.523-17.24-3.242-21.201-1.72-3.961-6.502-6.526-7.879-12.034-1.376-5.509 1.628-8.328-1.225-12.28-2.854-3.952-6.18-6.755-7.13-12.574-.95-5.817-8.042-14.518-8.042-14.518s9.782 7.245 13.473 8.972c3.686 1.728 3.966 5.266 6.694 8.821 2.732 3.556 5.962 2.854 7.565 7.546 1.602 4.697-2.021 6.659-.15 9.7 1.87 3.04 4.606 1.878 5.853 5.855 1.246 3.979-3.322 4.183-1.557 7.303 1.762 3.116 4.674 2.644 3.62 9.742-1.055 7.097 3.074 8.168 2.828 14.195-.197 4.824-4.674 21.758-4.674 21.758zM89.525 360.628s1.833-2.539 3.276-3.368c7.749-4.446 3.92-9.632 6.008-12.434 2.084-2.803 6.322-3.944 8.423-8.031 2.1-4.087.251-6.864 3.229-9.453 2.98-2.589 6.114-4.187 7.933-8.595 1.821-4.409 9.013-9.959 9.013-9.959s-9.046 3.907-12.268 4.593c-3.221.682-4.095 3.42-6.9 5.717-2.807 2.301-5.221 1.15-7.35 4.555-2.126 3.404.364 5.621-1.67 7.671-2.033 2.049-3.974.632-5.69 3.534-1.715 2.903 1.845 3.907-.117 6.04-1.963 2.133-4.167 1.221-4.649 7.01-.477 5.789-3.928 5.868-4.845 10.666-.092.481-.226 2.054-.226 2.054h5.833zM93.416 281.948s.356-4.948-.941-7.939c-1.297-2.986-2.9-4.731-2.938-7.123-.037-2.393-.347-2.815-2.188-5.052-1.845-2.238-2.506-5.618-2.87-8.867-.364-3.251-3.74-2.443-4.824-5.585-1.084-3.14 1.937-3.642.632-6.846-1.306-3.205-3.624-4.697-4.147-9.825-.523-5.128.117-5.446.117-5.446s.038 4.062 2.833 7.997c2.795 3.936 6.832 4.986 9.217 7.997 2.385 3.011-.385 4.3.925 5.982 1.31 1.681 2.933.664 4.084 3.659 1.15 2.996-.883 6.136-.08 7.839.803 1.706 2.97 3.128 2.912 5.019-.058 1.89-1.477 2.605-.966 5.847.51 3.242-1.67 12.774-1.67 12.774"/>
  <path fill="#333" d="M93.504 289.489s2.063-3.459 2.21-6.102c.15-2.639-.381-4.488.464-6.236.845-1.749.774-2.168.255-4.463-.523-2.297.23-4.986 1.15-7.479.921-2.489-1.824-3.132-1.464-5.809.36-2.677 2.737-1.937 2.954-4.74.222-2.802-.916-4.727.573-8.637 1.49-3.91 2.071-3.907 2.071-3.907s-1.452 2.962-.862 6.831c.591 3.873 3.138 6.107 3.77 9.16.632 3.053-1.845 2.978-1.51 4.676.339 1.698 1.887 1.552 1.627 4.14-.259 2.59-2.874 4.129-2.916 5.66-.042 1.531 1.017 3.354.285 4.701-.732 1.347-2.021 1.351-2.833 3.891-.812 2.538-5.866 8.657-5.866 8.657M93.236 302.133s-.536-3.989-2.063-6.152c-1.527-2.162-3.087-3.28-3.514-5.174-.427-1.895-.74-2.179-2.578-3.652-1.836-1.472-2.92-4.048-3.748-6.571-.829-2.522-3.377-1.321-4.762-3.638-1.385-2.318.938-3.217-.632-5.547-1.568-2.329-3.656-3.132-4.924-7.118-1.264-3.987-.812-4.346-.812-4.346s.703 3.22 3.573 5.884c2.87 2.665 6.255 2.833 8.649 4.832 2.393 1.999.406 3.48 1.724 4.6 1.317 1.121 2.439.042 3.853 2.234 1.414 2.192.314 5.019 1.234 6.245.92 1.226 2.879 1.995 3.146 3.505.268 1.51-.744 2.317.201 4.805.942 2.493.787 10.427.787 10.427"/>
  <path fill="#333" d="M81.408 361.184a.564.564 0 01-.184-.03.628.628 0 01-.418-.782c.083-.28 8.59-28.283 10.811-44.796 1.686-12.556 1.54-29.09 1.473-37.041-.03-3.125-.034-4.404.037-4.764a.63.63 0 01.737-.494c.339.067.56.398.494.737-.05.296-.034 2.245-.013 4.509.071 7.976.218 24.572-1.481 37.216-2.234 16.614-10.766 44.713-10.853 44.997a.63.63 0 01-.603.448z"/>
  <path fill="#F8BAB4" d="M93.88 400.308H78.546c-6.506 0-11.782-5.274-11.782-11.778v-27.906h38.899v27.906c0 6.504-5.277 11.778-11.783 11.778z"/>
  <path fill="#333" d="M67.37 367.888c.846-.129 1.331-.731 2.189-.79.992-.067 1.393.514 2.21.988 1.12.652 2.141.644 3.367.263.774-.239 1.502-.641 2.293-.841 1.301-.326 2.03.38 3.126.845 1.66.702 2.928-.694 4.76-.025 1.093.397 1.122.556 2.356.251 1.201-.297 2.11-.143 3.264-.005.335.042.648.059.966-.033.695-.196.77-.464 1.595-.476.723-.014.61.079 1.125.121.85.066 1.686 0 2.544-.051 2.435-.15 4.904-.427 7.33-.079.657.093.941-.912.277-1.008-2.005-.285-3.984-.18-6-.054-1.557.096-3.042.305-4.578-.072-.48-.117-.728-.276-1.213-.167-.39.092-.335.23-.762.389-.723.268-1.13.2-1.987 0-.556-.129-.837-.272-1.402-.18-.673.109-1.322.782-1.97.824-.787.051-1.481-.995-2.272-1.129-.498-.079-.87.146-1.335.255-.795.189-.448.264-1.632.255-1.12-.004-1.196-.271-2.087-.61-1.176-.452-2.272-.121-3.406.301-1.201.444-2.306 1.041-3.61.468-.725-.318-1.26-.97-2-1.271-1.52-.615-2.005.606-3.432.827-.657.097-.376 1.105.285 1.004zM67.413 373.46c2.221-2.589 3.393 1.355 5.556 1.238 2.159-.118 2.414-2.51 4.87-1.171 1.113.607 1.565 1.112 2.916.64.636-.222.92-.502 1.662-.481.845.025.87.31 1.54.606.497.222.878.251 1.4.084.323-.105.582-.481.88-.569.916-.268 1.631.159 2.43.351.482.118.837.268 1.356.167.289-.054.515-.247.79-.31 2.863-.656 1.072.248 2.377.306.666.034.787-.112 1.39-.192.146-.105.292-.214.439-.318a2.914 2.914 0 011.493.213c.218.026.452.218.686.192.666-.079.624-.296 1.226-.463.833-.235 1.415.217 2.193.267 1.389.084 2.945-.259 4.33-.388.666-.063.669-1.109 0-1.046-1.586.146-3.548.715-5.041.058-.724-.317-.44-.389-1.235-.372-.238.004-.335.263-.54.326-.53.159-1.209.259-1.765.222-.632-.042-1.013-.13-1.636-.026a2.847 2.847 0 01-1.61.323c-.16-.096-.319-.188-.474-.285-.255-.029-.498-.222-.77-.238-1.117-.075-1.665.899-2.916.557-.585-.16-.995-.691-1.64-.758-1-.105-1.184.557-2.012.807-1.021.306-1.699-.681-2.64-.77-.791-.075-1.235.423-1.954.599-2.117.514-3.076-1.794-5.105-.942-.673.285-1.276 1.134-1.966 1.289-1.523.338-2.004-.953-3.08-1.527-1.355-.723-2.937-.25-3.89.862-.436.519.3 1.264.74.749z"/>
  <path fill="#333" d="M85.153 359.879l-18.753.577a.535.535 0 00-.523.523c.025 7.775.05 15.55.08 23.327.012 3.015-.076 6.211 1.255 9 1.234 2.589 3.49 4.426 5.79 6.036.553.385 1.076-.518.528-.903-2.774-1.942-5.235-4.187-6.071-7.597-.779-3.157-.46-6.646-.469-9.871-.025-6.666-.046-13.329-.071-19.997l-.523.523 18.752-.577c.678-.016.678-1.062.005-1.041zM94.575 397.146c1.95.105 4.113-1.744 5.272-3.116 1.866-2.208 2.451-5.324 2.309-8.144-.033-.669-1.079-.673-1.046 0 .126 2.472-.313 5.233-1.874 7.228-.962 1.234-2.933 3.082-4.661 2.986-.67-.037-.67 1.009 0 1.046z"/>
</svg>
