<svg width="296" height="443" viewBox="0 0 296 443" fill="none" xmlns="http://www.w3.org/2000/svg">
<path d="M115.695 402.406C125.024 394.692 137.539 398.701 151.83 384.088C172.224 363.242 123.673 290.334 194.511 287.694C173.144 259.356 175.346 240.118 166.907 209.012C147.602 137.845 90.2749 37.4714 48.0249 69.0668C21.7141 88.7418 75.2035 151.117 84.2767 182.753C92.9247 212.898 97.5369 235.707 87.7999 246.014C75.5588 258.965 70.6437 239.605 47.2329 222.039C31.1191 209.95 14.3473 257.241 24.5501 289.902C34.753 322.564 42.8303 332.993 31.2298 343.276C21.2715 352.097 4.28412 336.133 1.08698 358.284C-2.3431 382.026 32.3013 419.459 66.3575 432.714C78.7151 437.526 95.289 439.653 112.929 439.204C102.807 424.714 107.949 408.809 115.695 402.406Z" fill="#FFECDD"/>
<path d="M30.7823 209.495C23.0078 209.495 16.6835 203.167 16.6835 195.39C16.6835 187.612 23.0078 181.284 30.7823 181.284C38.5567 181.284 44.8811 187.612 44.8811 195.39C44.8811 203.167 38.5567 209.495 30.7823 209.495ZM30.7823 183.038C23.9746 183.038 18.4305 188.579 18.4305 195.395C18.4305 202.212 23.9687 207.753 30.7823 207.753C37.5958 207.753 43.134 202.212 43.134 195.395C43.134 188.579 37.59 183.038 30.7823 183.038Z" fill="#FFECDD"/>
<path d="M245.351 73.4829C262.876 73.4829 277.083 59.2694 277.083 41.7361C277.083 24.2028 262.876 9.98926 245.351 9.98926C227.825 9.98926 213.618 24.2028 213.618 41.7361C213.618 59.2694 227.825 73.4829 245.351 73.4829Z" fill="#FFECDD"/>
<path d="M289.376 31.0439C290.943 30.3331 292.521 28.8823 293.196 27.2859C292.754 27.0995 292.311 26.913 291.868 26.7266C291.519 28.8066 293.103 30.4554 295.002 30.9856C294.943 30.5428 294.885 30.1 294.827 29.6572C292.678 30.8516 292.329 32.5529 291.63 34.7319C292.096 34.8601 292.567 34.9883 293.033 35.1165C293.505 32.5412 291.566 30.1117 288.904 30.1757C287.967 30.1991 287.967 31.6556 288.904 31.6323C290.558 31.5915 291.938 33.0481 291.63 34.7319C291.461 35.6467 292.742 36.0254 293.033 35.1165C293.61 33.322 293.744 31.9236 295.566 30.9099C296.12 30.6011 295.986 29.7446 295.392 29.5815C294.355 29.2902 293.062 28.3754 293.272 27.1111C293.394 26.3712 292.288 25.7303 291.944 26.5518C291.35 27.9559 290.022 29.1678 288.648 29.7912C287.786 30.1757 288.526 31.4284 289.376 31.0439Z" fill="black"/>
<path d="M223.702 67.2266C225.269 66.5158 226.847 65.0651 227.522 63.4687C227.08 63.2823 226.637 63.0958 226.195 62.9094C225.845 64.9894 227.429 66.6382 229.328 67.1683C229.269 66.7256 229.211 66.2828 229.153 65.84C227.004 67.0343 226.655 68.7356 225.956 70.9146C226.422 71.0427 226.893 71.1709 227.359 71.2991C227.831 68.7239 225.892 66.2944 223.23 66.3585C222.293 66.3818 222.293 67.8383 223.23 67.815C224.884 67.7743 226.264 69.2308 225.956 70.9146C225.787 71.8293 227.068 72.208 227.359 71.2991C227.936 69.5046 228.07 68.1064 229.893 67.0926C230.446 66.7838 230.312 65.9274 229.718 65.7642C228.681 65.4729 227.388 64.5582 227.598 63.2939C227.72 62.554 226.614 61.9131 226.27 62.7346C225.676 64.1387 224.349 65.3506 222.974 65.974C222.118 66.3527 222.858 67.6111 223.702 67.2266Z" fill="black"/>
<path d="M101.176 12.9526C102.743 12.2418 104.321 10.791 104.996 9.19459C104.554 9.00815 104.111 8.8217 103.669 8.63526C103.319 10.7153 104.903 12.3641 106.802 12.8943C106.743 12.4515 106.685 12.0087 106.627 11.5659C104.478 12.7603 104.129 14.4616 103.43 16.6406C103.896 16.7688 104.367 16.897 104.833 17.0252C105.305 14.4499 103.366 12.0203 100.704 12.0844C99.7667 12.1077 99.7667 13.5643 100.704 13.541C102.358 13.5002 103.738 14.9568 103.43 16.6406C103.261 17.5554 104.542 17.9341 104.833 17.0252C105.41 15.2307 105.544 13.8323 107.366 12.8186C107.92 12.5098 107.786 11.6533 107.192 11.4902C106.155 11.1988 104.862 10.2841 105.072 9.0198C105.194 8.27985 104.088 7.63896 103.744 8.46047C103.15 9.86461 101.822 11.0765 100.448 11.6999C99.5862 12.0844 100.326 13.3371 101.176 12.9526Z" fill="black"/>
<path d="M185.496 388.778C185.496 388.778 188.321 393.934 188.489 396.76C188.658 399.586 188.489 402.248 188.489 402.248L185.333 404.579C185.333 404.579 187.826 407.072 188.326 412.398C188.827 417.723 188.326 420.216 187.331 427.033C186.474 432.871 187.331 440.672 187.831 441.004C188.612 441.529 195.81 442 202.297 441.837C208.779 441.668 218.26 439.839 224.077 437.182C229.895 434.525 230.064 433.855 229.062 430.197C228.067 426.538 226.069 417.222 221.911 416.557C217.753 415.893 212.436 417.886 212.436 417.886L200.3 406.076C200.3 406.076 201.796 400.419 201.627 399.755C201.459 399.091 197.306 399.755 197.306 399.755V388.114L185.496 388.778Z" fill="#FFECDD"/>
<path d="M149.961 160.229C147.649 160.77 151.883 198.017 152.203 219.906C152.354 230.242 149.536 240.956 147.631 241.195C145.721 241.434 145.96 240.24 146.199 244.772C146.438 249.305 161.229 388.44 161.229 388.44C161.229 388.44 174.111 388.918 186.993 389.634C199.875 390.351 213.473 384.863 213.473 384.863C213.473 384.863 197.341 293.741 196.776 287.018C196.328 281.728 194.296 276.408 195.653 271.602C213.746 207.601 211.236 158.935 211.236 158.935L168.538 158.271C168.538 158.271 154.509 159.162 149.961 160.229Z" fill="#FFECDD"/>
<path d="M141.272 118.502C141.272 118.502 136.968 123.629 135.943 129.368C134.918 135.106 134.301 139.622 134.301 139.622C134.301 139.622 128.973 138.596 127.127 138.596C125.28 138.596 127.534 140.443 126.102 142.08C124.669 143.717 112.981 151.105 99.8664 143.927C86.7459 136.749 80.637 131.628 80.637 127.556C80.637 123.489 87.468 111.464 95.8015 101.717C109.487 85.712 127.802 78.3245 127.802 78.3245C127.802 78.3245 135.157 85.4091 134.225 97.7431C133.131 112.239 126.241 113.369 126.241 113.369L132.065 117.214C132.065 117.214 133.166 117.214 136.13 117.546C139.094 117.878 141.272 118.502 141.272 118.502Z" fill="#FFECDD"/>
<path d="M161.841 49.4146C161.841 49.4146 163.681 49.9972 165.184 52.6715C166.686 55.3457 168.416 58.6725 171.875 59.5873C176.557 60.8283 179.381 56.1789 179.381 56.1789C179.381 56.1789 175.555 57.2568 171.281 54.4252C165.853 50.8304 162.429 44.8176 162.429 44.8176L161.841 49.4146Z" fill="#F8BAB4"/>
<path d="M174.288 36.4839C175.228 36.1404 175.565 34.7007 175.041 33.2682C174.518 31.8358 173.332 30.953 172.393 31.2966C171.453 31.6401 171.116 33.0799 171.639 34.5123C172.163 35.9447 173.349 36.8275 174.288 36.4839Z" fill="#F8BAB4"/>
<path d="M192.143 38.262C193.34 37.3176 193.808 35.915 193.189 35.1293C192.569 34.3435 191.097 34.4721 189.9 35.4165C188.703 36.3609 188.234 37.7635 188.854 38.5492C189.473 39.335 190.946 39.2063 192.143 38.262Z" fill="#F8BAB4"/>
<path d="M80.305 387.368C80.305 387.368 84.8532 384.991 85.8433 382.62C86.8333 380.243 83.4672 376.287 83.4672 376.287C83.4672 376.287 89.4015 369.756 92.1735 367.181C94.9455 364.605 95.7317 363.423 95.7317 363.423L86.4314 353.92C86.4314 353.92 82.8732 359.857 77.5272 364.804C72.1811 369.75 67.2427 373.712 67.2427 373.712C67.2427 373.712 66.0547 370.938 64.8667 370.74C63.6787 370.542 59.9225 375.489 57.1504 377.272C54.3784 379.054 49.6322 381.624 49.6322 381.624C49.6322 381.624 60.3127 406.362 64.0747 412.695C67.8309 419.028 72.1869 426.946 78.3192 428.723C84.4514 430.505 84.4514 425.949 84.6494 423.578C84.8474 421.207 80.305 387.368 80.305 387.368Z" fill="#FFECDD"/>
<path d="M146.542 246.952C146.542 246.952 110.803 296.503 105.876 302.359C100.95 308.214 73.241 338.091 73.241 338.091C73.241 338.091 80.3632 349.393 92.6801 360.481C104.997 371.568 112.655 378.751 112.655 378.751L152.989 314.063L146.542 246.952Z" fill="#FFECDD"/>
<path d="M249.561 158.085L246.055 170.058L233.605 167.279L233.244 164.616C233.244 164.616 217.165 162.321 214.509 161.109C211.848 159.897 211.242 158.936 211.242 158.936L217.409 157.24C217.409 157.24 211.242 145.267 210.275 137.53C209.309 129.793 209.431 126.647 209.431 126.647C209.431 126.647 214.026 125.802 220.915 132.211C227.804 138.614 249.561 158.085 249.561 158.085Z" fill="#FFECDD"/>
<path d="M140.946 133.067L141.336 150.779C141.336 150.779 119.486 150.662 114.519 149.788C109.551 148.914 106.925 149.205 106.925 149.205C106.925 149.205 101.666 209.996 102.248 217.593C102.831 225.191 105.463 233.085 113.057 238.049C120.651 243.013 140.148 247.26 147.637 241.195C155.126 235.13 151.912 225.773 151.62 211.161C151.329 196.549 150.17 144.166 150.17 144.166C150.17 144.166 144.644 137.081 142.868 134.669C138.482 128.721 140.946 133.067 140.946 133.067Z" fill="#F8BAB4"/>
<path d="M135.419 75.6733C135.419 75.6733 141.738 75.9763 145.506 85.4613C149.268 94.9464 149.64 99.8229 150.194 104.455C150.747 109.087 150.933 119.917 150.933 119.917C150.933 119.917 143.526 118.898 142.512 119.084C141.493 119.271 141.278 118.502 141.278 118.502C141.278 118.502 140.107 105.288 138.809 99.9161C137.51 94.5444 133.626 83.8009 131.774 81.4879C129.922 79.1749 127.808 78.3301 127.808 78.3301L135.419 75.6733Z" fill="#F8BAB4"/>
<path d="M194.022 28.4054C193.946 34.4879 191.797 40.3433 188.903 45.6334C185.898 51.1275 180.61 58.3753 173.406 55.1884C167.763 52.689 163.501 46.5598 161.421 40.9142C160.653 38.8284 160.35 36.8184 158.684 35.2512C157.555 34.185 156.326 33.311 155.569 31.9069C154.963 30.7825 154.532 29.1045 155.266 27.9626C156.035 26.774 160.548 24.7873 160.024 28.5335C159.896 29.4483 161.299 29.8444 161.427 28.9181C161.777 26.4303 159.808 24.1639 157.182 24.5484C154.649 24.9213 153.28 27.7179 153.49 30.0542C153.653 31.8894 154.713 33.5441 155.988 34.82C156.611 35.4434 157.409 35.9212 157.997 36.5737C159.179 37.8904 159.436 39.7024 160.024 41.2987C161.462 45.214 163.704 48.8262 166.575 51.8442C169.19 54.5883 172.725 57.4548 176.72 57.4781C180.465 57.5014 184.18 55.002 186.445 52.1937C191.64 45.7733 195.373 36.696 195.478 28.4054C195.489 27.4673 194.034 27.4673 194.022 28.4054Z" fill="black"/>
<path d="M162.895 27.1819C165.568 22.7191 168.124 18.2213 168.957 13.0185C168.48 12.9544 168.002 12.8904 167.525 12.8263C167.198 18.1339 166.465 23.3716 165.317 28.5627C165.166 29.2444 166.005 29.8212 166.535 29.2735C169.656 26.0342 175.381 27.4965 179.335 27.8636C184.273 28.318 189.212 28.7725 194.15 29.2327C195.082 29.3201 195.076 27.8636 194.15 27.7762C188.07 27.2169 181.996 26.6401 175.916 26.0924C172.259 25.7603 168.27 25.3758 165.504 28.2423C165.911 28.4811 166.313 28.7142 166.721 28.9531C167.891 23.6338 168.643 18.2621 168.98 12.8263C169.033 12.0223 167.682 11.8183 167.548 12.634C166.738 17.7202 164.24 22.0899 161.631 26.4536C161.154 27.2518 162.411 27.9859 162.895 27.1819Z" fill="black"/>
<path d="M196.264 69.8414C195.99 64.4929 193.649 59.628 193.236 54.367C192.77 48.465 196.479 42.7262 198.174 37.2263C199.735 32.1691 201.214 26.4944 200.573 21.1517C200.055 16.8345 197.633 12.2726 194.954 8.90505C188.187 0.392957 177.18 -0.696545 167.338 2.49622C155.866 6.21917 147.952 15.5644 140.754 24.7698C132.339 35.525 123.644 49.0884 110.203 53.8077C109.324 54.1164 109.702 55.5264 110.588 55.2118C121.647 51.3257 129.409 41.6017 136.45 32.6818C143.176 24.1639 149.501 14.708 158.545 8.43896C167.851 1.97769 182.148 -0.993678 191.349 7.19797C195.012 10.4607 198.034 15.5761 198.989 20.4002C200.049 25.7545 198.337 31.7555 196.771 36.8417C195.088 42.3067 191.564 47.8125 191.739 53.6678C191.908 59.1794 194.523 64.2948 194.808 69.8472C194.855 70.7736 196.311 70.7794 196.264 69.8414Z" fill="black"/>
<path d="M109.865 54.8445C110.535 59.4531 112.766 63.7762 115.136 67.7323C117.063 70.9601 119.748 73.6926 123.545 74.4442C124.459 74.6248 124.85 73.2207 123.93 73.0401C119.818 72.2244 117.407 68.9383 115.526 65.4425C113.639 61.9293 111.845 58.4451 111.263 54.4541C111.135 53.5336 109.732 53.9239 109.865 54.8445Z" fill="black"/>
<path d="M161.544 45.1789C160.612 52.1995 159.529 59.8377 154.655 65.3434C149.838 70.7909 142.67 73.2787 135.728 74.6246C134.808 74.8052 135.198 76.2093 136.112 76.0287C143.584 74.5838 151.329 71.7464 156.279 65.6639C160.967 59.9017 162.05 52.3102 162.994 45.1789C163.122 44.2526 161.666 44.2642 161.544 45.1789Z" fill="black"/>
<path d="M179.067 56.0446C178.549 59.8958 178.403 63.7878 182.252 65.9377C185.659 67.8429 189.439 68.9615 192.805 71.0299C193.603 71.5193 194.336 70.2608 193.538 69.7714C191.267 68.3789 188.851 67.1787 186.41 66.1125C185.287 65.6231 184.064 65.2735 182.986 64.6792C179.801 62.9197 180.045 59.5754 180.47 56.4292C180.599 55.5145 179.195 55.1183 179.067 56.0446Z" fill="black"/>
<path d="M136.514 128.93C141.161 132.525 144.411 138.34 148.202 142.808C150.089 145.034 152.034 147.213 154.031 149.339C155.249 150.633 156.588 152.876 158.551 152.754C158.9 152.73 159.127 152.538 159.255 152.218C160.571 148.856 157.095 144.148 155.749 141.247C155.371 141.538 154.987 141.835 154.608 142.127C158.655 146.187 162.813 150.138 167.088 153.965C167.408 154.251 168.02 154.262 168.229 153.82C169.388 151.384 167.775 149.369 166.395 147.347C164.38 144.393 162.219 141.55 159.966 138.782C159.622 139.126 159.278 139.47 158.935 139.814C162.342 142.465 165.766 145.127 168.847 148.157C169.924 149.217 172.393 152.742 174.245 150.662C175.969 148.722 173.063 145.774 172.044 144.358C169.528 140.874 166.82 137.541 163.961 134.337C163.617 134.681 163.273 135.025 162.93 135.368C165.83 137.903 168.73 140.437 171.63 142.971C172.743 143.944 174.484 146.129 176.225 145.203C180.534 142.907 172.725 136.033 171.24 134.57C166.639 130.037 161.468 125.808 156.297 121.951C152.343 119.003 145.989 117.127 141.126 118.449C140.224 118.694 140.608 120.098 141.511 119.853C145.547 118.752 151.353 120.314 154.765 122.627C158.504 125.161 161.992 128.33 165.428 131.261C166.942 132.548 168.433 133.865 169.86 135.252C171.333 136.685 174.303 139.08 175.02 141.014C175.183 141.253 175.351 141.486 175.515 141.725C174.402 143.03 173.453 143.105 172.661 141.94C171.776 141.404 170.832 140.344 170.052 139.662C168.02 137.891 165.993 136.114 163.961 134.343C163.256 133.725 162.307 134.669 162.93 135.374C165.003 137.699 167.006 140.076 168.893 142.552C169.534 143.391 170.169 144.242 170.786 145.098C171.234 145.721 174.012 148.57 171.683 148.99C171.176 149.083 167.164 144.609 166.436 143.991C164.333 142.191 162.149 140.49 159.966 138.788C159.232 138.217 158.335 139.08 158.935 139.82C160.56 141.812 162.132 143.845 163.629 145.937C164.753 147.504 167.979 150.988 166.977 153.097C167.356 153.051 167.74 152.998 168.119 152.952C163.85 149.124 159.686 145.18 155.639 141.113C155.021 140.495 154.16 141.276 154.497 141.993C155.214 143.542 155.93 145.092 156.646 146.648C157.159 147.761 159.104 151.111 156.576 149.91C155.348 149.328 154.142 147.341 153.21 146.316C151.982 144.964 150.776 143.595 149.594 142.208C145.552 137.477 142.215 131.517 137.26 127.69C136.508 127.101 135.78 128.365 136.514 128.93Z" fill="black"/>
<path d="M175.171 43.0526C175.916 44.4509 177.337 45.5695 178.758 46.1987C180.447 46.9444 181.874 46.8104 183.627 46.758C184.564 46.7289 184.564 45.2723 183.627 45.3015C182.346 45.3423 181.251 45.5345 179.976 45.1034C178.566 44.6315 177.145 43.6585 176.429 42.3185C175.986 41.4912 174.728 42.2253 175.171 43.0526Z" fill="black"/>
<path d="M135.338 74.8402C117.815 79.8915 103.198 91.6138 91.8881 105.661C89.1452 109.069 86.5129 112.606 84.1835 116.311C82.3025 119.294 79.3732 123.879 79.9032 127.602C80.404 131.121 84.7484 134.687 87.2584 136.848C90.4555 139.604 94.0486 141.882 97.9039 143.595C106.173 147.271 117.116 149.293 125.339 144.492C126.148 144.02 125.414 142.762 124.605 143.234C117.308 147.493 107.606 145.943 100.105 142.954C96.2267 141.41 92.5636 139.295 89.3141 136.679C86.4256 134.349 81.2018 130.16 81.4231 126.192C81.6503 122.143 84.8241 117.878 87.0312 114.639C89.4072 111.155 91.958 107.787 94.6718 104.565C99.7441 98.547 105.422 93.0004 111.741 88.2987C118.985 82.9153 127.039 78.7496 135.722 76.2501C136.625 75.988 136.24 74.5838 135.338 74.8402Z" fill="black"/>
<path d="M123.155 136.796C126.661 138.771 130.394 139.761 134.418 139.779C134.814 139.779 135.14 139.441 135.146 139.05C135.25 131.733 137.667 124.87 142.116 119.067C142.437 118.653 142.064 118.152 141.68 117.995C135.879 115.647 130.196 115.565 126.3 120.984C122.677 126.023 121.6 132.455 122.666 138.491C122.829 139.412 124.232 139.021 124.069 138.106C123.166 133.026 123.947 127.759 126.562 123.267C128.093 120.64 130.312 118.111 133.532 117.808C136.159 117.558 138.89 118.432 141.289 119.405C141.144 119.049 140.998 118.694 140.853 118.333C136.252 124.334 133.794 131.494 133.684 139.05C133.928 138.806 134.167 138.567 134.412 138.322C130.632 138.305 127.179 137.396 123.883 135.543C123.073 135.077 122.34 136.335 123.155 136.796Z" fill="black"/>
<path d="M130.714 115.594C122.875 109.034 112.143 107 102.47 110.356C101.59 110.659 101.969 112.069 102.854 111.76C112.014 108.579 122.229 110.385 129.683 116.625C130.399 117.22 131.436 116.194 130.714 115.594Z" fill="black"/>
<path d="M153.769 68.309C162.662 74.2751 176.947 73.8206 185.333 67.1496C186.067 66.567 185.03 65.5416 184.302 66.1184C176.423 72.3874 162.808 72.6204 154.503 67.0506C153.723 66.5262 152.995 67.7905 153.769 68.309Z" fill="black"/>
<path d="M157.368 64.2367C164.665 67.75 173.313 67.278 179.923 62.4655C180.674 61.9178 179.946 60.6535 179.189 61.207C173.022 65.6991 164.956 66.2759 158.102 62.9782C157.264 62.5762 156.524 63.8288 157.368 64.2367Z" fill="black"/>
<path d="M150.141 160.747C159.674 159.576 169.475 159.093 179.079 159.489C191.663 160.013 204.458 161.86 216.722 158.009C217.613 157.729 217.235 156.325 216.338 156.605C203.84 160.526 190.825 158.428 178.013 157.991C168.765 157.677 159.325 158.16 150.141 159.291C149.221 159.407 149.209 160.864 150.141 160.747Z" fill="black"/>
<path d="M199.386 84.197C201.243 87.3781 203.095 90.5592 204.953 93.7403C206.927 97.1253 209.274 100.516 209.606 104.53C210.113 110.694 208.855 117.138 208.831 123.337C208.791 135.094 210.474 147.003 216.647 157.211C217.13 158.009 218.388 157.281 217.904 156.477C211.155 145.314 209.961 132.17 210.363 119.393C210.538 113.771 212.069 107.339 210.625 101.839C209.833 98.8323 208.057 96.164 206.508 93.5072C204.557 90.1572 202.6 86.8129 200.649 83.4629C200.172 82.653 198.908 83.3871 199.386 84.197Z" fill="black"/>
<path d="M145.319 243.59C146.641 250.237 146.787 257.095 147.311 263.842C149.279 289.104 151.766 314.343 154.369 339.547C156.081 356.122 157.974 372.675 160.199 389.192C160.239 389.501 160.612 389.734 160.903 389.728C170.751 389.553 180.604 389.373 190.452 389.198C198.593 389.052 206.904 389.064 214.358 385.347C215.196 384.927 214.463 383.675 213.624 384.088C205.762 388.009 196.741 387.625 188.181 387.782C183.633 387.864 179.09 387.945 174.542 388.027C172.649 388.062 170.751 388.097 168.858 388.132C167.723 388.149 166.587 388.172 165.451 388.196C163.489 388.231 162.021 388.976 161.328 386.71C160.682 384.607 160.711 382.008 160.432 379.823C160.14 377.528 159.849 375.227 159.57 372.931C159.005 368.334 158.469 363.731 157.945 359.129C156.903 349.923 155.936 340.712 155.01 331.495C152.418 305.656 149.949 279.805 148.027 253.908C147.76 250.313 147.433 246.759 146.729 243.217C146.542 242.279 145.139 242.669 145.319 243.59Z" fill="black"/>
<path d="M194.284 183.353C189.404 236.289 195.262 288.801 204.72 340.899C207.428 355.825 210.369 370.711 213.31 385.597C213.49 386.518 214.894 386.127 214.713 385.213C204.452 333.29 194.156 280.965 193.812 227.836C193.713 212.985 194.377 198.14 195.74 183.353C195.827 182.415 194.371 182.421 194.284 183.353Z" fill="black"/>
<path d="M185.619 390.945C187.331 394.424 188.123 398.1 188.024 401.969C188 402.907 189.456 402.907 189.48 401.969C189.579 397.844 188.693 393.905 186.876 390.205C186.463 389.372 185.211 390.106 185.619 390.945Z" fill="black"/>
<path d="M196.404 389.984C196.165 392.547 196.113 395.105 196.252 397.68C196.305 398.613 197.761 398.619 197.708 397.68C197.568 395.111 197.621 392.547 197.86 389.984C197.947 389.046 196.491 389.052 196.404 389.984Z" fill="black"/>
<path d="M199.467 405.348C199.432 405.406 199.397 405.458 199.362 405.517C199.199 405.773 199.24 406.192 199.479 406.396C199.543 406.455 199.607 406.507 199.671 406.565C199.892 406.758 200.288 406.88 200.55 406.682C201.255 406.158 201.266 405.587 201.511 404.701C201.948 403.093 202.722 401.31 202.664 399.626C202.652 399.288 202.443 399.026 202.128 398.921C199.886 398.175 196.625 398.997 194.371 399.521C191.413 400.215 188.635 401.38 185.997 402.866C185.182 403.326 185.915 404.584 186.731 404.124C189.689 402.452 192.851 401.217 196.206 400.628C197.417 400.413 200.486 399.481 200.964 401.048C201.097 401.485 200.509 402.767 200.393 403.221C200.247 403.763 200.107 404.305 199.962 404.852C199.618 405.464 199.875 405.878 200.725 406.082C201.22 405.289 199.962 404.555 199.467 405.348Z" fill="black"/>
<path d="M184.96 405.819C185.945 408.255 187.331 410.801 187.878 413.382C188.513 416.371 187.366 419.796 187.074 422.82C186.492 428.827 186.673 434.869 186.847 440.893C186.876 441.831 188.332 441.831 188.303 440.893C188.117 434.496 187.93 428.07 188.647 421.702C188.932 419.161 189.794 416.429 189.439 413.854C189.043 410.976 187.441 408.103 186.364 405.435C186.015 404.573 184.605 404.946 184.96 405.819Z" fill="black"/>
<path d="M200.009 406.647C203.287 411.116 207.183 414.973 211.691 418.201C212.454 418.748 213.182 417.484 212.424 416.942C208.132 413.872 204.388 410.172 201.261 405.913C200.719 405.167 199.455 405.89 200.009 406.647Z" fill="black"/>
<path d="M208.191 418.603C209.973 418.981 211.726 419.133 213.537 418.818C217.002 418.218 219.774 415.445 223.105 418.335C227.018 421.725 228.381 428.134 228.148 433.028C228.101 433.966 229.557 433.96 229.604 433.028C229.86 427.645 228.305 422.104 224.747 417.973C223.221 416.202 221.451 415.148 219.063 415.538C217.66 415.771 216.425 416.488 215.092 416.919C212.919 417.618 210.805 417.676 208.581 417.198C207.661 417 207.271 418.404 208.191 418.603Z" fill="black"/>
<path d="M189.287 440.847C195.338 440.293 201.179 438.738 207.02 437.118C212.972 435.463 219.739 433.022 225.993 433.459C226.535 433.535 227.071 433.616 227.612 433.692C227.612 434.228 227.606 434.758 227.606 435.294C227.368 435.638 226.325 435.889 225.958 436.046C224.561 436.658 223.157 437.252 221.76 437.852C218.347 439.32 215.319 440.363 211.58 440.573C204.679 440.963 197.749 441.243 190.842 440.858C189.905 440.806 189.91 442.263 190.842 442.315C195.152 442.554 199.467 442.536 203.776 442.385C207.538 442.251 211.469 442.321 215.191 441.686C218.551 441.109 221.725 439.437 224.829 438.103C226.983 437.176 230.239 436.425 230.25 433.599C230.25 433.366 230.116 433.069 229.889 432.969C224.328 430.598 217.299 432.865 211.749 434.31C204.306 436.25 196.992 438.679 189.293 439.384C188.361 439.472 188.35 440.934 189.287 440.847Z" fill="black"/>
<path d="M208.924 164.33C210.45 197.318 206.717 230.376 197.877 262.193C197.627 263.096 199.03 263.486 199.281 262.578C208.156 230.644 211.906 197.435 210.38 164.324C210.34 163.398 208.884 163.392 208.924 164.33Z" fill="black"/>
<path d="M152.413 19.6543C146.379 25.2883 142.693 32.8565 137.242 38.9974C131.692 45.2605 125.117 50.3177 118.228 55.0078C117.459 55.5322 118.187 56.7965 118.962 56.2663C125.682 51.6869 132.111 46.7928 137.621 40.751C143.374 34.4413 147.183 26.5234 153.437 20.6797C154.125 20.0388 153.094 19.0134 152.413 19.6543Z" fill="black"/>
<path d="M131.034 49.8168C125.869 53.9067 120.703 57.9909 115.538 62.0809C114.804 62.6635 115.84 63.6889 116.568 63.1121C121.734 59.0221 126.9 54.938 132.065 50.848C132.793 50.2654 131.756 49.2458 131.034 49.8168Z" fill="black"/>
<path d="M212.477 127.94C217.887 130.306 222.36 134.978 226.547 139.021C231.7 143.997 237.349 148.372 242.526 153.313C242.573 152.934 242.625 152.55 242.672 152.171C239.358 153.814 236.715 156.686 234.868 159.856C233.855 161.592 231.357 165.95 232.987 167.779C233.191 168.012 233.611 168.059 233.867 167.896C233.954 167.838 234.047 167.779 234.135 167.727C234.49 167.5 234.566 167.103 234.397 166.731C234.362 166.655 234.327 166.579 234.292 166.503C233.902 165.653 232.644 166.393 233.034 167.237C233.069 167.313 233.104 167.389 233.139 167.465C233.226 167.133 233.314 166.801 233.401 166.468C234.478 165.775 234.507 164.051 235.002 162.874C235.556 161.54 236.26 160.281 237.087 159.098C238.73 156.756 240.838 154.711 243.412 153.435C243.831 153.226 243.883 152.596 243.557 152.293C238.2 147.184 232.376 142.605 227.024 137.466C222.93 133.533 218.498 129 213.217 126.693C212.366 126.315 211.621 127.567 212.477 127.94Z" fill="black"/>
<path d="M243.225 153.692C244.611 154.851 246.731 155.935 247.89 157.286C248.95 157.677 249.171 158.481 248.56 159.699C248.315 160.427 248.076 161.149 247.832 161.878C247.407 163.148 246.987 164.418 246.562 165.694C246.137 166.976 246.125 168.397 244.699 168.857C244.25 169.003 242.8 168.607 242.323 168.572C239.568 168.356 236.767 168.024 234.228 166.871C233.384 166.486 232.638 167.745 233.494 168.129C236.313 169.399 239.283 169.72 242.323 170.029C244.693 170.267 245.957 171.118 247.057 168.811C247.942 166.964 248.402 164.767 249.055 162.816C249.457 161.61 250.79 159.238 250.452 157.921C250.283 157.251 249.899 157.001 249.41 156.57C247.82 155.16 245.893 154.047 244.25 152.666C243.54 152.066 242.503 153.091 243.225 153.692Z" fill="black"/>
<path d="M251.268 159.984C253.766 162.512 257.382 162.571 259.496 165.705C261.628 168.863 263.258 172.516 264.778 175.994C268.133 183.679 270.427 191.772 271.743 200.051C272.04 199.754 272.343 199.451 272.64 199.154C270.136 198.81 269.134 196.031 268.086 194.073C267.055 192.145 266.03 190.216 265 188.288C263.322 185.147 261.843 180.929 258.943 178.68C257.097 177.247 254.523 176.699 252.514 178.098C250.371 179.583 248.822 186.487 245.351 185.45C244.454 185.182 244.07 186.586 244.967 186.854C247.016 187.466 248.6 186.097 249.829 184.565C250.796 183.359 251.256 181.902 252.135 180.655C255.024 176.536 258.763 179.974 260.486 182.951C262.635 186.668 264.557 190.542 266.578 194.329C267.894 196.794 269.123 200.132 272.262 200.563C272.838 200.645 273.252 200.255 273.159 199.666C271.819 191.259 269.461 183.067 266.042 175.26C264.423 171.561 262.717 167.488 260.259 164.254C258.099 161.411 254.674 161.365 252.304 158.958C251.64 158.288 250.61 159.32 251.268 159.984Z" fill="black"/>
<path d="M247.779 166.871C249.328 168.618 249.759 170.023 249.148 172.272C248.711 173.874 248.001 175.464 247.436 177.026C246.358 180.02 245.281 183.009 244.204 186.004C243.883 186.889 245.293 187.268 245.607 186.388C247.191 181.99 248.798 177.591 250.353 173.186C251.448 170.098 250.971 168.281 248.804 165.839C248.187 165.134 247.156 166.171 247.779 166.871Z" fill="black"/>
<path d="M258.419 181.284C259.357 181.284 259.357 179.828 258.419 179.828C257.481 179.828 257.481 181.284 258.419 181.284Z" fill="black"/>
<path d="M258.221 179.839C257.767 183.044 253.638 184.174 253.306 187.594C253.265 187.99 253.673 188.317 254.034 188.322C255.647 188.34 257.219 188.06 258.698 187.39C259.624 186.971 261.441 186.167 261.692 185.042C261.762 184.716 261.639 184.401 261.36 184.221C261.307 184.186 261.255 184.157 261.208 184.122C260.935 183.947 260.556 184.017 260.329 184.238C260.294 184.273 260.259 184.308 260.224 184.343C259.543 184.99 260.574 186.021 261.255 185.374C261.29 185.339 261.325 185.304 261.36 185.27C261.069 185.31 260.772 185.345 260.48 185.386C260.533 185.421 260.585 185.45 260.632 185.485C260.521 185.211 260.411 184.937 260.3 184.664C260.154 185.316 257.936 186.173 257.464 186.342C256.352 186.744 255.222 186.889 254.045 186.878C254.29 187.122 254.529 187.361 254.773 187.606C255.07 184.535 259.193 183.388 259.636 180.241C259.753 179.309 258.349 178.913 258.221 179.839Z" fill="black"/>
<path d="M261.523 184.093C259.741 185.823 257.54 187.501 256.095 189.523C255.088 190.933 254.901 192.634 256.113 193.968C256.328 194.207 256.724 194.236 256.992 194.084C259.764 192.5 261.995 190.303 263.625 187.559C264.109 186.749 262.845 186.021 262.367 186.825C260.853 189.365 258.821 191.358 256.253 192.826C256.544 192.867 256.841 192.902 257.132 192.943C255.245 190.868 261.214 186.423 262.548 185.124C263.229 184.466 262.198 183.44 261.523 184.093Z" fill="black"/>
<path d="M264.534 191.614C263.159 194.015 261.639 196.316 259.968 198.524C260.347 198.478 260.731 198.425 261.109 198.379C259.974 197.254 259.694 195.739 260.259 194.254C260.591 193.38 259.188 193.001 258.856 193.869C258.11 195.821 258.605 197.942 260.079 199.41C260.44 199.771 260.946 199.631 261.22 199.264C262.886 197.056 264.406 194.755 265.786 192.354C266.258 191.539 265 190.804 264.534 191.614Z" fill="black"/>
<path d="M233.086 163.858C227.944 162.751 222.808 161.65 217.666 160.544C216.751 160.345 216.361 161.749 217.281 161.948C222.423 163.054 227.56 164.156 232.702 165.262C233.616 165.46 234.007 164.056 233.086 163.858Z" fill="black"/>
<path d="M193.026 71.1755C201.086 74.5663 206.682 82.2743 207.451 90.9844C207.533 91.9108 208.989 91.9166 208.907 90.9844C208.074 81.5635 202.117 73.436 193.41 69.7714C192.554 69.4043 192.176 70.8143 193.026 71.1755Z" fill="black"/>
<path d="M86.2567 380.954C85.3483 383.162 82.8558 384.257 80.9456 385.411C80.1536 385.889 79.6178 386.151 79.3208 387.1C78.9772 388.19 79.2917 389.542 79.5072 390.631C79.9323 392.793 80.2992 394.826 80.4856 397.034C80.8699 401.648 81.3882 406.251 82.0696 410.83C82.4248 413.231 82.8266 415.619 83.2518 418.002C83.8632 421.416 85.5113 426.386 81.6212 428.478C80.7942 428.92 81.528 430.179 82.3549 429.736C86.3557 427.586 85.6511 423.048 84.9523 419.255C83.8865 413.446 82.9839 407.608 82.3724 401.73C82.0987 399.085 82.0346 396.387 81.6561 393.76C81.4115 392.047 80.5205 390.165 80.6486 388.423C80.7884 386.454 83.2925 385.871 84.7426 384.77C85.9888 383.826 87.0546 382.807 87.6544 381.35C88.0155 380.476 86.612 380.097 86.2567 380.954Z" fill="black"/>
<path d="M64.5348 371.381C65.2511 372.978 66.3343 375.803 67.9998 376.683C69.3684 377.405 71.0747 376.159 72.187 375.436C73.177 374.795 73.9923 373.945 74.9532 373.286C76.048 372.535 77.8533 372.121 79.2451 372.628C79.8974 372.867 80.602 373.811 81.0737 374.283C82.3316 375.535 83.2459 376.998 84.3582 378.361C84.9114 379.037 86.4314 380.144 86.0296 381.181C85.6918 382.055 87.1011 382.433 87.433 381.565C88.2076 379.555 86.1286 378.273 85.0687 376.799C83.4556 374.551 81.4406 371.987 78.9714 370.63C76.7701 369.418 75.5588 370.787 73.9224 372.249C73.0663 373.013 70.0031 375.902 68.5414 375.261C67.3709 374.749 66.2819 371.731 65.7927 370.635C65.4083 369.797 64.1563 370.536 64.5348 371.381Z" fill="black"/>
<path d="M84.9756 376.054C88.1843 371.451 92.255 367.681 96.2266 363.766C96.8964 363.108 95.8656 362.077 95.1959 362.735C91.1311 366.743 86.9963 370.612 83.7177 375.319C83.1819 376.089 84.4456 376.817 84.9756 376.054Z" fill="black"/>
<path d="M67.5688 374.662C75.4598 369.109 81.7959 361.99 86.8973 353.839C87.3981 353.04 86.1344 352.312 85.6394 353.104C80.6719 361.046 74.5164 368.002 66.8351 373.409C66.0722 373.939 66.8001 375.198 67.5688 374.662Z" fill="black"/>
<path d="M49.3411 383.342C54.4659 393.457 58.9442 403.891 64.4475 413.813C66.6721 417.822 69.0306 421.877 72.0473 425.355C73.806 427.382 76.0655 429.608 78.9133 429.725C79.8509 429.765 79.8509 428.309 78.9133 428.268C75.7103 428.134 73.113 424.533 71.4008 422.215C68.6521 418.497 66.3867 414.419 64.2204 410.341C59.3868 401.24 55.2521 391.796 50.599 382.608C50.1739 381.769 48.916 382.509 49.3411 383.342Z" fill="black"/>
<path d="M50.267 382.445C53.0623 380.785 55.9275 379.188 58.5365 377.231C59.5556 376.467 60.534 375.657 61.4308 374.754C61.5881 374.597 64.5581 371.27 64.6571 371.602C64.925 372.5 66.3343 372.115 66.0606 371.218C65.0357 367.821 62.2403 371.678 61.326 372.744C58.1638 376.438 53.6447 378.751 49.5332 381.198C48.7296 381.664 49.4634 382.923 50.267 382.445Z" fill="black"/>
<path d="M161.497 171.374C160.88 177.597 156.145 182.613 150.037 183.761C149.454 183.871 149.396 184.6 149.716 184.978C149.972 185.281 150.229 185.578 150.479 185.881C151.085 186.598 152.11 185.561 151.51 184.85C151.254 184.547 150.997 184.25 150.747 183.947C150.642 184.355 150.532 184.757 150.427 185.165C157.217 183.889 162.278 178.214 162.953 171.368C163.046 170.442 161.585 170.454 161.497 171.374Z" fill="black"/>
<path d="M136.235 75.8828C143.304 77.6015 145.739 87.7798 147.323 93.7749C149.495 102.001 150.421 110.478 150.234 118.979C150.211 119.917 151.667 119.917 151.69 118.979C151.906 109.278 150.665 99.5952 147.853 90.3025C146.082 84.4589 143.368 76.1158 136.625 74.4787C135.711 74.2573 135.326 75.6614 136.235 75.8828Z" fill="black"/>
<path d="M140.346 132.164C140.253 134.914 140.393 137.687 140.474 140.437C140.521 142.173 140.579 143.909 140.643 145.646C140.672 146.438 141.202 148.768 140.818 149.468C139.991 150.965 133.771 150.295 132.245 150.301C129.776 150.307 127.307 150.231 124.844 150.079C119.073 149.718 113.348 148.897 107.629 148.04C106.715 147.9 106.319 149.304 107.245 149.444C113.086 150.324 118.944 151.169 124.844 151.536C127.959 151.734 131.081 151.792 134.202 151.74C135.763 151.711 137.324 151.658 138.884 151.582C139.618 151.548 141.091 151.682 141.749 151.105C142.553 150.4 142.239 148.955 142.192 148.023C142.105 146.17 142.046 144.323 141.988 142.47C141.883 139.05 141.685 135.595 141.802 132.175C141.837 131.226 140.381 131.226 140.346 132.164Z" fill="black"/>
<path d="M105.975 148.798C104.065 169.347 102.755 189.954 102.085 210.578C101.817 218.77 101.346 226.6 107.152 233.091C112.387 238.946 120.319 242.314 127.948 243.531C132.484 244.254 137.114 244.23 141.639 243.455C144.434 242.978 149.629 242.523 150.706 239.336C151.009 238.445 149.6 238.066 149.303 238.952C148.575 241.108 143.648 241.62 141.738 241.97C139.205 242.436 136.625 242.64 134.051 242.605C128.582 242.535 123.091 241.358 118.106 239.08C114.146 237.268 110.413 234.78 107.612 231.407C103.92 226.956 103.262 221.765 103.372 216.172C103.815 193.683 105.346 171.182 107.431 148.792C107.519 147.866 106.057 147.872 105.975 148.798Z" fill="black"/>
<path d="M149.198 149.31C149.029 164.954 149.699 180.579 150.444 196.2C150.811 203.884 151.213 211.569 151.498 219.26C151.766 226.443 151.766 233.854 148.039 240.246C147.567 241.055 148.825 241.79 149.297 240.98C152.546 235.404 153.14 229.042 153.053 222.709C152.942 214.645 152.401 206.57 152.017 198.513C151.225 182.123 150.479 165.723 150.66 149.31C150.665 148.378 149.21 148.372 149.198 149.31Z" fill="black"/>
<path d="M127.493 78.8546C130.667 80.2295 132.28 83.1892 133.608 86.2246C135.076 89.5804 136.293 93.0586 137.312 96.5776C139.333 103.522 140.468 110.665 140.812 117.889C140.859 118.822 142.314 118.827 142.268 117.889C141.883 109.826 140.532 101.85 138.098 94.1481C136.316 88.5201 134.202 80.1887 128.227 77.5961C127.377 77.2232 126.637 78.4817 127.493 78.8546Z" fill="black"/>
<path d="M161.491 375.384C163.518 371.696 168.87 372.511 172.381 372.686C176.662 372.896 180.936 373.21 185.222 373.356C193.399 373.63 201.587 373.205 209.35 370.426C210.223 370.111 209.85 368.707 208.965 369.021C199.589 372.377 189.677 372.191 179.871 371.655C175.614 371.422 171.193 370.816 166.931 371.13C164.205 371.334 161.62 372.138 160.239 374.655C159.785 375.471 161.043 376.205 161.491 375.384Z" fill="black"/>
<path d="M87.1361 325.733C94.4389 341.86 105.218 356.163 118.694 367.635C119.405 368.241 120.441 367.215 119.725 366.604C106.331 355.208 95.6502 341.021 88.394 324.999C88.0039 324.149 86.7518 324.888 87.1361 325.733Z" fill="black"/>
<path d="M150.916 195.18C158.929 190.956 165.213 184.192 168.806 175.872C169.173 175.022 167.921 174.276 167.548 175.138C164.042 183.254 158.003 189.802 150.182 193.921C149.355 194.358 150.089 195.617 150.916 195.18Z" fill="black"/>
<path d="M170.512 387.2C170.029 382.026 169.545 376.846 169.062 371.673C168.975 370.746 167.519 370.74 167.606 371.673C168.09 376.846 168.573 382.026 169.056 387.2C169.144 388.126 170.6 388.132 170.512 387.2Z" fill="black"/>
<path d="M169.115 371.649C169.155 377.673 169.924 383.593 171.427 389.425C171.659 390.334 173.063 389.949 172.83 389.041C171.357 383.331 170.605 377.551 170.57 371.649C170.565 370.717 169.109 370.711 169.115 371.649Z" fill="black"/>
<path d="M170.122 372.104C167.973 359.589 166.302 347.005 165.12 334.362C165.032 333.435 163.576 333.43 163.664 334.362C164.857 347.133 166.546 359.851 168.718 372.488C168.876 373.414 170.279 373.024 170.122 372.104Z" fill="black"/>
<path d="M51.921 380.709C55.0424 390.503 59.0316 399.999 63.9408 409.03C66.3867 413.533 68.9898 418.025 71.9657 422.209C74.0622 425.162 76.4906 427.743 80.0255 428.856C80.9223 429.136 81.3067 427.732 80.4098 427.452C75.9898 426.06 73.4798 421.987 71.1038 418.293C68.6288 414.442 66.3285 410.486 64.1971 406.431C59.8003 398.065 56.1897 389.326 53.3186 380.319C53.0449 379.433 51.6356 379.812 51.921 380.709Z" fill="black"/>
<path d="M187.919 437.922C194.086 436.64 200.253 435.358 206.42 434.076C209.355 433.465 212.285 432.812 215.237 432.288C217.223 431.932 219.215 431.647 221.23 431.536C222.161 431.484 225.953 431.029 226.529 431.88C227.053 432.649 228.317 431.921 227.787 431.146C226.552 429.328 223.099 429.975 221.23 430.08C217.572 430.284 213.968 431.029 210.386 431.769C202.769 433.342 195.152 434.939 187.534 436.518C186.614 436.71 186.999 438.114 187.919 437.922Z" fill="black"/>
<path d="M199.158 439.623C205.157 439.647 211.143 439.851 217.13 440.241C218.067 440.299 218.062 438.843 217.13 438.784C211.143 438.394 205.157 438.19 199.158 438.167C198.221 438.161 198.221 439.618 199.158 439.623Z" fill="black"/>
<path d="M209.251 436.733C213.921 437.112 218.592 437.292 223.28 437.275C224.217 437.269 224.217 435.813 223.28 435.819C218.597 435.836 213.921 435.661 209.251 435.277C208.319 435.201 208.325 436.658 209.251 436.733Z" fill="black"/>
<path d="M219.587 434.315C221.993 434.775 224.403 435.236 226.809 435.696C227.723 435.871 228.119 434.467 227.193 434.292C224.788 433.832 222.377 433.371 219.972 432.911C219.063 432.736 218.667 434.14 219.587 434.315Z" fill="black"/>
<path d="M197.12 411.186C198.227 410.819 199.339 410.656 200.504 410.685C201.441 410.708 201.441 409.251 200.504 409.228C199.217 409.199 197.953 409.38 196.736 409.782C195.845 410.073 196.223 411.483 197.12 411.186Z" fill="black"/>
<path d="M198.745 413.289C200.038 412.712 201.418 412.736 202.728 413.236C203.607 413.569 203.986 412.165 203.112 411.833C201.418 411.192 199.647 411.303 198.005 412.037C197.155 412.409 197.895 413.668 198.745 413.289Z" fill="black"/>
<path d="M200.882 415.497C201.534 415.322 202.181 415.229 202.856 415.235C203.211 415.241 203.561 415.27 203.91 415.328C204.015 415.351 204.114 415.369 204.219 415.392C204.592 415.584 204.673 415.45 204.446 414.99C204.801 414.844 205.157 414.699 205.518 414.553C205.494 414.541 205.471 414.536 205.448 414.524C204.597 414.151 203.858 415.404 204.714 415.782C204.737 415.794 204.761 415.8 204.784 415.812C205.168 415.981 205.762 415.887 205.855 415.375C206.251 413.149 201.662 413.784 200.504 414.087C199.589 414.332 199.974 415.736 200.882 415.497Z" fill="black"/>
<path d="M203.054 418.223C204.621 417.775 206.158 417.862 207.678 418.445C208.552 418.783 208.93 417.373 208.063 417.041C206.316 416.371 204.458 416.307 202.664 416.819C201.767 417.076 202.146 418.48 203.054 418.223Z" fill="black"/>
<path d="M73.9458 383.348C74.4641 384.082 75.0289 384.781 75.6695 385.417C75.9665 385.708 76.281 385.987 76.6071 386.25C76.7818 386.389 77.6145 386.844 77.6553 387.025C77.766 386.751 77.8766 386.477 77.9872 386.203C77.9639 386.221 77.9407 386.238 77.9174 386.255C78.1037 386.232 78.2901 386.209 78.4764 386.18C78.5347 386.215 78.5929 386.244 78.6453 386.279C78.6861 386.57 78.721 386.867 78.7618 387.159C78.7734 387.141 78.7909 387.124 78.8025 387.106C79.3558 386.349 78.0979 385.62 77.5447 386.372C77.533 386.389 77.5155 386.407 77.5039 386.424C77.3059 386.692 77.4166 387.083 77.6204 387.304C77.8999 387.607 78.3774 387.718 78.721 387.456C78.9947 387.252 79.1345 386.978 79.0529 386.634C78.8666 385.813 77.7485 385.341 77.1545 384.811C76.4149 384.152 75.7627 383.418 75.1978 382.614C74.6679 381.851 73.4042 382.573 73.9458 383.348Z" fill="black"/>
<path d="M72.7868 385.073C74.0564 386.885 75.5764 388.44 77.3468 389.769C78.098 390.328 78.826 389.064 78.0805 388.51C76.5198 387.345 75.1629 385.935 74.0447 384.339C73.5148 383.575 72.251 384.304 72.7868 385.073Z" fill="black"/>
<path d="M72.4431 388.446C74.0912 390.94 76.0887 393.13 78.4356 394.977C78.7267 394.599 79.0237 394.214 79.3149 393.835C79.1052 393.725 78.8898 393.608 78.6801 393.497C77.8532 393.061 77.1136 394.313 77.9464 394.756C78.156 394.867 78.3715 394.983 78.5811 395.094C79.2741 395.461 80.1418 394.488 79.4605 393.952C77.2126 392.181 75.2792 390.101 73.6952 387.712C73.1827 386.931 71.9248 387.66 72.4431 388.446Z" fill="black"/>
<path d="M73.573 394.196C74.8775 396.399 76.578 398.263 78.6338 399.784C79.385 400.343 80.113 399.079 79.3675 398.525C77.5214 397.156 76.0015 395.437 74.8309 393.462C74.3534 392.658 73.0955 393.387 73.573 394.196Z" fill="black"/>
<path d="M74.3826 399.283C75.6405 400.914 77.108 402.306 78.8259 403.448C79.6063 403.973 80.3342 402.708 79.5597 402.19C78.0689 401.194 76.7411 399.97 75.6405 398.549C75.0756 397.82 73.8119 398.543 74.3826 399.283Z" fill="black"/>
<path d="M75.4483 404.066C76.5431 405.161 77.6321 406.263 78.7269 407.358C79.3907 408.022 80.4157 406.991 79.7576 406.327C78.6628 405.231 77.5738 404.13 76.479 403.035C75.8151 402.371 74.7844 403.402 75.4483 404.066Z" fill="black"/>
<path d="M78.529 344.126C82.0522 339.139 86.152 334.665 90.7934 330.703C91.5039 330.091 90.4731 329.066 89.7626 329.672C85.0281 333.721 80.8642 338.306 77.2711 343.392C76.7295 344.161 77.9932 344.889 78.529 344.126Z" fill="black"/>
<path d="M80.305 346.253C83.3682 341.388 86.8974 336.984 90.8341 332.8C91.4747 332.119 90.4497 331.088 89.8033 331.769C85.7792 336.046 82.1802 340.543 79.0471 345.519C78.5521 346.311 79.81 347.045 80.305 346.253Z" fill="black"/>
<path d="M92.983 330.872C111.945 307.381 132.152 284.321 147.183 258.01C147.649 257.194 146.391 256.46 145.925 257.275C130.953 283.482 110.838 306.443 91.9522 329.841C91.3699 330.569 92.3948 331.606 92.983 330.872Z" fill="black"/>
<path d="M152.803 31.0797C149.873 33.0897 148.284 36.8184 149.594 40.2792C150.823 43.536 154.532 45.5868 157.939 44.9459C161.427 44.2876 164.054 40.8443 163.85 37.3078C163.623 33.4567 160.298 30.7126 156.699 30.0718C155.784 29.9086 155.388 31.3127 156.314 31.4759C158.993 31.9536 161.556 33.6199 162.254 36.4106C162.965 39.2421 161.206 42.2717 158.516 43.2563C151.696 45.7499 147.899 36.2067 153.536 32.344C154.305 31.8138 153.577 30.5495 152.803 31.0797Z" fill="#FFECDD"/>
<path d="M138.657 158.23C138.255 159.098 137.813 160.188 138.203 161.138C138.704 162.373 140.136 161.831 140.713 162.74C141.115 163.381 140.614 164.616 140.952 165.373C141.371 166.311 143.863 166.69 143.776 167.593C143.957 167.36 144.131 167.127 144.312 166.888C143.986 167.01 143.66 167.133 143.334 167.261C142.466 167.587 142.844 168.997 143.718 168.665C144.044 168.543 144.37 168.42 144.696 168.292C145.028 168.17 145.197 167.937 145.232 167.587C145.319 166.707 145.034 165.868 144.283 165.332C143.269 164.61 142.431 165.297 142.21 163.8C142.099 163.037 142.291 162.28 141.773 161.61C141.004 160.619 139.03 160.864 139.915 158.959C140.305 158.12 139.053 157.38 138.657 158.23Z" fill="black"/>
<path d="M117.564 171.806C117.127 170.553 118.024 169.644 119.271 169.638C119.736 169.638 120.162 169.836 120.639 169.749C121.6 169.58 122.019 168.852 122.258 167.978C122.497 167.08 122.567 166.591 123.632 166.329C124.174 166.201 124.675 166.311 125.216 166.096C126.084 165.752 126.532 165.181 126.573 164.255C126.614 163.317 125.158 163.317 125.117 164.255C125.088 164.93 122.275 164.913 121.652 165.542C121.268 165.933 121.117 166.451 120.983 166.964C120.924 167.179 120.948 167.611 120.814 167.785C120.459 168.269 119.521 168.094 119.067 168.147C117.034 168.356 115.404 170.023 116.167 172.19C116.469 173.076 117.879 172.697 117.564 171.806Z" fill="black"/>
<path d="M126.754 182.211C126.731 183.143 127.074 183.813 127.552 184.588C127.785 184.966 128.25 185.52 128.303 185.969C128.379 186.621 127.889 187.076 127.779 187.676C127.656 188.322 127.761 188.87 128.221 189.371C128.711 189.901 131.116 190.554 130.76 191.41C130.399 192.273 131.809 192.651 132.164 191.795C133.189 189.354 129.246 189.412 129.421 187.472C129.503 186.539 129.951 186.231 129.572 185.188C129.194 184.145 128.186 183.393 128.216 182.211C128.233 181.273 126.777 181.273 126.754 182.211Z" fill="black"/>
<path d="M111.42 204.071C111.339 203.593 111.228 203.01 111.304 202.515C111.508 201.257 112.23 201.356 113.237 201.233C113.913 201.152 114.571 201.169 115.171 200.767C115.642 200.453 115.969 200.016 116.044 199.445C116.184 198.419 115.171 196.8 117.04 196.642C117.966 196.566 117.978 195.104 117.04 195.186C115.957 195.279 115.031 195.803 114.565 196.829C114.39 197.213 114.303 197.644 114.332 198.064C114.344 198.274 114.594 198.804 114.553 198.996C114.39 199.713 113.552 199.753 113.004 199.777C110.157 199.899 109.58 201.915 110.011 204.455C110.174 205.382 111.578 204.991 111.42 204.071Z" fill="black"/>
<path d="M121.722 210.142C122.165 210.031 122.101 212.507 122.2 212.816C122.375 213.346 122.701 213.76 123.126 214.115C124.5 215.257 127.103 215.472 126.538 217.919C126.329 218.834 127.732 219.219 127.942 218.304C128.577 215.548 126.672 214.569 124.64 213.375C123.044 212.431 123.999 211.161 123.399 209.786C123.015 208.907 122.229 208.516 121.326 208.732C120.424 208.959 120.808 210.363 121.722 210.142Z" fill="black"/>
<path d="M134.633 226.723C135.064 225.802 135.681 225.249 136.823 225.295C137.038 225.307 137.691 225.697 137.941 225.738C138.477 225.82 139.018 225.727 139.397 225.301C139.601 225.074 139.618 224.771 139.77 224.503C140.34 223.501 140.795 223.355 141.866 223.227C142.769 223.122 143.45 223.076 144.271 222.639C145.098 222.202 144.364 220.943 143.537 221.38C142.314 222.027 140.859 221.555 139.647 222.231C139.339 222.406 139.065 222.604 138.844 222.883C138.762 222.988 138.36 224.113 138.366 224.107C137.743 224.456 136.357 223.419 135.501 223.658C134.423 223.955 133.818 225.045 133.375 225.977C132.979 226.828 134.237 227.573 134.633 226.723Z" fill="black"/>
<path d="M141.249 209.238C140.655 208.19 142.332 208.568 142.78 208.662C143.217 208.749 143.66 208.801 144.085 208.621C145.384 208.073 145.052 206.419 146.863 206.5C147.8 206.541 147.8 205.084 146.863 205.044C145.943 205.003 145.052 205.283 144.394 205.947C144.003 206.337 143.788 207.188 143.171 207.257C142.792 207.298 142.233 206.978 141.837 206.943C140.189 206.815 139.199 208.574 139.991 209.972C140.451 210.788 141.709 210.054 141.249 209.238Z" fill="black"/>
<path d="M111.484 225.074C110.925 223.699 114.187 223.565 114.944 223.256C115.415 223.064 115.852 222.807 116.161 222.4C116.306 222.207 116.405 222.009 116.487 221.782C116.545 221.642 116.58 221.497 116.586 221.345C116.679 220.978 116.516 220.681 116.091 220.454C115.771 221.333 117.18 221.718 117.494 220.838C117.791 220.017 116.935 219.3 116.132 219.498C114.885 219.807 115.514 221.462 114.373 221.91C113.237 222.359 112.038 222.231 111.001 222.971C110.186 223.553 109.679 224.474 110.081 225.453C110.425 226.315 111.834 225.942 111.484 225.074Z" fill="black"/>
<path d="M128.536 232.258C128.35 233.254 128.641 234.081 129.369 234.792C129.963 235.375 133.335 236.726 132.048 237.851C131.535 238.299 131.984 239.051 132.56 239.092C133.282 239.144 133.841 239.459 134.325 239.983C134.959 240.677 135.99 239.645 135.355 238.952C134.587 238.113 133.69 237.717 132.566 237.635C132.735 238.049 132.909 238.463 133.078 238.876C133.894 238.16 133.964 237.035 133.451 236.103C132.793 234.891 129.66 234.151 129.939 232.636C130.108 231.727 128.705 231.337 128.536 232.258Z" fill="black"/>
<path d="M141.621 191.439C141.767 191.09 141.913 190.74 142.058 190.385C141.889 190.554 141.72 190.723 141.552 190.892C142.419 190.6 143.322 191.113 144.184 190.752C144.923 190.443 145.034 189.581 145.779 189.319C146.467 189.074 147.061 189.255 147.672 188.748C148.214 188.299 148.447 187.688 148.196 187.029C147.864 186.161 146.461 186.54 146.793 187.414C146.898 187.693 144.912 188.014 144.644 188.183C144.032 188.561 143.974 189.319 143.223 189.43C142.536 189.529 141.854 189.15 141.167 189.488C140.573 189.785 140.468 190.461 140.224 191.049C139.863 191.917 141.272 192.296 141.621 191.439Z" fill="black"/>
<path d="M108.462 173.507C108.031 174.223 108.113 174.882 108.666 175.528C109.534 176.536 111.351 175.994 110.978 177.766C110.774 178.721 110.192 179.158 110.623 180.213C110.821 180.696 111.187 181.052 111.578 181.384C111.805 181.576 114.571 183.196 113.383 183.662C112.521 184 112.9 185.41 113.767 185.066C114.612 184.734 115.113 184.151 115.095 183.201C115.072 181.78 113.925 181.454 113.034 180.62C111.164 178.867 113.29 178.098 112.707 176.361C112.498 175.732 109.772 174.136 109.72 174.229C110.203 173.437 108.945 172.703 108.462 173.507Z" fill="black"/>
<path d="M112.463 155.358C111.974 156.011 111.974 156.791 112.358 157.508C112.573 157.91 112.923 158.283 113.296 158.545C113.668 158.801 114.344 158.906 114.489 159.308C114.722 159.955 113.884 160.637 114.192 161.423C114.321 161.755 114.583 162 114.903 162.146C115.031 162.204 115.136 162.215 115.27 162.245C115.45 162.285 115.631 162.291 115.806 162.274C116.091 162.303 116.277 162.146 116.365 161.796C115.52 162.192 116.254 163.451 117.098 163.054C117.768 162.74 117.809 161.965 117.407 161.4C117.227 161.138 116.97 160.963 116.668 160.87C116.435 160.794 116.225 160.835 115.986 160.811C115.561 160.771 115.689 160.974 115.631 160.73C115.573 160.479 116.039 159.914 116.097 159.617C116.167 159.262 116.155 158.889 115.992 158.557C115.584 157.735 112.841 157.257 113.709 156.104C114.286 155.346 113.022 154.618 112.463 155.358Z" fill="black"/>
<path d="M176.673 31.6157C176.644 32.408 176.615 33.2062 176.58 33.9986C176.545 34.9367 178.001 34.9367 178.036 33.9986C178.065 33.2062 178.094 32.408 178.129 31.6157C178.17 30.6776 176.714 30.6834 176.673 31.6157Z" fill="black"/>
<path d="M182.66 33.4977C182.666 33.9871 182.672 34.4765 182.683 34.9659C182.689 35.2514 182.905 35.6243 183.219 35.6709C184.762 35.8981 184.722 37.9606 183.085 37.914C182.148 37.8849 182.148 39.3414 183.085 39.3706C184.425 39.4114 185.712 38.4559 185.851 37.0692C185.991 35.7059 184.931 34.4649 183.604 34.2668C183.784 34.4998 183.959 34.7329 184.139 34.9718C184.134 34.4823 184.128 33.9929 184.116 33.5035C184.104 32.5597 182.649 32.5597 182.66 33.4977Z" fill="black"/>
<path d="M187.994 32.6588C188.047 33.3696 188.029 34.0803 187.948 34.7911C187.901 35.1814 188.315 35.5193 188.676 35.5193C189.107 35.5193 189.357 35.1814 189.404 34.7911C189.491 34.0803 189.503 33.3696 189.45 32.6588C189.386 31.7325 187.925 31.7267 187.994 32.6588Z" fill="black"/>
<path d="M160.333 69.5384C160.921 68.1285 161.748 66.8292 162.086 65.3202C162.289 64.4055 160.886 64.0151 160.682 64.9357C160.35 66.433 159.512 67.7439 158.929 69.1539C158.568 70.0162 159.977 70.3949 160.333 69.5384Z" fill="black"/>
<path d="M165.684 66.3629C165.702 68.0467 165.702 69.7304 165.679 71.4142C165.667 72.3522 167.123 72.3522 167.135 71.4142C167.158 69.7304 167.158 68.0467 167.14 66.3629C167.135 65.4249 165.679 65.4249 165.684 66.3629Z" fill="black"/>
<path d="M170.885 66.229C171.31 67.7671 171.735 69.2994 172.16 70.8374C172.411 71.7405 173.814 71.356 173.564 70.4529C173.139 68.9148 172.714 67.3826 172.288 65.8445C172.038 64.9356 170.634 65.3201 170.885 66.229Z" fill="black"/>
<path d="M175.619 65.0757C176.743 66.4507 177.786 67.8781 178.764 69.358C179.277 70.1387 180.54 69.4104 180.022 68.6239C178.974 67.0391 177.85 65.5185 176.65 64.0445C176.056 63.322 175.031 64.3533 175.619 65.0757Z" fill="black"/>
</svg>
