<svg width="301" height="416" viewBox="0 0 301 416" fill="none" xmlns="http://www.w3.org/2000/svg">
<path d="M151.008 319.553C144.606 310.262 132.367 310.664 123.273 293.922C110.294 270.038 172.416 217.068 109.566 196.638C135.949 176.686 138.879 158.878 154.375 133.147C189.828 74.282 266.81 -1.06913 296.642 38.0191C315.225 62.3633 251.361 104.632 235.161 130.677C219.724 155.493 209.774 174.764 215.879 186.479C223.551 201.211 232.895 185.11 258.369 175.335C275.898 168.606 278.886 215.273 261.41 241.948C243.94 268.622 234.037 275.91 241.819 288.085C248.501 298.529 267.801 288.551 265.022 309.225C262.045 331.379 221.442 356.096 187.521 359.294C175.212 360.453 159.81 358.135 144.105 353.235C156.88 342.837 156.321 327.266 151.008 319.553Z" fill="#FFECDD"/>
<path d="M21.4341 250.61C61.8214 232.196 63.8195 185.092 101.877 194.459C104.626 195.135 107.183 195.863 109.566 196.638C105.133 199.988 100.042 203.401 94.1114 206.926C77.3343 216.887 62.8 248.49 61.6466 265.721C60.3767 284.758 65.0428 299.561 79.1052 314.922C94.4609 331.699 119.65 345.598 144.105 353.23C139.543 356.94 133.287 359.999 124.945 361.799C25.7973 383.184 -20.4386 269.7 21.4341 250.61Z" fill="#F8BAB4"/>
<path d="M61.6467 265.721C62.7943 248.489 77.3344 216.887 94.1114 206.925C100.042 203.407 105.133 199.993 109.566 196.638C172.422 217.062 110.3 270.037 123.273 293.921C132.367 310.664 144.606 310.262 151.008 319.553C156.32 327.266 156.874 342.837 144.11 353.235C119.65 345.604 94.4668 331.705 79.1111 314.928C65.0487 299.56 60.3768 284.758 61.6467 265.721Z" fill="#F8BAB4"/>
<path d="M282.74 153.48C291.433 153.48 298.48 146.433 298.48 137.74C298.48 129.047 291.433 122 282.74 122C274.047 122 267 129.047 267 137.74C267 146.433 274.047 153.48 282.74 153.48Z" stroke="#FFECDD" stroke-width="3.5706" stroke-miterlimit="10"/>
<path d="M169.923 55.0588C169.923 55.0588 175.061 57.2606 178.593 56.175C183.771 54.5797 186.167 49.0396 186.167 49.0396L188.603 60.7569C188.603 60.7569 185.998 62.0056 181.371 61.9189C175.341 61.8068 170.081 57.495 170.081 57.495L169.923 55.0588Z" fill="#F8BAB4"/>
<path d="M34.1835 59.2431C34.1835 59.2431 36.7573 67.5405 36.7573 69.9819C36.7573 72.4232 35.2793 78.1468 34.5046 79.1151C33.735 80.0784 33.5413 80.6594 33.735 80.532C33.9287 80.4046 48.5256 82.1374 54.504 84.2628C60.4824 86.3881 68.0713 88.8906 73.4127 88.5695C78.7489 88.2484 98.7483 84.3902 98.7483 84.3902C98.7483 84.3902 109.166 87.7336 116.689 93.2635C124.211 98.7934 127.106 102.203 127.106 102.203L143.247 109.084L143.635 128.568C143.635 128.568 155.658 156.544 158.171 160.978C160.678 165.417 162.798 169.337 165.117 170.56C167.431 171.783 166.983 172.94 171.162 175.381C175.341 177.823 176.565 177.889 176.565 177.889L173.415 183.612C173.415 183.612 186.213 183.806 192.772 186.635C199.331 189.463 203.123 192.679 203.832 192.358C204.54 192.037 214.509 174.739 216.63 171.457C218.75 168.18 230.136 147.436 230.803 144.108C231.471 140.78 229.473 117.325 228.143 110.006C226.813 102.687 224.769 91.2554 219.336 82.6114C213.903 73.9675 205.84 72.4079 200.82 71.3376C195.799 70.2673 190.04 68.7026 190.04 68.7026C190.04 68.7026 185.677 72.7341 180.249 71.7453C174.816 70.7565 170.953 68.7026 170.953 68.7026C170.953 68.7026 159.598 65.823 148.568 64.6711C137.544 63.5192 110.715 61.5417 105.201 61.2971C99.6861 61.0525 34.1835 59.2431 34.1835 59.2431Z" fill="#FFECDD"/>
<path d="M188.562 29.7487C189.092 28.1636 191.432 23.6479 193.873 27.0168C194.576 27.9852 194.592 29.5397 194.581 30.6915C194.556 33.2603 193.435 38.4079 189.739 37.1949C189.439 37.0981 189.006 37.3121 188.955 37.6383C188.185 42.7758 187.186 48.2343 183.603 52.2352C179.526 56.7917 173.175 57.4084 168.221 53.8968C159.934 48.0203 159.001 36.3642 158.013 27.2309C157.926 26.4256 156.652 26.4154 156.738 27.2309C157.839 37.409 159.2 51.3025 169.862 56.3177C174.424 58.4634 179.689 57.5664 183.425 54.2128C188.017 50.0895 189.311 43.8002 190.183 37.9747C189.923 38.1225 189.658 38.2703 189.398 38.4181C194.979 40.2478 196.447 31.8332 195.606 28.1075C195.157 26.1249 193.858 24.5093 191.671 24.7437C189.22 25.0087 188.027 27.3277 187.334 29.4072C187.074 30.1921 188.302 30.5234 188.562 29.7487Z" fill="black"/>
<path d="M173.461 32.0015C173.634 32.9138 173.802 33.8261 173.975 34.7384C174.128 35.5437 175.357 35.2022 175.204 34.4021C175.03 33.4898 174.862 32.5775 174.689 31.6651C174.541 30.8548 173.313 31.1963 173.461 32.0015Z" fill="black"/>
<path d="M162.126 34.6721C162.273 35.3958 162.391 36.1196 162.467 36.8484C162.549 37.6537 163.828 37.6639 163.741 36.8484C163.655 36.0024 163.527 35.1614 163.354 34.3306C163.186 33.5305 161.957 33.8719 162.126 34.6721Z" fill="black"/>
<path d="M167.141 33.77C167.574 34.9422 167.859 36.1144 167.992 37.3631C168.206 37.1491 168.415 36.9401 168.629 36.726C166.937 36.6292 165.724 38.8004 166.264 40.258C166.86 41.8788 168.644 42.2305 170.163 41.838C170.958 41.6341 170.622 40.4007 169.827 40.6097C169.302 40.7473 168.644 40.834 168.15 40.5587C167.151 40.0032 167.283 37.9238 168.634 38.0002C168.95 38.0206 169.307 37.6944 169.271 37.3631C169.128 36.0074 168.843 34.7179 168.374 33.4336C168.089 32.6691 166.855 32.9953 167.141 33.77Z" fill="black"/>
<path d="M179.019 37.5771C179.648 36.6032 179.641 35.4792 179.003 35.0666C178.365 34.654 177.337 35.109 176.707 36.0829C176.078 37.0569 176.085 38.1809 176.723 38.5935C177.361 39.0061 178.389 38.551 179.019 37.5771Z" fill="#F8BAB4"/>
<path d="M164.452 41.2629C164.696 40.5433 164.004 39.6577 162.906 39.2848C161.808 38.912 160.719 39.1931 160.475 39.9127C160.231 40.6324 160.923 41.518 162.021 41.8909C163.119 42.2637 164.207 41.9826 164.452 41.2629Z" fill="#F8BAB4"/>
<path d="M171.04 46.0479C171.335 46.4505 171.524 46.8939 171.514 47.4036C171.509 47.638 171.376 47.8623 171.366 48.0764C171.417 48.0764 171.468 48.0815 171.519 48.0815C171.473 48.0203 171.432 47.9591 171.386 47.9031C171.305 47.7451 171.172 47.5973 171.07 47.4495C170.902 47.1997 170.138 46.3027 170.296 46.0122C170.433 45.7574 170.984 46.1396 171.177 46.2721C171.855 46.741 172.492 45.635 171.819 45.1712C171.06 44.6463 169.913 44.3456 169.276 45.2324C168.507 46.3027 169.541 47.5004 170.153 48.3669C170.454 48.8001 170.754 49.2945 171.325 49.3556C171.835 49.4117 172.268 49.0804 172.502 48.6472C173.048 47.6482 172.783 46.2925 172.141 45.4057C171.661 44.7482 170.555 45.3802 171.04 46.0479Z" fill="black"/>
<path d="M157.294 27.5011C164.475 29.0658 174.633 26.6856 177.747 19.3209C178.063 18.5768 176.967 17.9244 176.646 18.6788C173.756 25.493 164.281 27.7254 157.63 26.2728C156.835 26.0995 156.494 27.3278 157.294 27.5011Z" fill="black"/>
<path d="M158.222 64.7477C156.591 56.6388 155.994 48.2854 155.311 40.0542C154.99 36.1807 154.695 32.3072 154.409 28.4338C154.017 23.1434 153.665 17.5982 156.535 12.8736C162.329 3.34787 175.775 0.463142 185.937 3.18987C196.875 6.12556 204.836 15.4627 211.38 24.1678C217.501 32.3072 223.505 44.2335 235.36 43.8359C235.212 43.4741 235.059 43.1122 234.911 42.7503C232.129 45.5688 231.15 49.5238 229.111 52.8418C226.848 56.5267 223.816 59.6815 220.279 62.1585C213.893 66.6232 206.258 68.7995 198.628 69.9004C197.818 70.0176 198.164 71.2459 198.964 71.1287C206.696 70.0125 214.453 67.7751 220.921 63.2594C223.908 61.1749 226.558 58.6418 228.719 55.701C231.471 51.9652 232.557 46.9449 235.813 43.6474C236.191 43.2651 235.926 42.5414 235.365 42.5618C228.78 42.7809 223.587 38.4895 219.713 33.5763C216.15 29.0606 213.123 24.1627 209.494 19.6878C202.792 11.4261 194.704 3.34787 183.812 1.40603C174.414 -0.270781 163.405 2.41008 157.095 9.93788C150.949 17.2771 153.038 27.4399 153.731 36.2164C154.491 45.8288 155.092 55.6093 156.998 65.0738C157.156 65.8893 158.385 65.5478 158.222 64.7477Z" fill="black"/>
<path d="M34.6065 59.4472C28.2357 58.3667 21.6762 58.5145 15.3257 59.6867C10.9222 60.5022 4.82657 61.8324 1.90616 65.6244C0.0356798 68.0555 1.99202e-07 72.2195 1.99202e-07 75.1449C1.99202e-07 77.9838 -0.00509741 82.6422 1.61565 85.1039C2.41583 86.3169 3.75626 86.7909 4.58193 85.3332C6.03958 82.7696 5.21391 78.468 4.39844 75.8483C4.1538 75.0685 2.9255 75.3998 3.17014 76.1847C3.49123 77.2142 4.89283 84.5738 3.11918 84.4719C1.60037 84.3852 1.32514 77.4435 1.28437 76.0522C1.20792 73.3254 1.25379 70.0737 2.31899 67.5254C3.15485 65.5224 5.19353 64.3451 7.08949 63.4634C15.2136 59.6714 25.5497 59.1923 34.265 60.6755C35.0703 60.8131 35.4118 59.5848 34.6065 59.4472Z" fill="black"/>
<path d="M6.79392 74.4416C6.8245 77.0358 7.33417 79.5841 7.69604 82.1478C7.79797 82.8766 8.24138 84.5738 7.60429 84.9204C6.70218 85.4147 5.92239 84.1813 5.48408 83.6462C4.96931 83.0091 4.07229 83.9163 4.58196 84.5483C5.4484 85.6186 8.18532 87.5655 9.11292 85.2364C9.55123 84.1406 9.00589 82.372 8.8377 81.266C8.49622 78.998 8.08848 76.7402 8.063 74.4416C8.0579 73.621 6.78373 73.621 6.79392 74.4416Z" fill="black"/>
<path d="M16.9261 69.2225C18.0372 70.196 15.3207 71.4855 14.811 71.883C14.1383 72.4131 13.5063 72.989 12.915 73.6108C12.1353 74.4314 11.065 75.4966 10.7235 76.6128C10.0864 78.7024 11.6307 79.9766 13.6337 79.7064C14.9078 79.5382 15.3309 78.998 16.3706 78.2386C18.1086 76.9644 20.0963 76.0674 22.1604 75.4609C26.5691 74.1714 31.1917 74.2377 35.7125 74.7881C36.5229 74.8901 36.5178 73.6108 35.7125 73.514C29.0919 72.7036 21.7272 72.9839 16.0495 76.9135C15.4889 77.3008 14.8212 78.0041 14.1943 78.2743C13.2361 78.6871 11.5644 78.6616 12.1913 76.5006C12.6449 74.9461 15.2748 73.0909 16.4267 72.2704C17.762 71.3173 19.6019 69.8698 17.8283 68.3153C17.2116 67.7802 16.3094 68.6823 16.9261 69.2225Z" fill="black"/>
<path d="M33.4749 59.3706C36.0437 66.0167 38.3678 74.4364 32.5473 80.1192C32.9041 80.3282 33.2558 80.532 33.6125 80.741C33.4749 81.424 33.1284 80.95 33.5922 81.0621C33.7909 81.108 34.1324 81.0723 34.3312 81.0774C35.0702 81.1029 35.8092 81.1895 36.5431 81.2711C38.6532 81.5004 40.753 81.8215 42.8477 82.1579C47.4857 82.9122 52.1594 83.743 56.6853 85.0375C63.3008 86.9335 69.6665 89.3391 76.6694 88.7683C83.9933 88.1669 91.3173 86.3524 98.5393 85.0426C99.3445 84.8948 99.0031 83.6665 98.2029 83.8143C94.1459 84.5533 90.0889 85.2873 86.0269 86.0263C81.8425 86.7857 77.6072 87.7235 73.3311 87.6011C66.425 87.4024 60.0287 84.4157 53.3775 82.8918C48.5153 81.7756 43.5766 80.9143 38.6277 80.2568C37.8224 80.1498 32.6748 78.9113 32.3792 80.4046C32.2568 81.0111 32.9653 81.4902 33.4444 81.0264C39.6063 75.0021 37.4453 66.1441 34.6981 59.0393C34.4127 58.2748 33.1793 58.601 33.4749 59.3706Z" fill="black"/>
<path d="M33.9438 59.4318C39.0456 60.1708 44.2697 60.2116 49.4123 60.3849C58.1939 60.6754 66.9755 60.8589 75.7571 61.0933C97.2141 61.6641 118.707 62.3573 140.082 64.4011C150.316 65.3796 160.607 66.6028 170.612 69.039C171.407 69.2327 171.748 68.0044 170.948 67.8107C152.146 63.239 132.376 62.2146 113.121 61.2054C93.1266 60.1606 73.1119 59.8191 53.1023 59.2279C46.864 59.0445 40.4676 59.1056 34.2751 58.2086C33.4852 58.0863 33.1386 59.3146 33.9438 59.4318Z" fill="black"/>
<path d="M98.4934 84.9763C105.369 86.3881 112.188 90.8987 117.815 94.8741C124.186 99.3694 129.155 104.527 133.294 111.107C141.285 123.808 146.856 137.921 153.043 151.539C155.541 157.038 157.951 162.91 161.601 167.767C162.085 168.414 163.196 167.782 162.701 167.125C159.404 162.726 157.161 157.477 154.883 152.513C151.682 145.54 148.66 138.492 145.434 131.535C139.328 118.36 132.937 104.823 121.179 95.7762C117.03 92.5857 112.576 89.7774 107.917 87.3973C105.063 85.9396 102 84.3953 98.8298 83.748C98.0347 83.5849 97.6882 84.8132 98.4934 84.9763Z" fill="black"/>
<path d="M2.65531 72.1073C6.03441 73.0654 8.23618 76.2713 10.1627 78.9878C12.4206 82.1783 14.6733 85.3637 16.9311 88.5543C21.4417 94.9302 25.9574 101.311 30.4679 107.687C30.7483 108.085 31.5331 108.126 31.63 107.534C31.737 106.918 31.8389 106.296 31.946 105.679C31.6351 105.807 31.3242 105.934 31.0082 106.061C31.6911 106.382 32.3741 106.698 33.0519 107.02C33.4801 107.218 34.005 106.984 34.0101 106.469C34.0203 105.521 34.0305 104.578 34.0407 103.63C33.7706 103.834 33.5056 104.038 33.2354 104.247C34.3006 104.436 35.1773 104.797 36.0641 105.409C36.482 105.694 37.007 105.307 37.0223 104.859C37.0579 103.768 37.3841 103.472 38.485 103.498C38.8367 103.508 39.1119 103.197 39.1221 102.861C39.1374 102.326 39.1578 101.79 39.1731 101.26C38.959 101.474 38.75 101.683 38.536 101.897C39.0508 101.857 39.5604 101.821 40.0752 101.78C40.8856 101.719 40.8958 100.445 40.0752 100.506C39.5604 100.547 39.0508 100.582 38.536 100.623C38.1843 100.649 37.9091 100.893 37.8989 101.26C37.8836 101.795 37.8632 102.331 37.8479 102.861C38.062 102.647 38.271 102.438 38.485 102.224C37.6848 102.203 37.0325 102.29 36.2731 102.514C35.9978 102.596 35.8144 102.845 35.8042 103.131C35.7838 103.707 35.7685 104.283 35.7481 104.859C36.0692 104.675 36.3852 104.492 36.7063 104.308C35.6869 103.605 34.7899 103.233 33.5718 103.019C33.1692 102.947 32.7716 103.187 32.7665 103.635C32.7563 104.583 32.7461 105.526 32.736 106.474C33.057 106.291 33.373 106.107 33.6941 105.924C33.0112 105.603 32.3282 105.287 31.6504 104.966C31.314 104.808 30.789 104.904 30.7126 105.348C30.6055 105.965 30.5036 106.586 30.3966 107.203C30.7839 107.152 31.1713 107.101 31.5586 107.05C26.4568 99.8383 21.3551 92.6316 16.2584 85.4198C14.0107 82.2395 11.8752 78.9368 9.45939 75.8788C7.752 73.7178 5.70312 71.6486 2.98659 70.879C2.20679 70.6547 1.87042 71.883 2.65531 72.1073Z" fill="black"/>
<path d="M22.1298 75.7872C28.7198 84.1814 35.4576 92.489 41.5889 101.23C42.0578 101.897 43.1638 101.26 42.6898 100.588C36.4973 91.7551 29.6933 83.3659 23.0319 74.8851C22.5223 74.2378 21.6252 75.145 22.1298 75.7872Z" fill="black"/>
<path d="M3.10397 71.837C6.92138 69.518 10.958 67.7749 15.2698 66.5976C16.0597 66.3835 15.7234 65.1502 14.9334 65.3693C10.5247 66.5721 6.37094 68.3611 2.46688 70.7361C1.75844 71.1642 2.40062 72.2651 3.10397 71.837Z" fill="black"/>
<path d="M28.679 101.158C30.7636 99.5172 32.9501 98.0239 35.2334 96.6681C35.9367 96.2502 35.2996 95.1493 34.5912 95.5673C32.2161 96.9791 29.9481 98.5437 27.782 100.256C27.1347 100.766 28.0419 101.663 28.679 101.158Z" fill="black"/>
<path d="M26.4111 97.2441C27.8177 96.5204 29.1072 95.6336 30.2947 94.5939C30.9114 94.0536 30.0093 93.1566 29.3926 93.6918C28.2866 94.6601 27.0736 95.4705 25.7638 96.1433C25.035 96.5153 25.6822 97.6162 26.4111 97.2441Z" fill="black"/>
<path d="M24.3162 93.0547C25.3406 92.4839 26.2632 91.7499 27.0429 90.8682C27.5883 90.2566 26.6862 89.3545 26.1408 89.9661C25.4273 90.7714 24.6118 91.4288 23.6689 91.9538C22.9605 92.3564 23.5976 93.4573 24.3162 93.0547Z" fill="black"/>
<path d="M21.1411 88.702C22.1604 87.8509 23.1747 86.9997 24.194 86.1486C24.8209 85.6236 23.9188 84.7266 23.2919 85.2465C22.2726 86.0976 21.2583 86.9488 20.239 87.7999C19.6121 88.3299 20.5142 89.227 21.1411 88.702Z" fill="black"/>
<path d="M17.9811 85.0886C18.8832 83.8858 19.9484 82.8307 21.1257 81.9031C21.773 81.3986 20.8658 80.5016 20.2236 81.001C18.9495 81.9949 17.8435 83.1467 16.8751 84.4413C16.3909 85.1039 17.4969 85.741 17.9811 85.0886Z" fill="black"/>
<path d="M1.0601 84.6603C1.28946 106.744 3.26187 128.808 7.46154 150.504C9.39318 160.479 11.7835 170.361 14.6224 180.116C15.9985 184.846 17.4816 189.55 19.0616 194.214C20.4224 198.24 21.6507 202.74 24.4896 206.023C27.7769 209.82 32.8532 210.559 37.4402 208.841C42.2872 207.027 45.6816 202.888 48.7192 198.892C48.4287 198.969 48.1382 199.045 47.8477 199.122C49.9883 200.085 52.0117 201.395 54.193 202.266C56.3439 203.128 58.7699 203.097 61.0481 203.158C60.8442 202.888 60.6404 202.623 60.4314 202.353C54.8811 217.307 51.8843 233.04 50.2176 248.865C48.5306 264.874 47.6285 281.306 48.342 297.396C49.0403 313.17 51.9913 328.832 57.0319 343.796C61.6546 357.511 67.5311 371.711 77.2097 382.664C87.6477 394.478 101.546 403.774 116.52 408.723C117.3 408.983 117.637 407.749 116.857 407.495C103.315 403.025 90.8127 394.921 80.8691 384.738C70.4719 374.086 64.259 360.33 59.2999 346.462C54.0758 331.85 50.8394 316.529 49.815 301.04C48.7906 285.597 49.6213 269.823 50.9567 254.421C52.4806 236.837 55.5029 219.284 61.6597 202.689C61.8075 202.287 61.4252 201.894 61.043 201.884C58.8361 201.828 56.507 201.879 54.4377 200.997C52.4041 200.131 50.5081 198.938 48.4899 198.026C48.1433 197.873 47.8477 197.955 47.6183 198.255C44.4635 202.409 40.8092 206.792 35.5188 208.117C29.8156 209.55 25.4579 206.43 23.088 201.405C21.1156 197.221 19.8312 192.618 18.4245 188.215C17.1198 184.132 15.8915 180.024 14.7447 175.896C9.64293 157.528 6.15169 138.731 4.23024 119.766C3.04781 108.105 2.4515 96.3878 2.33428 84.6654C2.32408 83.8449 1.04991 83.8398 1.0601 84.6603Z" fill="black"/>
<path d="M9.89772 84.8438C9.97927 117.87 16.0647 151.264 27.9145 182.109C31.1509 190.534 34.8664 198.765 39.1119 206.731C39.4993 207.455 40.6002 206.813 40.2128 206.089C24.7342 177.079 15.9934 144.368 12.6092 111.759C11.6816 102.82 11.1923 93.8395 11.1719 84.8489C11.1719 84.0233 9.89772 84.0182 9.89772 84.8438Z" fill="black"/>
<path d="M46.6347 200.08C39.3821 214.764 37.8378 232.031 36.5891 248.132C35.1926 266.097 34.8766 284.201 36.1661 302.187C37.3638 318.858 40.2129 335.173 45.3045 351.105C48.8161 362.099 53.2808 372.842 60.3855 382.037C70.2476 394.809 84.1106 403.733 98.152 411.287C98.8757 411.674 99.5179 410.573 98.7942 410.186C86.2308 403.428 73.8357 395.625 64.3304 384.83C56.5987 376.043 51.5428 365.549 47.7815 354.55C36.9 322.752 35.3659 288.885 37.3536 255.563C37.899 246.414 38.6482 237.245 40.0447 228.183C41.487 218.815 43.5155 209.269 47.7407 200.722C48.0974 199.988 47.0017 199.341 46.6347 200.08Z" fill="black"/>
<path d="M97.6321 410.981C114.742 419.625 127.167 396.654 143.523 397.103C147.085 397.199 146.239 400.925 146.107 403.422C146.015 405.125 145.918 406.817 146.204 408.504C146.647 411.129 147.916 413.794 150.469 414.926C153.726 416.363 157.849 414.834 160.958 413.718C164.169 412.561 166.988 410.787 169.745 408.799C170.403 408.325 169.771 407.219 169.103 407.699C164.669 410.894 158.68 414.498 152.977 414.207C144.731 413.784 148.135 401.7 147.151 396.659C147.111 396.46 146.907 396.251 146.708 396.216C138.375 394.615 130.99 398.948 124.308 403.397C116.811 408.387 107.443 414.518 98.2743 409.885C97.5455 409.513 96.8982 410.614 97.6321 410.981Z" fill="black"/>
<path d="M170.163 408.244C171.442 405.665 166.32 407.332 165.586 407.5C165.856 407.704 166.121 407.908 166.391 408.117C166.391 407.464 166.636 406.934 167.115 406.521C167.604 406.022 166.957 405.099 166.346 405.522C165.566 406.057 164.781 406.368 163.853 406.516C164.123 406.72 164.388 406.924 164.659 407.133C164.653 406.368 164.847 405.838 165.367 405.273C165.8 404.804 165.377 404.055 164.745 404.207C163.838 404.427 162.972 404.702 162.11 405.048C162.37 405.308 162.635 405.573 162.895 405.833C163.053 404.946 163.379 404.223 163.925 403.514C164.2 403.158 163.879 402.709 163.542 402.576C162.783 402.286 162.12 402.286 161.366 402.592C160.617 402.892 160.943 404.126 161.703 403.82C162.197 403.535 162.701 403.53 163.201 403.805C163.073 403.494 162.946 403.183 162.819 402.867C162.197 403.672 161.84 404.488 161.662 405.492C161.585 405.915 161.947 406.475 162.447 406.277C163.313 405.93 164.179 405.655 165.082 405.436C164.873 405.079 164.669 404.727 164.46 404.371C163.726 405.171 163.374 406.047 163.379 407.133C163.379 407.581 163.782 407.811 164.185 407.75C165.235 407.581 166.106 407.225 166.983 406.628C166.728 406.297 166.468 405.961 166.213 405.629C165.5 406.358 165.178 407.112 165.112 408.122C165.087 408.555 165.54 408.82 165.917 408.738C166.126 408.692 169.103 407.877 169.184 408.004C169.184 407.79 169.184 407.576 169.184 407.362C169.144 407.444 169.103 407.53 169.062 407.612C168.695 408.331 169.796 408.978 170.163 408.244Z" fill="black"/>
<path d="M161.437 401.787C159.491 403.433 158.018 405.558 155.739 406.797C153.211 408.178 150.383 408.698 147.574 407.948C146.779 407.739 146.443 408.968 147.238 409.177C149.95 409.9 152.692 409.605 155.255 408.463C158.206 407.153 159.939 404.717 162.34 402.689C162.961 402.153 162.059 401.256 161.437 401.787Z" fill="black"/>
<path d="M154.022 409.37C154.613 409.931 155.209 410.492 155.801 411.047C156.066 411.297 156.326 411.547 156.591 411.791C156.769 411.959 157.319 412.326 157.37 412.551C157.427 412.342 157.477 412.138 157.534 411.929C157.508 411.954 157.483 411.98 157.462 412.005C157.61 411.944 157.763 411.883 157.911 411.817C157.875 411.817 157.839 411.817 157.804 411.822C157.987 411.929 158.171 412.031 158.354 412.138C158.339 412.112 158.324 412.087 158.308 412.061C157.88 411.363 156.779 412 157.207 412.704C157.223 412.729 157.238 412.755 157.253 412.78C157.37 412.969 157.579 413.101 157.804 413.096C158.222 413.086 158.604 412.831 158.619 412.377C158.64 411.883 158.206 411.557 157.885 411.256C156.896 410.323 155.908 409.391 154.924 408.458C154.328 407.908 153.426 408.805 154.022 409.37Z" fill="black"/>
<path d="M152.289 410.517C153.471 411.593 154.481 412.8 155.321 414.166C155.75 414.865 156.856 414.222 156.422 413.524C155.53 412.077 154.45 410.767 153.191 409.62C152.585 409.065 151.677 409.967 152.289 410.517Z" fill="black"/>
<path d="M108.677 412.821C121.612 411.348 133.844 406.481 146.576 403.999C147.381 403.841 147.039 402.612 146.239 402.77C133.625 405.232 121.495 410.084 108.677 411.547C107.871 411.638 107.861 412.913 108.677 412.821Z" fill="black"/>
<path d="M46.1811 214.03C48.3676 214.228 50.9822 214.371 53.1024 213.703C53.8822 213.459 53.5509 212.225 52.766 212.475C50.763 213.107 48.2555 212.944 46.1862 212.755C45.3656 212.679 45.3707 213.953 46.1811 214.03Z" fill="black"/>
<path d="M44.1322 222.669C46.3595 222.103 48.7498 222.429 50.9822 221.863C51.7773 221.659 51.4409 220.431 50.6458 220.635C48.4185 221.201 46.0282 220.875 43.7958 221.44C43.0007 221.644 43.3371 222.872 44.1322 222.669Z" fill="black"/>
<path d="M41.9203 234.263C43.8264 234.055 45.7326 233.84 47.6438 233.631C48.4491 233.545 48.4593 232.266 47.6438 232.357C45.7377 232.566 43.8315 232.78 41.9203 232.989C41.115 233.076 41.1048 234.355 41.9203 234.263Z" fill="black"/>
<path d="M40.7582 243.346C43.0925 243.325 45.4217 243.071 47.756 243.05C48.5765 243.045 48.5765 241.771 47.756 241.776C45.4217 241.796 43.0925 242.051 40.7582 242.072C39.9377 242.077 39.9377 243.351 40.7582 243.346Z" fill="black"/>
<path d="M39.7592 252.912C42.0935 252.892 44.4227 252.637 46.757 252.617C47.5776 252.612 47.5776 251.337 46.757 251.342C44.4227 251.363 42.0935 251.618 39.7592 251.638C38.9387 251.643 38.9387 252.917 39.7592 252.912Z" fill="black"/>
<path d="M39.6726 264.038C41.854 264.028 44.4992 263.936 46.5327 263.08C47.2768 262.769 46.9507 261.531 46.1964 261.852C44.2443 262.672 41.7674 262.754 39.6726 262.764C38.8521 262.764 38.8521 264.038 39.6726 264.038Z" fill="black"/>
<path d="M38.796 274.762C40.9621 273.987 43.3728 274.089 45.5389 273.314C46.3034 273.039 45.9772 271.811 45.2025 272.086C43.0365 272.861 40.6257 272.759 38.4596 273.533C37.69 273.809 38.0213 275.037 38.796 274.762Z" fill="black"/>
<path d="M39.0661 284.211C40.9468 283.824 42.8223 283.436 44.703 283.044C45.5032 282.876 45.1668 281.647 44.3666 281.816C42.486 282.203 40.6104 282.59 38.7297 282.983C37.9244 283.146 38.2659 284.374 39.0661 284.211Z" fill="black"/>
<path d="M39.2903 293.905C41.6144 293.665 43.9079 293.196 46.232 292.957C47.0373 292.875 47.0475 291.596 46.232 291.683C43.9079 291.922 41.6144 292.391 39.2903 292.631C38.48 292.717 38.4698 293.991 39.2903 293.905Z" fill="black"/>
<path d="M39.3618 304.047C41.6858 303.808 43.9794 303.339 46.3034 303.099C47.1087 303.018 47.1189 301.739 46.3034 301.825C43.9794 302.065 41.6858 302.534 39.3618 302.773C38.5565 302.855 38.5463 304.129 39.3618 304.047Z" fill="black"/>
<path d="M41.4819 316.254C43.7347 316.05 46.3646 315.729 48.393 314.659C49.1168 314.276 48.4746 313.175 47.7509 313.558C45.9466 314.506 43.49 314.796 41.487 314.98C40.6715 315.051 40.6664 316.325 41.4819 316.254Z" fill="black"/>
<path d="M43.0823 327.141C45.172 326.182 47.5827 326.08 49.6774 325.122C50.4215 324.781 49.7743 323.685 49.0352 324.021C46.9456 324.98 44.5349 325.081 42.4401 326.04C41.6909 326.381 42.3382 327.477 43.0823 327.141Z" fill="black"/>
<path d="M45.7529 337.813C47.5928 337.262 49.4327 336.717 51.2675 336.167C52.0524 335.932 51.716 334.704 50.9312 334.938C49.0913 335.489 47.2513 336.034 45.4165 336.585C44.6317 336.819 44.9629 338.047 45.7529 337.813Z" fill="black"/>
<path d="M48.1942 348.287C50.4878 347.848 52.7354 347.181 55.0289 346.742C55.8342 346.589 55.4927 345.361 54.6925 345.514C52.399 345.952 50.1514 346.62 47.8579 347.058C47.0475 347.211 47.389 348.44 48.1942 348.287Z" fill="black"/>
<path d="M51.5784 358.73C53.8719 358.291 56.1196 357.624 58.4131 357.185C59.2183 357.033 58.8769 355.804 58.0767 355.957C55.7832 356.395 53.5355 357.063 51.242 357.501C50.4367 357.654 50.7731 358.883 51.5784 358.73Z" fill="black"/>
<path d="M54.876 367.129C57.1695 366.691 59.4172 366.023 61.7107 365.585C62.516 365.432 62.1745 364.203 61.3743 364.356C59.0808 364.795 56.8332 365.462 54.5396 365.901C53.7344 366.054 54.0758 367.282 54.876 367.129Z" fill="black"/>
<path d="M59.9778 375.228C62.2713 374.789 64.5189 374.122 66.8125 373.683C67.6177 373.53 67.2763 372.302 66.4761 372.455C64.1826 372.893 61.9349 373.561 59.6414 373.999C58.8361 374.152 59.1725 375.381 59.9778 375.228Z" fill="black"/>
<path d="M66.2774 383.026C68.5709 382.587 70.8185 381.92 73.112 381.481C73.9173 381.328 73.5758 380.1 72.7756 380.253C70.4821 380.691 68.2345 381.359 65.941 381.797C65.1357 381.955 65.4772 383.184 66.2774 383.026Z" fill="black"/>
<path d="M71.6747 389.626C73.9682 389.188 76.2158 388.52 78.5093 388.082C79.3146 387.929 78.9732 386.7 78.173 386.853C75.8795 387.292 73.6318 387.959 71.3383 388.397C70.5331 388.55 70.8745 389.779 71.6747 389.626Z" fill="black"/>
<path d="M78.5756 395.63C80.8692 395.191 83.1168 394.524 85.4103 394.085C86.2156 393.933 85.8741 392.704 85.0739 392.857C82.7804 393.295 80.5328 393.963 78.2393 394.401C77.434 394.554 77.7755 395.783 78.5756 395.63Z" fill="black"/>
<path d="M86.975 401.628C89.2685 401.19 91.5162 400.522 93.8097 400.084C94.615 399.931 94.2735 398.703 93.4733 398.856C91.1798 399.294 88.9321 399.962 86.6386 400.4C85.8334 400.553 86.1748 401.781 86.975 401.628Z" fill="black"/>
<path d="M95.675 406.43C97.9685 405.991 100.216 405.324 102.51 404.885C103.315 404.732 102.973 403.504 102.173 403.657C99.8798 404.095 97.6322 404.763 95.3387 405.201C94.5334 405.354 94.8749 406.583 95.675 406.43Z" fill="black"/>
<path d="M81.8172 87.2852C80.2882 96.7141 81.3126 105.903 81.4757 115.363C81.491 116.209 82.6479 116.153 82.7499 115.363C83.3207 110.944 88.4989 109.084 92.3826 110.027C96.4956 111.026 99.5893 114.456 102.219 117.549C108.228 124.608 113.804 132.029 119.65 139.22C125.047 145.856 130.842 152.039 136.673 158.282C141.907 163.894 147.187 169.755 151.04 176.431C151.448 177.14 152.554 176.503 152.141 175.789C145.062 163.521 133.849 154.128 124.782 143.42C119.375 137.034 114.268 130.403 109.033 123.874C104.854 118.66 100.42 111.601 93.8657 109.17C88.8965 107.33 82.2198 109.609 81.4757 115.363C81.8987 115.363 82.3268 115.363 82.7499 115.363C82.5919 106.026 81.5369 96.9332 83.0455 87.6216C83.178 86.8214 81.9497 86.4748 81.8172 87.2852Z" fill="black"/>
<path d="M81.5215 115.516C81.547 119.032 83.7334 122.743 85.2726 125.781C88.0605 131.29 91.2001 136.621 94.3396 141.937C97.4486 147.202 100.629 152.426 103.626 157.752C107.326 164.327 110.527 171.172 114.115 177.802C118.957 186.762 124.247 195.467 130.506 203.515C131.01 204.162 131.902 203.255 131.408 202.613C120.949 189.173 113.916 173.924 105.812 159.067C100.196 148.767 93.7637 138.935 88.193 128.609C86.8169 126.061 85.4714 123.487 84.3349 120.821C83.6366 119.175 82.8058 117.33 82.7956 115.511C82.7906 114.695 81.5164 114.695 81.5215 115.516Z" fill="black"/>
<path d="M89.0493 109.971C93.4121 121.194 99.6759 131.672 105.914 141.932C112.881 153.389 120.231 164.602 127.224 176.044C130.322 181.11 133.375 186.222 136.031 191.538C136.398 192.272 137.498 191.625 137.131 190.896C132.076 180.769 125.796 171.243 119.757 161.687C112.627 150.403 105.415 139.149 98.942 127.478C95.7362 121.698 92.6782 115.801 90.2777 109.634C89.982 108.875 88.7486 109.201 89.0493 109.971Z" fill="black"/>
<path d="M173.945 184.158C175.061 181.232 176.845 178.465 178.369 175.743C181.065 170.932 183.853 166.177 186.712 161.467C189.632 156.656 192.624 151.87 195.825 147.238C197.69 144.536 199.79 140.749 202.675 138.976C203.373 138.548 202.731 137.447 202.033 137.875C200.075 139.078 198.623 141.244 197.272 143.043C194.755 146.397 192.451 149.913 190.198 153.445C185.331 161.075 180.703 168.873 176.325 176.793C175.066 179.071 173.649 181.375 172.717 183.816C172.426 184.586 173.654 184.917 173.945 184.158Z" fill="black"/>
<path d="M189.928 69.4161C197.379 71.3936 205.814 72.153 212.613 76.001C217.965 79.0285 220.574 84.5788 222.526 90.1647C226.69 102.076 228.296 114.96 229.387 127.472C229.804 132.289 230.146 137.126 230.207 141.962C230.217 142.783 231.491 142.783 231.481 141.962C231.349 131.02 230.182 119.98 228.398 109.196C227.312 102.652 225.951 96.0973 223.76 89.8284C222.007 84.8132 219.718 79.5331 215.345 76.261C208.358 71.0369 198.46 70.3641 190.275 68.1929C189.474 67.9738 189.133 69.2072 189.928 69.4161Z" fill="black"/>
<path d="M173.491 184.775C178.822 184.775 184.388 185.157 189.592 186.339C192.262 186.946 194.877 187.884 197.226 189.311C199.255 190.544 200.906 192.267 203.251 192.894C204.046 193.108 204.382 191.879 203.587 191.665C200.906 190.942 198.862 188.648 196.406 187.399C194.107 186.232 191.63 185.442 189.107 184.938C184.016 183.913 178.68 183.506 173.491 183.506C172.676 183.5 172.671 184.775 173.491 184.775Z" fill="black"/>
<path d="M230.202 141.84C230.436 144.358 228.785 147.339 227.791 149.536C225.931 153.664 223.801 157.67 221.619 161.636C217.124 169.811 212.343 177.843 207.364 185.733C206.258 187.486 205.116 190.182 203.506 191.553C202.879 192.088 203.786 192.985 204.408 192.455C205.707 191.349 206.62 189.275 207.517 187.868C209.8 184.29 212.022 180.672 214.204 177.033C219.372 168.424 224.545 159.699 228.714 150.555C229.861 148.038 231.731 144.725 231.466 141.845C231.4 141.03 230.126 141.025 230.202 141.84Z" fill="black"/>
<path d="M218.169 173.19C226.874 174.785 235.431 178.134 243.448 181.808C247.51 183.669 251.532 185.707 255.273 188.169C257.357 189.54 261.073 191.732 261.888 194.3C262.352 195.753 261.807 197.909 261.618 199.361C261.175 202.735 260.538 206.084 259.885 209.417C258.183 218.112 256.195 226.756 254.116 235.369C251.894 244.579 249.569 253.779 246.924 262.881C247.184 262.734 247.449 262.586 247.709 262.438C238.479 259.645 229.076 258.085 219.438 257.892C211.151 257.724 202.884 258.203 194.607 257.504C193.791 257.433 193.796 258.712 194.607 258.779C202.655 259.456 210.702 259.028 218.76 259.151C228.52 259.298 238.025 260.833 247.368 263.661C247.699 263.763 248.056 263.539 248.153 263.218C253.234 245.721 257.541 227.898 261.063 210.024C261.725 206.66 262.357 203.286 262.821 199.891C263.06 198.153 263.575 195.967 263.162 194.219C262.658 192.063 260.247 190.264 258.606 188.99C255.252 186.39 251.486 184.321 247.694 182.435C238.561 177.884 228.586 173.817 218.51 171.972C217.71 171.814 217.364 173.042 218.169 173.19Z" fill="black"/>
<path d="M193.134 212.567C198.873 214.906 204.326 217.888 210.065 220.227C209.917 219.967 209.769 219.702 209.622 219.442C207.507 226.843 204.627 234.065 201.737 241.19C200.249 244.865 198.72 248.524 197.033 252.112C196.416 253.427 195.417 256.694 194.036 257.443C193.312 257.831 193.954 258.931 194.678 258.544C196.141 257.754 197.002 255.109 197.665 253.743C199.331 250.298 200.82 246.76 202.277 243.218C205.427 235.553 208.567 227.765 210.85 219.784C210.952 219.422 210.723 219.131 210.407 218.999C204.668 216.659 199.214 213.678 193.475 211.338C192.716 211.028 192.385 212.261 193.134 212.567Z" fill="black"/>
<path d="M227.297 316.947C227.985 325.336 229.565 333.725 230.803 342.043C232.541 353.725 234.325 365.396 236.119 377.073C236.593 380.146 237.072 383.219 237.536 386.293C237.659 387.103 238.887 386.756 238.764 385.956C235.859 366.589 232.776 347.242 230.003 327.854C229.483 324.235 228.872 320.596 228.571 316.947C228.505 316.137 227.231 316.132 227.297 316.947Z" fill="black"/>
<path d="M129.492 233.871C124.563 274.262 118.09 314.439 112.504 354.744C110.894 366.359 109.365 377.99 107.948 389.631C107.851 390.441 109.125 390.436 109.222 389.631C114.15 349.24 120.623 309.062 126.209 268.758C127.82 257.142 129.349 245.512 130.766 233.871C130.863 233.061 129.588 233.066 129.492 233.871Z" fill="black"/>
<path d="M139.568 233.361C134.593 274.109 128.365 314.689 122.861 355.366C121.296 366.935 119.798 378.515 118.381 390.1C118.284 390.91 119.558 390.905 119.655 390.1C124.629 349.352 130.857 308.772 136.362 268.095C137.927 256.526 139.425 244.946 140.842 233.361C140.944 232.551 139.665 232.556 139.568 233.361Z" fill="black"/>
<path d="M215.656 317.421C218.546 337.344 221.426 357.262 224.407 377.169C224.718 379.244 225.029 381.318 225.35 383.387C225.472 384.167 225.467 385.187 225.778 385.926C226.089 386.67 227.322 386.343 227.006 385.589C226.16 383.561 226.211 380.666 225.89 378.52C225.08 373.143 224.285 367.761 223.495 362.384C221.696 350.142 219.907 337.899 218.128 325.652C217.715 322.798 217.297 319.944 216.884 317.09C216.767 316.274 215.539 316.621 215.656 317.421Z" fill="black"/>
<path d="M161.397 167.884C165.077 172.242 169.648 175.499 174.939 177.624C175.698 177.93 176.029 176.696 175.275 176.396C170.199 174.357 165.826 171.156 162.299 166.982C161.764 166.355 160.867 167.257 161.397 167.884Z" fill="black"/>
<path d="M176.564 19.7745C178.674 24.7285 182.13 29.4174 187.782 30.2991C188.582 30.4265 188.929 29.1982 188.119 29.0708C182.767 28.235 179.648 23.7958 177.66 19.1272C177.344 18.3831 176.243 19.0304 176.564 19.7745Z" fill="black"/>
<path d="M201.498 258.34C200.585 262.922 198.557 267.096 196.615 271.311C196.274 272.05 197.369 272.698 197.716 271.953C199.704 267.642 201.793 263.366 202.726 258.677C202.889 257.876 201.661 257.535 201.498 258.34Z" fill="black"/>
<path d="M217.736 258.651C216.895 261.337 215.998 264.008 215.126 266.683C214.54 268.488 213.373 270.73 213.317 272.657C213.291 273.477 214.565 273.477 214.591 272.657C214.642 270.837 215.942 268.289 216.528 266.49C217.338 263.992 218.179 261.5 218.964 258.993C219.209 258.208 217.98 257.871 217.736 258.651Z" fill="black"/>
<path d="M215.682 275.113C214.667 272.937 213.638 269.971 210.682 270.486C209.031 270.771 207.914 272.213 206.299 272.596C204.01 273.141 201.64 271.857 199.413 271.515C196.166 271.021 194.067 272.157 192.721 275.103C190.728 279.466 188.858 283.89 186.926 288.278C185.927 290.551 184.928 292.819 183.929 295.092C183.333 296.453 181.886 298.441 182.054 299.985C182.161 300.954 182.777 301.219 183.593 301.677C185.861 302.951 187.869 304.496 189.867 306.167C195.779 311.121 202.175 314.878 209.739 316.672C218.21 318.68 227.124 318.236 235.319 315.311C236.084 315.036 235.758 313.807 234.983 314.083C226.991 316.932 218.342 317.401 210.08 315.443C205.978 314.47 202.012 312.921 198.358 310.811C194.541 308.604 191.401 305.597 187.91 302.957C187.094 302.34 186.264 301.749 185.392 301.224C184.893 300.923 184.383 300.643 183.858 300.383C183.588 299.358 183.715 298.421 184.24 297.559C184.984 295.24 186.253 292.977 187.237 290.745C189.235 286.204 191.233 281.657 193.231 277.116C194.367 274.527 195.351 272.407 198.679 272.698C200.662 272.871 202.507 273.773 204.494 273.936C206.278 274.084 207.405 273.528 208.929 272.723C210.804 271.729 211.971 271.169 213.398 273.263C213.903 274.002 214.209 274.95 214.586 275.761C214.927 276.5 216.023 275.852 215.682 275.113Z" fill="black"/>
<path d="M235.656 314.46C235.518 313.079 235.38 311.703 235.238 310.321C235.207 310 234.973 309.654 234.6 309.684C230.656 310.015 226.706 310.316 222.751 310.484C216.39 310.754 210.621 309.638 204.663 307.493C203.888 307.212 203.557 308.446 204.326 308.721C210.198 310.836 215.901 312.013 222.17 311.784C226.318 311.631 230.467 311.305 234.606 310.958C234.392 310.744 234.183 310.535 233.969 310.321C234.111 311.703 234.249 313.079 234.386 314.46C234.463 315.265 235.737 315.275 235.656 314.46Z" fill="black"/>
<path d="M235.543 310.775C235.763 303.201 228.887 297.783 221.573 299.705C221.833 299.853 222.098 300 222.358 300.148C219.892 291.994 217.629 283.737 215.982 275.373C215.824 274.568 214.596 274.909 214.754 275.71C216.4 284.073 218.663 292.325 221.13 300.485C221.232 300.816 221.573 301.02 221.915 300.928C228.449 299.21 234.463 304.032 234.269 310.77C234.244 311.595 235.518 311.595 235.543 310.775Z" fill="black"/>
<path d="M204.708 307.508C197.237 304.776 191.824 297.972 184.154 295.775C183.364 295.551 183.027 296.779 183.817 297.004C191.452 299.195 196.905 306.009 204.372 308.736C205.142 309.022 205.473 307.788 204.708 307.508Z" fill="black"/>
<path d="M216.665 281.525C213.505 280.684 210.361 280.363 207.089 280.557C206.385 280.597 206.207 281.601 206.92 281.81C209.586 282.59 212.165 283.548 214.693 284.705C214.8 284.308 214.907 283.915 215.014 283.518C212.853 283.446 210.733 283.538 208.582 283.798C208.21 283.844 207.807 284.175 207.965 284.603C208.297 285.49 208.801 285.75 209.642 286.199C211.477 287.172 213.383 288.044 215.243 288.961C215.294 288.574 215.345 288.186 215.396 287.799C213.179 288.161 210.962 288.528 208.745 288.89C208.297 288.961 208.103 289.669 208.465 289.955C211.222 292.106 214.988 292.641 217.389 295.255C217.481 294.899 217.578 294.547 217.669 294.19C215.503 294.501 213.337 294.812 211.166 295.118C210.508 295.21 210.61 296.188 211.166 296.346C211.482 296.438 211.803 296.53 212.124 296.621C212.914 296.851 213.251 295.622 212.461 295.393C212.145 295.301 211.823 295.21 211.502 295.118C211.502 295.526 211.502 295.938 211.502 296.346C213.668 296.035 215.835 295.724 218.006 295.419C218.51 295.347 218.577 294.669 218.286 294.353C215.84 291.693 212.145 291.219 209.362 289.053C209.27 289.41 209.173 289.761 209.081 290.118C211.298 289.756 213.516 289.389 215.733 289.027C216.268 288.941 216.354 288.095 215.886 287.865C214.739 287.299 213.587 286.734 212.44 286.168C211.655 285.781 209.535 285.179 209.194 284.272C208.99 284.542 208.786 284.807 208.577 285.077C210.723 284.817 212.843 284.726 215.009 284.797C215.61 284.817 215.916 283.88 215.33 283.609C212.705 282.407 210.024 281.398 207.252 280.587C207.196 281.005 207.14 281.423 207.084 281.841C210.228 281.652 213.276 281.953 216.319 282.763C217.119 282.962 217.46 281.734 216.665 281.525Z" fill="black"/>
<path d="M226.028 386.665C226.986 388.494 229.514 389.05 231.42 389.213C234.045 389.437 236.563 388.729 238.754 387.307C239.442 386.863 238.8 385.757 238.112 386.206C236.527 387.23 234.794 387.878 232.898 387.969C231.191 388.051 228.046 387.765 227.129 386.022C226.747 385.294 225.651 385.936 226.028 386.665Z" fill="black"/>
<path d="M226.68 299.496C223.938 286.209 220.768 273.013 218.684 259.604C218.556 258.799 217.328 259.14 217.455 259.94C219.54 273.35 222.71 286.55 225.452 299.832C225.615 300.638 226.843 300.296 226.68 299.496Z" fill="black"/>
<path d="M210.539 219.667C213.826 215.248 218.964 212.97 223.52 210.126C224.214 209.692 223.576 208.591 222.878 209.025C218.092 212.006 212.884 214.386 209.438 219.019C208.949 219.682 210.055 220.314 210.539 219.667Z" fill="black"/>
<path d="M149.996 198.913C148.721 199.234 148.421 195.692 148.191 194.881C147.835 193.607 147.304 192.573 146.26 191.716C144.277 190.08 141.015 190.121 138.574 190.31C136 190.514 134.267 190.809 133.258 193.322C132.279 195.763 131.816 198.459 131.5 201.064C131.403 201.874 132.677 201.869 132.774 201.064C133.054 198.77 133.487 196.38 134.282 194.204C135.016 192.201 136.005 191.854 138.003 191.63C139.221 191.492 140.439 191.477 141.662 191.589C143.528 191.762 145.388 192.043 146.438 193.806C147.095 194.912 147.177 196.314 147.498 197.532C147.891 199.015 148.512 200.595 150.332 200.136C151.127 199.942 150.791 198.714 149.996 198.913Z" fill="black"/>
<path d="M145.23 167.767C145.959 172.971 147.264 178.123 148.37 183.256C148.997 186.171 149.629 189.086 150.24 192.012C150.566 193.566 151.081 195.228 151.147 196.823C151.183 197.639 152.457 197.644 152.422 196.823C152.238 192.42 150.643 187.766 149.72 183.48C148.579 178.164 147.213 172.823 146.458 167.431C146.346 166.62 145.118 166.967 145.23 167.767Z" fill="black"/>
<path d="M150.887 199.621C151.835 198.362 153.105 196.094 154.46 195.289C155.663 194.576 155.215 196.905 155.22 197.756C155.235 199.433 155.245 201.115 155.26 202.791C155.311 209.341 155.367 215.885 155.418 222.434C155.423 223.255 156.698 223.255 156.693 222.434C156.652 217.735 156.616 213.031 156.575 208.331C156.56 206.318 156.545 204.3 156.524 202.287C156.504 200.054 156.84 197.44 156.468 195.233C155.632 190.294 150.882 197.511 149.787 198.969C149.292 199.636 150.398 200.274 150.887 199.621Z" fill="black"/>
<path d="M155.632 222.128C150.317 225.589 144.083 227.403 137.753 227.546C132.371 227.668 125.129 226.613 123.1 220.727C122.835 219.957 121.602 220.288 121.872 221.063C123.804 226.664 129.94 228.535 135.322 228.79C142.661 229.136 150.113 227.24 156.28 223.224C156.963 222.786 156.321 221.68 155.632 222.128Z" fill="black"/>
<path d="M155.184 217.052C150.306 220.737 144.078 223.295 137.932 223.571C133.518 223.764 124.431 222.062 124.4 216.145C124.395 215.324 123.121 215.324 123.126 216.145C123.151 221.44 130.068 224.356 134.502 224.784C141.958 225.507 149.919 222.607 155.821 218.153C156.473 217.664 155.836 216.558 155.184 217.052Z" fill="black"/>
<path d="M143.956 196.64C142.284 196.844 140.607 196.951 138.925 196.956C138.105 196.961 138.105 198.235 138.925 198.23C140.612 198.225 142.284 198.118 143.956 197.914C144.761 197.812 144.771 196.538 143.956 196.64Z" fill="black"/>
<path d="M143.951 200.87C141.907 201.191 139.873 201.115 137.855 200.671C137.238 200.534 136.785 201.262 137.233 201.736C137.371 201.879 137.509 202.027 137.646 202.17C138.212 202.766 139.114 201.864 138.548 201.267C138.411 201.125 138.273 200.977 138.135 200.834C137.926 201.191 137.723 201.543 137.514 201.899C139.766 202.394 142.009 202.455 144.287 202.098C145.098 201.971 144.756 200.743 143.951 200.87Z" fill="black"/>
<path d="M143.778 204.876C142.279 204.952 140.781 205.029 139.287 205.1C138.518 205.141 137.223 204.912 136.617 205.498C136.347 205.758 136.408 206.13 136.617 206.4C136.637 206.425 136.663 206.456 136.683 206.481C136.846 206.69 137.238 206.721 137.453 206.583C137.473 206.568 137.498 206.553 137.519 206.537C138.202 206.089 137.56 204.983 136.877 205.437C136.856 205.452 136.831 205.467 136.81 205.482C137.065 205.518 137.325 205.549 137.58 205.584C137.56 205.559 137.534 205.528 137.514 205.503C137.514 205.803 137.514 206.104 137.514 206.405C137.59 206.328 138.548 206.42 138.783 206.41C139.364 206.379 139.95 206.354 140.531 206.323C141.611 206.267 142.692 206.216 143.778 206.16C144.593 206.109 144.598 204.835 143.778 204.876Z" fill="black"/>
<path d="M142.483 209.157C140.353 209.33 136.999 209.274 135.225 207.97C134.563 207.485 133.926 208.586 134.583 209.071C135.674 209.876 137.203 210.059 138.508 210.228C139.807 210.396 141.173 210.543 142.483 210.436C143.298 210.365 143.303 209.091 142.483 209.157Z" fill="black"/>
<path d="M131.479 201.043C131.092 203.204 130.903 205.543 129.767 207.48C128.6 209.468 126.495 210.584 125.047 212.332C122.952 214.855 121.903 217.923 121.78 221.18C121.75 222.001 123.024 222.001 123.054 221.18C123.238 216.466 125.557 213.459 128.921 210.436C131.637 207.995 132.096 204.825 132.713 201.379C132.85 200.579 131.622 200.238 131.479 201.043Z" fill="black"/>
<path d="M211.079 220.406C213.826 218.708 216.961 218.443 220.116 218.245C220.931 218.194 220.936 216.919 220.116 216.97C216.747 217.179 213.373 217.49 210.437 219.305C209.739 219.738 210.376 220.839 211.079 220.406Z" fill="black"/>
<path d="M108.101 390.293C108.641 392.174 111.419 392.057 112.973 392.093C114.92 392.138 117.637 392.434 119.12 390.9C119.691 390.309 118.788 389.407 118.218 389.998C117.214 391.038 109.793 391.568 109.329 389.952C109.105 389.167 107.876 389.503 108.101 390.293Z" fill="black"/>
<path d="M129.925 311.856C152.799 312.829 175.708 312.294 198.582 313.262C199.403 313.298 199.403 312.024 198.582 311.988C175.708 311.015 152.799 311.55 129.925 310.581C129.104 310.551 129.104 311.825 129.925 311.856Z" fill="black"/>
<path d="M131.326 302.534C150.245 303.354 169.169 304.022 188.083 304.842C188.904 304.878 188.904 303.604 188.083 303.568C169.164 302.748 150.24 302.08 131.326 301.259C130.511 301.224 130.511 302.498 131.326 302.534Z" fill="black"/>
<path d="M125.154 234.126C147.789 233.932 170.428 233.744 193.063 233.453C197.303 233.397 201.548 233.397 205.784 233.234C206.599 233.203 206.604 231.929 205.784 231.96C182.023 232.872 158.171 232.561 134.395 232.77C131.316 232.796 128.238 232.826 125.154 232.852C124.334 232.857 124.329 234.131 125.154 234.126Z" fill="black"/>
<path d="M125.949 233.412C125.628 232.204 125.256 230.864 126.036 229.758C126.688 228.835 127.815 228.163 128.686 227.464C129.328 226.955 128.421 226.058 127.784 226.562C126.642 227.475 125.103 228.367 124.548 229.794C124.053 231.073 124.38 232.469 124.716 233.744C124.935 234.544 126.163 234.207 125.949 233.412Z" fill="black"/>
<path d="M197.206 191.288C196.054 193.597 195.555 196.043 195.065 198.561C194.408 201.93 193.669 205.279 192.808 208.602C192.4 210.182 191.967 211.762 191.513 213.331C191.126 214.672 190.881 216.894 190.076 218.02C189.393 218.973 188.628 219.284 188.465 217.679C188.394 216.986 188.419 216.277 188.409 215.584C188.368 213.821 188.333 212.057 188.292 210.294C188.277 209.692 187.446 209.59 187.262 210.156C185.871 214.402 185.387 219.218 183.272 223.193C182.772 224.136 181.957 225.523 181.534 223.836C181.304 222.933 181.569 221.761 181.687 220.869C182.166 217.302 182.849 213.765 183.669 210.258C183.797 209.702 182.981 209.295 182.711 209.855C181.575 212.179 180.438 214.504 179.408 216.879C179.031 217.755 178.659 218.642 178.318 219.534C178.007 220.334 177.579 222.918 176.982 223.413C176.417 223.423 175.846 223.428 175.28 223.438C175.352 222.888 175.418 222.342 175.489 221.792C175.576 221.18 175.683 220.564 175.785 219.957C175.994 218.734 176.223 217.516 176.473 216.298C177.033 213.561 177.711 210.854 178.466 208.163C178.654 207.491 177.706 207.282 177.451 207.883C176.544 210.034 175.642 212.19 174.735 214.34C174.347 215.263 173.96 216.185 173.573 217.108C173.313 217.725 173.058 218.336 172.798 218.953C170.861 219.035 170.178 218.438 170.754 217.159C170.652 215.528 171.748 213.326 172.273 211.797C173.063 209.488 174.006 207.231 174.995 204.998C176.615 201.349 178.144 197.496 180.127 194.025C182.227 190.355 186.325 187.557 190.28 186.248C190.917 186.033 190.647 185.019 189.999 185.233C185.479 186.732 181.039 189.948 178.827 194.234C176.04 199.626 173.425 205.345 171.412 211.079C170.856 212.659 167.064 221.935 171.504 221.858C173.196 221.828 173.69 219.519 174.2 218.311C175.622 214.927 177.044 211.547 178.466 208.163C178.129 208.072 177.793 207.975 177.451 207.883C176.361 211.767 175.448 215.696 174.77 219.677C174.516 221.175 173.292 224.88 175.448 225.665C177.589 226.445 178.109 223.249 178.547 221.96C179.903 217.969 181.768 214.172 183.618 210.391C183.297 210.258 182.976 210.12 182.66 209.988C182.38 211.181 178.404 227.189 182.329 225.9C184.097 225.319 184.938 222.093 185.428 220.594C186.518 217.251 187.181 213.785 188.277 210.442C187.935 210.396 187.589 210.35 187.247 210.304C187.298 212.546 187.278 214.799 187.395 217.037C187.451 218.158 187.492 219.447 188.251 220.355C189.811 222.215 190.687 219.575 191.095 218.311C192.502 213.958 193.72 209.544 194.76 205.085C195.769 200.737 196.11 195.86 198.118 191.828C198.414 191.217 197.512 190.682 197.206 191.288Z" fill="black"/>
<path d="M156.453 211.782C159.613 211.879 162.773 211.971 165.933 212.067C168.063 212.134 170.097 212.312 172.008 211.237C172.722 210.834 172.079 209.733 171.366 210.136C169.215 211.344 166.305 210.803 163.935 210.732C161.438 210.656 158.945 210.584 156.448 210.508C155.632 210.482 155.632 211.757 156.453 211.782Z" fill="black"/>
<path d="M186.1 49.6157C186.646 56.0936 188.007 62.4593 189.23 68.8302C189.383 69.6355 190.611 69.294 190.458 68.4938C189.255 62.2351 187.91 55.9814 187.375 49.6157C187.308 48.8053 186.034 48.7951 186.1 49.6157Z" fill="black"/>
<path d="M169.74 56.4501C170.071 60.553 170.469 64.6456 170.938 68.7382C171.03 69.5435 172.304 69.5537 172.212 68.7382C171.743 64.6507 171.346 60.553 171.014 56.4501C170.953 55.6347 169.674 55.6296 169.74 56.4501Z" fill="black"/>
<path d="M171.208 70.1654C174.001 71.674 177.329 71.9441 180.458 72.1021C183.888 72.2754 187.013 71.5517 189.964 69.7781C190.667 69.355 190.025 68.2541 189.321 68.6772C184.531 71.5568 176.845 71.7556 171.855 69.0645C171.126 68.6772 170.484 69.7729 171.208 70.1654Z" fill="black"/>
<path d="M8.45544 84.0131C9.08233 84.9866 10.2699 85.3638 11.3402 84.9051C12.5073 84.4056 13.0425 83.2334 13.1291 82.0254C13.1852 81.2049 11.911 81.21 11.8549 82.0254C11.8142 82.6319 11.6052 83.2435 11.0853 83.6003C10.5757 83.9469 9.91309 83.9214 9.56142 83.371C9.11801 82.6778 8.01203 83.32 8.45544 84.0131Z" fill="black"/>
<path d="M204.938 128.212C204.815 128.716 204.902 129.175 205.284 129.552C205.488 129.751 205.743 129.797 205.962 129.944C206.339 130.067 206.62 130.332 206.798 130.74C206.732 130.882 206.691 131.03 206.686 131.183C206.635 131.688 206.859 132.009 207.277 132.269C208.052 132.753 208.653 133.038 208.974 133.986C209.234 134.761 210.468 134.43 210.203 133.65C209.999 133.048 209.713 132.498 209.265 132.044C209.046 131.825 208.791 131.626 208.526 131.468C208.393 131.382 208.256 131.31 208.113 131.254C207.889 131.224 207.863 131.168 208.031 131.081C207.955 130.485 208.159 130.102 207.736 129.542C207.578 129.333 206.161 128.594 206.171 128.558C206.36 127.753 205.131 127.411 204.938 128.212Z" fill="black"/>
<path d="M196.875 124.843C196.681 124.42 198.363 124.297 198.628 124.083C199.123 123.691 199.036 122.982 199.51 122.646C199.999 122.299 200.652 122.626 201.197 122.274C201.865 121.841 202.089 120.969 202.746 120.48C203.399 119.996 202.762 118.89 202.104 119.379C201.737 119.654 201.406 119.924 201.12 120.286C200.927 120.526 200.794 120.852 200.55 121.036C200.244 121.265 200.152 121.188 199.785 121.183C198.98 121.173 198.378 121.428 198.088 122.228C198.037 122.361 198.042 122.661 197.96 122.763C197.599 123.207 197.492 122.87 197.094 122.957C196.753 123.033 196.447 123.089 196.161 123.314C195.453 123.869 195.443 124.731 195.784 125.48C196.11 126.229 197.206 125.582 196.875 124.843Z" fill="black"/>
<path d="M209.336 143.242C209.143 142.819 210.824 142.696 211.089 142.482C211.584 142.09 211.497 141.381 211.971 141.045C212.46 140.698 213.113 141.025 213.658 140.673C214.326 140.24 214.55 139.368 215.208 138.879C215.86 138.395 215.223 137.289 214.565 137.778C214.198 138.053 213.867 138.323 213.582 138.685C213.388 138.925 213.256 139.251 213.011 139.434C212.705 139.664 212.613 139.587 212.246 139.582C211.441 139.572 210.84 139.827 210.549 140.627C210.498 140.76 210.503 141.06 210.422 141.162C210.06 141.606 209.953 141.269 209.555 141.356C209.214 141.432 208.908 141.488 208.623 141.713C207.914 142.268 207.904 143.13 208.245 143.879C208.572 144.628 209.673 143.981 209.336 143.242Z" fill="black"/>
<path d="M206.533 114.899C206.237 116.148 207.196 116.464 208.052 117.04C208.582 117.396 208.419 117.876 208.663 118.416C208.944 119.043 210.121 119.807 209.932 120.536C209.729 121.331 210.957 121.667 211.161 120.872C211.568 119.303 210.014 118.823 209.754 117.478C209.662 117.014 209.627 116.673 209.27 116.321C209.015 116.071 207.675 115.592 207.761 115.235C207.955 114.44 206.722 114.099 206.533 114.899Z" fill="black"/>
<path d="M195.402 110.516C194.913 109.548 195.988 108.844 196.809 109.384C197.028 109.527 197.41 109.491 197.578 109.282C197.797 109.017 197.935 108.793 197.96 108.436C198.011 107.789 197.711 107.55 198.399 107.188C199.194 106.765 199.979 106.382 199.912 105.353C199.861 104.537 198.587 104.532 198.638 105.353C198.674 105.908 197.252 106.281 196.926 106.719C196.773 106.923 196.686 107.142 196.645 107.397C196.615 107.596 196.788 108.243 196.676 108.38C196.931 108.345 197.191 108.314 197.446 108.278C195.443 106.964 193.251 109.079 194.296 111.153C194.673 111.892 195.769 111.25 195.402 110.516Z" fill="black"/>
<path d="M217.032 126.127C216.839 125.704 218.52 125.582 218.785 125.368C219.28 124.975 219.193 124.267 219.667 123.93C220.156 123.584 220.809 123.91 221.354 123.558C222.022 123.125 222.246 122.253 222.904 121.764C223.556 121.28 222.919 120.174 222.261 120.663C221.894 120.939 221.563 121.209 221.278 121.571C221.084 121.81 220.951 122.136 220.707 122.32C220.401 122.549 220.309 122.473 219.942 122.468C219.137 122.457 218.536 122.712 218.245 123.512C218.194 123.645 218.199 123.946 218.118 124.048C217.756 124.491 217.649 124.155 217.251 124.241C216.91 124.318 216.604 124.374 216.319 124.598C215.61 125.154 215.6 126.015 215.941 126.764C216.268 127.518 217.369 126.871 217.032 126.127Z" fill="black"/>
<path d="M215.559 111.805C215.07 110.837 216.145 110.134 216.966 110.674C217.185 110.817 217.567 110.781 217.736 110.572C217.955 110.307 218.092 110.083 218.118 109.726C218.169 109.079 217.868 108.839 218.556 108.477C219.351 108.054 220.136 107.672 220.07 106.642C220.019 105.827 218.745 105.822 218.796 106.642C218.831 107.198 217.409 107.57 217.083 108.008C216.93 108.212 216.844 108.431 216.803 108.686C216.772 108.885 216.946 109.532 216.833 109.67C217.088 109.634 217.348 109.604 217.603 109.568C215.6 108.253 213.408 110.368 214.453 112.442C214.83 113.181 215.931 112.534 215.559 111.805Z" fill="black"/>
<path d="M204.25 103.406C204.26 103.661 204.27 103.911 204.28 104.165C204.29 104.441 204.469 104.716 204.749 104.782C205.198 104.889 205.855 104.68 206.237 104.823C206.818 105.042 206.599 106.046 206.854 106.52C207.038 106.862 207.328 107.116 207.726 107.172C208.189 107.244 209.321 106.474 209.244 107.376C209.178 108.192 210.452 108.187 210.519 107.376C210.57 106.734 210.264 106.123 209.698 105.796C209.443 105.649 209.117 105.572 208.826 105.592C208.475 105.618 208.098 105.975 207.919 105.613C207.797 105.363 207.95 104.864 207.858 104.563C207.766 104.267 207.578 104.002 207.323 103.819C206.64 103.335 205.84 103.732 205.091 103.554C205.249 103.758 205.401 103.962 205.559 104.17C205.549 103.916 205.539 103.666 205.529 103.411C205.488 102.591 204.214 102.585 204.25 103.406Z" fill="black"/>
<path d="M215.977 92.3769C215.987 92.6317 215.998 92.8814 216.008 93.1363C216.018 93.4115 216.196 93.6867 216.477 93.753C216.925 93.86 217.583 93.651 217.965 93.7937C218.546 94.0129 218.327 95.0169 218.582 95.4909C218.765 95.8324 219.056 96.0872 219.453 96.1433C219.917 96.2147 221.048 95.4451 220.972 96.3472C220.906 97.1627 222.18 97.1576 222.246 96.3472C222.297 95.705 221.991 95.0934 221.426 94.7672C221.171 94.6194 220.845 94.543 220.554 94.5633C220.202 94.5888 219.825 94.9456 219.647 94.5837C219.524 94.334 219.677 93.8345 219.586 93.5338C219.494 93.2382 219.305 92.9732 219.05 92.7897C218.368 92.3055 217.567 92.7031 216.818 92.5247C216.976 92.7285 217.129 92.9324 217.287 93.1414C217.277 92.8865 217.267 92.6368 217.256 92.382C217.216 91.5614 215.942 91.5563 215.977 92.3769Z" fill="black"/>
<path d="M187.782 95.4501C187.793 95.705 187.803 95.9547 187.813 96.2095C187.823 96.4848 188.001 96.76 188.282 96.8263C188.73 96.9333 189.388 96.7243 189.77 96.867C190.351 97.0862 190.132 98.0902 190.387 98.5642C190.57 98.9057 190.861 99.1605 191.258 99.2166C191.722 99.2879 192.854 98.5183 192.777 99.4204C192.711 100.236 193.985 100.231 194.051 99.4204C194.102 98.7783 193.796 98.1667 193.231 97.8405C192.976 97.6927 192.65 97.6162 192.359 97.6366C192.007 97.6621 191.63 98.0189 191.452 97.657C191.33 97.4073 191.483 96.9078 191.391 96.6071C191.299 96.3115 191.11 96.0465 190.856 95.863C190.173 95.3788 189.372 95.7763 188.623 95.598C188.781 95.8018 188.934 96.0057 189.092 96.2146C189.082 95.9598 189.072 95.7101 189.062 95.4553C189.021 94.6347 187.747 94.6296 187.782 95.4501Z" fill="black"/>
<path d="M207.226 78.9011C207.236 79.1559 207.247 79.4057 207.257 79.6605C207.267 79.9357 207.445 80.211 207.726 80.2772C208.174 80.3842 208.832 80.1753 209.214 80.318C209.795 80.5371 209.576 81.5412 209.831 82.0152C210.014 82.3567 210.305 82.6115 210.702 82.6676C211.166 82.7389 212.297 81.9693 212.221 82.8714C212.155 83.6869 213.429 83.6818 213.495 82.8714C213.546 82.2293 213.24 81.6177 212.675 81.2915C212.42 81.1437 212.094 81.0672 211.803 81.0876C211.451 81.1131 211.074 81.4698 210.896 81.108C210.773 80.8582 210.926 80.3588 210.835 80.058C210.743 79.7624 210.554 79.4974 210.299 79.3139C209.617 78.8297 208.816 79.2273 208.067 79.0489C208.225 79.2528 208.378 79.4566 208.536 79.6656C208.526 79.4108 208.516 79.161 208.505 78.9062C208.465 78.0856 207.191 78.0805 207.226 78.9011Z" fill="black"/>
<path d="M190.58 73.6669C190.591 73.9217 190.601 74.1714 190.611 74.4263C190.621 74.7015 190.8 74.9767 191.08 75.043C191.528 75.15 192.186 74.941 192.568 75.0837C193.149 75.3029 192.93 76.3069 193.185 76.7809C193.368 77.1224 193.659 77.3772 194.056 77.4333C194.52 77.5047 195.652 76.735 195.575 77.6372C195.509 78.4526 196.783 78.4475 196.849 77.6372C196.9 76.995 196.594 76.3834 196.029 76.0572C195.774 75.9094 195.448 75.8329 195.157 75.8533C194.806 75.8788 194.428 76.2356 194.25 75.8737C194.128 75.624 194.281 75.1245 194.189 74.8238C194.097 74.5282 193.908 74.2632 193.654 74.0797C192.971 73.5955 192.171 73.993 191.421 73.8147C191.579 74.0185 191.732 74.2224 191.89 74.4314C191.88 74.1765 191.87 73.9268 191.86 73.672C191.819 72.8514 190.545 72.8463 190.58 73.6669Z" fill="black"/>
<path d="M170.581 88.5441C170.591 88.7989 170.601 89.0487 170.612 89.3035C170.622 89.5787 170.8 89.8539 171.08 89.9202C171.529 90.0272 172.186 89.8183 172.569 89.961C173.15 90.1801 172.931 91.1842 173.185 91.6582C173.369 91.9996 173.659 92.2545 174.057 92.3105C174.521 92.3819 175.652 91.6123 175.576 92.5144C175.51 93.3299 176.784 93.3248 176.85 92.5144C176.901 91.8722 176.595 91.2606 176.029 90.9344C175.775 90.7866 175.448 90.7102 175.158 90.7306C174.806 90.756 174.429 91.1128 174.251 90.751C174.128 90.5012 174.281 90.0017 174.189 89.701C174.098 89.4054 173.909 89.1404 173.654 88.9569C172.971 88.4727 172.171 88.8703 171.422 88.6919C171.58 88.8958 171.733 89.0996 171.891 89.3086C171.881 89.0538 171.87 88.804 171.86 88.5492C171.82 87.7286 170.545 87.7235 170.581 88.5441Z" fill="black"/>
<path d="M195.438 92.0506C195.142 91.4441 195.371 90.6949 195.917 90.3126C196.406 89.9712 196.89 90.1598 197.43 90.1037C198.113 90.0374 198.598 89.6501 198.75 88.9722C198.832 88.6104 198.71 88.2689 198.735 87.9121C198.781 87.2342 198.934 87.3821 199.54 87.3617C200.264 87.3362 200.871 87.0355 201.034 86.2965C201.212 85.4963 199.984 85.1548 199.805 85.9601C199.755 86.1843 198.613 86.0416 198.383 86.1181C198.011 86.2455 197.741 86.4799 197.583 86.8367C197.405 87.2292 197.451 87.6369 197.476 88.0548C197.537 88.9518 197.196 88.748 196.442 88.7989C194.546 88.9315 193.547 91.0619 194.342 92.6826C194.699 93.4318 195.799 92.7845 195.438 92.0506Z" fill="black"/>
<path d="M181.111 86.5972C180.815 85.9907 181.044 85.2414 181.59 84.8592C182.079 84.5177 182.563 84.7063 183.104 84.6502C183.786 84.584 184.271 84.1966 184.424 83.5188C184.505 83.1569 184.383 82.8154 184.408 82.4587C184.454 81.7808 184.607 81.9286 185.214 81.9082C185.937 81.8827 186.544 81.582 186.707 80.843C186.885 80.0428 185.657 79.7013 185.479 80.5066C185.428 80.7309 184.286 80.5882 184.057 80.6646C183.685 80.792 183.414 81.0265 183.256 81.3833C183.078 81.7757 183.124 82.1834 183.149 82.6014C183.211 83.4984 182.869 83.2945 182.115 83.3455C180.219 83.478 179.22 85.6084 180.015 87.2292C180.372 87.9733 181.467 87.3311 181.111 86.5972Z" fill="black"/>
<path d="M163.741 86.0213C163.446 85.4148 163.675 84.6656 164.22 84.2833C164.71 83.9418 165.194 84.1304 165.734 84.0743C166.417 84.0081 166.901 83.6207 167.054 82.9429C167.136 82.581 167.013 82.2395 167.039 81.8828C167.085 81.2049 167.238 81.3527 167.844 81.3323C168.568 81.3068 169.174 81.0061 169.337 80.2671C169.516 79.4669 168.287 79.1255 168.109 79.9307C168.058 80.155 166.916 80.0123 166.687 80.0887C166.315 80.2161 166.045 80.4506 165.887 80.8074C165.709 81.1998 165.754 81.6076 165.78 82.0255C165.841 82.9225 165.5 82.7186 164.745 82.7696C162.849 82.9021 161.85 85.0325 162.645 86.6533C163.002 87.4025 164.103 86.7552 163.741 86.0213Z" fill="black"/>
<path d="M171.56 121.372C171.57 121.627 171.58 121.876 171.59 122.131C171.6 122.407 171.779 122.682 172.059 122.748C172.508 122.855 173.165 122.646 173.547 122.789C174.128 123.008 173.909 124.012 174.164 124.486C174.347 124.827 174.638 125.082 175.036 125.138C175.499 125.21 176.631 124.44 176.554 125.342C176.488 126.158 177.762 126.153 177.828 125.342C177.879 124.7 177.574 124.088 177.008 123.762C176.753 123.614 176.427 123.538 176.136 123.558C175.785 123.584 175.408 123.941 175.229 123.579C175.107 123.329 175.26 122.83 175.168 122.529C175.076 122.233 174.888 121.968 174.633 121.785C173.95 121.301 173.15 121.698 172.401 121.52C172.559 121.724 172.711 121.927 172.869 122.136C172.859 121.882 172.849 121.632 172.839 121.377C172.798 120.556 171.524 120.551 171.56 121.372Z" fill="black"/>
<path d="M174.949 100.328C174.959 100.582 174.969 100.832 174.979 101.087C174.99 101.362 175.168 101.637 175.448 101.704C175.897 101.811 176.554 101.602 176.937 101.745C177.518 101.964 177.298 102.968 177.553 103.442C177.737 103.783 178.027 104.038 178.425 104.094C178.889 104.165 180.02 103.396 179.944 104.298C179.877 105.113 181.152 105.108 181.218 104.298C181.269 103.656 180.963 103.044 180.397 102.718C180.142 102.57 179.816 102.494 179.526 102.514C179.174 102.54 178.797 102.896 178.618 102.534C178.496 102.285 178.649 101.785 178.557 101.485C178.466 101.189 178.277 100.924 178.022 100.74C177.339 100.256 176.539 100.654 175.79 100.475C175.948 100.679 176.101 100.883 176.259 101.092C176.248 100.837 176.238 100.588 176.228 100.333C176.187 99.5121 174.913 99.5071 174.949 100.328Z" fill="black"/>
<path d="M184.449 121.081C184.459 121.336 184.469 121.586 184.48 121.841C184.49 122.116 184.668 122.391 184.949 122.457C185.397 122.564 186.054 122.356 186.437 122.498C187.018 122.717 186.799 123.721 187.053 124.195C187.237 124.537 187.527 124.792 187.925 124.848C188.389 124.919 189.52 124.15 189.444 125.052C189.378 125.867 190.652 125.862 190.718 125.052C190.769 124.409 190.463 123.798 189.897 123.472C189.643 123.324 189.316 123.247 189.026 123.268C188.674 123.293 188.297 123.65 188.119 123.288C187.996 123.038 188.149 122.539 188.057 122.238C187.966 121.943 187.777 121.678 187.522 121.494C186.839 121.01 186.039 121.408 185.29 121.229C185.448 121.433 185.601 121.637 185.759 121.846C185.749 121.591 185.738 121.341 185.728 121.086C185.688 120.261 184.413 120.256 184.449 121.081Z" fill="black"/>
<path d="M164.939 131.535C164.949 131.79 164.959 132.039 164.97 132.294C164.98 132.569 165.158 132.845 165.438 132.911C165.887 133.018 166.544 132.809 166.927 132.952C167.508 133.171 167.289 134.175 167.543 134.649C167.727 134.99 168.017 135.245 168.415 135.301C168.879 135.373 170.01 134.603 169.934 135.505C169.867 136.321 171.142 136.315 171.208 135.505C171.259 134.863 170.953 134.251 170.387 133.925C170.133 133.777 169.806 133.701 169.516 133.721C169.164 133.747 168.787 134.103 168.609 133.742C168.486 133.492 168.639 132.992 168.547 132.692C168.456 132.396 168.267 132.131 168.012 131.948C167.329 131.463 166.529 131.861 165.78 131.682C165.938 131.886 166.091 132.09 166.249 132.299C166.239 132.044 166.228 131.795 166.218 131.54C166.177 130.719 164.903 130.714 164.939 131.535Z" fill="black"/>
<path d="M151.657 133.109C151.667 133.364 151.677 133.614 151.688 133.869C151.698 134.144 151.876 134.419 152.156 134.486C152.605 134.593 153.262 134.384 153.645 134.526C154.226 134.746 154.007 135.75 154.261 136.224C154.445 136.565 154.735 136.82 155.133 136.876C155.597 136.947 156.728 136.178 156.652 137.08C156.585 137.895 157.86 137.89 157.926 137.08C157.977 136.438 157.671 135.826 157.105 135.5C156.851 135.352 156.524 135.276 156.234 135.296C155.882 135.321 155.505 135.678 155.327 135.316C155.204 135.067 155.357 134.567 155.265 134.266C155.174 133.971 154.985 133.706 154.73 133.522C154.047 133.038 153.247 133.436 152.498 133.257C152.656 133.461 152.809 133.665 152.967 133.874C152.957 133.619 152.946 133.369 152.936 133.115C152.895 132.289 151.621 132.284 151.657 133.109Z" fill="black"/>
<path d="M176.763 115.368C176.468 114.761 176.697 114.012 177.242 113.63C177.732 113.289 178.216 113.477 178.756 113.421C179.439 113.355 179.923 112.967 180.076 112.29C180.158 111.928 180.035 111.586 180.061 111.229C180.107 110.552 180.26 110.699 180.866 110.679C181.59 110.654 182.196 110.353 182.359 109.614C182.538 108.814 181.31 108.472 181.131 109.277C181.08 109.502 179.939 109.359 179.709 109.435C179.337 109.563 179.067 109.797 178.909 110.154C178.731 110.547 178.777 110.954 178.802 111.372C178.863 112.269 178.522 112.065 177.767 112.116C175.871 112.249 174.873 114.379 175.668 116C176.024 116.744 177.12 116.102 176.763 115.368Z" fill="black"/>
<path d="M164.169 109.563C163.874 108.956 164.103 108.207 164.648 107.825C165.138 107.483 165.622 107.672 166.162 107.616C166.845 107.55 167.329 107.162 167.482 106.484C167.564 106.122 167.441 105.781 167.467 105.424C167.513 104.746 167.666 104.894 168.272 104.874C168.996 104.848 169.602 104.548 169.766 103.809C169.944 103.008 168.716 102.667 168.537 103.472C168.486 103.696 167.345 103.554 167.115 103.63C166.743 103.758 166.473 103.992 166.315 104.349C166.137 104.741 166.183 105.149 166.208 105.567C166.269 106.464 165.928 106.26 165.173 106.311C163.277 106.444 162.279 108.574 163.074 110.195C163.43 110.939 164.531 110.297 164.169 109.563Z" fill="black"/>
<path d="M162.35 122.565C162.054 121.958 162.284 121.209 162.829 120.827C163.318 120.485 163.802 120.674 164.343 120.618C165.026 120.551 165.51 120.164 165.663 119.486C165.744 119.124 165.622 118.783 165.647 118.426C165.693 117.748 165.846 117.896 166.453 117.876C167.176 117.85 167.783 117.549 167.946 116.81C168.124 116.01 166.896 115.669 166.718 116.474C166.667 116.698 165.525 116.556 165.296 116.632C164.924 116.759 164.653 116.994 164.495 117.351C164.317 117.743 164.363 118.151 164.388 118.569C164.45 119.466 164.108 119.262 163.354 119.313C161.458 119.445 160.459 121.576 161.254 123.197C161.611 123.941 162.712 123.298 162.35 122.565Z" fill="black"/>
<path d="M146.846 109.41C146.856 109.665 146.866 109.914 146.876 110.169C146.887 110.444 147.065 110.72 147.345 110.786C147.794 110.893 148.451 110.684 148.833 110.827C149.414 111.046 149.195 112.05 149.45 112.524C149.634 112.865 149.924 113.12 150.322 113.176C150.785 113.248 151.917 112.478 151.84 113.38C151.774 114.196 153.048 114.191 153.115 113.38C153.166 112.738 152.86 112.126 152.294 111.8C152.039 111.652 151.713 111.576 151.423 111.596C151.071 111.622 150.694 111.979 150.515 111.617C150.393 111.367 150.546 110.868 150.454 110.567C150.362 110.271 150.174 110.006 149.919 109.823C149.236 109.339 148.436 109.736 147.687 109.558C147.845 109.762 147.998 109.965 148.156 110.174C148.145 109.92 148.135 109.67 148.125 109.415C148.084 108.594 146.81 108.589 146.846 109.41Z" fill="black"/>
<path d="M150.235 88.3656C150.245 88.6204 150.255 88.8702 150.266 89.125C150.276 89.4002 150.454 89.6754 150.735 89.7417C151.183 89.8487 151.841 89.6398 152.223 89.7825C152.804 90.0016 152.585 91.0057 152.839 91.4797C153.023 91.8212 153.313 92.076 153.711 92.1321C154.175 92.2034 155.306 91.4338 155.23 92.3359C155.164 93.1514 156.438 93.1463 156.504 92.3359C156.555 91.6937 156.249 91.0821 155.683 90.756C155.429 90.6082 155.102 90.5317 154.812 90.5521C154.46 90.5776 154.083 90.9343 153.905 90.5725C153.782 90.3227 153.935 89.8233 153.843 89.5226C153.752 89.2269 153.563 88.9619 153.308 88.7784C152.625 88.2943 151.825 88.6918 151.076 88.5134C151.234 88.7173 151.387 88.9211 151.545 89.1301C151.535 88.8753 151.524 88.6255 151.514 88.3707C151.474 87.5501 150.199 87.545 150.235 88.3656Z" fill="black"/>
<path d="M152.05 103.406C151.754 102.799 151.983 102.05 152.529 101.668C153.018 101.327 153.502 101.515 154.042 101.459C154.725 101.393 155.209 101.005 155.362 100.328C155.444 99.9657 155.322 99.6242 155.347 99.2674C155.393 98.5896 155.546 98.7374 156.152 98.717C156.876 98.6915 157.483 98.3908 157.646 97.6518C157.824 96.8516 156.596 96.5101 156.417 97.3154C156.366 97.5397 155.225 97.397 154.995 97.4734C154.623 97.6008 154.353 97.8353 154.195 98.192C154.017 98.5845 154.063 98.9922 154.088 99.4102C154.149 100.307 153.808 100.103 153.054 100.154C151.158 100.287 150.159 102.417 150.954 104.038C151.311 104.782 152.411 104.14 152.05 103.406Z" fill="black"/>
<path d="M123.467 88.0192C123.477 88.274 123.488 88.5238 123.498 88.7786C123.508 89.0538 123.686 89.329 123.967 89.3953C124.415 89.5023 125.073 89.2934 125.455 89.4361C126.036 89.6552 125.817 90.6593 126.072 91.1333C126.255 91.4747 126.546 91.7296 126.943 91.7856C127.407 91.857 128.538 91.0874 128.462 91.9895C128.396 92.805 129.67 92.7999 129.736 91.9895C129.787 91.3473 129.481 90.7357 128.916 90.4095C128.661 90.2617 128.335 90.1853 128.044 90.2057C127.692 90.2312 127.315 90.5879 127.137 90.2261C127.015 89.9763 127.167 89.4769 127.076 89.1762C126.984 88.8805 126.795 88.6155 126.541 88.432C125.858 87.9479 125.057 88.3454 124.308 88.167C124.466 88.3709 124.619 88.5747 124.777 88.7837C124.767 88.5289 124.757 88.2791 124.746 88.0243C124.706 87.2037 123.432 87.1986 123.467 88.0192Z" fill="black"/>
<path d="M116.627 85.5013C116.332 84.8948 116.561 84.1456 117.107 83.7634C117.596 83.4219 118.08 83.6105 118.62 83.5544C119.303 83.4882 119.787 83.1008 119.94 82.4229C120.022 82.0611 119.9 81.7196 119.925 81.3628C119.971 80.685 120.124 80.8328 120.73 80.8124C121.454 80.7869 122.061 80.4862 122.224 79.7472C122.402 78.947 121.174 78.6055 120.995 79.4108C120.944 79.6351 119.803 79.4923 119.573 79.5688C119.201 79.6962 118.931 79.9307 118.773 80.2874C118.595 80.6799 118.641 81.0876 118.666 81.5055C118.727 82.4026 118.386 82.1987 117.632 82.2497C115.736 82.3822 114.737 84.5126 115.532 86.1333C115.888 86.8775 116.989 86.2353 116.627 85.5013Z" fill="black"/>
<path d="M151.438 79.0132C151.142 78.4067 151.372 77.6575 151.917 77.2752C152.406 76.9338 152.89 77.1223 153.431 77.0663C154.114 77 154.598 76.6127 154.751 75.9348C154.832 75.573 154.71 75.2315 154.735 74.8747C154.781 74.1969 154.934 74.3446 155.541 74.3243C156.264 74.2988 156.871 73.9981 157.034 73.2591C157.212 72.4589 155.984 72.1174 155.806 72.9227C155.755 73.1469 154.613 73.0042 154.384 73.0807C154.012 73.2081 153.742 73.4425 153.584 73.7993C153.405 74.1917 153.451 74.5995 153.477 75.0174C153.538 75.9144 153.196 75.7106 152.442 75.7615C150.546 75.894 149.547 78.0245 150.342 79.6452C150.699 80.3893 151.8 79.7471 151.438 79.0132Z" fill="black"/>
<path d="M134.114 78.8605C134.124 79.1153 134.135 79.3651 134.145 79.6199C134.155 79.8951 134.333 80.1703 134.614 80.2366C135.062 80.3436 135.72 80.1347 136.102 80.2774C136.683 80.4965 136.464 81.5006 136.719 81.9746C136.902 82.3161 137.193 82.5709 137.59 82.627C138.054 82.6983 139.185 81.9287 139.109 82.8308C139.043 83.6463 140.317 83.6412 140.383 82.8308C140.434 82.1886 140.128 81.577 139.563 81.2508C139.308 81.103 138.982 81.0266 138.691 81.047C138.339 81.0725 137.962 81.4292 137.784 81.0674C137.662 80.8176 137.814 80.3181 137.723 80.0174C137.631 79.7218 137.442 79.4568 137.187 79.2733C136.505 78.7891 135.704 79.1867 134.955 79.0083C135.113 79.2122 135.266 79.416 135.424 79.625C135.414 79.3702 135.404 79.1204 135.393 78.8656C135.353 78.045 134.079 78.0399 134.114 78.8605Z" fill="black"/>
<path d="M119.752 67.245C119.762 67.4998 119.772 67.7495 119.782 68.0044C119.793 68.2796 119.971 68.5548 120.251 68.6211C120.7 68.7281 121.357 68.5191 121.739 68.6618C122.32 68.881 122.101 69.885 122.356 70.359C122.54 70.7005 122.83 70.9553 123.228 71.0114C123.692 71.0827 124.823 70.3132 124.747 71.2153C124.68 72.0307 125.954 72.0256 126.021 71.2153C126.072 70.5731 125.766 69.9615 125.2 69.6353C124.945 69.4875 124.619 69.411 124.329 69.4314C123.977 69.4569 123.6 69.8137 123.421 69.4518C123.299 69.2021 123.452 68.7026 123.36 68.4019C123.268 68.1063 123.08 67.8413 122.825 67.6578C122.142 67.1736 121.342 67.5712 120.593 67.3928C120.751 67.5966 120.904 67.8005 121.062 68.0095C121.051 67.7546 121.041 67.5049 121.031 67.2501C120.99 66.4295 119.716 66.4244 119.752 67.245Z" fill="black"/>
<path d="M139.318 72.8563C139.022 72.2498 139.252 71.5006 139.797 71.1184C140.286 70.7769 140.771 70.9655 141.311 70.9094C141.994 70.8432 142.478 70.4558 142.631 69.778C142.712 69.4161 142.59 69.0746 142.616 68.7178C142.661 68.04 142.814 68.1878 143.421 68.1674C144.145 68.1419 144.751 67.8412 144.914 67.1022C145.093 66.302 143.864 65.9605 143.686 66.7658C143.635 66.9901 142.493 66.8474 142.264 66.9238C141.892 67.0512 141.622 67.2857 141.464 67.6424C141.285 68.0349 141.331 68.4426 141.357 68.8605C141.418 69.7576 141.076 69.5537 140.322 69.6047C138.426 69.7372 137.427 71.8676 138.222 73.4883C138.579 74.2325 139.68 73.5903 139.318 72.8563Z" fill="black"/>
<path d="M139.461 97.6009C139.165 96.9944 139.394 96.2452 139.94 95.8629C140.429 95.5215 140.913 95.71 141.453 95.654C142.136 95.5877 142.621 95.2004 142.774 94.5225C142.855 94.1606 142.733 93.8192 142.758 93.4624C142.804 92.7845 142.957 92.9323 143.564 92.912C144.287 92.8865 144.894 92.5858 145.057 91.8467C145.235 91.0466 144.007 90.7051 143.829 91.5104C143.778 91.7346 142.636 91.5919 142.407 91.6684C142.035 91.7958 141.764 92.0302 141.606 92.387C141.428 92.7794 141.474 93.1872 141.499 93.6051C141.561 94.5021 141.219 94.2983 140.465 94.3492C138.569 94.4817 137.57 96.6122 138.365 98.2329C138.722 98.9821 139.823 98.3348 139.461 97.6009Z" fill="black"/>
<path d="M107.163 74.9002C107.173 75.155 107.183 75.4047 107.194 75.6596C107.204 75.9348 107.382 76.21 107.662 76.2763C108.111 76.3833 108.768 76.1743 109.151 76.317C109.732 76.5362 109.513 77.5402 109.767 78.0142C109.951 78.3557 110.241 78.6105 110.639 78.6666C111.103 78.738 112.234 77.9684 112.158 78.8705C112.091 79.6859 113.366 79.6808 113.432 78.8705C113.483 78.2283 113.177 77.6167 112.611 77.2905C112.356 77.1427 112.03 77.0662 111.74 77.0866C111.388 77.1121 111.011 77.4689 110.833 77.107C110.71 76.8573 110.863 76.3578 110.771 76.0571C110.68 75.7615 110.491 75.4965 110.236 75.313C109.553 74.8288 108.753 75.2263 108.004 75.048C108.162 75.2518 108.315 75.4557 108.473 75.6647C108.463 75.4098 108.452 75.1601 108.442 74.9053C108.401 74.0796 107.127 74.0796 107.163 74.9002Z" fill="black"/>
<path d="M79.2025 73.1929C79.2127 73.4477 79.2229 73.6974 79.2331 73.9523C79.2433 74.2275 79.4217 74.5027 79.702 74.569C80.1505 74.676 80.808 74.467 81.1903 74.6097C81.7713 74.8289 81.5521 75.8329 81.807 76.3069C81.9904 76.6484 82.281 76.9032 82.6785 76.9593C83.1423 77.0307 84.2738 76.2611 84.1973 77.1632C84.1311 77.9786 85.4052 77.9735 85.4715 77.1632C85.5225 76.521 85.2167 75.9094 84.6509 75.5832C84.3961 75.4354 84.0699 75.3589 83.7794 75.3793C83.4277 75.4048 83.0505 75.7616 82.8722 75.3997C82.7498 75.15 82.9027 74.6505 82.811 74.3498C82.7193 74.0542 82.5307 73.7892 82.2759 73.6057C81.5929 73.1215 80.7927 73.5191 80.0435 73.3407C80.2015 73.5445 80.3544 73.7484 80.5124 73.9574C80.5022 73.7025 80.492 73.4528 80.4818 73.198C80.441 72.3723 79.1669 72.3672 79.2025 73.1929Z" fill="black"/>
<path d="M72.3627 70.67C72.0671 70.0635 72.2965 69.3143 72.8418 68.9321C73.3311 68.5906 73.8153 68.7792 74.3556 68.7231C75.0385 68.6568 75.5227 68.2695 75.6756 67.5916C75.7571 67.2298 75.6348 66.8883 75.6603 66.5315C75.7062 65.8537 75.8591 66.0015 76.4656 65.9811C77.1893 65.9556 77.7958 65.6549 77.9589 64.9159C78.1373 64.1157 76.909 63.7742 76.7306 64.5795C76.6797 64.8037 75.538 64.661 75.3086 64.7375C74.9366 64.8649 74.6665 65.0994 74.5085 65.4561C74.3301 65.8486 74.3759 66.2563 74.4014 66.6742C74.4626 67.5713 74.1211 67.3674 73.3668 67.4184C71.4708 67.5509 70.4719 69.6813 71.267 71.302C71.6237 72.0461 72.7246 71.404 72.3627 70.67Z" fill="black"/>
<path d="M45.7886 78.8043C45.493 78.1977 45.7224 77.4485 46.2677 77.0663C46.757 76.7248 47.2412 76.9134 47.7815 76.8573C48.4644 76.7911 48.9486 76.4037 49.1015 75.7258C49.1831 75.364 49.0607 75.0225 49.0862 74.6657C49.1321 73.9879 49.285 74.1357 49.8915 74.1153C50.6152 74.0898 51.2217 73.7891 51.3848 73.0501C51.5632 72.2499 50.3349 71.9084 50.1565 72.7137C50.1056 72.938 48.9639 72.7953 48.7345 72.8717C48.3625 72.9991 48.0924 73.2336 47.9344 73.5903C47.756 73.9828 47.8018 74.3905 47.8273 74.8085C47.8885 75.7055 47.547 75.5016 46.7927 75.5526C44.8967 75.6851 43.8978 77.8155 44.6929 79.4362C45.0496 80.1854 46.1505 79.5382 45.7886 78.8043Z" fill="black"/>
<path d="M89.8495 64.0289C89.8597 64.2838 89.8699 64.5335 89.8801 64.7883C89.8903 65.0636 90.0687 65.3388 90.349 65.405C90.7975 65.5121 91.455 65.3031 91.8372 65.4458C92.4183 65.665 92.1991 66.669 92.4539 67.143C92.6374 67.4845 92.9279 67.7393 93.3255 67.7954C93.7893 67.8667 94.9207 67.0971 94.8443 67.9992C94.778 68.8147 96.0522 68.8096 96.1185 67.9992C96.1694 67.357 95.8636 66.7455 95.2979 66.4193C95.0431 66.2715 94.7169 66.195 94.4264 66.2154C94.0747 66.2409 93.6975 66.5977 93.5192 66.2358C93.3968 65.9861 93.5497 65.4866 93.458 65.1859C93.3663 64.8903 93.1777 64.6252 92.9228 64.4418C92.2399 63.9576 91.4397 64.3551 90.6905 64.1767C90.8485 64.3806 91.0014 64.5845 91.1594 64.7934C91.1492 64.5386 91.139 64.2889 91.1288 64.034C91.088 63.2135 89.8138 63.2084 89.8495 64.0289Z" fill="black"/>
<path d="M54.0402 77.7696C54.0504 78.0245 54.0606 78.2742 54.0708 78.529C54.081 78.8043 54.2593 79.0795 54.5396 79.1458C54.9881 79.2528 55.6456 79.0438 56.0279 79.1865C56.6089 79.4057 56.3897 80.4097 56.6446 80.8837C56.828 81.2252 57.1186 81.48 57.5161 81.5361C57.9799 81.6075 59.1114 80.8379 59.0349 81.74C58.9686 82.5554 60.2428 82.5503 60.3091 81.74C60.36 81.0978 60.0542 80.4862 59.4885 80.16C59.2337 80.0122 58.9075 79.9357 58.617 79.9561C58.2653 79.9816 57.8882 80.3384 57.7098 79.9765C57.5874 79.7268 57.7404 79.2273 57.6486 78.9266C57.5569 78.631 57.3683 78.366 57.1135 78.1825C56.4305 77.6983 55.6303 78.0958 54.8811 77.9174C55.0391 78.1213 55.192 78.3252 55.35 78.5341C55.3398 78.2793 55.3296 78.0296 55.3194 77.7747C55.2787 76.9491 54.0045 76.944 54.0402 77.7696Z" fill="black"/>
<path d="M40.7022 63.4736C40.7124 63.7284 40.7226 63.9782 40.7328 64.233C40.743 64.5082 40.9213 64.7834 41.2017 64.8497C41.6502 64.9567 42.3076 64.7478 42.6899 64.8905C43.2709 65.1096 43.0518 66.1137 43.3066 66.5877C43.4901 66.9292 43.7806 67.184 44.1781 67.2401C44.6419 67.3114 45.7734 66.5418 45.6969 67.4439C45.6307 68.2594 46.9048 68.2543 46.9711 67.4439C47.0221 66.8017 46.7162 66.1901 46.1505 65.864C45.8957 65.7162 45.5695 65.6397 45.279 65.6601C44.9273 65.6856 44.5502 66.0423 44.3718 65.6805C44.2495 65.4307 44.4024 64.9313 44.3106 64.6306C44.2189 64.3349 44.0303 64.0699 43.7755 63.8864C43.0925 63.4023 42.2923 63.7998 41.5431 63.6214C41.7011 63.8253 41.854 64.0291 42.012 64.2381C42.0018 63.9833 41.9916 63.7335 41.9815 63.4787C41.9407 62.653 40.6665 62.6479 40.7022 63.4736Z" fill="black"/>
<path d="M59.6517 65.8639C59.6619 66.1188 59.6721 66.3685 59.6823 66.6233C59.6924 66.8985 59.8708 67.1738 60.1512 67.24C60.5997 67.347 61.2571 67.1381 61.6394 67.2808C62.2204 67.5 62.0012 68.504 62.2561 68.978C62.4396 69.3195 62.7301 69.5743 63.1276 69.6304C63.5914 69.7017 64.7229 68.9321 64.6464 69.8342C64.5801 70.6497 65.8543 70.6446 65.9206 69.8342C65.9715 69.1921 65.6657 68.5804 65.1 68.2543C64.8452 68.1065 64.519 68.03 64.2285 68.0504C63.8768 68.0759 63.4997 68.4326 63.3213 68.0708C63.199 67.821 63.3519 67.3216 63.2601 67.0209C63.1684 66.7253 62.9798 66.4602 62.725 66.2768C62.042 65.7926 61.2418 66.1901 60.4926 66.0117C60.6506 66.2156 60.8035 66.4195 60.9615 66.6284C60.9513 66.3736 60.9411 66.1238 60.9309 65.869C60.8902 65.0484 59.616 65.0434 59.6517 65.8639Z" fill="black"/>
<path d="M70.5433 83.5443C70.2477 82.9378 70.477 82.1886 71.0224 81.8063C71.5116 81.4648 71.9958 81.6534 72.5361 81.5973C73.219 81.5311 73.7032 81.1437 73.8561 80.4659C73.9377 80.104 73.8154 79.7625 73.8408 79.4058C73.8867 78.7279 74.0396 78.8757 74.6461 78.8553C75.3698 78.8298 75.9763 78.5291 76.1394 77.7901C76.3178 76.99 75.0895 76.6485 74.9111 77.4537C74.8602 77.678 73.7185 77.5353 73.4892 77.6117C73.1171 77.7392 72.847 77.9736 72.689 78.3304C72.5106 78.7228 72.5565 79.1305 72.582 79.5485C72.6431 80.4455 72.3016 80.2416 71.5473 80.2926C69.6514 80.4251 68.6524 82.5555 69.4475 84.1763C69.8043 84.9255 70.9052 84.2782 70.5433 83.5443Z" fill="black"/>
<path d="M95.1959 82.7695C94.9003 82.163 95.1296 81.4138 95.675 81.0315C96.1642 80.69 96.6484 80.8786 97.1887 80.8225C97.8716 80.7563 98.3558 80.3689 98.5087 79.6911C98.5903 79.3292 98.4679 78.9877 98.4934 78.631C98.5393 77.9531 98.6922 78.1009 99.2987 78.0805C100.022 78.055 100.629 77.7543 100.792 77.0153C100.97 76.2151 99.7421 75.8737 99.5637 76.6789C99.5127 76.9032 98.3711 76.7605 98.1418 76.8369C97.7697 76.9644 97.4996 77.1988 97.3416 77.5556C97.1632 77.948 97.2091 78.3557 97.2345 78.7737C97.2957 79.6707 96.9542 79.4668 96.1999 79.5178C94.304 79.6503 93.305 81.7807 94.1001 83.4015C94.4569 84.1507 95.5577 83.5034 95.1959 82.7695Z" fill="black"/>
<path d="M109.028 68.188C108.733 67.5815 108.962 66.8323 109.507 66.45C109.997 66.1085 110.481 66.2971 111.021 66.241C111.704 66.1748 112.188 65.7874 112.341 65.1096C112.423 64.7477 112.3 64.4062 112.326 64.0494C112.372 63.3716 112.525 63.5194 113.131 63.499C113.855 63.4735 114.461 63.1728 114.624 62.4338C114.803 61.6336 113.575 61.2921 113.396 62.0974C113.345 62.3217 112.204 62.179 111.974 62.2554C111.602 62.3828 111.332 62.6173 111.174 62.9741C110.996 63.3665 111.041 63.7742 111.067 64.1922C111.128 65.0892 110.787 64.8853 110.032 64.9363C108.136 65.0688 107.137 67.1992 107.933 68.82C108.289 69.5692 109.39 68.9219 109.028 68.188Z" fill="black"/>
<path d="M149.471 127.427C149.175 126.82 149.404 126.071 149.95 125.689C150.439 125.347 150.923 125.536 151.463 125.48C152.146 125.414 152.63 125.026 152.783 124.348C152.865 123.987 152.743 123.645 152.768 123.288C152.814 122.61 152.967 122.758 153.573 122.738C154.297 122.712 154.904 122.412 155.067 121.673C155.245 120.872 154.017 120.531 153.838 121.336C153.787 121.561 152.646 121.418 152.416 121.494C152.044 121.622 151.774 121.856 151.616 122.213C151.438 122.605 151.484 123.013 151.509 123.431C151.57 124.328 151.229 124.124 150.475 124.175C148.579 124.308 147.58 126.438 148.375 128.059C148.732 128.808 149.832 128.161 149.471 127.427Z" fill="black"/>
<path d="M160.734 148.812C160.439 148.206 160.668 147.457 161.213 147.074C161.702 146.733 162.187 146.922 162.727 146.865C163.41 146.799 163.894 146.412 164.047 145.734C164.128 145.372 164.006 145.031 164.032 144.674C164.078 143.996 164.23 144.144 164.837 144.123C165.561 144.098 166.167 143.797 166.33 143.058C166.509 142.258 165.28 141.917 165.102 142.722C165.051 142.946 163.909 142.803 163.68 142.88C163.308 143.007 163.038 143.242 162.88 143.598C162.701 143.991 162.747 144.399 162.773 144.817C162.834 145.714 162.492 145.51 161.738 145.561C159.842 145.693 158.843 147.824 159.638 149.444C159.995 150.194 161.096 149.546 160.734 148.812Z" fill="black"/>
<path d="M181.692 149.179C181.702 149.434 181.712 149.684 181.722 149.939C181.732 150.214 181.911 150.489 182.191 150.556C182.64 150.663 183.297 150.454 183.679 150.596C184.26 150.815 184.041 151.82 184.296 152.294C184.48 152.635 184.77 152.89 185.168 152.946C185.631 153.017 186.763 152.248 186.686 153.15C186.62 153.965 187.894 153.96 187.961 153.15C188.012 152.508 187.706 151.896 187.14 151.57C186.885 151.422 186.559 151.346 186.268 151.366C185.917 151.391 185.54 151.748 185.361 151.386C185.239 151.137 185.392 150.637 185.3 150.336C185.208 150.041 185.02 149.776 184.765 149.592C184.082 149.108 183.282 149.506 182.533 149.327C182.691 149.531 182.844 149.735 183.002 149.944C182.991 149.689 182.981 149.439 182.971 149.185C182.93 148.364 181.656 148.359 181.692 149.179Z" fill="black"/>
<path d="M197.751 149.22C197.762 149.475 197.772 149.725 197.782 149.98C197.792 150.255 197.971 150.53 198.251 150.596C198.699 150.703 199.357 150.494 199.739 150.637C200.32 150.856 200.101 151.86 200.356 152.334C200.539 152.676 200.83 152.93 201.227 152.987C201.691 153.058 202.823 152.288 202.746 153.19C202.68 154.006 203.954 154.001 204.02 153.19C204.071 152.548 203.765 151.937 203.2 151.61C202.945 151.463 202.619 151.386 202.328 151.407C201.977 151.432 201.599 151.789 201.421 151.427C201.299 151.177 201.452 150.678 201.36 150.377C201.268 150.081 201.08 149.816 200.825 149.633C200.142 149.149 199.342 149.546 198.592 149.368C198.75 149.572 198.903 149.776 199.061 149.985C199.051 149.73 199.041 149.48 199.031 149.225C198.99 148.4 197.716 148.4 197.751 149.22Z" fill="black"/>
<path d="M220.671 131.912C220.681 132.167 220.692 132.416 220.702 132.671C220.712 132.946 220.89 133.222 221.171 133.288C221.619 133.395 222.277 133.186 222.659 133.329C223.24 133.548 223.021 134.552 223.276 135.026C223.459 135.367 223.75 135.622 224.147 135.678C224.611 135.75 225.742 134.98 225.666 135.882C225.6 136.698 226.874 136.692 226.94 135.882C226.991 135.24 226.685 134.628 226.12 134.302C225.865 134.154 225.539 134.078 225.248 134.098C224.896 134.124 224.519 134.481 224.341 134.119C224.219 133.869 224.371 133.369 224.28 133.069C224.188 132.773 223.999 132.508 223.745 132.325C223.062 131.84 222.261 132.238 221.512 132.06C221.67 132.263 221.823 132.467 221.981 132.676C221.971 132.421 221.961 132.172 221.95 131.917C221.915 131.096 220.636 131.091 220.671 131.912Z" fill="black"/>
<path d="M188.853 142.498C188.557 141.891 188.786 141.142 189.332 140.76C189.821 140.418 190.305 140.607 190.845 140.551C191.528 140.484 192.013 140.097 192.166 139.419C192.247 139.057 192.125 138.716 192.15 138.359C192.196 137.681 192.349 137.829 192.955 137.809C193.679 137.783 194.286 137.483 194.449 136.743C194.627 135.943 193.399 135.602 193.221 136.407C193.17 136.631 192.028 136.489 191.799 136.565C191.426 136.693 191.156 136.927 190.998 137.284C190.82 137.676 190.866 138.084 190.891 138.502C190.952 139.399 190.611 139.195 189.857 139.246C187.961 139.378 186.962 141.509 187.757 143.13C188.114 143.874 189.215 143.232 188.853 142.498Z" fill="black"/>
<path d="M176.264 136.692C175.968 136.086 176.198 135.337 176.743 134.955C177.232 134.613 177.716 134.802 178.257 134.746C178.94 134.679 179.424 134.292 179.577 133.614C179.658 133.252 179.536 132.911 179.561 132.554C179.607 131.876 179.76 132.024 180.367 132.004C181.09 131.978 181.697 131.677 181.86 130.938C182.038 130.138 180.81 129.797 180.632 130.602C180.581 130.826 179.439 130.684 179.21 130.76C178.838 130.887 178.568 131.122 178.41 131.479C178.231 131.871 178.277 132.279 178.302 132.697C178.364 133.594 178.022 133.39 177.268 133.441C175.372 133.573 174.373 135.704 175.168 137.324C175.525 138.074 176.626 137.426 176.264 136.692Z" fill="black"/>
<path d="M174.444 149.694C174.149 149.088 174.378 148.339 174.923 147.956C175.413 147.615 175.897 147.803 176.437 147.747C177.12 147.681 177.604 147.294 177.757 146.616C177.839 146.254 177.716 145.913 177.742 145.556C177.788 144.878 177.941 145.026 178.547 145.005C179.271 144.98 179.877 144.679 180.04 143.94C180.219 143.14 178.991 142.798 178.812 143.604C178.761 143.828 177.62 143.685 177.39 143.762C177.018 143.889 176.748 144.124 176.59 144.48C176.412 144.873 176.457 145.281 176.483 145.698C176.544 146.595 176.203 146.392 175.448 146.443C173.552 146.575 172.553 148.705 173.348 150.326C173.705 151.07 174.806 150.428 174.444 149.694Z" fill="black"/>
<path d="M162.304 158.639C162.314 158.894 162.324 159.143 162.335 159.398C162.345 159.673 162.523 159.949 162.803 160.015C163.252 160.122 163.909 159.913 164.292 160.056C164.873 160.275 164.654 161.279 164.908 161.753C165.092 162.094 165.382 162.349 165.78 162.405C166.244 162.477 167.375 161.707 167.299 162.609C167.233 163.425 168.507 163.419 168.573 162.609C168.624 161.967 168.318 161.355 167.752 161.029C167.498 160.881 167.171 160.805 166.881 160.825C166.529 160.851 166.152 161.207 165.974 160.846C165.851 160.596 166.004 160.096 165.912 159.796C165.821 159.5 165.632 159.235 165.377 159.052C164.694 158.567 163.894 158.965 163.145 158.787C163.303 158.99 163.456 159.194 163.614 159.403C163.604 159.148 163.593 158.899 163.583 158.644C163.543 157.823 162.268 157.818 162.304 158.639Z" fill="black"/>
<path d="M215.977 146.162C215.987 146.417 215.998 146.667 216.008 146.922C216.018 147.197 216.196 147.472 216.477 147.538C216.925 147.645 217.583 147.436 217.965 147.579C218.546 147.798 218.327 148.802 218.582 149.276C218.765 149.618 219.056 149.873 219.453 149.929C219.917 150 221.048 149.23 220.972 150.132C220.906 150.948 222.18 150.943 222.246 150.132C222.297 149.49 221.991 148.879 221.426 148.552C221.171 148.405 220.845 148.328 220.554 148.349C220.202 148.374 219.825 148.731 219.647 148.369C219.524 148.119 219.677 147.62 219.586 147.319C219.494 147.023 219.305 146.758 219.05 146.575C218.368 146.091 217.567 146.488 216.818 146.31C216.976 146.514 217.129 146.718 217.287 146.927C217.277 146.672 217.267 146.422 217.256 146.167C217.216 145.347 215.942 145.342 215.977 146.162Z" fill="black"/>
<path d="M188.73 164.658C188.608 165.163 188.695 165.621 189.077 165.998C189.281 166.197 189.536 166.243 189.755 166.391C190.132 166.513 190.412 166.778 190.591 167.186C190.524 167.329 190.484 167.476 190.479 167.629C190.428 168.134 190.652 168.455 191.07 168.715C191.844 169.199 192.446 169.485 192.767 170.433C193.027 171.207 194.26 170.876 193.995 170.096C193.791 169.495 193.506 168.944 193.057 168.491C192.838 168.272 192.583 168.073 192.318 167.915C192.186 167.828 192.048 167.757 191.906 167.701C191.681 167.67 191.656 167.614 191.824 167.527C191.748 166.931 191.951 166.549 191.528 165.988C191.37 165.779 189.954 165.04 189.964 165.005C190.152 164.199 188.924 163.858 188.73 164.658Z" fill="black"/>
<path d="M211.4 164.016C211.207 163.593 212.889 163.471 213.154 163.257C213.648 162.864 213.561 162.156 214.035 161.819C214.525 161.473 215.177 161.799 215.722 161.447C216.39 161.014 216.614 160.142 217.272 159.653C217.924 159.169 217.287 158.063 216.63 158.552C216.263 158.827 215.931 159.098 215.646 159.459C215.452 159.699 215.32 160.025 215.075 160.209C214.769 160.438 214.678 160.362 214.311 160.356C213.505 160.346 212.904 160.601 212.613 161.401C212.562 161.534 212.568 161.835 212.486 161.936C212.124 162.38 212.017 162.043 211.62 162.13C211.278 162.207 210.972 162.263 210.687 162.487C209.978 163.042 209.968 163.904 210.31 164.653C210.636 165.402 211.737 164.755 211.4 164.016Z" fill="black"/>
<path d="M193.129 179.688C192.935 179.265 194.617 179.143 194.882 178.929C195.376 178.536 195.29 177.828 195.764 177.491C196.253 177.145 196.905 177.471 197.451 177.119C198.118 176.686 198.343 175.815 199 175.325C199.653 174.841 199.016 173.735 198.358 174.224C197.991 174.5 197.66 174.77 197.374 175.132C197.181 175.371 197.048 175.697 196.804 175.881C196.498 176.11 196.406 176.034 196.039 176.029C195.234 176.018 194.632 176.273 194.342 177.073C194.291 177.206 194.296 177.507 194.214 177.609C193.853 178.052 193.746 177.716 193.348 177.802C193.006 177.879 192.701 177.935 192.415 178.159C191.707 178.715 191.697 179.576 192.038 180.325C192.364 181.074 193.465 180.427 193.129 179.688Z" fill="black"/>
<path d="M200.825 162.574C200.631 162.15 202.313 162.028 202.578 161.814C203.072 161.422 202.986 160.713 203.46 160.377C203.949 160.03 204.601 160.356 205.147 160.005C205.814 159.572 206.039 158.7 206.696 158.211C207.349 157.727 206.711 156.621 206.054 157.11C205.687 157.385 205.356 157.655 205.07 158.017C204.877 158.257 204.744 158.583 204.499 158.766C204.194 158.996 204.102 158.919 203.735 158.914C202.93 158.904 202.328 159.159 202.038 159.959C201.987 160.091 201.992 160.392 201.91 160.494C201.548 160.937 201.441 160.601 201.044 160.688C200.702 160.764 200.397 160.82 200.111 161.044C199.403 161.6 199.393 162.461 199.734 163.211C200.06 163.965 201.161 163.318 200.825 162.574Z" fill="black"/>
<path d="M181.101 175.917C181.111 176.171 181.121 176.421 181.131 176.676C181.141 176.951 181.32 177.226 181.6 177.293C182.049 177.4 182.706 177.191 183.088 177.333C183.669 177.553 183.45 178.557 183.705 179.031C183.889 179.372 184.179 179.627 184.577 179.683C185.04 179.754 186.172 178.985 186.095 179.887C186.029 180.702 187.303 180.697 187.37 179.887C187.421 179.245 187.115 178.633 186.549 178.307C186.294 178.159 185.968 178.083 185.677 178.103C185.326 178.129 184.949 178.485 184.77 178.123C184.648 177.874 184.801 177.374 184.709 177.074C184.617 176.778 184.429 176.513 184.174 176.329C183.491 175.845 182.691 176.243 181.942 176.064C182.1 176.268 182.252 176.472 182.41 176.681C182.4 176.426 182.39 176.177 182.38 175.922C182.344 175.101 181.07 175.096 181.101 175.917Z" fill="black"/>
<path d="M204.464 168.358C204.474 168.613 204.484 168.863 204.494 169.118C204.505 169.393 204.683 169.668 204.963 169.734C205.412 169.841 206.069 169.632 206.452 169.775C207.033 169.994 206.813 170.998 207.068 171.472C207.252 171.814 207.542 172.069 207.94 172.125C208.404 172.196 209.535 171.426 209.459 172.328C209.392 173.144 210.666 173.139 210.733 172.328C210.784 171.686 210.478 171.075 209.912 170.749C209.657 170.601 209.331 170.524 209.041 170.545C208.689 170.57 208.312 170.927 208.133 170.565C208.011 170.315 208.164 169.816 208.072 169.515C207.981 169.219 207.792 168.954 207.537 168.771C206.854 168.287 206.054 168.684 205.305 168.506C205.463 168.71 205.616 168.914 205.774 169.123C205.763 168.868 205.753 168.618 205.743 168.363C205.702 167.543 204.428 167.538 204.464 168.358Z" fill="black"/>
<path d="M199.77 182.608C199.78 182.863 199.79 183.113 199.8 183.368C199.811 183.643 199.989 183.918 200.269 183.985C200.718 184.092 201.375 183.883 201.758 184.025C202.339 184.244 202.119 185.249 202.374 185.723C202.558 186.064 202.848 186.319 203.246 186.375C203.71 186.446 204.841 185.677 204.765 186.579C204.698 187.394 205.972 187.389 206.039 186.579C206.09 185.937 205.784 185.325 205.218 184.999C204.963 184.851 204.637 184.775 204.347 184.795C203.995 184.82 203.618 185.177 203.439 184.815C203.317 184.566 203.47 184.066 203.378 183.765C203.286 183.47 203.098 183.205 202.843 183.021C202.16 182.537 201.36 182.935 200.611 182.756C200.769 182.96 200.922 183.164 201.08 183.373C201.069 183.118 201.059 182.868 201.049 182.614C201.008 181.788 199.734 181.788 199.77 182.608Z" fill="black"/>
<path d="M173.629 163.792C173.333 163.185 173.563 162.436 174.108 162.054C174.597 161.712 175.081 161.901 175.622 161.845C176.305 161.778 176.789 161.391 176.942 160.713C177.023 160.351 176.901 160.01 176.926 159.653C176.972 158.975 177.125 159.123 177.732 159.103C178.455 159.077 179.062 158.776 179.225 158.037C179.403 157.237 178.175 156.896 177.997 157.701C177.946 157.925 176.804 157.783 176.575 157.859C176.203 157.986 175.932 158.221 175.775 158.578C175.596 158.97 175.642 159.378 175.667 159.796C175.729 160.693 175.387 160.489 174.633 160.54C172.737 160.672 171.738 162.803 172.533 164.424C172.89 165.173 173.986 164.526 173.629 163.792Z" fill="black"/>
<path d="M174.031 173.679C173.736 173.073 173.965 172.323 174.51 171.941C175 171.6 175.484 171.788 176.024 171.732C176.707 171.666 177.191 171.279 177.344 170.601C177.426 170.239 177.304 169.897 177.329 169.541C177.375 168.863 177.528 169.011 178.134 168.99C178.858 168.965 179.465 168.664 179.628 167.925C179.806 167.125 178.578 166.783 178.399 167.589C178.348 167.813 177.207 167.67 176.977 167.747C176.605 167.874 176.335 168.108 176.177 168.465C175.999 168.858 176.045 169.265 176.07 169.683C176.131 170.58 175.79 170.376 175.035 170.427C173.139 170.56 172.141 172.69 172.936 174.311C173.292 175.055 174.393 174.413 174.031 173.679Z" fill="black"/>
<path d="M207.72 96.0159C207.563 95.547 207.884 95.2157 208.347 95.2565C208.689 95.2871 208.974 95.491 209.336 95.4757C209.907 95.4451 210.355 95.0781 210.473 94.5226C210.549 94.1454 210.519 94.2117 210.901 94.069C211.176 93.967 211.41 93.8192 211.599 93.5899C211.966 93.1516 211.991 92.5756 211.568 92.173C210.977 91.6073 210.075 92.5043 210.666 93.0751C210.442 92.8611 210.646 92.8509 210.259 92.9273C210.136 92.9528 210.004 93.014 209.892 93.07C209.667 93.1821 209.443 93.3401 209.311 93.5644C209.234 93.6969 209.234 93.8345 209.183 93.9721C209.168 94.0333 209.168 94.0894 209.178 94.1505C209.209 94.2729 209.183 94.278 209.097 94.1658C208.826 94.1862 208.485 93.9517 208.189 93.9467C206.971 93.9263 206.105 95.2259 206.477 96.3472C206.752 97.1321 207.98 96.7957 207.72 96.0159Z" fill="black"/>
<path d="M143.074 96.7039C142.738 107.376 142.728 118.059 143.038 128.732C143.064 129.552 144.338 129.552 144.313 128.732C144.002 118.054 144.017 107.376 144.348 96.7039C144.374 95.8834 143.1 95.8834 143.074 96.7039Z" fill="black"/>
<path d="M127.274 102.652C132.56 104.736 137.87 106.76 143.033 109.125C143.772 109.466 144.42 108.365 143.676 108.024C138.411 105.613 132.998 103.549 127.611 101.423C126.851 101.118 126.52 102.351 127.274 102.652Z" fill="black"/>
</svg>
