<svg width="288" height="357" viewBox="0 0 288 357" fill="none" xmlns="http://www.w3.org/2000/svg">
<path d="M255.858 85.1157C260.678 90.9161 264.864 96.7836 268.476 102.703C312.587 174.976 270.408 254.318 234.734 296.96C225.878 307.549 217.419 315.873 210.785 321.265C166.678 357.1 115.777 366.115 100.162 346.769C82.7641 325.213 109.411 305.123 120.867 298.859C137.618 289.704 160.209 273.593 143.235 223.969C134.415 198.188 87.5168 181.642 66.3523 166.238C45.1878 150.834 48.6353 122.22 63.682 87.2315C78.7235 52.2433 177.555 -9.08927 255.858 85.1157Z" fill="#FFECDD"/>
<path d="M13.0726 182.112C6.19114 182.112 0.593201 176.511 0.593201 169.627C0.593201 162.742 6.19114 157.142 13.0726 157.142C19.9541 157.142 25.552 162.742 25.552 169.627C25.552 176.511 19.9489 182.112 13.0726 182.112ZM13.0726 158.694C7.04682 158.694 2.1396 163.598 2.1396 169.632C2.1396 175.666 7.04166 180.57 13.0726 180.57C19.1035 180.57 24.0056 175.666 24.0056 169.632C24.0056 163.598 19.0984 158.694 13.0726 158.694Z" fill="#FFECDD"/>
<path d="M62.9238 101.097L43.7588 105.97C41.8722 106.45 39.898 105.645 38.8825 103.985C37.1609 101.169 34.8825 96.2905 34.5939 89.865C34.2227 81.5468 36.3619 79.2571 36.3619 79.2571L56.3413 76.8179C56.3413 76.8179 55.0114 85.6105 57.4238 91.5152C59.831 97.4148 62.9238 101.097 62.9238 101.097Z" fill="#F8BAB4"/>
<path d="M203.02 63.4868C201.5 63.4868 199.959 63.1516 198.5 62.4503C193.309 59.9491 191.118 53.6884 193.624 48.4953C196.124 43.3021 202.381 41.1104 207.572 43.6167C210.087 44.8286 211.979 46.9481 212.902 49.5834C213.825 52.2187 213.665 55.055 212.453 57.5717C210.649 61.3054 206.907 63.4868 203.02 63.4868ZM203.051 44.1272C199.737 44.1272 196.546 45.9838 195.015 49.1657C192.886 53.5904 194.747 58.9228 199.17 61.0578C203.593 63.1929 208.923 61.326 211.057 56.9013C212.087 54.7559 212.227 52.3424 211.438 50.0939C210.654 47.8506 209.041 46.0405 206.897 45.0091C205.66 44.4109 204.345 44.1272 203.051 44.1272Z" fill="black"/>
<path d="M103.719 95.6762C105.105 95.047 106.502 93.7629 107.1 92.3498C106.708 92.1848 106.317 92.0197 105.925 91.8547C105.616 93.6958 107.018 95.1553 108.698 95.6246C108.647 95.2327 108.595 94.8407 108.543 94.4488C106.641 95.506 106.332 97.0119 105.713 98.9406C106.126 99.0541 106.543 99.1676 106.956 99.281C107.373 97.0016 105.657 94.851 103.301 94.9077C102.471 94.9284 102.471 96.2177 103.301 96.197C104.765 96.1609 105.987 97.4502 105.713 98.9406C105.564 99.7503 106.698 100.086 106.956 99.281C107.466 97.6926 107.585 96.4549 109.198 95.5576C109.688 95.2842 109.569 94.5261 109.043 94.3817C108.126 94.1239 106.982 93.3142 107.167 92.1951C107.275 91.5401 106.296 90.9728 105.992 91.7C105.466 92.9429 104.291 94.0156 103.074 94.5674C102.311 94.9026 102.966 96.0165 103.719 95.6762Z" fill="black"/>
<path d="M72.9195 36.3554C74.3061 35.7262 75.7031 34.4421 76.301 33.029C75.9093 32.864 75.5175 32.6989 75.1258 32.5339C74.8165 34.375 76.2185 35.8345 77.899 36.3038C77.8474 35.9119 77.7959 35.5199 77.7443 35.128C75.8422 36.1852 75.533 37.6911 74.9144 39.6198C75.3268 39.7333 75.7443 39.8468 76.1567 39.9602C76.5742 37.6808 74.8577 35.5302 72.502 35.5869C71.6721 35.6076 71.6721 36.8969 72.502 36.8762C73.9659 36.8401 75.1876 38.1294 74.9144 39.6198C74.7649 40.4295 75.899 40.7647 76.1567 39.9602C76.667 38.3718 76.7856 37.1341 78.399 36.2368C78.8887 35.9634 78.7701 35.2053 78.2443 35.0609C77.3268 34.8031 76.1825 33.9934 76.368 32.8743C76.4763 32.2193 75.4969 31.652 75.1927 32.3792C74.667 33.6221 73.4917 34.6948 72.2752 35.2466C71.5123 35.5869 72.167 36.6957 72.9195 36.3554Z" fill="black"/>
<path d="M147.807 4.72792C149.193 4.09878 150.59 2.81472 151.188 1.40174C150.796 1.23673 150.405 1.0717 150.013 0.906683C149.704 2.74768 151.106 4.20707 152.786 4.67635C152.734 4.28442 152.683 3.8925 152.631 3.50058C150.729 4.55774 150.42 6.06354 149.801 7.9922C150.214 8.10565 150.631 8.21911 151.044 8.33256C151.461 6.05323 149.745 3.90282 147.389 3.95954C146.559 3.98017 146.559 5.26939 147.389 5.24876C148.853 5.21266 150.075 6.50187 149.801 7.9922C149.652 8.80183 150.786 9.13703 151.044 8.33256C151.554 6.74424 151.673 5.50661 153.286 4.60931C153.776 4.336 153.657 3.57793 153.131 3.43354C152.214 3.1757 151.069 2.36608 151.255 1.24704C151.363 0.592116 150.384 0.0248582 150.08 0.751975C149.554 1.99478 148.379 3.0674 147.162 3.61919C146.405 3.95438 147.059 5.06827 147.807 4.72792Z" fill="black"/>
<path d="M147.65 157.863C147.65 157.863 128.346 168.012 122.779 181.106C117.217 194.199 106.088 224.646 106.088 224.646C106.088 224.646 90.1914 221.531 87.4182 221.015C84.645 220.5 79.0006 218.86 79.0006 218.86C79.0006 218.86 79.9233 216.704 79.5161 216.395C79.1037 216.085 74.382 213.419 73.6655 213.93C72.949 214.445 72.7428 218.138 71.4078 219.783C70.0727 221.428 64.8408 225.739 64.8408 225.739C64.8408 225.739 67.614 229.334 68.8408 229.741C70.0727 230.154 70.2789 231.69 71.4078 233.129C72.5367 234.568 78.5934 243.087 93.6811 246.888C108.769 250.689 110.001 252.225 113.691 250.07C117.387 247.914 123.851 238.157 127.135 231.897C130.418 225.631 138.32 203.765 138.32 203.765C138.32 203.765 143.862 223.888 149.506 230.154C155.15 236.419 154.64 237.342 154.64 237.342C154.64 237.342 138.686 244.474 133.356 248.095C128.027 251.715 122.454 256.047 122.454 256.047C122.454 256.047 120.501 255.619 119.454 256.238C118.408 256.856 114.454 261.379 114.454 261.379L125.975 273.616C125.975 273.616 132.733 271.095 133.351 269.713C133.97 268.331 133.826 266.809 133.826 266.809C133.826 266.809 146.125 262.586 155.068 262.323C164.011 262.06 180.063 258.079 182.872 256.97C185.676 255.861 187.558 255.639 187.558 255.639C187.558 255.639 188.367 256.934 192.243 256.609C196.12 256.284 211.79 252.081 214.218 251.761C216.64 251.436 227.305 249.822 230.857 248.688C234.414 247.558 240.553 241.736 240.553 241.736C240.553 241.736 230.053 231.066 227.305 226.219C224.558 221.371 213.414 194.173 210.738 189.295C208.063 184.416 199.073 167.584 190.661 161.844C182.248 156.105 174.506 153.428 170.393 153.33C166.284 153.232 164.656 152.66 164.656 152.66C164.656 152.66 161.022 156.198 157.485 157.059C153.949 157.92 148.31 158.111 148.31 158.111L147.65 157.863Z" fill="#FFECDD"/>
<path d="M106.619 291.95C106.619 291.95 114.202 281.543 116.14 279.078C118.078 276.608 123.722 271.492 123.722 271.492L125.985 273.616C125.985 273.616 132.429 271.812 133.362 269.713C134.295 267.614 133.929 266.304 133.929 266.304C133.929 266.304 153.563 262.276 163.857 260.807C174.15 259.337 186.279 255.902 186.279 255.902C186.279 255.902 188.305 257.553 192.254 256.604C196.202 255.655 207.352 252.715 209.434 252.468C211.517 252.22 214.223 251.751 214.223 251.751C214.223 251.751 224.501 267.418 222.176 281.883C219.852 296.348 215.805 300.758 208.578 303.702C201.352 306.647 188.733 305.662 186.279 304.682C183.831 303.702 179.784 301.371 179.784 301.371C179.784 301.371 182.114 296.225 180.15 292.548C178.187 288.871 173.779 289.608 170.351 289.851C166.918 290.098 154.547 283.843 152.707 284.333C150.867 284.823 149.274 284.333 146.094 286.292C142.908 288.252 136.903 290.949 136.903 290.949C136.903 290.949 124.774 294.012 120.975 293.646C117.176 293.29 106.619 291.95 106.619 291.95Z" fill="#F8BAB4"/>
<path d="M135.836 246.614L122.465 256.047C122.465 256.047 120.434 254.577 118.485 256.521C116.537 258.47 114.47 261.379 114.47 261.379L117.135 264.313C117.135 264.313 111.547 263.803 106.047 267.449C100.547 271.09 90.3872 280.996 90.3872 280.996C90.3872 280.996 78.7892 277.438 66.1809 269.228C53.5726 261.018 50.8612 257.625 51.7066 252.292C52.5519 246.955 56.954 239.08 61.2736 237.306C65.5932 235.532 72.9541 235.104 72.9541 235.104C72.9541 235.104 79.8098 242.638 91.0676 245.691C102.325 248.739 109.434 251.617 112.228 250.348C115.021 249.079 116.63 248.657 118.068 246.707C119.506 244.758 121.114 242.391 121.114 242.391L135.836 246.614Z" fill="#F8BAB4"/>
<path d="M146.491 148.431C146.491 148.431 146.202 148.214 151.588 148.07C156.97 147.926 162.284 149.003 162.284 149.003L157.908 133.28C157.908 133.28 155.181 137.875 152.166 140.175C149.15 142.475 145.346 144.986 145.346 144.986L146.491 148.431Z" fill="#F8BAB4"/>
<path d="M130.85 123.215C131.486 122.598 131.239 121.313 130.3 120.344C129.36 119.375 128.083 119.089 127.448 119.706C126.812 120.323 127.059 121.608 127.998 122.577C128.938 123.546 130.215 123.832 130.85 123.215Z" fill="#F8BAB4"/>
<path d="M129.021 108.392C126.82 114.617 126.764 121.347 127.959 127.793C128.691 131.748 129.918 135.595 131.485 139.298C132.645 142.031 133.676 144.692 136.449 146.09C140.351 148.055 145.898 145.858 149.202 143.501C154.552 139.69 157.712 135.178 160.594 129.371C160.96 128.628 159.851 127.978 159.48 128.721C156.96 133.796 154.284 138.06 149.697 141.541C146.346 144.084 140.563 147.116 136.475 144.635C133.568 142.872 132.382 138.39 131.32 135.358C130.274 132.372 129.465 129.304 128.975 126.174C128.057 120.341 128.274 114.333 130.253 108.738C130.542 107.949 129.295 107.614 129.021 108.392Z" fill="black"/>
<path d="M135.954 115.927C135.676 117.138 135.465 118.397 135.109 119.588C134.769 120.723 134.485 120.661 133.583 121.218C132.557 121.852 131.851 122.93 131.836 124.152C131.805 126.601 134.563 127.932 136.341 126.194C136.934 125.611 136.021 124.704 135.429 125.281C134.728 125.214 134.032 125.147 133.331 125.08C132.923 124.069 133.078 123.301 133.8 122.77C134.315 122.223 134.841 122.012 135.563 121.847C135.774 121.8 135.965 121.604 136.011 121.398C136.408 119.691 136.8 117.984 137.197 116.277C137.382 115.462 136.14 115.117 135.954 115.927Z" fill="black"/>
<path d="M133.305 134.198C136.851 134.976 140.418 134.249 143.326 132.058C143.98 131.563 143.341 130.444 142.676 130.944C140.042 132.929 136.882 133.667 133.645 132.955C132.841 132.774 132.496 134.017 133.305 134.198Z" fill="black"/>
<path d="M142.944 117.216C144.712 118.902 147.496 118.912 149.279 117.252C149.887 116.685 148.975 115.777 148.367 116.339C147.099 117.52 145.104 117.5 143.856 116.303C143.253 115.731 142.341 116.644 142.944 117.216Z" fill="black"/>
<path d="M132.893 116.313C132.583 116.731 132.037 116.942 131.527 116.917C131.011 116.886 130.661 116.514 130.135 116.612C129.846 116.664 129.676 116.968 129.661 117.236C129.64 117.53 129.8 117.721 130.027 117.886C130.259 118.051 130.619 117.974 130.805 117.783C130.815 117.773 130.826 117.763 130.836 117.757C131.429 117.175 130.516 116.267 129.923 116.844C129.913 116.855 129.903 116.865 129.893 116.87C130.15 116.834 130.413 116.803 130.671 116.767C130.655 116.757 130.635 116.741 130.619 116.731C130.728 116.917 130.831 117.102 130.939 117.288C130.939 117.267 130.939 117.252 130.944 117.231C130.784 117.438 130.63 117.644 130.47 117.855C130.501 117.85 130.537 117.845 130.568 117.835C130.403 117.814 130.238 117.794 130.073 117.768C130.779 118.093 131.393 118.294 132.181 118.144C132.939 118 133.542 117.572 133.996 116.963C134.501 116.298 133.382 115.653 132.893 116.313Z" fill="black"/>
<path d="M126.707 109.305C131.496 108.449 135.722 108.423 140.408 109.81C143.805 110.816 147.212 112.183 150.8 112.224C153.161 112.25 154.759 111.842 156.104 109.836C157.82 107.273 158.465 104.071 158.723 101.049C158.79 100.223 157.501 100.229 157.434 101.049C157.202 103.839 156.532 108.397 154.083 110.239C151.599 112.105 146.836 110.44 144.166 109.63C141.558 108.841 138.98 107.902 136.274 107.51C132.944 107.026 129.645 107.474 126.367 108.062C125.552 108.207 125.898 109.449 126.707 109.305Z" fill="black"/>
<path d="M126.728 108.691C127.48 101.198 131.924 94.4838 138.243 90.6109C146.315 85.6602 157.052 86.0057 164.403 92.2199C171.042 97.8307 174.738 106.567 179.47 113.699C183.852 120.305 188.929 126.534 195.078 131.578C198.13 134.079 201.429 135.941 205.182 137.148C208.243 138.133 211.8 139.375 215.068 139.21C214.862 138.937 214.656 138.669 214.444 138.396C211.254 149.251 207.264 161.808 195.893 166.578C195.14 166.893 195.47 168.141 196.233 167.821C208.099 162.845 212.341 150.123 215.687 138.736C215.8 138.349 215.48 137.9 215.063 137.921C211.728 138.086 208.001 136.745 204.877 135.693C200.295 134.151 196.563 131.367 193.063 128.092C186.393 121.847 181.274 114.405 176.527 106.649C172.042 99.3262 167.764 91.1782 159.418 87.7023C151.826 84.536 143.326 85.6241 136.552 90.1622C130.377 94.2981 126.186 101.219 125.434 108.696C125.351 109.516 126.645 109.511 126.728 108.691Z" fill="black"/>
<path d="M160.078 119.31C160.712 118.892 161.346 118.474 161.98 118.057C162.351 118.294 162.723 118.531 163.099 118.768C163.578 119.212 163.975 119.913 164.192 120.522C164.656 121.806 164.656 123.208 164.166 124.482C163.243 126.901 160.681 128.128 158.192 127.576C157.382 127.396 157.037 128.639 157.851 128.819C162.393 129.83 166.48 126.076 165.743 121.424C165.449 119.562 164.284 117.355 162.321 116.819C160.522 116.324 158.908 117.5 158.79 119.315C158.738 120.135 160.027 120.135 160.078 119.31Z" fill="black"/>
<path d="M144.671 145.837C146.346 149.561 147.233 153.609 147.898 157.621C148.032 158.436 149.274 158.09 149.14 157.28C148.454 153.145 147.511 149.024 145.784 145.187C145.444 144.429 144.331 145.084 144.671 145.837Z" fill="black"/>
<path d="M157.558 133.12C158.104 140.309 159.97 147.137 163.934 153.217C164.387 153.908 165.501 153.263 165.047 152.567C161.207 146.678 159.377 140.092 158.846 133.125C158.784 132.295 157.496 132.29 157.558 133.12Z" fill="black"/>
<path d="M113.691 262.225C118.253 265.133 122.099 268.862 125.13 273.343C125.594 274.024 126.707 273.384 126.243 272.693C123.088 268.031 119.094 264.138 114.341 261.116C113.64 260.667 112.99 261.781 113.691 262.225Z" fill="black"/>
<path d="M114.733 261.843C116.155 259.987 117.599 256.928 120.109 256.438C120.923 256.279 120.578 255.036 119.769 255.196C116.867 255.763 115.259 259.053 113.624 261.193C113.119 261.848 114.238 262.493 114.733 261.843Z" fill="black"/>
<path d="M120.016 256.511C121.155 256.279 122.686 257.501 123.573 258.089C125.042 259.063 126.418 260.172 127.769 261.302C129.356 262.632 131.217 264.004 132.542 265.613C133.068 266.252 133.975 265.334 133.454 264.7C131.697 262.57 129.186 260.75 127.037 259.048C125.233 257.625 122.228 254.737 119.676 255.263C118.862 255.438 119.202 256.681 120.016 256.511Z" fill="black"/>
<path d="M122.908 256.31C136.336 245.898 152.305 237.42 168.877 233.434C169.238 233.346 169.388 232.975 169.326 232.639C166.068 214.425 166.707 195.731 171.176 177.774C171.377 176.97 170.135 176.624 169.934 177.434C165.408 195.623 164.784 214.538 168.083 232.985C168.233 232.722 168.382 232.454 168.532 232.191C151.733 236.234 135.594 244.856 121.996 255.402C121.341 255.908 122.259 256.815 122.908 256.31Z" fill="black"/>
<path d="M196.743 185.133C195.455 197.52 194.166 209.912 193.496 222.351C193.166 228.478 192.986 234.614 193.037 240.751C193.063 243.783 193.48 247.104 192.254 249.961C191.037 252.787 188.589 254.701 185.645 255.454C184.841 255.66 185.181 256.903 185.986 256.696C190.197 255.613 193.486 252.282 194.171 247.93C194.671 244.753 194.305 241.396 194.315 238.193C194.321 234.614 194.403 231.035 194.542 227.456C195.094 213.306 196.563 199.207 198.027 185.128C198.114 184.308 196.826 184.313 196.743 185.133Z" fill="black"/>
<path d="M169.625 236.626C171.656 236.847 173.398 237.838 174.707 239.39C175.171 239.942 176.15 239.204 175.717 238.611C174.46 236.873 172.985 235.388 171.248 234.124C171.14 234.527 171.032 234.924 170.924 235.326C172.728 235.109 174.429 235.331 176.114 236.007C176.882 236.311 177.217 235.068 176.455 234.764C174.671 234.052 172.826 233.81 170.918 234.037C170.274 234.114 170.052 234.846 170.594 235.238C172.14 236.368 173.475 237.709 174.599 239.261C174.934 239.003 175.274 238.74 175.609 238.482C174.068 236.651 171.98 235.599 169.614 235.336C168.8 235.243 168.805 236.533 169.625 236.626Z" fill="black"/>
<path d="M164.97 153.593C172.815 153.459 180.47 155.078 186.949 159.663C191.47 162.865 195.254 167.197 198.893 171.343C204.584 177.836 208.439 185.819 212.042 193.601C216.31 202.827 218.924 212.728 223.898 221.634C226.331 225.992 229.192 230.107 232.408 233.918C234.001 235.805 235.682 237.61 237.45 239.333C238.697 240.55 239.81 242.004 241.666 241.628C242.481 241.463 242.135 240.22 241.326 240.385C239.579 240.736 236.068 236.105 235.042 234.97C233.326 233.072 231.707 231.087 230.192 229.029C227.522 225.409 225.182 221.541 223.192 217.509C218.712 208.422 215.975 198.603 211.491 189.506C205.738 177.841 198.429 166.207 187.604 158.544C180.949 153.836 173.027 152.159 164.975 152.299C164.145 152.319 164.14 153.609 164.97 153.593Z" fill="black"/>
<path d="M148.3 156.909C143.604 158.765 139.372 162.035 135.434 165.129C130.851 168.729 126.743 172.369 124.181 177.691C116.97 192.657 109.939 208.123 105.831 224.269C105.624 225.074 106.867 225.419 107.073 224.61C111.026 209.061 117.841 194.477 124.537 179.966C125.836 177.15 127.197 174.448 129.362 172.189C131.192 170.281 133.217 168.553 135.269 166.898C139.305 163.639 143.769 160.08 148.64 158.152C149.403 157.852 149.073 156.604 148.3 156.909Z" fill="black"/>
<path d="M72.1243 214.481C71.6037 219.246 68.6861 223.202 64.3665 225.223C64.0779 225.358 63.9387 225.847 64.1346 226.105C66.1294 228.72 69.3099 232.485 72.6191 229.829C76.2377 226.92 78.4542 221.928 79.8356 217.622C80.0882 216.828 78.8459 216.493 78.5934 217.282C77.5315 220.582 76.0057 223.79 73.9026 226.554C73.1707 227.518 71.8665 229.375 70.5521 229.54C68.6294 229.787 66.2686 226.796 65.248 225.456C65.1707 225.749 65.0934 226.043 65.016 226.337C69.7686 224.11 72.8408 219.68 73.413 214.481C73.5057 213.656 72.2171 213.661 72.1243 214.481Z" fill="black"/>
<path d="M69.5108 231.371C74.6191 239.978 83.6913 244.676 92.98 247.512C98.1604 249.095 103.872 250.952 109.3 251.297C114.119 251.601 116.975 249.203 119.779 245.547C120.284 244.887 119.166 244.248 118.666 244.897C117.099 246.939 115.289 249.147 112.676 249.817C110.093 250.477 107.264 249.807 104.738 249.234C100.3 248.224 95.8512 247.135 91.5316 245.707C83.2068 242.953 75.217 238.467 70.6242 230.731C70.2015 230.009 69.0881 230.659 69.5108 231.371Z" fill="black"/>
<path d="M139.078 196.706C135.65 214.363 128.774 230.484 118.475 245.232C118.001 245.913 119.114 246.558 119.588 245.882C129.949 231.041 136.872 214.807 140.32 197.046C140.475 196.237 139.233 195.891 139.078 196.706Z" fill="black"/>
<path d="M137.924 203.322C139.532 216.106 146.094 227.611 154.15 237.44C154.676 238.08 155.583 237.167 155.063 236.527C147.248 226.997 140.774 215.729 139.212 203.322C139.109 202.512 137.82 202.502 137.924 203.322Z" fill="black"/>
<path d="M106.666 292.109C110.877 293.321 115.856 293.842 120.228 293.703C125.619 293.528 131.403 292.919 136.594 291.362C141.145 289.995 144.944 287.411 149.14 285.297C152.779 283.461 157.949 287.05 161.413 288.391C164.774 289.691 168.156 290.588 171.779 290.371C172.604 290.325 172.609 289.031 171.779 289.082C167.645 289.33 163.867 288.03 160.099 286.478C157.413 285.369 153.96 283.147 150.975 283.342C148.501 283.508 146.058 285.617 143.944 286.772C141.929 287.87 139.862 288.891 137.692 289.649C132.382 291.511 126.588 292.006 121.016 292.357C116.501 292.641 111.356 292.109 107.011 290.861C106.207 290.64 105.867 291.882 106.666 292.109Z" fill="black"/>
<path d="M214.28 252.282C218.213 258.61 220.481 265.891 221.156 273.302C221.81 280.47 221.202 288.69 217.496 295.039C210.372 307.256 191.403 307.173 180.29 301.181C179.558 300.789 178.908 301.898 179.64 302.295C190.96 308.395 209.553 308.571 217.718 297.081C222.238 290.717 223.073 281.672 222.512 274.117C221.924 266.201 219.589 258.383 215.393 251.627C214.955 250.931 213.841 251.576 214.28 252.282Z" fill="black"/>
<path d="M135.903 291.455C138.63 292.78 141.619 294.126 144.625 294.606C144.573 294.214 144.522 293.822 144.47 293.43C143.109 294.116 142.666 295.322 142.449 296.782C142.047 299.474 141.867 301.97 140.655 304.471C139.645 306.559 138.15 308.37 137.707 310.701C137.465 311.969 137.676 313.248 137.506 314.506C137.259 316.337 136.666 316.549 135.733 317.822C134.418 319.612 134.779 321.984 137.15 322.19C140.568 322.489 143.65 319.906 144.181 316.585C144.31 315.775 143.068 315.424 142.939 316.244C142.609 318.286 141.279 319.988 139.279 320.659C137.975 321.097 136.197 321.2 136.382 319.509C136.516 318.24 138.114 317.57 138.578 316.42C138.98 315.424 138.779 314.161 138.8 313.135C138.887 309.427 141.042 307.075 142.341 303.795C142.918 302.331 143.295 300.82 143.496 299.257C143.692 297.7 143.408 295.405 145.114 294.544C145.583 294.306 145.506 293.456 144.96 293.368C142.068 292.904 139.161 291.614 136.547 290.346C135.81 289.98 135.155 291.094 135.903 291.455Z" fill="black"/>
<path d="M138.387 322.67C141.259 328.513 147.717 330.586 153.857 330.488C158.13 330.415 160.96 326.388 158.511 322.438C158.073 321.736 156.96 322.381 157.398 323.087C158.588 325.011 158.243 328.028 155.893 328.951C154.156 329.632 151.171 329.198 149.387 328.879C145.166 328.126 141.434 325.944 139.506 322.015C139.135 321.277 138.021 321.927 138.387 322.67Z" fill="black"/>
<path d="M158.145 321.958C156.944 320.689 158.424 318.637 158.908 317.337C159.46 315.873 159.857 314.372 160.599 312.979C162.552 309.308 165.81 309.235 169.413 308.39C173.609 307.405 178.748 305.259 180.547 301.041C181.769 298.174 182.099 294.811 180.522 292.042C178.65 288.747 175.305 287.896 171.841 289.139C171.068 289.417 171.403 290.665 172.181 290.382C176.073 288.979 180.006 291.14 180.321 295.466C180.764 301.593 176.156 304.733 171.047 306.549C166.589 308.132 161.996 307.601 159.48 312.335C158.429 314.315 157.805 316.538 156.98 318.616C156.372 320.153 156.006 321.592 157.228 322.876C157.805 323.474 158.717 322.561 158.145 321.958Z" fill="black"/>
<path d="M51.1655 253.298C50.7995 262.07 59.2634 266.417 65.9387 269.847C73.5367 273.745 80.6037 280.068 89.2584 281.527C90.0677 281.666 90.4182 280.424 89.5986 280.284C81.9027 278.985 75.5728 273.663 68.9336 269.97C62.2325 266.242 52.0624 262.658 52.4541 253.298C52.4902 252.473 51.2015 252.473 51.1655 253.298Z" fill="black"/>
<path d="M52.5726 252.88C53.1396 247.471 55.686 242.004 60.0829 238.657C63.7273 235.883 68.7015 235.888 73.0881 236.002C73.918 236.022 73.918 234.733 73.0881 234.712C68.2221 234.589 62.918 234.712 58.9644 237.894C54.4386 241.535 51.8819 247.192 51.2839 252.88C51.1963 253.706 52.485 253.7 52.5726 252.88Z" fill="black"/>
<path d="M121.367 243.072C125.8 244.686 130.099 246.063 134.759 246.862C135.568 247.001 135.918 245.758 135.099 245.619C130.439 244.82 126.14 243.443 121.707 241.829C120.934 241.54 120.594 242.788 121.367 243.072Z" fill="black"/>
<path d="M78.3975 249.58C84.8976 251.307 91.4801 253.277 97.8615 255.387C103.908 257.387 109.166 260.812 114.264 264.55C114.934 265.04 115.578 263.921 114.913 263.437C109.944 259.796 104.82 256.464 98.9749 254.407C95.6553 253.241 92.2017 252.468 88.846 251.405C85.4852 250.343 82.145 249.239 78.7377 248.337C77.9388 248.12 77.5986 249.363 78.3975 249.58Z" fill="black"/>
<path d="M148.355 123.623C149.524 122.948 150.112 121.779 149.67 121.011C149.227 120.244 147.921 120.17 146.752 120.845C145.583 121.52 144.995 122.689 145.438 123.456C145.88 124.223 147.187 124.298 148.355 123.623Z" fill="#F8BAB4"/>
<path d="M164.661 125.838C168.728 129.474 165.8 136.807 160.068 135.306C157.774 134.703 156.192 132.331 156.264 130C156.362 126.844 159.455 124.936 162.305 124.812C163.13 124.776 163.135 123.487 162.305 123.523C158.991 123.667 155.614 125.73 155.052 129.226C154.583 132.166 156.362 135.301 159.15 136.358C166.187 139.024 170.852 129.644 165.573 124.926C164.955 124.379 164.042 125.287 164.661 125.838Z" fill="#FFECDD"/>
<path d="M159.666 118.727C158.496 115.462 159.98 112.033 160.212 108.712C160.408 105.901 160.011 103.23 158.79 100.683C158.429 99.9347 157.321 100.59 157.676 101.332C159.284 104.689 159.156 108.294 158.485 111.873C158.027 114.333 157.558 116.654 158.424 119.072C158.702 119.846 159.949 119.511 159.666 118.727Z" fill="black"/>
<path d="M178.769 126.065C184.81 134.708 192.558 141.913 201.625 147.286C202.341 147.709 202.991 146.595 202.274 146.172C193.398 140.912 185.795 133.873 179.877 125.41C179.408 124.74 178.29 125.379 178.769 126.065Z" fill="black"/>
<path d="M194.542 146.781C197.558 149.731 201.047 151.969 204.97 153.506C205.743 153.81 206.078 152.562 205.31 152.263C201.594 150.809 198.3 148.658 195.449 145.873C194.862 145.29 193.949 146.203 194.542 146.781Z" fill="black"/>
<path d="M121.96 272.286C117.573 275.674 114.619 280.95 111.042 285.137C109.279 287.205 107.387 289.985 105.197 291.604C104.362 292.223 103.645 292.646 103.805 291.331C103.887 290.645 104.521 289.67 104.8 289.067C105.434 287.695 106.068 286.323 106.702 284.946C106.996 284.312 106.238 283.616 105.691 284.168C102.109 287.762 98.4285 291.258 94.645 294.647C94.98 294.688 95.3202 294.734 95.6553 294.776C94.7687 292.909 97.6605 289.773 98.6192 288.438C99.944 286.586 101.336 284.786 102.774 283.023C103.305 282.373 102.516 281.605 101.862 282.11C99.9285 283.616 97.9904 285.117 96.1347 286.715C95.4388 287.313 94.7532 287.922 94.0779 288.546C93.7687 288.835 91.7687 291.191 91.4852 291.14C89.4181 290.769 91.8769 288.247 92.279 287.695C92.8254 286.937 93.3872 286.184 93.9542 285.441C95.6295 283.25 97.3975 281.146 99.2326 279.088C99.7893 278.464 98.944 277.629 98.3203 278.175C96.5213 279.743 94.7274 281.316 92.9285 282.884C92.2377 283.487 91.4027 284.431 90.6192 284.9C89.9181 285.926 89.0779 285.864 88.0934 284.709C88.2377 284.498 88.3872 284.291 88.5315 284.08C89.1862 282.321 91.7326 280.305 93.0986 278.98C94.4697 277.654 95.8976 276.391 97.3563 275.164C100.382 272.611 103.454 269.728 106.789 267.593C109.707 265.721 113.81 265.092 117.222 264.582C118.042 264.458 117.692 263.215 116.882 263.339C112.279 264.025 107.8 265.051 104.114 267.995C99.6089 271.59 94.9697 275.158 90.9542 279.315C89.6758 280.64 83.9336 285.911 87.4697 287.793C89.0058 288.613 90.5521 286.679 91.5367 285.818C94.1037 283.575 96.6707 281.331 99.2378 279.088C98.9336 278.784 98.6295 278.48 98.3254 278.175C95.8976 280.898 93.5934 283.719 91.4439 286.669C90.5367 287.912 87.6037 290.851 89.2171 292.625C90.7738 294.332 92.7017 291.697 93.6707 290.727C96.4852 287.906 99.6347 285.462 102.774 283.018C102.47 282.713 102.166 282.409 101.862 282.105C99.8615 284.554 97.9543 287.076 96.1708 289.686C94.944 291.48 93.5161 293.249 94.547 295.415C94.7378 295.812 95.2738 295.802 95.5574 295.544C99.3357 292.156 103.021 288.665 106.604 285.065C106.269 284.807 105.929 284.544 105.593 284.286C104.408 286.86 101.331 291.021 102.49 293.997C102.599 294.28 102.805 294.451 103.114 294.471C104.738 294.574 105.758 292.883 106.779 291.8C108.666 289.804 110.496 287.757 112.269 285.663C115.624 281.708 118.496 276.561 122.614 273.379C123.259 272.9 122.614 271.781 121.96 272.286Z" fill="black"/>
<path d="M72.3872 215.116C69.9954 214.1 68.0109 212.29 65.6449 211.258C64.2943 210.67 62.8717 210.779 61.4232 210.82C59.2789 210.882 57.1345 210.959 54.9902 211.078C50.9129 211.305 46.4902 211.521 42.5365 212.604C39.6499 213.393 37.7788 215.678 35.918 217.87C33.3767 220.856 29.887 223.676 28.119 227.219C27.5107 228.431 26.9849 231.582 28.9076 232.098C30.155 232.433 31.8612 230.932 32.7427 230.277C35.7891 228.008 38.5004 225.285 41.119 222.547C41.6912 221.949 40.7839 221.036 40.2066 221.634C38.119 223.816 35.9798 225.956 33.6705 227.9C33.1293 228.354 30.1911 231.18 29.2633 230.824C28.686 230.602 28.8509 228.89 28.9798 228.457C29.3406 227.261 30.3715 226.162 31.1447 225.213C32.1499 223.981 33.2324 222.805 34.2994 221.624C36.1911 219.525 37.8819 217.153 40.0623 215.353C42.5417 213.306 46.1603 213.192 49.2324 212.836C52.3407 212.481 55.4696 212.321 58.5933 212.202C61.4129 212.094 64.0263 211.753 66.516 213.239C68.2274 214.26 69.8975 215.446 71.7325 216.225C72.4903 216.549 73.1501 215.436 72.3872 215.116Z" fill="black"/>
<path d="M31.088 230.906C31.2581 232.588 32.655 237.538 35.186 235.429C35.8612 234.867 36.2736 233.887 36.7736 233.196C37.454 232.258 38.3097 231.427 39.1138 230.592C40.7427 228.911 42.418 227.276 44.1293 225.672C44.7376 225.105 43.8252 224.192 43.2169 224.759C41.1705 226.678 39.1499 228.637 37.2375 230.69C36.4592 231.52 35.8045 232.309 35.1911 233.253C34.4489 234.388 33.8715 234.728 33.0107 233.356C32.5777 232.67 32.4592 231.68 32.3818 230.896C32.2942 230.092 31.0055 230.081 31.088 230.906Z" fill="black"/>
<path d="M34.82 235.14C35.1447 236.677 36.0726 240.694 38.2014 238.544C39.7633 236.966 41.0262 235.047 42.6035 233.449C44.5365 231.494 46.6036 229.694 48.7685 228.003C49.4232 227.492 48.5056 226.585 47.8561 227.09C45.2479 229.127 42.7788 231.329 40.5262 233.753C39.7375 234.604 38.9437 236.007 38.0159 236.672C37.4231 237.095 37.6293 238.157 36.5416 236.801C36.2014 236.378 36.1756 235.305 36.0674 234.8C35.8921 233.985 34.6499 234.331 34.82 235.14Z" fill="black"/>
<path d="M52.9025 218.457C53.1705 222.918 50.6087 226.905 50.7376 231.34C50.7839 232.954 51.1808 236.337 53.4283 235.357C56.0571 234.207 56.9798 230.154 57.8252 227.828C58.4025 226.245 59.1345 223.661 60.8046 222.836C62.2582 222.119 64.5572 223.46 65.9541 224.084C66.7067 224.419 67.3613 223.31 66.6036 222.97C65.9593 222.681 65.3149 222.475 64.6603 222.217C63.8974 221.918 63.1448 221.041 62.3922 221.01C61.6551 220.979 60.8046 221.361 60.1551 221.722C58.0108 222.923 57.2118 225.698 56.4489 227.864C55.8355 229.607 55.3561 231.448 54.1602 232.907C52.1242 235.388 51.9386 231.443 52.119 229.787C52.5314 225.915 54.4283 222.428 54.186 218.457C54.1396 217.632 52.851 217.627 52.9025 218.457Z" fill="black"/>
<path d="M38.7169 236.894C38.4283 239.013 40.2788 240.24 42.2582 239.482C43.7376 238.915 44.7376 237.425 45.7891 236.326C47.3097 234.749 49.0932 232.645 51.1706 231.85C51.9386 231.557 51.6036 230.309 50.8304 230.608C49.2479 231.216 48.0726 232.34 46.8458 233.485C46.0778 234.202 45.3303 234.945 44.6087 235.703C44.2479 236.084 43.9077 236.486 43.5365 236.858C43.2994 237.136 43.0365 237.389 42.7427 237.611C42.0056 238.523 41.0778 238.4 39.9592 237.239C40.0726 236.424 38.8303 236.074 38.7169 236.894Z" fill="black"/>
<path d="M148.429 158.239C154.444 159.333 160.439 157.559 164.862 153.33C165.465 152.758 164.553 151.845 163.949 152.417C159.877 156.311 154.32 158.007 148.769 156.997C147.96 156.852 147.609 158.095 148.429 158.239Z" fill="black"/>
<path d="M142.748 161.555C146.686 165.238 153.789 165.506 158.712 164.227C164.145 162.814 169.408 158.889 172.083 153.949C172.48 153.217 171.367 152.567 170.97 153.299C168.563 157.75 164.032 161.153 159.238 162.726C154.63 164.237 147.423 164.17 143.655 160.648C143.052 160.081 142.14 160.988 142.748 161.555Z" fill="black"/>
<path d="M150.109 157.755C149.382 159.359 148.645 160.952 147.918 162.556C147.578 163.304 148.686 163.964 149.032 163.206C149.759 161.602 150.496 160.008 151.223 158.404C151.563 157.657 150.449 157.002 150.109 157.755Z" fill="black"/>
<path d="M152.851 158.358C152.898 160.091 152.944 161.824 152.991 163.556C153.011 164.387 154.3 164.387 154.279 163.556C154.233 161.824 154.186 160.091 154.14 158.358C154.119 157.528 152.831 157.528 152.851 158.358Z" fill="black"/>
<path d="M156.387 157.827C157.161 159.704 157.934 161.576 158.707 163.453C159.016 164.211 160.264 163.876 159.949 163.113C159.176 161.236 158.403 159.364 157.63 157.487C157.32 156.729 156.073 157.059 156.387 157.827Z" fill="black"/>
<path d="M160.774 156.414C161.619 157.291 162.475 158.157 163.295 159.059C163.851 159.673 164.362 160.823 165.238 160.937C165.516 160.973 165.79 160.71 165.862 160.462C165.867 160.442 165.872 160.426 165.877 160.405C165.939 160.189 165.872 159.936 165.712 159.776C165.697 159.761 165.681 159.745 165.666 159.73C165.403 159.477 165.016 159.498 164.754 159.73C164.743 159.74 164.733 159.745 164.723 159.756C164.099 160.307 165.016 161.215 165.635 160.668C165.645 160.658 165.656 160.653 165.666 160.643C165.362 160.643 165.058 160.643 164.754 160.643C164.769 160.658 164.784 160.674 164.8 160.689C164.743 160.478 164.692 160.271 164.635 160.06C164.63 160.081 164.625 160.096 164.619 160.117C164.826 159.957 165.032 159.802 165.243 159.642C165.207 159.637 165.171 159.632 165.135 159.627C165.284 159.689 165.439 159.75 165.589 159.818C164.949 159.152 164.418 158.358 163.779 157.683C163.089 156.95 162.382 156.228 161.686 155.501C161.109 154.903 160.197 155.816 160.774 156.414Z" fill="black"/>
<path d="M126.099 274.117C128.645 274.241 130.98 272.451 132.929 271.002C133.882 270.29 134.516 269.553 134.63 268.325C134.769 266.809 134.186 265.912 133.444 264.684C133.016 263.978 131.898 264.623 132.331 265.334C132.913 266.294 133.542 266.99 133.331 268.238C133.13 269.429 132.207 269.929 131.305 270.569C129.789 271.642 128.042 272.921 126.099 272.828C125.269 272.786 125.269 274.076 126.099 274.117Z" fill="black"/>
<path d="M134.372 266.846C142.779 263.793 151.857 263.267 160.661 262.194C169.156 261.157 177.795 259.585 185.852 256.65C186.625 256.367 186.29 255.124 185.511 255.408C177.032 258.491 167.939 260.059 159.006 261.101C150.63 262.075 142.011 262.705 134.027 265.603C133.253 265.881 133.588 267.129 134.372 266.846Z" fill="black"/>
<path d="M73.248 214.419C75.3098 214.141 77.8099 215.523 78.949 217.261C79.4026 217.952 80.5161 217.307 80.0624 216.611C78.6862 214.512 75.7892 212.79 73.248 213.13C72.4387 213.239 72.4284 214.528 73.248 214.419Z" fill="black"/>
<path d="M78.583 219.226C89.9181 222.666 101.48 225.213 113.212 226.858C114.021 226.972 114.372 225.729 113.552 225.616C101.825 223.97 90.2583 221.418 78.9232 217.983C78.1294 217.741 77.7892 218.984 78.583 219.226Z" fill="black"/>
<path d="M105.795 226.074C108.764 227.616 111.325 229.725 113.367 232.376C113.867 233.026 114.985 232.381 114.48 231.726C112.3 228.89 109.619 226.611 106.444 224.96C105.712 224.579 105.057 225.693 105.795 226.074Z" fill="black"/>
<path d="M187.228 256.609C191.965 257.79 196.609 256.857 201.207 255.511C206.651 253.917 211.955 252.767 217.584 252.019C226.135 250.88 235.388 249.24 241.089 242.092C241.599 241.447 240.697 240.529 240.177 241.179C234.249 248.616 224.501 249.797 215.697 250.978C211.243 251.576 206.95 252.442 202.64 253.731C197.707 255.211 192.723 256.645 187.578 255.366C186.764 255.165 186.424 256.408 187.228 256.609Z" fill="black"/>
<path d="M140.774 325.465C141.284 325.852 142.145 325.413 142.63 325.166C143.243 324.861 143.784 324.413 144.217 323.887C144.738 323.253 143.831 322.335 143.305 322.974C143.027 323.314 142.712 323.619 142.336 323.856C142.15 323.969 141.96 324.078 141.759 324.16C141.655 324.201 141.552 324.237 141.449 324.268C141.248 324.294 141.238 324.325 141.423 324.356C140.764 323.851 140.119 324.97 140.774 325.465Z" fill="black"/>
<path d="M145.362 328.28C146.707 327.739 147.805 326.759 148.387 325.418C148.717 324.665 147.604 324.01 147.274 324.769C146.831 325.784 146.058 326.62 145.016 327.038C144.259 327.342 144.588 328.59 145.362 328.28Z" fill="black"/>
<path d="M150.831 330.08C152.119 329.415 153.609 328.177 153.924 326.692C154.094 325.882 152.851 325.537 152.681 326.352C152.434 327.522 151.181 328.451 150.181 328.971C149.444 329.348 150.094 330.462 150.831 330.08Z" fill="black"/>
<path d="M141.836 278.165C139.192 277.206 137.985 274.349 139.161 271.776C139.501 271.028 138.393 270.373 138.047 271.126C136.511 274.483 138.011 278.149 141.491 279.413C142.274 279.691 142.609 278.443 141.836 278.165Z" fill="black"/>
<path d="M44.7324 290.33C47.1087 289.748 49.3613 288.856 51.4953 287.664C52.2221 287.262 51.5727 286.148 50.8458 286.551C48.8046 287.69 46.6602 288.531 44.3922 289.088C43.5829 289.284 43.9283 290.526 44.7324 290.33Z" fill="black"/>
<path d="M48.1654 293.285C49.9231 293.151 51.5881 292.527 53.0623 291.573C53.7582 291.124 53.1087 290.005 52.4129 290.459C51.1345 291.289 49.6963 291.882 48.1654 291.996C47.3458 292.058 47.3355 293.347 48.1654 293.285Z" fill="black"/>
<path d="M52.3922 295.41C54.0778 295.291 55.6603 294.791 57.083 293.868C57.7788 293.419 57.1345 292.305 56.4335 292.754C55.2015 293.548 53.8561 294.018 52.3922 294.116C51.5675 294.177 51.5623 295.467 52.3922 295.41Z" fill="black"/>
<path d="M76.016 274.751C71.9902 276.205 67.8923 277.268 63.6139 277.572C61.0159 277.758 58.3974 277.675 55.8046 277.969C54.7324 278.093 53.4541 278.155 52.485 278.665C50.9541 279.475 50.3613 281.13 48.6396 281.744C46.2118 282.61 42.7118 282.832 42.5623 286.189C42.2478 293.28 53.5675 296.885 58.9386 297.627C63.3355 298.241 67.9232 295.972 72.1088 294.915C77.4645 293.559 82.9026 292.589 88.3872 291.95C89.2016 291.857 89.2119 290.562 88.3872 290.66C80.1397 291.62 72.2943 293.6 64.3098 295.786C59.9696 296.978 55.8871 295.848 51.8149 294.208C48.8716 293.022 40.6963 288.221 44.954 284.379C46.3458 283.121 48.1241 283.461 49.6912 282.775C50.7015 282.332 51.2839 281.491 52.0468 280.754C53.9231 278.944 56.8201 279.119 59.2994 279.037C65.2428 278.835 70.7222 278.031 76.3511 275.994C77.1346 275.715 76.7995 274.467 76.016 274.751Z" fill="black"/>
<path d="M57.4954 229.406L60.0727 235.594C58.882 236.445 60.5882 240.751 53.6964 243.273C46.5623 245.882 43.2118 242.458 43.2118 242.458L28.1138 207.747L46.3922 199.485L53.8871 217.545C53.8871 217.545 48.7788 231.886 51.8252 234.047C55.3665 236.558 57.4954 229.406 57.4954 229.406Z" fill="#FFECDD"/>
<path d="M37.7291 205.668C42.9113 203.301 46.6828 200.441 46.1531 199.281C45.6235 198.12 40.9932 199.098 35.811 201.465C30.6289 203.831 26.8574 206.691 27.387 207.852C27.9167 209.013 32.547 208.035 37.7291 205.668Z" fill="black"/>
<path d="M27.6704 208.226C32.954 219.871 38.2426 231.515 43.5261 243.165C43.8664 243.917 44.9798 243.262 44.6396 242.515C39.356 230.87 34.0673 219.226 28.7838 207.577C28.4385 206.824 27.3302 207.479 27.6704 208.226Z" fill="black"/>
<path d="M44.1087 244.046C50.7479 245.768 58.9489 243.572 60.2788 235.909C60.418 235.099 59.1757 234.748 59.0365 235.568C57.8252 242.525 50.4489 244.361 44.4489 242.803C43.6499 242.597 43.3046 243.84 44.1087 244.046Z" fill="black"/>
<path d="M56.6551 228.637C57.6293 230.86 58.4438 233.134 59.1139 235.465C59.3407 236.259 60.5881 235.924 60.3561 235.125C59.6551 232.685 58.7891 230.313 57.7685 227.992C57.4335 227.229 56.3252 227.884 56.6551 228.637Z" fill="black"/>
<path d="M45.3922 199.743C47.8149 205.916 50.3716 212.032 53.052 218.096C53.3871 218.855 54.4953 218.2 54.1654 217.447C51.5263 211.485 49.016 205.472 46.6345 199.403C46.3355 198.634 45.0881 198.969 45.3922 199.743Z" fill="black"/>
<path d="M52.8046 221.062C52.8046 221.062 52.2582 224.156 43.0932 224.857C38.4386 225.213 37.5571 227.147 37.5571 227.147L44.6706 242.804C44.6706 242.804 50.1397 244.866 55.2892 241.452C60.1294 238.245 59.1603 235.233 59.1603 235.233L57.1706 229.69C57.1706 229.69 54.15 235.95 51.8562 233.655C50.6706 232.469 50.6758 229.071 51.5211 226.203C52.4129 223.218 52.8046 221.062 52.8046 221.062Z" fill="#F8BAB4"/>
<path d="M40.985 228.457C41.3408 228.457 41.6293 228.168 41.6293 227.812C41.6293 227.456 41.3408 227.168 40.985 227.168C40.6291 227.168 40.3406 227.456 40.3406 227.812C40.3406 228.168 40.6291 228.457 40.985 228.457Z" fill="white"/>
<path d="M47.0726 230.277C47.3488 230.277 47.5726 230.053 47.5726 229.777C47.5726 229.501 47.3488 229.277 47.0726 229.277C46.7965 229.277 46.5726 229.501 46.5726 229.777C46.5726 230.053 46.7965 230.277 47.0726 230.277Z" fill="white"/>
<path d="M47.2943 239.658C47.5704 239.658 47.7943 239.434 47.7943 239.158C47.7943 238.881 47.5704 238.657 47.2943 238.657C47.0181 238.657 46.7943 238.881 46.7943 239.158C46.7943 239.434 47.0181 239.658 47.2943 239.658Z" fill="white"/>
<path d="M83.583 227.322C83.2428 228.111 83.0057 229.019 83.7634 229.653C84.0624 229.906 84.4336 229.906 84.7686 230.071C85.7583 230.561 85.6707 231.422 85.5263 232.366C85.4696 232.722 85.6861 233.243 86.1501 233.181C86.6294 233.119 87.1449 233.139 87.3253 233.665C87.3614 233.763 87.2841 234.016 87.3047 234.135C87.3614 234.475 87.4851 234.63 87.7789 234.815C88.4748 235.269 89.1243 234.15 88.4284 233.701C88.7583 233.913 88.7016 233.531 88.6501 233.17C88.6088 232.902 88.5006 232.66 88.3253 232.448C87.7738 231.788 86.9336 231.788 86.1501 231.891C86.3562 232.165 86.5624 232.433 86.7738 232.706C86.9129 231.809 87.0263 230.829 86.6191 229.983C86.4696 229.674 86.2635 229.411 85.9851 229.205C85.5727 228.9 84.3356 228.833 84.7068 227.972C85.0212 227.219 83.9078 226.559 83.583 227.322Z" fill="black"/>
<path d="M96.5316 243.041C96.7584 241.829 97.6965 242.794 98.3769 242.68C98.9336 242.587 99.047 242.175 99.2481 241.736C99.4491 241.303 99.5677 241.133 100.057 240.952C100.377 240.834 100.697 240.803 101.001 240.627C101.542 240.318 101.815 239.869 101.841 239.256C101.872 238.425 100.583 238.425 100.552 239.256C100.537 239.668 99.011 239.885 98.6708 240.153C98.444 240.333 98.2841 240.545 98.1707 240.813C98.114 240.947 98.0471 241.128 98.0367 241.277C98.0058 241.68 98.1501 241.349 98.0213 241.272C96.9285 240.591 95.4955 241.592 95.2893 242.706C95.1398 243.51 96.3821 243.856 96.5316 243.041Z" fill="black"/>
<path d="M99.4646 229.287C99.6862 230.927 102.279 230.35 102.114 232.144C102.068 232.639 102.691 232.933 103.083 232.701C103.666 232.35 104.124 233.021 104.408 233.392C104.908 234.042 106.026 233.402 105.521 232.742C104.764 231.752 103.697 230.829 102.434 231.587C102.758 231.773 103.078 231.958 103.403 232.144C103.475 231.345 103.181 230.561 102.557 230.04C102.135 229.689 100.779 229.488 100.707 228.947C100.593 228.127 99.3512 228.478 99.4646 229.287Z" fill="black"/>
<path d="M113.764 244.227C113.697 243.753 113.836 243.206 114.191 242.876C114.624 242.474 114.98 242.716 115.501 242.768C116.104 242.824 116.655 242.597 116.882 241.994C116.975 241.747 116.841 241.215 116.965 241.035C117.15 240.762 117.82 240.808 118.119 240.684C118.743 240.416 119.099 239.833 118.892 239.173C118.645 238.384 117.403 238.72 117.65 239.514C117.624 239.431 116.593 239.679 116.521 239.715C116.166 239.87 115.939 240.086 115.794 240.447C115.702 240.679 115.789 241.272 115.635 241.396C115.49 241.515 114.815 241.313 114.547 241.339C112.98 241.473 112.325 243.211 112.521 244.567C112.635 245.387 113.877 245.042 113.764 244.227Z" fill="black"/>
<path d="M115.944 212.615C115.465 213.094 115.31 213.62 115.527 214.28C115.851 215.281 116.624 215.209 117.289 215.833C119.006 217.436 117.104 218.525 117.578 220.103C117.872 221.087 119.496 221.309 119.48 222.439C119.47 223.269 120.759 223.269 120.769 222.439C120.779 221.717 120.624 221.108 120.104 220.582C119.877 220.35 119.49 220.252 119.289 220.035C118.707 219.417 119.047 218.782 119.197 218.086C119.341 217.4 119.501 216.704 119.228 216.023C119.063 215.606 118.846 215.368 118.521 215.085C118.31 214.899 116.336 214.048 116.851 213.533C117.444 212.94 116.537 212.027 115.944 212.615Z" fill="black"/>
<path d="M128.238 213.486C128.094 212.537 129.3 211.759 129.542 210.866C129.748 210.119 129.594 209.247 129.439 208.499C129.197 207.318 129.547 206.648 130.068 205.653C130.387 205.049 130.423 204.642 130.222 203.997C129.975 203.208 128.728 203.544 128.98 204.338C129.217 205.091 128.119 205.905 127.929 206.602C127.707 207.416 128.094 208.262 128.222 209.051C128.532 210.964 126.697 211.867 126.996 213.816C127.119 214.647 128.362 214.301 128.238 213.486Z" fill="black"/>
<path d="M123.702 190.775C123.444 192.745 124.501 193.591 125.877 194.668C127.109 195.633 126.356 196.484 126.862 197.613C126.949 197.809 128.032 198.722 128.042 198.567C127.996 199.397 129.284 199.392 129.331 198.567C129.367 197.928 129.15 197.845 128.717 197.438C128.588 197.381 128.46 197.335 128.32 197.304C128.006 196.938 127.913 196.535 128.037 196.097C128.016 195.705 128.094 195.39 127.954 194.993C127.289 193.049 124.64 193.436 124.985 190.775C125.099 189.955 123.81 189.965 123.702 190.775Z" fill="black"/>
<path d="M132.8 184.081C132.877 183.003 133.872 182.627 134.789 182.823C135.228 182.916 135.496 183.045 135.918 182.787C137.078 182.075 136.351 180.239 138.243 180.234C139.073 180.229 139.073 178.94 138.243 178.945C137.393 178.95 136.614 179.239 136.027 179.878C135.722 180.208 135.537 180.605 135.408 181.028C135.228 181.616 135.331 181.544 134.697 181.461C133.047 181.25 131.63 182.426 131.511 184.081C131.454 184.911 132.743 184.906 132.8 184.081Z" fill="black"/>
<path d="M142.357 172.055C142.965 173.468 145.336 173.38 145.341 174.948C145.341 175.454 145.099 175.789 145.47 176.258C146.021 176.959 147.037 176.743 147.047 177.97C147.052 178.801 148.341 178.801 148.336 177.97C148.331 177.222 148.099 176.531 147.537 176.011C147.326 175.815 146.826 175.701 146.681 175.505C146.496 175.252 146.753 174.763 146.743 174.469C146.681 172.452 144.094 172.854 143.47 171.4C143.145 170.647 142.032 171.302 142.357 172.055Z" fill="black"/>
<path d="M143.826 187.774C143.537 188.991 143.583 190.914 145.284 190.961C145.975 190.981 145.939 190.94 146.001 191.667C146.037 192.069 145.975 192.394 146.197 192.771C146.32 192.982 147.645 194.008 147.815 193.812C147.269 194.431 148.176 195.349 148.728 194.725C149.114 194.287 149.222 193.792 148.924 193.245C148.779 192.977 148.537 192.755 148.279 192.595C147.692 192.229 147.346 192.389 147.31 191.466C147.284 190.806 147.351 190.156 146.707 189.754C146.413 189.568 146.192 189.615 145.857 189.568C145.382 189.501 145.625 189.847 145.171 189.341C144.8 188.929 144.934 188.64 145.058 188.124C145.259 187.31 144.016 186.964 143.826 187.774Z" fill="black"/>
<path d="M145.944 205.261C145.573 204.699 145.707 203.91 146.485 203.848C146.841 203.817 147.176 203.997 147.542 203.941C148.088 203.863 148.336 203.497 148.547 203.023C148.795 202.46 148.939 202.362 149.475 202.156C149.702 202.069 149.908 201.965 150.094 201.806C150.552 201.419 150.697 200.986 150.568 200.408C150.393 199.598 149.15 199.939 149.326 200.748C149.32 200.733 147.82 201.455 147.645 201.718C147.377 202.105 147.48 202.522 146.908 202.595C146.583 202.636 146.284 202.548 145.949 202.646C144.511 203.059 144.047 204.714 144.836 205.911C145.284 206.602 146.403 205.957 145.944 205.261Z" fill="black"/>
<path d="M152.846 205.797C152.542 206.292 152.635 206.803 153.027 207.226C153.217 207.432 153.454 207.566 153.717 207.659C154.243 207.85 154.496 207.783 154.47 208.453C154.449 208.995 154.264 209.438 154.769 209.84C155.052 210.067 155.418 209.995 155.712 210.191C156.156 210.49 156.15 211.006 156.15 211.532C156.15 212.362 157.439 212.362 157.439 211.532C157.439 210.856 157.367 210.124 156.985 209.546C156.836 209.325 156.656 209.134 156.418 209.005C156.29 208.933 155.764 208.876 155.717 208.804C155.661 208.721 155.903 208.051 155.898 207.886C155.887 207.618 155.81 207.36 155.656 207.143C155.521 206.952 154.166 206.127 153.965 206.452C154.393 205.741 153.279 205.091 152.846 205.797Z" fill="black"/>
<path d="M149.655 219.768C149.423 218.478 151.269 219.071 151.96 218.669C152.418 218.401 152.645 217.916 152.836 217.442C152.949 217.158 153.011 216.792 153.186 216.539C153.511 216.08 153.996 216.116 154.48 215.931C155.042 215.719 155.398 215.374 155.552 214.791C155.769 213.987 154.527 213.646 154.31 214.451C154.197 214.884 153.279 214.879 152.939 215.049C152.661 215.193 152.444 215.363 152.253 215.616C151.857 216.137 151.779 217.308 151.192 217.566C150.815 217.731 150.3 217.524 149.882 217.622C149.537 217.7 149.217 217.885 148.965 218.133C148.418 218.674 148.289 219.386 148.418 220.113C148.558 220.923 149.8 220.577 149.655 219.768Z" fill="black"/>
<path d="M152.965 224.672C152.975 225.059 152.991 225.44 153.001 225.827C153.011 226.203 153.29 226.43 153.645 226.472C155.341 226.657 154.527 227.472 154.599 228.488C154.645 229.133 155.001 229.602 155.491 229.999C155.862 230.298 156.3 230.463 156.702 230.711C157.393 231.133 157.434 231.448 157.547 232.227C157.635 232.815 157.599 233.165 158.089 233.573C158.723 234.099 159.64 233.191 159.001 232.66C158.604 232.33 158.846 231.097 158.506 230.571C157.754 229.421 155.934 229.473 156.032 227.807C156.078 227.07 156.346 226.642 155.795 226.002C155.264 225.383 154.413 225.265 153.645 225.182C153.862 225.399 154.073 225.61 154.29 225.827C154.279 225.44 154.264 225.059 154.254 224.672C154.228 223.847 152.939 223.842 152.965 224.672Z" fill="black"/>
<path d="M160.686 222.63C160.341 221.701 161.645 222.073 162.114 221.748C162.351 221.588 162.485 221.351 162.542 221.077C162.604 220.783 162.424 220.34 162.573 220.097C162.738 219.834 163.238 219.814 163.516 219.705C163.815 219.592 164.104 219.437 164.331 219.21C164.79 218.746 164.841 218.22 164.599 217.648C164.279 216.884 163.166 217.545 163.485 218.298C163.46 218.241 161.826 218.968 161.661 219.128C161.455 219.334 161.315 219.592 161.259 219.876C161.228 220.03 161.259 220.68 161.3 220.639C161.243 220.691 160.625 220.654 160.48 220.711C160.202 220.814 159.965 220.995 159.774 221.217C159.351 221.706 159.217 222.361 159.444 222.97C159.728 223.744 160.975 223.414 160.686 222.63Z" fill="black"/>
<path d="M160.382 202.167C160.398 202.182 161.867 201.507 162.047 201.362C162.599 200.909 162.47 200.537 162.589 199.918C162.723 199.212 163.568 199.305 164.109 198.933C164.563 198.624 164.8 198.217 164.779 197.665C164.754 196.84 163.465 196.834 163.491 197.665C163.501 198.026 161.96 198.361 161.671 198.665C161.125 199.243 161.578 200.192 160.924 200.532C160.331 200.842 159.676 200.816 159.29 201.46C158.955 202.022 159.063 202.621 159.475 203.085C160.022 203.699 160.934 202.781 160.382 202.167Z" fill="black"/>
<path d="M154.089 189.083C153.898 188.14 154.506 187.366 155.434 187.212C155.815 187.15 156.176 187.253 156.558 187.119C157.398 186.82 157.305 186.258 157.563 185.546C157.929 184.551 159.047 184.845 159.857 184.365C160.48 183.994 160.82 183.483 160.8 182.761C160.779 181.931 159.491 181.931 159.511 182.761C159.532 183.519 157.413 183.623 156.872 184.123C156.599 184.375 156.449 184.685 156.346 185.035C156.119 185.809 156.171 185.85 155.264 185.943C153.532 186.113 152.522 187.799 152.846 189.424C153.011 190.239 154.254 189.893 154.089 189.083Z" fill="black"/>
<path d="M159.542 171.085C158.784 172.251 159.841 173.231 160.934 173.52C161.604 173.695 161.934 173.989 162.022 174.701C162.058 174.984 161.985 175.252 162.083 175.536C162.429 176.506 163.697 176.402 163.743 177.604C163.774 178.429 165.063 178.434 165.032 177.604C165.006 176.97 164.851 176.377 164.418 175.892C164.176 175.619 163.846 175.515 163.594 175.283C163.228 174.948 163.336 174.897 163.351 174.386C163.367 173.747 163.243 173.231 162.707 172.818C162.47 172.638 160.46 172.034 160.656 171.735C161.109 171.039 159.991 170.389 159.542 171.085Z" fill="black"/>
<path d="M136.599 256.289C136.779 255.546 138.114 255.923 138.64 255.521C139.161 255.123 138.97 254.639 139.259 254.144C139.594 253.566 140.46 253.628 140.985 253.375C141.511 253.128 141.79 252.803 142.006 252.277C142.32 251.508 141.073 251.173 140.764 251.936C140.558 252.442 139.449 252.431 139.001 252.653C138.439 252.932 138.135 253.349 137.985 253.948C137.846 254.489 137.846 254.432 137.305 254.479C136.98 254.505 136.743 254.474 136.429 254.603C135.836 254.845 135.506 255.345 135.357 255.943C135.161 256.748 136.403 257.093 136.599 256.289Z" fill="black"/>
<path d="M149.465 254.056C149.202 254.52 149.233 255.036 149.583 255.454C149.764 255.67 150.011 255.82 150.279 255.908C150.501 255.98 151.073 255.964 151.223 256.145C151.315 256.258 151.233 256.635 151.274 256.8C151.336 257.042 151.47 257.259 151.681 257.403C152.264 257.8 153.202 257.45 153.274 258.445C153.331 259.27 154.625 259.275 154.563 258.445C154.521 257.841 154.31 257.305 153.867 256.882C153.351 256.392 152.795 256.454 152.181 256.222C152.31 256.32 152.439 256.418 152.568 256.516C152.454 256.356 152.552 256 152.496 255.804C152.439 255.583 152.3 255.371 152.135 255.211C151.975 255.062 150.728 254.438 150.578 254.701C150.985 253.984 149.872 253.329 149.465 254.056Z" fill="black"/>
<path d="M149.558 244.371C149.779 245.006 150.145 245.877 150.831 246.14C151.46 246.382 151.609 245.99 152.073 245.733C152.228 245.361 152.357 245.387 152.449 245.81C152.542 245.949 152.64 246.088 152.748 246.223C152.965 246.449 153.233 246.687 153.552 246.759C154.439 246.95 155.212 245.552 155.965 246.563C156.454 247.223 157.573 246.578 157.078 245.913C156.676 245.372 156.197 245.011 155.506 244.923C154.949 244.856 153.965 245.428 153.692 245.294C153.068 244.985 153.037 244.165 152.145 244.211C151.857 244.227 151.676 244.315 151.454 244.49C151.382 244.547 151.233 244.81 151.161 244.825C151.073 244.846 150.857 244.191 150.805 244.031C150.532 243.247 149.284 243.582 149.558 244.371Z" fill="black"/>
<path d="M161.846 252.06C161.81 251.746 162.702 252.266 162.831 252.313C163.068 252.401 163.351 252.483 163.609 252.483C164.192 252.478 164.558 252.189 164.862 251.73C164.985 251.539 164.985 251.189 165.243 251.096C165.47 251.013 166.161 251.256 166.449 251.23C166.965 251.178 167.326 250.946 167.573 250.498C167.975 249.771 166.862 249.121 166.46 249.848C166.331 250.085 164.955 249.776 164.604 249.93C164.243 250.085 164.197 250.281 163.949 250.544C163.888 250.683 163.831 250.823 163.784 250.967C163.465 251.101 163.171 251.091 162.908 250.936C162.336 250.797 161.919 250.487 161.31 250.761C160.769 250.998 160.491 251.493 160.558 252.065C160.656 252.875 161.949 252.885 161.846 252.06Z" fill="black"/>
<path d="M166.815 241.814C166.831 242.36 167.063 242.788 167.532 243.082C167.986 243.366 168.939 243.345 169.176 243.794C169.429 244.274 169.114 244.825 169.491 245.32C169.661 245.547 169.852 245.671 170.109 245.79C170.254 245.857 171.011 245.98 170.996 246.202C170.944 247.032 172.233 247.027 172.285 246.202C172.321 245.635 172.016 245.191 171.522 244.923C171.295 244.8 170.846 244.794 170.671 244.635C170.388 244.377 170.568 244.078 170.547 243.742C170.511 243.201 170.218 242.763 169.748 242.499C169.444 242.329 168.114 242.185 168.104 241.814C168.083 240.983 166.795 240.978 166.815 241.814Z" fill="black"/>
<path d="M179.645 251.926C179.367 251.044 180.723 251.478 181.171 251.369C181.599 251.266 181.949 250.936 182.068 250.508C182.233 249.915 181.815 249.451 182.599 249.466C183.094 249.477 183.516 249.41 183.867 249.033C184.434 248.424 183.522 247.512 182.955 248.12C182.8 248.29 182.212 248.141 182.011 248.156C181.728 248.177 181.444 248.259 181.223 248.445C180.965 248.657 180.846 248.93 180.8 249.25C180.774 249.44 180.893 250.034 180.779 250.111C180.583 250.245 179.903 250.023 179.63 250.075C179.351 250.132 179.104 250.26 178.893 250.446C178.372 250.905 178.197 251.601 178.403 252.256C178.65 253.056 179.893 252.721 179.645 251.926Z" fill="black"/>
<path d="M182.202 228.477C181.517 229.901 182.723 230.648 183.841 231.205C184.449 231.51 184.815 231.783 184.929 232.505C184.991 232.876 184.898 233.242 185.032 233.603C185.125 233.846 185.29 234.073 185.496 234.227C185.63 234.305 185.769 234.372 185.913 234.429C186.181 234.599 186.321 234.521 186.331 234.196C185.681 234.707 186.599 235.615 187.243 235.109C187.656 234.784 187.697 234.233 187.413 233.794C187.264 233.567 187.053 233.49 186.852 233.346C186.388 233.016 186.259 232.943 186.192 232.35C186.12 231.7 185.846 231.102 185.372 230.648C185.027 230.318 183.053 229.663 183.31 229.127C183.671 228.384 182.563 227.729 182.202 228.477Z" fill="black"/>
<path d="M175.382 222.346C174.785 220.804 176.527 221.598 177.171 221.289C177.604 221.083 177.805 220.65 177.877 220.196C177.96 219.659 177.893 219.463 178.413 219.19C178.609 219.087 178.857 219.066 179.058 218.958C179.563 218.674 179.888 218.205 179.826 217.617C179.738 216.802 178.449 216.792 178.537 217.617C178.568 217.911 177.769 218.025 177.583 218.107C177.305 218.231 177.053 218.391 176.882 218.649C176.712 218.901 176.656 219.185 176.63 219.484C176.604 219.752 176.681 219.861 176.48 219.989C176.352 220.077 176.058 219.974 175.929 219.974C174.506 219.964 173.65 221.413 174.145 222.687C174.439 223.455 175.681 223.125 175.382 222.346Z" fill="black"/>
<path d="M183.465 209.877C183.341 210.387 183.429 210.851 183.815 211.233C184.022 211.434 184.279 211.48 184.501 211.63C184.882 211.754 185.166 212.022 185.346 212.434C185.279 212.579 185.238 212.728 185.233 212.883C185.181 213.393 185.408 213.718 185.831 213.981C186.614 214.471 187.223 214.76 187.547 215.719C187.81 216.503 189.058 216.168 188.79 215.379C188.583 214.77 188.295 214.213 187.841 213.754C187.62 213.533 187.362 213.331 187.094 213.172C186.96 213.084 186.821 213.012 186.676 212.955C186.449 212.924 186.424 212.867 186.594 212.78C186.516 212.176 186.723 211.79 186.295 211.222C186.135 211.011 184.702 210.263 184.712 210.227C184.908 209.412 183.666 209.067 183.465 209.877Z" fill="black"/>
<path d="M170.254 205.421C169.898 205.931 170.042 206.607 170.532 206.988C170.857 207.241 171.259 207.288 171.661 207.257C172.362 207.21 172.599 207.324 172.666 208.01C172.728 208.665 173.027 209.113 173.661 209.314C174.181 209.479 174.248 209.479 174.372 210.042C174.455 210.418 174.496 210.655 174.805 210.923C175.429 211.465 176.346 210.552 175.717 210.011C175.558 209.871 175.635 209.314 175.573 209.113C175.501 208.876 175.367 208.659 175.176 208.5C174.991 208.34 174.754 208.257 174.522 208.19C174.058 208.061 173.986 208.2 173.939 207.643C173.893 207.086 173.81 206.529 173.336 206.168C172.996 205.911 171.681 205.632 171.372 206.076C171.841 205.39 170.723 204.745 170.254 205.421Z" fill="black"/>
<path d="M177.29 203.038C177.094 202.61 178.795 202.486 179.063 202.27C179.563 201.873 179.475 201.156 179.955 200.816C180.449 200.465 181.109 200.795 181.661 200.439C182.336 200.001 182.563 199.119 183.228 198.624C183.888 198.134 183.243 197.015 182.578 197.51C182.207 197.788 181.872 198.062 181.584 198.428C181.388 198.67 181.254 199 181.006 199.186C180.697 199.418 180.604 199.341 180.233 199.335C179.419 199.325 178.81 199.583 178.516 200.393C178.465 200.527 178.47 200.831 178.388 200.934C178.022 201.383 177.913 201.042 177.511 201.13C177.166 201.207 176.857 201.264 176.568 201.491C175.851 202.053 175.841 202.925 176.187 203.683C176.516 204.446 177.63 203.791 177.29 203.038Z" fill="black"/>
<path d="M187.063 192.982C186.764 194.246 187.733 194.565 188.599 195.148C189.135 195.509 188.97 195.994 189.217 196.54C189.501 197.175 190.692 197.948 190.501 198.686C190.295 199.49 191.537 199.831 191.743 199.026C192.156 197.438 190.583 196.953 190.321 195.592C190.228 195.122 190.192 194.777 189.831 194.421C189.573 194.168 188.217 193.684 188.305 193.323C188.496 192.518 187.254 192.173 187.063 192.982Z" fill="black"/>
<path d="M175.8 188.547C175.305 187.567 176.393 186.855 177.223 187.402C177.444 187.547 177.831 187.51 178.001 187.299C178.223 187.031 178.362 186.804 178.388 186.443C178.439 185.788 178.135 185.546 178.831 185.179C179.635 184.751 180.429 184.364 180.362 183.323C180.31 182.498 179.022 182.492 179.073 183.323C179.109 183.885 177.671 184.261 177.341 184.705C177.187 184.911 177.099 185.133 177.058 185.391C177.027 185.592 177.202 186.247 177.089 186.386C177.346 186.35 177.609 186.319 177.867 186.283C175.841 184.952 173.625 187.093 174.681 189.192C175.063 189.94 176.176 189.29 175.8 188.547Z" fill="black"/>
<path d="M181.104 177.707C181.114 177.965 181.125 178.218 181.135 178.476C181.145 178.754 181.326 179.033 181.609 179.1C182.063 179.208 182.728 178.996 183.114 179.141C183.702 179.363 183.48 180.379 183.738 180.858C183.924 181.204 184.217 181.462 184.62 181.518C185.089 181.591 186.233 180.812 186.156 181.725C186.089 182.55 187.377 182.545 187.444 181.725C187.496 181.075 187.187 180.456 186.614 180.126C186.357 179.976 186.027 179.899 185.733 179.92C185.377 179.945 184.996 180.306 184.815 179.94C184.692 179.687 184.846 179.182 184.754 178.878C184.661 178.579 184.47 178.31 184.212 178.125C183.522 177.635 182.712 178.037 181.955 177.857C182.114 178.063 182.269 178.269 182.429 178.481C182.418 178.223 182.408 177.97 182.398 177.712C182.357 176.882 181.068 176.877 181.104 177.707Z" fill="black"/>
<path d="M175.841 169.863C175.542 169.25 175.774 168.492 176.326 168.105C176.821 167.759 177.31 167.95 177.857 167.893C178.547 167.826 179.037 167.434 179.192 166.749C179.274 166.382 179.15 166.037 179.176 165.676C179.223 164.99 179.377 165.14 179.991 165.119C180.723 165.093 181.336 164.789 181.501 164.041C181.681 163.232 180.439 162.886 180.259 163.701C180.207 163.928 179.053 163.783 178.821 163.861C178.444 163.99 178.171 164.227 178.011 164.588C177.831 164.985 177.877 165.398 177.903 165.82C177.965 166.728 177.62 166.522 176.857 166.573C174.939 166.707 173.929 168.863 174.733 170.503C175.094 171.261 176.202 170.606 175.841 169.863Z" fill="black"/>
<path d="M188.259 173.876C188.099 173.401 188.424 173.066 188.893 173.107C189.238 173.138 189.527 173.344 189.893 173.329C190.47 173.298 190.924 172.927 191.042 172.365C191.12 171.983 191.089 172.05 191.475 171.906C191.754 171.803 191.991 171.653 192.181 171.421C192.553 170.977 192.578 170.395 192.151 169.987C191.553 169.415 190.64 170.323 191.238 170.9C191.011 170.684 191.218 170.673 190.826 170.751C190.702 170.776 190.568 170.838 190.455 170.895C190.228 171.008 190.001 171.168 189.867 171.395C189.79 171.529 189.79 171.668 189.738 171.808C189.723 171.87 189.723 171.926 189.733 171.988C189.764 172.112 189.738 172.117 189.651 172.004C189.377 172.024 189.032 171.787 188.733 171.782C187.501 171.761 186.625 173.076 187.001 174.211C187.279 175 188.527 174.665 188.259 173.876Z" fill="black"/>
<path d="M199.913 182.059C199.934 182.782 199.893 183.591 200.331 184.21C200.955 185.092 202.011 184.85 202.8 185.438C203.573 186.02 203.305 186.175 203.315 187.041C203.321 187.413 203.331 187.789 203.444 188.145C203.635 188.723 205.599 190.105 205.532 190.337C205.295 191.136 206.542 191.477 206.774 190.677C207.006 189.899 206.733 189.264 206.084 188.779C205.419 188.279 204.707 187.985 204.604 187.041C204.553 186.598 204.681 186.134 204.64 185.68C204.578 185.04 204.383 184.452 203.821 184.076C203.455 183.828 203.094 183.839 202.687 183.741C201.434 183.442 201.238 183.308 201.207 182.059C201.176 181.229 199.888 181.224 199.913 182.059Z" fill="black"/>
<path d="M202.254 198.985C202.207 198.247 202.975 198.263 203.506 198.113C203.867 198.01 204.151 197.824 204.45 197.603C205.279 196.984 206.084 196.329 206.898 195.689C207.553 195.179 206.635 194.271 205.986 194.777C205.408 195.23 204.826 195.684 204.249 196.138C203.98 196.35 203.692 196.633 203.383 196.788C203.058 196.948 202.738 196.922 202.398 197.01C201.47 197.242 200.903 198.036 200.96 198.99C201.017 199.81 202.305 199.815 202.254 198.985Z" fill="black"/>
<path d="M198.176 210.877C197.996 211.614 198.109 212.31 198.604 212.914C198.805 213.161 199.063 213.368 199.352 213.502C199.718 213.672 200.315 213.522 200.599 213.667C201.254 214.007 200.718 215.601 201.078 216.235C201.259 216.555 201.568 216.792 201.908 216.916C202.089 216.983 203.444 217.122 203.429 217.194C203.223 217.999 204.465 218.339 204.671 217.534C204.821 216.947 204.661 216.457 204.156 216.091C203.867 215.879 203.599 215.864 203.269 215.766C202.821 215.812 202.444 215.637 202.14 215.245C202.145 215.008 202.161 214.765 202.197 214.528C202.223 213.894 202.187 213.182 201.676 212.718C200.98 212.089 199.047 212.759 199.424 211.212C199.614 210.413 198.372 210.067 198.176 210.877Z" fill="black"/>
<path d="M206.738 211.831C206.748 211.439 206.759 211.047 206.774 210.655C206.558 210.872 206.346 211.083 206.13 211.3C206.707 211.32 207.326 211.274 207.831 210.97C208.063 210.831 208.259 210.635 208.388 210.397C208.491 210.201 208.444 209.686 208.537 209.567C208.63 209.443 209.14 209.557 209.362 209.541C209.661 209.521 209.96 209.443 210.228 209.294C210.785 208.979 211.15 208.443 211.269 207.824C211.424 207.014 210.181 206.664 210.027 207.484C209.785 208.742 208.48 207.896 207.723 208.469C207.398 208.716 207.357 209 207.259 209.366C207.089 210.021 206.779 210.031 206.13 210.011C205.774 209.995 205.496 210.315 205.486 210.655C205.475 211.047 205.465 211.439 205.45 211.831C205.424 212.661 206.712 212.661 206.738 211.831Z" fill="black"/>
<path d="M212.192 218.076C212.027 217.936 212.212 219.097 212.176 219.014C212.279 219.267 212.429 219.422 212.656 219.607C213.501 220.293 214.45 220.004 214.372 221.464C214.341 222.072 214.29 222.717 214.707 223.222C214.929 223.49 215.161 223.506 215.434 223.702C216.419 224.408 216.547 224.811 216.573 225.888C216.594 226.719 217.883 226.719 217.862 225.888C217.841 225.022 217.785 224.037 217.223 223.325C216.955 222.985 216.635 222.902 216.321 222.645C215.439 221.918 215.779 221.5 215.692 220.556C215.62 219.788 215.295 219.355 214.64 218.978C214.3 218.782 214.099 218.844 213.774 218.535C213.022 217.828 213.656 218.473 213.45 217.921C213.31 217.565 213.455 217.457 213.104 217.158C212.475 216.621 211.563 217.529 212.192 218.076Z" fill="black"/>
<path d="M200.522 227.152C199.403 228.952 201.078 230.385 202.785 230.628C203.336 230.705 203.47 230.551 203.676 231.087C203.846 231.525 203.635 231.634 203.584 232.036C203.532 232.433 203.439 232.825 203.568 233.222C203.651 233.48 203.8 233.707 204.011 233.872C204.279 234.083 205.723 234.284 205.305 234.898C204.836 235.584 205.955 236.229 206.419 235.548C206.831 234.944 206.867 234.197 206.439 233.583C206.269 233.341 206.063 233.129 205.79 233.005C205.212 232.737 204.754 233.176 204.877 232.216C204.98 231.427 205.455 230.741 204.836 230.004C204.553 229.663 204.156 229.529 203.743 229.447C203.145 229.323 200.692 229.339 201.645 227.807C202.073 227.095 200.955 226.445 200.522 227.152Z" fill="black"/>
<path d="M218.496 237.203C218.836 235.821 219.841 236.584 220.826 236.398C221.398 236.29 221.604 235.991 221.919 235.542C222.414 234.846 222.841 235.207 223.615 235.052C224.238 234.923 224.615 234.604 224.826 234.011C225.104 233.227 223.862 232.891 223.584 233.67C223.491 233.933 221.805 233.778 221.455 233.969C220.795 234.325 220.929 235.13 220.094 235.078C219.388 235.037 218.841 234.733 218.176 235.186C217.62 235.563 217.403 236.239 217.254 236.863C217.058 237.667 218.3 238.007 218.496 237.203Z" fill="black"/>
<path d="M201.032 249.497C201.212 249.126 201.393 248.755 201.573 248.378C201.728 248.42 201.883 248.461 202.037 248.502C202.279 248.58 202.496 248.703 202.749 248.729C203.094 248.765 203.408 248.698 203.707 248.523C204.006 248.342 204.223 248.038 204.486 247.816C205.058 247.342 205.728 247.105 206.45 246.986C207.264 246.847 206.919 245.604 206.109 245.744C205.285 245.883 204.527 246.182 203.857 246.687C203.48 246.971 203.207 247.43 202.692 247.394C202.228 247.358 201.924 247.074 201.413 247.115C199.846 247.249 199.254 248.868 199.919 250.152C200.3 250.885 201.413 250.23 201.032 249.497Z" fill="black"/>
<path d="M218.434 245.949C218.45 245.568 218.46 245.186 218.475 244.799C218.367 244.985 218.264 245.17 218.156 245.356C218.522 245.145 219.362 245.722 219.81 245.691C220.372 245.65 220.738 245.315 220.96 244.82C221.357 243.938 221.841 244.356 222.625 244.139C223.166 243.99 223.517 243.67 223.676 243.139C223.919 242.345 222.676 242.004 222.434 242.798C222.372 243.01 220.883 242.922 220.578 243.092C220.321 243.232 220.166 243.448 220.011 243.691C219.749 244.103 219.841 244.366 219.279 244.278C218.738 244.191 218.321 243.892 217.754 244.119C216.991 244.423 217.171 245.268 217.151 245.949C217.12 246.779 218.408 246.779 218.434 245.949Z" fill="black"/>
<path d="M228.305 237.255C227.537 238.57 228.718 239.539 229.852 239.988C230.687 240.318 230.743 240.457 230.661 241.303C230.63 241.623 230.594 241.875 230.713 242.18C230.841 242.51 231.852 243.144 231.821 243.381C231.728 244.206 233.017 244.196 233.109 243.381C233.161 242.917 232.95 242.587 232.625 242.283C232.326 242.004 232.182 242.025 232.073 241.612C231.97 241.22 232.171 240.896 232.109 240.493C232.027 239.957 231.666 239.508 231.218 239.209C230.816 238.946 229.058 238.534 229.424 237.91C229.836 237.188 228.723 236.538 228.305 237.255Z" fill="black"/>
<path d="M210.584 236.641C209.31 237.337 210.042 238.889 211.022 239.457C211.527 239.751 212.037 239.864 212.207 240.534C212.3 240.911 212.187 241.323 212.31 241.715C212.527 242.406 213.037 242.783 213.733 242.824C213.527 242.551 213.321 242.283 213.109 242.009C213.032 242.267 212.955 242.52 212.877 242.778C212.635 243.572 213.883 243.912 214.12 243.118C214.197 242.86 214.274 242.608 214.352 242.35C214.481 241.932 214.135 241.556 213.728 241.535C213.429 241.519 213.486 240.246 213.429 240.014C213.357 239.699 213.213 239.415 212.996 239.173C212.774 238.92 212.475 238.755 212.182 238.601C212.104 238.559 210.852 237.961 211.223 237.76C211.96 237.358 211.31 236.244 210.584 236.641Z" fill="black"/>
<path d="M195.542 236.249C195.759 237.729 197.367 238.131 198.635 238.271C198.429 238.111 198.223 237.956 198.011 237.796C198.156 238.745 197.81 239.709 198.295 240.602C198.527 241.024 199.614 242.004 200.12 241.473C199.547 242.071 200.455 242.984 201.032 242.386C201.537 241.86 201.455 241.091 200.877 240.638C200.388 240.256 199.589 240.395 199.326 239.709C199.089 239.085 199.362 238.142 199.254 237.456C199.207 237.157 198.893 237.012 198.63 236.981C197.924 236.904 196.903 236.754 196.779 235.909C196.666 235.089 195.424 235.434 195.542 236.249Z" fill="black"/>
</svg>
