<svg width="60" height="60" viewBox="0 0 60 60" fill="none" xmlns="http://www.w3.org/2000/svg">
<path d="M29.1232 60C28.8301 60.0006 28.5398 59.9443 28.2689 59.8341C27.998 59.724 27.752 59.5622 27.545 59.3582L6.87577 39.0321C-2.12674 30.1791 -2.31805 15.7403 6.47346 6.86789C8.60958 4.7174 11.1571 3.00357 13.9694 1.82504C16.7816 0.646509 19.8031 0.0265471 22.86 0.000834067C25.9169 -0.024879 28.9487 0.544164 31.7811 1.67521C34.6134 2.80626 37.1904 4.47699 39.3636 6.59123L40.8687 8.06859C42.9441 6.73683 45.422 6.14746 47.8869 6.39932C50.3518 6.65119 52.6536 7.72897 54.4062 9.45187C57.9881 12.9792 60 17.7603 60 22.7453C60 27.7302 57.9881 32.5114 54.4062 36.0387L30.6987 59.3526C30.4924 59.5573 30.2471 59.7199 29.9767 59.831C29.7063 59.9421 29.4162 59.9996 29.1232 60ZM23.0578 4.3918H22.8974C20.43 4.40284 17.9896 4.8979 15.7192 5.848C13.4487 6.7981 11.3939 8.18414 9.67498 9.92496C2.57707 17.0849 2.74024 28.7377 10.0379 35.9308L29.1288 54.7048L51.2553 32.9429C53.9999 30.2376 55.5413 26.5722 55.5413 22.7508C55.5413 18.9294 53.9999 15.264 51.2553 12.5587C50.3222 11.6428 49.122 11.0355 47.8217 10.8214C46.5214 10.6072 45.1856 10.7967 43.9999 11.3636C46.8003 14.9834 48.1723 19.4784 47.8619 24.0165C47.5516 28.5546 45.5799 32.8284 42.3119 36.047L30.6987 47.4508C30.4917 47.6547 30.2459 47.8164 29.9753 47.9267C29.7048 48.0371 29.4147 48.0939 29.1218 48.0939C28.8289 48.0939 28.5389 48.0371 28.2683 47.9267C27.9977 47.8164 27.7519 47.6547 27.545 47.4508L12.8878 33.0369C7.26119 27.5038 7.07832 18.4515 12.4855 12.8658C13.8235 11.4876 15.4269 10.3849 17.2024 9.62185C18.9779 8.85883 20.89 8.45077 22.8275 8.42142C24.7649 8.39207 26.6889 8.74201 28.4874 9.45088C30.286 10.1598 31.9232 11.2134 33.3038 12.5504C33.6613 12.9007 34.1453 13.0973 34.6499 13.0973C35.1545 13.0973 35.6386 12.9007 35.9961 12.5504L37.5574 11.015L36.2211 9.70363C34.4904 8.00991 32.4368 6.66882 30.1779 5.7573C27.919 4.84577 25.4994 4.38174 23.0578 4.3918ZM23.0578 12.8077H22.8974C21.5524 12.8221 20.2241 13.1021 18.9913 13.631C17.7584 14.16 16.6463 14.9271 15.7207 15.8869C11.9678 19.7601 12.1141 26.0652 16.0471 29.9328L29.126 42.7947L39.1469 32.9401C41.6182 30.5032 43.123 27.2784 43.3902 23.8468C43.6574 20.4153 42.6694 17.0027 40.6042 14.2242L39.1526 15.6518C37.9576 16.8236 36.3389 17.4816 34.6513 17.4816C32.9638 17.4816 31.3451 16.8236 30.1501 15.6518C28.2605 13.8185 25.7094 12.7959 23.055 12.8077H23.0578Z" fill="#FF434B"/>
</svg>
