<svg width="17" height="26" viewBox="0 0 17 26" fill="none" xmlns="http://www.w3.org/2000/svg">
<path d="M10.4291 0C13.5532 0 16.0858 2.42512 16.0858 5.41667V18.4167C16.0858 22.6048 12.5402 26 8.16643 26C3.79269 26 0.24707 22.6048 0.24707 18.4167V9.75H2.50974V18.4167C2.50974 21.4082 5.04233 23.8333 8.16643 23.8333C11.2905 23.8333 13.8231 21.4082 13.8231 18.4167V5.41667C13.8231 3.62174 12.3036 2.16667 10.4291 2.16667C8.55464 2.16667 7.03509 3.62174 7.03509 5.41667V18.4167C7.03509 19.015 7.54161 19.5 8.16643 19.5C8.79125 19.5 9.29776 19.015 9.29776 18.4167V6.5H11.5604V18.4167C11.5604 20.2116 10.0409 21.6667 8.16643 21.6667C6.29197 21.6667 4.77242 20.2116 4.77242 18.4167V5.41667C4.77242 2.42512 7.305 0 10.4291 0Z" fill="black"/>
</svg>
