<svg width="450" height="516" viewBox="0 0 450 516" fill="none" xmlns="http://www.w3.org/2000/svg">
<path d="M179.889 446.844C206.723 460.433 221.422 475.783 180.729 500.333C149.178 519.373 92.2927 513.697 48.7455 464.774C-22.4585 384.777 -11.0849 279.679 57.8153 268.148C118.504 257.987 146.415 318.215 135.876 354.515C123.456 397.281 144.305 428.818 179.889 446.844Z" fill="#FFECDD"/>
<path d="M319.34 154.893C320.967 154.169 322.605 152.692 323.306 151.067C322.847 150.877 322.387 150.688 321.928 150.498C321.565 152.615 323.21 154.294 325.181 154.834C325.12 154.383 325.06 153.932 325 153.481C322.768 154.697 322.406 156.429 321.68 158.648C322.164 158.778 322.653 158.909 323.137 159.039C323.627 156.417 321.613 153.944 318.85 154.009C317.877 154.033 317.877 155.516 318.85 155.492C320.567 155.451 322 156.933 321.68 158.648C321.505 159.579 322.835 159.964 323.137 159.039C323.736 157.212 323.875 155.789 325.767 154.757C326.342 154.442 326.203 153.57 325.586 153.404C324.51 153.108 323.167 152.176 323.385 150.889C323.512 150.136 322.363 149.484 322.006 150.32C321.39 151.749 320.011 152.983 318.584 153.618C317.695 154.009 318.463 155.29 319.34 154.893Z" fill="#333333"/>
<path d="M183.263 151.779C184.889 151.055 186.528 149.578 187.229 147.953C186.77 147.763 186.31 147.573 185.851 147.384C185.488 149.501 187.133 151.18 189.104 151.72C189.043 151.269 188.983 150.818 188.922 150.367C186.691 151.583 186.328 153.315 185.603 155.534C186.087 155.664 186.576 155.795 187.06 155.925C187.55 153.303 185.536 150.83 182.773 150.895C181.8 150.919 181.8 152.402 182.773 152.378C184.49 152.336 185.923 153.819 185.603 155.534C185.427 156.465 186.758 156.85 187.06 155.925C187.659 154.098 187.798 152.675 189.69 151.642C190.265 151.328 190.126 150.456 189.509 150.29C188.433 149.994 187.09 149.062 187.308 147.775C187.435 147.022 186.286 146.369 185.929 147.206C185.313 148.635 183.934 149.869 182.507 150.504C181.618 150.889 182.386 152.17 183.263 151.779Z" fill="#333333"/>
<path d="M358.232 89.4338C359.858 88.7102 361.497 87.2333 362.198 85.6081C361.739 85.4183 361.279 85.2285 360.819 85.0387C360.457 87.1562 362.101 88.8347 364.073 89.3745C364.012 88.9237 363.952 88.4729 363.891 88.0221C361.66 89.2381 361.297 90.97 360.572 93.1884C361.055 93.3189 361.545 93.4494 362.029 93.5798C362.519 90.9582 360.505 88.4848 357.742 88.55C356.768 88.5738 356.768 90.0566 357.742 90.0329C359.459 89.9914 360.892 91.4742 360.572 93.1884C360.396 94.1196 361.726 94.5051 362.029 93.5798C362.627 91.753 362.766 90.3294 364.659 89.2974C365.233 88.983 365.094 88.1111 364.478 87.945C363.401 87.6485 362.059 86.7172 362.277 85.4301C362.404 84.6768 361.255 84.0244 360.898 84.8607C360.281 86.2902 358.903 87.5239 357.476 88.1586C356.587 88.5441 357.355 89.8253 358.232 89.4338Z" fill="#333333"/>
<ellipse cx="210.984" cy="47.7065" rx="49.8343" ry="47.7065" fill="#FFECDD"/>
<path d="M185.44 60.272C185.637 60.1098 185.827 59.923 186.009 59.7133M185.44 60.272L181.324 60.293C180.171 59.5162 179.312 58.406 178.958 57.3206C178.782 56.7783 178.708 56.1664 178.874 55.5848C179.052 54.9625 179.484 54.4593 180.13 54.1938M185.44 60.272C185.441 60.2712 185.442 60.2705 185.443 60.2697L185.443 60.2697C185.638 60.0818 185.821 59.8819 185.96 59.6707L186.009 59.7133M185.44 60.272L185.96 59.6706L186.009 59.7133M186.009 59.7133C186.932 58.6554 187.423 57.3371 187.423 56.1805C187.423 55.6011 187.298 54.998 186.969 54.4921C186.624 53.9601 186.082 53.5872 185.393 53.4914M185.393 53.4914C184.333 53.344 183.416 53.8526 182.848 54.457C182.125 54.0127 181.119 53.7877 180.13 54.1938M185.393 53.4914L185.256 54.4819L185.393 53.4914ZM180.13 54.1938L180.51 55.1188L180.13 54.1938Z" stroke="#333333" stroke-width="2"/>
<mask id="path-7-outside-1" maskUnits="userSpaceOnUse" x="279.308" y="16.4423" width="14.0244" height="13.1474" fill="black">
<rect fill="white" x="279.308" y="16.4423" width="14.0244" height="13.1474"/>
<path d="M285.48 24.6509C284.833 24.8372 284.823 25.0702 285.627 25.7595C286.249 26.2938 287.154 26.4357 288.311 25.5552C290.203 24.1154 290.732 21.5958 289.253 21.0753C287.95 20.6169 286.447 21.9356 286.799 22.7702C285.948 23.3948 286.339 24.4038 285.48 24.6509Z"/>
<path d="M287.851 24.8131C288.465 25.0941 288.605 25.3751 287.714 25.9371C287.023 26.3728 285.945 26.3291 284.923 25.2851C283.252 23.5779 282.938 21.0517 284.474 20.7575C285.827 20.4984 287.013 21.8334 286.799 22.7702C287.498 23.4792 287.035 24.4403 287.851 24.8131Z"/>
</mask>
<path d="M285.48 24.6509L286.023 26.5694L286.023 26.5694L285.48 24.6509ZM285.627 25.7595L284.314 27.2769L284.314 27.277L285.627 25.7595ZM288.311 25.5552L287.102 23.9707L287.102 23.9707L288.311 25.5552ZM289.253 21.0753L288.575 22.9591L288.575 22.9591L289.253 21.0753ZM287.851 24.8131L287.006 26.6294L287.006 26.6294L287.851 24.8131ZM287.714 25.9371L288.776 27.6228L288.777 27.6228L287.714 25.9371ZM284.923 25.2851L286.361 23.8852L286.361 23.8852L284.923 25.2851ZM284.474 20.7575L284.839 22.7187L284.839 22.7187L284.474 20.7575ZM284.937 22.7324C284.728 22.7925 284.313 22.9212 283.929 23.2058C283.436 23.5708 282.918 24.272 283.017 25.2327C283.088 25.932 283.472 26.4158 283.633 26.6084C283.839 26.8543 284.086 27.081 284.314 27.2769L286.939 24.242C286.766 24.0933 286.712 24.0324 286.714 24.035C286.718 24.0394 286.766 24.096 286.822 24.1993C286.876 24.3001 286.972 24.5077 287.002 24.8005C287.035 25.1219 286.98 25.4767 286.809 25.8077C286.649 26.1167 286.439 26.306 286.305 26.4058C286.079 26.5728 285.908 26.6025 286.023 26.5694L284.937 22.7324ZM284.314 27.277C284.931 27.8063 285.773 28.2023 286.79 28.1847C287.783 28.1674 288.704 27.7601 289.519 27.1397L287.102 23.9707C286.761 24.2309 286.651 24.1928 286.747 24.1911C286.792 24.1903 286.844 24.1994 286.89 24.2176C286.932 24.2342 286.948 24.2495 286.939 24.2419L284.314 27.277ZM289.519 27.1398C290.815 26.1536 291.714 24.7567 292.006 23.3674C292.152 22.6707 292.17 21.8494 291.864 21.0607C291.535 20.2139 290.871 19.5227 289.931 19.1916L288.575 22.9591C288.374 22.8883 288.198 22.7072 288.127 22.5242C288.078 22.3993 288.123 22.3955 288.086 22.5737C288.01 22.9342 287.699 23.517 287.102 23.9707L289.519 27.1398ZM289.931 19.1916C288.466 18.6761 287.062 19.1943 286.196 19.8539C285.747 20.196 285.32 20.6625 285.044 21.2395C284.769 21.8148 284.578 22.6679 284.952 23.5542L288.646 21.9862C288.844 22.4552 288.709 22.8305 288.658 22.9381C288.606 23.0475 288.569 23.0564 288.615 23.0218C288.652 22.9936 288.689 22.9795 288.702 22.9766C288.707 22.9755 288.655 22.9872 288.575 22.9591L289.931 19.1916ZM285.619 21.1645C284.593 21.9176 284.326 22.9718 284.235 23.2546C284.169 23.461 284.188 23.3489 284.289 23.2048C284.355 23.1102 284.453 23.0017 284.586 22.9061C284.719 22.8112 284.844 22.759 284.937 22.7324L286.023 26.5694C286.688 26.3782 287.209 25.989 287.568 25.4765C287.864 25.0542 288 24.6044 288.049 24.4496C288.191 24.01 288.154 24.2474 287.979 24.376L285.619 21.1645ZM287.006 26.6294C287.106 26.675 287.022 26.6506 286.89 26.5354C286.747 26.4109 286.345 25.9939 286.344 25.287C286.343 24.6382 286.686 24.2613 286.737 24.2075C286.806 24.1339 286.813 24.1493 286.651 24.2514L288.777 27.6228C289.06 27.4439 289.384 27.2134 289.658 26.9203C289.914 26.6469 290.351 26.0769 290.35 25.2524C290.348 24.37 289.852 23.7949 289.538 23.5211C289.235 23.2566 288.903 23.0916 288.696 22.9967L287.006 26.6294ZM286.651 24.2514C286.743 24.1936 286.814 24.201 286.811 24.2006C286.806 24.1996 286.638 24.1684 286.361 23.8852L283.485 26.6851C285.006 28.238 287.106 28.6766 288.776 27.6228L286.651 24.2514ZM286.361 23.8852C285.792 23.3036 285.528 22.6439 285.487 22.2639C285.467 22.0733 285.516 22.1099 285.433 22.2676C285.386 22.358 285.302 22.4691 285.175 22.5642C285.046 22.66 284.921 22.7029 284.839 22.7187L284.109 18.7964C283.116 18.9866 282.332 19.5881 281.889 20.4304C281.485 21.1979 281.43 22.0279 281.504 22.719C281.654 24.1024 282.384 25.5595 283.486 26.6851L286.361 23.8852ZM284.839 22.7187C284.823 22.7218 284.805 22.7226 284.79 22.7213C284.775 22.7201 284.768 22.7175 284.769 22.7178C284.775 22.7197 284.802 22.7322 284.835 22.7632C284.87 22.7967 284.871 22.8133 284.858 22.7816C284.848 22.7568 284.788 22.5954 284.846 22.3394L288.752 23.201C289.073 21.7963 288.338 20.5582 287.613 19.8676C286.82 19.111 285.559 18.5188 284.109 18.7964L284.839 22.7187ZM285.366 24.1755C285.223 24.0305 285.216 23.8031 285.316 24.3134C285.351 24.4959 285.435 24.9416 285.672 25.3855C285.952 25.9077 286.393 26.3494 287.006 26.6294L288.696 22.9968C288.901 23.0904 289.094 23.2722 289.209 23.4872C289.283 23.6238 289.285 23.7151 289.247 23.5221C289.2 23.2814 289.074 22.2189 288.232 21.3649L285.366 24.1755Z" fill="#333333" mask="url(#path-7-outside-1)"/>
<path d="M257.369 177.978C257.369 177.978 257.03 177.729 263.349 177.563C269.662 177.397 275.188 179.099 275.188 179.099L272.268 170.22L270.756 160.546C270.756 160.546 267.424 165.7 264.534 169.016C260.997 173.073 256.021 174.01 256.021 174.01L257.369 177.978Z" fill="#F8BAB4"/>
<path d="M231.308 330.309C244.859 334.924 258.167 340.167 271.633 344.995C272.546 345.322 272.945 343.892 272.032 343.566C258.566 338.738 245.252 333.489 231.707 328.88C230.788 328.565 230.389 329.995 231.308 330.309Z" fill="#333333"/>
<path d="M272.456 344.556C286.217 335.6 300.983 327.853 315.767 320.653C316.637 320.226 315.876 318.95 315.005 319.371C300.221 326.578 285.456 334.319 271.694 343.275C270.884 343.797 271.639 345.084 272.456 344.556Z" fill="#333333"/>
<path d="M229.791 317.557C238.498 321.056 247.32 324.259 256.202 327.302C260.229 328.678 264.329 329.912 268.332 331.359C273.864 333.358 275.497 339.082 271.657 343.625C271.04 344.355 272.105 345.41 272.727 344.675C275.001 341.982 276.029 338.299 274.735 334.936C273.114 330.736 268.561 329.918 264.698 328.613C253.1 324.71 241.552 320.688 230.196 316.127C229.295 315.765 228.902 317.201 229.791 317.557Z" fill="#333333"/>
<path d="M272.817 332.48C286.537 325.173 300.39 318.067 313.589 309.875C314.412 309.365 313.65 308.084 312.827 308.594C299.628 316.785 285.769 323.891 272.055 331.199C271.197 331.656 271.959 332.937 272.817 332.48Z" fill="#333333"/>
<path d="M229.966 316.761C232.149 315.474 234.326 314.169 236.508 312.882C237.343 312.39 236.581 311.109 235.747 311.601C233.564 312.888 231.387 314.193 229.204 315.48C228.37 315.973 229.131 317.254 229.966 316.761Z" fill="#333333"/>
<path d="M231.151 318.933C232.131 322.325 232.415 325.617 232.3 329.129C232.27 330.084 233.782 330.084 233.812 329.129C233.933 325.487 233.625 322.053 232.609 318.535C232.343 317.622 230.885 318.007 231.151 318.933Z" fill="#333333"/>
<path d="M231.762 311.163C245.415 315.445 258.929 320.125 272.491 324.662C272.866 324.787 273.338 324.52 273.423 324.146C274.299 320.309 273.943 316.216 272.63 312.515C272.31 311.619 270.853 312.005 271.173 312.906C272.401 316.358 272.788 320.166 271.965 323.749C272.274 323.577 272.588 323.405 272.897 323.233C259.334 318.695 245.82 314.016 232.167 309.733C231.236 309.437 230.843 310.872 231.762 311.163Z" fill="#333333"/>
<path d="M231.52 300.966C244.75 304.97 258.022 308.873 271.161 313.15C272.086 313.452 272.485 312.017 271.56 311.72C258.421 307.449 245.143 303.547 231.919 299.537C230.994 299.252 230.595 300.682 231.52 300.966Z" fill="#333333"/>
<path d="M273.065 324.568C286.44 317.236 300.378 310.985 313.995 304.104C314.859 303.665 314.097 302.384 313.233 302.823C299.622 309.703 285.678 315.955 272.304 323.286C271.451 323.755 272.213 325.036 273.065 324.568Z" fill="#333333"/>
<path d="M273.012 313.025C279.923 309.608 286.834 306.186 293.745 302.769C297.113 301.103 300.481 299.436 303.843 297.775C305.621 296.897 308.928 294.489 310.966 296.025C312.798 297.401 313.094 300.776 312.804 302.763C312.665 303.695 314.122 304.098 314.261 303.155C314.702 300.165 314.074 296.257 311.365 294.341C308.626 292.413 304.405 295.835 302.017 297.016C292.094 301.921 282.172 306.832 272.244 311.738C271.379 312.171 272.141 313.452 273.012 313.025Z" fill="#333333"/>
<path d="M310.1 293.73C297.052 290.408 284.179 286.007 271.433 281.719C270.508 281.41 270.115 282.84 271.034 283.148C283.78 287.437 296.653 291.838 309.701 295.16C310.645 295.397 311.044 293.967 310.1 293.73Z" fill="#333333"/>
<path d="M232.306 300.83C237.222 297.977 242.778 295.936 247.978 293.659C255.851 290.201 263.748 286.79 271.608 283.302C272.491 282.911 271.723 281.63 270.846 282.021C262.986 285.509 255.089 288.919 247.216 292.377C242.016 294.661 236.46 296.701 231.544 299.548C230.709 300.035 231.471 301.316 232.306 300.83Z" fill="#333333"/>
<path d="M314.212 309.882C314.884 309.591 316.311 314.087 316.413 314.562C316.601 315.428 317.03 319.283 315.119 319.129C315.186 319.615 315.252 320.102 315.319 320.588C315.41 320.558 315.5 320.529 315.585 320.499C316.492 320.173 316.099 318.737 315.186 319.07C315.095 319.105 315.011 319.135 314.92 319.158C314.092 319.425 314.273 320.546 315.119 320.618C317.75 320.825 318.33 316.875 318.046 315.131C317.762 313.381 316.305 307.373 313.445 308.606C312.562 308.98 313.33 310.261 314.212 309.882Z" fill="#333333"/>
<path d="M308.057 306.803C308.916 307.242 309.908 307.367 310.827 307.645C312.024 308.007 313.179 308.452 314.309 308.974C315.186 309.377 315.954 308.096 315.071 307.693C314.086 307.242 313.088 306.827 312.06 306.483C311.026 306.133 309.787 306.02 308.819 305.528C307.961 305.083 307.199 306.358 308.057 306.803Z" fill="#333333"/>
<path d="M232.953 301.429C232.971 304.561 233.189 307.693 233.34 310.824C233.388 311.773 234.9 311.779 234.852 310.824C234.701 307.699 234.483 304.561 234.465 301.429C234.459 300.48 232.947 300.474 232.953 301.429Z" fill="#333333"/>
<path d="M258.826 183.572C258.826 183.572 246.588 184.04 237.681 185.132C228.781 186.223 222.105 188.72 222.105 188.72L222.583 248.912L248.813 255.775C248.813 255.775 264.389 240.65 271.542 239.867C278.695 239.09 282.988 239.09 282.988 239.09C282.988 239.09 286.483 243.455 287.916 246.261C289.349 249.066 289.506 251.249 289.506 251.249L282.831 258.889C282.831 258.889 282.831 263.723 287.916 264.968C293.001 266.214 301.587 264.191 301.587 264.191C301.587 264.191 304.175 270.265 311.691 273.338C326.886 279.536 353.612 270.491 358.782 250.484C363.891 230.709 338.622 211.491 334.97 208.525C331.318 205.559 310.331 191.217 292.366 186.383C274.402 181.549 276.47 182.955 276.47 182.955C276.47 182.955 273.61 186.852 268.525 186.075C263.44 185.298 258.826 183.572 258.826 183.572Z" fill="#FFECDD"/>
<path d="M195.368 345.653L153.599 462.485C153.599 462.485 166.29 468.713 169.997 473.642C173.697 478.571 177.93 482.723 177.93 482.723L185.863 465.344L247.477 412.94L253.826 365.464L195.368 345.653Z" fill="#F8BAB4"/>
<path d="M273.271 396.783L295.674 379.255C295.674 379.255 276.107 371.467 276.107 372.577C276.107 373.692 273.271 396.783 273.271 396.783Z" fill="#F8BAB4"/>
<path d="M234.011 135.172C232.391 149.425 241.521 164.39 252.387 173.287C256.492 176.65 262.049 172.901 265.163 169.799C269.619 165.369 272.63 159.431 274.336 153.482C274.602 152.563 273.138 152.171 272.878 153.09C271.385 158.316 268.851 163.465 265.205 167.581C263.416 169.598 261.305 171.425 258.766 172.457C256.867 173.228 255.271 173.483 253.457 172.243C252.23 171.401 251.123 170.096 250.083 169.034C241.346 160.119 234.072 147.954 235.523 135.172C235.632 134.223 234.12 134.228 234.011 135.172Z" fill="#333333"/>
<path d="M270.363 159.804C270.193 163.63 271.391 167.569 272.425 171.217C273.549 175.191 274.88 179.099 276.155 183.032C276.446 183.939 277.909 183.554 277.613 182.64C276.421 178.963 275.182 175.309 274.106 171.596C273.017 167.836 271.705 163.761 271.874 159.81C271.917 158.85 270.405 158.85 270.363 159.804Z" fill="#333333"/>
<path d="M254.896 140.225C255.186 141.459 255.543 143.072 256.547 143.956C257.266 144.591 258.343 143.547 257.617 142.906C256.825 142.206 256.583 140.8 256.353 139.827C256.136 138.902 254.678 139.294 254.896 140.225Z" fill="#333333"/>
<path d="M241.629 143.048C241.714 144.561 242.391 145.919 243.341 147.088C243.945 147.835 245.01 146.779 244.411 146.038C243.728 145.195 243.202 144.14 243.147 143.048C243.093 142.099 241.575 142.093 241.629 143.048Z" fill="#333333"/>
<path d="M252.816 163.126C255.386 163.618 257.962 162.527 259.304 160.303C259.8 159.478 258.494 158.731 257.998 159.556C257.019 161.181 255.12 162.058 253.215 161.697C252.266 161.513 251.861 162.942 252.816 163.126Z" fill="#333333"/>
<path d="M246.975 121.499C247.537 127.028 250.349 131.992 254.781 135.456C256.867 137.087 259.268 138.339 261.838 139.068C264.679 139.881 270.78 138.837 272.57 141.334C273.411 142.508 273.09 144.614 273.096 145.984C273.108 148.042 272.897 150.13 273.018 152.189C273.163 154.792 274.305 156.833 275.938 158.849C278.326 161.791 280.4 164.306 281.38 168.055C282.48 172.272 282.184 176.584 280.781 180.683C280.485 181.549 281.682 181.863 282.16 181.252C287.166 174.876 286.538 166.187 284.053 158.944C283.744 158.043 282.281 158.428 282.595 159.336C284.966 166.246 285.637 174.413 280.854 180.505C281.313 180.695 281.773 180.885 282.233 181.074C284.306 175.03 284.101 167.782 280.582 162.254C278.786 159.431 275.648 157.224 274.771 153.903C273.846 150.415 274.965 146.542 274.535 142.971C273.804 136.82 266.626 138.896 262.237 137.639C254.866 135.533 249.249 128.985 248.487 121.499C248.39 120.562 246.878 120.55 246.975 121.499Z" fill="#333333"/>
<path d="M284.112 158.957C282.595 152.847 288.236 145.996 291.247 141.115C294.494 135.848 297.04 131.12 296.883 124.833C296.701 117.472 294.446 109.999 289.73 104.192C286.156 99.7907 279.317 95.7633 273.47 95.6981C272.497 95.6862 272.497 97.1691 273.47 97.1809C280.327 97.2521 287.341 102.656 290.697 108.172C294.452 114.346 296.84 123.463 294.887 130.587C293.327 136.269 289.234 141.245 286.313 146.299C284.088 150.148 281.518 154.787 282.649 159.348C282.885 160.279 284.342 159.882 284.112 158.957Z" fill="#333333"/>
<path d="M239.707 156.002C233.437 155.214 233.902 148.92 230.921 144.697C229.337 142.455 227.015 140.943 225.818 138.416C224.476 135.581 224.24 132.318 224.452 129.24C224.875 123.16 227.227 116.997 231.266 112.341C234.864 108.195 239.749 105.508 244.593 103.011C245.451 102.566 244.689 101.285 243.831 101.73C238.328 104.565 232.923 107.691 229.101 112.632C225.141 117.757 222.94 124.412 222.879 130.835C222.849 133.671 223.266 136.589 224.518 139.169C226.066 142.36 229.222 144.264 230.812 147.443C231.986 149.78 232.348 152.627 233.951 154.745C235.359 156.613 237.446 157.201 239.707 157.485C240.668 157.61 240.662 156.127 239.707 156.002Z" fill="#333333"/>
<path d="M244.61 101.617C241.363 99.4344 237.832 97.1745 237.113 93.0759C236.472 89.428 238.002 85.8098 240.329 83.0042C244.623 77.8379 251.491 74.7713 258.1 73.7749C264.262 72.8436 272.152 72.464 275.756 78.4726C277.298 81.0409 278.247 83.7338 278.012 86.7648C277.733 90.3533 275.43 93.0521 272.872 95.4247C272.165 96.0831 273.235 97.127 273.942 96.4746C279.402 91.4091 281.246 85.0862 277.443 78.3836C273.549 71.5268 265.816 71.2481 258.608 72.2208C250.476 73.3122 241.557 77.3515 237.379 84.6354C235.662 87.6248 234.888 91.1896 235.891 94.5409C237.064 98.4379 240.608 100.722 243.849 102.898C244.653 103.438 245.409 102.157 244.61 101.617Z" fill="#333333"/>
<path d="M288.98 250.62C285.969 252.857 283.744 255.721 281.489 258.657C278.411 262.661 275.213 266.576 271.881 270.378C270.436 272.027 268.966 273.658 267.473 275.265C266.028 276.825 264.026 279.785 262.158 280.811C261.898 281.072 261.644 281.327 261.384 281.588C260.181 281.321 259.951 280.604 260.683 279.453C261.021 278.29 261.699 277.092 262.219 275.989C263.271 273.753 264.329 271.517 265.381 269.275C265.719 268.551 264.831 267.733 264.196 268.379C259.619 272.982 255.864 279.198 250.337 282.775C249.2 283.51 247.61 284.596 248.015 282.478C248.324 280.859 249.775 279.127 250.682 277.816C253.415 273.86 256.341 270.046 259.419 266.351C260.042 265.603 259.117 264.719 258.349 265.301C255.434 267.525 252.52 269.743 249.714 272.098C248.457 273.154 247.217 274.239 246.014 275.354C245.343 275.977 244.684 276.606 244.037 277.247C243.003 278.279 242.985 279.115 241.479 278.166C240.028 277.258 240.645 277.193 241.539 275.918C241.969 275.313 242.398 274.708 242.839 274.109C244.115 272.359 245.421 270.633 246.77 268.937C249.079 266.024 251.51 263.207 254.019 260.455C254.672 259.737 253.681 258.776 252.949 259.405C250.452 261.546 247.955 263.687 245.458 265.823C244.285 266.831 243.105 267.839 241.932 268.842C241.261 269.417 240.487 270.313 239.731 270.728C239.435 270.977 239.145 271.232 238.849 271.481C238.045 270.989 237.24 270.503 236.436 270.01C236.14 269.061 239.012 266.262 239.538 265.651C240.572 264.447 241.654 263.284 242.767 262.151C244.883 260.01 247.12 257.987 249.418 256.036C254.116 252.044 258.947 248.117 263.887 244.422C269.148 240.484 276.609 239.042 283.121 239.932C284.071 240.062 284.482 238.633 283.52 238.503C276.494 237.542 268.658 238.995 262.962 243.248C256.021 248.432 249.013 253.942 242.821 259.986C241.007 261.76 230.637 270.959 236.478 273.516C238.776 274.524 241.134 271.487 242.555 270.271C246.377 266.997 250.192 263.723 254.013 260.455C253.657 260.105 253.3 259.755 252.943 259.405C249.388 263.302 246.014 267.347 242.851 271.564C241.455 273.427 236.515 278.19 239.115 280.794C241.582 283.261 244.829 278.528 246.28 277.146C250.379 273.231 254.902 269.785 259.413 266.345C259.056 265.995 258.699 265.645 258.343 265.295C256.819 267.128 242.229 284.37 247.64 285.29C250.398 285.758 253.723 282.004 255.319 280.361C258.766 276.831 261.777 272.917 265.254 269.417C264.861 269.121 264.462 268.818 264.069 268.521C262.787 271.238 261.487 273.949 260.229 276.671C259.473 278.296 258.542 280.147 259.002 281.986C260.09 286.369 264.861 280.2 265.907 279.103C270.085 274.744 274.094 270.224 277.915 265.562C281.682 260.965 284.911 255.484 289.748 251.896C290.51 251.332 289.76 250.045 288.98 250.62Z" fill="#333333"/>
<path d="M276.887 183.744C302.21 188.429 326.003 199.005 343.732 217.713C347.457 221.64 350.873 225.839 353.999 230.24C357.458 235.11 358.51 240.158 358.141 246.089C357.742 252.548 355.553 257.347 351.326 262.252C347.844 266.291 343.732 269.702 338.659 271.63C326.572 276.221 310.391 276.624 302.875 264.53C302.368 263.717 301.062 264.459 301.569 265.277C308.444 276.345 320.761 277.099 332.558 274.833C337.782 273.83 342.686 271.944 346.87 268.67C351.224 265.259 355.843 260.366 357.832 255.188C359.864 249.903 360.233 243.687 359.247 238.153C358.262 232.625 354.616 228.318 351.169 224C343.466 214.338 334.178 205.951 323.609 199.385C309.533 190.636 293.6 185.333 277.287 182.314C276.337 182.136 275.932 183.566 276.887 183.744Z" fill="#333333"/>
<path d="M307.03 261.042C302.585 263.527 297.802 264.761 292.693 264.755C292.947 265.004 293.195 265.247 293.449 265.496C293.334 255.549 289.996 246.041 283.793 238.164C283.641 238.526 283.49 238.888 283.339 239.256C286.683 237.903 290.468 236.824 294.114 237.198C298.014 237.595 300.777 240.353 302.839 243.42C306.618 249.037 308.009 254.909 306.757 261.546C306.582 262.477 308.039 262.881 308.215 261.938C309.648 254.351 307.87 247.37 303.099 241.201C301.17 238.704 298.613 236.521 295.414 235.851C291.339 234.997 286.665 236.32 282.934 237.826C282.541 237.986 282.148 238.491 282.48 238.918C288.521 246.593 291.816 255.799 291.931 265.502C291.937 265.906 292.276 266.244 292.687 266.244C298.05 266.244 303.129 264.927 307.791 262.323C308.638 261.849 307.876 260.567 307.03 261.042Z" fill="#333333"/>
<path d="M298.927 235.632C308.976 227.316 323.01 224.861 335.399 229.131C336.318 229.446 336.711 228.016 335.798 227.702C322.883 223.247 308.305 225.934 297.856 234.582C297.113 235.199 298.189 236.243 298.927 235.632Z" fill="#333333"/>
<path d="M222.021 195.031C222.075 231.26 221.555 267.507 219.209 303.665C219.149 304.555 219.361 306.4 218.974 307.2C218.411 308.357 219.868 307.301 218.992 307.693C218.732 307.811 218.151 307.669 217.873 307.645C216.501 307.544 215.134 307.277 213.786 307.016C209.946 306.269 206.149 305.314 202.364 304.335C192.278 301.726 182.277 298.819 172.27 295.931C164.21 293.605 156.132 290.913 147.903 289.234C146.953 289.038 146.548 290.468 147.504 290.663C156.821 292.567 165.964 295.658 175.082 298.285C186.54 301.583 198.01 305.006 209.65 307.651C212.788 308.363 216.585 309.591 219.856 309.092C220.195 309.039 220.388 308.677 220.413 308.375C223.013 270.645 223.599 232.826 223.545 195.019C223.533 194.076 222.021 194.076 222.021 195.031Z" fill="#333333"/>
<path d="M73.8329 212.695C74.5464 201.324 75.1692 189.948 75.9794 178.583C76.3604 173.221 76.7776 167.865 77.3036 162.521C77.5213 160.285 77.7511 158.049 78.0413 155.818C78.2408 154.247 78.5613 153.072 80.4599 152.758C80.5869 152.74 80.7199 152.805 80.8469 152.799C83.3804 152.639 86.5851 153.831 89.0399 154.336C94.1069 155.368 99.1558 156.465 104.205 157.574C133.022 163.897 161.786 170.6 190.325 178.061C196.753 179.74 203.168 181.46 209.529 183.352C211.839 184.04 214.149 184.746 216.428 185.517C217.305 185.814 218.272 186.057 219.101 186.466C221.973 187.902 221.822 192.16 222.052 194.913C222.13 195.856 223.642 195.868 223.563 194.913C223.285 191.549 223.382 186.698 219.736 185.126C218.085 184.414 216.313 183.904 214.602 183.358C209.305 181.668 203.942 180.179 198.579 178.726C183.463 174.633 168.243 170.908 153.006 167.266C137.775 163.624 122.507 160.101 107.216 156.72C98.6842 154.834 90.0074 152.449 81.3125 151.382C78.7306 151.067 77.1948 151.702 76.7171 154.389C75.7013 160.125 75.4352 166.086 74.9757 171.887C73.8994 185.482 73.1738 199.094 72.3273 212.707C72.2608 213.65 73.7725 213.644 73.8329 212.695Z" fill="#333333"/>
<path d="M153.834 240.75C151.052 261.605 148.259 282.466 144.032 303.095C143.899 303.754 144.534 304.217 145.145 303.932C150.732 301.346 155.327 297.093 160.6 293.985C161.434 293.493 160.672 292.211 159.838 292.704C154.565 295.806 149.97 300.059 144.383 302.651C144.752 302.929 145.121 303.208 145.496 303.487C149.752 282.727 152.552 261.736 155.352 240.75C155.472 239.807 153.961 239.813 153.834 240.75Z" fill="#333333"/>
<path d="M154.886 239.594C145.006 237.418 135.223 234.849 125.446 232.281C125.053 232.18 124.623 232.411 124.515 232.797C119.756 250.022 114.997 267.253 110.239 284.477C109.689 286.465 107.923 289.81 109.543 291.69C110.317 292.592 111.605 292.853 112.688 293.226C114.901 293.991 117.126 294.721 119.345 295.462C127.725 298.262 136.124 301.026 144.492 303.861C145.412 304.176 145.811 302.74 144.892 302.432C137.605 299.97 130.307 297.556 123.015 295.124C121.189 294.519 119.369 293.908 117.543 293.298C116.183 292.841 113.02 292.378 111.95 291.417C109.767 289.46 111.206 286.607 111.847 284.305C112.367 282.413 112.893 280.521 113.413 278.623C117.597 263.48 121.782 248.331 125.966 233.188C125.657 233.36 125.343 233.532 125.035 233.704C134.812 236.273 144.595 238.835 154.475 241.018C155.431 241.231 155.836 239.802 154.886 239.594Z" fill="#333333"/>
<path d="M134.769 194.206L134.769 194.206C135.685 192.254 137.658 190.717 139.665 190.277C140.661 190.059 141.643 190.116 142.503 190.5C143.357 190.882 144.132 191.605 144.693 192.795L144.921 193.277L145.387 193.02C147.843 191.665 150.236 191.264 152.766 192.283C152.909 192.387 153.063 192.475 153.223 192.566C153.765 192.877 154.365 193.219 154.75 194.316C155.271 195.801 155.317 198.673 153.485 204.46C152.967 206.096 151.266 207.875 148.925 209.11C146.611 210.329 143.763 210.967 141.023 210.432C139.869 209.959 138.778 208.985 137.815 207.678C136.845 206.359 136.027 204.735 135.423 203.037C134.818 201.341 134.432 199.588 134.312 198.022C134.192 196.443 134.346 195.107 134.769 194.206Z" stroke="#333333"/>
<path d="M18.7058 275.882C51.9738 287.739 85.5381 298.784 119.127 309.715C155.932 321.691 192.822 333.417 229.754 345.013C256.528 353.424 283.32 361.764 310.143 370.038C315.627 371.728 321.111 373.709 326.674 375.121C327.786 375.406 328.065 375.299 329.062 374.635C332.346 372.47 335.58 370.222 338.84 368.021C369.018 347.653 399.257 327.343 429.882 307.616C433.365 305.374 436.854 303.143 440.355 300.925C440.01 300.836 439.665 300.747 439.321 300.658C439.732 301.601 439.43 304.134 439.466 305.356C439.52 307.331 439.097 309.947 439.611 311.857C439.811 312.61 439.188 312.812 439.98 312.035C439.913 312.1 439.805 312.165 439.726 312.218C439.194 312.556 438.686 312.954 438.172 313.316C432.791 317.118 427.403 320.914 422.01 324.704C402.123 338.673 382.181 352.57 362.107 366.283C351.126 373.787 340.115 381.242 328.966 388.502C329.346 388.716 329.721 388.929 330.102 389.143C329.492 384.214 328.875 379.291 328.264 374.362C328.149 373.425 326.638 373.413 326.753 374.362C327.363 379.291 327.98 384.214 328.591 389.143C328.657 389.653 329.201 390.128 329.727 389.784C351.162 375.827 372.186 361.247 393.18 346.662C408.532 335.997 423.842 325.267 439.103 314.478C440.331 313.612 441.074 313.387 441.123 311.857C441.201 309.514 441.032 307.129 440.965 304.786C440.923 303.333 441.232 301.281 440.633 299.905C440.476 299.549 439.907 299.442 439.599 299.638C408.151 319.538 377.283 340.333 346.428 361.105C341.657 364.314 336.893 367.529 332.134 370.75C330.87 371.604 329.51 372.399 328.306 373.342C327.647 373.858 327.013 373.846 327.865 373.917C326.728 373.822 325.41 373.164 324.328 372.832C321.45 371.948 318.578 371.064 315.699 370.18C290.727 362.493 265.779 354.735 240.849 346.923C204.727 335.606 168.642 324.17 132.635 312.521C98.1633 301.37 63.7282 290.088 29.5411 278.119C26.0583 276.903 22.5816 275.669 19.1048 274.435C18.1918 274.127 17.7988 275.556 18.7058 275.882Z" fill="#333333"/>
<path d="M258.826 182.979C253.246 183.014 247.646 183.519 242.102 184.1C235.892 184.752 229.779 186.449 223.66 187.629C222.705 187.813 223.11 189.243 224.059 189.059C230.22 187.872 236.376 186.164 242.622 185.529C247.997 184.984 253.421 184.497 258.826 184.462C259.8 184.456 259.8 182.973 258.826 182.979Z" fill="#333333"/>
<path d="M335.17 274.583C369.599 283.83 403.949 293.439 438.807 301.043C439.757 301.251 440.162 299.821 439.206 299.614C404.348 292.01 369.998 282.401 335.569 273.154C334.632 272.899 334.227 274.334 335.17 274.583Z" fill="#333333"/>
<path d="M194.364 345.571C183.426 385.614 165.238 423.314 153.314 463.048C153.036 463.968 154.499 464.359 154.771 463.44C166.695 423.699 184.883 386.005 195.821 345.962C196.075 345.043 194.618 344.652 194.364 345.571Z" fill="#333333"/>
<path d="M237.736 359.652C228.684 374.362 220.86 389.813 213.193 405.253C204.431 422.893 196.051 440.716 187.936 458.653C184.302 466.684 180.729 474.739 177.258 482.835C176.883 483.713 178.347 484.099 178.715 483.227C193.185 449.501 208.748 416.077 225.951 383.603C230.105 375.756 234.38 367.968 239.042 360.393C239.543 359.581 238.237 358.833 237.736 359.652Z" fill="#333333"/>
<path d="M153.665 463.979C162.172 468.47 172.536 474.098 176.877 482.99C177.295 483.85 178.601 483.096 178.183 482.242C173.733 473.132 163.134 467.295 154.427 462.704C153.568 462.247 152.806 463.529 153.665 463.979Z" fill="#333333"/>
<path d="M155.588 464.739C155.001 463.843 154.65 463.647 154.529 464.145C154.475 464.276 154.421 464.4 154.354 464.531C154.191 464.721 154.046 465.118 153.931 465.338C153.465 466.192 152.969 467.034 152.468 467.864C151.367 469.703 150.224 471.518 149.021 473.298C148.483 474.092 149.789 474.84 150.327 474.045C151.742 471.957 153.084 469.81 154.354 467.633C154.904 466.696 156.253 465.059 156.035 463.884C155.987 463.629 155.745 463.44 155.509 463.368C155.261 463.291 155.049 463.357 154.826 463.463C153.949 463.873 154.717 465.154 155.588 464.739Z" fill="#333333"/>
<path d="M164.186 486.074C162.263 484.455 160.171 483.162 157.643 482.705C156.18 482.438 153.562 483.061 153.26 481.465C153.048 480.356 153.483 479.146 153.163 477.972C152.945 477.165 152.57 476.424 152.074 475.748C151.028 474.33 149.48 473.452 147.89 472.729C147.013 472.331 146.246 473.606 147.128 474.01C149.42 475.054 151.397 476.394 151.796 479.022C151.99 480.285 151.137 482.237 152.129 483.316C152.74 483.98 153.767 483.915 154.59 483.951C157.958 484.117 160.485 484.906 163.115 487.118C163.853 487.741 164.923 486.697 164.186 486.074Z" fill="#333333"/>
<path d="M163.225 486.602C158.085 492.664 153.762 499.361 148.459 505.292C147.818 506.01 148.882 507.06 149.529 506.342C154.832 500.411 159.155 493.714 164.295 487.652C164.912 486.922 163.847 485.867 163.225 486.602Z" fill="#333333"/>
<path d="M146.771 472.752C145.538 474.217 144.292 475.671 143.053 477.13C142.116 478.233 141.801 478.963 140.271 479.058C138.506 479.17 136.801 477.693 135.319 476.821C130.403 473.945 125.276 471.655 119.858 469.84C115.172 468.268 109.99 466.999 105.026 467.954C102.583 468.423 99.3483 469.176 99.4753 472.1C99.5962 474.799 101.664 477.587 103.152 479.716C105.504 483.079 108.207 486.229 111.03 489.218C116.212 494.705 121.968 500.262 127.967 504.883C134.569 509.972 142.732 513.033 149.468 506.461C150.157 505.784 149.087 504.74 148.398 505.411C141.686 511.959 133.656 507.676 127.549 502.653C122.628 498.601 117.851 494.058 113.394 489.515C110.667 486.733 108.074 483.809 105.727 480.706C103.998 478.423 101.803 475.683 101.144 472.847C100.08 468.256 109.845 468.998 112.621 469.466C117.252 470.243 121.678 471.981 125.995 473.743C129.158 475.03 132.096 476.655 135.029 478.381C136.625 479.318 138.85 481.353 140.894 480.997C142.224 480.76 143.089 479.384 143.887 478.447C145.199 476.898 146.524 475.356 147.836 473.802C148.458 473.073 147.394 472.017 146.771 472.752Z" fill="#333333"/>
<path d="M101.901 470.884C103.727 470.249 106.992 472.687 108.425 473.541C112.313 475.855 115.989 478.512 119.575 481.246C127.181 487.041 134.751 493.287 141.064 500.452C141.856 501.354 146.433 506.069 145.103 507.534C144.456 508.246 145.526 509.296 146.173 508.584C147.715 506.882 145.901 504.278 144.867 502.807C142.291 499.13 138.96 495.927 135.683 492.86C127.798 485.469 119.188 478.393 109.924 472.717C107.977 471.525 104.041 468.577 101.495 469.46C100.588 469.769 100.981 471.204 101.901 470.884Z" fill="#333333"/>
<path d="M246.872 412.703C230.317 427.312 213.568 441.743 196.656 455.954C192.913 459.098 189.17 462.248 185.318 465.267C184.557 465.86 185.633 466.904 186.389 466.317C204.202 452.384 221.072 437.17 238.111 422.347C241.394 419.494 244.677 416.635 247.942 413.758C248.662 413.112 247.592 412.062 246.872 412.703Z" fill="#333333"/>
<path d="M158.538 446.238C150.515 452.52 143.99 460.527 136.323 467.206C135.592 467.84 136.668 468.884 137.394 468.256C145.061 461.577 151.585 453.569 159.609 447.288C160.364 446.695 159.294 445.651 158.538 446.238Z" fill="#333333"/>
<path d="M141.777 463.653C144.704 466.079 146.838 470.118 147.727 473.731C147.957 474.656 149.414 474.264 149.184 473.339C148.235 469.478 145.967 465.195 142.847 462.603C142.11 461.992 141.033 463.036 141.777 463.653Z" fill="#333333"/>
<path d="M83.0234 396.972C104.295 384.908 125.887 373.395 147.395 361.746C149.493 360.607 151.93 359.616 153.865 358.211C154.638 357.647 153.883 356.36 153.103 356.929C151.561 358.05 149.62 358.845 147.945 359.753C143.646 362.084 139.341 364.409 135.042 366.74C123.299 373.092 111.569 379.463 99.869 385.892C93.9857 389.131 88.1085 392.375 82.2675 395.691C81.415 396.172 82.1769 397.453 83.0234 396.972Z" fill="#333333"/>
<path d="M135.736 326.46C138.814 334.099 143.434 341.353 147.388 348.572C152.902 358.632 158.483 368.656 164.064 378.674C165.002 380.358 165.939 382.037 166.876 383.722C167.118 384.16 167.928 385.614 167.91 385.566C168.152 385.252 168.394 384.943 168.642 384.629C165.376 384.445 161.277 382.725 157.933 381.841C156.996 381.592 156.591 383.022 157.534 383.271C161.053 384.202 165.002 385.904 168.642 386.112C169.119 386.142 169.518 385.614 169.373 385.175C168.787 383.389 167.438 381.634 166.531 380.003C164.155 375.738 161.779 371.473 159.409 367.203C153.652 356.84 147.89 346.478 142.297 336.033C140.549 332.771 138.584 329.496 137.2 326.062C136.843 325.19 135.38 325.57 135.736 326.46Z" fill="#333333"/>
<path d="M87.8424 358.37C105.166 350.244 121.957 341.068 139.28 332.936C140.157 332.527 139.389 331.246 138.519 331.655C121.195 339.781 104.404 348.957 87.0805 357.089C86.1977 357.504 86.9656 358.786 87.8424 358.37Z" fill="#333333"/>
<path d="M91.6883 312.265C87.6552 345.345 83.6222 378.419 79.5892 411.498C78.2227 422.709 76.8561 433.919 75.4896 445.129C75.3747 446.073 76.8864 446.067 77.0013 445.129C81.9171 404.754 86.845 364.379 91.7669 324.004C92.2445 320.095 92.7222 316.18 93.1999 312.271C93.3148 311.322 91.8032 311.328 91.6883 312.265Z" fill="#333333"/>
<path d="M69.0617 305.563C67.1027 321.4 65.1436 337.231 63.1845 353.068C60.0584 378.318 56.9323 403.568 53.8123 428.824C53.0928 434.637 52.3732 440.45 51.6537 446.262C51.5388 447.206 53.0504 447.2 53.1653 446.262C55.1244 430.426 57.0835 414.595 59.0426 398.758C62.1687 373.508 65.2947 348.258 68.4148 323.002C69.1343 317.189 69.8538 311.376 70.5734 305.563C70.6943 304.62 69.1827 304.626 69.0617 305.563Z" fill="#333333"/>
<path d="M79.8973 308.813C77.8173 325.178 75.7373 341.537 73.6513 357.902C70.3136 384.143 66.9699 410.389 63.6201 436.63C62.8522 442.626 62.2778 449.62 61.2378 455.171C61.0927 455.931 61.9029 456.358 62.5015 455.895C67.115 452.312 72.0731 449.187 76.6866 445.61C77.4485 445.017 76.3722 443.973 75.6164 444.56C71.0029 448.143 66.0448 451.269 61.4313 454.845C61.8545 455.088 62.2717 455.326 62.695 455.569C63.602 450.747 63.9648 445.77 64.5876 440.912C66.081 429.251 67.5624 417.596 69.0499 405.935C72.4057 379.587 75.7615 353.24 79.1112 326.898C79.8791 320.872 80.6471 314.846 81.4089 308.819C81.5299 307.87 80.0182 307.882 79.8973 308.813Z" fill="#333333"/>
<path d="M54.0661 262.359C55.1666 265.283 57.694 267.626 59.508 270.123C61.074 272.276 61.2071 272.852 63.6559 273.486C68.602 274.767 73.5904 275.888 78.5727 277.015C81.5658 277.692 85.0485 279.026 88.1444 279.062C91.0225 279.097 94.3663 277.359 96.9723 276.316C100.346 274.969 103.678 273.445 107.209 272.531C106.925 272.169 106.641 271.808 106.357 271.44C104.349 275.675 102.245 279.874 100.11 284.044C99.2277 285.77 99.0402 286.251 97.2444 287.034C93.9793 288.463 90.6114 289.721 87.2253 290.848C87.5458 291.085 87.8602 291.322 88.1806 291.565C88.2774 287.111 88.3741 282.65 88.4709 278.196C88.489 277.241 86.9774 277.241 86.9593 278.196C86.8625 282.65 86.7658 287.111 86.669 291.565C86.6569 292.028 87.1648 292.437 87.6244 292.283C91.1374 291.114 94.6142 289.798 98.0063 288.321C99.4877 287.674 100.092 287.336 100.818 285.96C103.212 281.434 105.474 276.82 107.663 272.193C107.935 271.624 107.487 270.93 106.81 271.102C100.77 272.662 95.1886 276.517 88.9909 277.413C86.0825 277.834 82.4425 276.363 79.6006 275.722C75.0355 274.69 70.4764 273.646 65.9354 272.525C65.0647 272.312 64.1034 272.169 63.2689 271.843C62.2168 271.434 62.0717 271.167 61.3885 270.165C59.5382 267.46 56.6903 265.04 55.5233 261.955C55.1908 261.078 53.7275 261.457 54.0661 262.359Z" fill="#333333"/>
<path d="M53.6425 262.442C55.0635 267.074 56.7323 271.612 58.4375 276.143C58.8003 277.11 59.1691 278.077 59.5258 279.05C59.9128 280.1 60.2635 282.336 61.0133 283.149C61.7147 283.908 62.7184 284.044 63.7463 284.382C71.498 286.951 79.1046 290.201 87.0558 292.147C87.999 292.378 88.4042 290.948 87.4549 290.717C80.2776 288.961 73.3845 286.102 66.4129 283.718C64.2603 282.982 62.6579 282.834 61.7147 280.663C60.8863 278.759 60.2575 276.743 59.5258 274.797C57.9416 270.58 56.4058 266.351 55.0877 262.044C54.8216 261.137 53.3644 261.522 53.6425 262.442Z" fill="#333333"/>
<path d="M55.4387 262.359C59.1936 252.133 62.096 241.581 65.1193 231.13C66.3528 226.871 67.5681 222.612 68.7653 218.348C68.977 217.594 69.0858 216.568 69.4607 215.868C69.11 216.527 69.4244 216.034 69.9988 215.696C71.2384 214.961 72.4235 214.119 73.6268 213.33C80.1268 209.089 86.1492 204.527 93.7135 202.333C94.4693 202.113 95.5395 201.585 96.3316 201.615C95.6847 201.591 96.0172 201.609 96.4103 201.888C97.0391 202.339 97.6921 202.742 98.2968 203.222C101.435 205.714 101.719 210.512 102.777 214.172C103.279 215.916 103.321 218.01 103.455 220.133C103.751 224.943 104.041 229.754 104.319 234.564C105.021 246.67 105.825 258.8 106.055 270.924C106.073 271.879 107.584 271.879 107.566 270.924C107.348 259.47 106.605 248.017 105.946 236.581C105.643 231.308 105.329 226.029 105.002 220.756C104.875 218.692 104.918 216.544 104.452 214.528C104.089 212.956 103.557 211.408 103.128 209.854C102.62 208.009 102.421 205.761 101.344 204.13C100.516 202.878 98.0549 200.53 96.4949 200.197C94.9228 199.859 92.4014 201.146 90.9381 201.633C87.2497 202.849 84.2325 204.628 80.9975 206.74C77.5873 208.97 74.171 211.194 70.7546 213.425C69.8416 214.018 68.5416 214.563 67.9914 215.506C67.55 216.26 67.4472 217.452 67.2114 218.282C66.6248 220.364 66.0323 222.446 65.4397 224.528C61.8662 237.049 58.4741 249.725 53.9754 261.961C53.655 262.863 55.1122 263.249 55.4387 262.359Z" fill="#333333"/>
<path d="M90.702 220.857C90.829 239.784 89.0754 258.836 87.461 277.68C87.3824 278.629 88.894 278.623 88.9726 277.68C90.5871 258.83 92.3406 239.784 92.2136 220.857C92.2076 219.902 90.6959 219.896 90.702 220.857Z" fill="#333333"/>
<path d="M249.533 145.332C249.829 147.325 250.125 149.324 250.422 151.317C250.537 151.038 250.652 150.759 250.766 150.48C248.723 151.844 247.272 154.508 249.049 156.72C250.494 158.505 253.306 158.197 254.261 156.121C254.66 155.261 253.354 154.502 252.955 155.374C252.617 155.706 252.284 156.038 251.945 156.37C250.168 156.103 249.509 155.35 249.956 154.098C250.077 152.96 250.555 152.408 251.528 151.755C251.837 151.548 251.927 151.269 251.873 150.919C251.577 148.926 251.28 146.927 250.984 144.935C250.851 143.997 249.394 144.395 249.533 145.332Z" fill="#333333"/>
<path d="M263.851 147.52C264.92 146.376 265.167 144.89 264.401 144.201C263.636 143.513 262.148 143.883 261.078 145.028C260.009 146.172 259.762 147.658 260.528 148.347C261.294 149.035 262.781 148.665 263.851 147.52Z" fill="#F8BAB4"/>
<path d="M243.484 151.516C244.003 150.634 243.313 149.289 241.942 148.513C240.572 147.736 239.04 147.822 238.52 148.705C238.001 149.587 238.691 150.931 240.062 151.708C241.433 152.484 242.965 152.398 243.484 151.516Z" fill="#F8BAB4"/>
<path d="M255.421 174.704C256.703 177.741 257.689 180.849 258.463 184.046C258.687 184.971 260.144 184.58 259.92 183.655C259.146 180.458 258.161 177.35 256.879 174.313C256.516 173.441 255.053 173.821 255.421 174.704Z" fill="#333333"/>
<path d="M246.643 121.428C244.399 124.554 241.479 127.01 238.365 129.27C236.267 130.794 234.544 132.354 234.048 134.988C233.872 135.919 235.33 136.322 235.505 135.379C236.158 131.927 239.55 130.349 242.09 128.291C244.315 126.488 246.286 124.489 247.949 122.17C248.511 121.399 247.199 120.657 246.643 121.428Z" fill="#333333"/>
<path d="M243.353 103.438C254.309 105.722 264.988 102.193 274.015 96.1071C274.813 95.5673 274.057 94.2862 273.253 94.8259C264.57 100.674 254.328 104.209 243.758 102.009C242.809 101.807 242.398 103.237 243.353 103.438Z" fill="#333333"/>
<path d="M251.504 123.54C254.696 130.468 261.692 134.46 269.414 133.831C270.375 133.754 270.387 132.271 269.414 132.348C262.182 132.941 255.797 129.276 252.81 122.793C252.405 121.927 251.105 122.68 251.504 123.54Z" fill="#333333"/>
<path d="M273.078 96.5341C281.718 94.0548 289.561 98.8058 296.133 103.824C296.889 104.405 297.972 103.361 297.204 102.774C290.19 97.412 281.882 92.4593 272.679 95.0987C271.742 95.3716 272.141 96.807 273.078 96.5341Z" fill="#333333"/>
<path d="M272.649 96.8542C278.212 95.0214 282.239 89.0723 284.391 84.0128C284.766 83.1349 283.303 82.7494 282.934 83.6213C281.005 88.147 277.232 93.7877 272.25 95.4307C271.331 95.7213 271.724 97.1567 272.649 96.8542Z" fill="#333333"/>
<path d="M231.042 136.891C229.295 129.139 236.001 125.984 241.285 122.152C245.397 119.168 247.187 115.645 247.828 110.686C247.948 109.743 246.437 109.749 246.316 110.686C245.832 114.435 244.623 117.543 241.618 120.028C239.417 121.843 236.853 123.172 234.592 124.91C230.547 128.012 228.449 132.223 229.585 137.283C229.797 138.214 231.254 137.823 231.042 136.891Z" fill="#333333"/>
<path d="M258.42 184.313C264.219 187.326 270.913 187.255 276.627 184.093C277.473 183.625 276.711 182.344 275.865 182.812C270.616 185.713 264.509 185.801 259.182 183.032C258.324 182.587 257.556 183.862 258.42 184.313Z" fill="#333333"/>
<path d="M249.212 184.604C252.749 191.129 259.267 194.984 266.698 195.447C273.767 195.886 283.653 193.151 286.694 186.176C287.075 185.31 285.769 184.551 285.388 185.428C282.558 191.912 273.265 194.397 266.698 193.964C259.805 193.507 253.789 189.895 250.518 183.857C250.058 183.008 248.758 183.756 249.212 184.604Z" fill="#333333"/>
<path d="M255.229 189.889C256.74 188.264 258.476 186.947 260.459 185.927C261.323 185.482 260.556 184.201 259.697 184.646C257.611 185.719 255.749 187.131 254.158 188.839C253.505 189.545 254.569 190.595 255.229 189.889Z" fill="#333333"/>
<path d="M261.577 193.412C262.774 191.057 264.02 188.732 265.32 186.43C265.792 185.594 264.486 184.847 264.014 185.683C262.714 187.984 261.462 190.31 260.271 192.664C259.836 193.518 261.142 194.266 261.577 193.412Z" fill="#333333"/>
<path d="M267.219 186.217C267.805 188.981 268.549 191.698 269.468 194.373C269.777 195.274 271.24 194.889 270.925 193.981C270.006 191.306 269.263 188.59 268.676 185.826C268.477 184.888 267.019 185.286 267.219 186.217Z" fill="#333333"/>
<path d="M273.133 185.648C274.868 188.098 276.827 190.369 279.016 192.439C279.717 193.104 280.788 192.054 280.086 191.39C277.988 189.403 276.108 187.244 274.439 184.895C273.888 184.124 272.576 184.859 273.133 185.648Z" fill="#333333"/>
<path d="M292.657 264.625C288.926 265.372 285.141 261.653 283.236 258.919C282.692 258.136 281.38 258.877 281.93 259.666C284.282 263.047 288.533 266.962 293.056 266.054C294.011 265.864 293.606 264.435 292.657 264.625Z" fill="#333333"/>
<path d="M248.287 254.743C240.675 252.412 232.663 251.694 225.087 249.221C224.162 248.918 223.763 250.348 224.688 250.65C232.264 253.124 240.27 253.841 247.888 256.172C248.814 256.457 249.213 255.027 248.287 254.743Z" fill="#333333"/>
<path d="M91.7786 221.616C93.6349 221.183 95.2493 220.008 96.9 219.113C99.0284 217.956 101.187 216.871 103.37 215.827C104.247 215.411 103.479 214.13 102.608 214.545C100.679 215.465 98.7684 216.42 96.8879 217.428C95.1344 218.365 93.3326 219.729 91.3735 220.186C90.4302 220.406 90.8353 221.835 91.7786 221.616Z" fill="#333333"/>
<path d="M63.0452 271.784C65.9718 254.47 69.6541 237.293 74.0862 220.287C74.3281 219.362 72.8709 218.97 72.629 219.896C68.1969 236.901 64.5145 254.079 61.588 271.393C61.4308 272.324 62.888 272.721 63.0452 271.784Z" fill="#333333"/>
<path d="M68.4876 216.592C69.7211 218.164 71.1783 219.48 72.9076 220.506C73.742 221.005 74.5039 219.724 73.6695 219.225C72.176 218.336 70.8579 217.203 69.7937 215.838C69.2132 215.097 67.8951 215.832 68.4876 216.592Z" fill="#333333"/>
<path d="M73.7421 221.165C77.2552 219.801 80.6413 218.199 83.9064 216.337C84.7469 215.857 83.985 214.575 83.1446 215.056C79.9882 216.853 76.7291 218.413 73.343 219.73C72.4421 220.079 72.8351 221.515 73.7421 221.165Z" fill="#333333"/>
<path d="M83.2165 216.361C84.6555 217.411 86.0886 218.467 87.5276 219.516C88.622 220.317 89.9522 221.729 91.2764 222.079C91.5243 222.144 91.8327 222.085 92.0141 221.889C92.0564 221.848 92.0927 221.8 92.135 221.759C92.782 221.053 91.7178 219.997 91.0648 220.709C91.0225 220.75 90.9862 220.798 90.9439 220.839C91.1918 220.774 91.4336 220.715 91.6815 220.649C90.9741 220.465 90.1457 219.594 89.5653 219.166C88.9727 218.733 88.3802 218.3 87.7937 217.867C86.5239 216.936 85.2602 216.011 83.9904 215.08C83.1983 214.51 82.4425 215.797 83.2165 216.361Z" fill="#333333"/>
<path d="M84.2867 215.667C85.617 213.383 87.1709 211.26 88.9667 209.308C89.6137 208.602 88.5495 207.547 87.8965 208.258C86.016 210.305 84.3714 212.529 82.9807 214.919C82.503 215.75 83.803 216.497 84.2867 215.667Z" fill="#333333"/>
<path d="M84.8853 206.094C85.8649 206.948 86.8384 207.802 87.8179 208.656C88.5435 209.29 89.6137 208.241 88.8881 207.606C87.9086 206.752 86.9351 205.898 85.9556 205.044C85.23 204.415 84.1598 205.459 84.8853 206.094Z" fill="#333333"/>
<path d="M88.8883 209.243C92.74 208.199 96.6098 207.214 100.48 206.224C101.423 205.981 101.024 204.551 100.081 204.794C96.2107 205.785 92.3409 206.769 88.4892 207.813C87.552 208.068 87.945 209.498 88.8883 209.243Z" fill="#333333"/>
<path d="M60.9951 271.861C61.6965 275.58 62.3979 279.299 63.0993 283.012C63.2747 283.949 64.7319 283.552 64.5566 282.621C63.8552 278.902 63.1538 275.183 62.4523 271.47C62.277 270.527 60.8197 270.924 60.9951 271.861Z" fill="#333333"/>
<path d="M112.312 279.079C109.936 278.516 107.632 277.757 105.395 276.778C104.512 276.392 103.744 277.668 104.633 278.059C106.991 279.091 109.404 279.916 111.913 280.509C112.857 280.734 113.262 279.305 112.312 279.079Z" fill="#333333"/>
<path d="M18.8389 274.927C32.3106 266.914 45.2139 258.034 58.6856 250.021C59.514 249.529 58.7582 248.242 57.9238 248.74C44.4521 256.753 31.5488 265.633 18.0771 273.646C17.2426 274.138 18.0045 275.425 18.8389 274.927Z" fill="#333333"/>
<path d="M18.7056 288.659C28.9485 292.01 39.1913 295.367 49.4281 298.718C74.0315 306.773 98.6288 314.828 123.232 322.889C153.102 332.67 182.966 342.451 212.836 352.232C238.57 360.66 264.31 369.089 290.044 377.517C298.527 380.293 307.011 383.075 315.494 385.851C319.364 387.12 323.548 389.119 327.575 389.807C327.75 389.837 327.932 389.926 328.107 389.979C329.032 390.282 329.431 388.852 328.506 388.55C318.263 385.198 308.02 381.841 297.784 378.49C273.18 370.435 248.583 362.38 223.98 354.32C194.11 344.539 164.246 334.758 134.376 324.977C108.642 316.548 82.9017 308.12 57.1677 299.691C48.6844 296.915 40.2011 294.133 31.7178 291.357C27.848 290.088 23.6638 288.089 19.6368 287.401C19.4615 287.372 19.2801 287.283 19.1047 287.229C18.1796 286.927 17.7866 288.356 18.7056 288.659Z" fill="#333333"/>
<path d="M17.0917 274.773C17.2791 279.079 17.7326 283.374 18.0047 287.674C18.0652 288.623 19.5768 288.629 19.5163 287.674C19.2442 283.368 18.7907 279.079 18.6033 274.773C18.561 273.824 17.0494 273.818 17.0917 274.773Z" fill="#333333"/>
<path d="M51.9012 446.666C54.9728 449.643 58.0444 452.621 61.116 455.598C61.8114 456.269 62.8755 455.225 62.1862 454.548C59.1146 451.571 56.043 448.593 52.9714 445.616C52.2821 444.946 51.2119 445.99 51.9012 446.666Z" fill="#333333"/>
<path d="M275.503 372.179C271.47 405.258 267.437 438.332 263.404 471.411C262.037 482.622 260.671 493.832 259.304 505.043C259.189 505.986 260.701 505.98 260.816 505.043C265.731 464.667 270.659 424.292 275.581 383.917C276.059 380.008 276.537 376.093 277.014 372.185C277.135 371.23 275.618 371.242 275.503 372.179Z" fill="#333333"/>
<path d="M252.883 365.477C250.924 381.314 248.965 397.144 247.006 412.981C243.88 438.231 240.754 463.482 237.634 488.738C236.914 494.55 236.195 500.363 235.475 506.176C235.36 507.119 236.872 507.113 236.987 506.176C238.946 490.339 240.905 474.508 242.864 458.671C245.99 433.421 249.116 408.171 252.236 382.915C252.955 377.102 253.675 371.289 254.395 365.477C254.509 364.533 252.998 364.539 252.883 365.477Z" fill="#333333"/>
<path d="M263.718 368.727C261.638 385.092 259.558 401.45 257.472 417.815C254.134 444.056 250.79 470.302 247.44 496.543C246.673 502.54 246.098 509.533 245.058 515.085C244.913 515.844 245.723 516.271 246.322 515.808C250.935 512.226 255.894 509.1 260.507 505.523C261.269 504.93 260.193 503.886 259.437 504.473C254.823 508.056 249.865 511.182 245.252 514.758C245.675 515.002 246.092 515.239 246.515 515.482C247.422 510.66 247.785 505.683 248.408 500.826C249.901 489.164 251.383 477.509 252.87 465.848C256.226 439.501 259.582 413.153 262.932 386.812C263.7 380.785 264.468 374.759 265.23 368.733C265.35 367.784 263.839 367.79 263.718 368.727Z" fill="#333333"/>
<path d="M235.723 506.573C238.794 509.551 241.866 512.528 244.938 515.506C245.633 516.176 246.697 515.132 246.008 514.456C242.936 511.478 239.865 508.501 236.793 505.523C236.098 504.853 235.027 505.903 235.723 506.573Z" fill="#333333"/>
<path d="M158.024 381.835C153.973 375.311 149.867 368.822 145.901 362.25C145.405 361.431 144.099 362.173 144.595 362.997C148.561 369.569 152.667 376.058 156.718 382.583C157.22 383.395 158.532 382.654 158.024 381.835Z" fill="#333333"/>
<path d="M129.92 329.847C128.402 327.439 127.314 324.852 125.699 322.498C125.161 321.709 123.849 322.45 124.393 323.245C126.008 325.6 127.096 328.186 128.614 330.594C129.122 331.407 130.434 330.659 129.92 329.847Z" fill="#333333"/>
<path d="M88.0232 350.624C89.5408 351.081 93.332 348.53 94.5836 347.961C99.572 345.689 104.53 343.364 109.488 341.033C118.691 336.703 128.057 332.545 137.018 327.735C137.871 327.278 137.109 325.997 136.256 326.453C127.773 331.009 118.909 334.959 110.19 339.064C105.232 341.401 100.267 343.72 95.285 346.004C93.6101 346.775 91.9292 347.54 90.2422 348.287C89.7283 348.513 89.2143 348.732 88.7004 348.957C88.2469 349.153 87.9204 349.046 88.4222 349.195C87.491 348.916 87.092 350.345 88.0232 350.624Z" fill="#333333"/>
<path d="M169.168 385.851C170.734 385.21 172.215 383.745 173.57 382.767C176.013 381.005 178.443 379.238 180.916 377.523C181.702 376.978 180.947 375.691 180.155 376.242C177.833 377.856 175.541 379.516 173.249 381.165C171.968 382.091 169.936 383.941 168.769 384.416C167.88 384.783 168.273 386.219 169.168 385.851Z" fill="#333333"/>
<path d="M155.11 333.31C154.566 333.097 155.648 334.39 155.896 334.787C156.622 335.962 157.323 337.154 158.019 338.346C160.346 342.308 162.62 346.306 164.887 350.304C170.021 359.361 175.106 368.454 180.052 377.612C180.506 378.454 181.812 377.707 181.358 376.865C176.122 367.167 170.734 357.54 165.287 347.955C163.08 344.076 160.873 340.203 158.599 336.365C157.934 335.244 156.882 332.421 155.509 331.887C154.608 331.525 154.215 332.96 155.11 333.31Z" fill="#333333"/>
<path d="M267.001 454.134C288.273 442.069 309.865 430.556 331.373 418.907C333.471 417.768 335.907 416.778 337.842 415.372C338.616 414.809 337.86 413.522 337.08 414.091C335.539 415.212 333.598 416.007 331.923 416.914C327.624 419.245 323.319 421.57 319.019 423.901C307.277 430.254 295.547 436.624 283.847 443.054C277.964 446.292 272.086 449.537 266.245 452.853C265.399 453.327 266.155 454.608 267.001 454.134Z" fill="#333333"/>
<path d="M321.51 387.755C330.266 404.072 339.432 420.182 348.393 436.392C349.397 438.208 351.422 441.274 351.894 442.727C352.136 442.413 352.378 442.104 352.626 441.79C349.361 441.606 345.261 439.886 341.917 439.002C340.98 438.753 340.575 440.183 341.518 440.432C345.037 441.363 348.986 443.065 352.626 443.273C353.109 443.303 353.496 442.775 353.357 442.336C352.825 440.681 351.586 439.05 350.751 437.537C348.514 433.486 346.277 429.441 344.034 425.396C338.64 415.656 333.24 405.923 327.859 396.177C326.172 393.123 324.473 390.08 322.822 387.007C322.363 386.159 321.057 386.907 321.51 387.755Z" fill="#333333"/>
<path d="M271.82 415.532C289.144 407.406 305.935 398.23 323.258 390.098C324.135 389.689 323.367 388.407 322.496 388.817C305.173 396.943 288.382 406.118 271.058 414.25C270.182 414.66 270.943 415.941 271.82 415.532Z" fill="#333333"/>
<path d="M342.003 438.991C337.951 432.466 333.846 425.977 329.879 419.405C329.384 418.587 328.077 419.328 328.573 420.153C332.54 426.725 336.645 433.214 340.697 439.738C341.205 440.557 342.511 439.81 342.003 438.991Z" fill="#333333"/>
<path d="M272.008 407.779C273.404 408.194 276.621 405.994 277.782 405.46C282.402 403.342 286.997 401.177 291.586 399.001C300.166 394.932 308.873 390.993 317.236 386.503C318.088 386.047 317.326 384.766 316.474 385.222C308.589 389.457 300.384 393.176 292.294 397.02C287.765 399.167 283.236 401.308 278.683 403.408C277.129 404.125 275.569 404.843 274.003 405.537C273.555 405.733 273.108 405.934 272.655 406.118C272.225 406.296 271.929 406.195 272.407 406.338C271.475 406.071 271.076 407.506 272.008 407.779Z" fill="#333333"/>
<path d="M353.146 443.005C354.712 442.365 356.193 440.9 357.548 439.921C359.991 438.159 362.421 436.392 364.894 434.678C365.68 434.132 364.925 432.845 364.132 433.397C361.811 435.01 359.519 436.671 357.227 438.32C355.945 439.245 353.914 441.095 352.747 441.57C351.864 441.938 352.251 443.373 353.146 443.005Z" fill="#333333"/>
<path d="M162.191 484.74C164.615 480.849 167.046 476.958 169.054 472.836C169.471 471.982 168.171 471.228 167.748 472.088C165.74 476.211 163.309 480.096 160.885 483.993C160.377 484.811 161.683 485.553 162.191 484.74Z" fill="#333333"/>
<path d="M136.898 467.432C131.45 466.524 126.232 463.718 121.152 461.684C116.726 459.91 112.282 458.463 107.536 457.811C105.232 457.496 101.356 457.389 100.703 460.284C100.056 463.149 102.499 467.147 104.367 469.146C105.026 469.852 106.09 468.802 105.437 468.096C103.684 466.216 100.038 460.225 104.113 459.282C107.318 458.54 111.502 459.916 114.592 460.865C121.938 463.131 128.874 467.592 136.493 468.855C137.448 469.021 137.859 467.592 136.898 467.432Z" fill="#333333"/>
<path d="M122.544 472.414C123.445 473.423 123.971 474.603 124.182 475.92C124.333 476.857 125.791 476.459 125.64 475.528C125.386 473.962 124.678 472.557 123.614 471.371C122.973 470.647 121.909 471.697 122.544 472.414Z" fill="#333333"/>
<path d="M127.435 475.16C127.616 475.279 127.804 475.895 127.894 476.091C128.052 476.441 128.197 476.791 128.336 477.147C128.614 477.876 128.844 478.624 129.049 479.377C129.297 480.296 130.754 479.911 130.506 478.986C130.234 477.96 129.896 476.957 129.479 475.979C129.164 475.243 128.904 474.33 128.203 473.873C127.38 473.351 126.625 474.638 127.435 475.16Z" fill="#333333"/>
<path d="M132.732 475.807C132.726 475.796 132.714 475.79 132.708 475.778C132.665 476.074 132.629 476.377 132.587 476.673C132.599 476.661 132.605 476.65 132.617 476.638C132.315 476.679 132.006 476.715 131.704 476.756C131.892 476.893 132.164 477.634 132.285 477.871C132.49 478.263 132.684 478.666 132.859 479.075C133.143 479.758 133.711 480.807 133.639 481.537C133.766 481.323 133.887 481.11 134.014 480.896C133.978 480.92 133.935 480.95 133.899 480.973C134.092 480.95 134.286 480.926 134.479 480.896C134.437 480.884 134.395 480.873 134.358 480.861C134.534 481.033 134.709 481.205 134.885 481.377C134.878 481.335 134.872 481.294 134.866 481.252C134.8 481.495 134.739 481.733 134.673 481.976C134.57 482.017 134.461 482.053 134.358 482.094C135.332 482.118 135.332 480.635 134.358 480.612C133.645 480.594 133.337 481.145 133.427 481.774C133.464 482.017 133.724 482.231 133.953 482.29C135.701 482.753 134.963 480.481 134.715 479.746C134.274 478.429 133.615 476.329 132.466 475.475C132.218 475.291 131.746 475.363 131.553 475.594C131.541 475.606 131.535 475.618 131.523 475.629C131.323 475.855 131.196 476.258 131.402 476.525C131.408 476.537 131.42 476.543 131.426 476.555C132.006 477.314 133.318 476.573 132.732 475.807Z" fill="#333333"/>
<path d="M133.125 506.887C135.223 505.411 137.684 504.782 140.042 503.821C140.816 503.506 143.313 502.801 142.799 501.525C142.443 500.647 140.979 501.033 141.342 501.917C141.36 501.964 141.378 502.012 141.403 502.059C141.469 501.816 141.53 501.579 141.596 501.336C140.623 502.552 137.95 503.008 136.529 503.53C135.054 504.076 133.651 504.693 132.363 505.6C131.577 506.158 132.333 507.445 133.125 506.887Z" fill="#333333"/>
<path d="M128.197 503.946C131.407 501.965 134.57 499.924 137.696 497.819C138.494 497.279 137.738 495.998 136.934 496.537C133.814 498.643 130.646 500.69 127.435 502.665C126.612 503.169 127.368 504.456 128.197 503.946Z" fill="#333333"/>
<path d="M123.311 499.485C126.818 497.819 130.228 495.992 133.554 493.999C134.382 493.5 133.651 492.261 132.792 492.717C132.714 492.759 132.635 492.8 132.556 492.842C131.698 493.299 132.466 494.58 133.318 494.123C133.397 494.082 133.475 494.04 133.554 493.999C133.3 493.572 133.046 493.144 132.792 492.717C129.467 494.71 126.056 496.543 122.549 498.204C121.673 498.619 122.44 499.895 123.311 499.485Z" fill="#333333"/>
<path d="M118.401 495.049C120.294 493.886 122.193 492.729 124.085 491.567C125.391 490.766 127.374 489.995 128.293 488.779C128.547 488.441 128.33 487.966 128.021 487.765C127.991 487.741 127.961 487.723 127.925 487.699C127.653 487.522 127.229 487.587 127.012 487.818C126.993 487.842 126.969 487.86 126.951 487.883C126.28 488.577 127.35 489.627 128.021 488.933C128.04 488.909 128.064 488.892 128.082 488.868C127.78 488.909 127.471 488.945 127.169 488.987C127.199 489.01 127.229 489.028 127.266 489.052C127.175 488.714 127.084 488.376 126.993 488.038C126.54 488.631 125.234 489.123 124.587 489.515C123.849 489.965 123.112 490.416 122.38 490.867C120.802 491.834 119.224 492.801 117.646 493.767C116.811 494.272 117.573 495.553 118.401 495.049Z" fill="#333333"/>
<path d="M113.522 490.126C116.551 487.925 119.659 485.849 122.857 483.892C123.68 483.387 122.924 482.106 122.096 482.611C118.897 484.568 115.789 486.644 112.76 488.844C111.986 489.408 112.742 490.695 113.522 490.126Z" fill="#333333"/>
<path d="M109.622 484.918C111.841 483.049 114.175 481.329 116.63 479.763C117.44 479.241 116.684 477.96 115.868 478.482C113.31 480.119 110.873 481.916 108.558 483.874C107.814 484.496 108.89 485.54 109.622 484.918Z" fill="#333333"/>
<path d="M104.761 479.781C106.496 478.043 108.268 475.694 110.837 475.226C111.793 475.054 111.388 473.624 110.438 473.796C107.578 474.318 105.619 476.803 103.69 478.731C103.013 479.413 104.077 480.463 104.761 479.781Z" fill="#333333"/>
<path d="M369.381 370.672C371.564 361.176 364.961 351.644 355.087 350.677C348.968 350.078 352.421 342.86 334.547 342.729C323.633 342.646 323.101 347.688 317.671 347.273C305.633 346.341 300.118 346.015 297.905 346.632C291.351 348.471 289.543 357.801 298.286 364.847C307.029 371.894 323.325 386.906 323.325 386.906C323.325 386.906 312.23 418.995 311.22 447.798C310.192 477.129 299.532 513.222 299.532 513.222H411.629C411.629 513.222 405.346 476.008 386.759 437.418C380.749 424.939 376.02 415.543 372.483 408.704C367.18 398.461 365.687 386.728 368.269 375.524L369.381 370.672Z" fill="#F8BAB4"/>
<path d="M321.161 355.061C322.969 359.1 327.244 359.735 331.216 358.638C332.153 358.377 331.754 356.947 330.817 357.208C327.425 358.145 324.003 357.742 322.467 354.314C322.074 353.442 320.774 354.195 321.161 355.061Z" fill="#333333"/>
<path d="M313.729 513.311C319.631 504.675 323.428 495.642 325.762 485.505C328.15 475.125 330.297 464.383 329.868 453.695C329.831 452.746 328.32 452.74 328.356 453.695C328.779 464.264 326.669 474.846 324.305 485.113C322.001 495.114 318.246 504.046 312.423 512.564C311.885 513.353 313.191 514.1 313.729 513.311Z" fill="#333333"/>
<path d="M353.473 513.376C356.811 508.103 362.47 504.918 368.795 504.746C369.472 504.728 369.763 503.957 369.327 503.482C358.933 491.922 359.423 474.602 370.404 463.594C371.087 462.911 370.017 461.862 369.333 462.544C357.754 474.157 357.319 492.361 368.257 504.532C368.432 504.111 368.614 503.69 368.789 503.269C361.926 503.453 355.783 506.911 352.161 512.629C351.653 513.441 352.959 514.189 353.473 513.376Z" fill="#333333"/>
<path d="M356.533 513.709C357.065 513.181 357.591 512.653 358.123 512.125C358.564 511.686 358.988 511.111 359.647 511.016C360.608 510.879 360.197 509.45 359.248 509.586C358.492 509.693 357.948 510.197 357.428 510.707C356.769 511.354 356.122 512.012 355.462 512.659C354.779 513.341 355.849 514.391 356.533 513.709Z" fill="#333333"/>
<path d="M360.838 513.898C361.757 512.937 362.791 512.142 363.964 511.508C364.816 511.045 364.055 509.764 363.202 510.226C361.92 510.92 360.765 511.804 359.767 512.848C359.102 513.548 360.173 514.598 360.838 513.898Z" fill="#333333"/>
<path d="M303.184 513.555C304.284 512.297 305.173 510.927 305.838 509.403C306.213 508.537 304.913 507.778 304.532 508.655C303.922 510.055 303.13 511.348 302.114 512.511C301.485 513.229 302.549 514.284 303.184 513.555Z" fill="#333333"/>
<path d="M307.308 513.726C308.112 512.896 308.626 511.775 309.104 510.743C309.412 510.073 310.319 508.726 309.515 508.115C308.753 507.534 307.677 508.578 308.445 509.165C308.481 509.189 308.511 509.219 308.548 509.242C308.475 509.07 308.402 508.892 308.324 508.72C308.288 509.379 307.683 510.268 307.375 510.862C307.048 511.484 306.734 512.166 306.238 512.682C305.573 513.37 306.637 514.42 307.308 513.726Z" fill="#333333"/>
<path d="M356.412 355.233L366.183 340.986C366.183 340.986 372.351 347.688 371.825 357.012C371.299 366.337 368.39 373.846 368.39 373.846L356.412 355.233Z" fill="#F8BAB4"/>
<path d="M347.137 347.267L356.908 333.019C356.908 333.019 361.661 338.459 361.134 347.783C360.608 357.107 357.7 364.616 357.7 364.616L347.137 347.267Z" fill="#F8BAB4"/>
<path d="M400.576 513.216H417.494C417.494 513.216 449.831 511.164 449.831 484.674C449.831 463.938 428.868 459.152 417.204 465.041C407.094 470.148 408.31 477.936 408.31 477.936C408.31 477.936 420.475 475.771 421.842 483.245C423.988 494.971 404.053 503.726 404.053 503.726L400.576 513.216Z" fill="#F8BAB4"/>
<path d="M293.068 349.598L317.605 356.561C317.605 356.561 319.353 360.731 323.851 361.466C328.35 362.202 332.099 363.181 336.349 366.372C340.6 369.557 342.1 373.234 342.1 373.234C342.1 373.234 333.604 376.669 332.854 386.23C332.105 395.791 339.373 403.336 339.373 403.336C339.373 403.336 329.722 416.789 322.358 435.728C316.432 450.96 309.866 463.576 309.866 463.576C309.866 463.576 312.762 430.467 313.512 413.544C314.261 396.622 316.861 382.796 312.363 377.647C307.864 372.499 297.748 366.674 294.888 362.653C290.861 356.982 293.068 349.598 293.068 349.598Z" fill="#FFECDD"/>
<path d="M293.649 353.157C295.763 353.157 297.476 351.476 297.476 349.402C297.476 347.329 295.763 345.648 293.649 345.648C291.535 345.648 289.821 347.329 289.821 349.402C289.821 351.476 291.535 353.157 293.649 353.157Z" fill="#333333"/>
<path d="M292.035 352.125C291.678 358.181 294.683 363.424 299.133 367.292C302.544 370.257 306.117 373.009 309.666 375.809C311.892 377.565 313.107 379.943 313.373 382.719C314.026 389.534 313.512 396.569 313.228 403.39C312.23 427.679 310.114 452.016 306.613 476.086C304.853 488.192 302.834 500.405 299.236 512.137C298.958 513.05 300.415 513.442 300.693 512.528C307.526 490.256 309.799 466.37 311.97 443.303C313.083 431.505 313.953 419.684 314.534 407.851C314.915 400.086 315.332 392.245 314.987 384.469C314.939 383.413 314.915 382.316 314.721 381.278C314.002 377.482 311.589 375.435 308.638 373.158C301.612 367.725 292.96 362.013 293.546 352.125C293.607 351.17 292.095 351.176 292.035 352.125Z" fill="#333333"/>
<path d="M365.252 345.144C365.494 349.954 363.716 354.343 360.167 357.677C359.459 358.335 360.529 359.385 361.237 358.727C365.046 355.15 367.023 350.316 366.763 345.15C366.715 344.189 365.203 344.189 365.252 345.144Z" fill="#333333"/>
<path d="M354.555 339.176C354.501 342.504 353.944 348.702 350.564 350.546C349.712 351.009 350.474 352.29 351.326 351.828C355.305 349.657 356 343.144 356.061 339.176C356.085 338.221 354.573 338.221 354.555 339.176Z" fill="#333333"/>
<path d="M385.829 246.89C385.829 246.89 386.796 225.893 376.964 216.705C367.931 208.264 374.763 192.255 372.278 186.638C369.793 181.021 362.882 177.385 360.893 169.574C358.903 161.762 363.245 157.764 359.121 152.159C354.997 146.554 350.19 142.58 348.818 134.329C347.445 126.079 337.196 113.741 337.196 113.741C337.196 113.741 351.333 124.015 356.666 126.464C361.993 128.914 362.398 133.932 366.341 138.974C370.289 144.015 374.957 143.019 377.273 149.674C379.589 156.335 374.352 159.117 377.055 163.429C379.758 167.741 383.712 166.092 385.514 171.733C387.316 177.374 380.713 177.664 383.265 182.089C385.81 186.508 390.019 185.838 388.495 195.903C386.971 205.969 392.939 207.487 392.583 216.035C392.298 222.873 385.829 246.89 385.829 246.89Z" fill="#333333"/>
<path d="M394.766 254.322C394.766 254.322 397.414 250.721 399.5 249.547C410.698 243.242 405.166 235.887 408.183 231.913C411.194 227.939 417.319 226.32 420.355 220.525C423.39 214.73 420.718 210.791 425.023 207.12C429.328 203.448 433.857 201.182 436.487 194.93C439.117 188.679 449.511 180.808 449.511 180.808C449.511 180.808 436.438 186.348 431.783 187.32C427.127 188.287 425.863 192.172 421.812 195.429C417.755 198.691 414.266 197.06 411.188 201.888C408.117 206.716 411.714 209.86 408.776 212.766C405.837 215.673 403.031 213.662 400.552 217.778C398.073 221.895 403.219 223.318 400.383 226.343C397.547 229.368 394.361 228.075 393.665 236.284C392.976 244.493 387.988 244.606 386.663 251.409C386.53 252.092 386.337 254.322 386.337 254.322H394.766Z" fill="#333333"/>
<path d="M400.389 142.746C400.389 142.746 400.903 135.729 399.029 131.488C397.154 127.253 394.838 124.78 394.784 121.387C394.73 117.994 394.282 117.395 391.622 114.222C388.955 111.048 388 106.256 387.474 101.647C386.948 97.0384 382.068 98.1831 380.502 93.7287C378.936 89.2742 383.302 88.5624 381.415 84.0189C379.529 79.4755 376.179 77.358 375.423 70.0861C374.667 62.8142 375.592 62.3634 375.592 62.3634C375.592 62.3634 375.647 68.1228 379.686 73.7042C383.725 79.2857 389.56 80.7745 393.006 85.0451C396.453 89.3157 392.45 91.1426 394.343 93.527C396.235 95.9114 398.581 94.4701 400.244 98.717C401.907 102.964 398.968 107.418 400.129 109.832C401.29 112.252 404.422 114.269 404.338 116.95C404.253 119.631 402.203 120.645 402.941 125.242C403.678 129.839 400.528 143.357 400.528 143.357" fill="#333333"/>
<path d="M400.516 153.44C400.516 153.44 403.497 148.535 403.708 144.786C403.926 141.044 403.158 138.422 404.38 135.943C405.601 133.463 405.498 132.87 404.748 129.614C403.993 126.357 405.081 122.544 406.411 119.008C407.741 115.479 403.775 114.566 404.295 110.77C404.815 106.974 408.249 108.023 408.564 104.049C408.884 100.075 407.24 97.3468 409.392 91.8009C411.545 86.2551 412.385 86.261 412.385 86.261C412.385 86.261 410.287 90.4604 411.14 95.947C411.992 101.44 415.675 104.607 416.588 108.937C417.501 113.267 413.921 113.16 414.405 115.568C414.894 117.976 417.132 117.769 416.757 121.44C416.382 125.112 412.603 127.295 412.542 129.465C412.482 131.636 414.012 134.222 412.954 136.132C411.895 138.042 410.033 138.048 408.86 141.649C407.687 145.249 400.383 153.927 400.383 153.927" fill="#333333"/>
<path d="M400.128 171.371C400.128 171.371 399.354 165.712 397.147 162.645C394.94 159.579 392.685 157.995 392.068 155.308C391.451 152.621 390.998 152.218 388.344 150.13C385.689 148.042 384.123 144.389 382.926 140.812C381.729 137.235 378.046 138.938 376.045 135.652C374.043 132.366 377.399 131.09 375.132 127.786C372.864 124.483 369.847 123.344 368.015 117.691C366.189 112.039 366.842 111.528 366.842 111.528C366.842 111.528 367.858 116.096 372.006 119.874C376.154 123.652 381.045 123.89 384.504 126.725C387.963 129.56 385.091 131.66 386.995 133.249C388.9 134.839 390.52 133.309 392.564 136.417C394.608 139.525 393.018 143.534 394.348 145.272C395.678 147.01 398.508 148.102 398.895 150.243C399.282 152.384 397.818 153.529 399.185 157.058C400.545 160.593 400.322 171.845 400.322 171.845" fill="#333333"/>
<path d="M383.035 255.111C382.944 255.111 382.859 255.099 382.769 255.069C382.291 254.927 382.019 254.429 382.164 253.96C382.285 253.563 394.578 213.852 397.788 190.434C400.225 172.628 400.014 149.181 399.917 137.906C399.874 133.475 399.868 131.66 399.971 131.15C400.068 130.669 400.552 130.355 401.035 130.45C401.525 130.545 401.846 131.013 401.749 131.494C401.676 131.915 401.701 134.679 401.731 137.888C401.834 149.199 402.045 172.735 399.59 190.666C396.361 214.225 384.032 254.073 383.905 254.476C383.785 254.868 383.422 255.111 383.035 255.111Z" fill="#333333"/>
<path d="M401.06 310.593H378.899C369.497 310.593 361.872 303.114 361.872 293.89V254.316H418.087V293.89C418.087 303.114 410.462 310.593 401.06 310.593Z" fill="#F8BAB4"/>
<path d="M362.749 264.619C363.97 264.435 364.671 263.581 365.911 263.498C367.344 263.403 367.924 264.227 369.103 264.898C370.724 265.823 372.199 265.811 373.971 265.271C375.09 264.933 376.142 264.364 377.284 264.079C379.165 263.616 380.217 264.619 381.801 265.277C384.202 266.274 386.034 264.293 388.682 265.242C390.26 265.805 390.303 266.03 392.086 265.597C393.822 265.176 395.134 265.396 396.803 265.592C397.286 265.651 397.74 265.675 398.199 265.544C399.203 265.265 399.312 264.886 400.503 264.868C401.549 264.85 401.386 264.981 402.13 265.04C403.357 265.135 404.566 265.04 405.806 264.969C409.325 264.755 412.892 264.364 416.399 264.856C417.349 264.987 417.76 263.563 416.799 263.427C413.902 263.023 411.042 263.172 408.128 263.35C405.879 263.486 403.732 263.783 401.513 263.249C400.818 263.083 400.461 262.857 399.759 263.011C399.197 263.142 399.276 263.338 398.659 263.563C397.613 263.943 397.026 263.848 395.787 263.563C394.983 263.379 394.578 263.178 393.761 263.308C392.788 263.462 391.851 264.417 390.913 264.476C389.777 264.548 388.773 263.065 387.63 262.875C386.911 262.762 386.372 263.083 385.701 263.237C384.552 263.504 385.054 263.611 383.343 263.599C381.723 263.593 381.614 263.213 380.326 262.733C378.627 262.092 377.043 262.561 375.404 263.16C373.669 263.788 372.072 264.637 370.186 263.824C369.14 263.373 368.366 262.448 367.296 262.021C365.101 261.149 364.399 262.881 362.337 263.195C361.388 263.332 361.793 264.761 362.749 264.619Z" fill="#333333"/>
<path d="M362.809 272.519C366.02 268.847 367.713 274.441 370.839 274.275C373.959 274.109 374.328 270.716 377.877 272.614C379.485 273.474 380.138 274.192 382.091 273.522C383.01 273.207 383.422 272.81 384.492 272.84C385.713 272.875 385.75 273.279 386.717 273.7C387.437 274.014 387.987 274.056 388.743 273.818C389.208 273.67 389.583 273.136 390.012 273.012C391.337 272.632 392.371 273.237 393.525 273.51C394.221 273.676 394.735 273.89 395.484 273.747C395.902 273.67 396.228 273.397 396.627 273.308C400.763 272.377 398.175 273.658 400.062 273.741C401.023 273.789 401.198 273.581 402.069 273.468C402.281 273.32 402.492 273.166 402.704 273.018C403.472 272.935 404.191 273.035 404.863 273.32C405.177 273.356 405.516 273.629 405.854 273.593C406.816 273.48 406.755 273.172 407.626 272.935C408.829 272.602 409.67 273.243 410.794 273.314C412.802 273.433 415.051 272.946 417.052 272.763C418.014 272.674 418.02 271.191 417.052 271.28C414.761 271.487 411.925 272.294 409.766 271.363C408.72 270.912 409.131 270.811 407.983 270.835C407.638 270.841 407.499 271.208 407.203 271.297C406.435 271.523 405.455 271.665 404.651 271.612C403.738 271.552 403.188 271.428 402.287 271.576C401.579 271.95 400.805 272.098 399.959 272.033C399.729 271.896 399.499 271.766 399.276 271.63C398.907 271.588 398.556 271.315 398.163 271.291C396.549 271.185 395.757 272.567 393.949 272.08C393.102 271.855 392.51 271.102 391.578 271.007C390.133 270.858 389.867 271.796 388.67 272.152C387.195 272.585 386.215 271.185 384.855 271.06C383.712 270.953 383.071 271.659 382.031 271.908C378.971 272.638 377.587 269.364 374.654 270.574C373.681 270.977 372.81 272.181 371.812 272.401C369.611 272.881 368.916 271.048 367.362 270.236C365.403 269.209 363.117 269.88 361.739 271.458C361.11 272.193 362.174 273.249 362.809 272.519Z" fill="#333333"/>
<path d="M388.447 253.26C379.414 253.533 370.38 253.806 361.347 254.079C360.942 254.091 360.591 254.411 360.591 254.82C360.627 265.847 360.663 276.873 360.706 287.9C360.724 292.176 360.597 296.708 362.52 300.664C364.303 304.336 367.563 306.94 370.888 309.223C371.686 309.769 372.442 308.488 371.65 307.942C367.641 305.19 364.086 302.005 362.876 297.171C361.752 292.692 362.211 287.746 362.199 283.172C362.163 273.718 362.133 264.269 362.096 254.814C361.842 255.063 361.595 255.307 361.341 255.556C370.374 255.283 379.408 255.01 388.441 254.737C389.421 254.714 389.421 253.231 388.447 253.26Z" fill="#333333"/>
<path d="M402.063 306.109C404.881 306.258 408.007 303.636 409.682 301.69C412.379 298.559 413.226 294.14 413.02 290.142C412.972 289.193 411.46 289.187 411.508 290.142C411.69 293.647 411.055 297.562 408.799 300.391C407.409 302.141 404.561 304.763 402.063 304.626C401.096 304.573 401.096 306.056 402.063 306.109Z" fill="#333333"/>
</svg>
