<svg width="25" height="20" viewBox="0 0 25 20" fill="none" xmlns="http://www.w3.org/2000/svg">
<path fill-rule="evenodd" clip-rule="evenodd" d="M11.9302 2.95596L10.7519 1.765C8.42364 -0.588332 4.64873 -0.588332 2.32044 1.765C-0.00785494 4.11832 -0.0078547 7.93382 2.32044 10.2872L11.9017 19.9714L11.9036 19.9694L11.9322 19.9983L21.5134 10.314C23.8417 7.9607 23.8417 4.14521 21.5134 1.79188C19.1851 -0.561449 15.4102 -0.561449 13.0819 1.79188L11.9302 2.95596ZM11.9036 16.8705L17.2545 11.4621L18.8272 9.92705L18.8287 9.92863L19.9804 8.76455C21.4621 7.26698 21.4621 4.83893 19.9804 3.34136C18.4988 1.84379 16.0966 1.84379 14.6149 3.34136L11.9314 6.05375L11.9235 6.04582L11.9224 6.04699L9.21893 3.31448C7.73729 1.81691 5.33508 1.81691 3.85344 3.31448C2.3718 4.81205 2.3718 7.2401 3.85344 8.73767L6.60616 11.52L6.60811 11.518L11.9036 16.8705Z" fill="#FF434B"/>
<path d="M21 13H23V15H25V17H23V19H21V17H19V15H21V13Z" fill="#FF434B"/>
</svg>
