<svg xmlns="http://www.w3.org/2000/svg" width="15" height="16" viewBox="0 0 15 16">
    <g fill="none" fill-rule="evenodd">
        <g fill="#A6B7C9" fill-rule="nonzero">
            <g>
                <g>
                    <path d="M1.334 14.36c-1.778-1.779-1.779-4.657 0-6.436L8.23 1.026c1.369-1.368 3.595-1.368 4.964 0 1.371 1.372 1.371 3.592 0 4.964l-5.808 5.808c-.963.963-2.53.963-3.492 0-.965-.965-.965-2.527 0-3.492l4.919-4.92c.143-.143.376-.143.52 0l.52.52c.143.145.143.377 0 .521l-4.919 4.92c-.39.39-.39 1.02 0 1.41.39.39 1.023.39 1.412 0l5.807-5.807c.797-.797.797-2.086 0-2.883-.794-.795-2.088-.795-2.882 0L2.374 8.965c-1.203 1.203-1.204 3.15 0 4.354 1.204 1.204 3.153 1.204 4.357-.001l6.005-6.008c.143-.144.376-.144.52 0l.52.52c.143.144.143.377 0 .52l-6.004 6.008c-1.779 1.78-4.66 1.78-6.438.001z" transform="translate(-116 -1833) translate(100 1821) translate(16 12)"/>
                </g>
            </g>
        </g>
    </g>
</svg>
