<svg width="32" height="32" viewBox="0 0 32 32" fill="none" xmlns="http://www.w3.org/2000/svg">
<path d="M13.1257 21.8823L7.34025 16.0969L9.26872 14.1684L13.1257 18.0254L20.8396 10.3115L22.768 12.2399L13.1257 21.8823Z" fill="#FF434B"/>
<path fill-rule="evenodd" clip-rule="evenodd" d="M0.522064 6.45455C0.522064 3.44208 2.96415 1 5.97661 1H25.0675C28.08 1 30.5221 3.44208 30.5221 6.45455V25.5455C30.5221 28.5579 28.08 31 25.0675 31H5.97661C2.96415 31 0.522064 28.5579 0.522064 25.5455V6.45455ZM5.97661 3.72727H25.0675C26.5737 3.72727 27.7948 4.94831 27.7948 6.45455V25.5455C27.7948 27.0517 26.5737 28.2727 25.0675 28.2727H5.97661C4.47038 28.2727 3.24934 27.0517 3.24934 25.5455V6.45455C3.24934 4.94831 4.47038 3.72727 5.97661 3.72727Z" fill="#FF434B"/>
<path d="M13.1257 21.8823L7.34025 16.0969L9.26872 14.1684L13.1257 18.0254L20.8396 10.3115L22.768 12.2399L13.1257 21.8823Z" stroke="white"/>
<path fill-rule="evenodd" clip-rule="evenodd" d="M0.522064 6.45455C0.522064 3.44208 2.96415 1 5.97661 1H25.0675C28.08 1 30.5221 3.44208 30.5221 6.45455V25.5455C30.5221 28.5579 28.08 31 25.0675 31H5.97661C2.96415 31 0.522064 28.5579 0.522064 25.5455V6.45455ZM5.97661 3.72727H25.0675C26.5737 3.72727 27.7948 4.94831 27.7948 6.45455V25.5455C27.7948 27.0517 26.5737 28.2727 25.0675 28.2727H5.97661C4.47038 28.2727 3.24934 27.0517 3.24934 25.5455V6.45455C3.24934 4.94831 4.47038 3.72727 5.97661 3.72727Z" stroke="white"/>
</svg>
