<svg width="32" height="32" viewBox="0 0 32 32" fill="none" xmlns="http://www.w3.org/2000/svg">
<path fill-rule="evenodd" clip-rule="evenodd" d="M1 6.45455C1 3.44208 3.44208 1 6.45455 1H25.5455C28.5579 1 31 3.44208 31 6.45455V25.5455C31 28.5579 28.5579 31 25.5455 31H6.45455C3.44208 31 1 28.5579 1 25.5455V6.45455ZM6.45455 3.72727H25.5455C27.0517 3.72727 28.2727 4.94831 28.2727 6.45455V25.5455C28.2727 27.0517 27.0517 28.2727 25.5455 28.2727H6.45455C4.94831 28.2727 3.72727 27.0517 3.72727 25.5455V6.45455C3.72727 4.94831 4.94831 3.72727 6.45455 3.72727Z" fill="#FF434B" fill-opacity="0.5" stroke="white"/>
</svg>
