<svg viewBox="0 0 317 536" fill="none" xmlns="http://www.w3.org/2000/svg">
<path d="M62.5238 10.2602C55.7143 3.62129 47.0475 0 36.8334 0C16.4048 0 0 15.6918 0 35.6084C0 45.5666 4.3333 54.6198 11.4525 61.5604L228.12 267.968L11.4525 473.772C4.3333 480.715 2.46565e-05 490.068 2.46565e-05 499.724C2.46565e-05 519.641 16.4048 535.333 36.8334 535.333C47.0478 535.333 55.7143 531.712 62.5238 525.074L303.334 295.73C312 287.885 316.024 278.227 316.333 267.667C316.333 257.106 312 248.052 303.334 239.905L62.5238 10.2602Z" fill="#333333"/>
</svg>
