<?xml version="1.0" encoding="utf-8"?>
<!-- Generator: Adobe Illustrator 24.1.2, SVG Export Plug-In . SVG Version: 6.00 Build 0)  -->
<svg version="1.1" id="Слой_1" xmlns="http://www.w3.org/2000/svg" xmlns:xlink="http://www.w3.org/1999/xlink" x="0px" y="0px"
	 viewBox="0 0 15 24" style="enable-background:new 0 0 15 24;" xml:space="preserve">
<style type="text/css">
	.st0{fill-opacity:0.5;}
</style>
<path class="st0" d="M3.6,1.4C3.3,1.1,2.9,1,2.5,1C1.7,1,1,1.6,1,2.5c0,0.4,0.2,0.8,0.5,1.1l8.9,8.5l-8.9,8.5
	C1.2,20.8,1,21.1,1,21.5C1,22.4,1.7,23,2.5,23c0.4,0,0.8-0.1,1.1-0.4l9.9-9.4c0.4-0.3,0.5-0.7,0.5-1.2c0-0.4-0.2-0.8-0.5-1.1
	L3.6,1.4z"/>
</svg>
