<svg width="15" height="24" viewBox="0 0 15 24" fill="none" xmlns="http://www.w3.org/2000/svg">
<path d="M11.4305 22.5784C11.7104 22.8512 12.0665 23 12.4863 23C13.3258 23 14 22.3551 14 21.5366C14 21.1274 13.8219 20.7554 13.5294 20.4701L4.62524 11.9876L13.5294 3.52988C13.8219 3.24464 14 2.8602 14 2.46336C14 1.64487 13.3258 1 12.4863 1C12.0665 1 11.7104 1.14882 11.4305 1.42165L1.53425 10.8467C1.17808 11.1691 1.01272 11.566 1 12C1 12.434 1.17808 12.8061 1.53425 13.1409L11.4305 22.5784Z" fill="black" fill-opacity="0.5" stroke="white"/>
</svg>
