<svg width="33" height="33" viewBox="0 0 33 33" fill="none" xmlns="http://www.w3.org/2000/svg">
<path d="M16.5 14.1419V19.8H25.8582C25.4801 22.2269 23.0312 26.9142 16.5 26.9142C10.8694 26.9142 6.27138 22.2544 6.27138 16.5C6.27138 10.7456 10.8708 6.08575 16.5 6.08575C19.7038 6.08575 21.8501 7.44563 23.0794 8.62813L27.5536 4.31337C24.6799 1.63075 20.9536 0 16.5 0C7.37687 0 0 7.37687 0 16.5C0 25.6231 7.37687 33 16.5 33C26.0233 33 32.34 26.3051 32.34 16.8768C32.34 15.7933 32.2231 14.9655 32.0801 14.1419H16.5Z" fill="#F8BAB4"/>
</svg>
