<svg width="33" height="33" viewBox="0 0 33 33" fill="none" xmlns="http://www.w3.org/2000/svg">
<path d="M16.5 0C12.0175 0 11.4579 0.020625 9.69788 0.099C7.94063 0.1815 6.74437 0.457875 5.6925 0.86625C4.60763 1.287 3.68637 1.85212 2.76925 2.76925C1.85212 3.68637 1.28562 4.60625 0.86625 5.6925C0.457875 6.74437 0.180125 7.94063 0.099 9.69788C0.0165 11.4579 0 12.0175 0 16.5C0 20.9825 0.020625 21.5421 0.099 23.3021C0.1815 25.058 0.457875 26.2556 0.86625 27.3075C1.287 28.391 1.85212 29.3136 2.76925 30.2308C3.68637 31.1465 4.60625 31.7144 5.6925 32.1338C6.74575 32.5408 7.942 32.8199 9.69788 32.901C11.4579 32.9835 12.0175 33 16.5 33C20.9825 33 21.5421 32.9794 23.3021 32.901C25.058 32.8185 26.2556 32.5408 27.3075 32.1338C28.391 31.713 29.3136 31.1465 30.2308 30.2308C31.1465 29.3136 31.7144 28.3951 32.1338 27.3075C32.5408 26.2556 32.8199 25.058 32.901 23.3021C32.9835 21.5421 33 20.9825 33 16.5C33 12.0175 32.9794 11.4579 32.901 9.69788C32.8185 7.942 32.5408 6.743 32.1338 5.6925C31.713 4.60763 31.1465 3.68637 30.2308 2.76925C29.3136 1.85212 28.3951 1.28562 27.3075 0.86625C26.2556 0.457875 25.058 0.180125 23.3021 0.099C21.5421 0.0165 20.9825 0 16.5 0ZM16.5 2.97C20.9041 2.97 21.4294 2.992 23.1688 3.06763C24.7775 3.14325 25.6506 3.41 26.2309 3.63825C27.0036 3.93662 27.5509 4.29413 28.1311 4.87025C28.7072 5.44775 29.0647 5.99637 29.3631 6.76912C29.5886 7.34937 29.8581 8.2225 29.931 9.83125C30.0094 11.572 30.0272 12.0945 30.0272 16.5C30.0272 20.9055 30.0066 21.4294 29.9255 23.1688C29.8416 24.7775 29.5735 25.6506 29.3466 26.2309C29.0386 27.0036 28.688 27.5509 28.1105 28.1311C27.5344 28.7072 26.9775 29.0647 26.213 29.3631C25.6355 29.5886 24.7486 29.8581 23.1399 29.931C21.3881 30.0094 20.8725 30.0272 16.4587 30.0272C12.0436 30.0272 11.528 30.0066 9.77763 29.9255C8.1675 29.8416 7.28062 29.5735 6.70312 29.3466C5.92075 29.0386 5.38313 28.688 4.807 28.1105C4.22813 27.5344 3.85825 26.9775 3.5695 26.213C3.34262 25.6355 3.07588 24.7486 2.992 23.1399C2.93013 21.4074 2.90812 20.8725 2.90812 16.4794C2.90812 12.0849 2.93013 11.5486 2.992 9.7955C3.07588 8.18675 3.34262 7.30125 3.5695 6.72375C3.85825 5.94 4.22813 5.40375 4.807 4.82487C5.38313 4.24875 5.92075 3.8775 6.70312 3.59013C7.28062 3.36188 8.14825 3.09375 9.757 3.01125C11.5101 2.94938 12.0258 2.92875 16.4381 2.92875L16.5 2.97ZM16.5 8.02725C11.8181 8.02725 8.02725 11.8223 8.02725 16.5C8.02725 21.1819 11.8223 24.9728 16.5 24.9728C21.1819 24.9728 24.9728 21.1777 24.9728 16.5C24.9728 11.8181 21.1777 8.02725 16.5 8.02725ZM16.5 22C13.4613 22 11 19.5387 11 16.5C11 13.4613 13.4613 11 16.5 11C19.5387 11 22 13.4613 22 16.5C22 19.5387 19.5387 22 16.5 22ZM27.2882 7.69312C27.2882 8.78625 26.4 9.67312 25.3083 9.67312C24.2151 9.67312 23.3282 8.78487 23.3282 7.69312C23.3282 6.60137 24.2165 5.7145 25.3083 5.7145C26.3986 5.71313 27.2882 6.60137 27.2882 7.69312Z" fill="#F8BAB4"/>
</svg>
