<svg width="20" height="33" viewBox="0 0 20 33" fill="none" xmlns="http://www.w3.org/2000/svg">
<path d="M13.0027 23.98C14.7558 23.5813 16.4306 22.8883 17.9527 21.9312C19.0995 21.164 19.4075 19.613 18.6402 18.4663C17.9032 17.3635 16.4347 17.0308 15.2921 17.7059C11.7858 19.899 7.33083 19.899 3.82458 17.7059C2.65995 16.9716 1.1227 17.3209 0.387079 18.4827C0.387079 18.4855 0.387079 18.4882 0.384329 18.4896C-0.349921 19.6542 -0.000671305 21.1929 1.16395 21.9271L1.1667 21.9299C2.68608 22.8855 4.35945 23.5799 6.1112 23.9759L1.34683 28.7402C0.374704 29.6959 0.356829 31.2565 1.30833 32.2286L1.34958 32.2699C1.82258 32.7566 2.46333 32.9986 3.10133 32.9986C3.7407 32.9986 4.38008 32.7566 4.85445 32.2699L9.55833 27.5894L14.2388 32.2726C15.2288 33.2283 16.8101 33.2021 17.7671 32.2108C18.6993 31.2441 18.6993 29.711 17.7671 28.7458L13.0027 23.98ZM9.55833 17.0335C14.2608 17.028 18.0696 13.2192 18.0765 8.51813C18.0765 3.8225 14.254 0 9.55833 0C4.8627 0 1.0402 3.8225 1.0402 8.52087C1.04708 13.2234 4.8572 17.0321 9.55833 17.0349V17.0335ZM9.55833 4.99263C11.5053 4.99538 13.0825 6.57388 13.0838 8.5195C13.0838 10.4665 11.5053 12.0436 9.55833 12.0464C7.6127 12.0436 6.03558 10.4679 6.03145 8.52087C6.0342 6.5725 7.6127 4.99538 9.55833 4.99125V4.99263Z" fill="#F8BAB4"/>
</svg>
