<svg width="33" height="33" viewBox="0 0 33 33" fill="none" xmlns="http://www.w3.org/2000/svg">
<path d="M21.5655 0H11.4345C2.189 0 0 2.189 0 11.4345V21.5655C0 30.811 2.189 33 11.4345 33H21.5655C30.811 33 33 30.811 33 21.5655V11.4345C33 2.189 30.7876 0 21.5655 0ZM26.642 23.5441H24.244C23.3365 23.5441 23.056 22.8223 21.4252 21.1695C20.0049 19.7945 19.3765 19.6089 19.0273 19.6089C18.5378 19.6089 18.3975 19.7491 18.3975 20.4242V22.5899C18.3975 23.1729 18.2119 23.5221 16.6746 23.5221C14.1364 23.5221 11.3176 21.9849 9.339 19.1194C6.358 14.9284 5.54125 11.7837 5.54125 11.132C5.54125 10.7827 5.6815 10.4569 6.35663 10.4569H8.75463C9.35962 10.4569 9.59338 10.736 9.82712 11.3877C11.0138 14.8115 12.9938 17.8159 13.8091 17.8159C14.1116 17.8159 14.2519 17.6756 14.2519 16.9084V13.3664C14.1584 11.7356 13.2963 11.5967 13.2963 11.0151C13.2963 10.7346 13.53 10.4555 13.9012 10.4555H17.6742C18.1871 10.4555 18.3728 10.7346 18.3728 11.3396V16.115C18.3728 16.6265 18.6065 16.8135 18.7454 16.8135C19.0479 16.8135 19.305 16.6265 19.8633 16.0683C21.5875 14.135 22.8209 11.154 22.8209 11.154C22.9845 10.8048 23.2636 10.4789 23.87 10.4789H26.268C26.9899 10.4789 27.1535 10.8501 26.9899 11.363C26.6874 12.7614 23.7531 16.9056 23.7531 16.9056C23.4974 17.325 23.4039 17.5106 23.7531 17.9781C24.0089 18.3274 24.8476 19.0492 25.4073 19.701C26.4316 20.8656 27.2222 21.8433 27.4326 22.5198C27.6664 23.1935 27.3158 23.5427 26.6406 23.5427L26.642 23.5441Z" fill="#F8BAB4"/>
</svg>
