<svg viewBox="0 0 36 35" fill="none" xmlns="http://www.w3.org/2000/svg">
<g clip-path="url(#clip0)">
<path d="M32.0889 13.125H2.9223C2.5198 13.125 2.19312 13.4517 2.19312 13.8542V34.2709C2.19312 34.6733 2.5198 35 2.9223 35H32.089C32.4915 35 32.8182 34.6733 32.8182 34.2708V13.8542C32.8181 13.4517 32.4914 13.125 32.0889 13.125ZM31.3598 33.5417H3.65143V14.5833H31.3597V33.5417H31.3598Z" fill="black"/>
<path d="M33.5472 7.29175H1.46381C1.06131 7.29175 0.734619 7.61844 0.734619 8.02094V13.8543C0.734619 14.2568 1.06131 14.5834 1.46381 14.5834H33.5471C33.9496 14.5834 34.2763 14.2568 34.2763 13.8543V8.02094C34.2763 7.61837 33.9497 7.29175 33.5472 7.29175ZM32.818 13.1251H2.193V8.75006H32.818V13.1251Z" fill="black"/>
<path d="M17.5056 7.29175C17.1031 7.29175 16.7764 7.61844 16.7764 8.02094V34.2709C16.7764 34.6734 17.1031 35.0001 17.5056 35.0001C17.9081 35.0001 18.2348 34.6734 18.2348 34.2709V8.02094C18.2348 7.61837 17.9081 7.29175 17.5056 7.29175Z" fill="black"/>
<path d="M18.2508 7.84875C17.5013 4.33268 13.03 0.56 10.0506 0.0554394C9.86687 0.0189355 9.67874 0 9.48481 0C7.87624 0 6.56812 1.30812 6.56812 2.91669C6.56812 3.589 6.80293 4.24525 7.22874 4.76588C7.23455 4.77025 7.23893 4.77757 7.2433 4.78338C9.40893 7.54981 16.6175 8.61007 17.4371 8.72231C17.4706 8.72669 17.5041 8.72963 17.5363 8.72963C17.7389 8.72963 17.9314 8.6465 18.0714 8.49632C18.2333 8.32268 18.3004 8.08062 18.2508 7.84875ZM8.37205 3.85731C8.35893 3.83838 8.34437 3.82231 8.32974 3.80625C8.13143 3.55106 8.02643 3.24331 8.02643 2.91669C8.02643 2.11169 8.68124 1.45838 9.48474 1.45838C9.58099 1.45838 9.6758 1.46856 9.78805 1.489C11.9741 1.85944 15.2743 4.50481 16.4599 7.08606C13.9211 6.61794 9.63499 5.52562 8.37205 3.85731Z" fill="black"/>
<path d="M25.5264 0C25.3325 0 25.1444 0.0189355 24.981 0.0510645C21.9827 0.56 17.5114 4.33269 16.7619 7.84875C16.7123 8.08063 16.7794 8.32269 16.9412 8.49625C17.0798 8.645 17.2737 8.72956 17.475 8.72956C17.507 8.72956 17.5406 8.72662 17.5727 8.72375C18.3922 8.61143 25.6008 7.55125 27.7664 4.78481C27.7722 4.779 27.7766 4.77169 27.7825 4.76588C28.2083 4.24519 28.4431 3.58894 28.4431 2.91669C28.4431 1.30813 27.135 0 25.5264 0ZM26.6814 3.80769C26.6668 3.82375 26.6522 3.83975 26.6391 3.85875C25.3777 5.52419 21.0916 6.61938 18.5512 7.0875C19.7382 4.50331 23.0399 1.85938 25.2435 1.48606C25.3353 1.46856 25.4302 1.45838 25.5264 1.45838C26.33 1.45838 26.9847 2.11169 26.9847 2.91669C26.9848 3.24331 26.8798 3.54956 26.6814 3.80769Z" fill="black"/>
</g>
<defs>
<clipPath id="clip0">
<rect width="35" height="35" fill="white" transform="translate(0.00561523)"/>
</clipPath>
</defs>
</svg>
