<svg viewBox="0 0 29 33" fill="none" xmlns="http://www.w3.org/2000/svg">
<path d="M14.0056 16C9.59444 16 6.00562 12.4114 6.00562 8.00015C6.00562 3.58889 9.59444 0 14.0056 0C18.4168 0 22.0056 3.58889 22.0056 8.00015C22.0056 12.4114 18.4168 16 14.0056 16ZM14.0056 2.40001C10.9178 2.40001 8.40559 4.91194 8.40559 8.00015C8.40559 11.0881 10.9178 13.6 14.0056 13.6C17.0935 13.6 19.6056 11.0881 19.6056 8.00015C19.6056 4.91194 17.0935 2.40001 14.0056 2.40001Z" fill="black"/>
<path d="M26.8389 33H1.17228C0.52828 33 0.00561523 32.4773 0.00561523 31.8333V26.3888C0.00561523 22.3149 3.32048 19 7.39441 19H20.6168C24.6908 19 28.0056 22.3149 28.0056 26.3888V31.8333C28.0056 32.4773 27.483 33 26.8389 33ZM2.33895 30.6667H25.6723V26.3888C25.6723 23.6014 23.4042 21.3333 20.6168 21.3333H7.39441C4.60706 21.3333 2.33895 23.6014 2.33895 26.3888V30.6667Z" fill="black"/>
</svg>
