<svg viewBox="0 0 41 34" fill="none" xmlns="http://www.w3.org/2000/svg">
<g clip-path="url(#clip0)">
<path d="M15.4691 31.0501C15.2441 31.05 15.0267 30.9692 14.8565 30.8224C14.2795 30.325 0.710908 18.544 0.117054 9.94306C0.0326128 8.68447 0.20508 7.42187 0.623995 6.23183C1.04291 5.04178 1.69954 3.94909 2.55408 3.02002C3.40861 2.09094 4.44324 1.34485 5.59521 0.82698C6.74719 0.30911 7.99251 0.0302543 9.25566 0.00732422C10.415 0.014643 11.5612 0.251934 12.6279 0.705408C13.6946 1.15888 14.6603 1.8195 15.4691 2.64886C16.2779 1.81958 17.2437 1.15902 18.3103 0.705553C19.377 0.252085 20.5232 0.0147468 21.6825 0.00732422C22.9457 0.030129 24.1912 0.308893 25.3432 0.826708C26.4953 1.34452 27.5301 2.0906 28.3847 3.01968C29.2393 3.94877 29.896 5.0415 30.315 6.23161C30.734 7.42172 30.9065 8.6844 30.822 9.94306C30.2272 18.544 16.6558 30.3241 16.0817 30.8224C15.9114 30.9692 15.694 31.05 15.4691 31.0501ZM9.25566 1.88075C8.26344 1.89275 7.28419 2.10746 6.37823 2.51165C5.47227 2.91585 4.65878 3.50097 3.9879 4.23097C3.28546 4.97265 2.74503 5.85198 2.40088 6.81318C2.05673 7.77439 1.91636 8.79651 1.98868 9.81473C2.45776 16.6687 12.8178 26.4574 15.47 28.8582C18.1213 26.4583 28.4776 16.6687 28.9514 9.81473C29.0237 8.79665 28.8833 7.77468 28.5391 6.81363C28.195 5.85257 27.6546 4.97342 26.9521 4.23191C26.2811 3.50151 25.4674 2.91608 24.5611 2.51171C23.6548 2.10734 22.6751 1.89261 21.6825 1.88075C20.6196 1.89483 19.5738 2.15068 18.6248 2.62885C17.6757 3.10703 16.8483 3.79495 16.2055 4.64032C16.1177 4.75163 16.0057 4.84158 15.8779 4.9034C15.7502 4.96522 15.6101 4.99729 15.4681 4.99721C15.3262 4.99729 15.1861 4.96522 15.0584 4.9034C14.9306 4.84158 14.8186 4.75163 14.7307 4.64032C14.0882 3.79515 13.2611 3.10734 12.3124 2.62917C11.3637 2.151 10.3183 1.89504 9.25566 1.88075Z" fill="black"/>
<path d="M26.4004 33.7974C26.1754 33.7973 25.958 33.7165 25.7878 33.5698C23.368 31.4332 21.0994 29.1318 18.9983 26.6821C18.9182 26.5884 18.8574 26.4799 18.8193 26.3628C18.7812 26.2456 18.7666 26.1222 18.7764 25.9994C18.7861 25.8766 18.8199 25.757 18.8759 25.6472C18.932 25.5375 19.0091 25.4399 19.1029 25.3599C19.1967 25.28 19.3054 25.2192 19.4227 25.1812C19.54 25.1432 19.6637 25.1286 19.7867 25.1383C19.9096 25.148 20.0295 25.1818 20.1394 25.2378C20.2493 25.2937 20.347 25.3707 20.4271 25.4644C22.2907 27.6298 24.2855 29.6792 26.4004 31.6008C28.8265 29.3967 37.6442 21.0047 38.0495 15.138C38.1106 14.2653 37.9896 13.3894 37.694 12.5657C37.3985 11.7421 36.9349 10.9887 36.3327 10.3533C35.5539 9.50396 34.551 8.89111 33.4392 8.58509C32.3274 8.27906 31.1517 8.29226 30.047 8.62317C29.93 8.66167 29.8065 8.67678 29.6836 8.66763C29.5607 8.65848 29.4408 8.62526 29.3308 8.56985C29.2208 8.51444 29.1227 8.43794 29.0423 8.34471C28.9619 8.25148 28.9007 8.14334 28.8621 8.02648C28.8235 7.90962 28.8084 7.78632 28.8176 7.66362C28.8267 7.54092 28.86 7.42123 28.9155 7.31137C28.971 7.20151 29.0476 7.10364 29.141 7.02335C29.2344 6.94306 29.3427 6.88192 29.4597 6.84341C30.9051 6.40359 32.4454 6.37954 33.9039 6.77404C35.3623 7.16853 36.6798 7.96559 37.7052 9.07373C38.4839 9.89628 39.0831 10.8714 39.4647 11.9372C39.8463 13.003 40.0021 14.1364 39.9221 15.2654C39.4014 22.8153 27.5196 33.1295 27.0149 33.5651C26.8448 33.714 26.6266 33.7965 26.4004 33.7974Z" fill="black"/>
</g>
<defs>
<clipPath id="clip0">
<rect width="40" height="33.8462" fill="white" transform="translate(0.00561523)"/>
</clipPath>
</defs>
</svg>
