<svg viewBox="0 0 34 33" fill="none" xmlns="http://www.w3.org/2000/svg">
<path d="M32.8763 29.884L30.6108 23.291C31.7004 21.0883 32.2767 18.6333 32.2806 16.1629C32.2872 11.9089 30.6412 7.88643 27.6458 4.83677C24.65 1.78653 20.6578 0.0696333 16.4049 0.00215098C14.1767 -0.0336204 12.0146 0.376945 9.97527 1.22109C8.00836 2.03532 6.24448 3.21475 4.73267 4.72656C3.22079 6.23837 2.04137 8.00225 1.2272 9.96916C0.383056 12.0085 -0.0270584 14.1717 0.00819737 16.3988C0.0755507 20.6517 1.79251 24.6439 4.84275 27.6398C7.88648 30.6293 11.8986 32.2747 16.1434 32.2747C16.1517 32.2747 16.1605 32.2747 16.1688 32.2747C18.6392 32.2708 21.0943 31.6945 23.2969 30.6049L29.89 32.8703C30.1436 32.9575 30.4035 33 30.6605 33C31.2711 33 31.8651 32.7601 32.3155 32.3095C32.9555 31.6696 33.1704 30.7402 32.8763 29.884ZM30.932 30.9261C30.8671 30.991 30.7282 31.0895 30.5257 31.02L23.5394 28.6194C23.4361 28.584 23.3286 28.5663 23.2215 28.5663C23.0636 28.5663 22.9064 28.6045 22.764 28.6799C20.7449 29.748 18.4633 30.3146 16.1657 30.3181C8.46037 30.3305 2.08648 24.0719 1.96441 16.3678C1.90299 12.4917 3.37741 8.84871 6.11609 6.11004C8.85476 3.37143 12.4966 1.89726 16.3738 1.95856C24.0779 2.0807 30.336 8.45142 30.324 16.1599C30.3204 18.4575 29.7539 20.7391 28.6858 22.7581C28.5593 22.9971 28.5375 23.2778 28.6253 23.5335L31.0259 30.5198C31.0955 30.7221 30.997 30.8613 30.932 30.9261Z" fill="black"/>
</svg>
