<svg width="37" height="36" viewBox="0 0 37 36" fill="none" xmlns="http://www.w3.org/2000/svg">
<g clip-path="url(#clip0)">
<path d="M33.6578 14.087H30.7277C30.482 13.2848 30.1603 12.51 29.7698 11.772L31.8398 9.702C32.2827 9.25904 32.5269 8.66896 32.5269 8.04052C32.5269 7.41287 32.2827 6.82278 31.8398 6.37983L29.625 4.16504C28.7399 3.27991 27.1903 3.27757 26.3036 4.16504L24.2336 6.23504C23.4964 5.84452 22.7208 5.52365 21.9187 5.27713V2.34783C21.9187 1.05339 20.8653 0 19.5708 0H16.4404C15.146 0 14.0926 1.05339 14.0926 2.34783V5.27791C13.2904 5.52443 12.5156 5.8453 11.7776 6.23583L9.70683 4.16583C8.79118 3.25017 7.30109 3.25017 6.38544 4.16583L4.16988 6.38061C3.25501 7.29626 3.25501 8.78635 4.16988 9.702L6.23988 11.7728C5.84935 12.51 5.52848 13.2856 5.28196 14.0877H2.35344C1.05901 14.0877 0.00561523 15.1411 0.00561523 16.4356V19.566C0.00561523 20.8597 1.05901 21.913 2.35344 21.913H5.28353C5.53005 22.7152 5.85092 23.49 6.24144 24.228L4.17144 26.2988C3.25579 27.2144 3.25579 28.7045 4.17144 29.6202L6.38622 31.8357C7.30188 32.7506 8.79196 32.7506 9.70762 31.8357L11.7784 29.7657C12.5156 30.1563 13.2912 30.4771 14.0934 30.7237V33.6522C14.0934 34.9466 15.1467 36 16.4412 36H19.5716C20.866 36 21.9194 34.9466 21.9194 33.6522V30.7221C22.7216 30.4756 23.4972 30.1547 24.2344 29.7642L26.3044 31.835C27.1919 32.7217 28.7414 32.7201 29.6258 31.835L31.8406 29.6202C32.2835 29.1772 32.5277 28.5871 32.5277 27.9595C32.5277 27.331 32.2835 26.7417 31.8406 26.2988L29.7706 24.228C30.1611 23.4908 30.482 22.7152 30.7285 21.913H33.6578C34.9522 21.913 36.0056 20.8597 36.0056 19.5652V16.4348C36.0056 15.1403 34.9522 14.087 33.6578 14.087ZM34.4404 19.5652C34.4404 19.9964 34.0898 20.3478 33.6578 20.3478H30.136C29.7792 20.3478 29.4677 20.5897 29.3785 20.9348C29.1014 22.003 28.6796 23.0228 28.1232 23.965C27.9424 24.2726 27.9917 24.6639 28.2437 24.9159L30.7324 27.4054C30.8795 27.5525 30.9609 27.749 30.9609 27.9595C30.9609 28.17 30.8795 28.3664 30.7324 28.5136L28.5176 30.7283C28.2234 31.0226 27.7045 31.0226 27.4094 30.7283L24.9207 28.2397C24.6687 27.9869 24.2774 27.9383 23.9691 28.1191C23.0284 28.6748 22.0087 29.0974 20.9396 29.3737C20.5953 29.4621 20.3534 29.7736 20.3534 30.1304V33.6522C20.3534 34.0834 20.0028 34.4348 19.5708 34.4348H16.4404C16.0092 34.4348 15.6578 34.0834 15.6578 33.6522V30.1304C15.6578 29.7736 15.416 29.4621 15.0708 29.3729C14.0026 29.0966 12.9828 28.6748 12.0406 28.1183C11.9169 28.0448 11.78 28.0096 11.643 28.0096C11.4403 28.0096 11.24 28.0878 11.0889 28.2389L8.60022 30.7276C8.29422 31.0328 7.79805 31.0328 7.49205 30.7276L5.27727 28.5128C4.97127 28.2068 4.97127 27.7098 5.27727 27.4046L7.76596 24.9159C8.01875 24.6631 8.06805 24.2718 7.88648 23.965C7.33083 23.0228 6.90822 22.0038 6.63196 20.9348C6.54353 20.5897 6.23205 20.3478 5.87518 20.3478H2.35344C1.92222 20.3478 1.57083 19.9964 1.57083 19.5652V16.4348C1.57083 16.0036 1.92222 15.6522 2.35344 15.6522H5.87518C6.23205 15.6522 6.54353 15.4103 6.63275 15.0652C6.90901 13.997 7.33083 12.9772 7.88727 12.035C8.06883 11.7274 8.01953 11.3361 7.76675 11.0841L5.27805 8.59539C4.97283 8.29017 4.97283 7.79322 5.27805 7.48722L7.49283 5.27243C7.79883 4.96643 8.29501 4.96722 8.60101 5.27243L11.0897 7.76113C11.3425 8.01391 11.733 8.064 12.0406 7.88165C12.9828 7.326 14.0018 6.90339 15.0708 6.62713C15.416 6.53791 15.6578 6.22643 15.6578 5.86957V2.34783C15.6578 1.91661 16.0092 1.56522 16.4404 1.56522H19.5708C20.0028 1.56522 20.3534 1.91661 20.3534 2.34783V5.86957C20.3534 6.22643 20.5953 6.53791 20.9404 6.62713C22.0094 6.90339 23.0292 7.326 23.9699 7.88165C24.2782 8.06322 24.6695 8.0147 24.9215 7.76113L27.4102 5.27243C27.7053 4.97661 28.2241 4.97739 28.5184 5.27243L30.7332 7.48722C30.8803 7.63435 30.9617 7.83156 30.9617 8.0413C30.9617 8.25104 30.8803 8.44826 30.7332 8.59539L28.2445 11.0841C27.9925 11.3369 27.9424 11.7282 28.124 12.035C28.6804 12.9772 29.1022 13.9962 29.3793 15.0652C29.4677 15.4103 29.7792 15.6522 30.136 15.6522H33.6578C34.0898 15.6522 34.4404 16.0036 34.4404 16.4348V19.5652Z" fill="black"/>
<path d="M18.0056 10.9565C14.1223 10.9565 10.9622 14.1167 10.9622 18C10.9622 21.8833 14.1223 25.0435 18.0056 25.0435C21.8897 25.0435 25.0491 21.8833 25.0491 18C25.0491 14.1167 21.8897 10.9565 18.0056 10.9565ZM18.0056 23.4783C14.9848 23.4783 12.5274 21.0209 12.5274 18C12.5274 14.9791 14.9848 12.5218 18.0056 12.5218C21.0257 12.5218 23.4839 14.9791 23.4839 18C23.4839 21.0209 21.0257 23.4783 18.0056 23.4783Z" fill="black"/>
</g>
<defs>
<clipPath id="clip0">
<rect width="36" height="36" fill="white" transform="translate(0.00561523)"/>
</clipPath>
</defs>
</svg>
