<svg width="21" height="18" viewBox="0 0 21 18" fill="none" xmlns="http://www.w3.org/2000/svg">
<path fill-rule="evenodd" clip-rule="evenodd" d="M10.3591 3.23107L9.32709 2.19908C7.28789 0.159877 3.98169 0.159877 1.94249 2.19908C-0.0967147 4.23828 -0.0967146 7.54448 1.94249 9.58368L10.3341 17.9753L10.3358 17.9736L10.3608 17.9986L18.7524 9.60698C20.7916 7.56778 20.7916 4.26158 18.7524 2.22237C16.7132 0.183172 13.407 0.183172 11.3678 2.22237L10.3591 3.23107ZM10.3358 15.2883L15.0223 10.6018L16.3997 9.27165L16.401 9.27302L17.4097 8.26432C18.7074 6.96665 18.7074 4.8627 17.4097 3.56503C16.1121 2.26736 14.0081 2.26736 12.7104 3.56503L10.3601 5.91536L10.3532 5.90849L10.3522 5.90951L7.98444 3.54173C6.68676 2.24406 4.58282 2.24406 3.28514 3.54173C1.98747 4.83941 1.98747 6.94335 3.28514 8.24103L5.69608 10.652L5.69778 10.6503L10.3358 15.2883Z" fill="black"/>
</svg>
