<svg xmlns="http://www.w3.org/2000/svg" fill="none" viewBox="0 0 139 119">
  <defs/>
  <path fill="#fff" d="M63.266 33.39C46.69 14.128 40.568 15.452 33.443 13.3c-3.7-2.486-12.262-1.65-20.365 3.886-11.46 7.83-7.155 32.967-7.155 32.967l11.804 23.524s70.142 1.324 106.775-4.15c6.269-24.339 5.914-45.682-5.461-55.961-9.582-8.658-15.265-4.45-23.682-2.825C73.848 14.896 63.763 36.24 63.266 33.39z"/>
  <path fill="#FF4D4F" d="M72.84 65.094c-22.104-7.507-30.394-6.011-42.423-4.837-9.422 2.99-19.546-4.881-18.301 2.83 4.955 7.764 8.03 14.051 8.03 14.051l10.271 11.543s11.36 23.276 46.874 21.536c53.264-24.547 50.253-54.659 50.253-54.659s-9.063-3.048-17.565-3.513c-21.302 2.08-21.475 14.281-37.138 13.049z"/>
  <path fill="#000" d="M128.766 60.396c-3.355 14.178-10.64 22.032-19.8 31.19-9.39 11.189-21.363 19.45-34.923 20.576C48.85 114.253 10.757 79.429 3.78 46.797c1.004-1.802 2.426-.02 2.802 1.37 8.94 33.024 42.124 60.6 67.192 61.235 13.468-1.117 23.466-9.713 33.106-19.666 8.511-8.799 13.911-13.684 19.028-29.59.113-1.442 2.971-1.182 2.858.25z"/>
  <path fill="#000" d="M125.263 63.29C143.3-15.508 79.275 9.174 67.723 35.047 52.413 7.78-2.904-.211 6.68 49.184c-.898 1.128-2.803-1.388-2.803-1.388C-4.905.336 48.421 1.93 67.232 30.016c14.565-24.555 76.912-46.634 61.636 30.267-.291 1.465-2.522 3.959-3.605 3.007z"/>
  <path fill="#000" d="M87.336 87.315c11.241-4.746 18.551-10.67 23.326-26.194.922-.838 2.722 1.753 1.806 2.585-3.074 12.59-11.153 21.746-23.799 26.416-1.142.482-2.475-2.324-1.333-2.807z"/>
</svg>
