<svg xmlns="http://www.w3.org/2000/svg" fill="none" viewBox="0 0 129 106">
  <defs/>
  <path fill="#fff" d="M68.116 26.457C82.722 5.7 88.938 6.423 95.812 3.593 99.249.763 107.84.763 116.433 5.48c12.152 6.67 10.311 32.077 10.311 32.077l-5.851 18.953-8.531 13.55s-61.418 4.396-98.365 2.509C2.454 53.499-1.834 25.674 8.477 14.353 17.16 4.817 25.49 6.258 34.015 7.057c21.786 2.042 33.882 22.28 34.1 19.4z"/>
  <path fill="#FF4D4F" d="M62.39 71.007c24.142-9.705 24.174-2.183 33.978-2.183 4.471 2.183 17.394-4.862 16.988 0-.405 4.862-1.564 2.183-1.564 2.183l-1.118 2.27s-17.885 28.4-49.875 30.909c-34.174-11.543-45.798-30.02-45.798-30.02s4.662-4.538 11.624-5.342c17.702 0 26.067 6.082 35.765 2.183z"/>
  <path fill="#000" d="M5.625 59.658c4.71 13.768 12.713 20.868 22.708 29.084 10.42 10.21 23.123 17.262 36.712 17.065 25.246-.366 59.904-37.486 63.673-70.602.161-1.413-2.582-.976-2.821.442-5.684 33.695-35.995 64.327-60.852 67.39-13.497.197-24.27-7.38-34.818-16.337-9.314-7.921-15.155-12.253-21.786-27.569-.252-1.421-3.068-.886-2.816.527z"/>
  <path fill="#000" d="M9.388 62.194C-16.187-14.386 53.23 7.34 67.856 30.541c12.574-28.59 62.777-43.906 58.041 6.127 1.002 1.033 2.594-1.969 2.594-1.969 4.127-48.03-44.661-38.95-60.635-9.206-16.86-22.996-84.99-40.9-62.343 34.062.431 1.429 2.89 3.69 3.875 2.64zM63.981 91.715c-9.822-.305-16.745-3.092-23.468-15.542-.89-.434-1.83 2.572-.946 3.004C44.386 89.56 52.53 95.02 63.453 94.752c.998.031 1.526-3.006.528-3.037z"/>
</svg>
