<svg width="130" height="106" viewBox="0 0 130 106" fill="none" xmlns="http://www.w3.org/2000/svg">
<path d="M65.8578 25.5164C51.2332 4.73524 41.2666 4.47631 33.8502 2.58718C30.4091 -0.246588 21.8063 0.757046 13.2036 5.48003C1.03755 12.1593 2.88037 37.5963 2.88037 37.5963L12.3433 62.1558C12.3433 62.1558 82.0255 70.2867 119.017 68.3975C127.62 44.7826 129.34 23.5057 119.017 12.1706C110.322 2.62304 104.257 6.25895 95.7215 7.05902C73.9089 9.10364 66.0758 28.4003 65.8578 25.5164Z" fill="white"/>
<path d="M69.8287 31.0368C47.7468 16.9847 37.7095 25.0145 25.163 25.0145C15.1258 28.0257 2.07084 12.1214 2.57922 23.5089C3.08761 34.8964 4.58667 45.0889 4.58667 45.0889L14.6239 66.1671C14.6239 66.1671 31.6872 101.799 68.5554 104.309C133.063 83.7322 127.041 28.5275 127.041 28.5275C127.041 28.5275 118.213 23.3843 109.476 21.5014C87.2572 21.5014 85.8882 35.0517 69.8287 31.0368Z" fill="#FF4D4F"/>
<path d="M124.147 59.7241C119.431 73.5091 111.418 80.6177 101.412 88.8437C90.9796 99.0668 78.2604 106.126 64.655 105.929C39.3781 105.563 4.84771 67.204 1.07413 34.048C2.2481 32.3525 3.4897 34.2643 3.7291 35.6837C9.41934 69.4198 39.7673 100.089 64.655 103.156C78.1679 103.353 88.9535 95.768 99.5149 86.7991C108.84 78.8685 114.689 74.5314 121.328 59.1968C121.58 57.7735 124.399 58.3098 124.147 59.7241Z" fill="black"/>
<path d="M120.379 62.2636C145.985 -14.4095 79.8662 3.93627 65.8548 28.5646C53.2658 -0.0600306 -1.01295 -13.3872 3.72891 36.7059C2.7249 37.7406 1.07397 35.0517 1.07397 35.0517C-3.05777 -13.0376 49.8617 -6.27021 65.8548 23.5102C82.7363 0.486453 146.934 -15.4318 124.259 59.6212C123.827 61.0513 121.365 63.3163 120.379 62.2636Z" fill="black"/>
<path d="M28.5205 46.5007C30.3444 58.6794 34.2834 67.3239 48.1655 75.9513C48.75 77.0648 45.7915 78.1586 45.21 77.0522C33.7548 70.8342 26.8697 60.6134 25.4676 47.0839C25.2823 45.8465 28.3352 45.2632 28.5205 46.5007Z" fill="black"/>
</svg>
