<svg xmlns="http://www.w3.org/2000/svg" fill="none" viewBox="0 0 130 106">
  <defs/>
  <path fill="#fff" d="M65.858 25.516C51.233 4.736 41.267 4.476 33.85 2.587 30.41-.247 21.806.757 13.204 5.48 1.038 12.16 2.88 37.596 2.88 37.596l9.463 24.56s69.682 8.13 106.674 6.241c8.603-23.614 10.323-44.891 0-56.226-8.695-9.548-14.76-5.912-23.295-5.112C73.909 9.104 66.076 28.4 65.858 25.516z"/>
  <path fill="#FF4D4F" d="M69.829 31.037c-22.082-14.052-32.12-6.022-44.666-6.022-10.037 3.01-23.092-12.894-22.584-1.506.509 11.387 2.008 21.58 2.008 21.58l10.037 21.078S31.687 101.8 68.555 104.31c64.508-20.577 58.486-75.781 58.486-75.781s-8.828-5.144-17.565-7.027c-22.219 0-23.588 13.55-39.647 9.536z"/>
  <path fill="#000" d="M124.147 59.724c-4.716 13.785-12.729 20.894-22.735 29.12-10.432 10.223-23.152 17.282-36.757 17.085-25.277-.366-59.807-38.725-63.58-71.881 1.173-1.696 2.415.216 2.654 1.636 5.69 33.736 36.038 64.405 60.926 67.472 13.513.197 24.299-7.388 34.86-16.357 9.325-7.93 15.174-12.268 21.813-27.602.252-1.424 3.071-.887 2.819.527z"/>
  <path fill="#000" d="M120.379 62.264c25.606-76.673-40.513-58.328-54.524-33.7C53.265-.06-1.013-13.386 3.729 36.707c-1.004 1.035-2.655-1.654-2.655-1.654-4.132-48.09 48.788-41.322 64.78-11.542C82.737.486 146.935-15.432 124.26 59.621c-.432 1.43-2.894 3.695-3.88 2.643zM28.52 46.5c1.824 12.18 5.763 20.824 19.646 29.451.584 1.114-2.374 2.208-2.956 1.101-11.455-6.218-18.34-16.439-19.742-29.968-.186-1.238 2.867-1.82 3.052-.583z"/>
</svg>
