<svg viewBox="0 0 114 145" fill="none" xmlns="http://www.w3.org/2000/svg">
<path d="M106.005 28.0595C94.9914 11.9999 77.8552 0.904205 55.5045 0.0594819C22.9595 -1.1919 1.28328 17.3669 0.0176368 49.5595C-0.0118496 50.3162 0.00454484 51.3028 0.00454484 52.0595C0.00454055 53.5595 0.00454158 54.0595 0.504541 54.0595C1.00454 54.0595 0.837194 53.1701 1.00454 50.5595C3.50454 11.5595 26.9297 1.09737 54.4886 1.09625C55.1379 1.09625 55.7878 1.10859 56.4365 1.13383C82.0045 1.13383 111.623 24.9693 113.005 50.5595C113.836 70.6478 99.0373 93.3047 80.5045 101.56C65.3934 107.94 55.6389 116.808 55.5045 133.06V140.56C55.5045 143.038 55.5045 144.06 56.0045 144.06C57.0045 144.06 57.0045 143.429 57.0176 140.56V132.709C57.1787 119.989 61.5045 111.344 78.7962 103.622C108.481 90.366 124.385 54.8625 106.005 28.0595Z" fill="#FF434B"/>
</svg>
