<svg width="101" height="93" viewBox="0 0 101 93" fill="none" xmlns="http://www.w3.org/2000/svg">
<path d="M73.3962 0.50003C61.5 0.50003 55.5753 8.49524 50.286 16C44.9968 8.49524 39.5 1.27985 26.3199 0.426636C11.2725 0.426636 0.5 16.8509 0.5 29.0092C0.5 44.5121 10.5 60 25 73.5C32.6984 80.3005 40.4704 87.8974 49.5003 92.8093C49.9933 93.0623 50.5787 93.0623 51.0718 92.8093C60.0984 87.8974 67.8043 80.7997 75.5 74C91 59 100.786 44.5121 100.786 29.0092C100.786 13.1023 88.4435 0.50003 73.3962 0.50003ZM50.286 92.5C48.5 92 1.2839 61.7311 1.2839 29.0092C1.2839 14.9196 13.0956 1.27985 26.3199 1.27985C35.2788 1.29568 44.3929 7.39315 48.795 15.172C49.1241 15.6736 49.6852 16.8509 50.286 16.8509C50.8869 16.8509 51.4479 15.6736 51.7771 15.172C56.1791 7.39315 64.4371 1.01586 73.3962 1.00003C87 1.00003 100 11.5 100 29C100 61.722 52 92 50.286 92.5Z" fill="#FF434B"/>
</svg>
