<svg width="28" height="25" viewBox="0 0 28 25" fill="none" xmlns="http://www.w3.org/2000/svg">
<path fill-rule="evenodd" clip-rule="evenodd" d="M13.0177 3.69527L11.667 2.20643C8.99802 -0.735477 4.67073 -0.735477 2.00174 2.20643C-0.667248 5.14834 -0.667248 9.91812 2.00174 12.86L12.985 24.9664L12.9872 24.9639L13.02 25L24.0032 12.8936C26.6722 9.95173 26.6722 5.18195 24.0032 2.24004C21.3342 -0.701871 17.0069 -0.701871 14.338 2.24004L13.0177 3.69527ZM12.9872 21.0899L19.1211 14.3288L20.9239 12.4099L20.9257 12.4118L22.2459 10.9566C23.9444 9.0845 23.9444 6.04918 22.2459 4.17706C20.5475 2.30493 17.7937 2.30493 16.0953 4.17706L13.0191 7.56783L13.0101 7.55791L13.0087 7.55939L9.90969 4.14345C8.21124 2.27133 5.45751 2.27133 3.75907 4.14345C2.06062 6.01557 2.06062 9.05089 3.75907 10.923L6.91459 14.4012L6.91683 14.3987L12.9872 21.0899Z" fill="#FF434B"/>
<path d="M23.4146 16.2514H25.7073V18.7516H27.9999V21.2518H25.7073V23.752H23.4146V21.2518H21.1219V18.7516H23.4146V16.2514Z" fill="#FF434B"/>
</svg>
