<svg width="118" height="167" viewBox="0 0 118 167" fill="none" xmlns="http://www.w3.org/2000/svg">
<g filter="url(#filter0_d)">
<path d="M20.8162 116.329C-0.272079 95.0766 -0.272079 60.6198 20.8162 39.3675L41.254 18.7707C51.0325 8.91615 66.9675 8.91616 76.746 18.7708L97.1838 39.3675C118.272 60.6198 118.272 95.0766 97.1838 116.329C76.0955 137.581 41.9045 137.581 20.8162 116.329Z" fill="#FF434B"/>
<path d="M21.1712 115.977C0.276281 94.9194 0.276281 60.777 21.1712 39.7196L41.6089 19.1229C51.1919 9.46542 66.8081 9.46544 76.3911 19.1229L96.8288 39.7196C117.724 60.777 117.724 94.9194 96.8288 115.977C75.9361 137.032 42.0639 137.032 21.1712 115.977Z" stroke="#FF434B"/>
</g>
<path d="M46.8562 90.9814C39.7352 83.9352 39.7352 72.5199 46.8562 65.4736L59.7752 52.6901L72.6943 65.4736C79.8152 72.5199 79.8152 83.9352 72.6943 90.9814C65.5617 98.0392 53.9888 98.0392 46.8562 90.9814Z" stroke="white" stroke-width="4"/>
<path d="M56.8025 69.4197H60.6701V77.1549H66.4715V81.0225H56.8025V69.4197Z" fill="white"/>
<defs>
<filter id="filter0_d" x="0" y="11.3799" width="118" height="155.888" filterUnits="userSpaceOnUse" color-interpolation-filters="sRGB">
<feFlood flood-opacity="0" result="BackgroundImageFix"/>
<feColorMatrix in="SourceAlpha" type="matrix" values="0 0 0 0 0 0 0 0 0 0 0 0 0 0 0 0 0 0 127 0"/>
<feMorphology radius="20" operator="erode" in="SourceAlpha" result="effect1_dropShadow"/>
<feOffset dy="30"/>
<feGaussianBlur stdDeviation="12.5"/>
<feColorMatrix type="matrix" values="0 0 0 0 0.972549 0 0 0 0 0.729412 0 0 0 0 0.705882 0 0 0 0.5 0"/>
<feBlend mode="normal" in2="BackgroundImageFix" result="effect1_dropShadow"/>
<feBlend mode="normal" in="SourceGraphic" in2="effect1_dropShadow" result="shape"/>
</filter>
</defs>
</svg>
