<svg width="25" height="54" viewBox="0 0 25 54" fill="none" xmlns="http://www.w3.org/2000/svg">
<path d="M12.64 53.45C11.14 53.45 9.82 53 8.68 52.1C7.54 51.2 6.97 49.79 6.97 47.87L7.06 46.88C7.72 40.7 8.5 34.28 9.4 27.62C10.36 20.9 11.17 15.74 11.83 12.14L4.81 14.12L3.73 14.3C2.59 14.3 1.69 13.85 1.03 12.95C0.37 12.05 0.0400002 11.03 0.0400002 9.89L0.13 9.08C0.25 7.94 0.61 7.01 1.21 6.29C1.81 5.57 2.95 4.85 4.63 4.13C6.37 3.41 8.95 2.63 12.37 1.79L16.15 0.889995C17.53 0.589995 18.67 0.439995 19.57 0.439995C21.31 0.439995 22.6 0.889997 23.44 1.79C24.34 2.69 24.79 3.95 24.79 5.57C24.79 6.29 24.7 7.07 24.52 7.91C23.56 12.59 21.73 25.91 19.03 47.87C18.55 51.59 16.42 53.45 12.64 53.45Z" fill="#F8BAB4"/>
</svg>
