<svg width="43" height="54" viewBox="0 0 43 54" fill="none" xmlns="http://www.w3.org/2000/svg">
<path d="M38.84 42.92C40.1 42.92 41.06 43.34 41.72 44.18C42.38 45.02 42.71 46.07 42.71 47.33C42.71 48.89 42.2 50.3 41.18 51.56C40.22 52.76 38.9 53.36 37.22 53.36C34.34 53.36 30.05 53.15 24.35 52.73C23.21 52.67 21.11 52.55 18.05 52.37C14.99 52.19 12.59 52.1 10.85 52.1C10.07 52.1 8.93 52.37 7.43 52.91C7.13 52.97 6.53 53.12 5.63 53.36C4.79 53.6 4.07 53.72 3.47 53.72C2.51 53.72 1.7 53.3 1.04 52.46C0.44 51.56 0.14 50.24 0.14 48.5C0.14 46.58 0.59 45.11 1.49 44.09C2.39 43.01 3.8 42.05 5.72 41.21C9.8 39.41 13.64 37.13 17.24 34.37C20.9 31.55 23.81 28.52 25.97 25.28C28.19 22.04 29.3 18.95 29.3 16.01C29.3 13.67 28.76 11.96 27.68 10.88C26.66 9.74 25.01 9.17 22.73 9.17C20.09 9.17 17.96 9.89 16.34 11.33C14.78 12.77 14 14.78 14 17.36C14 20.9 12.23 22.67 8.69 22.67C7.01 22.67 5.69 22.19 4.73 21.23C3.83 20.27 3.38 18.89 3.38 17.09C3.38 14.09 4.16 11.33 5.72 8.81C7.28 6.29 9.62 4.28 12.74 2.78C15.86 1.22 19.67 0.439995 24.17 0.439995C29.57 0.439995 33.8 1.79 36.86 4.49C39.92 7.19 41.45 10.94 41.45 15.74C41.45 20.3 39.44 25.07 35.42 30.05C31.46 35.03 25.73 39.44 18.23 43.28L38.84 42.92Z" fill="#F8BAB4"/>
</svg>
