<svg width="42" height="54" viewBox="0 0 42 54" fill="none" xmlns="http://www.w3.org/2000/svg">
<path d="M29.95 27.35C33.01 27.77 35.56 29.03 37.6 31.13C39.7 33.23 40.75 35.87 40.75 39.05C40.75 42.11 39.82 44.72 37.96 46.88C36.1 49.04 33.58 50.69 30.4 51.83C27.28 52.91 23.86 53.45 20.14 53.45C13.6 53.45 8.68 52.31 5.38 50.03C2.14 47.75 0.52 44.9 0.52 41.48C0.52 39.5 1 37.97 1.96 36.89C2.92 35.75 4.21 35.18 5.83 35.18C7.21 35.18 8.23 35.54 8.89 36.26C9.61 36.92 10.21 38.09 10.69 39.77C11.11 41.39 11.98 42.62 13.3 43.46C14.62 44.3 16.66 44.72 19.42 44.72C22.06 44.72 24.22 44.24 25.9 43.28C27.64 42.26 28.51 40.73 28.51 38.69C28.51 36.59 27.7 35.06 26.08 34.1C24.46 33.08 21.94 32.51 18.52 32.39C17.26 32.33 16.3 31.91 15.64 31.13C15.04 30.29 14.74 29.3 14.74 28.16C14.74 26.72 14.98 25.7 15.46 25.1C16 24.44 16.9 23.99 18.16 23.75C22.12 23.15 24.97 22.01 26.71 20.33C28.51 18.59 29.41 16.52 29.41 14.12C29.41 10.82 27.13 9.17 22.57 9.17C17.53 9.17 14.56 11.15 13.66 15.11C13.24 16.73 12.61 17.9 11.77 18.62C10.99 19.28 9.88 19.61 8.44 19.61C6.82 19.61 5.56 19.16 4.66 18.26C3.82 17.3 3.4 16.04 3.4 14.48C3.4 12.08 4.24 9.8 5.92 7.64C7.6 5.48 9.97 3.74 13.03 2.42C16.15 1.1 19.78 0.439995 23.92 0.439995C29.68 0.439995 34.09 1.55 37.15 3.77C40.21 5.99 41.74 9.29 41.74 13.67C41.74 16.55 40.63 19.25 38.41 21.77C36.25 24.23 33.43 26.09 29.95 27.35Z" fill="#F8BAB4"/>
</svg>
