<svg width="46" height="55" viewBox="0 0 46 55" fill="none" xmlns="http://www.w3.org/2000/svg">
<path d="M40.91 32.75C44.09 32.75 45.68 34.1 45.68 36.8C45.68 38.96 45.08 40.46 43.88 41.3C42.68 42.14 40.79 42.56 38.21 42.56H36.32L35.96 47.33C35.78 50.09 35.18 51.95 34.16 52.91C33.2 53.87 31.61 54.35 29.39 54.35C26.21 54.35 24.62 52.4 24.62 48.5C24.62 47.84 24.65 47.33 24.71 46.97L25.16 42.56C16.46 42.56 9.86 42.53 5.36 42.47C4.04 42.47 2.87 41.87 1.85 40.67C0.83 39.47 0.32 37.91 0.32 35.99C0.32 34.85 0.53 33.65 0.95 32.39C3.59 24.71 7.55 15.98 12.83 6.2C13.97 4.1 15.11 2.63 16.25 1.79C17.45 0.889997 19.28 0.439995 21.74 0.439995C23.06 0.439995 24.05 0.739997 24.71 1.34C25.43 1.94 25.79 2.72 25.79 3.68C25.79 4.7 25.49 5.72 24.89 6.74C19.01 17.48 14.87 26.15 12.47 32.75H26.33C27.05 27.17 28.04 21.86 29.3 16.82C29.78 14.96 30.56 13.55 31.64 12.59C32.72 11.57 34.22 11.06 36.14 11.06C39.2 11.06 40.73 12.38 40.73 15.02C40.73 15.8 40.67 16.4 40.55 16.82C39.47 21.92 38.51 27.23 37.67 32.75H40.91Z" fill="#F8BAB4"/>
</svg>
