<svg width="41" height="54" viewBox="0 0 41 54" fill="none" xmlns="http://www.w3.org/2000/svg">
<path d="M21.56 10.07C19.82 10.07 18.56 10.1 17.78 10.16C17 12.8 16.13 16.4 15.17 20.96C22.91 21.38 28.79 22.97 32.81 25.73C36.83 28.49 38.84 32.24 38.84 36.98C38.84 40.1 38.03 42.92 36.41 45.44C34.85 47.9 32.54 49.85 29.48 51.29C26.42 52.73 22.82 53.45 18.68 53.45C13.1 53.45 8.6 52.37 5.18 50.21C1.82 48.05 0.14 45.14 0.14 41.48C0.14 39.5 0.59 37.97 1.49 36.89C2.45 35.75 3.77 35.18 5.45 35.18C6.77 35.18 7.79 35.54 8.51 36.26C9.23 36.92 9.83 38.09 10.31 39.77C11.33 43.43 14.42 45.26 19.58 45.26C21.8 45.26 23.63 44.6 25.07 43.28C26.51 41.9 27.23 40.22 27.23 38.24C27.23 32.96 21.62 30.14 10.4 29.78C8 29.72 6.26 29.33 5.18 28.61C4.16 27.89 3.65 26.78 3.65 25.28C3.65 24.56 3.74 23.81 3.92 23.03L4.91 18.71C5.27 16.97 5.87 14.3 6.71 10.7H6.53C5.33 10.7 4.37 10.43 3.65 9.89C2.93 9.29 2.57 8.48 2.57 7.46C2.57 4.52 4.01 2.6 6.89 1.7C9.59 0.859995 14.45 0.439995 21.47 0.439995C26.51 0.439995 30.17 0.529996 32.45 0.709997C34.73 0.829996 36.5 1.04 37.76 1.34C38.96 1.64 39.8 2.06 40.28 2.6C40.76 3.08 41 3.83 41 4.85C41 6.89 40.58 8.36 39.74 9.26C38.96 10.1 37.61 10.52 35.69 10.52C34.73 10.52 32.87 10.46 30.11 10.34C25.07 10.16 22.22 10.07 21.56 10.07Z" fill="#F8BAB4"/>
</svg>
