<svg width="43" height="54" viewBox="0 0 43 54" fill="none" xmlns="http://www.w3.org/2000/svg">
<path d="M24.8 9.35C21.32 9.35 18.47 10.73 16.25 13.49C14.09 16.19 12.74 20.24 12.2 25.64C13.76 23.84 15.53 22.58 17.51 21.86C19.49 21.08 21.68 20.69 24.08 20.69C27.08 20.69 29.75 21.32 32.09 22.58C34.49 23.84 36.35 25.61 37.67 27.89C38.99 30.11 39.65 32.6 39.65 35.36C39.65 38.78 38.84 41.87 37.22 44.63C35.66 47.33 33.35 49.49 30.29 51.11C27.29 52.67 23.72 53.45 19.58 53.45C13.4 53.45 8.66 51.53 5.36 47.69C2.12 43.79 0.5 38.42 0.5 31.58C0.5 25.46 1.52 20.06 3.56 15.38C5.66 10.64 8.6 6.98 12.38 4.4C16.22 1.76 20.69 0.439995 25.79 0.439995C30.41 0.439995 34.19 1.52 37.13 3.68C40.13 5.78 41.84 8.57 42.26 12.05L42.35 13.04C42.35 14.6 41.84 15.83 40.82 16.73C39.86 17.57 38.48 17.99 36.68 17.99C35.36 17.99 34.28 17.66 33.44 17C32.66 16.28 31.97 15.08 31.37 13.4C30.89 12.14 30.08 11.15 28.94 10.43C27.86 9.71 26.48 9.35 24.8 9.35ZM21.38 29.69C18.8 29.69 16.79 30.41 15.35 31.85C13.91 33.29 13.19 35.21 13.19 37.61C13.19 39.77 13.79 41.48 14.99 42.74C16.19 44 17.87 44.63 20.03 44.63C22.43 44.63 24.35 43.88 25.79 42.38C27.29 40.82 28.04 38.81 28.04 36.35C28.04 34.31 27.44 32.69 26.24 31.49C25.04 30.29 23.42 29.69 21.38 29.69Z" fill="#F8BAB4"/>
</svg>
