<svg width="43" height="54" viewBox="0 0 43 54" fill="none" xmlns="http://www.w3.org/2000/svg">
<path d="M39.29 0.619998C40.25 0.619998 41.03 1.07 41.63 1.97C42.29 2.81 42.62 4.1 42.62 5.84C42.62 7.46 42.29 8.69 41.63 9.53C40.97 10.31 40.13 11.03 39.11 11.69C38.15 12.35 37.46 12.83 37.04 13.13C30.68 17.51 26.24 22.52 23.72 28.16C21.26 33.8 19.76 39.83 19.22 46.25C18.98 48.77 18.29 50.6 17.15 51.74C16.07 52.88 14.69 53.45 13.01 53.45C11.33 53.45 9.92 52.88 8.78 51.74C7.64 50.54 7.07 48.47 7.07 45.53C7.07 42.11 7.7 38.36 8.96 34.28C10.28 30.14 12.35 26.03 15.17 21.95C18.05 17.87 21.68 14.24 26.06 11.06L3.92 11.42C2.66 11.42 1.7 11 1.04 10.16C0.38 9.32 0.0500002 8.27 0.0500002 7.01C0.0500002 5.45 0.53 4.07 1.49 2.87C2.51 1.61 3.86 0.979999 5.54 0.979999C8.48 0.979999 12.77 1.19 18.41 1.61C19.55 1.67 21.65 1.79 24.71 1.97C27.77 2.15 30.17 2.24 31.91 2.24C32.69 2.24 33.83 1.97 35.33 1.43C35.63 1.37 36.2 1.22 37.04 0.979999C37.94 0.739999 38.69 0.619998 39.29 0.619998Z" fill="#F8BAB4"/>
</svg>
