<svg width="41" height="54" viewBox="0 0 41 54" fill="none" xmlns="http://www.w3.org/2000/svg">
<path d="M31.02 26.27C36.9 29.27 39.84 33.29 39.84 38.33C39.84 41.33 38.97 43.97 37.23 46.25C35.55 48.53 33.15 50.3 30.03 51.56C26.91 52.82 23.28 53.45 19.14 53.45C13.32 53.45 8.76 52.31 5.46 50.03C2.22 47.75 0.6 44.57 0.6 40.49C0.6 37.91 1.38 35.54 2.94 33.38C4.5 31.22 7.02 29.21 10.5 27.35C8.34 25.91 6.69 24.2 5.55 22.22C4.47 20.18 3.93 18.05 3.93 15.83C3.93 11.03 5.73 7.28 9.33 4.58C12.93 1.82 17.82 0.439995 24 0.439995C29.1 0.439995 33.18 1.55 36.24 3.77C39.36 5.99 40.92 8.99 40.92 12.77C40.92 15.53 40.14 18.02 38.58 20.24C37.02 22.4 34.5 24.41 31.02 26.27ZM23.28 9.17C20.76 9.17 18.75 9.71 17.25 10.79C15.75 11.81 15 13.31 15 15.29C15 17.99 17.28 20.39 21.84 22.49C24.9 20.99 27.03 19.58 28.23 18.26C29.49 16.94 30.12 15.56 30.12 14.12C30.12 10.82 27.84 9.17 23.28 9.17ZM19.59 44.72C22.41 44.72 24.63 44.24 26.25 43.28C27.87 42.32 28.68 41 28.68 39.32C28.68 38 27.96 36.74 26.52 35.54C25.14 34.34 22.56 32.9 18.78 31.22C16.02 32.48 14.1 33.77 13.02 35.09C11.94 36.41 11.4 37.85 11.4 39.41C11.4 41.09 12.12 42.41 13.56 43.37C15.06 44.27 17.07 44.72 19.59 44.72Z" fill="#F8BAB4"/>
</svg>
