<svg width="326" height="318" viewBox="0 0 326 318" fill="none" xmlns="http://www.w3.org/2000/svg">
<mask id="mask0" mask-type="alpha" maskUnits="userSpaceOnUse" x="0" y="0" width="326" height="318">
<rect width="325.429" height="317.603" fill="#EAF3FA"/>
</mask>
<g mask="url(#mask0)">
<path d="M275.223 217.615C299.16 195.068 305.55 137.787 256.469 118.823C228.142 107.876 199.942 121.542 181.232 149.581C198.198 158.291 213.386 176.851 223.081 210.926C234.327 250.455 212.959 286.828 183.397 312.708C200.18 335.16 223.131 346.639 243.075 346.362C283.9 345.803 279.958 327.879 266.325 305.969C248.252 276.905 247.023 244.181 275.223 217.615Z" fill="#FFECDD"/>
<path d="M181.232 149.581C173.801 145.766 166.033 143.834 158.237 143.324C139.599 142.1 125.302 143.834 112.905 129.858C102.047 117.621 93.0049 109.936 76.4325 116.841C33.9413 134.548 27.092 203.002 65.8069 231.928C117.152 270.288 79.3062 310.892 90.0038 328.721C98.8575 343.477 118.331 352.918 154.017 333.671C164.272 328.139 174.15 320.797 183.391 312.708C173.541 299.53 172.561 283.129 168.812 262.542C160.679 217.786 163.143 176.69 181.232 149.581Z" fill="#F8BAB4"/>
<path d="M223.081 210.92C213.386 176.845 198.198 158.291 181.232 149.575C163.143 176.685 160.978 219.785 169.123 264.53C172.871 285.122 173.547 299.518 183.397 312.697C212.959 286.827 234.327 250.449 223.081 210.92Z" fill="#F8BAB4"/>
<path d="M74.4707 231.962C64.8362 243.025 54.9139 253.834 44.7202 264.376C44.3437 264.764 44.5818 265.639 45.2074 265.556C53.7622 264.459 61.5805 266.979 69.7254 269.199C72.6767 270.002 76.0155 271.768 77.5548 268.291C83.3521 255.218 88.8669 241.935 95.7716 229.404C96.0762 228.845 95.5723 228.275 94.9909 228.385C88.6953 229.581 82.4052 230.777 76.1096 231.968C75.2348 232.134 75.6058 233.468 76.4751 233.302C82.7707 232.106 89.0607 230.91 95.3564 229.72C95.0961 229.382 94.8359 229.044 94.5756 228.701C90.9932 235.202 87.7042 241.719 84.9191 248.601C82.6323 254.26 79.6367 259.598 77.3001 265.223C76.7298 266.597 76.4529 268.922 74.7531 269.011C73.8173 269.061 72.6268 268.54 71.7354 268.302C70.0134 267.842 68.3024 267.366 66.5804 266.89C59.4321 264.924 52.6824 263.202 45.2074 264.16C45.368 264.553 45.5341 264.946 45.6947 265.34C55.8939 254.792 65.8107 243.983 75.4452 232.926C76.0321 232.272 75.0576 231.287 74.4707 231.962Z" fill="black"/>
<path d="M204.796 174.176C204.796 174.176 181.49 177.265 166.701 176.989C153.993 176.751 131.408 177.548 131.408 177.548C131.408 177.548 118.828 264.723 118.828 268.621C118.828 272.519 121.004 281.113 122.039 286.057C124.104 295.919 142.687 395.713 142.687 395.713C142.687 395.713 170.217 392.274 170.676 392.274C171.136 392.274 165.4 327.812 162.415 312.901C159.431 297.989 155.992 274.13 155.992 267.48C155.992 260.825 167.232 210.128 167.232 210.814C167.232 211.501 175.948 266.788 177.326 295.005C178.705 323.222 179.619 401.682 179.619 401.682L206.689 403.974C206.689 403.974 208.755 281.932 208.295 276.423C207.836 270.913 204.796 174.176 204.796 174.176Z" fill="#F8BAB4"/>
<path d="M155.256 64.9135L155.76 70.6C155.76 70.6 159.808 78.6896 164.359 78.6896C168.911 78.6896 171.563 73.2522 171.563 73.2522L171.939 68.7008C171.939 68.7008 168.778 72.4937 165.998 72.3663C163.219 72.239 159.298 69.2047 158.036 67.4383C156.773 65.672 155.256 64.9135 155.256 64.9135Z" fill="#F8BAB4"/>
<path d="M171.009 39.8861C171.009 40.9382 171.009 41.9847 171.009 43.0367C171.009 43.9282 172.393 43.9282 172.393 43.0367C172.393 41.9847 172.393 40.9382 172.393 39.8861C172.393 38.9947 171.009 38.9947 171.009 39.8861Z" fill="black"/>
<path d="M156.74 40.5561C156.901 41.5528 157.061 42.5494 157.222 43.5461C157.36 44.4209 158.695 44.05 158.556 43.1807C158.396 42.184 158.235 41.1873 158.074 40.1907C157.936 39.3103 156.602 39.6813 156.74 40.5561Z" fill="black"/>
<path d="M164.542 40.1961C164.642 41.2094 164.741 42.2227 164.846 43.2415C164.891 43.6623 165.256 44.061 165.721 43.9115C166.33 43.7177 167.117 43.8118 167.305 44.5537C167.549 45.5227 166.447 45.9878 165.815 45.3234C165.323 44.8029 164.509 45.3455 164.658 45.9989C164.752 46.3865 164.835 46.536 165.123 46.8128C165.76 47.4385 166.74 46.4585 166.103 45.8328C166.065 45.7664 166.031 45.6944 165.993 45.6279C165.605 45.8549 165.223 46.0764 164.835 46.3034C166.109 47.6434 168.396 47.0454 168.684 45.1573C168.972 43.247 167.067 42.0289 165.356 42.577C165.649 42.7985 165.937 43.02 166.231 43.247C166.131 42.2337 166.031 41.2205 165.926 40.2016C165.843 39.3157 164.453 39.3102 164.542 40.1961Z" fill="black"/>
<path d="M162.122 53.9446C164.603 54.5371 167.111 54.3765 169.475 53.402C170.289 53.0698 169.929 51.7298 169.11 52.0676C166.967 52.9479 164.752 53.1528 162.493 52.6102C161.624 52.4053 161.253 53.7397 162.122 53.9446Z" fill="black"/>
<path d="M152.781 35.6171C149.542 43.3634 149.686 52.2171 152.98 59.9302C155.4 65.5946 162.072 76.1427 169.459 71.8459C177 67.4606 180.339 56.8904 181.518 48.834C182.692 40.8274 180.079 33.5241 172.272 30.2849C168.263 28.6238 163.894 28.3636 159.713 29.6149C156.629 30.5396 154.691 32.5773 153.019 35.235C152.543 35.9936 153.739 36.6857 154.215 35.9327C156.164 32.832 158.423 31.1044 162.106 30.4953C166.723 29.7312 171.341 30.6836 175.206 33.4134C183.661 39.3878 180.339 52.6269 176.79 60.4784C174.985 64.4651 170.959 71.5802 165.86 71.5359C161.275 71.4971 157.139 65.0852 155.278 61.5415C151.137 53.6623 150.688 44.1884 154.127 35.9825C154.459 35.1631 153.119 34.8032 152.781 35.6171Z" fill="black"/>
<path d="M150.66 48.3355C148.113 47.4385 146.618 50.3233 146.685 52.5326C146.773 55.5503 149.021 57.7097 151.579 58.9666C152.377 59.3598 153.08 58.1638 152.277 57.7706C150.782 57.0397 149.337 56.0542 148.573 54.5204C147.942 53.2413 147.654 48.7508 150.289 49.6755C151.131 49.9634 151.496 48.629 150.66 48.3355Z" fill="black"/>
<path d="M181.701 51.2647C182.116 50.0354 183.506 50.8162 183.888 51.5858C184.248 52.3112 184.182 53.1472 183.866 53.8726C183.268 55.2513 181.906 56.0819 180.417 56.0044C179.525 55.9545 179.531 57.3443 180.417 57.3886C183.274 57.5381 185.942 54.9191 185.455 51.9955C185.25 50.7608 184.42 49.5205 183.119 49.2769C181.884 49.0443 180.76 49.7364 180.367 50.8992C180.079 51.7464 181.419 52.1063 181.701 51.2647Z" fill="black"/>
<path d="M154.708 63.8061C155.19 70.3453 154.99 77.034 153.733 83.4847C153.562 84.354 154.896 84.725 155.068 83.8501C156.347 77.2777 156.585 70.4726 156.087 63.8061C156.031 62.9257 154.642 62.9146 154.708 63.8061Z" fill="black"/>
<path d="M196.014 82.7206C192.83 73.8115 192.232 64.9135 192.482 55.5614C192.681 48.0698 192.731 40.3013 190.881 32.9814C188.988 25.4787 183.489 18.4799 176.252 15.4843C167.748 11.9628 158.34 12.7324 150.167 16.7136C142.405 20.4954 136.79 26.3037 132.41 33.668C127.698 41.5915 124.287 50.3345 118.507 57.5935C115.284 61.6411 111.453 65.218 107.089 68.0087C102.571 70.899 97.4937 72.4771 92.6709 74.7362C85.0076 78.3187 78.3466 84.4814 75.3677 92.5267C72.0787 101.414 73.8782 111.469 79.5979 118.927C84.8913 125.832 92.7152 129.459 101.342 129.752C102.233 129.785 102.233 128.401 101.342 128.368C93.1803 128.086 85.7717 124.675 80.7497 118.158C75.3455 111.148 73.5847 101.735 76.547 93.3185C79.7087 84.3429 87.4384 78.3463 95.9599 74.8026C104.166 71.3918 111.403 67.6709 117.455 60.9656C128.28 48.9613 131.408 30.6171 145.173 21.2152C152.72 16.0602 161.673 13.2585 170.776 15.2518C179.807 17.2341 187.105 24.0114 189.469 33.0091C191.457 40.5727 191.308 48.6734 191.081 56.4363C190.809 65.6167 191.573 74.3652 194.691 83.086C194.979 83.9221 196.313 83.5622 196.014 82.7206Z" fill="black"/>
<path d="M98.6896 137.775C95.4892 142.964 91.209 147.36 87.8425 152.421C84.6919 157.155 82.6986 162.554 81.2866 168.03C80.2401 172.11 79.3099 176.219 78.2136 180.283C77.073 184.525 75.2347 188.456 73.2524 192.354C72.8482 193.146 74.0442 193.849 74.4484 193.052C76.3144 189.386 78.1471 185.66 79.2656 181.684C80.4229 177.592 81.3586 173.434 82.3885 169.309C83.8115 163.611 85.7661 158.035 89.033 153.113C92.3939 148.047 96.6796 143.661 99.88 138.467C100.356 137.714 99.1602 137.017 98.6896 137.775Z" fill="black"/>
<path d="M73.3189 192.133C69.1274 198.212 62.8318 202.636 56.6469 206.473C49.7754 210.737 44.1166 215.886 38.5242 221.706C38.1366 222.11 38.3525 222.675 38.8287 222.863C43.2639 224.591 47.6492 222.625 51.204 219.884C53.5905 218.046 55.7776 215.975 58.3302 214.358C60.8772 212.747 63.6125 211.473 66.3478 210.233C66.0322 210.15 65.7166 210.067 65.401 209.984C68.4297 215.017 61.6967 221.174 66.2315 225.98C66.5471 226.313 67.0898 226.207 67.3168 225.842C69.598 222.182 71.7353 218.367 74.2436 214.857C76.248 212.049 79.5924 210.139 80.5891 206.706C81.63 203.129 80.4949 199.336 81.2701 195.715C82.228 191.247 85.1627 187.493 88.0585 184.093C92.8148 178.506 98.0086 173.213 101.857 166.922C106.059 160.045 106.619 151.607 111.154 144.996C111.657 144.259 110.461 143.567 109.958 144.298C105.495 150.81 104.946 159.06 100.893 165.837C96.7572 172.747 90.9323 178.34 85.8825 184.547C83.7507 187.166 81.7629 189.956 80.5891 193.151C79.3155 196.64 79.8083 199.951 79.6422 203.561C79.5093 206.468 78.5791 208.273 76.4474 210.294C75.1849 211.49 74.0498 212.736 73.0476 214.153C70.5504 217.669 68.402 221.479 66.1208 225.139C66.4807 225.095 66.8461 225.045 67.206 225C63.2083 220.765 69.5759 214.247 66.5914 209.281C66.3866 208.937 65.9879 208.877 65.6446 209.032C61.5084 210.909 57.5328 212.924 53.9891 215.798C49.7976 219.198 45.0579 223.81 39.1942 221.523C39.2938 221.911 39.399 222.293 39.4987 222.68C42.5219 219.535 45.5507 216.363 48.9061 213.561C52.3225 210.704 56.1209 208.478 59.8639 206.086C65.3567 202.575 70.7774 198.234 74.5039 192.83C75.0188 192.099 73.8228 191.402 73.3189 192.133Z" fill="black"/>
<path d="M49.5042 219.364C48.0092 221.18 46.863 223.223 45.5618 225.172C45.3071 225.554 45.5674 226.069 45.9771 226.191C49.4599 227.237 52.0789 225.045 54.2605 222.558C57.4277 218.948 60.4233 215.189 63.5462 211.534C64.122 210.859 63.1475 209.879 62.5661 210.554C60.3236 213.179 58.1309 215.842 55.9106 218.483C53.5905 221.246 50.5729 226.124 46.3426 224.851C46.481 225.188 46.6194 225.526 46.7578 225.87C47.9926 224.02 49.0668 222.066 50.4843 220.338C51.0435 219.657 50.0745 218.671 49.5042 219.364Z" fill="black"/>
<path d="M58.2248 216.196C58.0975 217.88 58.0366 219.557 58.0477 221.241C58.0477 221.601 58.3633 221.949 58.7398 221.933C60.4729 221.85 61.6689 220.781 62.361 219.214C62.8317 218.157 62.9535 216.994 63.3355 215.909C63.9501 214.164 65.2237 212.913 66.6633 211.817C67.361 211.285 66.6744 210.078 65.9656 210.621C64.5703 211.684 63.2414 212.852 62.4496 214.452C61.5138 216.357 61.5748 220.405 58.7398 220.543C58.9724 220.776 59.1994 221.003 59.4319 221.235C59.4209 219.546 59.4817 217.874 59.6091 216.191C59.6755 215.311 58.2913 215.316 58.2248 216.196Z" fill="black"/>
<path d="M229.691 140.046C232.404 144.376 236.235 147.797 239.164 151.961C242.094 156.125 244.076 160.865 245.488 165.737C246.828 170.366 247.669 175.078 249.657 179.502C251.861 184.397 254.474 189.131 256.905 193.915C257.309 194.707 258.505 194.01 258.101 193.218C255.67 188.434 253.046 183.705 250.853 178.805C248.672 173.927 247.907 168.639 246.28 163.584C244.879 159.242 242.996 155.012 240.366 151.269C237.437 147.105 233.605 143.683 230.892 139.353C230.416 138.589 229.214 139.287 229.691 140.046Z" fill="black"/>
<path d="M256.7 193.312C259.723 199.519 265.255 203.467 270.958 207.016C277.874 211.313 283.594 216.435 289.219 222.293C289.319 221.905 289.424 221.523 289.524 221.135C283.66 223.422 278.92 218.81 274.729 215.41C271.191 212.536 267.204 210.521 263.073 208.644C262.73 208.489 262.337 208.544 262.127 208.893C259.142 213.86 265.51 220.371 261.512 224.613C261.872 224.657 262.237 224.707 262.597 224.751C260.166 220.848 257.918 216.706 255.133 213.035C254.076 211.639 252.83 210.521 251.606 209.286C249.79 207.448 249.347 205.687 249.491 203.201C249.685 199.907 250.72 196.629 249.74 193.362C248.827 190.316 246.606 187.98 244.458 185.743C238.788 179.846 232.935 173.511 228.539 166.596C226.252 163.002 224.63 159.193 223.517 155.079C222.459 151.175 221.507 147.41 219.198 144.027C218.699 143.296 217.498 143.988 218.002 144.724C220.599 148.534 221.379 152.88 222.675 157.216C223.749 160.793 225.338 164.143 227.343 167.288C231.518 173.855 236.994 179.901 242.337 185.532C245.061 188.406 248.367 191.296 248.766 195.499C249.092 198.893 247.714 202.249 248.145 205.648C248.588 209.092 251.429 210.659 253.489 213.151C256.551 216.861 258.86 221.363 261.401 225.438C261.628 225.803 262.176 225.908 262.486 225.576C267.021 220.77 260.294 214.613 263.317 209.58C263.001 209.663 262.686 209.746 262.37 209.829C264.961 211.008 267.558 212.21 269.989 213.705C272.702 215.377 275.006 217.542 277.514 219.48C281.069 222.221 285.448 224.192 289.889 222.459C290.365 222.271 290.581 221.706 290.194 221.302C285.244 216.152 280.227 211.241 274.181 207.387C267.868 203.362 261.307 199.613 257.891 192.609C257.509 191.817 256.313 192.515 256.7 193.312Z" fill="black"/>
<path d="M278.162 220.587C279.513 222.154 280.781 223.782 281.971 225.477C282.109 225.139 282.248 224.801 282.386 224.458C278.062 225.759 274.734 220.482 272.514 217.559C270.709 215.178 268.97 212.764 267.043 210.477C266.467 209.796 265.493 210.776 266.063 211.457C268.992 214.929 271.478 218.744 274.468 222.16C276.644 224.652 279.269 226.839 282.752 225.792C283.15 225.67 283.433 225.155 283.167 224.773C281.91 222.979 280.57 221.263 279.142 219.602C278.56 218.932 277.58 219.917 278.162 220.587Z" fill="black"/>
<path d="M269.12 215.803C269.247 217.487 269.308 219.164 269.297 220.848C269.529 220.615 269.756 220.388 269.989 220.155C267.176 220.017 267.209 215.958 266.279 214.065C265.493 212.464 264.158 211.296 262.763 210.233C262.054 209.69 261.362 210.892 262.065 211.429C263.505 212.525 264.768 213.777 265.393 215.521C265.781 216.606 265.892 217.769 266.368 218.827C267.071 220.382 268.25 221.457 269.989 221.545C270.365 221.562 270.681 221.213 270.681 220.853C270.692 219.164 270.631 217.492 270.504 215.809C270.437 214.923 269.053 214.917 269.12 215.803Z" fill="black"/>
<path d="M150.461 80.7937C154.531 85.9044 159.115 90.2344 166.048 88.6508C170.876 87.5489 176.408 84.2599 177.216 78.9554C177.349 78.0861 176.014 77.7096 175.882 78.59C175.151 83.4127 170.079 86.3363 165.682 87.3163C159.326 88.7338 155.118 84.4315 151.441 79.8136C150.887 79.1215 149.913 80.1016 150.461 80.7937Z" fill="black"/>
<path d="M150.743 79.415C137.089 79.9244 124.193 87.0949 116.508 98.3683C108.318 110.389 105.356 125.35 95.6495 136.424C95.3173 136.806 95.4281 137.438 95.9541 137.582C103.252 139.542 108.988 144.481 115.361 148.279C117.399 149.497 119.215 151.059 121.336 149.42C123.645 147.642 125.616 145.012 127.626 142.897C128.241 142.249 127.261 141.269 126.646 141.917C124.857 143.8 123.113 146.12 121.076 147.725C119.237 149.171 118.119 148.301 116.436 147.316C115.035 146.491 113.667 145.61 112.316 144.713C107.244 141.358 102.272 137.847 96.3251 136.253C96.4247 136.64 96.5299 137.022 96.6296 137.41C105.472 127.316 108.822 114.105 115.444 102.682C122.825 89.9409 135.86 81.3585 150.749 80.8048C151.635 80.7661 151.64 79.3818 150.743 79.415Z" fill="black"/>
<path d="M125.611 112.875C128.54 135.3 125.932 157.836 123.258 180.145C123.191 180.693 123.883 180.975 124.299 180.743C128.307 178.511 133.003 178.329 137.488 178.046C142.045 177.758 146.607 177.692 151.17 177.642C160.395 177.548 169.619 177.515 178.844 177.382C194.807 177.155 211.834 175.693 224.369 164.685C225.039 164.098 224.059 163.118 223.389 163.705C209.735 175.704 190.793 175.898 173.611 176.053C164.724 176.136 155.838 176.153 146.956 176.313C139.525 176.446 130.312 175.809 123.601 179.547C123.95 179.746 124.293 179.945 124.642 180.145C127.316 157.836 129.924 135.295 126.995 112.875C126.884 112.006 125.5 111.995 125.611 112.875Z" fill="black"/>
<path d="M199.519 105.899C200.998 117.438 202.758 128.999 206.612 140.023C208.484 145.383 210.809 150.571 213.495 155.571C215.726 159.724 219.292 162.664 223.495 164.735C224.292 165.128 224.995 163.932 224.192 163.539C219.591 161.275 216.374 158.124 214.01 153.589C211.402 148.584 209.165 143.384 207.393 138.025C203.949 127.615 202.293 116.746 200.903 105.904C200.793 105.029 199.408 105.018 199.519 105.899Z" fill="black"/>
<path d="M201.136 114.392C205.261 125.782 210.333 136.79 215.195 147.875C215.399 148.34 216.18 148.318 216.391 147.875C218.074 144.303 221.894 142.825 225.338 141.43C228.312 140.228 231.335 139.165 234.297 137.953C239.702 135.743 244.868 133.002 248.616 128.412C249.175 127.726 248.201 126.74 247.636 127.432C243.112 132.969 236.545 135.66 230.034 138.141C224.923 140.09 217.731 141.79 215.189 147.177C215.588 147.177 215.986 147.177 216.385 147.177C211.573 136.197 206.551 125.3 202.465 114.021C202.171 113.191 200.831 113.551 201.136 114.392Z" fill="black"/>
<path d="M176.252 78.9609C183.677 82.7316 192.371 81.962 199.862 85.4392C207.348 88.9165 211.606 96.4026 216.279 102.809C224.347 113.855 236.811 120.561 247.818 128.268C248.549 128.783 249.241 127.582 248.516 127.072C242.807 123.069 236.905 119.342 231.285 115.217C225.011 110.616 220 105.727 215.521 99.3649C211.523 93.6839 207.387 87.5987 200.97 84.4481C193.4 80.7272 184.491 81.5965 176.955 77.7704C176.158 77.3607 175.455 78.5567 176.252 78.9609Z" fill="black"/>
<path d="M131.104 177.299C128.33 194.364 126.048 211.512 123.584 228.622C122.267 237.78 120.711 246.927 119.576 256.107C118.668 263.444 117.693 270.781 119.697 277.995C121.89 285.88 123.402 293.997 125.102 301.998C128.219 316.672 131.198 331.378 134.016 346.118C137.145 362.446 140.212 378.819 142.405 395.309C142.521 396.178 143.905 396.189 143.789 395.309C139.902 366.051 133.85 337.015 127.809 308.139C125.799 298.538 123.856 288.903 121.491 279.38C121.098 277.79 120.567 276.224 120.246 274.618C119.443 270.587 119.952 266.417 120.312 262.364C121.104 253.5 122.649 244.712 123.922 235.908C126.735 216.495 129.293 197.033 132.444 177.67C132.582 176.795 131.248 176.418 131.104 177.299Z" fill="black"/>
<path d="M166.551 211.357C163.262 223.444 159.78 235.498 157.593 247.852C156.513 253.953 155.898 260.105 155.178 266.251C154.608 271.118 155.007 275.437 155.882 280.238C160.117 303.41 163.412 326.81 166.192 350.204C167.842 364.107 169.259 378.038 170.599 391.975C170.832 391.743 171.059 391.516 171.291 391.283C169.78 391.172 168.141 391.549 166.651 391.731C163.739 392.097 160.832 392.501 157.925 392.894C154.83 393.315 151.734 393.747 148.634 394.14C147.072 394.339 145.35 394.738 143.766 394.616C142.881 394.55 142.881 395.934 143.766 396.001C145.278 396.111 146.917 395.735 148.407 395.552C151.319 395.187 154.226 394.782 157.133 394.389C160.228 393.968 163.323 393.537 166.424 393.143C167.986 392.944 169.708 392.545 171.291 392.667C171.64 392.695 172.016 392.329 171.983 391.975C169.746 368.731 167.233 345.519 163.943 322.402C162.194 310.093 160.261 297.807 158.229 285.537C157.471 280.946 156.125 276.245 156.131 271.578C156.136 265.421 157.26 258.909 158.168 252.824C160.25 238.87 164.182 225.316 167.88 211.728C168.118 210.864 166.784 210.493 166.551 211.357Z" fill="black"/>
<path d="M204.264 173.467C204.187 208.378 207.315 243.228 207.476 278.134C207.548 293.77 206.839 309.424 206.684 325.066C206.518 342.103 206.479 359.135 206.507 376.173C206.523 385.63 206.573 395.087 206.623 404.544C206.629 405.436 208.013 405.436 208.007 404.544C207.88 380.215 207.819 355.885 208.013 331.555C208.14 315.398 208.699 299.247 208.855 283.089C209.015 266.124 208.173 249.142 207.476 232.199C206.673 212.636 205.604 193.046 205.649 173.467C205.649 172.576 204.264 172.576 204.264 173.467Z" fill="black"/>
<path d="M162.869 184.436C166.751 212.869 171.579 241.24 174.608 269.778C178.102 302.729 178.124 336.112 178.661 369.212C178.833 379.888 179.342 390.663 178.932 401.333C178.899 402.224 180.283 402.224 180.317 401.333C180.66 392.335 180.256 383.254 180.123 374.257C179.885 358.26 179.564 342.269 179.121 326.278C178.661 309.595 178.179 292.895 176.64 276.268C175.389 262.735 173.412 249.297 171.524 235.842C169.099 218.583 166.568 201.335 164.209 184.065C164.082 183.19 162.748 183.561 162.869 184.436Z" fill="black"/>
<path d="M170.992 69.7195C170.943 74.5478 171.302 79.3263 172.044 84.0937C172.183 84.9685 173.517 84.5976 173.379 83.7283C172.653 79.0827 172.327 74.4205 172.377 69.7251C172.388 68.8281 171.003 68.8281 170.992 69.7195Z" fill="black"/>
<path d="M107.15 128.451C106.729 130.096 106.84 131.103 108.086 132.222C109.138 133.169 108.645 133.861 108.485 135.134C108.385 135.915 108.457 136.568 108.928 137.216C109.448 137.93 110.65 137.238 110.124 136.519C109.282 135.372 110.572 133.722 110.113 132.405C109.98 132.034 109.786 131.74 109.487 131.48C109.288 131.308 108.955 131.22 108.784 131.037C108.086 130.289 108.28 129.636 108.485 128.828C108.706 127.953 107.372 127.587 107.15 128.451Z" fill="black"/>
<path d="M113.601 126.624C113.656 125.489 115.345 126.463 115.943 126.186C116.586 125.893 116.536 125.339 116.785 124.774C117.278 123.645 118.175 123.983 119.033 123.44C119.686 123.025 119.465 122.277 119.947 121.829C120.605 121.225 119.62 120.245 118.966 120.849C118.634 121.153 118.629 121.436 118.44 121.812C118.141 122.399 117.748 122.316 117.173 122.543C116.231 122.914 115.816 123.612 115.423 124.475C115.163 125.046 115.456 124.813 114.775 124.636C114.343 124.525 113.922 124.542 113.507 124.708C112.688 125.035 112.272 125.771 112.228 126.618C112.173 127.51 113.557 127.51 113.601 126.624Z" fill="black"/>
<path d="M113.922 110.256C113.235 111.635 113.695 112.903 114.913 113.761C115.162 113.938 115.633 114.127 115.793 114.398C116.059 114.852 115.766 115.301 115.799 115.76C115.821 116.081 115.899 116.314 116.098 116.569C116.164 116.652 116.652 116.967 116.652 116.962C116.868 117.825 118.202 117.46 117.986 116.596C117.864 116.098 117.432 116.109 117.244 115.749C117.023 115.323 117.382 114.57 117.183 114.066C116.724 112.892 114.365 112.466 115.112 110.96C115.511 110.162 114.32 109.459 113.922 110.256Z" fill="black"/>
<path d="M117.023 131.779C115.677 133.202 118.174 133.8 118.446 134.913C118.639 135.721 117.981 136.513 118.484 137.283C118.866 137.858 120.45 137.991 119.775 138.883C119.232 139.591 120.433 140.284 120.971 139.58C121.38 139.043 121.486 138.357 121.236 137.725C120.959 137.017 120.45 137.044 120.007 136.607C119.608 136.219 119.93 134.874 119.664 134.198C119.548 133.91 118.523 132.2 118.003 132.753C118.617 132.111 117.637 131.131 117.023 131.779Z" fill="black"/>
<path d="M121.319 107.499C121.258 106.712 121.07 105.732 122.133 105.456C122.51 105.356 122.881 105.528 123.274 105.367C123.733 105.184 124.021 104.797 124.187 104.337C124.298 104.027 124.259 103.584 124.42 103.307C124.642 102.925 125.179 102.853 125.533 102.704C126.17 102.432 126.496 101.995 126.535 101.314C126.579 100.422 125.195 100.428 125.151 101.314C125.145 101.397 123.944 101.751 123.767 101.879C123.529 102.05 123.368 102.272 123.235 102.532C123.086 102.831 123.052 103.152 122.975 103.468C122.825 104.11 122.753 104.033 122.128 104.071C120.229 104.182 119.808 105.86 119.93 107.499C120.001 108.379 121.386 108.39 121.319 107.499Z" fill="black"/>
<path d="M126.685 92.9586C126.768 93.623 126.984 94.1103 127.471 94.5698C128.014 95.0793 128.822 95.2841 129.31 95.8489C129.819 96.4469 129.503 97.2719 130.157 97.8312C130.949 98.5011 131.663 98.7946 132.111 99.8467C132.46 100.666 133.651 99.9574 133.307 99.149C133.025 98.4845 132.637 97.9142 132.089 97.4436C131.873 97.2553 131.48 97.1113 131.303 96.912C130.865 96.4247 131.159 96.2974 130.949 95.8323C130.727 95.334 130.472 94.9851 130.046 94.6418C129.47 94.1712 128.169 93.7947 128.064 92.9641C127.959 92.0837 126.574 92.0726 126.685 92.9586Z" fill="black"/>
<path d="M132.466 110.705C132.565 109.348 134.991 109.957 135.816 109.453C136.369 109.116 136.458 108.556 136.796 108.075C136.879 107.881 136.967 107.687 137.05 107.493C137.543 107.238 138.058 107.117 138.601 107.117C139.005 107.017 139.398 106.978 139.791 106.823C140.577 106.524 141.209 106.054 141.796 105.461C142.427 104.83 141.447 103.85 140.815 104.481C140.013 105.284 139.199 105.644 138.075 105.771C137.654 105.821 137.194 105.749 136.79 105.932C135.976 106.303 135.954 106.973 135.489 107.621C134.703 108.717 133.396 108.091 132.294 108.684C131.458 109.132 131.148 109.802 131.081 110.71C131.015 111.596 132.399 111.591 132.466 110.705Z" fill="black"/>
<path d="M142.693 93.7891C142.145 94.3428 141.967 95.0405 142.255 95.7935C142.676 96.8954 144.027 96.8788 144.514 97.7426C144.896 98.4181 144.398 99.149 145.135 99.8799C146.175 100.91 148.28 100.5 148.219 102.504C148.191 103.396 149.575 103.396 149.603 102.504C149.631 101.707 149.608 100.888 149.066 100.245C148.512 99.5919 147.742 99.5975 147.006 99.2929C145.561 98.7005 146.441 98.0028 145.91 97.0836C145.605 96.5632 143.058 95.3838 143.673 94.7636C144.298 94.1379 143.318 93.1579 142.693 93.7891Z" fill="black"/>
<path d="M139.26 92.4601C139.143 91.314 140.444 91.397 141.092 90.8156C141.596 90.3616 141.652 89.6473 142.078 89.1601C142.598 88.5621 143.285 88.9718 143.949 88.6451C144.758 88.2464 145.151 87.4103 146.054 87.0449C146.867 86.7182 146.513 85.3782 145.688 85.7105C145.201 85.9043 144.747 86.1147 144.326 86.4414C143.944 86.7404 143.65 87.2387 143.202 87.3771C142.277 87.6651 141.718 87.3218 141.048 88.2077C140.788 88.5565 140.694 88.9884 140.45 89.3372C140.029 89.9463 139.387 89.9408 138.822 90.3173C138.108 90.7935 137.787 91.6296 137.87 92.4601C137.964 93.3405 139.348 93.3516 139.26 92.4601Z" fill="black"/>
<path d="M153.755 95.6163C153.689 95.273 155.649 94.9684 155.965 94.758C156.596 94.3261 156.579 93.4347 157.094 93.0526C157.476 92.7702 158.296 93.0803 158.816 92.8201C159.303 92.5764 159.564 92.1778 159.536 91.6351C159.492 90.7492 158.107 90.7437 158.152 91.6351C158.135 91.3085 156.336 91.6961 156.131 91.8677C155.461 92.4269 155.743 93.3793 154.818 93.7558C154.176 94.0216 153.534 93.8943 152.969 94.3704C152.449 94.8134 152.299 95.3339 152.421 95.9873C152.587 96.8566 153.921 96.4856 153.755 95.6163Z" fill="black"/>
<path d="M137.621 112.947C137.742 113.878 138.091 114.669 138.933 115.168C139.525 115.522 140.649 115.627 140.804 116.497C140.904 117.045 140.5 117.587 140.677 118.213C140.993 119.326 141.851 119.182 142.67 119.702C143.418 120.179 143.174 120.716 143.506 121.319C143.634 121.552 144.387 121.917 144.415 122.1C144.542 122.98 145.876 122.604 145.749 121.735C145.688 121.336 145.527 121.325 145.345 121.015C145.223 120.91 145.084 120.821 144.935 120.755C144.835 120.456 144.769 120.157 144.736 119.846C144.392 118.866 143.8 118.889 143.041 118.368C141.574 117.366 142.737 116.358 142.1 115.107C141.491 113.905 139.215 114.514 139.005 112.947C138.889 112.078 137.499 112.067 137.621 112.947Z" fill="black"/>
<path d="M156.286 97.1889C156.109 98.324 156.657 98.8002 157.637 99.2653C158.373 99.6141 159.043 99.8633 159.088 100.782C159.099 101.065 159.021 101.336 159.071 101.613C159.149 102.073 159.293 102.344 159.697 102.587C160.228 102.909 160.943 102.82 161.446 103.235C162.044 103.734 161.862 104.409 162.166 104.996C162.332 105.312 162.582 105.517 162.914 105.616C163.119 105.677 163.373 105.705 163.589 105.649C164.32 105.461 163.805 105.411 164.149 104.902C163.65 105.644 164.846 106.336 165.345 105.6C165.804 104.924 165.405 104.055 164.592 103.933C164.298 103.889 164.088 104.06 163.838 104.055C162.953 104.027 163.595 104.094 163.312 103.584C163.036 103.086 162.991 102.715 162.521 102.311C162.022 101.884 161.391 101.857 160.887 101.508C160.483 101.225 160.666 101.469 160.511 101.004C160.439 100.782 160.527 100.417 160.477 100.162C160.356 99.5421 160.029 98.9663 159.525 98.5676C159.237 98.3351 157.576 97.8422 157.62 97.5543C157.753 96.685 156.419 96.314 156.286 97.1889Z" fill="black"/>
<path d="M131.469 124.597C131.679 124.32 131.79 124.032 131.906 123.711C132.133 123.08 132.161 122.886 132.853 123.03C133.517 123.174 134.187 123.379 134.802 122.947C135.383 122.543 135.223 121.845 135.627 121.419C136.064 120.948 136.862 121.43 137.211 120.611C137.559 119.802 136.363 119.093 136.015 119.913C136.042 119.852 135.251 119.929 135.145 119.974C134.896 120.079 134.702 120.24 134.547 120.467C134.37 120.721 134.359 121.037 134.215 121.297C133.888 121.906 133.534 121.746 132.936 121.629C132.327 121.513 131.74 121.535 131.253 121.962C130.671 122.471 130.716 123.307 130.267 123.9C129.73 124.603 130.932 125.295 131.469 124.597Z" fill="black"/>
<path d="M143.983 131.076C144.248 130.262 144.121 129.813 144.824 129.265C145.439 128.783 145.721 128.944 146.436 128.794C147.205 128.634 147.681 128.279 148.185 127.704C148.894 126.89 148.888 126.447 150.173 126.264C150.433 126.225 150.754 126.325 151.02 126.231C151.906 125.904 152.537 124.597 153.058 123.911C153.6 123.202 152.399 122.515 151.862 123.213C151.22 124.049 150.921 124.52 149.852 124.808C149.525 124.896 149.309 124.846 149.016 124.957C147.621 125.478 147.416 127.067 145.843 127.482C144.99 127.709 144.248 127.438 143.54 128.147C142.864 128.822 142.92 129.869 142.643 130.716C142.371 131.557 143.711 131.923 143.983 131.076Z" fill="black"/>
<path d="M152.764 114.653C152.748 114.193 152.681 113.8 153.23 113.888C153.567 113.944 153.833 114.038 154.182 113.96C154.752 113.833 155.073 113.385 155.223 112.842C155.295 112.593 155.267 112.261 155.383 112.028C155.599 111.602 156.076 111.69 156.474 111.552C157.094 111.336 157.41 110.887 157.488 110.262C157.598 109.381 156.214 109.387 156.103 110.262C156.103 110.267 155.101 110.428 154.996 110.478C154.713 110.599 154.481 110.788 154.309 111.042C154.077 111.391 154.06 112.488 153.733 112.593C153.512 112.665 153.008 112.393 152.726 112.427C152.432 112.46 152.172 112.576 151.956 112.77C151.436 113.235 151.352 113.988 151.38 114.647C151.413 115.544 152.798 115.544 152.764 114.653Z" fill="black"/>
<path d="M165.826 113.008C165.666 112.626 168.063 111.989 168.429 111.652C169.11 111.026 168.883 110.074 169.359 109.426C169.796 108.828 170.959 108.966 171.646 108.573C172.415 108.13 172.875 107.454 173.201 106.652C173.539 105.827 172.199 105.467 171.867 106.286C171.485 107.216 170.71 107.593 169.763 107.654C169.431 107.676 169.11 107.621 168.799 107.792C167.902 108.296 168.019 109.664 167.443 110.384C166.778 111.214 165.588 111.004 164.868 111.856C164.37 112.449 164.331 113.019 164.625 113.711C164.979 114.52 166.175 113.817 165.826 113.008Z" fill="black"/>
<path d="M168.683 98.5842C168.789 97.0283 170.101 97.809 171.037 97.1778C171.59 96.8013 171.762 96.1867 171.9 95.5665C171.983 95.2011 171.972 94.8522 172.321 94.6806C172.593 94.5532 172.997 94.6363 173.301 94.4923C174.06 94.1269 174.409 93.3074 174.702 92.5765C175.029 91.746 173.694 91.3916 173.368 92.2111C173.058 92.9918 172.665 93.0915 171.895 93.3517C171.64 93.4403 171.419 93.5178 171.214 93.7006C170.627 94.2266 170.793 94.9464 170.477 95.5887C170.095 96.3694 168.866 95.9043 168.185 96.4358C167.526 96.9563 167.349 97.7979 167.294 98.5897C167.238 99.4701 168.623 99.4701 168.683 98.5842Z" fill="black"/>
<path d="M134.238 132.715C133.789 133.456 133.717 134.398 134.359 135.084C134.902 135.666 135.777 135.472 135.843 136.552C135.876 137.05 135.517 137.465 135.649 138.013C135.926 139.176 137.283 138.938 137.532 140.09C137.765 141.17 137.405 141.823 138.418 142.582C139.132 143.119 139.819 141.917 139.116 141.386C138.551 140.959 139.049 139.436 138.723 138.766C138.34 137.975 137.814 138.263 137.288 137.798C136.773 137.343 137.488 136.136 137.133 135.389C136.862 134.813 135.063 134.027 135.434 133.407C135.893 132.648 134.697 131.95 134.238 132.715Z" fill="black"/>
<path d="M145.245 135.35C145.112 136.076 145.345 136.646 146.026 137C146.857 137.438 147.266 137.283 147.288 138.362C147.299 138.833 147.15 139.176 147.355 139.647C147.809 140.721 149.293 140.61 149.775 141.613C150.284 142.67 149.752 143.678 150.666 144.641C151.281 145.289 152.255 144.309 151.646 143.661C150.937 142.914 151.397 141.574 150.899 140.699C150.467 139.94 149.847 140.023 149.287 139.52C148.23 138.573 149.249 137.565 148.556 136.59C148.352 136.303 146.607 135.577 146.585 135.716C146.74 134.846 145.406 134.47 145.245 135.35Z" fill="black"/>
<path d="M137.848 150.472C137.98 150.317 138.113 150.162 138.252 150.001C138.468 150.062 138.684 150.128 138.9 150.189C139.071 150.239 139.226 150.317 139.409 150.333C139.68 150.367 139.963 150.333 140.212 150.2C140.882 149.852 140.987 149.126 141.131 148.467C141.203 148.135 141.109 148.024 141.352 147.714C141.663 147.321 141.64 147.471 142.1 147.432C142.488 147.399 142.842 147.288 143.169 147.078C143.866 146.629 144.154 145.953 144.232 145.156C144.315 144.27 142.931 144.276 142.847 145.156C142.781 145.848 142.045 146.003 141.541 146.031C141.352 146.042 141.092 146.042 140.909 146.109C140.583 146.219 140.334 146.435 140.145 146.718C139.963 146.983 139.885 147.299 139.83 147.609C139.736 148.107 139.94 148.811 139.271 148.844C138.972 148.86 138.589 148.611 138.252 148.611C137.925 148.611 137.537 148.705 137.255 148.877C136.535 149.314 136.347 150.068 136.513 150.832C136.701 151.706 138.036 151.341 137.848 150.472Z" fill="black"/>
<path d="M130.688 150.738C130.239 151.341 130.295 152.05 130.793 152.637C131.098 152.991 131.441 153.024 131.801 153.279C132.986 154.11 132.559 154.337 132.504 155.422C132.46 156.236 132.515 157.044 133.224 157.576C133.573 157.836 134.082 157.764 134.409 157.98C135.134 158.456 135.317 159.863 135.571 160.621C135.854 161.463 137.194 161.103 136.906 160.256C136.607 159.37 136.391 158.152 135.826 157.382C135.583 157.055 135.488 156.978 135.189 156.812C134.348 156.341 133.993 156.463 133.921 155.256C133.877 154.481 134.182 153.827 133.777 153.091C133.617 152.803 131.873 151.457 131.884 151.446C132.415 150.721 131.214 150.029 130.688 150.738Z" fill="black"/>
<path d="M135.267 166.856C135.195 165.256 137.266 166.047 138.074 165.688C138.694 165.411 138.966 164.912 139.182 164.303C139.315 163.927 139.353 163.495 139.735 163.262C139.962 163.124 140.566 163.268 140.859 163.124C141.253 162.936 141.806 161.789 142.083 161.773C142.969 161.717 142.975 160.333 142.083 160.389C141.053 160.455 140.931 161.341 140.129 161.723C139.22 162.149 138.573 161.95 138.119 163.024C137.797 163.777 137.725 164.314 136.74 164.447C136.197 164.519 135.704 164.37 135.178 164.608C134.281 165.012 133.844 165.903 133.888 166.861C133.922 167.742 135.306 167.747 135.267 166.856Z" fill="black"/>
<path d="M128.662 168.085C128.628 168.738 128.938 169.248 129.492 169.602C130.24 170.078 131.33 169.934 131.137 171.114C131.043 171.69 130.965 172.249 131.342 172.747C131.53 173.002 132.936 173.528 132.931 173.561C132.848 174.447 134.232 174.442 134.315 173.561C134.37 172.93 134.033 172.476 133.468 172.21C133.052 172.016 132.571 172.16 132.443 171.618C132.388 171.391 132.576 170.992 132.593 170.743C132.632 170.117 132.477 169.586 131.978 169.181C131.569 168.849 130.024 168.633 130.051 168.085C130.09 167.194 128.706 167.194 128.662 168.085Z" fill="black"/>
<path d="M143.218 166.717C143.074 167.293 143.014 167.941 143.462 168.401C143.667 168.611 143.916 168.716 144.21 168.772C144.73 168.877 144.868 168.661 144.835 169.281C144.808 169.829 144.78 170.4 145.156 170.843C145.777 171.579 147.327 171.07 147.233 172.326C147.166 173.212 148.551 173.212 148.617 172.326C148.672 171.618 148.418 170.942 147.87 170.477C147.36 170.045 146.303 170.134 146.203 169.514C146.114 168.943 146.347 168.445 145.965 167.919C145.782 167.67 145.538 167.531 145.245 167.448C144.852 167.338 144.42 167.598 144.547 167.077C144.769 166.219 143.434 165.848 143.218 166.717Z" fill="black"/>
<path d="M144.703 152.05C144.758 152.487 144.808 152.786 145.134 153.124C145.505 153.506 145.987 153.478 146.375 153.755C147.394 154.497 146.535 155.959 147.454 156.862C148.18 157.576 149.442 157.443 149.858 158.434C150.184 159.22 150.456 159.735 151.408 159.58C152.283 159.436 151.912 158.102 151.042 158.246C151.707 158.135 150.444 156.806 150.262 156.69C149.559 156.241 148.468 156.347 148.268 155.344C148.119 154.586 148.529 153.938 148.036 153.224C147.731 152.781 146.131 152.377 146.087 152.055C145.976 151.181 144.592 151.169 144.703 152.05Z" fill="black"/>
<path d="M153.728 165.433C153.589 164.691 155.378 164.597 155.826 164.231C156.463 163.716 156.452 162.803 157.067 162.315C157.654 161.845 157.465 162.116 158.146 162.238C158.434 162.288 158.645 162.288 158.916 162.205C159.547 162.016 160.123 160.787 160.693 160.798C161.585 160.815 161.585 159.431 160.693 159.414C160.162 159.403 159.808 159.481 159.392 159.846C158.783 160.383 158.916 160.859 157.936 160.699C157.011 160.544 156.38 160.582 155.799 161.446C155.439 161.978 155.428 162.67 154.885 163.035C154.437 163.334 153.905 163.168 153.412 163.423C152.499 163.894 152.222 164.862 152.399 165.804C152.56 166.673 153.894 166.302 153.728 165.433Z" fill="black"/>
<path d="M162.249 165.837C162.05 166.446 161.917 167.199 162.338 167.758C162.974 168.6 163.91 167.93 164.215 169.17C164.397 169.929 164.254 170.688 164.907 171.275C165.223 171.551 165.516 171.485 165.843 171.657C166.657 172.072 166.823 172.41 166.906 173.251C166.989 174.132 168.373 174.137 168.29 173.251C168.218 172.493 168.113 171.695 167.631 171.075C167.016 170.283 165.92 170.438 165.605 169.353C165.4 168.65 165.566 167.947 165.012 167.343C164.78 167.094 164.497 166.928 164.165 166.867C163.622 166.762 163.351 166.939 163.589 166.214C163.86 165.355 162.526 164.99 162.249 165.837Z" fill="black"/>
<path d="M155.151 135.555C154.973 135.068 156.574 135.239 156.839 135.118C157.31 134.896 157.365 134.47 157.57 134.049C157.858 133.457 158.207 133.689 158.75 133.44C159.265 133.202 159.542 132.781 159.741 132.266C160.062 131.436 158.722 131.076 158.406 131.901C158.251 132.305 157.587 132.216 157.266 132.355C157 132.465 156.812 132.632 156.635 132.859C156.457 133.097 156.413 133.473 156.23 133.684C156.241 133.855 156.164 133.9 156.003 133.816C155.882 133.794 155.754 133.778 155.632 133.783C154.47 133.761 153.368 134.708 153.816 135.932C154.121 136.751 155.461 136.391 155.151 135.555Z" fill="black"/>
<path d="M159.293 121.17C159.265 122.05 159.575 122.836 160.345 123.329C160.81 123.628 161.358 123.595 161.696 124.049C162.067 124.542 161.829 125.09 161.939 125.683C162.072 126.413 162.46 126.729 163.102 127.05C163.445 127.222 163.844 127.249 164.088 127.626C164.215 127.82 164.21 128.218 164.326 128.451C164.525 128.861 164.741 129.049 165.134 129.259C165.92 129.675 166.624 128.479 165.832 128.063C165.284 127.776 165.367 126.69 164.852 126.242C164.52 125.954 164.221 126.015 163.872 125.815C163.285 125.483 163.302 125.306 163.302 124.691C163.302 124.132 163.296 123.578 162.942 123.108C162.344 122.31 160.638 122.504 160.682 121.17C160.71 120.278 159.326 120.278 159.293 121.17Z" fill="black"/>
<path d="M155.206 151.053C155.173 150.344 157.227 150.538 157.698 150.228C158.163 149.918 158.274 149.425 158.523 148.966C158.756 148.534 158.684 148.595 159.121 148.395C159.381 148.274 159.708 148.257 159.985 148.141C160.677 147.842 161.17 147.371 161.624 146.779C162.166 146.075 160.965 145.383 160.428 146.081C159.935 146.723 159.348 146.939 158.578 147.066C158.351 147.105 158.097 147.105 157.892 147.227C157.654 147.371 157.532 147.637 157.427 147.88C157.139 148.523 157.338 148.728 156.596 148.949C155.854 149.171 155.19 148.872 154.525 149.403C154.005 149.818 153.794 150.416 153.828 151.064C153.866 151.945 155.251 151.95 155.206 151.053Z" fill="black"/>
<path d="M162.676 137.986C162.416 138.789 162.2 140.062 163.063 140.577C163.451 140.81 163.944 140.638 164.326 140.832C165.184 141.264 164.802 142.249 165.156 142.941C165.655 143.921 166.696 143.368 167.194 144.121C167.482 144.558 167.449 145.062 167.836 145.494C168.207 145.904 168.678 146.114 169.193 146.264C170.051 146.513 170.417 145.178 169.558 144.929C168.157 144.514 168.833 143.058 167.748 142.465C167.537 142.349 167.305 142.366 167.083 142.305C166.291 142.078 166.452 142.105 166.375 141.308C166.314 140.682 166.059 140.184 165.533 139.835C165.151 139.58 164.724 139.608 164.326 139.436C164.143 139.409 163.96 139.392 163.772 139.376C163.8 139.021 163.883 138.683 164.01 138.351C164.287 137.504 162.953 137.139 162.676 137.986Z" fill="black"/>
<path d="M168.617 154.807C168.778 153.888 169.891 154.198 170.55 153.844C171.386 153.39 171.435 152.587 171.956 151.906C173.008 150.538 173.451 151.779 174.625 151.308C175.522 150.948 175.854 149.896 176.768 149.453C177.57 149.065 176.867 147.875 176.07 148.257C175.566 148.501 175.19 148.789 174.78 149.154C174.187 149.68 174.16 149.868 173.301 149.818C172.31 149.763 171.696 149.841 171.059 150.721C170.605 151.341 170.566 151.939 169.874 152.354C169.282 152.709 169.066 152.471 168.479 152.653C167.687 152.897 167.41 153.694 167.283 154.442C167.133 155.311 168.468 155.688 168.617 154.807Z" fill="black"/>
<path d="M172.952 159.193C172.897 159.807 172.919 160.405 173.467 160.793C174.154 161.28 175.267 160.787 175.577 161.751C175.776 162.365 175.61 162.891 176.202 163.345C176.95 163.921 177.731 163.766 178.179 164.774C178.539 165.588 179.729 164.885 179.375 164.076C179.087 163.423 178.617 162.897 177.974 162.576C177.775 162.476 177.426 162.443 177.254 162.327C176.861 162.055 177 161.684 176.911 161.286C176.789 160.743 176.457 160.311 175.97 160.04C175.444 159.746 174.275 159.929 174.336 159.193C174.414 158.307 173.03 158.312 172.952 159.193Z" fill="black"/>
<path d="M178.251 171.457C178.102 170.649 180.178 170.577 180.599 170.394C181.081 170.189 181.358 169.946 181.662 169.525C181.845 169.276 181.906 168.954 182.077 168.711C183.345 166.9 182.764 168.091 183.943 167.703C184.857 167.404 184.946 166.186 185.682 165.654C186.524 165.045 187.349 164.94 187.991 164.054C188.517 163.334 187.316 162.642 186.795 163.357C186.147 164.248 184.752 164.525 183.971 165.355C183.567 165.787 183.268 166.07 182.72 166.28C182.111 166.513 181.862 166.474 181.408 167.011C180.837 167.686 180.571 168.739 179.746 169.209C179.303 169.464 178.595 169.337 178.107 169.547C177.083 169.99 176.712 170.771 176.911 171.823C177.078 172.703 178.412 172.332 178.251 171.457Z" fill="black"/>
<path d="M183.019 150.483C182.714 151.114 182.753 151.745 183.202 152.305C183.761 153.013 184.603 153.002 185.372 153.334C186.192 153.683 185.754 154.774 186.38 155.378C186.596 155.583 186.867 155.699 187.15 155.771C187.349 155.821 187.952 155.765 188.069 155.92C188.595 156.629 189.796 155.937 189.265 155.223C188.971 154.829 188.667 154.625 188.185 154.525C187.753 154.436 187.471 154.586 187.299 154.043C187.216 153.783 187.277 153.495 187.172 153.224C186.978 152.714 186.585 152.377 186.109 152.138C185.799 151.983 183.982 151.657 184.215 151.175C184.597 150.383 183.401 149.68 183.019 150.483Z" fill="black"/>
<path d="M189.386 169.132C189.397 169.037 189.403 168.938 189.414 168.844C189.492 168.057 188.251 167.919 188.052 168.661C187.902 169.22 188.074 169.735 188.578 170.056C188.877 170.25 189.154 170.217 189.486 170.289C190.134 170.427 190.123 170.56 190.189 171.141C190.261 171.751 190.643 171.978 191.191 172.105C191.845 172.26 192.216 172.31 192.648 172.891C192.936 173.284 193.129 173.755 193.329 174.198C193.694 175.012 194.885 174.309 194.525 173.5C194.165 172.697 193.772 171.894 193.063 171.335C192.808 171.136 192.531 170.964 192.221 170.859C192.199 170.854 191.203 170.627 191.513 170.815C191.712 170.937 191.612 170.411 191.562 170.211C191.49 169.923 191.324 169.63 191.119 169.414C190.898 169.187 189.53 168.489 189.392 169.015C188.938 168.954 188.484 168.893 188.03 168.833C188.019 168.927 188.013 169.026 188.002 169.12C187.919 170.017 189.303 170.012 189.386 169.132Z" fill="black"/>
<path d="M192.93 159.597C193.173 159.951 194.242 159.27 194.447 159.071C195.067 158.445 195.156 157.747 195.981 157.238C196.656 156.823 197.525 157.111 198.112 156.59C198.572 156.186 198.611 155.566 198.561 154.995C198.478 154.115 197.094 154.11 197.177 154.995C197.232 155.588 197.016 155.416 196.551 155.483C196.152 155.538 195.781 155.754 195.438 155.953C194.63 156.418 194.22 156.928 193.699 157.67C193.378 158.129 193.129 158.157 192.62 158.356C192.343 158.467 192.105 158.556 191.894 158.788C191.496 159.226 191.396 159.807 191.734 160.3C192.238 161.025 193.439 160.333 192.93 159.597Z" fill="black"/>
<path d="M184.292 144.973C184.148 143.501 185.366 144.099 186.236 143.772C186.839 143.545 187.072 142.975 187.304 142.426C187.426 142.15 187.62 141.275 187.864 141.114C188.14 140.931 188.65 141.103 188.965 141.07C189.547 141.009 190.001 140.787 190.278 140.256C190.682 139.464 189.491 138.761 189.082 139.558C188.932 139.852 188.223 139.641 187.952 139.658C187.587 139.686 187.249 139.791 186.972 140.034C186.762 140.223 186.662 140.45 186.54 140.699C186.358 141.075 186.158 142.105 185.843 142.338C185.582 142.532 184.94 142.327 184.63 142.36C184.292 142.399 183.988 142.526 183.716 142.731C183.013 143.268 182.825 144.132 182.908 144.968C182.991 145.848 184.375 145.859 184.292 144.973Z" fill="black"/>
<path d="M190.737 144.713C190.56 145.289 190.737 145.787 191.202 146.169C191.479 146.391 191.767 146.485 192.105 146.574C192.249 146.612 192.515 146.59 192.636 146.673C192.902 146.862 192.902 147.305 192.952 147.581C193.063 148.19 193.157 148.722 193.705 149.099C193.993 149.298 194.314 149.381 194.663 149.425C194.785 149.442 195.992 149.492 195.936 149.591C195.505 150.372 196.701 151.07 197.132 150.289C197.448 149.719 197.398 149.076 196.933 148.589C196.689 148.334 196.346 148.202 196.008 148.124C195.61 148.035 194.984 148.196 194.635 148.024C194.093 147.748 194.314 146.535 193.971 146.02C193.788 145.743 193.544 145.56 193.245 145.428C193.168 145.394 192.044 145.156 192.066 145.079C192.332 144.226 190.992 143.861 190.737 144.713Z" fill="black"/>
<path d="M174.187 131.358C174.386 132.266 174.884 132.476 175.698 132.726C176.634 133.008 176.496 133.955 177.271 134.492C177.62 134.73 177.935 134.597 178.273 134.747C178.827 134.99 178.877 135.583 179.17 136.026C179.375 136.341 179.635 136.613 179.973 136.79C180.222 136.923 181.562 137.039 181.584 137.343C181.645 138.229 183.029 138.235 182.969 137.343C182.919 136.596 182.548 136.114 181.845 135.848C181.136 135.583 180.637 135.727 180.206 135.012C179.956 134.597 179.907 134.11 179.547 133.755C179.27 133.484 179.087 133.468 178.722 133.346C178.102 133.135 178.445 133.822 177.786 132.775C177.692 132.626 177.681 132.416 177.581 132.272C177.382 131.978 177.216 131.662 176.894 131.48C176.618 131.325 175.604 131.341 175.527 130.993C175.333 130.123 173.999 130.489 174.187 131.358Z" fill="black"/>
<path d="M173.954 126.114C173.982 125.599 173.761 125.073 174.381 124.941C174.746 124.863 175.139 125.057 175.527 124.924C176.219 124.686 176.502 124.093 176.789 123.473C177.238 122.504 177.958 122.737 178.772 122.277C179.48 121.873 179.923 121.17 180.084 120.384C180.261 119.514 178.927 119.143 178.75 120.018C178.473 121.38 177.399 120.993 176.507 121.557C175.776 122.017 175.837 122.892 175.278 123.423C174.752 123.922 173.772 123.279 173.096 123.844C172.415 124.415 172.615 125.345 172.576 126.125C172.526 127.006 173.91 127 173.954 126.114Z" fill="black"/>
<path d="M178.235 111.253C178.201 111.242 178.163 111.231 178.13 111.22C178.29 111.502 178.451 111.79 178.611 112.072C178.617 112.028 178.622 111.989 178.628 111.945C178.406 112.117 178.185 112.283 177.958 112.454C178.002 112.46 178.052 112.46 178.096 112.466C177.897 112.349 177.698 112.239 177.498 112.122C177.659 112.338 177.592 112.798 177.797 113.064C178.085 113.435 178.545 113.623 178.982 113.722C179.724 113.889 180.372 113.817 180.704 114.581C180.92 115.073 180.815 115.622 181.169 116.081C181.878 117 183.129 116.402 183.777 117.205C184.082 117.582 184.126 118.019 184.552 118.318C184.835 118.518 185.765 118.501 185.887 118.673C186.402 119.387 187.603 118.7 187.083 117.975C186.767 117.532 186.634 117.526 186.153 117.31C185.106 116.851 185.239 116.646 184.613 115.926C184.276 115.539 183.999 115.461 183.517 115.323C182.548 115.051 182.293 115.245 182.044 114.21C181.784 113.13 181.324 112.787 180.317 112.46C179.846 112.305 179.276 112.322 178.888 111.901C178.805 111.807 178.871 111.591 178.75 111.485C178.434 111.225 178.417 111.103 177.963 111.07C177.692 111.048 177.338 111.297 177.293 111.58C177.288 111.624 177.282 111.663 177.277 111.707C177.221 112.089 177.365 112.432 177.759 112.56C177.792 112.571 177.831 112.582 177.864 112.593C178.722 112.853 179.087 111.519 178.235 111.253Z" fill="black"/>
<path d="M185.2 130.095C184.957 129.625 185.04 129.232 185.455 128.911C185.632 128.949 185.804 128.977 185.987 128.999C186.203 128.994 186.457 128.944 186.646 128.828C187.277 128.451 186.967 127.942 187.166 127.421C187.299 127.072 187.31 127.183 187.759 127.089C188.041 127.028 188.301 126.973 188.545 126.795C189.314 126.231 189.359 125.278 190.3 124.797C191.092 124.392 190.394 123.196 189.602 123.601C189.087 123.866 188.667 124.182 188.318 124.647C187.908 125.195 187.941 125.494 187.183 125.771C186.457 126.031 185.893 126.103 185.782 127.017C185.699 127.67 185.97 127.416 185.383 127.515C185.001 127.582 184.702 127.593 184.387 127.853C183.578 128.512 183.667 129.536 183.872 130.466C184.06 131.336 185.394 130.965 185.2 130.095Z" fill="black"/>
<path d="M190.582 131.518C190.543 132.283 190.914 132.908 191.634 133.218C192.077 133.407 192.476 133.368 192.941 133.384C194.059 133.429 194.508 133.567 194.879 134.58C195.111 135.206 195.327 135.793 195.97 136.098C196.462 136.33 197.022 136.147 197.52 136.363C198.124 136.629 198.461 137.443 198.738 137.991C199.142 138.783 200.338 138.085 199.934 137.294C199.53 136.502 199.037 135.605 198.218 135.167C197.42 134.735 196.662 135.106 196.219 134.215C195.914 133.595 195.876 132.925 195.316 132.443C194.84 132.033 191.95 131.901 191.966 131.518C192.011 130.633 190.626 130.633 190.582 131.518Z" fill="black"/>
<path d="M186.612 111.103C186.751 110.876 186.889 110.649 187.028 110.428C187.188 110.478 187.349 110.528 187.504 110.577C187.709 110.655 187.858 110.744 188.069 110.782C188.357 110.838 188.628 110.832 188.899 110.705C189.564 110.406 189.791 109.675 189.896 109.01C189.985 108.424 189.94 108.197 190.566 108.141C190.937 108.108 191.302 108.152 191.646 107.947C192.31 107.554 192.41 106.757 192.382 106.059C192.349 105.173 190.965 105.168 190.998 106.059C191.031 106.895 190.505 106.668 189.924 106.773C189.553 106.84 189.248 107.023 189.016 107.311C188.772 107.604 188.672 107.953 188.6 108.324C188.495 108.833 188.633 109.337 188.074 109.315C187.742 109.304 187.399 109.038 187.028 109.038C186.624 109.033 186.197 109.154 185.871 109.387C185.201 109.863 184.979 110.716 185.278 111.469C185.605 112.288 186.945 111.934 186.612 111.103Z" fill="black"/>
<path d="M179.165 96.5797C179.37 97.1224 179.686 97.5155 180.217 97.7757C181.081 98.191 182.094 97.9086 182.786 98.6949C183.279 99.2541 183.091 100.079 183.639 100.577C183.827 100.749 185.333 101.015 185.245 100.777C185.555 101.607 186.889 101.247 186.579 100.411C186.358 99.8078 185.987 99.5421 185.339 99.4701C185.256 99.459 184.663 99.5587 184.591 99.4978C184.453 99.3649 184.42 98.7115 184.315 98.49C184.016 97.8699 183.506 97.3494 182.892 97.0393C182.316 96.7458 180.749 96.8677 180.5 96.2143C180.184 95.3837 178.85 95.7436 179.165 96.5797Z" fill="black"/>
<path d="M187.797 92.7315C187.758 92.7093 187.72 92.6817 187.687 92.6595C187.792 92.7979 187.897 92.9364 188.002 93.0748C188.096 93.3738 187.753 93.2686 188.152 93.3738C188.279 93.407 188.445 93.3793 188.572 93.3572C188.855 93.3074 189.104 93.1966 189.309 92.9973C189.68 92.6318 189.73 92.1224 189.763 91.6296C189.774 91.4137 189.724 91.0593 189.851 90.8711C190.018 90.6274 190.516 90.5444 190.754 90.3616C191.214 90.0073 191.468 89.437 191.252 88.8777C190.931 88.0582 189.591 88.4126 189.918 89.2432C189.929 89.2764 189.215 89.6086 189.126 89.6695C188.877 89.8467 188.711 90.0571 188.584 90.3284C188.401 90.7271 188.528 91.8068 188.246 91.9785C188.052 92.1003 187.576 91.9618 187.321 92.0726C187.083 92.1778 186.895 92.3384 186.767 92.5654C186.479 93.0803 186.618 93.6063 187.1 93.922C187.842 94.4148 188.539 93.2188 187.797 92.7315Z" fill="black"/>
<path d="M180.71 83.7892C180.078 84.4979 180.355 85.5167 181.158 85.9652C181.612 86.2199 182.149 86.1922 182.598 86.4359C183.063 86.685 183.351 87.1667 183.384 87.6872C183.439 88.5731 184.824 88.5787 184.768 87.6872C184.713 86.8567 184.386 86.1036 183.744 85.5555C183.461 85.3118 183.135 85.1346 182.78 85.0184C182.581 84.9519 182.371 84.9298 182.171 84.8689C182.033 84.8412 181.9 84.7969 181.778 84.7304C181.723 84.5809 181.695 84.592 181.684 84.7637C182.282 84.1103 181.308 83.1247 180.71 83.7892Z" fill="black"/>
<path d="M200.028 164.519C199.89 165.156 200.017 165.793 200.56 166.208C201.202 166.701 202.636 166.219 202.83 167.083C202.985 167.764 202.791 168.384 203.284 168.982C203.578 169.342 205.084 169.896 205.15 169.148C205.216 168.988 205.283 168.821 205.355 168.661C205.316 168.705 205.283 168.75 205.244 168.794C204.668 169.464 205.643 170.449 206.224 169.774C206.639 169.287 206.673 168.622 206.147 168.179C205.909 167.98 205.604 167.913 205.3 167.913C205.106 167.913 204.929 167.991 204.74 168.008C204.275 168.046 204.342 167.991 204.225 167.603C203.998 166.856 204.331 166.142 203.627 165.538C203.35 165.3 203.013 165.189 202.658 165.156C202.393 165.128 201.263 165.35 201.368 164.89C201.551 164.015 200.217 163.644 200.028 164.519Z" fill="black"/>
<path d="M207.958 162.869C207.93 162.62 207.825 162.094 208.002 161.878C208.157 161.695 208.556 161.74 208.766 161.679C209.27 161.529 209.619 161.203 209.785 160.704C209.862 160.472 209.807 160.167 209.896 159.946C210.056 159.547 210.488 159.464 210.743 159.165C211.103 158.739 211.141 158.24 210.87 157.764C210.433 156.989 209.237 157.686 209.674 158.462C209.442 158.041 208.689 159.098 208.617 159.309C208.539 159.541 208.606 160.051 208.484 160.234C208.334 160.444 208.063 160.389 207.836 160.455C206.701 160.782 206.463 161.806 206.568 162.875C206.668 163.744 208.052 163.755 207.958 162.869Z" fill="black"/>
<path d="M203.102 152.055C203.113 152.078 204.181 151.723 204.325 151.651C204.735 151.441 205.029 151.125 205.178 150.682C205.261 150.444 205.256 150.239 205.455 150.068C205.638 149.907 205.964 149.863 206.169 149.708C206.529 149.431 206.679 149.11 206.717 148.667C206.8 147.781 205.416 147.786 205.333 148.667C205.339 148.606 204.829 148.833 204.757 148.877C204.525 149.005 204.32 149.16 204.17 149.381C204.01 149.614 204.015 149.879 203.899 150.117C203.733 150.466 203.578 150.461 203.218 150.566C202.227 150.843 201.28 151.668 201.917 152.759C202.349 153.523 203.545 152.825 203.102 152.055Z" fill="black"/>
<path d="M195.084 127.011C194.807 125.743 196.108 124.73 197.271 125.107C197.725 125.251 198.124 124.868 198.146 124.437C198.234 122.942 199.137 121.646 200.538 121.087C201.357 120.76 200.997 119.42 200.172 119.752C198.162 120.555 196.894 122.266 196.761 124.437C197.055 124.215 197.343 123.994 197.636 123.767C195.41 123.047 193.256 125.14 193.749 127.377C193.938 128.252 195.272 127.881 195.084 127.011Z" fill="black"/>
<path d="M194.63 95.3174C194.702 96.0372 194.935 96.6739 195.555 97.1058C196.496 97.7647 198.296 97.0338 198.777 98.324C199.115 99.232 198.478 100.339 199.032 101.203C199.193 101.452 200.843 102.139 200.826 101.868C200.881 102.754 202.266 102.759 202.21 101.868C202.172 101.22 201.867 100.793 201.23 100.572C200.876 100.45 200.444 100.594 200.189 100.267C200.007 100.029 200.239 98.8334 200.2 98.4901C200.117 97.7758 199.846 97.0781 199.276 96.6241C198.567 96.0593 196.114 96.3749 196.014 95.3118C195.931 94.4425 194.547 94.4314 194.63 95.3174Z" fill="black"/>
<path d="M204.414 107.527C204.519 106.314 204.619 105.627 206.036 105.589C206.291 105.583 206.557 105.655 206.817 105.594C207.465 105.456 207.825 104.963 207.98 104.354C208.096 103.889 207.93 103.601 208.523 103.346C208.822 103.219 209.248 103.252 209.575 103.125C210.372 102.809 210.926 102.217 211.291 101.458C211.679 100.661 210.483 99.9574 210.095 100.76C209.663 101.657 209.043 101.79 208.157 101.973C207.786 102.05 207.498 102.089 207.221 102.349C206.994 102.56 206.872 102.815 206.784 103.108C206.59 103.772 206.922 104.188 205.975 104.193C203.871 104.199 203.207 105.544 203.03 107.532C202.952 108.412 204.336 108.407 204.414 107.527Z" fill="black"/>
<path d="M207.553 115.417C207.675 116.081 208.09 116.469 208.694 116.735C209.641 117.15 210.383 116.956 210.294 118.335C210.261 118.883 210.244 119.459 210.637 119.902C211.235 120.577 212.819 120.395 212.293 121.757C211.972 122.587 213.312 122.947 213.627 122.122C213.91 121.397 213.838 120.594 213.367 119.952C213.168 119.68 212.913 119.448 212.614 119.293C212.022 118.988 211.706 119.121 211.678 118.335C211.651 117.615 211.844 116.989 211.352 116.364C210.848 115.721 209.015 115.738 208.888 115.046C208.727 114.171 207.393 114.542 207.553 115.417Z" fill="black"/>
<path d="M213.401 128.346C213.079 127 214.923 127.327 215.499 126.978C216.269 126.513 216.247 125.838 217.238 125.5C217.869 125.284 218.539 125.24 219.17 124.952C220.117 124.52 220.942 123.894 221.767 123.268C222.465 122.737 221.778 121.535 221.069 122.072C219.552 123.23 218.373 123.745 216.518 124.176C215.482 124.415 215.482 125.057 214.696 125.583C213.976 126.065 213.135 125.827 212.492 126.596C211.966 127.222 211.883 127.953 212.066 128.717C212.271 129.581 213.605 129.215 213.401 128.346Z" fill="black"/>
<path d="M219.807 130.428C219.967 130.965 220.255 131.258 220.748 131.502C220.958 131.607 221.246 131.629 221.44 131.751C222.094 132.15 221.961 132.593 222.121 133.224C222.287 133.877 222.514 134.398 223.118 134.752C223.561 135.018 224.225 135.129 224.569 135.561C224.929 136.015 225.006 136.806 225.073 137.355C225.183 138.224 226.568 138.235 226.457 137.355C226.352 136.507 226.235 135.599 225.759 134.863C225.233 134.043 224.264 133.933 223.799 133.169C223.345 132.415 223.65 131.518 222.869 130.909C222.503 130.627 221.246 130.455 221.13 130.062C220.887 129.21 219.552 129.569 219.807 130.428Z" fill="black"/>
<path d="M228.722 130.987C228.744 131.031 230.278 130.417 230.466 130.262C230.942 129.863 230.986 129.387 231.025 128.811C231.058 128.257 230.892 128.318 231.457 128.185C231.706 128.13 231.983 128.174 232.232 128.108C232.575 128.013 233.893 126.901 233.987 126.961C234.275 127.15 234.79 127.044 234.934 126.712C235.183 126.147 235.134 125.765 234.746 125.284C234.187 124.592 233.212 125.572 233.766 126.264C233.755 126.181 233.744 126.098 233.738 126.015C234.054 125.932 234.369 125.848 234.685 125.765C233.76 125.167 233.112 125.749 232.415 126.352C231.667 127 230.455 126.579 229.862 127.487C229.569 127.941 229.79 128.362 229.641 128.811C229.419 129.492 228.705 129.365 228.19 129.669C227.443 130.106 227.088 130.92 227.526 131.685C227.974 132.46 229.17 131.762 228.722 130.987Z" fill="black"/>
<path d="M211.518 106.07C211.418 106.729 211.507 107.261 212.005 107.742C212.786 108.501 214.275 108.307 214.613 109.47C214.812 110.157 214.657 110.849 215.089 111.48C215.289 111.768 215.527 111.967 215.842 112.128C215.97 112.194 217.476 112.571 217.326 112.798C216.833 113.545 218.029 114.237 218.522 113.495C218.893 112.936 218.849 112.344 218.434 111.812C217.675 110.838 216.451 111.347 216.053 109.913C215.859 109.204 215.975 108.54 215.444 107.936C215.017 107.449 212.769 106.995 212.852 106.441C212.985 105.566 211.651 105.195 211.518 106.07Z" fill="black"/>
<path d="M216.734 137.537C216.285 136.74 218.107 136.912 218.401 136.961C218.744 137.017 219.181 136.878 219.253 136.48C219.353 135.92 219.652 135.605 220.211 135.494C221.086 135.317 220.715 133.983 219.846 134.16C218.86 134.359 218.102 135.123 217.919 136.114C218.201 135.954 218.489 135.793 218.771 135.633C217.814 135.478 216.69 135.339 215.92 136.076C215.311 136.657 215.128 137.51 215.543 138.246C215.975 139.016 217.171 138.318 216.734 137.537Z" fill="black"/>
<path d="M224.059 117.51C224.148 118.351 224.585 118.689 225.355 118.961C225.693 119.082 225.826 118.972 226.158 119.21C226.568 119.503 226.479 119.592 226.54 120.074C226.59 120.45 226.628 120.804 226.8 121.148C227.165 121.856 227.847 122.072 228.589 122.178C229.342 122.283 229.585 122.521 229.801 123.23C229.928 123.645 230.083 123.955 230.371 124.282C230.969 124.946 231.944 123.966 231.351 123.302C230.814 122.704 231.041 121.812 230.327 121.275C229.646 120.755 228.306 121.059 227.952 120.256C227.669 119.625 227.924 118.922 227.459 118.318C227.265 118.069 227.016 117.897 226.723 117.787C226.562 117.726 225.443 117.61 225.432 117.504C225.355 116.629 223.971 116.624 224.059 117.51Z" fill="black"/>
<path d="M201.396 93.3462C201.407 92.8977 201.418 92.4492 201.429 92.0007C201.136 92.2222 200.848 92.4437 200.554 92.6707C201.23 92.7648 201.977 92.8257 202.609 92.499C202.858 92.3717 203.074 92.1889 203.229 91.9509C203.356 91.7626 203.411 91.2532 203.528 91.1369C203.367 91.2034 203.201 91.2698 203.04 91.3418C203.688 91.2753 204.07 91.6519 204.663 91.1757C204.829 91.0428 205.333 90.1236 205.46 90.1181C206.346 90.0793 206.352 88.6951 205.46 88.7338C204.978 88.756 204.657 88.9442 204.353 89.3097C204.225 89.4592 204.115 89.7859 203.96 89.8966C203.694 90.0849 203.76 89.9686 203.389 89.9464C202.863 89.9132 202.465 90.1015 202.249 90.5887C202.116 90.8877 202.204 91.1258 201.889 91.303C201.656 91.4414 201.18 91.3695 200.931 91.3307C200.482 91.2698 200.067 91.5024 200.056 92.0007C200.045 92.4492 200.034 92.8977 200.023 93.3462C199.99 94.2377 201.374 94.2321 201.396 93.3462Z" fill="black"/>
<path d="M163.894 194.098C159.005 206.008 154.78 218.195 151.502 230.654C149.857 236.894 148.457 243.201 147.355 249.563C146.33 255.482 145.267 261.617 145.284 267.635C145.306 273.859 147.382 279.839 148.927 285.802C150.622 292.342 152.133 298.925 153.495 305.536C156.231 318.776 158.373 332.125 160.195 345.519C162.305 360.984 163.982 376.505 165.66 392.019C165.754 392.894 167.139 392.905 167.044 392.019C164.204 365.779 161.358 339.495 156.474 313.538C155.228 306.899 153.844 300.287 152.299 293.715C150.782 287.27 148.761 280.919 147.421 274.441C146.009 267.613 147 260.709 148.036 253.893C148.977 247.708 150.217 241.567 151.696 235.487C155.101 221.479 159.747 207.791 165.217 194.458C165.566 193.644 164.232 193.284 163.894 194.098Z" fill="black"/>
<path d="M124.896 283.865C128.468 285.022 132.15 284.701 135.489 283.006C136.286 282.602 135.583 281.406 134.791 281.81C131.768 283.344 128.479 283.571 125.262 282.53C124.415 282.259 124.055 283.593 124.896 283.865Z" fill="black"/>
<path d="M199.702 286.877C197.509 289.966 195.184 292.951 192.72 295.824C192.144 296.5 193.118 297.48 193.7 296.804C196.241 293.837 198.639 290.758 200.898 287.574C201.418 286.849 200.217 286.157 199.702 286.877Z" fill="black"/>
<path d="M201.203 291.146C198.052 298.46 194.375 305.509 190.167 312.27C189.697 313.028 190.893 313.726 191.363 312.967C195.571 306.206 199.248 299.158 202.399 291.843C202.747 291.035 201.551 290.326 201.203 291.146Z" fill="black"/>
<path d="M128.927 197.343C133.163 196.053 135.649 192.288 137.942 188.755C140.372 185.006 142.604 181.097 144.647 177.122C145.051 176.33 143.861 175.627 143.451 176.424C141.734 179.774 139.868 183.052 137.886 186.252C135.583 189.968 133.025 194.652 128.562 196.003C127.709 196.269 128.069 197.603 128.927 197.343Z" fill="black"/>
<path d="M193.555 176.396C194.757 178.423 195.853 180.649 197.52 182.348C199.275 184.137 201.656 185.35 203.755 186.678C204.508 187.155 205.205 185.959 204.452 185.482C202.454 184.22 200.167 183.063 198.495 181.368C196.922 179.768 195.881 177.609 194.746 175.698C194.297 174.934 193.101 175.626 193.555 176.396Z" fill="black"/>
<path d="M93.3133 84.7858C95.5669 80.5112 102.134 78.5068 106.209 76.4027C110.605 74.127 114.98 71.7572 119.005 68.8558C125.605 64.0995 131.203 57.8703 133.628 49.9689C133.889 49.1162 132.554 48.7508 132.294 49.6035C129.465 58.8227 122.172 65.4726 114.182 70.3951C109.958 72.9975 105.506 75.2012 101.098 77.4714C97.8205 79.1602 93.9335 80.6607 92.1284 84.0882C91.702 84.8744 92.8925 85.5721 93.3133 84.7858Z" fill="black"/>
<path d="M174.486 27.8153C182.465 29.6481 185.555 37.6657 185.006 45.1462C184.94 46.0377 186.324 46.0322 186.391 45.1462C186.989 37.0511 183.417 28.4466 174.857 26.4809C173.988 26.276 173.617 27.6105 174.486 27.8153Z" fill="black"/>
<path d="M177.395 48.1332C178.374 47.0646 178.6 45.6774 177.899 45.0348C177.198 44.3922 175.835 44.7375 174.856 45.806C173.876 46.8746 173.651 48.2618 174.352 48.9044C175.053 49.547 176.415 49.2017 177.395 48.1332Z" fill="#F8BAB4"/>
<path d="M158.537 48.5297C159.012 47.7061 158.38 46.4509 157.125 45.7261C155.869 45.0014 154.466 45.0815 153.991 45.9051C153.515 46.7287 154.147 47.9839 155.403 48.7087C156.658 49.4335 158.061 49.3533 158.537 48.5297Z" fill="#F8BAB4"/>
<path d="M24.6868 99.0775C26.0191 99.8147 27.8832 100.169 29.3739 99.8058C29.2725 99.393 29.1711 98.9801 29.0698 98.5673C27.4079 99.4179 27.0735 101.414 27.6998 103.042C27.9835 102.767 28.2672 102.492 28.551 102.217C26.5675 101.321 25.1746 101.972 23.2578 102.626C23.4129 103.025 23.571 103.428 23.7261 103.826C25.8043 102.801 26.5055 100.14 25.0542 98.2839C24.5424 97.6303 23.5078 98.3997 24.0197 99.0533C24.9223 100.206 24.6168 101.956 23.2578 102.626C22.5189 102.99 22.9267 104.1 23.7261 103.826C25.3052 103.288 26.3691 102.644 28.052 103.404C28.5635 103.633 29.1011 103.086 28.9032 102.578C28.5625 101.688 28.5293 100.286 29.538 99.7672C30.1282 99.4632 29.9989 98.3388 29.2339 98.5287C27.9228 98.8485 26.3607 98.5456 25.192 97.8988C24.4677 97.4867 23.9645 98.6768 24.6868 99.0775Z" fill="black"/>
<path d="M282.512 80.1261C283.377 78.8728 283.913 77.0527 283.698 75.5335C283.277 75.5937 282.857 75.654 282.436 75.7142C283.119 77.4518 285.072 77.981 286.754 77.518C286.508 77.2086 286.262 76.8991 286.016 76.5897C284.93 78.4754 285.44 79.9255 285.903 81.8975C286.315 81.7824 286.731 81.6647 287.143 81.5496C286.327 79.3805 283.749 78.4208 281.758 79.6824C281.058 80.1274 281.721 81.2326 282.422 80.7876C283.659 80.0029 285.37 80.4791 285.903 81.8975C286.192 82.6685 287.337 82.372 287.143 81.5496C286.763 79.9252 286.227 78.8031 287.148 77.2031C287.427 76.7166 286.935 76.1278 286.41 76.2747C285.491 76.5261 284.093 76.4212 283.676 75.3663C283.431 74.7491 282.3 74.7671 282.413 75.5471C282.603 76.8833 282.147 78.408 281.389 79.5074C280.907 80.1876 282.042 80.8054 282.512 80.1261Z" fill="black"/>
<path d="M53.906 38.9634C55.2384 39.7006 57.1024 40.0552 58.5931 39.6917C58.4917 39.2789 58.3904 38.866 58.289 38.4532C56.6271 39.3037 56.2927 41.2998 56.919 42.9282C57.2027 42.6529 57.4864 42.3777 57.7702 42.1024C55.7868 41.2071 54.3938 41.8576 52.477 42.5123C52.6321 42.9109 52.7902 43.3137 52.9453 43.7123C55.0235 42.687 55.7248 40.0262 54.2734 38.1699C53.7616 37.5162 52.7271 38.2857 53.2389 38.9393C54.1415 40.0924 53.836 41.8421 52.477 42.5123C51.7381 42.8755 52.1459 43.9856 52.9453 43.7123C54.5244 43.1738 55.5883 42.5303 57.2712 43.2894C57.7827 43.5192 58.3203 42.9717 58.1224 42.4636C57.7817 41.5735 57.7485 40.1721 58.7572 39.6531C59.3474 39.3491 59.2181 38.2247 58.4531 38.4146C57.142 38.7344 55.58 38.4316 54.4112 37.7847C53.6828 37.3757 53.1838 38.5627 53.906 38.9634Z" fill="black"/>
<path d="M225.566 45.1323C226.43 43.879 226.967 42.0589 226.752 40.5396C226.331 40.5999 225.91 40.6601 225.489 40.7203C226.172 42.4579 228.126 42.9871 229.808 42.5242C229.562 42.2147 229.316 41.9053 229.07 41.5958C227.984 43.4815 228.494 44.9317 228.957 46.9036C229.369 46.7886 229.785 46.6708 230.197 46.5558C229.381 44.3867 226.802 43.427 224.812 44.6885C224.111 45.1335 224.775 46.2388 225.476 45.7938C226.712 45.0091 228.423 45.4853 228.957 46.9036C229.245 47.6747 230.39 47.3781 230.197 46.5558C229.817 44.9313 229.281 43.8093 230.202 42.2093C230.481 41.7228 229.989 41.134 229.464 41.2809C228.545 41.5323 227.147 41.4274 226.73 40.3725C226.485 39.7553 225.353 39.7733 225.467 40.5532C225.656 41.8894 225.201 43.4141 224.442 44.5135C223.964 45.1981 225.096 45.8116 225.566 45.1323Z" fill="black"/>
</g>
</svg>
