<svg width="332" height="379" viewBox="0 0 332 379" fill="none" xmlns="http://www.w3.org/2000/svg">
<path d="M289.581 123.592C287.413 116.74 284.662 109.796 281.248 102.767C225.857 -11.4338 111.253 25.836 87.4486 57.3338C63.6438 88.8262 63.6064 111.722 81.0746 132.462C86.3355 138.705 97.3441 140.866 108.776 142.358C109.525 134.179 109.626 120.046 109.648 119.554C109.819 115.098 107.352 101.403 110.884 99.7284C113.25 98.605 117.997 105.554 122.16 107.667C123.231 108.213 124.628 107.335 125.912 107.186C129.835 106.726 137.167 107.437 138.296 107.555C138.398 107.41 138.831 107.009 140.159 105.982C142.867 103.874 148.893 101.879 148.893 101.879C148.893 101.879 149.487 113.198 149.182 122.02C148.882 130.841 143.065 136.153 143.065 136.153C143.065 136.153 150.247 144.91 152.114 153.496C154.507 164.495 151.718 175.942 151.777 176.114C151.777 176.114 164.862 188.594 164.606 189.969C165.451 189.423 169.813 187.519 170.685 192.558C171.418 196.773 170.305 201.32 169.711 202.62C168.978 204.225 166.377 204.001 166.142 203.974C163.508 203.68 137.964 177.007 133.469 174.68C131.06 173.434 126.217 188.599 122.112 189.423C127.55 194.885 132.457 202.134 133.56 214.657C134.181 221.729 134.266 228.052 133.897 233.728C140.346 229.571 147.672 224.393 147.672 224.393L155.588 233.514C155.588 233.514 152.436 237.29 149.647 239.901C146.859 242.511 139.57 246.197 139.57 246.197C139.57 246.197 141.459 247.369 148.208 252.135C154.956 256.902 157.204 264.46 159.275 270.125C160.758 274.191 161.587 277.283 160.442 280.466C160.41 280.616 160.372 280.766 160.335 280.915C159.837 282.729 158.595 284.419 157.001 285.35C156.166 285.928 155.299 286.136 154.448 286.094C154.261 286.099 154.068 286.088 153.881 286.067C152.666 285.939 151.536 285.355 150.562 284.623C149.797 284.045 149.107 283.323 148.572 282.515C148.309 282.21 148.117 281.958 148.031 281.819C147.908 281.627 147.833 281.306 147.763 280.873C147.544 280.215 147.437 279.524 147.485 278.829C147.196 276.887 146.618 274.234 144.884 271.383C141.823 266.343 132.554 260.496 132.554 260.496C132.554 260.496 137.681 274.887 138.585 280.643C139.484 286.399 137.504 299.89 136.787 304.929C136.064 309.968 134.619 318.447 134.619 318.447C134.619 318.447 132.013 316.361 128.363 312.713C124.713 309.064 124.542 302.463 123.498 295.343C122.546 288.833 121.738 284.061 117.494 272.554C109.723 279.321 100.459 282.392 92.5061 284.505C79.4316 287.971 47.6526 301.602 59.8012 327.6C70.7082 350.94 124.135 354.465 177.38 329.312C185.392 325.53 195.962 319.239 207.495 310.776C253.932 276.684 316.024 207.258 289.581 123.592Z" fill="#FFECDD"/>
<path d="M138.441 107.565C138.441 107.565 138.382 107.56 138.291 107.549C138.184 107.699 138.441 107.565 138.441 107.565Z" fill="#CAE9ED"/>
<path d="M164.482 190.097C164.557 190.081 164.584 190.033 164.6 189.969C164.466 190.054 164.418 190.108 164.482 190.097Z" fill="#CAE9ED"/>
<path d="M292.096 153.967C284.952 153.967 279.14 148.157 279.14 141.016C279.14 133.874 284.952 128.064 292.096 128.064C299.241 128.064 305.053 133.874 305.053 141.016C305.053 148.157 299.241 153.967 292.096 153.967ZM292.096 129.675C285.84 129.675 280.745 134.762 280.745 141.021C280.745 147.274 285.835 152.367 292.096 152.367C298.358 152.367 303.448 147.28 303.448 141.021C303.448 134.762 298.358 129.675 292.096 129.675Z" fill="#FFECDD"/>
<path d="M224.658 120.431C226.097 119.778 227.548 118.446 228.169 116.98C227.762 116.809 227.355 116.638 226.948 116.467C226.627 118.376 228.083 119.89 229.828 120.377C229.774 119.971 229.721 119.564 229.667 119.157C227.692 120.254 227.371 121.816 226.729 123.817C227.157 123.935 227.591 124.052 228.019 124.17C228.452 121.805 226.67 119.575 224.224 119.634C223.363 119.655 223.363 120.992 224.224 120.971C225.744 120.934 227.013 122.271 226.729 123.817C226.574 124.657 227.751 125.004 228.019 124.17C228.549 122.522 228.672 121.238 230.347 120.308C230.855 120.024 230.732 119.238 230.186 119.088C229.234 118.82 228.046 117.981 228.238 116.82C228.351 116.14 227.334 115.552 227.018 116.306C226.472 117.595 225.252 118.708 223.989 119.281C223.197 119.634 223.876 120.784 224.658 120.431Z" fill="#333333"/>
<path d="M217.08 68.4775C218.519 67.8249 219.97 66.4929 220.591 65.0271C220.184 64.8559 219.777 64.6847 219.37 64.5136C219.049 66.4233 220.505 67.9372 222.25 68.424C222.196 68.0175 222.143 67.6109 222.089 67.2044C220.114 68.301 219.793 69.8631 219.151 71.8638C219.579 71.9815 220.012 72.0991 220.441 72.2168C220.874 69.8524 219.092 67.6216 216.646 67.6805C215.785 67.7019 215.785 69.0392 216.646 69.0178C218.166 68.9804 219.435 70.3178 219.151 71.8638C218.996 72.7036 220.173 73.0514 220.441 72.2168C220.97 70.5692 221.094 69.2853 222.769 68.3545C223.277 68.071 223.154 67.2846 222.608 67.1348C221.656 66.8673 220.467 66.0275 220.66 64.8666C220.772 64.1872 219.756 63.5988 219.44 64.3531C218.894 65.6423 217.674 66.755 216.411 67.3274C215.619 67.6805 216.298 68.8306 217.08 68.4775Z" fill="#333333"/>
<path d="M248.864 198.961C250.304 198.309 251.754 196.977 252.375 195.511C251.968 195.34 251.561 195.169 251.154 194.997C250.833 196.907 252.289 198.421 254.034 198.908C253.98 198.501 253.927 198.095 253.873 197.688C251.898 198.785 251.577 200.347 250.935 202.348C251.363 202.465 251.797 202.583 252.225 202.701C252.658 200.336 250.876 198.105 248.43 198.164C247.569 198.186 247.569 199.523 248.43 199.502C249.95 199.464 251.219 200.802 250.935 202.348C250.78 203.187 251.957 203.535 252.225 202.701C252.755 201.053 252.878 199.769 254.553 198.838C255.061 198.555 254.938 197.768 254.392 197.619C253.44 197.351 252.252 196.511 252.444 195.351C252.557 194.671 251.54 194.083 251.224 194.837C250.678 196.126 249.458 197.239 248.195 197.811C247.403 198.164 248.083 199.314 248.864 198.961Z" fill="#333333"/>
<path d="M168.902 127.84C168.902 127.84 167.136 130.846 163.502 132.403C159.868 133.96 153.328 136.035 150.733 135.516C148.137 134.997 145.129 134.377 145.129 134.377L143.363 137.282C143.363 137.282 149.074 145.686 151.252 151.704C153.43 157.722 153.489 162.462 152.938 167.089C152.387 171.716 150.974 173.519 151.68 175.327C152.387 177.13 164.551 190.231 164.551 190.231C164.551 190.231 167.222 186.78 169.261 189.68C171.3 192.585 170.358 193.836 170.358 193.836C170.358 193.836 172.087 195.719 171.535 196.816C170.984 197.913 169.967 198.619 169.967 198.619C169.967 198.619 171.225 200.502 170.203 202.149C169.18 203.797 168.003 203.797 167.222 203.797C166.435 203.797 165.338 203.952 165.338 203.952C165.338 203.952 153.098 191.097 148.993 187.69C144.889 184.282 133.559 174.482 133.559 174.482C133.559 174.482 127.581 180.735 125.563 183.934C123.546 187.133 121.111 192.135 121.18 193.387C121.25 194.639 123.894 196.586 125.424 197.907C126.955 199.229 134.71 207.761 138.252 212.843C141.795 217.925 153.505 231.17 157.225 234.257C160.944 237.344 172.568 249.503 183.823 249.503C195.078 249.503 197.529 246.144 198.621 244.239C199.712 242.335 211.331 215.657 212.236 199.143C213.146 182.629 212.509 165.933 208.061 156.952C203.614 147.97 197.984 141.256 190.176 136.356C182.367 131.456 170.203 127.465 170.203 127.465L168.902 127.84Z" fill="#FFECDD"/>
<path d="M107.962 139.031C107.962 139.031 96.1131 145.627 90.3492 158.514C84.5907 171.395 74.5293 200.282 74.5293 212.779C74.5293 225.27 76.4827 239.617 83.6113 245.865C90.7399 252.113 98.4518 249.867 105.19 247.722C111.928 245.576 134.973 233.957 140.148 230.058C145.323 226.152 147.667 224.398 147.667 224.398L136.193 206.985C136.193 206.985 119.896 208.681 111.483 212.886C103.07 217.09 101.947 218.214 101.947 218.214C101.947 218.214 99.4205 214.148 99.8433 207.702C100.266 201.256 100.967 199.715 100.967 199.715C100.967 199.715 94.5183 188.364 97.1835 176.873C99.8487 165.382 105.174 159.075 105.174 159.075C105.174 159.075 106.271 152.832 107.052 150.949C107.834 149.066 108.524 147.74 108.524 147.74L107.962 139.031Z" fill="#FFECDD"/>
<path d="M97.7877 250.006C93.9237 261.641 94.2823 275.122 95.9627 287.116C96.6959 292.321 97.7181 297.729 100.105 302.463C102.631 307.476 106.404 311.964 110.835 315.393C115.604 319.079 121.25 321.491 127.265 322.128C134.549 322.898 141.437 320.833 147.966 317.784C160.527 311.916 172.285 304.293 183.144 295.701C196.978 284.756 209.453 271.955 219.306 257.287C219.787 256.57 218.626 255.901 218.15 256.613C202.303 280.209 179.499 299.639 154.495 313.012C148.624 316.153 142.47 319.384 135.844 320.502C128.887 321.673 121.801 320.496 115.657 317.014C105.858 311.466 100.078 301.987 97.975 291.165C96.6157 284.179 96.1393 276.989 96.2731 269.874C96.3962 263.316 96.9903 256.618 99.0668 250.359C99.3504 249.541 98.0553 249.193 97.7877 250.006Z" fill="#333333"/>
<path d="M149.165 123.609C149.165 123.609 150.177 123.079 155.748 123.582C161.838 124.128 167.061 126.738 167.061 126.738L163.642 116.959L162.304 108.234C162.304 108.234 159.355 112.883 156.797 115.873C153.666 119.532 149.261 120.378 149.261 120.378L149.165 123.609Z" fill="#F8BAB4"/>
<path d="M161.956 107.56C161.806 111.011 162.865 114.563 163.781 117.853C164.776 121.437 165.953 124.962 167.083 128.509C167.34 129.327 168.635 128.98 168.372 128.156C167.318 124.839 166.221 121.544 165.268 118.195C164.305 114.803 163.144 111.128 163.294 107.566C163.331 106.704 161.993 106.704 161.956 107.56Z" fill="#333333"/>
<path d="M148.266 89.9069C148.523 91.0196 148.838 92.4747 149.727 93.2717C150.364 93.8441 151.316 92.9026 150.674 92.3249C149.973 91.6936 149.759 90.4258 149.555 89.5485C149.363 88.714 148.073 89.0671 148.266 89.9069Z" fill="#333333"/>
<path d="M136.524 92.453C136.599 93.8171 137.199 95.0422 138.039 96.096C138.574 96.7701 139.516 95.8178 138.986 95.1491C138.382 94.3895 137.916 93.4373 137.868 92.453C137.82 91.5971 136.482 91.5918 136.524 92.453Z" fill="#333333"/>
<path d="M141.255 73.0186C142.063 81.1284 148.512 88.2005 156.689 89.3453C159.451 89.7304 163.786 88.7675 164.3 92.4854C164.653 95.0264 164.225 97.653 164.294 100.205C164.428 105.073 168.26 107.459 170.406 111.439C170.813 112.198 171.969 111.524 171.562 110.765C170.62 109.015 169.314 107.592 168.073 106.052C165.921 103.393 165.606 101.05 165.697 97.7172C165.777 94.8445 166.531 90.1691 163.272 88.7461C161.474 87.9651 159.414 88.2914 157.519 88.1095C155.02 87.8688 152.617 86.9754 150.503 85.6381C146.109 82.8563 143.101 78.2076 142.588 73.024C142.507 72.1734 141.169 72.1627 141.255 73.0186Z" fill="#333333"/>
<path d="M134.822 104.137C129.272 103.425 129.684 97.7493 127.046 93.9405C125.644 91.9184 123.589 90.5543 122.529 88.2754C121.341 85.7183 121.132 82.7761 121.32 79.9997C121.694 74.5165 123.776 68.9584 127.351 64.7591C130.535 61.0198 134.86 58.5965 139.146 56.3443C139.906 55.9431 139.232 54.7876 138.472 55.1889C133.602 57.7459 128.817 60.5651 125.435 65.0212C121.93 69.6431 119.982 75.6453 119.928 81.4388C119.901 83.9958 120.271 86.6277 121.378 88.9548C122.749 91.8328 125.542 93.55 126.95 96.4173C127.988 98.525 128.309 101.093 129.727 103.003C130.974 104.688 132.821 105.217 134.822 105.474C135.673 105.586 135.668 104.244 134.822 104.137Z" fill="#333333"/>
<path d="M156.192 96.4879C157.138 95.4555 157.356 94.1153 156.679 93.4945C156.001 92.8736 154.684 93.2072 153.738 94.2396C152.791 95.272 152.573 96.6122 153.25 97.233C153.928 97.8539 155.245 97.5203 156.192 96.4879Z" fill="#F8BAB4"/>
<path d="M138.165 100.089C138.625 99.2933 138.014 98.0806 136.801 97.3804C135.587 96.6802 134.231 96.7577 133.772 97.5534C133.312 98.3491 133.923 99.5618 135.136 100.262C136.35 100.962 137.706 100.885 138.165 100.089Z" fill="#F8BAB4"/>
<path d="M140.961 72.9543C138.975 75.7735 136.39 77.9882 133.634 80.0263C131.777 81.4012 130.252 82.8081 129.813 85.1833C129.658 86.0231 130.947 86.3869 131.103 85.5363C131.681 82.4229 134.683 81 136.931 79.1437C138.9 77.5174 140.645 75.7147 142.117 73.623C142.614 72.9276 141.453 72.2589 140.961 72.9543Z" fill="#333333"/>
<path d="M145.264 74.8589C148.089 81.1071 154.281 84.7073 161.116 84.1403C161.967 84.0707 161.977 82.7333 161.116 82.8029C154.715 83.3378 149.063 80.0318 146.42 74.1849C146.066 73.4038 144.91 74.0832 145.264 74.8589Z" fill="#333333"/>
<path d="M127.158 86.9003C125.611 79.9085 131.547 77.0626 136.224 73.6068C139.863 70.916 141.448 67.7385 142.015 63.2663C142.122 62.4157 140.784 62.4211 140.677 63.2663C140.249 66.6472 139.184 69.4503 136.518 71.6917C134.57 73.3287 132.301 74.5269 130.3 76.0943C126.719 78.8921 124.862 82.6903 125.868 87.2534C126.05 88.0932 127.34 87.7402 127.158 86.9003Z" fill="#333333"/>
<path d="M132.928 174.017C129.246 177.729 125.842 181.811 123.284 186.39C122.139 188.439 119.308 192.499 121.01 194.762C122.84 197.196 125.591 199.127 127.812 201.181C130.611 203.77 133.688 206.493 135.519 209.885C135.925 210.644 137.081 209.97 136.674 209.211C133.742 203.781 128.219 199.881 123.814 195.725C123.279 195.222 121.978 194.318 121.78 193.569C121.582 192.825 122.46 191.226 122.749 190.53C123.241 189.337 123.809 188.187 124.435 187.064C126.945 182.581 130.263 178.601 133.87 174.963C134.486 174.348 133.538 173.401 132.928 174.017Z" fill="#333333"/>
<path d="M134.758 208.499C141.378 219.508 149.62 229.357 159.59 237.488C169.149 245.288 181.008 253.627 193.885 249.171C194.693 248.893 194.345 247.599 193.531 247.882C180.409 252.429 168.142 243.057 158.664 234.984C149.588 227.254 142.052 218.032 135.914 207.83C135.47 207.087 134.308 207.761 134.758 208.499Z" fill="#333333"/>
<path d="M133.206 175.21C142.197 182.095 150.551 189.932 158.467 198.009C162.855 202.492 167.12 207.119 171.017 212.041C174.121 215.967 177.262 220.199 179.034 224.928C179.333 225.725 180.628 225.383 180.323 224.575C178.611 220.006 175.715 215.935 172.751 212.105C168.796 206.996 164.428 202.209 159.922 197.581C151.782 189.225 143.155 181.158 133.88 174.054C133.201 173.53 132.532 174.691 133.206 175.21Z" fill="#333333"/>
<path d="M175.523 215.791C173.249 207.365 175.389 198.56 176.952 190.193C178.445 182.196 180.259 174.236 183.497 166.741C183.834 165.96 182.684 165.275 182.341 166.067C178.921 173.974 177.043 182.346 175.486 190.792C173.95 199.116 171.969 207.777 174.233 216.154C174.458 216.978 175.748 216.625 175.523 215.791Z" fill="#333333"/>
<path d="M146.58 135.976C151.52 136.902 156.984 136.089 161.619 134.216C163.374 133.51 165.033 132.617 166.382 131.279C167.388 130.279 168.324 128.583 169.866 128.53C170.567 128.508 171.471 128.942 172.13 129.145C182.608 132.344 192.697 136.838 199.996 145.311C209.549 156.401 211.931 172.128 212.038 186.299C212.129 198.132 210.256 210.077 207.189 221.488C205.643 227.238 203.769 232.973 201.12 238.317C199.381 241.821 197.176 245.962 193.569 247.845C192.804 248.241 193.483 249.396 194.243 249C197.256 247.433 199.311 244.357 200.949 241.489C203.459 237.103 205.273 232.31 206.809 227.511C210.609 215.662 212.857 203.102 213.306 190.659C213.799 176.9 212.204 161.392 204.733 149.494C198.369 139.352 188.463 133.537 177.492 129.562C175.314 128.771 173.093 127.915 170.834 127.39C168.897 126.936 167.859 127.738 166.467 129.188C161.715 134.141 153.634 135.955 146.933 134.698C146.098 134.532 145.734 135.821 146.58 135.976Z" fill="#333333"/>
<path d="M152.168 108.015C152.607 107.271 151.451 106.597 151.012 107.341C150.68 107.897 150.236 108.352 149.717 108.694C149.728 109.192 149.744 109.689 149.754 110.187C150.734 109.737 151.585 109.004 152.168 108.015Z" fill="#333333"/>
<path d="M144.611 99.1504C144.483 99.236 144.359 99.3323 144.236 99.4339C144.258 99.5944 144.284 99.7495 144.306 99.91C144.408 99.6586 144.509 99.4072 144.611 99.1504Z" fill="#333333"/>
<path d="M143.899 102.419C144.006 101.392 144.429 100.894 145.291 100.306C145.563 100.119 145.644 99.8672 145.596 99.5516C145.333 97.7542 145.071 95.9514 144.809 94.154C144.686 93.3034 143.396 93.6672 143.519 94.5071C143.76 96.1494 143.995 97.7916 144.236 99.4339C144.359 99.3376 144.482 99.2414 144.611 99.1504C144.509 99.4018 144.407 99.6533 144.306 99.9047C144.284 99.7442 144.258 99.5891 144.236 99.4286C143.037 100.397 142.181 101.868 142.433 103.328C142.893 103.066 143.364 102.826 143.846 102.612C143.867 102.547 143.872 102.488 143.899 102.419Z" fill="#333333"/>
<path d="M136.706 106.576C132.741 100.178 130.279 92.8809 131.119 85.3489C131.215 84.493 129.878 84.5037 129.781 85.3489C128.984 92.4851 131.124 99.8139 134.823 106.297C135.122 106.33 135.427 106.362 135.727 106.399C136.059 106.442 136.385 106.517 136.706 106.576Z" fill="#333333"/>
<path d="M164.182 101.51C162.86 106.222 160.618 110.866 157.391 114.578C155.807 116.397 153.939 118.045 151.691 118.976C151.011 119.259 150.375 119.462 149.754 119.532C149.743 119.783 149.743 120.04 149.732 120.292C149.722 120.495 149.711 120.703 149.7 120.907C152.526 120.72 155.459 118.516 157.359 116.584C161.303 112.588 163.968 107.233 165.477 101.868C165.707 101.033 164.418 100.68 164.182 101.51Z" fill="#333333"/>
<path d="M130.669 106.142C128.978 106.201 127.292 106.394 125.633 106.725C123.974 107.052 122.679 107.742 120.956 106.426C120.351 105.961 119.907 105.121 119.382 104.548C117.06 101.991 114.202 100.055 111.039 98.6852C110.643 98.514 110.193 98.6317 110.054 99.0864C108.898 102.933 108.16 106.929 108.047 110.957C107.94 114.787 108.781 118.446 108.438 122.287C107.662 131.055 107.266 139.871 107.876 148.66C107.935 149.516 109.273 149.521 109.214 148.66C108.625 140.187 108.957 131.665 109.696 123.213C109.867 121.249 110.119 119.275 109.899 117.301C109.706 115.6 109.396 113.947 109.38 112.225C109.337 108.154 110.022 104.104 111.135 100.194C110.878 100.076 110.627 99.9584 110.365 99.8461C110.691 99.7123 111.018 99.5786 111.349 99.4448C111.275 99.6909 111.21 99.9424 111.135 100.194C113.378 101.242 115.449 102.574 117.258 104.297C118.606 105.581 119.704 107.779 121.448 108.544C123.3 109.357 125.917 107.983 127.833 107.731C130.466 107.383 133.088 107.416 135.695 107.769C135.395 107.287 135.106 106.795 134.828 106.303C133.447 106.153 132.056 106.094 130.669 106.142Z" fill="#333333"/>
<path d="M110.364 99.8353C110.621 99.9476 110.878 100.065 111.135 100.183C111.204 99.9316 111.274 99.6802 111.349 99.4341C111.017 99.5678 110.691 99.7016 110.364 99.8353Z" fill="#333333"/>
<path d="M148.218 101.879C148.223 102.141 148.228 102.398 148.234 102.66C148.507 102.612 148.785 102.564 149.069 102.526C148.78 102.307 148.501 102.093 148.218 101.879Z" fill="#333333"/>
<path d="M148.357 120.827C148.186 124.042 147.715 127.23 146.5 130.236C144.959 134.045 142.363 137.458 138.264 138.576C134.453 139.614 129.963 139.304 126.517 137.324C125.767 136.896 125.093 138.052 125.842 138.48C132.66 142.39 141.791 140.727 146.056 134.056C148.561 130.135 149.449 125.486 149.695 120.902C149.246 120.934 148.801 120.912 148.357 120.827Z" fill="#333333"/>
<path d="M149.748 119.527C149.855 116.419 149.823 113.3 149.748 110.181C149.31 110.379 148.844 110.518 148.362 110.593C148.389 112.337 148.421 114.086 148.432 115.83C148.443 117.034 148.443 118.237 148.405 119.446C148.86 119.559 149.304 119.58 149.748 119.527Z" fill="#333333"/>
<path d="M144.231 103.944C145.483 103.35 146.816 102.922 148.234 102.66C148.228 102.398 148.223 102.141 148.218 101.879C148.501 102.093 148.78 102.307 149.063 102.526C148.785 102.564 148.507 102.612 148.228 102.66C148.266 104.858 148.309 107.052 148.346 109.25C148.833 109.149 149.299 108.967 149.716 108.694C149.657 106.42 149.593 104.147 149.556 101.879C149.55 101.397 149.138 101.178 148.71 101.232C147.014 101.462 145.381 101.922 143.851 102.612C143.701 103.179 143.829 103.623 144.231 103.944Z" fill="#333333"/>
<path d="M138.916 108.042C140.115 106.64 141.475 105.501 142.978 104.613C142.684 104.195 142.507 103.767 142.432 103.334C141.705 103.751 141.004 104.222 140.34 104.757C139.81 105.185 139.088 106.207 138.499 106.48C137.91 106.752 137.311 106.688 136.706 106.581C137.027 107.095 137.354 107.603 137.691 108.106C137.883 108.143 138.071 108.175 138.263 108.218C138.488 108.261 138.756 108.223 138.916 108.042Z" fill="#333333"/>
<path d="M148.368 110.593C148.85 110.518 149.315 110.379 149.754 110.181C149.743 109.683 149.733 109.186 149.717 108.688C149.299 108.961 148.834 109.143 148.347 109.245C148.357 109.694 148.363 110.144 148.368 110.593Z" fill="#333333"/>
<path d="M144.231 103.944C143.83 103.623 143.702 103.184 143.851 102.617C143.37 102.831 142.899 103.072 142.438 103.334C142.513 103.767 142.69 104.195 142.984 104.613C143.386 104.372 143.803 104.147 144.231 103.944Z" fill="#333333"/>
<path d="M149.749 119.527C149.299 119.575 148.86 119.559 148.416 119.446C148.406 119.906 148.384 120.366 148.357 120.826C148.796 120.907 149.246 120.933 149.695 120.901C149.706 120.698 149.717 120.489 149.727 120.286C149.738 120.035 149.744 119.778 149.749 119.527Z" fill="#333333"/>
<path d="M135.733 106.399C135.433 106.356 135.128 106.329 134.828 106.297C135.112 106.79 135.401 107.282 135.695 107.763C136.364 107.854 137.028 107.972 137.691 108.1C137.354 107.597 137.022 107.089 136.707 106.576C136.386 106.517 136.059 106.442 135.733 106.399Z" fill="#333333"/>
<path d="M130.616 121.661C128.518 121.982 126.506 121.469 124.767 120.276C124.055 119.789 123.386 120.945 124.092 121.431C126.147 122.838 128.524 123.325 130.969 122.951C131.82 122.822 131.456 121.533 130.616 121.661Z" fill="#333333"/>
<path d="M142.518 122.876C144.263 122.967 146.302 122.186 146.96 120.447C147.265 119.64 145.975 119.292 145.67 120.094C145.232 121.244 143.583 121.597 142.518 121.539C141.662 121.496 141.662 122.833 142.518 122.876Z" fill="#333333"/>
<path d="M142.491 137.442C145.483 141.513 148.202 145.836 150.203 150.484C152.488 155.78 153.056 161.023 152.36 166.742C152.044 169.347 151.145 172.091 151.118 174.712C151.102 176.339 152.044 177.296 153.104 178.414C156.706 182.228 160.083 186.24 163.716 190.028C164.316 190.648 165.258 189.702 164.664 189.081C161.223 185.491 158.017 181.693 154.618 178.066C153.318 176.681 152.499 175.9 152.569 173.808C152.617 172.353 153.104 170.829 153.329 169.39C153.719 166.881 154.03 164.345 154.046 161.799C154.094 152.549 148.962 144.006 143.647 136.774C143.144 136.084 141.983 136.747 142.491 137.442Z" fill="#333333"/>
<path d="M104.542 158.819C98.4306 166.03 95.8832 176.788 96.5414 186.101C97.2639 196.27 102.75 209.692 113.635 212.533C114.47 212.752 114.823 211.463 113.988 211.244C103.381 208.478 98.1684 194.869 97.8151 184.983C97.5047 176.344 99.806 166.458 105.484 159.76C106.041 159.113 105.099 158.161 104.542 158.819Z" fill="#333333"/>
<path d="M107.705 137.956C93.6028 146.472 86.7739 162.51 82.0643 177.59C78.286 189.696 74.5397 202.225 73.9457 214.962C73.5175 224.195 74.7912 233.68 79.5758 241.736C80.0146 242.474 81.1706 241.806 80.7317 241.062C72.8378 227.768 74.5718 210.869 78.1201 196.485C81.2081 183.962 84.7081 171.059 90.5898 159.536C94.7695 151.362 100.421 143.915 108.374 139.112C109.118 138.668 108.443 137.507 107.705 137.956Z" fill="#333333"/>
<path d="M79.6882 241.837C82.621 246.181 86.7205 250.359 92.281 250.83C96.5678 251.194 101.095 249.69 105.083 248.326C116.353 244.469 127.212 238.858 137.316 232.588C140.758 230.454 144.804 228.191 147.442 225.035C147.988 224.377 147.051 223.43 146.495 224.088C144.429 226.559 141.411 228.367 138.735 230.101C134.287 232.984 129.669 235.6 124.975 238.055C115.92 242.79 105.703 248.187 95.4011 249.396C89.0325 250.145 84.248 246.203 80.8442 241.158C80.3625 240.452 79.2012 241.121 79.6882 241.837Z" fill="#333333"/>
<path d="M109.128 246.395C109.112 253.665 111.702 260.662 114.507 267.269C116.99 273.121 120.581 279.054 121.849 285.334C122.545 288.784 122.427 292.406 122.855 295.899C123.262 299.232 124.108 302.463 125.023 305.683C125.751 308.251 126.457 310.942 127.993 313.167C129.567 315.451 131.873 317.094 134.116 318.661C134.822 319.153 135.491 317.998 134.79 317.506C132.328 315.783 129.834 313.964 128.394 311.257C126.896 308.438 126.179 305.052 125.392 301.981C123.878 296.092 124.445 289.892 122.925 284.066C121.469 278.503 118.558 273.276 116.278 268.028C113.318 261.213 110.45 253.938 110.466 246.395C110.471 245.534 109.133 245.534 109.128 246.395Z" fill="#333333"/>
<path d="M131.933 261.299C135.877 270.115 138.157 279.284 137.788 288.982C137.424 298.569 135.31 308.043 133.94 317.511C133.816 318.351 135.106 318.715 135.229 317.864C136.653 308.048 138.879 298.21 139.152 288.266C139.414 278.578 137.028 269.425 133.094 260.625C132.741 259.838 131.585 260.518 131.933 261.299Z" fill="#333333"/>
<path d="M136.877 130.135L136.176 129.118C135.833 128.621 136.181 127.947 136.786 127.936L138.231 127.915C138.852 127.904 139.216 128.605 138.857 129.108L138.113 130.145C137.808 130.573 137.171 130.568 136.877 130.135Z" fill="#333333"/>
<path d="M150.209 147.954C156.974 148.606 163.423 146.386 169.492 143.589C174.56 141.256 179.446 138.218 182.127 133.157C182.529 132.398 181.378 131.718 180.971 132.483C178.392 137.351 173.672 140.197 168.812 142.439C162.957 145.14 156.738 147.248 150.204 146.616C149.353 146.531 149.358 147.868 150.209 147.954Z" fill="#333333"/>
<path d="M150.926 137.48C151.499 140.663 152.071 143.846 152.644 147.023C152.794 147.868 154.084 147.51 153.934 146.67C153.361 143.487 152.788 140.304 152.216 137.127C152.061 136.276 150.771 136.635 150.926 137.48Z" fill="#333333"/>
<path d="M158.028 135.356C160.04 138.389 161.892 141.519 163.588 144.739C163.989 145.499 165.145 144.825 164.744 144.065C163.053 140.839 161.196 137.715 159.184 134.682C158.713 133.965 157.551 134.634 158.028 135.356Z" fill="#333333"/>
<path d="M164.76 131.408C167.875 134.243 170.861 137.217 173.874 140.165C174.49 140.769 175.437 139.823 174.822 139.218C171.809 136.276 168.822 133.302 165.708 130.461C165.076 129.883 164.123 130.825 164.76 131.408Z" fill="#333333"/>
<path d="M137.418 57.0342C141.454 54.7768 146.741 54.3863 151.231 54.8035C156.08 55.2529 161.662 56.7935 165.622 59.6983C169.353 62.4372 171.247 67.0003 173.045 71.1087C176.267 78.4856 175.512 89.864 184.648 93.0576C186.789 93.8066 189.074 94.0205 191.209 94.7855C193.607 95.6414 195.833 96.9521 197.771 98.5997C201.26 101.569 203.834 105.597 204.974 110.037C207.677 120.586 200.976 131.729 190.878 135.228C190.069 135.506 190.417 136.8 191.231 136.517C199.489 133.655 205.723 126.117 206.772 117.398C207.843 108.496 202.887 99.5466 195.175 95.1386C190.728 92.5976 184.557 93.0416 181.025 89.1204C176.877 84.5252 177.054 77.8384 174.988 72.3123C173.484 68.2895 171.552 63.8441 168.635 60.6291C165.317 56.9754 160.019 55.1191 155.309 54.092C149.422 52.8135 142.171 52.8402 136.744 55.8787C135.989 56.3014 136.664 57.4568 137.418 57.0342Z" fill="#333333"/>
<path d="M196.855 108.935C200.419 113.974 200.002 120.404 195.736 124.882C195.142 125.502 196.09 126.454 196.684 125.829C201.35 120.934 201.934 113.803 198.011 108.261C197.513 107.565 196.357 108.234 196.855 108.935Z" fill="#333333"/>
<path d="M119.425 163.954C120.795 158.69 113.629 154.084 116.31 149.248C115.963 149.291 115.609 149.339 115.262 149.382C119.34 152.971 122.31 157.631 125.018 162.296C127.977 167.383 126.254 173.433 128.084 178.927C128.357 179.74 129.647 179.393 129.374 178.574C127.49 172.904 129.256 166.923 126.174 161.622C123.407 156.866 120.367 152.1 116.209 148.44C115.893 148.162 115.379 148.178 115.16 148.574C112.104 154.084 119.543 158.214 118.141 163.601C117.916 164.43 119.206 164.789 119.425 163.954Z" fill="#333333"/>
<path d="M118.612 162.847C115.604 161.451 111.494 159.589 109.77 156.673C108.181 153.983 110.065 150.5 109.535 147.483C109.449 147.002 108.727 146.82 108.416 147.189C102.792 153.795 105.66 163.43 105.564 171.294C105.51 175.418 106.42 178.28 109.492 181.137C113.147 184.534 116.974 187.77 120.71 191.081C121.352 191.648 122.299 190.707 121.657 190.134C118.633 187.454 115.609 184.78 112.585 182.1C111.103 180.789 109.332 179.505 108.25 177.82C106.982 175.857 106.875 173.562 106.907 171.294C106.961 167.394 106.575 163.596 106.377 159.707C106.169 155.593 106.597 151.388 109.364 148.136C108.989 148.039 108.62 147.938 108.245 147.841C108.834 151.201 106.575 154.748 108.759 157.834C110.777 160.686 114.876 162.585 117.937 164.008C118.713 164.361 119.393 163.205 118.612 162.847Z" fill="#333333"/>
<path d="M105.709 159.825C106.506 160.804 106.929 162.023 107.705 163.013C108.433 163.938 109.364 164.655 110.301 165.356C110.991 165.869 111.66 164.709 110.975 164.2C109.958 163.441 108.979 162.638 108.31 161.542C107.758 160.638 107.325 159.701 106.656 158.878C106.11 158.209 105.168 159.161 105.709 159.825Z" fill="#333333"/>
<path d="M105.714 165.564C106.131 166.543 106.688 167.437 107.346 168.276C107.662 168.678 107.994 169.068 108.341 169.437C108.55 169.657 109.342 170.299 109.385 170.427C109.658 171.24 110.953 170.892 110.675 170.074C110.397 169.25 109.39 168.635 108.829 167.988C108.02 167.051 107.351 166.024 106.864 164.885C106.533 164.099 105.382 164.778 105.714 165.564Z" fill="#333333"/>
<path d="M106.019 172.064C107.063 173.712 108.235 175.268 109.535 176.723C110.108 177.365 111.05 176.418 110.483 175.776C109.262 174.402 108.16 172.941 107.175 171.385C106.715 170.662 105.554 171.331 106.019 172.064Z" fill="#333333"/>
<path d="M96.771 223.451C106.238 213.603 121.068 209.772 134.234 208.323C135.079 208.232 135.09 206.889 134.234 206.985C120.726 208.473 105.553 212.388 95.829 222.504C95.2296 223.13 96.1769 224.077 96.771 223.451Z" fill="#333333"/>
<path d="M164.851 190.589C166.05 189.723 167.891 188.455 169.117 189.985C169.978 191.055 170.567 193.58 168.646 193.853C167.795 193.976 168.159 195.265 168.999 195.142C171.696 194.757 171.568 191.499 170.514 189.669C168.983 187.016 166.205 187.963 164.177 189.439C163.487 189.937 164.156 191.098 164.851 190.589Z" fill="#333333"/>
<path d="M169.957 194.259C170.514 195.174 171.183 196.281 170.327 197.217C170.134 197.431 168.336 198.822 168.111 198.565C167.544 197.913 166.602 198.865 167.164 199.512C168.266 200.775 170.295 199.015 171.167 198.25C172.681 196.923 172.007 195.067 171.113 193.58C170.669 192.847 169.513 193.521 169.957 194.259Z" fill="#333333"/>
<path d="M169.411 198.86C169.935 200.004 170.053 201.759 169.052 202.701C168.201 203.498 166.778 203.3 165.723 203.182C164.867 203.091 164.872 204.428 165.723 204.519C167.345 204.696 169.239 204.717 170.32 203.268C171.418 201.791 171.294 199.774 170.567 198.18C170.208 197.405 169.052 198.084 169.411 198.86Z" fill="#333333"/>
<path d="M139.367 246.786C146.019 243.458 152.361 240.019 156.289 233.407C156.728 232.663 155.572 231.989 155.133 232.733C151.317 239.152 145.125 242.41 138.692 245.63C137.916 246.015 138.596 247.171 139.367 246.786Z" fill="#333333"/>
<path d="M149.845 283.457C151.29 282.686 152.312 281.269 152.547 279.648C152.67 278.808 151.381 278.444 151.258 279.295C151.065 280.605 150.342 281.68 149.17 282.306C148.41 282.708 149.085 283.863 149.845 283.457Z" fill="#333333"/>
<path d="M153.629 286.174C155.582 284.992 156.781 283.066 157.07 280.819C157.177 279.968 155.839 279.974 155.732 280.819C155.507 282.579 154.464 284.104 152.955 285.018C152.216 285.462 152.89 286.618 153.629 286.174Z" fill="#333333"/>
<path d="M101.818 217.203C99.367 211.639 100.089 205.873 101.01 200.058C101.144 199.218 99.854 198.854 99.7202 199.705C98.7408 205.91 98.0611 211.971 100.662 217.882C101.01 218.663 102.166 217.984 101.818 217.203Z" fill="#333333"/>
<path d="M210.571 214.293C213.879 211.57 218.578 211.073 222.704 211.367C227.515 211.709 231.54 214.266 234.687 217.824C238.026 221.606 240.07 226.228 242.281 230.705C244.571 235.354 246.819 240.024 249.035 244.71C256.693 260.919 263.859 277.353 271.009 293.792C274.563 301.955 278.127 310.118 281.836 318.212C282.194 318.993 283.345 318.314 282.992 317.538C275.569 301.34 268.687 284.912 261.446 268.633C257.186 259.052 252.818 249.519 248.296 240.056C245.866 234.969 243.405 229.898 240.868 224.864C238.898 220.959 236.453 217.225 233.081 214.379C226.878 209.142 216.169 207.959 209.624 213.352C208.96 213.892 209.908 214.833 210.571 214.293Z" fill="#333333"/>
<path d="M287.456 316.982C289.099 318.223 289.778 320.743 290.228 322.652C290.453 323.599 290.495 324.359 291.336 324.958C292.272 325.627 293.642 325.68 294.739 325.755C296.853 325.899 298.818 326.039 300.915 326.418C305.475 327.248 310.062 327.938 314.67 328.462C317.164 328.745 319.668 328.981 322.173 329.189C324.667 329.398 331.924 329.345 329.858 334.041C329.516 334.822 330.666 335.502 331.014 334.715C332.646 331.003 329.869 328.82 326.347 328.243C320.508 327.28 314.493 327.199 308.622 326.343C303.859 325.648 299.219 324.824 294.434 324.396C291.373 324.123 291.662 322.192 290.752 319.812C290.169 318.287 289.452 316.821 288.125 315.826C287.445 315.307 286.776 316.468 287.456 316.982Z" fill="#333333"/>
<path d="M272.946 334.999C274.627 334.731 277.576 334.426 278.801 333.078C279.877 331.896 278.973 329.719 278.523 328.435C278.1 327.237 277.206 326.087 276.891 324.894C276.195 322.283 277.586 321.518 279.556 320.341C281.006 319.475 282.532 318.843 284.105 318.244C284.999 317.907 286.754 316.623 287.621 317.249C288.317 317.758 288.986 316.597 288.295 316.094C286.578 314.842 284.597 316.597 282.933 317.239C280.525 318.169 277.581 319.432 275.804 321.374C274.236 323.086 275.291 324.589 276.184 326.402C276.693 327.429 277.255 328.537 277.517 329.66C277.849 331.078 278.132 332.148 276.612 332.72C275.323 333.207 273.953 333.485 272.593 333.699C271.742 333.843 272.101 335.133 272.946 334.999Z" fill="#333333"/>
<path d="M279.261 352.529C290.232 351.165 301.321 350.443 312.095 347.832C319.255 346.094 330.676 342.89 331.366 333.945C331.431 333.089 330.093 333.089 330.028 333.945C329.338 342.873 316.178 345.618 309.279 347.105C299.384 349.229 289.285 349.951 279.261 351.197C278.416 351.294 278.405 352.636 279.261 352.529Z" fill="#333333"/>
<path d="M279.722 351.256C278.865 348.206 278.084 345.109 276.901 342.162C276.441 341.017 275.927 339.893 275.306 338.824C275.199 338.642 272.754 334.95 273.187 334.934C274.043 334.908 274.049 333.57 273.187 333.597C269.778 333.704 272.705 337.278 273.46 338.38C276.136 342.29 277.174 347.121 278.437 351.614C278.662 352.438 279.952 352.085 279.722 351.256Z" fill="#333333"/>
<path d="M278.539 349.207C288.638 348.736 298.683 347.351 308.509 344.97C313.224 343.831 317.966 342.536 322.52 340.856C325.854 339.631 328.942 338 330.89 334.929C331.35 334.202 330.194 333.528 329.734 334.255C327.32 338.064 322.857 339.401 318.79 340.701C314.642 342.023 310.441 343.173 306.197 344.141C297.104 346.217 287.851 347.436 278.539 347.87C277.677 347.912 277.677 349.25 278.539 349.207Z" fill="#333333"/>
<path d="M286.572 329.162C287.39 328.863 288.188 328.51 288.942 328.066C289.296 327.857 289.633 327.632 289.965 327.397C290.141 327.269 290.778 326.595 290.965 326.6C290.751 326.434 290.537 326.274 290.318 326.108C290.323 326.145 290.334 326.177 290.339 326.215C290.398 325.995 290.452 325.781 290.51 325.562C290.484 325.589 290.452 325.621 290.425 325.648C290.692 325.61 290.965 325.578 291.233 325.541C291.212 325.525 291.19 325.509 291.169 325.493C290.468 324.99 289.799 326.151 290.494 326.648C290.516 326.664 290.537 326.68 290.559 326.696C290.799 326.867 291.169 326.782 291.367 326.589C291.629 326.338 291.677 326.097 291.608 325.749C291.549 325.455 291.244 325.268 290.96 325.257C290.157 325.225 289.526 326.081 288.905 326.498C288.065 327.065 287.16 327.52 286.208 327.873C285.41 328.167 285.758 329.457 286.572 329.162Z" fill="#333333"/>
<path d="M287.905 330.687C289.928 329.949 291.764 328.917 293.455 327.59C294.129 327.06 293.176 326.119 292.507 326.643C291.009 327.82 289.339 328.74 287.546 329.398C286.749 329.687 287.091 330.981 287.905 330.687Z" fill="#333333"/>
<path d="M290.987 331.859C293.743 330.928 296.301 329.606 298.635 327.873C298.367 327.526 298.094 327.172 297.827 326.825C297.666 326.996 297.506 327.167 297.35 327.338C296.762 327.97 297.709 328.916 298.298 328.285C298.458 328.114 298.619 327.943 298.774 327.772C299.266 327.242 298.597 326.247 297.966 326.723C295.718 328.392 293.294 329.681 290.634 330.575C289.82 330.842 290.168 332.137 290.987 331.859Z" fill="#333333"/>
<path d="M296.687 332.244C299.085 331.57 301.247 330.447 303.206 328.901C303.88 328.366 302.927 327.424 302.258 327.954C300.492 329.35 298.501 330.345 296.334 330.955C295.504 331.19 295.852 332.479 296.687 332.244Z" fill="#333333"/>
<path d="M301.675 332.768C303.521 331.993 305.191 330.966 306.7 329.65C307.348 329.083 306.401 328.141 305.753 328.703C304.431 329.858 302.943 330.8 301.322 331.479C300.535 331.805 300.883 333.1 301.675 332.768Z" fill="#333333"/>
<path d="M306.432 332.977C307.738 332.228 309.049 331.474 310.355 330.725C311.099 330.297 310.43 329.141 309.681 329.569C308.375 330.318 307.064 331.072 305.758 331.821C305.014 332.249 305.683 333.405 306.432 332.977Z" fill="#333333"/>
<path d="M256.794 325.626C263.821 320.207 270.88 314.836 277.902 309.417C278.576 308.898 277.907 307.738 277.228 308.262C270.201 313.681 263.142 319.052 256.12 324.471C255.446 324.99 256.109 326.15 256.794 325.626Z" fill="#333333"/>
<path d="M216.309 250.22C219.825 262.877 226.611 274.71 232.824 286.19C240.022 299.483 246.685 313.146 255.008 325.787C255.478 326.504 256.64 325.835 256.164 325.113C247.986 312.686 241.435 299.269 234.355 286.206C228.067 274.603 221.152 262.658 217.598 249.862C217.368 249.038 216.078 249.386 216.309 250.22Z" fill="#333333"/>
<path d="M164.332 343.125C175.453 339.241 186.199 333.929 196.705 328.649C209.089 322.427 221.997 315.885 232.685 306.951C235.42 304.667 239.771 301.137 239.621 297.124C239.589 296.268 238.251 296.263 238.283 297.124C238.411 300.591 234.403 303.747 232.059 305.737C227.344 309.738 222.051 313.066 216.753 316.227C204.626 323.471 191.91 329.788 179.033 335.587C174.088 337.813 169.1 340.038 163.979 341.83C163.17 342.119 163.518 343.408 164.332 343.125Z" fill="#333333"/>
<path d="M148.448 326.102C144.322 326.53 140.212 327.065 136.117 327.744C133.763 328.135 131.419 328.568 129.085 329.05C127.795 329.312 125.938 329.355 124.852 330.173C122.727 331.773 122.802 336.673 122.379 339.032C121.641 343.156 119.805 346.542 118.366 350.41C116.145 356.369 116.257 363.142 118.419 369.096C119.431 371.894 120.881 374.515 122.754 376.831C123.38 377.607 123.782 378.26 124.686 378.474C125.398 378.639 126.752 378.056 127.517 377.901C128.775 377.644 130.032 377.393 131.29 377.136C132.136 376.965 131.777 375.676 130.937 375.847C129.374 376.163 127.795 376.596 126.217 376.804C124.14 377.077 123.525 375.804 122.422 374.14C120.801 371.696 119.618 368.978 118.901 366.132C117.408 360.216 118.028 354.112 120.587 348.591C121.785 346.002 122.85 343.552 123.418 340.738C123.947 338.112 123.771 332.409 126.441 330.981C127.747 330.28 129.99 330.227 131.445 329.943C133.115 329.622 134.796 329.317 136.476 329.039C140.452 328.381 144.445 327.857 148.453 327.445C149.294 327.349 149.304 326.011 148.448 326.102Z" fill="#333333"/>
<path d="M160.067 340.032C157.091 340.332 154.806 341.979 152.735 344.05C150.048 346.735 147.592 349.8 145.296 352.818C139.794 360.045 135.406 368.026 130.841 375.852C130.407 376.596 131.563 377.27 131.997 376.526C135.925 369.791 139.719 362.955 144.204 356.568C146.404 353.433 148.833 350.501 151.322 347.596C153.634 344.9 156.299 341.749 160.067 341.37C160.912 341.284 160.923 339.947 160.067 340.032Z" fill="#333333"/>
<path d="M160.671 340.648C160.564 337.673 160.462 332.345 157.075 331.04C155.244 330.334 152.9 331.345 151.054 331.505C149.914 331.607 148.116 331.981 147.479 330.949C146.805 329.863 148.758 328.055 149.491 327.044C150 326.348 148.838 325.68 148.335 326.37C147.292 327.803 143.139 332.12 146.971 332.816C149.106 333.201 151.364 332.789 153.489 332.532C154.559 332.399 156.534 332.222 157.439 332.848C158.215 333.388 158.498 334.736 158.707 335.592C159.108 337.229 159.274 338.973 159.339 340.648C159.365 341.509 160.703 341.509 160.671 340.648Z" fill="#333333"/>
<path d="M128.144 329.558C126.833 334.357 125.521 339.171 124.911 344.114C124.558 346.944 124.692 349.854 123.996 352.636C123.525 354.524 122.733 356.295 122.503 358.242C121.695 365.063 125.254 372.643 130.659 376.757C131.344 377.276 132.013 376.115 131.333 375.601C125.371 371.065 122.337 362.468 124.569 355.311C125.864 351.159 125.784 347.11 126.431 342.836C127.095 338.46 128.272 334.18 129.439 329.911C129.664 329.082 128.374 328.729 128.144 329.558Z" fill="#333333"/>
<path d="M139.783 356.359C139.248 355.139 138.611 353.984 137.83 352.908C137.509 352.47 137.171 352.037 136.818 351.625C136.636 351.416 136.449 351.207 136.256 351.004C136.112 350.854 135.967 350.704 135.817 350.56C135.646 350.357 135.619 350.362 135.743 350.576C135.577 350.79 135.416 351.004 135.25 351.223C135.277 351.213 135.309 351.207 135.336 351.197C135.116 351.138 134.902 351.084 134.683 351.025C134.71 351.047 134.736 351.068 134.763 351.09C134.726 350.822 134.694 350.549 134.656 350.282C134.645 350.303 134.635 350.319 134.624 350.341C134.233 351.106 135.384 351.785 135.78 351.015C135.791 350.993 135.801 350.977 135.812 350.956C135.935 350.715 135.941 350.335 135.705 350.148C135.448 349.94 135.223 349.833 134.886 349.94C134.613 350.025 134.383 350.287 134.394 350.587C134.437 351.582 135.764 352.427 136.342 353.165C137.273 354.358 138.017 355.663 138.627 357.049C138.975 357.819 140.126 357.14 139.783 356.359Z" fill="#333333"/>
<path d="M141.619 353.117C139.933 350.811 138.21 348.533 135.78 346.96C135.609 347.366 135.438 347.773 135.267 348.179C135.39 348.212 135.518 348.238 135.641 348.27C136.476 348.474 136.835 347.184 135.994 346.981C135.871 346.949 135.743 346.922 135.62 346.89C134.876 346.708 134.464 347.698 135.106 348.11C137.332 349.549 138.922 351.667 140.463 353.786C140.966 354.481 142.128 353.812 141.619 353.117Z" fill="#333333"/>
<path d="M144.905 349.496C143.696 346.81 141.962 344.462 139.752 342.515C139.484 342.862 139.211 343.215 138.944 343.563C139.056 343.622 139.168 343.681 139.281 343.74C140.041 344.135 140.72 342.985 139.955 342.584C139.843 342.525 139.73 342.466 139.618 342.408C138.976 342.071 138.21 342.932 138.81 343.456C140.94 345.334 142.588 347.581 143.755 350.17C144.103 350.956 145.253 350.277 144.905 349.496Z" fill="#333333"/>
<path d="M148.063 345.649C146.565 343.381 144.9 341.247 143.065 339.246C142.481 338.61 141.539 339.556 142.117 340.193C143.878 342.108 145.473 344.152 146.907 346.323C147.383 347.04 148.539 346.366 148.063 345.649Z" fill="#333333"/>
<path d="M151.172 342.509C150 340.803 148.919 338.941 147.613 337.331C147.041 336.625 145.772 336.363 145.724 337.625C145.692 338.486 147.03 338.486 147.062 337.625C146.602 338.01 146.559 338.369 146.934 338.695C147.094 338.925 147.249 339.155 147.41 339.385C147.688 339.786 147.961 340.193 148.24 340.594C148.834 341.455 149.428 342.322 150.022 343.183C150.498 343.889 151.659 343.221 151.172 342.509Z" fill="#333333"/>
<path d="M151.536 319.785C156.861 326.408 162.314 333.421 163.09 342.194C163.165 343.044 164.503 343.05 164.428 342.194C163.615 333.02 158.06 325.776 152.478 318.838C151.943 318.169 151.006 319.122 151.536 319.785Z" fill="#333333"/>
<path d="M152.58 319.437C172.413 308.23 190.642 294.385 210.818 283.761C211.578 283.36 210.903 282.205 210.144 282.606C189.967 293.23 171.734 307.074 151.905 318.282C151.151 318.704 151.825 319.86 152.58 319.437Z" fill="#333333"/>
<path d="M148.48 327.686C150.899 326.825 153.27 325.835 155.587 324.728C156.363 324.359 155.684 323.203 154.913 323.572C152.697 324.631 150.439 325.568 148.127 326.397C147.319 326.686 147.667 327.975 148.48 327.686Z" fill="#333333"/>
<path d="M210.181 270.307C214.131 268.344 218.508 268.424 222.811 268.414C223.673 268.408 223.673 267.071 222.811 267.076C218.241 267.092 213.686 267.076 209.501 269.157C208.731 269.537 209.41 270.692 210.181 270.307Z" fill="#333333"/>
<path d="M264.426 319.587C267.622 324.235 270.635 328.991 273.476 333.864C273.91 334.608 275.066 333.934 274.632 333.19C271.791 328.322 268.772 323.561 265.583 318.913C265.101 318.206 263.939 318.875 264.426 319.587Z" fill="#333333"/>
<path d="M112.19 41.713C111.773 38.9152 126.357 32.2444 132.945 29.3771C132.929 24.7872 132.227 20.4648 130.89 16.6239C125.35 20.2241 112.308 28.4088 111.334 26.376C110.376 24.3753 121.278 13.1788 126.276 8.19846C124.227 5.70025 121.733 3.67815 118.794 2.29798C115.369 0.687788 111.65 0.0833021 107.845 0.356126C105.233 8.02728 100.218 21.2191 96.7183 21.0586C93.3788 20.9035 92.4422 11.9538 92.18 6.19776C88.1875 8.89925 84.3985 12.4567 81.0536 16.7362C83.3013 22.7918 87.8236 35.866 85.4153 37.2461C83.1087 38.5675 78.0298 29.9762 75.5038 25.3222C75.0489 26.1781 74.6047 27.0447 74.1872 27.9327C67.84 41.408 67.1443 55.5307 71.3026 65.7856C75.4556 63.2981 83.1461 59.3716 86.2074 62.3299C88.9421 64.9725 82.5253 70.9907 77.5053 75.0081C79.0841 76.4685 80.8609 77.6936 82.8357 78.6244C97.5425 85.5413 117.51 74.0666 127.432 52.9897C129.257 49.1166 130.606 45.1955 131.521 41.3225C124.976 42.4993 112.586 44.3663 112.19 41.713ZM121.69 58.9865C121.567 60.5859 117.446 61.5649 112.495 61.1797C107.54 60.7892 103.627 59.179 103.751 57.5795C103.874 55.98 107.995 55.0011 112.945 55.3862C117.901 55.7768 121.813 57.387 121.69 58.9865Z" fill="#333333"/>
<path d="M9.03407 95.7213C8.2206 99.6157 7.78711 103.746 7.80316 108.02C7.88344 131.317 21.1291 150.152 37.3772 150.099C39.5661 150.093 41.6907 149.73 43.7405 149.077C40.8933 143.316 37.6234 135.147 41.2198 133.911C45.2497 132.526 50.5587 139.33 53.2667 143.342C61.3693 135.805 66.7104 122.709 66.6622 107.816C66.6569 106.832 66.6248 105.859 66.5713 104.89C62.3112 108.036 54.0748 113.685 52.5442 111.508C50.9493 109.245 60.5719 99.3001 65.1744 94.7691C63.9542 89.4785 62.0276 84.6533 59.5497 80.5181C56.8791 85.6269 52.2445 93.3408 49.1565 92.0676C45.9187 90.7356 46.9569 76.6611 47.8292 68.6048C44.4951 66.7485 40.8773 65.7214 37.0882 65.7375C33.845 65.7482 30.7303 66.5239 27.8135 67.9254C30.2379 74.5481 35.381 89.302 33.663 90.7142C31.9184 92.1479 23.5642 79.2182 20.0641 73.6119C17.2277 76.5327 14.7658 80.149 12.8071 84.3055C17.5702 89.6871 27.958 101.895 26.4007 104.254C24.9236 106.49 14.4822 99.5622 9.03407 95.7213ZM19.9303 116.328C24.581 118.071 27.8992 120.698 27.3372 122.201C26.7753 123.704 22.5474 123.512 17.8913 121.768C13.2406 120.024 9.92247 117.397 10.4844 115.894C11.0463 114.391 15.2743 114.584 19.9303 116.328Z" fill="#333333"/>
<path d="M53.9462 325.872H17.6289C8.72887 325.872 1.51465 318.661 1.51465 309.765V276.288H70.0658V309.765C70.0605 318.661 62.8463 325.872 53.9462 325.872Z" fill="#F8BAB4"/>
<path d="M15.7293 235.316C16.4089 240.061 16.0985 245.367 12.7215 249.101C10.233 251.851 7.09681 253.151 5.50198 256.714C1.77178 265.053 1.75572 275.004 1.45602 283.959C1.16702 292.571 0.225111 301.457 0.990418 310.053C1.5256 316.039 3.81616 319.934 8.5418 323.572C9.22147 324.096 9.89045 322.935 9.21613 322.416C6.70613 320.485 4.44233 318.35 3.35056 315.301C2.09824 311.797 2.11964 307.871 2.14105 304.196C2.19457 295.802 2.59596 287.372 2.97059 278.994C3.18466 274.265 3.53252 269.531 4.47978 264.888C5.50733 259.838 6.84528 255.526 11.0571 252.284C16.7086 247.93 18.0038 241.826 17.0191 234.963C16.896 234.112 15.6062 234.471 15.7293 235.316Z" fill="#333333"/>
<path d="M16.5586 235.792C22.8898 235.733 29.221 235.685 35.5522 235.632C38.6562 235.605 41.7549 235.578 44.859 235.557C46.3949 235.546 47.9309 235.53 49.4615 235.519C50.3874 235.514 53.2559 235.985 53.8072 235.279C53.288 235.953 54.2246 236.905 54.7544 236.225C55.4823 235.284 55.0862 234.492 53.9677 234.177C52.3943 233.733 50.0662 234.182 48.4447 234.193C46.2183 234.214 43.992 234.23 41.7656 234.251C33.3633 234.321 24.961 234.391 16.564 234.465C15.697 234.465 15.697 235.803 16.5586 235.792Z" fill="#333333"/>
<path d="M54.2138 235.798C52.8116 240.179 52.7527 244.918 55.7176 248.674C57.4784 250.899 59.8225 252.552 61.7331 254.638C63.8898 256.992 65.3188 259.843 66.3088 262.855C68.3479 269.061 68.7439 275.646 69.0115 282.124C69.2952 288.923 69.5253 295.722 69.7393 302.527C69.7661 303.383 71.1041 303.388 71.0773 302.527C70.8739 296.059 70.6491 289.587 70.3869 283.119C70.1461 277.101 69.8464 271.029 68.3639 265.166C67.1437 260.346 65.1047 255.965 61.4815 252.488C59.5067 250.594 57.184 248.877 55.8032 246.459C53.9997 243.298 54.4332 239.473 55.4982 236.151C55.7658 235.332 54.476 234.979 54.2138 235.798Z" fill="#333333"/>
<path d="M92.6558 59.3341C90.1458 66.2029 88.0907 73.2588 85.9393 80.2452C81.7221 93.9613 77.6815 107.736 73.78 121.549C64.013 156.112 54.8828 190.958 48.1181 226.238C45.0034 242.474 42.1723 258.977 41.6371 275.533C41.6104 276.395 42.9483 276.395 42.9751 275.533C43.446 260.94 45.7633 246.411 48.3804 232.074C51.5968 214.453 55.5464 196.971 59.8011 179.574C67.6094 147.638 76.4559 115.942 86.0356 84.4981C88.5617 76.2117 90.97 67.8344 93.9456 59.6925C94.2399 58.8794 92.9448 58.5317 92.6558 59.3341Z" fill="#333333"/>
<path d="M35.2635 114.466C32.8071 156.839 32.9569 199.421 34.7979 241.815C35.2956 253.285 35.9486 264.754 36.7781 276.202C36.8423 277.058 38.1803 277.063 38.1161 276.202C35.0334 233.866 34.1611 191.311 35.2047 148.879C35.4883 137.399 35.9379 125.93 36.6015 114.466C36.6497 113.61 35.3117 113.61 35.2635 114.466Z" fill="#333333"/>
<path d="M87.4758 79.8868C92.8971 58.6065 100.229 37.8505 108.69 17.6028C109.022 16.811 107.727 16.4633 107.401 17.2497C98.9393 37.5028 91.6074 58.2588 86.186 79.5337C85.9719 80.3629 87.2617 80.7213 87.4758 79.8868Z" fill="white"/>
<path d="M80.9833 44.6178C86.7793 48.1163 90.6219 53.8456 91.719 60.5164C91.8582 61.3616 93.148 61.0032 93.0088 60.1634C91.8582 53.1662 87.7266 47.1267 81.6577 43.4623C80.9245 43.0129 80.2501 44.1684 80.9833 44.6178Z" fill="white"/>
<path d="M98.6718 43.9007C102.712 38.9043 107.749 35.0152 113.598 32.3565C114.379 32.0035 113.7 30.848 112.924 31.2011C106.972 33.9025 101.835 37.8718 97.7246 42.9538C97.1894 43.6225 98.1313 44.5747 98.6718 43.9007Z" fill="white"/>
<path d="M37.4633 79.2663C39.0207 91.7788 37.8807 104.489 36.5642 116.97C35.4243 127.797 33.5458 138.801 33.9311 149.724C33.9632 150.58 35.3012 150.586 35.2691 149.724C34.8837 138.806 36.7622 127.802 37.9021 116.97C39.2187 104.489 40.3586 91.7734 38.8012 79.2663C38.6942 78.4211 37.3563 78.4104 37.4633 79.2663Z" fill="white"/>
<path d="M37.9927 117.467C41.4446 110.293 47.1015 104.741 52.86 99.3911C53.4916 98.8026 52.5443 97.8611 51.9128 98.4442C46.0686 103.869 40.3368 109.518 36.8368 116.793C36.4675 117.563 37.6181 118.243 37.9927 117.467Z" fill="white"/>
<path d="M21.7556 129.182C28.2312 129.728 34.1289 135.703 34.0058 142.246C33.9898 143.107 35.3277 143.107 35.3438 142.246C35.4776 134.928 28.943 128.444 21.7556 127.845C20.8939 127.77 20.8993 129.107 21.7556 129.182Z" fill="white"/>
<path d="M193.608 13.1338C193.355 14.636 193.639 16.5126 194.477 17.7981C194.833 17.5651 195.189 17.3322 195.545 17.0992C194.19 15.8142 192.196 16.1627 190.868 17.2952C191.222 17.4713 191.576 17.6475 191.93 17.8236C192.116 15.6545 191.039 14.5568 189.785 12.9661C189.46 13.245 189.133 13.5281 188.808 13.807C190.466 15.4267 193.209 15.2032 194.478 13.2165C194.925 12.5162 193.856 11.7961 193.409 12.4964C192.621 13.7315 190.869 14.0253 189.785 12.9661C189.197 12.3898 188.285 13.1437 188.808 13.807C189.841 15.1177 190.801 15.9074 190.644 17.7476C190.597 18.3067 191.292 18.6317 191.706 18.276C192.433 17.6585 193.744 17.161 194.568 17.9401C195.051 18.3957 196.069 17.8998 195.636 17.2412C194.899 16.1107 194.665 14.5362 194.888 13.2183C195.029 12.3994 193.743 12.3234 193.608 13.1338Z" fill="#333333"/>
<path d="M161.383 34.5891C160.827 31.6421 158.57 29.8038 157.549 27.0773C156.465 24.1733 157.518 20.9718 158.226 18.0486C159.538 12.631 158.86 6.90195 155.824 5.8896C154.876 4.66954 151.952 6.00807 149.712 7.14905C149.332 9.42531 148.684 6.90917 150.13 8.51139L153.917 7.15604C155.633 6.81031 157.279 8.72937 157.308 12.9872C157.328 15.4643 156.478 17.9102 155.934 20.3256C155.458 22.458 155.097 24.6862 155.66 26.8055C156.461 29.801 159.109 31.8271 159.693 34.911C159.895 35.9331 161.579 35.6142 161.383 34.5891Z" fill="#333333"/>
</svg>
