<svg width="326" height="318" viewBox="0 0 326 318" fill="none" xmlns="http://www.w3.org/2000/svg">
<mask id="mask0" mask-type="alpha" maskUnits="userSpaceOnUse" x="0" y="0" width="326" height="318">
<rect width="325.429" height="317.603" fill="#EAF3FA"/>
</mask>
<g mask="url(#mask0)">
<path d="M281.858 65.1157C286.679 70.9161 290.864 76.7836 294.476 82.7027C338.587 154.976 296.408 234.318 260.734 276.96C251.878 287.549 243.419 295.873 236.785 301.265C192.678 337.1 141.777 346.115 126.162 326.769C108.764 305.213 135.411 285.123 146.867 278.859C163.618 269.704 186.209 253.593 169.235 203.969C160.415 178.188 113.517 161.642 92.3524 146.238C71.1879 130.834 74.6355 102.22 89.6821 67.2315C104.724 32.2433 203.555 -29.0893 281.858 65.1157Z" fill="#FFECDD"/>
<path d="M39.0727 162.112C32.1912 162.112 26.5933 156.511 26.5933 149.627C26.5933 142.742 32.1912 137.142 39.0727 137.142C45.9541 137.142 51.5521 142.742 51.5521 149.627C51.5521 156.511 45.949 162.112 39.0727 162.112ZM39.0727 138.694C33.0469 138.694 28.1397 143.598 28.1397 149.632C28.1397 155.666 33.0417 160.57 39.0727 160.57C45.1036 160.57 50.0057 155.666 50.0057 149.632C50.0057 143.598 45.0984 138.694 39.0727 138.694Z" fill="#FFECDD"/>
<path d="M88.9238 81.0968L69.7588 85.9702C67.8722 86.4497 65.8979 85.6453 64.8825 83.9847C63.1608 81.169 60.8825 76.2905 60.5938 69.865C60.2227 61.5468 62.3618 59.2571 62.3618 59.2571L82.3413 56.8179C82.3413 56.8179 81.0114 65.6105 83.4238 71.5152C85.831 77.4148 88.9238 81.0968 88.9238 81.0968Z" fill="#F8BAB4"/>
<path d="M229.02 43.4868C227.5 43.4868 225.959 43.1516 224.5 42.4503C219.309 39.9491 217.118 33.6884 219.624 28.4953C222.124 23.3021 228.381 21.1104 233.572 23.6167C236.087 24.8286 237.979 26.9481 238.902 29.5834C239.825 32.2187 239.665 35.055 238.453 37.5717C236.649 41.3054 232.907 43.4868 229.02 43.4868ZM229.051 24.1272C225.737 24.1272 222.546 25.9838 221.015 29.1657C218.886 33.5904 220.747 38.9228 225.17 41.0578C229.593 43.1929 234.923 41.326 237.057 36.9013C238.087 34.7559 238.227 32.3424 237.438 30.0939C236.654 27.8506 235.041 26.0405 232.897 25.0091C231.66 24.4109 230.345 24.1272 229.051 24.1272Z" fill="black"/>
<path d="M129.719 75.6762C131.105 75.047 132.502 73.7629 133.1 72.3498C132.708 72.1848 132.317 72.0197 131.925 71.8547C131.616 73.6958 133.018 75.1553 134.698 75.6246C134.647 75.2327 134.595 74.8407 134.544 74.4488C132.641 75.506 132.332 77.0119 131.714 78.9406C132.126 79.0541 132.543 79.1676 132.956 79.281C133.373 77.0016 131.657 74.851 129.301 74.9077C128.471 74.9284 128.471 76.2177 129.301 76.197C130.765 76.1609 131.987 77.4502 131.714 78.9406C131.564 79.7503 132.698 80.0855 132.956 79.281C133.466 77.6926 133.585 76.4549 135.198 75.5576C135.688 75.2842 135.569 74.5261 135.044 74.3817C134.126 74.1239 132.982 73.3142 133.167 72.1951C133.275 71.5401 132.296 70.9728 131.992 71.7C131.466 72.9429 130.291 74.0156 129.074 74.5674C128.311 74.9026 128.966 76.0165 129.719 75.6762Z" fill="black"/>
<path d="M98.9196 16.3554C100.306 15.7262 101.703 14.4421 102.301 13.029C101.909 12.864 101.518 12.6989 101.126 12.5339C100.817 14.375 102.219 15.8345 103.899 16.3038C103.847 15.9119 103.796 15.5199 103.744 15.128C101.842 16.1852 101.533 17.6911 100.914 19.6198C101.327 19.7333 101.744 19.8468 102.157 19.9602C102.574 17.6808 100.858 15.5302 98.5021 15.5869C97.6722 15.6076 97.6722 16.8969 98.5021 16.8762C99.966 16.8401 101.188 18.1294 100.914 19.6198C100.765 20.4295 101.899 20.7647 102.157 19.9602C102.667 18.3718 102.786 17.1341 104.399 16.2368C104.889 15.9634 104.77 15.2053 104.244 15.0609C103.327 14.8031 102.183 13.9934 102.368 12.8743C102.476 12.2193 101.497 11.652 101.193 12.3792C100.667 13.6221 99.4918 14.6948 98.2753 15.2466C97.5124 15.5869 98.167 16.6957 98.9196 16.3554Z" fill="black"/>
<path d="M173.65 137.863C173.65 137.863 154.346 148.012 148.779 161.106C143.217 174.199 132.088 204.646 132.088 204.646C132.088 204.646 116.191 201.531 113.418 201.015C110.645 200.5 105.001 198.86 105.001 198.86C105.001 198.86 105.923 196.704 105.516 196.395C105.104 196.085 100.382 193.419 99.6656 193.93C98.9491 194.445 98.7429 198.138 97.4079 199.783C96.0728 201.428 90.8408 205.739 90.8408 205.739C90.8408 205.739 93.614 209.334 94.8408 209.741C96.0728 210.154 96.279 211.69 97.4079 213.129C98.5367 214.568 104.593 223.087 119.681 226.888C134.769 230.689 136.001 232.225 139.692 230.07C143.387 227.914 149.851 218.157 153.135 211.897C156.418 205.631 164.32 183.765 164.32 183.765C164.32 183.765 169.862 203.888 175.506 210.154C181.15 216.419 180.64 217.342 180.64 217.342C180.64 217.342 164.686 224.474 159.357 228.095C154.027 231.715 148.454 236.047 148.454 236.047C148.454 236.047 146.501 235.619 145.454 236.238C144.408 236.856 140.454 241.379 140.454 241.379L151.975 253.616C151.975 253.616 158.733 251.095 159.351 249.713C159.97 248.331 159.826 246.809 159.826 246.809C159.826 246.809 172.125 242.586 181.068 242.323C190.011 242.06 206.063 238.079 208.872 236.97C211.676 235.861 213.558 235.639 213.558 235.639C213.558 235.639 214.367 236.934 218.243 236.609C222.12 236.284 237.79 232.081 240.218 231.761C242.64 231.436 253.305 229.822 256.857 228.688C260.414 227.558 266.553 221.736 266.553 221.736C266.553 221.736 256.053 211.066 253.305 206.219C250.558 201.371 239.414 174.173 236.738 169.295C234.063 164.416 225.073 147.584 216.661 141.844C208.249 136.105 200.506 133.428 196.393 133.33C192.285 133.232 190.656 132.66 190.656 132.66C190.656 132.66 187.022 136.198 183.486 137.059C179.949 137.92 174.31 138.111 174.31 138.111L173.65 137.863Z" fill="#FFECDD"/>
<path d="M132.619 271.95C132.619 271.95 140.202 261.543 142.14 259.078C144.078 256.608 149.722 251.492 149.722 251.492L151.985 253.616C151.985 253.616 158.429 251.812 159.362 249.713C160.295 247.614 159.929 246.304 159.929 246.304C159.929 246.304 179.563 242.276 189.856 240.807C200.15 239.337 212.279 235.902 212.279 235.902C212.279 235.902 214.305 237.553 218.253 236.604C222.202 235.655 233.351 232.715 235.434 232.468C237.516 232.22 240.223 231.751 240.223 231.751C240.223 231.751 250.501 247.418 248.176 261.883C245.852 276.348 241.805 280.758 234.578 283.702C227.351 286.647 214.733 285.662 212.279 284.682C209.831 283.702 205.784 281.371 205.784 281.371C205.784 281.371 208.114 276.225 206.15 272.548C204.186 268.871 199.779 269.608 196.351 269.851C192.918 270.098 180.547 263.843 178.707 264.333C176.867 264.823 175.274 264.333 172.094 266.292C168.908 268.252 162.903 270.949 162.903 270.949C162.903 270.949 150.774 274.012 146.975 273.646C143.176 273.29 132.619 271.95 132.619 271.95Z" fill="#F8BAB4"/>
<path d="M161.836 226.614L148.465 236.047C148.465 236.047 146.434 234.577 144.485 236.521C142.537 238.47 140.47 241.379 140.47 241.379L143.135 244.313C143.135 244.313 137.547 243.803 132.047 247.449C126.547 251.09 116.387 260.996 116.387 260.996C116.387 260.996 104.789 257.438 92.181 249.228C79.5726 241.018 76.8613 237.625 77.7066 232.292C78.552 226.955 82.9541 219.08 87.2737 217.306C91.5933 215.532 98.9542 215.104 98.9542 215.104C98.9542 215.104 105.81 222.638 117.068 225.691C128.325 228.739 135.434 231.617 138.228 230.348C141.021 229.079 142.63 228.657 144.068 226.707C145.506 224.758 147.114 222.391 147.114 222.391L161.836 226.614Z" fill="#F8BAB4"/>
<path d="M172.491 128.431C172.491 128.431 172.202 128.214 177.588 128.07C182.97 127.926 188.284 129.003 188.284 129.003L183.908 113.28C183.908 113.28 181.181 117.875 178.166 120.175C175.15 122.475 171.346 124.986 171.346 124.986L172.491 128.431Z" fill="#F8BAB4"/>
<path d="M156.85 103.215C157.486 102.598 157.239 101.313 156.3 100.344C155.36 99.3747 154.083 99.0891 153.448 99.7059C152.812 100.323 153.059 101.608 153.998 102.577C154.938 103.546 156.215 103.832 156.85 103.215Z" fill="#F8BAB4"/>
<path d="M155.021 88.3922C152.82 94.6167 152.764 101.347 153.96 107.793C154.692 111.748 155.918 115.595 157.485 119.298C158.645 122.031 159.676 124.692 162.449 126.09C166.351 128.055 171.898 125.858 175.202 123.501C180.553 119.69 183.712 115.178 186.594 109.371C186.96 108.628 185.852 107.978 185.48 108.721C182.96 113.796 180.285 118.06 175.697 121.541C172.346 124.084 166.563 127.116 162.475 124.635C159.568 122.872 158.382 118.39 157.32 115.358C156.274 112.372 155.465 109.304 154.975 106.174C154.058 100.341 154.274 94.3331 156.253 88.7378C156.542 87.9488 155.295 87.6135 155.021 88.3922Z" fill="black"/>
<path d="M161.954 95.9266C161.676 97.1385 161.465 98.3967 161.109 99.588C160.769 100.723 160.485 100.661 159.583 101.218C158.557 101.852 157.851 102.93 157.836 104.152C157.805 106.601 160.563 107.932 162.341 106.194C162.934 105.611 162.021 104.704 161.429 105.281C160.727 105.214 160.032 105.147 159.331 105.08C158.923 104.069 159.078 103.301 159.8 102.77C160.315 102.223 160.841 102.012 161.563 101.847C161.774 101.8 161.965 101.604 162.011 101.398C162.408 99.6911 162.8 97.9842 163.197 96.2773C163.382 95.4625 162.14 95.1169 161.954 95.9266Z" fill="black"/>
<path d="M159.305 114.198C162.851 114.976 166.418 114.249 169.326 112.058C169.98 111.563 169.341 110.444 168.676 110.944C166.042 112.929 162.882 113.667 159.645 112.955C158.841 112.774 158.496 114.017 159.305 114.198Z" fill="black"/>
<path d="M168.944 97.2159C170.712 98.9021 173.496 98.9124 175.279 97.252C175.888 96.6848 174.975 95.7772 174.367 96.3393C173.099 97.5202 171.104 97.4995 169.857 96.3032C169.253 95.7308 168.341 96.6435 168.944 97.2159Z" fill="black"/>
<path d="M158.892 96.3132C158.583 96.731 158.037 96.9425 157.526 96.9167C157.011 96.8857 156.66 96.5144 156.135 96.6124C155.846 96.6639 155.676 96.9682 155.66 97.2365C155.64 97.5305 155.8 97.7213 156.026 97.8864C156.258 98.0514 156.619 97.9741 156.805 97.7832C156.815 97.7729 156.825 97.7626 156.836 97.7574C157.429 97.1746 156.516 96.2668 155.923 96.8445C155.913 96.8548 155.903 96.8651 155.892 96.8703C156.15 96.8341 156.413 96.8032 156.671 96.7671C156.655 96.7568 156.635 96.7413 156.619 96.731C156.727 96.9167 156.831 97.1024 156.939 97.288C156.939 97.2674 156.939 97.2519 156.944 97.2313C156.784 97.4376 156.63 97.6439 156.47 97.8554C156.501 97.8503 156.537 97.8451 156.568 97.8348C156.403 97.8142 156.238 97.7935 156.073 97.7677C156.779 98.0927 157.392 98.2939 158.181 98.1443C158.939 97.9998 159.542 97.5717 159.995 96.9631C160.501 96.2977 159.382 95.653 158.892 96.3132Z" fill="black"/>
<path d="M152.707 89.3051C157.496 88.449 161.722 88.4232 166.408 89.8105C169.805 90.8161 173.212 92.1827 176.8 92.224C179.161 92.2498 180.759 91.8424 182.104 89.8363C183.82 87.2732 184.465 84.0706 184.723 81.0486C184.79 80.2234 183.501 80.2286 183.434 81.0486C183.202 83.8385 182.532 88.3974 180.083 90.2385C177.599 92.1054 172.836 90.4396 170.166 89.63C167.558 88.8409 164.98 87.9023 162.274 87.5104C158.944 87.0256 155.645 87.4743 152.367 88.0622C151.552 88.2066 151.898 89.4495 152.707 89.3051Z" fill="black"/>
<path d="M152.728 88.6913C153.48 81.1982 157.923 74.4838 164.243 70.6109C172.315 65.6602 183.052 66.0057 190.403 72.2199C197.042 77.8307 200.738 86.5666 205.47 93.6987C209.851 100.305 214.929 106.534 221.078 111.578C224.13 114.079 227.429 115.941 231.181 117.148C234.243 118.133 237.8 119.375 241.068 119.21C240.862 118.937 240.656 118.669 240.444 118.396C237.254 129.251 233.264 141.808 221.893 146.578C221.14 146.893 221.47 148.141 222.233 147.821C234.099 142.845 238.341 130.123 241.687 118.736C241.8 118.349 241.48 117.9 241.063 117.921C237.728 118.086 234.001 116.745 230.877 115.693C226.295 114.151 222.563 111.367 219.063 108.092C212.393 101.847 207.274 94.4052 202.527 86.6491C198.042 79.3262 193.764 71.1782 185.418 67.7023C177.826 64.536 169.326 65.6241 162.552 70.1622C156.377 74.2981 152.186 81.2188 151.434 88.6964C151.351 89.5164 152.645 89.5113 152.728 88.6913Z" fill="black"/>
<path d="M186.078 99.3097C186.712 98.892 187.346 98.4743 187.98 98.0566C188.351 98.2938 188.723 98.531 189.099 98.7683C189.578 99.2118 189.975 99.9131 190.192 100.522C190.656 101.806 190.656 103.208 190.166 104.482C189.243 106.901 186.681 108.128 184.192 107.576C183.382 107.396 183.037 108.639 183.851 108.819C188.393 109.83 192.48 106.076 191.743 101.424C191.449 99.5624 190.284 97.3553 188.32 96.8189C186.522 96.3239 184.908 97.4997 184.79 99.3149C184.738 100.135 186.027 100.135 186.078 99.3097Z" fill="black"/>
<path d="M170.671 125.837C172.346 129.561 173.233 133.609 173.898 137.621C174.032 138.436 175.274 138.09 175.14 137.28C174.454 133.145 173.511 129.024 171.784 125.187C171.444 124.429 170.331 125.084 170.671 125.837Z" fill="black"/>
<path d="M183.558 113.12C184.104 120.309 185.97 127.137 189.934 133.217C190.387 133.908 191.501 133.263 191.047 132.567C187.207 126.678 185.377 120.092 184.846 113.125C184.784 112.295 183.496 112.29 183.558 113.12Z" fill="black"/>
<path d="M139.692 242.225C144.253 245.133 148.099 248.862 151.13 253.343C151.594 254.024 152.707 253.384 152.243 252.693C149.088 248.031 145.094 244.138 140.341 241.116C139.64 240.667 138.991 241.781 139.692 242.225Z" fill="black"/>
<path d="M140.733 241.843C142.155 239.987 143.599 236.928 146.109 236.438C146.923 236.279 146.578 235.036 145.769 235.196C142.867 235.763 141.258 239.053 139.624 241.193C139.119 241.848 140.238 242.493 140.733 241.843Z" fill="black"/>
<path d="M146.016 236.511C147.155 236.279 148.686 237.501 149.573 238.089C151.042 239.063 152.418 240.172 153.769 241.302C155.357 242.632 157.217 244.004 158.542 245.613C159.068 246.252 159.975 245.334 159.455 244.7C157.697 242.57 155.186 240.75 153.037 239.048C151.233 237.625 148.228 234.737 145.676 235.263C144.862 235.438 145.202 236.681 146.016 236.511Z" fill="black"/>
<path d="M148.908 236.31C162.336 225.898 178.305 217.42 194.877 213.434C195.238 213.346 195.388 212.975 195.326 212.639C192.068 194.425 192.707 175.731 197.176 157.774C197.377 156.97 196.135 156.624 195.934 157.434C191.408 175.623 190.784 194.538 194.083 212.985C194.233 212.722 194.382 212.454 194.532 212.191C177.733 216.234 161.594 224.856 147.996 235.402C147.341 235.908 148.259 236.815 148.908 236.31Z" fill="black"/>
<path d="M222.743 165.133C221.455 177.52 220.166 189.912 219.496 202.351C219.166 208.478 218.985 214.614 219.037 220.751C219.063 223.783 219.48 227.104 218.254 229.961C217.037 232.787 214.589 234.701 211.645 235.454C210.841 235.66 211.181 236.903 211.985 236.696C216.197 235.613 219.485 232.282 220.171 227.93C220.671 224.753 220.305 221.396 220.315 218.193C220.321 214.614 220.403 211.035 220.542 207.456C221.094 193.306 222.563 179.207 224.027 165.128C224.114 164.308 222.826 164.313 222.743 165.133Z" fill="black"/>
<path d="M195.625 216.626C197.656 216.847 199.398 217.838 200.707 219.39C201.171 219.942 202.151 219.204 201.718 218.611C200.46 216.873 198.986 215.388 197.248 214.124C197.14 214.527 197.032 214.924 196.924 215.326C198.728 215.109 200.429 215.331 202.114 216.007C202.883 216.311 203.218 215.068 202.455 214.764C200.671 214.052 198.826 213.81 196.919 214.037C196.274 214.114 196.053 214.846 196.594 215.238C198.14 216.368 199.475 217.709 200.599 219.261C200.934 219.003 201.274 218.74 201.609 218.482C200.068 216.651 197.98 215.599 195.614 215.336C194.8 215.243 194.805 216.533 195.625 216.626Z" fill="black"/>
<path d="M190.97 133.593C198.815 133.459 206.47 135.078 212.949 139.663C217.47 142.865 221.254 147.197 224.893 151.343C230.583 157.836 234.439 165.819 238.042 173.601C242.31 182.827 244.924 192.728 249.898 201.634C252.331 205.992 255.192 210.107 258.408 213.918C260.001 215.805 261.682 217.61 263.45 219.333C264.697 220.55 265.81 222.004 267.666 221.628C268.48 221.463 268.135 220.22 267.326 220.385C265.578 220.736 262.068 216.105 261.042 214.97C259.326 213.072 257.707 211.087 256.192 209.029C253.522 205.409 251.181 201.541 249.192 197.509C244.712 188.422 241.975 178.603 237.491 169.506C231.738 157.841 224.429 146.207 213.604 138.544C206.949 133.836 199.027 132.159 190.975 132.299C190.145 132.319 190.14 133.609 190.97 133.593Z" fill="black"/>
<path d="M174.3 136.909C169.604 138.765 165.372 142.035 161.434 145.129C156.851 148.729 152.743 152.369 150.181 157.691C142.97 172.657 135.939 188.123 131.831 204.269C131.624 205.074 132.867 205.419 133.073 204.61C137.026 189.061 143.841 174.477 150.537 159.966C151.836 157.15 153.197 154.448 155.362 152.189C157.192 150.281 159.217 148.553 161.269 146.898C165.305 143.639 169.769 140.08 174.64 138.152C175.403 137.852 175.073 136.604 174.3 136.909Z" fill="black"/>
<path d="M98.1244 194.481C97.6037 199.246 94.6862 203.202 90.3666 205.223C90.0779 205.358 89.9388 205.847 90.1347 206.105C92.1295 208.72 95.3099 212.485 98.6192 209.829C102.238 206.92 104.454 201.928 105.836 197.622C106.088 196.828 104.846 196.493 104.593 197.282C103.532 200.582 102.006 203.79 99.9027 206.554C99.1707 207.518 97.8666 209.375 96.5522 209.54C94.6295 209.787 92.2687 206.796 91.2481 205.456C91.1707 205.749 91.0934 206.043 91.0161 206.337C95.7687 204.11 98.8408 199.68 99.413 194.481C99.5058 193.656 98.2171 193.661 98.1244 194.481Z" fill="black"/>
<path d="M95.5109 211.371C100.619 219.978 109.691 224.676 118.98 227.512C124.161 229.095 129.872 230.952 135.3 231.297C140.119 231.601 142.975 229.203 145.779 225.547C146.284 224.887 145.166 224.248 144.666 224.897C143.099 226.939 141.289 229.147 138.676 229.817C136.094 230.477 133.264 229.807 130.738 229.234C126.3 228.224 121.851 227.135 117.532 225.707C109.207 222.953 101.217 218.467 96.6243 210.731C96.2016 210.009 95.0882 210.659 95.5109 211.371Z" fill="black"/>
<path d="M165.078 176.706C161.65 194.363 154.774 210.484 144.475 225.232C144.001 225.913 145.114 226.558 145.588 225.882C155.949 211.041 162.872 194.807 166.321 177.046C166.475 176.237 165.233 175.891 165.078 176.706Z" fill="black"/>
<path d="M163.924 183.322C165.532 196.106 172.094 207.611 180.15 217.44C180.676 218.08 181.583 217.167 181.063 216.527C173.248 206.997 166.774 195.729 165.212 183.322C165.109 182.512 163.82 182.502 163.924 183.322Z" fill="black"/>
<path d="M132.666 272.109C136.877 273.321 141.856 273.842 146.228 273.703C151.619 273.528 157.403 272.919 162.594 271.362C167.145 269.995 170.944 267.411 175.14 265.297C178.779 263.461 183.949 267.05 187.413 268.391C190.774 269.691 194.156 270.588 197.779 270.371C198.604 270.325 198.609 269.031 197.779 269.082C193.645 269.33 189.867 268.03 186.099 266.478C183.413 265.369 179.96 263.147 176.975 263.342C174.501 263.508 172.058 265.617 169.944 266.772C167.929 267.87 165.862 268.891 163.692 269.649C158.382 271.511 152.588 272.006 147.016 272.357C142.501 272.641 137.356 272.109 133.011 270.861C132.207 270.64 131.867 271.882 132.666 272.109Z" fill="black"/>
<path d="M240.28 232.282C244.213 238.61 246.481 245.891 247.156 253.302C247.811 260.47 247.202 268.69 243.496 275.039C236.372 287.256 217.403 287.173 206.29 281.181C205.558 280.789 204.908 281.898 205.64 282.295C216.96 288.395 235.553 288.571 243.718 277.081C248.238 270.717 249.073 261.672 248.512 254.117C247.924 246.201 245.589 238.383 241.393 231.627C240.955 230.931 239.841 231.576 240.28 232.282Z" fill="black"/>
<path d="M161.903 271.455C164.63 272.78 167.62 274.126 170.625 274.606C170.573 274.214 170.522 273.822 170.47 273.43C169.109 274.116 168.666 275.322 168.449 276.782C168.047 279.474 167.867 281.97 166.656 284.471C165.645 286.559 164.15 288.37 163.707 290.701C163.465 291.969 163.676 293.248 163.506 294.506C163.259 296.337 162.666 296.549 161.733 297.822C160.418 299.612 160.779 301.984 163.15 302.19C166.568 302.489 169.65 299.906 170.181 296.585C170.31 295.775 169.068 295.424 168.939 296.244C168.609 298.286 167.279 299.988 165.279 300.659C163.975 301.097 162.197 301.2 162.382 299.509C162.516 298.24 164.114 297.57 164.578 296.42C164.98 295.424 164.779 294.161 164.8 293.135C164.888 289.427 167.042 287.075 168.341 283.795C168.919 282.331 169.295 280.82 169.496 279.257C169.692 277.7 169.408 275.405 171.114 274.544C171.583 274.306 171.506 273.456 170.96 273.368C168.068 272.904 165.161 271.614 162.547 270.346C161.81 269.98 161.156 271.094 161.903 271.455Z" fill="black"/>
<path d="M164.387 302.67C167.258 308.513 173.717 310.586 179.856 310.488C184.13 310.415 186.959 306.388 184.511 302.438C184.073 301.736 182.959 302.381 183.398 303.087C184.588 305.011 184.243 308.028 181.892 308.951C180.155 309.632 177.171 309.198 175.387 308.879C171.166 308.126 167.434 305.944 165.506 302.015C165.135 301.277 164.021 301.927 164.387 302.67Z" fill="black"/>
<path d="M184.145 301.958C182.944 300.689 184.424 298.637 184.908 297.337C185.46 295.873 185.857 294.372 186.599 292.979C188.552 289.308 191.81 289.235 195.413 288.39C199.609 287.405 204.748 285.259 206.547 281.041C207.769 278.174 208.099 274.811 206.522 272.042C204.65 268.747 201.305 267.896 197.841 269.139C197.068 269.417 197.403 270.665 198.181 270.382C202.073 268.979 206.006 271.14 206.321 275.466C206.764 281.593 202.156 284.733 197.047 286.549C192.588 288.132 187.996 287.601 185.48 292.335C184.429 294.315 183.805 296.538 182.98 298.616C182.372 300.153 182.006 301.592 183.228 302.876C183.805 303.474 184.717 302.561 184.145 301.958Z" fill="black"/>
<path d="M77.1655 233.298C76.7995 242.07 85.2635 246.417 91.9388 249.847C99.5367 253.745 106.604 260.068 115.258 261.527C116.068 261.666 116.418 260.424 115.599 260.284C107.903 258.985 101.573 253.663 94.9336 249.97C88.2326 246.242 78.0624 242.658 78.4542 233.298C78.4903 232.473 77.2016 232.473 77.1655 233.298Z" fill="black"/>
<path d="M78.5727 232.88C79.1397 227.471 81.6861 222.004 86.0831 218.657C89.7274 215.883 94.7017 215.888 99.0883 216.002C99.9182 216.022 99.9182 214.733 99.0883 214.712C94.2223 214.589 88.9181 214.712 84.9645 217.894C80.4387 221.535 77.882 227.192 77.2841 232.88C77.1964 233.706 78.4851 233.7 78.5727 232.88Z" fill="black"/>
<path d="M147.367 223.072C151.8 224.686 156.099 226.063 160.759 226.862C161.568 227.001 161.918 225.758 161.099 225.619C156.439 224.82 152.14 223.443 147.707 221.829C146.934 221.54 146.593 222.788 147.367 223.072Z" fill="black"/>
<path d="M104.397 229.58C110.897 231.307 117.48 233.277 123.861 235.387C129.908 237.387 135.166 240.812 140.264 244.55C140.934 245.04 141.578 243.921 140.913 243.437C135.944 239.796 130.82 236.464 124.975 234.407C121.655 233.241 118.202 232.468 114.846 231.405C111.485 230.343 108.145 229.239 104.738 228.337C103.939 228.12 103.598 229.363 104.397 229.58Z" fill="black"/>
<path d="M174.355 103.623C175.524 102.948 176.112 101.779 175.67 101.011C175.227 100.244 173.921 100.17 172.752 100.845C171.584 101.52 170.995 102.689 171.438 103.456C171.88 104.223 173.187 104.298 174.355 103.623Z" fill="#F8BAB4"/>
<path d="M190.661 105.838C194.728 109.474 191.8 116.807 186.068 115.306C183.774 114.703 182.192 112.331 182.264 110C182.362 106.844 185.455 104.936 188.305 104.812C189.13 104.776 189.135 103.487 188.305 103.523C184.991 103.667 181.614 105.73 181.052 109.226C180.583 112.166 182.362 115.301 185.15 116.358C192.187 119.024 196.852 109.644 191.573 104.926C190.955 104.379 190.042 105.287 190.661 105.838Z" fill="#FFECDD"/>
<path d="M185.666 98.7269C184.496 95.4625 185.98 92.0331 186.212 88.712C186.408 85.9014 186.011 83.2301 184.79 80.6825C184.429 79.9347 183.32 80.5897 183.676 81.3323C185.284 84.6895 185.156 88.2942 184.485 91.8732C184.027 94.3331 183.558 96.6537 184.424 99.0724C184.702 99.8459 185.949 99.5107 185.666 98.7269Z" fill="black"/>
<path d="M204.769 106.065C210.81 114.708 218.558 121.913 227.625 127.286C228.341 127.709 228.991 126.595 228.274 126.172C219.398 120.912 211.795 113.873 205.877 105.41C205.408 104.74 204.29 105.379 204.769 106.065Z" fill="black"/>
<path d="M220.542 126.781C223.558 129.731 227.047 131.969 230.97 133.506C231.743 133.81 232.078 132.562 231.31 132.263C227.594 130.809 224.3 128.658 221.449 125.873C220.862 125.29 219.949 126.203 220.542 126.781Z" fill="black"/>
<path d="M147.96 252.286C143.573 255.674 140.619 260.95 137.042 265.137C135.279 267.205 133.387 269.985 131.197 271.604C130.361 272.223 129.645 272.646 129.805 271.331C129.887 270.645 130.521 269.67 130.8 269.067C131.434 267.695 132.068 266.323 132.702 264.946C132.996 264.312 132.238 263.616 131.691 264.168C128.109 267.762 124.428 271.258 120.645 274.647C120.98 274.688 121.32 274.734 121.655 274.776C120.769 272.909 123.66 269.773 124.619 268.438C125.944 266.586 127.336 264.786 128.774 263.023C129.305 262.373 128.516 261.605 127.861 262.11C125.928 263.616 123.99 265.117 122.135 266.715C121.439 267.313 120.753 267.922 120.078 268.546C119.769 268.835 117.769 271.191 117.485 271.14C115.418 270.769 117.877 268.247 118.279 267.695C118.825 266.937 119.387 266.184 119.954 265.441C121.629 263.25 123.397 261.146 125.233 259.088C125.789 258.464 124.944 257.629 124.32 258.175C122.521 259.743 120.727 261.316 118.928 262.884C118.238 263.487 117.403 264.431 116.619 264.9C115.918 265.926 115.078 265.864 114.093 264.709C114.238 264.498 114.387 264.291 114.531 264.08C115.186 262.321 117.733 260.305 119.099 258.98C120.47 257.654 121.897 256.391 123.356 255.164C126.382 252.611 129.454 249.728 132.789 247.593C135.707 245.721 139.81 245.092 143.222 244.582C144.042 244.458 143.691 243.215 142.882 243.339C138.279 244.025 133.8 245.051 130.114 247.995C125.609 251.59 120.97 255.158 116.954 259.315C115.676 260.64 109.933 265.911 113.47 267.793C115.006 268.613 116.552 266.679 117.537 265.818C120.104 263.575 122.671 261.331 125.238 259.088C124.934 258.784 124.629 258.48 124.325 258.175C121.898 260.898 119.593 263.719 117.444 266.669C116.537 267.912 113.604 270.851 115.217 272.625C116.774 274.332 118.702 271.697 119.671 270.727C122.485 267.906 125.635 265.462 128.774 263.018C128.47 262.713 128.166 262.409 127.861 262.105C125.861 264.554 123.954 267.076 122.171 269.686C120.944 271.48 119.516 273.249 120.547 275.415C120.738 275.812 121.274 275.802 121.557 275.544C125.336 272.156 129.021 268.665 132.604 265.065C132.269 264.807 131.928 264.544 131.593 264.286C130.408 266.86 127.331 271.021 128.49 273.997C128.599 274.28 128.805 274.451 129.114 274.471C130.738 274.574 131.758 272.883 132.779 271.8C134.666 269.804 136.496 267.757 138.269 265.663C141.624 261.708 144.496 256.561 148.614 253.379C149.258 252.9 148.614 251.781 147.96 252.286Z" fill="black"/>
<path d="M98.3871 195.116C95.9953 194.1 94.0108 192.29 91.6448 191.258C90.2943 190.67 88.8716 190.779 87.4231 190.82C85.2788 190.882 83.1345 190.959 80.9901 191.078C76.9128 191.305 72.4901 191.521 68.5365 192.604C65.6499 193.393 63.7787 195.678 61.9179 197.87C59.3767 200.856 55.8869 203.676 54.1189 207.219C53.5106 208.431 52.9849 211.582 54.9076 212.098C56.155 212.433 57.8612 210.932 58.7426 210.277C61.789 208.008 64.5004 205.285 67.1189 202.547C67.6911 201.949 66.7839 201.036 66.2066 201.634C64.1189 203.816 61.9797 205.956 59.6705 207.9C59.1292 208.354 56.1911 211.18 55.2632 210.824C54.6859 210.602 54.8508 208.89 54.9797 208.457C55.3405 207.261 56.3715 206.162 57.1447 205.213C58.1498 203.981 59.2323 202.805 60.2993 201.624C62.1911 199.525 63.8818 197.153 66.0622 195.353C68.5416 193.306 72.1602 193.192 75.2324 192.836C78.3406 192.481 81.4695 192.321 84.5932 192.202C87.4128 192.094 90.0262 191.753 92.5159 193.239C94.2273 194.26 95.8974 195.446 97.7325 196.225C98.4902 196.549 99.15 195.436 98.3871 195.116Z" fill="black"/>
<path d="M57.088 210.906C57.2581 212.588 58.655 217.538 61.186 215.429C61.8612 214.867 62.2736 213.887 62.7736 213.196C63.454 212.258 64.3097 211.427 65.1138 210.592C66.7427 208.911 68.418 207.276 70.1293 205.672C70.7376 205.105 69.8252 204.192 69.2169 204.759C67.1705 206.678 65.1499 208.637 63.2375 210.69C62.4592 211.52 61.8045 212.309 61.1911 213.253C60.4489 214.388 59.8715 214.728 59.0107 213.356C58.5777 212.67 58.4592 211.68 58.3818 210.896C58.2942 210.092 57.0055 210.081 57.088 210.906Z" fill="black"/>
<path d="M60.8199 215.14C61.1447 216.677 62.0725 220.694 64.2014 218.544C65.7632 216.966 67.0261 215.047 68.6035 213.449C70.5365 211.494 72.6035 209.694 74.7685 208.003C75.4231 207.492 74.5056 206.585 73.8561 207.09C71.2478 209.127 68.7787 211.329 66.5261 213.753C65.7375 214.604 64.9436 216.007 64.0158 216.672C63.423 217.095 63.6292 218.157 62.5416 216.801C62.2014 216.378 62.1756 215.305 62.0673 214.8C61.8921 213.985 60.6498 214.331 60.8199 215.14Z" fill="black"/>
<path d="M78.9026 198.457C79.1706 202.918 76.6088 206.905 76.7376 211.34C76.784 212.954 77.1809 216.337 79.4283 215.357C82.0572 214.207 82.9799 210.154 83.8253 207.828C84.4026 206.245 85.1346 203.661 86.8047 202.836C88.2583 202.119 90.5572 203.46 91.9542 204.084C92.7067 204.419 93.3614 203.31 92.6037 202.97C91.9593 202.681 91.315 202.475 90.6603 202.217C89.8974 201.918 89.1449 201.041 88.3923 201.01C87.6552 200.979 86.8047 201.361 86.1552 201.722C84.0108 202.923 83.2119 205.698 82.449 207.864C81.8356 209.607 81.3562 211.448 80.1603 212.907C78.1242 215.388 77.9386 211.443 78.1191 209.787C78.5314 205.915 80.4283 202.428 80.1861 198.457C80.1397 197.632 78.851 197.627 78.9026 198.457Z" fill="black"/>
<path d="M64.7169 216.894C64.4282 219.013 66.2787 220.24 68.2581 219.482C69.7375 218.915 70.7375 217.425 71.7891 216.326C73.3097 214.749 75.0932 212.645 77.1705 211.85C77.9385 211.557 77.6035 210.309 76.8303 210.608C75.2478 211.216 74.0726 212.34 72.8457 213.485C72.0777 214.202 71.3303 214.945 70.6086 215.703C70.2478 216.084 69.9076 216.486 69.5365 216.858C69.2994 217.136 69.0365 217.389 68.7427 217.611C68.0055 218.523 67.0777 218.4 65.9591 217.239C66.0725 216.424 64.8303 216.074 64.7169 216.894Z" fill="black"/>
<path d="M174.429 138.239C180.444 139.333 186.439 137.559 190.862 133.33C191.465 132.758 190.552 131.845 189.949 132.417C185.877 136.311 180.32 138.007 174.769 136.997C173.96 136.852 173.609 138.095 174.429 138.239Z" fill="black"/>
<path d="M168.748 141.555C172.686 145.238 179.79 145.506 184.712 144.227C190.145 142.814 195.408 138.889 198.083 133.949C198.48 133.217 197.367 132.567 196.97 133.299C194.563 137.75 190.032 141.153 185.238 142.726C180.63 144.237 173.424 144.17 169.655 140.648C169.052 140.081 168.14 140.988 168.748 141.555Z" fill="black"/>
<path d="M176.109 137.755C175.382 139.359 174.645 140.952 173.918 142.556C173.578 143.304 174.686 143.964 175.032 143.206C175.759 141.602 176.496 140.008 177.223 138.404C177.563 137.657 176.449 137.002 176.109 137.755Z" fill="black"/>
<path d="M178.851 138.358C178.898 140.091 178.944 141.824 178.991 143.556C179.011 144.387 180.3 144.387 180.279 143.556C180.233 141.824 180.186 140.091 180.14 138.358C180.119 137.528 178.831 137.528 178.851 138.358Z" fill="black"/>
<path d="M182.388 137.827C183.161 139.704 183.934 141.576 184.707 143.453C185.016 144.211 186.264 143.876 185.949 143.113C185.176 141.236 184.403 139.364 183.63 137.487C183.321 136.729 182.073 137.059 182.388 137.827Z" fill="black"/>
<path d="M186.774 136.414C187.619 137.291 188.475 138.157 189.295 139.059C189.851 139.673 190.362 140.823 191.238 140.937C191.516 140.973 191.79 140.71 191.862 140.462C191.867 140.442 191.872 140.426 191.877 140.405C191.939 140.189 191.872 139.936 191.712 139.776C191.697 139.761 191.681 139.745 191.666 139.73C191.403 139.477 191.016 139.498 190.754 139.73C190.743 139.74 190.733 139.745 190.723 139.756C190.099 140.307 191.016 141.215 191.635 140.668C191.645 140.658 191.656 140.653 191.666 140.643C191.362 140.643 191.058 140.643 190.754 140.643C190.769 140.658 190.784 140.674 190.8 140.689C190.743 140.478 190.692 140.271 190.635 140.06C190.63 140.081 190.625 140.096 190.619 140.117C190.826 139.957 191.032 139.802 191.243 139.642C191.207 139.637 191.171 139.632 191.135 139.627C191.284 139.689 191.439 139.75 191.589 139.818C190.949 139.152 190.418 138.358 189.779 137.683C189.089 136.95 188.382 136.228 187.686 135.501C187.109 134.903 186.197 135.816 186.774 136.414Z" fill="black"/>
<path d="M152.099 254.117C154.645 254.241 156.98 252.451 158.929 251.002C159.882 250.29 160.516 249.553 160.63 248.325C160.769 246.809 160.186 245.912 159.444 244.684C159.016 243.978 157.898 244.623 158.331 245.334C158.913 246.294 159.542 246.99 159.331 248.238C159.13 249.429 158.207 249.929 157.305 250.569C155.789 251.642 154.042 252.921 152.099 252.828C151.269 252.786 151.269 254.076 152.099 254.117Z" fill="black"/>
<path d="M160.372 246.846C168.779 243.793 177.857 243.267 186.661 242.194C195.156 241.157 203.795 239.585 211.852 236.65C212.625 236.367 212.29 235.124 211.511 235.408C203.032 238.491 193.939 240.059 185.006 241.101C176.63 242.075 168.011 242.705 160.027 245.603C159.253 245.881 159.588 247.129 160.372 246.846Z" fill="black"/>
<path d="M99.248 194.419C101.31 194.141 103.81 195.523 104.949 197.261C105.403 197.952 106.516 197.307 106.063 196.611C104.686 194.512 101.789 192.79 99.248 193.13C98.4388 193.239 98.4284 194.528 99.248 194.419Z" fill="black"/>
<path d="M104.583 199.226C115.918 202.666 127.48 205.213 139.212 206.858C140.021 206.972 140.372 205.729 139.552 205.616C127.826 203.97 116.258 201.418 104.923 197.983C104.13 197.741 103.789 198.984 104.583 199.226Z" fill="black"/>
<path d="M131.795 206.074C134.764 207.616 137.326 209.725 139.367 212.376C139.867 213.026 140.985 212.381 140.48 211.726C138.3 208.89 135.619 206.611 132.444 204.96C131.712 204.579 131.058 205.693 131.795 206.074Z" fill="black"/>
<path d="M213.228 236.609C217.965 237.79 222.609 236.857 227.207 235.511C232.651 233.917 237.955 232.767 243.584 232.019C252.135 230.88 261.388 229.24 267.089 222.092C267.599 221.447 266.697 220.529 266.177 221.179C260.249 228.616 250.501 229.797 241.697 230.978C237.243 231.576 232.95 232.442 228.64 233.731C223.707 235.211 218.723 236.645 213.578 235.366C212.764 235.165 212.424 236.408 213.228 236.609Z" fill="black"/>
<path d="M166.774 305.465C167.284 305.852 168.145 305.413 168.63 305.166C169.243 304.861 169.784 304.413 170.217 303.887C170.738 303.253 169.831 302.335 169.305 302.974C169.027 303.314 168.712 303.619 168.336 303.856C168.15 303.969 167.959 304.078 167.758 304.16C167.655 304.201 167.552 304.237 167.449 304.268C167.248 304.294 167.238 304.325 167.423 304.356C166.764 303.851 166.119 304.97 166.774 305.465Z" fill="black"/>
<path d="M171.362 308.28C172.707 307.739 173.805 306.759 174.388 305.418C174.717 304.665 173.604 304.01 173.274 304.769C172.831 305.784 172.058 306.62 171.016 307.038C170.259 307.342 170.589 308.59 171.362 308.28Z" fill="black"/>
<path d="M176.831 310.08C178.12 309.415 179.609 308.177 179.924 306.692C180.094 305.882 178.851 305.537 178.681 306.352C178.434 307.522 177.181 308.451 176.181 308.971C175.444 309.348 176.094 310.462 176.831 310.08Z" fill="black"/>
<path d="M167.836 258.165C165.192 257.206 163.985 254.349 165.161 251.776C165.501 251.028 164.393 250.373 164.047 251.126C162.511 254.483 164.011 258.149 167.491 259.413C168.274 259.691 168.609 258.443 167.836 258.165Z" fill="black"/>
<path d="M70.7323 270.33C73.1086 269.748 75.3612 268.856 77.4953 267.664C78.2221 267.262 77.5726 266.148 76.8458 266.551C74.8045 267.69 72.6602 268.531 70.3921 269.088C69.5828 269.284 69.9282 270.526 70.7323 270.33Z" fill="black"/>
<path d="M74.1654 273.285C75.9232 273.151 77.5882 272.527 79.0624 271.573C79.7583 271.124 79.1088 270.005 78.4129 270.459C77.1346 271.289 75.6964 271.882 74.1654 271.996C73.3458 272.058 73.3355 273.347 74.1654 273.285Z" fill="black"/>
<path d="M78.3922 275.41C80.0778 275.291 81.6603 274.791 83.083 273.868C83.7788 273.419 83.1345 272.305 82.4335 272.754C81.2015 273.548 79.8561 274.018 78.3922 274.116C77.5675 274.177 77.5623 275.467 78.3922 275.41Z" fill="black"/>
<path d="M102.016 254.751C97.9903 256.205 93.8923 257.268 89.614 257.572C87.016 257.758 84.3974 257.675 81.8047 257.969C80.7325 258.093 79.4541 258.155 78.485 258.665C76.9541 259.475 76.3613 261.13 74.6397 261.744C72.2118 262.61 68.7118 262.832 68.5623 266.189C68.2479 273.28 79.5675 276.885 84.9387 277.627C89.3356 278.241 93.9233 275.972 98.1088 274.915C103.465 273.559 108.903 272.589 114.387 271.95C115.202 271.857 115.212 270.562 114.387 270.66C106.14 271.62 98.2944 273.6 90.3098 275.786C85.9696 276.978 81.8871 275.848 77.8149 274.208C74.8716 273.022 66.6963 268.221 70.9541 264.379C72.3459 263.121 74.1242 263.461 75.6912 262.775C76.7015 262.332 77.284 261.491 78.0469 260.754C79.9232 258.944 82.8201 259.119 85.2995 259.037C91.2428 258.835 96.7222 258.031 102.351 255.994C103.135 255.715 102.8 254.467 102.016 254.751Z" fill="black"/>
<path d="M83.4953 209.406L86.0726 215.594C84.8819 216.445 86.5881 220.751 79.6963 223.273C72.5623 225.882 69.2118 222.458 69.2118 222.458L54.1138 187.747L72.3922 179.485L79.887 197.545C79.887 197.545 74.7788 211.886 77.8252 214.047C81.3664 216.558 83.4953 209.406 83.4953 209.406Z" fill="#FFECDD"/>
<path d="M63.7291 185.668C68.9113 183.301 72.6828 180.441 72.1531 179.281C71.6235 178.12 66.9932 179.098 61.811 181.465C56.6289 183.831 52.8574 186.691 53.387 187.852C53.9167 189.013 58.547 188.035 63.7291 185.668Z" fill="black"/>
<path d="M53.6705 188.226C58.9541 199.871 64.2427 211.515 69.5263 223.165C69.8665 223.917 70.9799 223.262 70.6397 222.515C65.3562 210.87 60.0675 199.226 54.7839 187.577C54.4386 186.824 53.3303 187.479 53.6705 188.226Z" fill="black"/>
<path d="M70.1086 224.046C76.7478 225.768 84.9489 223.572 86.2788 215.909C86.4179 215.099 85.1757 214.748 85.0365 215.568C83.8251 222.525 76.4488 224.361 70.4488 222.803C69.6499 222.597 69.3045 223.84 70.1086 224.046Z" fill="black"/>
<path d="M82.6551 208.637C83.6293 210.86 84.4438 213.134 85.1139 215.465C85.3407 216.259 86.5881 215.924 86.3561 215.125C85.6551 212.685 84.7891 210.313 83.7685 207.992C83.4335 207.229 82.3252 207.884 82.6551 208.637Z" fill="black"/>
<path d="M71.3921 179.743C73.8148 185.916 76.3715 192.032 79.0519 198.096C79.387 198.855 80.4952 198.2 80.1653 197.447C77.5261 191.485 75.0158 185.472 72.6344 179.403C72.3354 178.634 71.088 178.969 71.3921 179.743Z" fill="black"/>
<path d="M78.8046 201.062C78.8046 201.062 78.2582 204.156 69.0932 204.857C64.4386 205.213 63.5571 207.147 63.5571 207.147L70.6706 222.804C70.6706 222.804 76.1397 224.866 81.2892 221.452C86.1294 218.245 85.1603 215.233 85.1603 215.233L83.1706 209.69C83.1706 209.69 80.15 215.95 77.8562 213.655C76.6706 212.469 76.6758 209.071 77.5211 206.203C78.4129 203.218 78.8046 201.062 78.8046 201.062Z" fill="#F8BAB4"/>
<path d="M66.9849 208.457C67.3408 208.457 67.6293 208.168 67.6293 207.812C67.6293 207.456 67.3408 207.168 66.9849 207.168C66.6291 207.168 66.3406 207.456 66.3406 207.812C66.3406 208.168 66.6291 208.457 66.9849 208.457Z" fill="white"/>
<path d="M73.0728 210.277C73.3489 210.277 73.5728 210.053 73.5728 209.777C73.5728 209.501 73.3489 209.277 73.0728 209.277C72.7966 209.277 72.5728 209.501 72.5728 209.777C72.5728 210.053 72.7966 210.277 73.0728 210.277Z" fill="white"/>
<path d="M73.2942 219.658C73.5703 219.658 73.7942 219.434 73.7942 219.158C73.7942 218.881 73.5703 218.657 73.2942 218.657C73.018 218.657 72.7942 218.881 72.7942 219.158C72.7942 219.434 73.018 219.658 73.2942 219.658Z" fill="white"/>
<path d="M109.583 207.322C109.243 208.111 109.006 209.019 109.763 209.653C110.062 209.906 110.434 209.906 110.769 210.071C111.758 210.561 111.671 211.422 111.526 212.366C111.47 212.722 111.686 213.243 112.15 213.181C112.629 213.119 113.145 213.139 113.325 213.665C113.361 213.763 113.284 214.016 113.305 214.135C113.361 214.475 113.485 214.63 113.779 214.815C114.475 215.269 115.124 214.15 114.428 213.701C114.758 213.913 114.702 213.531 114.65 213.17C114.609 212.902 114.501 212.66 114.325 212.448C113.774 211.788 112.934 211.788 112.15 211.891C112.356 212.165 112.562 212.433 112.774 212.706C112.913 211.809 113.026 210.829 112.619 209.983C112.47 209.674 112.263 209.411 111.985 209.205C111.573 208.9 110.336 208.833 110.707 207.972C111.021 207.219 109.908 206.559 109.583 207.322Z" fill="black"/>
<path d="M122.532 223.041C122.758 221.829 123.697 222.794 124.377 222.68C124.934 222.587 125.047 222.175 125.248 221.736C125.449 221.303 125.568 221.133 126.057 220.952C126.377 220.834 126.697 220.803 127.001 220.627C127.542 220.318 127.815 219.869 127.841 219.256C127.872 218.425 126.583 218.425 126.552 219.256C126.537 219.668 125.011 219.885 124.671 220.153C124.444 220.333 124.284 220.545 124.171 220.813C124.114 220.947 124.047 221.128 124.037 221.277C124.006 221.68 124.15 221.349 124.021 221.272C122.928 220.591 121.495 221.592 121.289 222.706C121.14 223.51 122.382 223.856 122.532 223.041Z" fill="black"/>
<path d="M125.465 209.287C125.686 210.927 128.279 210.35 128.114 212.144C128.068 212.639 128.691 212.933 129.083 212.701C129.666 212.35 130.124 213.021 130.408 213.392C130.908 214.042 132.026 213.402 131.521 212.742C130.764 211.752 129.697 210.829 128.434 211.587C128.758 211.773 129.078 211.958 129.403 212.144C129.475 211.345 129.181 210.561 128.557 210.04C128.135 209.689 126.779 209.488 126.707 208.947C126.593 208.127 125.351 208.478 125.465 209.287Z" fill="black"/>
<path d="M139.764 224.227C139.697 223.753 139.836 223.206 140.191 222.876C140.624 222.474 140.98 222.716 141.501 222.768C142.104 222.824 142.655 222.597 142.882 221.994C142.975 221.747 142.841 221.215 142.965 221.035C143.15 220.762 143.82 220.808 144.119 220.684C144.743 220.416 145.099 219.833 144.892 219.173C144.645 218.384 143.403 218.72 143.65 219.514C143.624 219.431 142.593 219.679 142.521 219.715C142.166 219.87 141.939 220.086 141.794 220.447C141.702 220.679 141.789 221.272 141.635 221.396C141.49 221.515 140.815 221.313 140.547 221.339C138.98 221.473 138.325 223.211 138.521 224.567C138.635 225.387 139.877 225.042 139.764 224.227Z" fill="black"/>
<path d="M141.944 192.615C141.465 193.094 141.31 193.62 141.527 194.28C141.851 195.281 142.625 195.209 143.289 195.833C145.006 197.436 143.104 198.525 143.578 200.103C143.872 201.087 145.496 201.309 145.48 202.439C145.47 203.269 146.759 203.269 146.769 202.439C146.779 201.717 146.625 201.108 146.104 200.582C145.877 200.35 145.491 200.252 145.289 200.035C144.707 199.417 145.047 198.782 145.197 198.086C145.341 197.4 145.501 196.704 145.228 196.023C145.063 195.606 144.846 195.368 144.521 195.085C144.31 194.899 142.336 194.048 142.851 193.533C143.444 192.94 142.537 192.027 141.944 192.615Z" fill="black"/>
<path d="M154.238 193.486C154.094 192.537 155.3 191.759 155.542 190.866C155.748 190.119 155.594 189.247 155.439 188.499C155.197 187.318 155.547 186.648 156.068 185.653C156.387 185.049 156.424 184.642 156.222 183.997C155.975 183.208 154.728 183.544 154.98 184.338C155.217 185.091 154.119 185.905 153.929 186.602C153.707 187.416 154.094 188.262 154.223 189.051C154.532 190.964 152.697 191.867 152.996 193.816C153.119 194.647 154.362 194.301 154.238 193.486Z" fill="black"/>
<path d="M149.702 170.775C149.444 172.745 150.501 173.591 151.877 174.668C153.109 175.633 152.356 176.484 152.862 177.613C152.949 177.809 154.032 178.722 154.042 178.567C153.996 179.397 155.284 179.392 155.331 178.567C155.367 177.928 155.15 177.845 154.717 177.438C154.588 177.381 154.46 177.335 154.32 177.304C154.006 176.938 153.913 176.535 154.037 176.097C154.016 175.705 154.094 175.39 153.954 174.993C153.289 173.049 150.64 173.436 150.985 170.775C151.099 169.955 149.81 169.965 149.702 170.775Z" fill="black"/>
<path d="M158.8 164.081C158.877 163.003 159.872 162.627 160.789 162.823C161.228 162.916 161.496 163.045 161.918 162.787C163.078 162.075 162.351 160.239 164.243 160.234C165.073 160.229 165.073 158.94 164.243 158.945C163.393 158.95 162.614 159.239 162.027 159.878C161.722 160.208 161.537 160.605 161.408 161.028C161.228 161.616 161.331 161.544 160.697 161.461C159.047 161.25 157.63 162.426 157.511 164.081C157.454 164.911 158.743 164.906 158.8 164.081Z" fill="black"/>
<path d="M168.357 152.055C168.965 153.468 171.336 153.38 171.341 154.948C171.341 155.454 171.099 155.789 171.47 156.258C172.022 156.959 173.037 156.743 173.047 157.97C173.052 158.801 174.341 158.801 174.336 157.97C174.331 157.222 174.099 156.531 173.537 156.011C173.326 155.815 172.826 155.701 172.681 155.505C172.496 155.252 172.754 154.763 172.743 154.469C172.681 152.452 170.094 152.854 169.47 151.4C169.145 150.647 168.032 151.302 168.357 152.055Z" fill="black"/>
<path d="M169.826 167.774C169.537 168.991 169.583 170.914 171.284 170.961C171.975 170.981 171.939 170.94 172.001 171.667C172.037 172.069 171.975 172.394 172.197 172.771C172.32 172.982 173.645 174.008 173.815 173.812C173.269 174.431 174.176 175.349 174.728 174.725C175.114 174.287 175.223 173.792 174.924 173.245C174.779 172.977 174.537 172.755 174.279 172.595C173.692 172.229 173.346 172.389 173.31 171.466C173.284 170.806 173.351 170.156 172.707 169.754C172.413 169.568 172.192 169.615 171.857 169.568C171.382 169.501 171.625 169.847 171.171 169.341C170.8 168.929 170.934 168.64 171.058 168.124C171.259 167.31 170.016 166.964 169.826 167.774Z" fill="black"/>
<path d="M171.944 185.261C171.573 184.699 171.707 183.91 172.485 183.848C172.841 183.817 173.176 183.997 173.542 183.941C174.088 183.863 174.336 183.497 174.547 183.023C174.795 182.46 174.939 182.362 175.475 182.156C175.702 182.069 175.908 181.965 176.094 181.806C176.552 181.419 176.697 180.986 176.568 180.408C176.393 179.598 175.15 179.939 175.326 180.748C175.32 180.733 173.82 181.455 173.645 181.718C173.377 182.105 173.48 182.522 172.908 182.595C172.583 182.636 172.284 182.548 171.949 182.646C170.511 183.059 170.047 184.714 170.836 185.911C171.284 186.602 172.403 185.957 171.944 185.261Z" fill="black"/>
<path d="M178.846 185.797C178.542 186.292 178.635 186.803 179.027 187.226C179.217 187.432 179.454 187.566 179.717 187.659C180.243 187.85 180.496 187.783 180.47 188.453C180.449 188.995 180.264 189.438 180.769 189.84C181.052 190.067 181.418 189.995 181.712 190.191C182.156 190.49 182.15 191.006 182.15 191.532C182.15 192.362 183.439 192.362 183.439 191.532C183.439 190.856 183.367 190.124 182.985 189.546C182.836 189.325 182.656 189.134 182.418 189.005C182.29 188.933 181.764 188.876 181.717 188.804C181.661 188.721 181.903 188.051 181.898 187.886C181.887 187.618 181.81 187.36 181.656 187.143C181.521 186.952 180.166 186.127 179.965 186.452C180.393 185.741 179.279 185.091 178.846 185.797Z" fill="black"/>
<path d="M175.656 199.768C175.424 198.478 177.269 199.071 177.96 198.669C178.418 198.401 178.645 197.916 178.836 197.442C178.949 197.158 179.011 196.792 179.186 196.539C179.511 196.08 179.996 196.116 180.48 195.931C181.042 195.719 181.398 195.374 181.552 194.791C181.769 193.987 180.527 193.646 180.31 194.451C180.197 194.884 179.279 194.879 178.939 195.049C178.661 195.193 178.444 195.363 178.253 195.616C177.857 196.137 177.779 197.308 177.192 197.566C176.815 197.731 176.3 197.524 175.882 197.622C175.537 197.7 175.217 197.885 174.965 198.133C174.418 198.674 174.29 199.386 174.418 200.113C174.558 200.923 175.8 200.577 175.656 199.768Z" fill="black"/>
<path d="M178.965 204.672C178.975 205.059 178.991 205.44 179.001 205.827C179.011 206.203 179.289 206.43 179.645 206.472C181.341 206.657 180.527 207.472 180.599 208.488C180.645 209.133 181.001 209.602 181.49 209.999C181.862 210.298 182.3 210.463 182.702 210.711C183.393 211.133 183.434 211.448 183.547 212.227C183.635 212.815 183.599 213.165 184.088 213.573C184.722 214.099 185.64 213.191 185.001 212.66C184.604 212.33 184.846 211.097 184.506 210.571C183.753 209.421 181.934 209.473 182.032 207.807C182.078 207.07 182.346 206.642 181.795 206.002C181.264 205.383 180.413 205.265 179.645 205.182C179.862 205.399 180.073 205.61 180.289 205.827C180.279 205.44 180.264 205.059 180.253 204.672C180.228 203.847 178.939 203.842 178.965 204.672Z" fill="black"/>
<path d="M186.687 202.63C186.341 201.701 187.645 202.073 188.114 201.748C188.351 201.588 188.485 201.351 188.542 201.077C188.604 200.783 188.424 200.34 188.573 200.097C188.738 199.834 189.238 199.814 189.516 199.705C189.815 199.592 190.104 199.437 190.331 199.21C190.79 198.746 190.841 198.22 190.599 197.648C190.279 196.884 189.166 197.545 189.486 198.298C189.46 198.241 187.826 198.968 187.661 199.128C187.455 199.334 187.315 199.592 187.259 199.876C187.228 200.03 187.259 200.68 187.3 200.639C187.243 200.691 186.625 200.654 186.48 200.711C186.202 200.814 185.965 200.995 185.774 201.217C185.351 201.706 185.217 202.361 185.444 202.97C185.728 203.744 186.975 203.414 186.687 202.63Z" fill="black"/>
<path d="M186.382 182.167C186.398 182.182 187.867 181.507 188.047 181.362C188.599 180.909 188.47 180.537 188.588 179.918C188.723 179.212 189.568 179.305 190.109 178.933C190.563 178.624 190.8 178.217 190.779 177.665C190.753 176.84 189.465 176.834 189.491 177.665C189.501 178.026 187.96 178.361 187.671 178.665C187.125 179.243 187.578 180.192 186.924 180.532C186.331 180.842 185.676 180.816 185.29 181.46C184.954 182.022 185.063 182.621 185.475 183.085C186.021 183.699 186.934 182.781 186.382 182.167Z" fill="black"/>
<path d="M180.089 169.083C179.898 168.14 180.506 167.366 181.434 167.212C181.815 167.15 182.176 167.253 182.558 167.119C183.398 166.82 183.305 166.258 183.563 165.546C183.929 164.551 185.047 164.845 185.857 164.365C186.48 163.994 186.82 163.483 186.8 162.761C186.779 161.931 185.491 161.931 185.511 162.761C185.532 163.519 183.413 163.623 182.872 164.123C182.599 164.375 182.449 164.685 182.346 165.035C182.119 165.809 182.171 165.85 181.264 165.943C179.532 166.113 178.522 167.799 178.846 169.424C179.011 170.239 180.254 169.893 180.089 169.083Z" fill="black"/>
<path d="M185.542 151.085C184.784 152.251 185.841 153.231 186.934 153.52C187.604 153.695 187.934 153.989 188.022 154.701C188.058 154.984 187.985 155.252 188.083 155.536C188.429 156.506 189.697 156.402 189.743 157.604C189.774 158.429 191.063 158.434 191.032 157.604C191.006 156.97 190.851 156.377 190.418 155.892C190.176 155.619 189.846 155.515 189.594 155.283C189.228 154.948 189.336 154.897 189.351 154.386C189.367 153.747 189.243 153.231 188.707 152.818C188.47 152.638 186.46 152.034 186.656 151.735C187.109 151.039 185.991 150.389 185.542 151.085Z" fill="black"/>
<path d="M162.599 236.289C162.779 235.546 164.114 235.923 164.64 235.521C165.161 235.123 164.97 234.639 165.259 234.144C165.594 233.566 166.46 233.628 166.985 233.375C167.511 233.128 167.79 232.803 168.006 232.277C168.32 231.508 167.073 231.173 166.764 231.936C166.558 232.442 165.449 232.431 165.001 232.653C164.439 232.932 164.135 233.349 163.985 233.948C163.846 234.489 163.846 234.432 163.305 234.479C162.98 234.505 162.743 234.474 162.429 234.603C161.836 234.845 161.506 235.345 161.357 235.943C161.161 236.748 162.403 237.093 162.599 236.289Z" fill="black"/>
<path d="M175.465 234.056C175.202 234.52 175.233 235.036 175.583 235.454C175.764 235.67 176.011 235.82 176.279 235.908C176.501 235.98 177.073 235.964 177.222 236.145C177.315 236.258 177.233 236.635 177.274 236.8C177.336 237.042 177.47 237.259 177.681 237.403C178.264 237.8 179.202 237.45 179.274 238.445C179.331 239.27 180.624 239.275 180.563 238.445C180.521 237.841 180.31 237.305 179.867 236.882C179.351 236.392 178.795 236.454 178.181 236.222C178.31 236.32 178.439 236.418 178.568 236.516C178.454 236.356 178.552 236 178.496 235.804C178.439 235.583 178.3 235.371 178.135 235.211C177.975 235.062 176.728 234.438 176.578 234.701C176.985 233.984 175.872 233.329 175.465 234.056Z" fill="black"/>
<path d="M175.557 224.371C175.779 225.006 176.145 225.877 176.831 226.14C177.459 226.382 177.609 225.99 178.073 225.733C178.228 225.361 178.356 225.387 178.449 225.81C178.542 225.949 178.64 226.088 178.748 226.223C178.965 226.449 179.233 226.687 179.552 226.759C180.439 226.95 181.212 225.552 181.965 226.563C182.454 227.223 183.573 226.578 183.078 225.913C182.676 225.372 182.197 225.011 181.506 224.923C180.949 224.856 179.965 225.428 179.691 225.294C179.068 224.985 179.037 224.165 178.145 224.211C177.856 224.227 177.676 224.315 177.454 224.49C177.382 224.547 177.233 224.81 177.161 224.825C177.073 224.846 176.856 224.191 176.805 224.031C176.532 223.247 175.284 223.582 175.557 224.371Z" fill="black"/>
<path d="M187.846 232.06C187.81 231.746 188.702 232.266 188.831 232.313C189.068 232.401 189.351 232.483 189.609 232.483C190.192 232.478 190.558 232.189 190.862 231.73C190.985 231.539 190.985 231.189 191.243 231.096C191.47 231.013 192.161 231.256 192.449 231.23C192.965 231.178 193.326 230.946 193.573 230.498C193.975 229.771 192.862 229.121 192.46 229.848C192.331 230.085 190.955 229.776 190.604 229.93C190.243 230.085 190.197 230.281 189.949 230.544C189.888 230.683 189.831 230.823 189.784 230.967C189.465 231.101 189.171 231.091 188.908 230.936C188.336 230.797 187.919 230.487 187.31 230.761C186.769 230.998 186.491 231.493 186.558 232.065C186.656 232.875 187.949 232.885 187.846 232.06Z" fill="black"/>
<path d="M192.815 221.814C192.831 222.36 193.063 222.788 193.532 223.082C193.986 223.366 194.939 223.345 195.176 223.794C195.429 224.274 195.114 224.825 195.491 225.32C195.661 225.547 195.852 225.671 196.109 225.79C196.254 225.857 197.011 225.98 196.996 226.202C196.944 227.032 198.233 227.027 198.285 226.202C198.321 225.635 198.016 225.191 197.522 224.923C197.295 224.8 196.846 224.794 196.671 224.635C196.388 224.377 196.568 224.078 196.547 223.742C196.511 223.201 196.218 222.763 195.748 222.499C195.444 222.329 194.114 222.185 194.104 221.814C194.083 220.983 192.795 220.978 192.815 221.814Z" fill="black"/>
<path d="M205.645 231.926C205.367 231.044 206.723 231.478 207.171 231.369C207.599 231.266 207.949 230.936 208.068 230.508C208.233 229.915 207.815 229.451 208.599 229.466C209.094 229.477 209.516 229.41 209.867 229.033C210.434 228.424 209.522 227.512 208.955 228.12C208.8 228.29 208.212 228.141 208.011 228.156C207.728 228.177 207.444 228.259 207.223 228.445C206.965 228.657 206.846 228.93 206.8 229.25C206.774 229.44 206.893 230.034 206.779 230.111C206.583 230.245 205.903 230.023 205.63 230.075C205.351 230.132 205.104 230.26 204.893 230.446C204.372 230.905 204.197 231.601 204.403 232.256C204.65 233.056 205.893 232.721 205.645 231.926Z" fill="black"/>
<path d="M208.202 208.477C207.517 209.901 208.723 210.648 209.841 211.205C210.45 211.51 210.816 211.783 210.929 212.505C210.991 212.876 210.898 213.242 211.032 213.603C211.125 213.846 211.29 214.073 211.496 214.227C211.63 214.305 211.769 214.372 211.913 214.429C212.182 214.599 212.321 214.521 212.331 214.196C211.682 214.707 212.599 215.615 213.243 215.109C213.656 214.784 213.697 214.233 213.413 213.794C213.264 213.567 213.053 213.49 212.852 213.346C212.388 213.016 212.259 212.943 212.192 212.35C212.12 211.7 211.846 211.102 211.372 210.648C211.027 210.318 209.053 209.663 209.31 209.127C209.671 208.384 208.563 207.729 208.202 208.477Z" fill="black"/>
<path d="M201.383 202.346C200.785 200.804 202.527 201.598 203.171 201.289C203.604 201.083 203.805 200.65 203.877 200.196C203.96 199.659 203.893 199.463 204.413 199.19C204.609 199.087 204.857 199.066 205.058 198.958C205.563 198.674 205.888 198.205 205.826 197.617C205.738 196.802 204.45 196.792 204.537 197.617C204.568 197.911 203.769 198.025 203.584 198.107C203.305 198.231 203.053 198.391 202.883 198.649C202.712 198.901 202.656 199.185 202.63 199.484C202.604 199.752 202.681 199.861 202.48 199.989C202.352 200.077 202.058 199.974 201.929 199.974C200.506 199.964 199.651 201.413 200.145 202.687C200.439 203.455 201.681 203.125 201.383 202.346Z" fill="black"/>
<path d="M209.465 189.877C209.341 190.387 209.429 190.851 209.815 191.233C210.022 191.434 210.279 191.48 210.501 191.63C210.882 191.754 211.166 192.022 211.346 192.434C211.279 192.579 211.238 192.728 211.233 192.883C211.181 193.393 211.408 193.718 211.831 193.981C212.614 194.471 213.223 194.76 213.547 195.719C213.81 196.503 215.058 196.168 214.79 195.379C214.583 194.77 214.295 194.213 213.841 193.754C213.619 193.533 213.362 193.331 213.094 193.172C212.96 193.084 212.821 193.012 212.676 192.955C212.449 192.924 212.424 192.867 212.594 192.78C212.516 192.176 212.723 191.79 212.295 191.222C212.135 191.011 210.702 190.263 210.712 190.227C210.908 189.412 209.666 189.067 209.465 189.877Z" fill="black"/>
<path d="M196.254 185.421C195.898 185.931 196.042 186.607 196.532 186.988C196.857 187.241 197.259 187.288 197.661 187.257C198.362 187.21 198.599 187.324 198.666 188.01C198.728 188.665 199.027 189.113 199.661 189.314C200.181 189.479 200.248 189.479 200.372 190.042C200.455 190.418 200.496 190.655 200.805 190.923C201.429 191.465 202.346 190.552 201.717 190.011C201.558 189.871 201.635 189.314 201.573 189.113C201.501 188.876 201.367 188.659 201.176 188.5C200.991 188.34 200.754 188.257 200.522 188.19C200.058 188.061 199.986 188.2 199.939 187.643C199.893 187.086 199.81 186.529 199.336 186.168C198.996 185.911 197.681 185.632 197.372 186.076C197.841 185.39 196.723 184.745 196.254 185.421Z" fill="black"/>
<path d="M203.29 183.038C203.094 182.61 204.795 182.486 205.063 182.27C205.563 181.873 205.475 181.156 205.955 180.816C206.45 180.465 207.109 180.795 207.661 180.439C208.336 180.001 208.563 179.119 209.228 178.624C209.888 178.134 209.243 177.015 208.578 177.51C208.207 177.788 207.872 178.062 207.584 178.428C207.388 178.67 207.254 179 207.006 179.186C206.697 179.418 206.604 179.341 206.233 179.335C205.419 179.325 204.81 179.583 204.517 180.393C204.465 180.527 204.47 180.831 204.388 180.934C204.022 181.383 203.913 181.042 203.511 181.13C203.166 181.207 202.857 181.264 202.568 181.491C201.852 182.053 201.841 182.925 202.187 183.683C202.517 184.446 203.63 183.791 203.29 183.038Z" fill="black"/>
<path d="M213.063 172.982C212.764 174.246 213.733 174.565 214.599 175.148C215.135 175.509 214.97 175.994 215.217 176.54C215.501 177.175 216.692 177.948 216.501 178.686C216.295 179.49 217.537 179.831 217.743 179.026C218.156 177.438 216.583 176.953 216.32 175.592C216.228 175.122 216.192 174.777 215.831 174.421C215.573 174.168 214.217 173.684 214.305 173.323C214.496 172.518 213.253 172.173 213.063 172.982Z" fill="black"/>
<path d="M201.8 168.547C201.305 167.567 202.393 166.855 203.223 167.402C203.444 167.547 203.831 167.51 204.001 167.299C204.223 167.031 204.362 166.804 204.388 166.443C204.439 165.788 204.135 165.546 204.831 165.179C205.635 164.751 206.429 164.364 206.362 163.323C206.31 162.498 205.022 162.492 205.073 163.323C205.109 163.885 203.671 164.261 203.341 164.705C203.187 164.911 203.099 165.133 203.058 165.391C203.027 165.592 203.202 166.247 203.089 166.386C203.346 166.35 203.609 166.319 203.867 166.283C201.841 164.952 199.625 167.093 200.681 169.192C201.063 169.94 202.176 169.29 201.8 168.547Z" fill="black"/>
<path d="M207.104 157.707C207.114 157.965 207.125 158.218 207.135 158.476C207.145 158.754 207.326 159.033 207.609 159.1C208.063 159.208 208.728 158.996 209.114 159.141C209.702 159.363 209.48 160.379 209.738 160.858C209.924 161.204 210.217 161.462 210.62 161.518C211.089 161.591 212.233 160.812 212.156 161.725C212.089 162.55 213.377 162.545 213.444 161.725C213.496 161.075 213.187 160.456 212.614 160.126C212.357 159.976 212.027 159.899 211.733 159.92C211.377 159.945 210.996 160.306 210.815 159.94C210.692 159.687 210.846 159.182 210.754 158.878C210.661 158.579 210.47 158.31 210.212 158.125C209.522 157.635 208.712 158.037 207.955 157.857C208.114 158.063 208.269 158.269 208.429 158.481C208.418 158.223 208.408 157.97 208.398 157.712C208.357 156.882 207.068 156.877 207.104 157.707Z" fill="black"/>
<path d="M201.841 149.863C201.542 149.25 201.774 148.492 202.326 148.105C202.821 147.759 203.31 147.95 203.857 147.893C204.547 147.826 205.037 147.434 205.192 146.749C205.274 146.382 205.15 146.037 205.176 145.676C205.223 144.99 205.377 145.14 205.991 145.119C206.723 145.093 207.336 144.789 207.501 144.041C207.681 143.232 206.439 142.886 206.259 143.701C206.207 143.928 205.053 143.783 204.821 143.861C204.444 143.99 204.171 144.227 204.011 144.588C203.831 144.985 203.877 145.398 203.903 145.82C203.965 146.728 203.62 146.522 202.857 146.573C200.939 146.707 199.929 148.863 200.733 150.503C201.094 151.261 202.202 150.606 201.841 149.863Z" fill="black"/>
<path d="M214.259 153.876C214.099 153.401 214.424 153.066 214.893 153.107C215.238 153.138 215.527 153.344 215.893 153.329C216.47 153.298 216.924 152.927 217.042 152.365C217.12 151.983 217.089 152.05 217.475 151.906C217.754 151.803 217.991 151.653 218.182 151.421C218.553 150.977 218.579 150.395 218.151 149.987C217.553 149.415 216.64 150.323 217.238 150.9C217.012 150.684 217.218 150.673 216.826 150.751C216.702 150.776 216.568 150.838 216.455 150.895C216.228 151.008 216.001 151.168 215.867 151.395C215.79 151.529 215.79 151.668 215.738 151.808C215.723 151.87 215.723 151.926 215.733 151.988C215.764 152.112 215.738 152.117 215.651 152.004C215.377 152.024 215.032 151.787 214.733 151.782C213.501 151.761 212.625 153.076 213.001 154.211C213.28 155 214.527 154.665 214.259 153.876Z" fill="black"/>
<path d="M225.913 162.059C225.934 162.782 225.893 163.591 226.331 164.21C226.955 165.092 228.011 164.85 228.8 165.438C229.573 166.02 229.305 166.175 229.316 167.041C229.321 167.413 229.331 167.789 229.444 168.145C229.635 168.723 231.599 170.105 231.532 170.337C231.295 171.136 232.542 171.477 232.774 170.677C233.006 169.899 232.733 169.264 232.084 168.779C231.419 168.279 230.707 167.985 230.604 167.041C230.553 166.598 230.682 166.134 230.64 165.68C230.578 165.04 230.383 164.452 229.821 164.076C229.455 163.828 229.094 163.839 228.687 163.741C227.434 163.442 227.238 163.308 227.207 162.059C227.176 161.229 225.888 161.224 225.913 162.059Z" fill="black"/>
<path d="M228.254 178.985C228.207 178.247 228.975 178.263 229.506 178.113C229.867 178.01 230.151 177.824 230.45 177.603C231.279 176.984 232.084 176.329 232.898 175.689C233.553 175.179 232.635 174.271 231.986 174.777C231.408 175.23 230.826 175.684 230.249 176.138C229.981 176.35 229.692 176.633 229.383 176.788C229.058 176.948 228.738 176.922 228.398 177.01C227.47 177.242 226.903 178.036 226.96 178.99C227.017 179.81 228.305 179.815 228.254 178.985Z" fill="black"/>
<path d="M224.176 190.877C223.996 191.614 224.109 192.31 224.604 192.914C224.805 193.161 225.063 193.368 225.352 193.502C225.718 193.672 226.316 193.522 226.599 193.667C227.254 194.007 226.718 195.601 227.078 196.235C227.259 196.555 227.568 196.792 227.908 196.916C228.089 196.983 229.444 197.122 229.429 197.194C229.223 197.999 230.465 198.339 230.671 197.534C230.821 196.947 230.661 196.457 230.156 196.091C229.867 195.879 229.599 195.864 229.269 195.766C228.821 195.812 228.444 195.637 228.14 195.245C228.145 195.008 228.161 194.765 228.197 194.528C228.223 193.894 228.187 193.182 227.676 192.718C226.981 192.089 225.048 192.759 225.424 191.212C225.615 190.413 224.372 190.067 224.176 190.877Z" fill="black"/>
<path d="M232.738 191.831C232.749 191.439 232.759 191.047 232.774 190.655C232.558 190.872 232.346 191.083 232.13 191.3C232.707 191.32 233.326 191.274 233.831 190.97C234.063 190.831 234.259 190.635 234.388 190.397C234.491 190.201 234.444 189.686 234.537 189.567C234.63 189.443 235.14 189.557 235.362 189.541C235.661 189.521 235.96 189.443 236.228 189.294C236.785 188.979 237.151 188.443 237.269 187.824C237.424 187.014 236.181 186.664 236.027 187.484C235.785 188.742 234.48 187.896 233.723 188.469C233.398 188.716 233.357 189 233.259 189.366C233.089 190.021 232.779 190.031 232.13 190.011C231.774 189.995 231.496 190.315 231.486 190.655C231.475 191.047 231.465 191.439 231.45 191.831C231.424 192.661 232.712 192.661 232.738 191.831Z" fill="black"/>
<path d="M238.192 198.076C238.027 197.936 238.212 199.097 238.176 199.014C238.279 199.267 238.429 199.422 238.656 199.607C239.501 200.293 240.449 200.004 240.372 201.464C240.341 202.072 240.29 202.717 240.707 203.222C240.929 203.49 241.161 203.506 241.434 203.702C242.419 204.408 242.547 204.811 242.573 205.888C242.594 206.719 243.882 206.719 243.862 205.888C243.841 205.022 243.785 204.037 243.223 203.325C242.955 202.985 242.635 202.902 242.321 202.645C241.439 201.918 241.779 201.5 241.692 200.556C241.62 199.788 241.295 199.355 240.64 198.978C240.3 198.782 240.099 198.844 239.774 198.535C239.022 197.828 239.656 198.473 239.449 197.921C239.31 197.565 239.455 197.457 239.104 197.158C238.475 196.621 237.563 197.529 238.192 198.076Z" fill="black"/>
<path d="M226.522 207.152C225.403 208.952 227.078 210.385 228.785 210.628C229.336 210.705 229.47 210.551 229.676 211.087C229.846 211.525 229.635 211.634 229.583 212.036C229.532 212.433 229.439 212.825 229.568 213.222C229.651 213.48 229.8 213.707 230.011 213.872C230.279 214.083 231.723 214.284 231.305 214.898C230.836 215.584 231.955 216.229 232.419 215.548C232.831 214.944 232.867 214.197 232.439 213.583C232.269 213.341 232.063 213.129 231.79 213.005C231.212 212.737 230.754 213.176 230.877 212.216C230.98 211.427 231.455 210.741 230.836 210.004C230.553 209.663 230.156 209.529 229.743 209.447C229.145 209.323 226.692 209.339 227.645 207.807C228.073 207.095 226.955 206.445 226.522 207.152Z" fill="black"/>
<path d="M244.496 217.203C244.836 215.821 245.841 216.584 246.826 216.398C247.398 216.29 247.604 215.991 247.919 215.542C248.414 214.846 248.841 215.207 249.615 215.052C250.238 214.923 250.615 214.604 250.826 214.011C251.104 213.227 249.862 212.891 249.584 213.67C249.491 213.933 247.805 213.778 247.455 213.969C246.795 214.325 246.929 215.13 246.094 215.078C245.388 215.037 244.841 214.733 244.176 215.186C243.62 215.563 243.403 216.239 243.254 216.863C243.058 217.667 244.3 218.007 244.496 217.203Z" fill="black"/>
<path d="M227.032 229.497C227.212 229.126 227.393 228.755 227.573 228.378C227.728 228.42 227.882 228.461 228.037 228.502C228.279 228.58 228.496 228.703 228.748 228.729C229.094 228.765 229.408 228.698 229.707 228.523C230.006 228.342 230.223 228.038 230.486 227.816C231.058 227.342 231.728 227.105 232.449 226.986C233.264 226.847 232.919 225.604 232.109 225.744C231.285 225.883 230.527 226.182 229.857 226.687C229.48 226.971 229.207 227.43 228.692 227.394C228.228 227.358 227.924 227.074 227.413 227.115C225.846 227.249 225.254 228.868 225.919 230.152C226.3 230.885 227.413 230.23 227.032 229.497Z" fill="black"/>
<path d="M244.434 225.949C244.45 225.568 244.46 225.186 244.475 224.799C244.367 224.985 244.264 225.17 244.156 225.356C244.522 225.145 245.362 225.722 245.81 225.691C246.372 225.65 246.738 225.315 246.96 224.82C247.357 223.938 247.841 224.356 248.625 224.139C249.166 223.99 249.517 223.67 249.676 223.139C249.919 222.345 248.676 222.004 248.434 222.798C248.372 223.01 246.883 222.922 246.578 223.092C246.321 223.232 246.166 223.448 246.011 223.691C245.749 224.103 245.841 224.366 245.279 224.278C244.738 224.191 244.321 223.892 243.754 224.119C242.991 224.423 243.171 225.268 243.151 225.949C243.12 226.779 244.408 226.779 244.434 225.949Z" fill="black"/>
<path d="M254.305 217.255C253.537 218.57 254.718 219.539 255.852 219.988C256.687 220.318 256.743 220.457 256.661 221.303C256.63 221.623 256.594 221.875 256.713 222.18C256.841 222.51 257.852 223.144 257.821 223.381C257.728 224.206 259.017 224.196 259.109 223.381C259.161 222.917 258.95 222.587 258.625 222.283C258.326 222.004 258.182 222.025 258.073 221.612C257.97 221.22 258.171 220.896 258.109 220.493C258.027 219.957 257.666 219.508 257.218 219.209C256.816 218.946 255.058 218.534 255.424 217.91C255.836 217.188 254.723 216.538 254.305 217.255Z" fill="black"/>
<path d="M236.584 216.641C235.31 217.337 236.042 218.889 237.022 219.457C237.527 219.751 238.037 219.864 238.207 220.534C238.3 220.911 238.187 221.323 238.31 221.715C238.527 222.406 239.037 222.783 239.733 222.824C239.527 222.551 239.321 222.283 239.109 222.009C239.032 222.267 238.955 222.52 238.877 222.778C238.635 223.572 239.883 223.912 240.12 223.118C240.197 222.86 240.274 222.608 240.352 222.35C240.48 221.932 240.135 221.556 239.728 221.535C239.429 221.519 239.486 220.246 239.429 220.014C239.357 219.699 239.212 219.415 238.996 219.173C238.774 218.92 238.475 218.755 238.182 218.601C238.104 218.559 236.852 217.961 237.223 217.76C237.96 217.358 237.31 216.244 236.584 216.641Z" fill="black"/>
<path d="M221.542 216.249C221.759 217.729 223.367 218.131 224.635 218.271C224.429 218.111 224.223 217.956 224.011 217.796C224.156 218.745 223.81 219.709 224.295 220.602C224.527 221.024 225.614 222.004 226.12 221.473C225.547 222.071 226.455 222.984 227.032 222.386C227.537 221.86 227.455 221.091 226.877 220.638C226.388 220.256 225.589 220.395 225.326 219.709C225.089 219.085 225.362 218.142 225.254 217.456C225.207 217.157 224.893 217.012 224.63 216.981C223.924 216.904 222.903 216.754 222.779 215.909C222.666 215.089 221.424 215.434 221.542 216.249Z" fill="black"/>
</g>
</svg>
