<svg width="542" height="510" viewBox="0 0 542 510" fill="none" xmlns="http://www.w3.org/2000/svg">
<path d="M459.747 176.593C476.154 176.593 489.455 163.293 489.455 146.886C489.455 130.479 476.154 117.178 459.747 117.178C443.34 117.178 430.04 130.479 430.04 146.886C430.04 163.293 443.34 176.593 459.747 176.593Z" fill="#FFECDD"/>
<path d="M361.813 367.824C333.251 283.499 252.382 247.315 215.549 291.448C183.11 330.32 215.227 375.533 245.895 383.33C282.024 392.516 296.265 420.621 294.624 453.512C293.386 478.313 298.435 495.23 333.049 476.645C359.889 462.23 379.281 419.389 361.813 367.824ZM316.928 453.834C313.815 453.834 311.285 451.31 311.285 448.191C311.285 445.078 313.809 442.548 316.928 442.548C320.041 442.548 322.57 445.073 322.57 448.191C322.57 451.31 320.041 453.834 316.928 453.834Z" fill="#FFECDD"/>
<path d="M279.909 413.604C272.631 413.604 266.71 407.683 266.71 400.405C266.71 393.127 272.631 387.206 279.909 387.206C287.187 387.206 293.108 393.127 293.108 400.405C293.108 407.683 287.187 413.604 279.909 413.604ZM279.909 388.847C273.536 388.847 268.346 394.032 268.346 400.411C268.346 406.789 273.53 411.974 279.909 411.974C286.282 411.974 291.473 406.789 291.473 400.411C291.473 394.032 286.288 388.847 279.909 388.847Z" fill="#333333"/>
<path d="M478.119 135.005C476.511 135.005 474.881 134.656 473.338 133.91C470.677 132.628 468.677 130.388 467.701 127.602C466.725 124.816 466.894 121.817 468.175 119.157C470.819 113.667 477.438 111.35 482.928 113.994C488.418 116.638 490.735 123.257 488.085 128.747C486.194 132.699 482.235 135.005 478.119 135.005ZM478.152 114.533C474.646 114.533 471.272 116.496 469.652 119.86C468.562 122.128 468.415 124.679 469.249 127.056C470.078 129.428 471.784 131.342 474.052 132.432C478.73 134.689 484.367 132.716 486.624 128.038C488.876 123.36 486.908 117.723 482.23 115.466C480.911 114.833 479.52 114.533 478.152 114.533Z" fill="#333333"/>
<path d="M433.713 217.858C435.18 217.193 436.657 215.836 437.29 214.342C436.876 214.167 436.461 213.993 436.047 213.818C435.72 215.765 437.203 217.308 438.98 217.804C438.925 217.389 438.871 216.975 438.816 216.561C436.805 217.678 436.478 219.27 435.823 221.309C436.259 221.429 436.701 221.549 437.137 221.669C437.579 219.259 435.763 216.986 433.272 217.046C432.394 217.068 432.394 218.431 433.272 218.409C434.82 218.371 436.112 219.734 435.823 221.309C435.665 222.165 436.865 222.52 437.137 221.669C437.677 219.99 437.802 218.681 439.509 217.733C440.027 217.444 439.901 216.642 439.345 216.49C438.375 216.217 437.165 215.361 437.361 214.178C437.475 213.486 436.439 212.886 436.118 213.655C435.562 214.969 434.319 216.103 433.032 216.686C432.231 217.04 432.917 218.218 433.713 217.858Z" fill="#333333"/>
<path d="M420.847 171.272C422.314 170.606 423.791 169.249 424.423 167.755C424.009 167.581 423.595 167.406 423.18 167.232C422.853 169.178 424.336 170.721 426.114 171.217C426.059 170.803 426.005 170.388 425.95 169.974C423.938 171.092 423.611 172.684 422.957 174.723C423.393 174.843 423.835 174.962 424.271 175.082C424.712 172.673 422.897 170.399 420.405 170.459C419.528 170.481 419.528 171.844 420.405 171.822C421.954 171.784 423.246 173.147 422.957 174.723C422.799 175.579 423.998 175.933 424.271 175.082C424.811 173.403 424.936 172.095 426.642 171.146C427.16 170.857 427.035 170.056 426.479 169.903C425.508 169.63 424.298 168.775 424.494 167.591C424.609 166.899 423.573 166.299 423.251 167.068C422.695 168.382 421.452 169.516 420.166 170.099C419.364 170.459 420.056 171.631 420.847 171.272Z" fill="#333333"/>
<path d="M450.592 101.596C452.058 100.931 453.536 99.5735 454.168 98.0797C453.754 97.9052 453.339 97.7307 452.925 97.5563C452.598 99.5026 454.081 101.046 455.858 101.542C455.804 101.127 455.749 100.713 455.695 100.299C453.683 101.416 453.356 103.008 452.702 105.047C453.138 105.167 453.579 105.287 454.015 105.407C454.457 102.997 452.642 100.724 450.15 100.784C449.272 100.806 449.272 102.169 450.15 102.147C451.698 102.109 452.99 103.472 452.702 105.047C452.543 105.903 453.743 106.258 454.015 105.407C454.555 103.728 454.681 102.419 456.387 101.471C456.905 101.182 456.78 100.38 456.223 100.228C455.253 99.9551 454.043 99.0992 454.239 97.9161C454.353 97.2237 453.318 96.624 452.996 97.3927C452.44 98.7066 451.197 99.8406 449.91 100.424C449.103 100.784 449.796 101.956 450.592 101.596Z" fill="#333333"/>
<path d="M356.701 154.82C357.58 154.498 357.896 153.151 357.406 151.811C356.916 150.47 355.806 149.644 354.926 149.966C354.047 150.287 353.731 151.634 354.221 152.975C354.711 154.315 355.821 155.141 356.701 154.82Z" fill="#F8BAB4"/>
<path d="M373.434 152.59C373.98 151.271 373.721 149.912 372.855 149.554C371.99 149.196 370.846 149.975 370.301 151.294C369.755 152.613 370.014 153.972 370.88 154.33C371.745 154.688 372.889 153.909 373.434 152.59Z" fill="#F8BAB4"/>
<path d="M356.241 172.869C356.241 172.869 359.142 176.789 362.98 178.038C366.011 179.03 370.264 174.745 370.264 174.745L370.656 168.475C370.656 168.475 367.287 171.768 364.703 171.61C362.119 171.452 356.634 168.082 356.634 168.082L356.241 172.869Z" fill="#F8BAB4"/>
<path d="M329.042 258.879C329.042 258.879 342.017 265.056 359.283 265.159C376.55 265.263 391.619 259.298 391.619 259.298C391.619 259.298 392.458 284.939 398.837 300.951C405.221 316.963 416.943 336.22 416.943 336.22C416.943 336.22 406.999 345.532 381.151 349.092C355.304 352.652 351.64 352.439 351.64 352.439L349.65 316.02C349.65 316.02 336.571 325.229 332.28 327.426C327.989 329.623 322.652 332.136 322.652 332.136C322.652 332.136 316.371 320.104 309.257 314.03C302.142 307.957 291.254 297.707 291.254 297.707C291.254 297.707 314.174 283.996 316.998 282.011C319.822 280.021 325.263 275.207 326.419 267.149C327.581 259.086 329.042 258.879 329.042 258.879Z" fill="#FFECDD"/>
<path d="M373.769 185.049C373.769 185.049 377.945 194.055 384.913 199.72C391.875 205.385 397.446 206.589 397.446 206.589C397.446 206.589 397.725 194.612 399.676 189.874C401.628 185.136 402.092 183.839 402.092 183.839C402.092 183.839 391.875 182.541 386.679 178.823C381.478 175.11 380.088 174.363 380.088 174.363C380.088 174.363 379.624 179.472 378.043 180.954C376.462 182.443 375.443 182.536 375.443 182.536L373.769 185.049Z" fill="#F8BAB4"/>
<path d="M348.499 182.677L343.953 170.923C343.953 170.923 340.54 173.703 333.338 174.968C326.136 176.233 321.333 176.865 321.333 176.865L326.136 208.961C326.136 208.961 334.853 207.445 340.796 196.956C346.738 186.466 348.499 182.677 348.499 182.677Z" fill="#F8BAB4"/>
<path d="M368.923 143.265C368.983 143.696 369.048 143.996 369.053 144.377C369.059 144.546 369.075 144.236 369.053 144.405C369.043 144.514 369.026 144.617 369.01 144.721C368.972 145.026 368.944 145.332 368.923 145.637C368.857 146.509 370.22 146.509 370.286 145.637C370.324 145.108 370.411 144.775 370.416 144.334C370.422 143.86 370.302 143.363 370.231 142.9C370.177 142.535 369.719 142.338 369.392 142.426C369.004 142.529 368.868 142.9 368.923 143.265Z" fill="#333333"/>
<path d="M355.293 143.674C355.396 144.001 355.565 144.454 355.571 144.705C355.576 145.026 355.467 145.413 355.407 145.779C355.353 146.144 355.5 146.509 355.882 146.618C356.203 146.711 356.661 146.504 356.721 146.144C356.792 145.675 356.934 145.185 356.934 144.71C356.934 144.23 356.754 143.762 356.607 143.314C356.34 142.48 355.02 142.835 355.293 143.674Z" fill="#333333"/>
<path d="M360.974 144.023C361.688 145.174 361.541 146.504 360.641 147.496C360.074 148.123 359.573 148.559 359.911 149.481C360.445 150.931 363.454 151.373 363.945 149.726C364.196 148.887 362.882 148.527 362.631 149.366C362.555 149.612 361.214 149.11 361.252 148.772C361.257 148.723 361.879 148.167 361.933 148.101C362.271 147.676 362.528 147.175 362.664 146.646C362.964 145.501 362.773 144.334 362.151 143.336C361.688 142.595 360.51 143.276 360.974 144.023Z" fill="#333333"/>
<path d="M359.698 156.65C361.955 159.42 366.726 158.351 369.413 156.895C370.188 156.481 369.501 155.303 368.726 155.718C366.557 156.89 362.511 157.953 360.663 155.685C360.107 155.004 359.147 155.974 359.698 156.65Z" fill="#333333"/>
<path d="M348.096 143.38C348.222 150.227 349.012 157.228 352.343 163.328C354.628 167.515 359.038 173.027 364.408 172.526C369.899 172.019 373.938 166.049 376.016 161.502C378.562 155.908 379.232 149.666 378.491 143.598C378.387 142.736 377.019 142.726 377.128 143.598C377.728 148.51 377.417 153.493 375.847 158.209C374.282 162.909 370.635 169.696 365.352 170.966C359.529 172.368 354.829 165.569 352.725 161.066C350.152 155.548 349.568 149.388 349.459 143.374C349.443 142.507 348.08 142.502 348.096 143.38Z" fill="#333333"/>
<path d="M363.666 125.678C361.791 128.605 357.871 130.268 355.101 132.247C352.91 133.817 350.963 135.578 349.41 137.797C348.908 138.517 350.086 139.198 350.587 138.484C352.686 135.486 355.641 133.474 358.656 131.489C360.886 130.023 363.372 128.66 364.844 126.364C365.318 125.623 364.141 124.942 363.666 125.678Z" fill="#333333"/>
<path d="M384.804 141.602C385.845 130.339 380.126 117.101 368.034 114.626C353.755 111.704 342.372 122.373 335.916 133.904C335.486 134.673 336.663 135.36 337.094 134.591C343.227 123.638 354.017 113.154 367.674 115.935C373.197 117.058 376.915 120.64 379.946 125.159C383.141 129.924 383.97 135.938 383.446 141.597C383.359 142.475 384.722 142.469 384.804 141.602Z" fill="#333333"/>
<path d="M369.975 169.369C369.92 174.238 367.903 183.343 375.023 183.533C375.901 183.555 375.901 182.192 375.023 182.17C371.087 182.067 371.24 178.032 371.272 175.067C371.294 173.169 371.316 171.272 371.338 169.375C371.349 168.492 369.986 168.492 369.975 169.369Z" fill="#333333"/>
<path d="M355.685 168.759C355.707 171.501 355.729 174.489 354.944 177.138C354.48 178.697 353.706 180.137 352.185 180.9C351.362 181.314 348.647 181.058 348.358 181.669C348.734 180.878 347.556 180.186 347.18 180.982C347.153 181.042 347.126 181.102 347.093 181.162C346.957 181.451 346.984 181.751 347.202 181.985C348.941 183.899 352.883 182.465 354.377 180.965C357.293 178.043 357.075 172.537 357.043 168.753C357.043 167.881 355.68 167.881 355.685 168.759Z" fill="#333333"/>
<path d="M321.736 186.003C325.978 205.586 325.694 225.137 324.446 245.009C324.418 245.478 324.904 245.75 325.307 245.669C329.68 244.78 334.107 244.529 338.544 245.014C342.966 245.5 347.3 246.585 351.705 247.162C359.622 248.204 367.745 248.253 375.721 248.008C381.353 247.833 386.99 246.934 392.497 245.794C397.992 244.655 403.564 243.264 408.651 240.844C409.441 240.468 408.749 239.29 407.964 239.666C402.637 242.207 396.722 243.581 390.959 244.72C385.126 245.87 379.248 246.628 373.3 246.677C364.817 246.748 356.329 246.683 347.949 245.205C340.142 243.831 332.825 242.752 324.942 244.349C325.231 244.567 325.514 244.785 325.803 245.009C327.063 225.017 327.313 205.335 323.045 185.638C322.865 184.782 321.551 185.147 321.736 186.003Z" fill="#333333"/>
<path d="M375.83 183.321C379.363 182.061 379.532 177.596 380.426 174.516C380.044 174.614 379.668 174.718 379.286 174.816C385.627 180.66 393.696 183.948 402.31 184.199C402.114 183.855 401.917 183.517 401.721 183.174C399.638 187.77 397.725 192.496 396.923 197.501C396.193 202.054 396.64 206.47 397.692 210.935C400.08 221.032 403.602 230.883 407.756 240.381C408.105 241.182 409.283 240.49 408.934 239.694C405.09 230.922 401.906 221.86 399.513 212.587C398.254 207.718 397.447 202.888 398.237 197.867C399.006 192.982 400.865 188.342 402.899 183.866C403.111 183.397 402.861 182.857 402.31 182.841C394.067 182.601 386.314 179.45 380.251 173.856C379.875 173.507 379.259 173.649 379.112 174.156C378.403 176.599 378.272 181.009 375.465 182.012C374.647 182.296 375.001 183.615 375.83 183.321Z" fill="#333333"/>
<path d="M322.233 177.612C326.436 176.969 330.689 176.467 334.854 175.639C338.474 174.919 341.423 173.354 344.493 171.359C344.16 171.223 343.828 171.086 343.49 170.95C344.068 173.463 344.902 175.857 345.992 178.196C346.363 178.992 347.535 178.299 347.17 177.509C346.123 175.263 345.36 172.995 344.804 170.59C344.705 170.176 344.16 169.947 343.8 170.181C340.535 172.302 337.373 173.818 333.502 174.505C329.636 175.192 325.738 175.704 321.862 176.298C321.011 176.429 321.377 177.743 322.233 177.612Z" fill="#333333"/>
<path d="M350.298 182.716C354.643 191.586 370.443 190.277 375.939 183.419C376.484 182.743 375.524 181.772 374.974 182.454C370.018 188.631 355.445 190.13 351.47 182.023C351.089 181.238 349.911 181.93 350.298 182.716Z" fill="#333333"/>
<path d="M347.595 182.797C345.861 188.276 342.945 193.45 339.504 198.035C336.146 202.517 331.686 207.423 325.956 208.585C325.095 208.759 325.46 210.073 326.316 209.899C332.003 208.748 336.484 204.103 339.919 199.714C343.779 194.786 347.012 189.149 348.903 183.157C349.171 182.323 347.857 181.963 347.595 182.797Z" fill="#333333"/>
<path d="M373.491 185.916C376.49 191.204 380.257 196.013 384.771 200.091C388.408 203.373 392.393 206.911 397.523 206.982C398.401 206.993 398.401 205.63 397.523 205.619C392.289 205.548 387.944 201.312 384.384 197.866C380.535 194.143 377.308 189.879 374.663 185.229C374.238 184.466 373.06 185.153 373.491 185.916Z" fill="#333333"/>
<path d="M345.109 196.302C348.969 194.192 352.223 195.37 355.56 197.676C357.179 198.793 358.504 198.973 360.221 197.937C361.432 197.207 362.391 196.013 363.705 195.451C364.899 194.944 366.055 194.879 367.342 195.25C367.892 195.408 368.35 195.866 368.945 196.035C371.3 196.705 373.639 195.609 375.705 194.601C376.495 194.219 375.803 193.042 375.018 193.423C372.914 194.448 370.744 195.457 368.514 194.252C367.789 193.859 367.096 193.123 366.24 193.025C363.596 192.714 361.693 195.909 359.54 196.754C357.321 197.627 356.274 196.275 354.644 195.25C353.51 194.535 352.213 194.072 350.888 193.876C348.603 193.543 346.434 194.017 344.427 195.113C343.653 195.549 344.34 196.722 345.109 196.302Z" fill="#333333"/>
<path d="M340.448 205.783C342.471 206.601 344.559 207.048 346.75 206.944C347.715 206.9 348.653 206.731 349.591 206.519C351.439 206.099 352.742 206.132 354.585 206.824C355.844 207.298 356.602 207.413 357.899 206.895C358.897 206.497 359.748 205.679 360.805 205.434C362.288 205.09 363.439 205.99 364.823 206.164C366.944 206.426 368.7 204.327 370.739 204.741C372.549 205.107 373.427 206.382 375.389 205.843C377.412 205.287 377.167 203.88 380.263 204.943C381.103 205.232 381.817 205.941 382.64 206.306C384.058 206.933 385.252 207.069 386.626 206.328C387.4 205.914 386.713 204.736 385.939 205.15C383.507 206.459 381.359 203.378 379.058 203.117C378.301 203.03 377.864 203.16 377.172 203.4C375.149 204.098 375.76 204.938 372.663 204.109C371.431 203.776 370.641 203.073 369.239 203.389C368.629 203.526 368.198 203.885 367.626 204.082C365.854 204.692 364.682 204.611 362.959 204.207C361.721 203.918 360.833 203.929 359.644 204.42C358.772 204.78 357.714 205.805 356.76 205.859C355.708 205.919 354.639 204.998 353.669 204.774C352.055 204.403 350.807 204.85 349.231 205.194C346.309 205.837 343.577 205.581 340.813 204.458C339.995 204.142 339.646 205.456 340.448 205.783Z" fill="#333333"/>
<path d="M334.521 216.725C336.723 215.395 338.746 215.798 340.752 217.281C341.477 217.821 342.148 218.426 343.015 218.742C345.223 219.543 347.355 218.475 349.459 217.886C351.215 217.395 352.67 217.526 354.399 218.039C355.456 218.349 356.41 218.611 357.523 218.42C359.692 218.055 361.186 216.278 363.16 215.487C365.875 214.397 367.734 217.172 370.378 217.428C373.126 217.69 375.705 216.256 378.343 215.765C380.491 215.367 382.738 215.449 384.853 215.967C386.303 216.321 387.677 217.052 389.182 217.155C390.768 217.265 392.022 216.714 392.949 215.438C393.467 214.729 392.284 214.048 391.771 214.751C390.049 217.117 385.006 214.44 382.596 214.228C379.712 213.972 377.188 214.648 374.451 215.433C372.641 215.951 370.885 216.376 369.081 215.662C367.963 215.22 367.091 214.331 365.935 213.961C364.267 213.426 362.784 214.042 361.355 214.904C360.379 215.493 359.491 216.24 358.433 216.681C356.634 217.434 355.227 216.73 353.466 216.321C351.209 215.798 349.306 216.556 347.158 217.21C344.809 217.924 343.391 217.532 341.401 216.081C340.78 215.629 340.18 215.166 339.449 214.887C337.53 214.157 335.546 214.517 333.828 215.553C333.082 216 333.768 217.177 334.521 216.725Z" fill="#333333"/>
<path d="M329.646 230.763C331.048 228.195 333.861 227.939 336.096 229.64C337.034 230.354 337.803 231.221 338.964 231.592C341.161 232.29 343.216 231.123 345.157 230.234C347.316 229.248 349.088 228.692 351.132 230.36C351.983 231.052 352.681 231.848 353.711 232.301C356.83 233.664 359.888 231.456 362.854 230.747C366.48 229.885 370.002 231.374 373.562 231.859C376.478 232.257 378.757 231.772 381.298 230.327C382.596 229.591 383.408 229.117 384.945 229.362C386.243 229.569 386.723 229.962 387.78 230.643C388.783 231.287 389.765 231.701 390.953 231.832C394.492 232.213 397.801 230.196 401.356 230.921C402.212 231.096 402.577 229.782 401.715 229.607C398.106 228.871 394.884 230.801 391.33 230.512C387.895 230.229 386.292 226.767 382.612 228.114C380.916 228.735 379.575 229.995 377.792 230.442C375.677 230.976 373.496 230.518 371.408 230.082C368.11 229.384 364.953 228.642 361.638 229.689C359.61 230.327 357.086 231.87 354.873 231.281C352.975 230.774 351.983 228.833 350.184 228.135C347.954 227.269 345.839 228.457 343.843 229.373C341.068 230.649 339.645 230.6 337.061 228.686C336.172 228.026 335.333 227.389 334.215 227.187C331.844 226.767 329.597 228.032 328.474 230.087C328.044 230.845 329.221 231.532 329.646 230.763Z" fill="#333333"/>
<path d="M399.628 183.152C401.536 172.821 402.343 162.353 402.877 151.869C403.39 141.892 404.382 131.615 402.376 121.742C400.429 112.146 395.877 103.205 391.946 94.3132C387.405 84.0418 382.869 73.7704 378.327 63.499C377.973 62.6975 376.801 63.3899 377.15 64.1859C381.397 73.7922 385.644 83.4039 389.891 93.0102C393.931 102.153 398.668 111.323 400.855 121.142C403.084 131.168 402.032 141.707 401.509 151.864C400.974 162.222 400.195 172.57 398.308 182.782C398.156 183.648 399.47 184.014 399.628 183.152Z" fill="#333333"/>
<path d="M377.782 64.5184C380.977 62.8065 384.64 63.1118 387.999 61.9178C390.599 60.991 392.611 59.1264 394.279 56.9784C398.728 51.2647 401.945 44.3572 404.573 37.6458C404.747 37.2042 404.311 36.8063 403.913 36.7844C400.92 36.6045 399.344 39.445 397.818 41.5821C395.13 45.3549 392.442 49.1221 389.754 52.8949C389.242 53.6091 390.425 54.2906 390.932 53.5818C392.791 50.9703 394.656 48.3589 396.515 45.7529C398.15 43.4576 400.713 37.9512 403.913 38.1474C403.695 37.8585 403.477 37.575 403.253 37.286C400.762 43.6539 397.676 50.0762 393.614 55.6099C391.444 58.5649 388.866 60.5221 385.224 61.2363C382.41 61.787 379.657 61.9723 377.089 63.3462C376.315 63.7551 377.008 64.9327 377.782 64.5184Z" fill="#333333"/>
<path d="M396.7 42.3674C392.84 43.7195 390.675 47.0343 387.589 49.4876C383.555 52.6934 378.25 53.0968 373.627 55.0649C370.105 56.5642 368.415 58.1943 368.284 62.0925C368.11 67.31 369.293 72.4838 370.798 77.4505C374.08 88.2835 377.76 98.9638 380.829 109.862C382.416 115.51 384.782 121.524 384.793 127.445C384.798 132.417 383.789 137.438 383.353 142.394C382.367 153.608 381.914 164.894 382.061 176.152C382.072 177.03 383.435 177.03 383.424 176.152C383.304 166.72 383.626 157.283 384.286 147.873C384.929 138.747 387.382 129.184 385.098 120.172C382.421 109.611 379.297 99.0892 375.944 88.7251C374.325 83.7257 372.471 78.7917 371.157 73.7051C370.094 69.578 367.445 60.2933 371.866 57.4801C376.01 54.8414 381.194 54.5743 385.556 52.399C389.939 50.2073 392.409 45.3114 397.065 43.6813C397.888 43.3924 397.534 42.0785 396.7 42.3674Z" fill="#333333"/>
<path d="M323.16 185.905C321.35 176.146 320.429 166.24 319.764 156.345C319.088 146.335 318.052 135.949 319.279 125.956C320.625 115.014 325.794 104.96 330.193 95.005C334.735 84.7336 339.271 74.4621 343.812 64.1907C344.161 63.3947 342.989 62.7023 342.635 63.5038C338.9 71.9543 335.165 80.3993 331.431 88.8498C328.056 96.4825 324.42 104.055 321.503 111.879C315.724 127.384 317.441 143.969 318.673 160.139C319.339 168.889 320.249 177.634 321.846 186.265C322.005 187.126 323.318 186.761 323.16 185.905Z" fill="#333333"/>
<path d="M343.877 63.3402C341.44 62.0372 338.834 61.7864 336.152 61.3012C332.341 60.6143 329.637 58.7061 327.353 55.604C323.285 50.0812 320.2 43.6479 317.714 37.28C317.495 37.569 317.277 37.8525 317.054 38.1414C320.216 37.9506 322.827 43.468 324.452 45.7469C326.311 48.3583 328.176 50.9698 330.035 53.5758C330.542 54.2846 331.725 53.6031 331.212 52.8889C328.525 49.1162 325.837 45.3489 323.149 41.5761C321.623 39.4335 320.052 36.5931 317.054 36.7785C316.656 36.8003 316.225 37.2037 316.394 37.6399C319.022 44.3621 322.244 51.2424 326.687 56.9724C328.361 59.1313 330.373 60.9686 332.968 61.9118C336.321 63.1276 339.979 62.795 343.185 64.5124C343.959 64.9322 344.651 63.76 343.877 63.3402Z" fill="#333333"/>
<path d="M323.907 43.6803C327.685 44.9996 329.833 48.5325 332.919 50.855C335.972 53.1557 339.723 54.0062 343.316 55.0966C345.409 55.729 347.895 56.3996 349.596 57.828C351.87 59.7416 351.45 63.3236 351.204 66.055C350.763 70.989 349.334 75.7648 347.786 80.4426C344.608 90.0761 341.576 99.726 338.829 109.496C337.509 114.179 335.868 118.922 335.116 123.736C334.402 128.294 335.296 132.819 335.759 137.355C336.937 148.881 336.768 160.488 336.599 172.062C336.588 172.94 337.951 172.94 337.962 172.062C338.12 161.202 338.278 150.314 337.324 139.481C336.844 134.019 335.601 128.539 336.61 123.071C337.558 117.925 339.292 112.849 340.72 107.822C343.664 97.4471 347.246 87.2902 350.321 76.9643C351.662 72.461 352.709 67.805 352.704 63.0837C352.698 59.2237 351.81 57.1956 348.288 55.4837C343.79 53.2975 338.442 53.0303 334.265 50.1463C330.722 47.6983 328.481 43.8329 324.272 42.3609C323.438 42.0774 323.078 43.3913 323.907 43.6803Z" fill="#333333"/>
<path d="M330.399 28.6331C328.562 32.7002 327.945 37.3071 330.819 41.0635C333.087 44.0239 336.821 45.6322 340.452 46.0302C344.748 46.4991 349.077 45.1143 351.427 41.287C354.066 36.9909 354.164 32.3459 351.132 28.2787C350.615 27.5809 349.432 28.2624 349.955 28.9657C352.675 32.6185 352.708 36.7183 350.249 40.6001C348.079 44.0293 344.132 45.1415 340.278 44.6399C337.285 44.2529 334.221 42.9662 332.22 40.6437C329.374 37.3289 329.881 33.0546 331.571 29.3255C331.936 28.5295 330.759 27.8371 330.399 28.6331Z" fill="#333333"/>
<path d="M332.379 31.0974C331.61 28.5841 331.229 25.2257 332.215 22.6797C332.842 21.0659 333.802 22.7287 334.5 23.6883C335.372 24.8877 335.901 26.1798 336.146 27.6464C336.293 28.5078 337.607 28.1425 337.46 27.2865C337.177 25.591 334.238 18.5417 331.681 20.5152C330.651 21.3112 330.612 23.6392 330.465 24.7896C330.176 27.0848 330.383 29.2547 331.06 31.4627C331.321 32.2914 332.641 31.937 332.379 31.0974Z" fill="#333333"/>
<path d="M351.231 28.4859C351.427 26.5287 351.04 24.566 350.544 22.6851C350.277 21.6655 349.835 19.7083 348.516 19.5447C347.098 19.3648 346.008 21.4257 345.435 22.4234C344.683 23.7482 344.051 25.2038 343.636 26.6704C343.396 27.5155 344.716 27.8753 344.95 27.0302C345.195 26.1525 345.539 25.302 345.921 24.4733C346.275 23.7046 347.147 21.4529 347.998 21.164C349.535 20.646 349.977 27.4064 349.868 28.4804C349.781 29.3582 351.144 29.3528 351.231 28.4859Z" fill="#333333"/>
<path d="M336.527 28.6222C338.937 27.2755 342.475 27.1229 344.907 28.4641C345.676 28.8893 346.363 27.7117 345.594 27.2864C342.726 25.7054 338.675 25.858 335.835 27.4445C335.072 27.8753 335.759 29.0529 336.527 28.6222Z" fill="#333333"/>
<path d="M351.067 27.9463C359.632 24.8223 369.582 23.274 378.36 26.5288C382.689 28.1371 387.132 30.9503 389.302 35.1646C390.425 37.3508 391.128 40.164 391.008 42.6119C390.856 45.6432 388.566 47.8349 386.598 49.9012C385.993 50.5336 386.952 51.504 387.563 50.8661C389.187 49.1651 390.981 47.3878 391.859 45.1634C392.753 42.9009 392.36 40.2294 391.772 37.9342C390.512 33.0111 386.99 29.4074 382.629 26.9976C372.848 21.5893 360.826 22.9414 350.708 26.6323C349.884 26.9268 350.239 28.2461 351.067 27.9463Z" fill="#333333"/>
<path d="M371.304 52.7852C368.497 53.9737 365.82 56.329 364.986 59.3711C364.43 61.4102 365.127 64.4905 367.766 64.2888C368.633 64.2234 368.644 62.8604 367.766 62.9258C365.34 63.1112 366.218 59.7255 366.67 58.7551C366.997 58.0518 367.466 57.3757 367.968 56.7924C369.069 55.5166 370.449 54.6116 371.991 53.9574C372.798 53.6194 372.106 52.4472 371.304 52.7852Z" fill="#333333"/>
<path d="M343.583 48.8541C346.014 48.9904 348.435 49.3721 350.757 50.119C351.848 50.4679 352.938 50.8877 353.914 51.4929C354.432 51.8145 354.906 52.1744 355.315 52.6269C355.544 52.8449 355.729 53.0903 355.871 53.3738C356.673 54.4206 356.378 55.5818 354.988 56.8521C354.138 56.6449 353.772 57.9589 354.628 58.166C358.63 59.1528 358.134 53.6845 356.373 51.7219C353.423 48.4289 347.737 47.7201 343.588 47.4912C342.705 47.4421 342.71 48.8051 343.583 48.8541Z" fill="#333333"/>
<path d="M350.964 57.2829C351.319 58.8258 353.145 59.5836 354.454 58.624C355.053 58.1824 355.348 57.4955 355.435 56.7758C355.511 56.1489 355.593 55.1948 355.135 54.7041C354.966 54.5242 354.704 54.4751 354.47 54.5297C354.246 54.5842 354.083 54.715 353.974 54.9113C353.865 55.113 353.832 55.402 353.974 55.5982C353.985 55.6091 353.996 55.6255 354.001 55.6364C354.508 56.3397 355.691 55.6636 355.179 54.9494C355.168 54.9385 355.157 54.9222 355.151 54.9113C355.151 55.1403 355.151 55.3692 355.151 55.5982C355.162 55.5819 355.173 55.5601 355.184 55.5437C355.048 55.6473 354.911 55.7509 354.775 55.8545C354.797 55.849 354.813 55.8436 354.835 55.8381C354.612 55.7781 354.394 55.7236 354.17 55.6637C353.946 55.4238 354.094 55.7182 354.099 55.8872C354.105 56.0671 354.11 56.247 354.099 56.4215C354.077 56.7431 354.023 57.1084 353.81 57.3647C353.281 58.008 352.431 57.6263 352.273 56.9176C352.082 56.0671 350.768 56.4269 350.964 57.2829Z" fill="#333333"/>
<path d="M352.414 39.5645C356.073 40.2896 359.502 42.1487 361.612 45.3108C362.746 47.0118 364.616 50.6537 360.908 51.0408C359.333 51.2043 357.948 50.9426 356.351 51.297C355.495 51.4878 355.855 52.8017 356.71 52.6109C358.722 52.1693 362.119 53.2215 363.738 51.6023C365.123 50.2121 364.441 47.9495 363.76 46.4066C361.803 41.9688 357.414 39.1719 352.774 38.2506C351.918 38.0816 351.553 39.3955 352.414 39.5645Z" fill="#333333"/>
<path d="M329.27 37.9066C328.065 38.5281 327.079 39.5694 326.283 40.6489C325.688 41.4503 324.756 42.7697 325.132 43.8328C325.23 44.1054 325.476 44.3453 325.792 44.3344C325.825 44.3344 325.857 44.3289 325.89 44.3289C326.206 44.3126 326.446 44.1218 326.55 43.8274C326.561 43.8001 326.566 43.7783 326.577 43.751C326.866 42.9224 325.552 42.5625 325.263 43.3912C325.252 43.4185 325.247 43.4403 325.236 43.4675C325.454 43.2985 325.672 43.135 325.895 42.966C325.863 42.966 325.83 42.9714 325.797 42.9714C326.015 43.1404 326.234 43.304 326.457 43.473C326.217 42.797 327.324 41.5103 327.706 41.0469C328.338 40.2727 329.074 39.5531 329.968 39.0897C330.742 38.6862 330.05 37.5086 329.27 37.9066Z" fill="#333333"/>
<path d="M332.438 244.322C331.789 249.218 331.222 254.097 329.876 258.857C329.636 259.702 330.95 260.062 331.19 259.217C332.569 254.337 333.142 249.327 333.801 244.317C333.916 243.455 332.553 243.466 332.438 244.322Z" fill="#333333"/>
<path d="M321.949 130.551C323.351 130.829 324.735 130.611 325.957 129.864C326.703 129.412 326.022 128.229 325.27 128.687C324.365 129.232 323.356 129.439 322.315 129.232C321.453 129.068 321.088 130.382 321.949 130.551Z" fill="#333333"/>
<path d="M385.977 247.244C386.353 251.742 386.876 256.207 387.618 260.661C387.759 261.523 389.073 261.158 388.931 260.302C388.212 255.973 387.71 251.622 387.34 247.25C387.269 246.377 385.906 246.366 385.977 247.244Z" fill="#333333"/>
<path d="M328.573 259.195C348.701 267.831 371.779 268.136 392.093 259.904C391.804 259.685 391.521 259.467 391.232 259.244C390.888 286.558 400.587 313.681 415.962 336.045C416.458 336.765 417.635 336.083 417.139 335.358C401.89 313.18 392.257 286.335 392.595 259.244C392.6 258.84 392.148 258.421 391.733 258.584C371.779 266.669 349.061 266.506 329.265 258.012C328.458 257.679 327.766 258.851 328.573 259.195Z" fill="#333333"/>
<path d="M328.278 258.661C327.177 262.559 325.999 266.435 324.756 270.29C324.096 272.345 323.529 274.63 322.423 276.5C321.005 278.882 318.759 280.152 316.469 281.543C307.828 286.776 299.181 291.994 290.534 297.217C290.153 297.451 290.093 297.964 290.398 298.285C300.942 309.473 316.84 317.105 321.638 332.72C321.779 333.178 322.232 333.303 322.641 333.129C332.585 328.816 341.832 323.173 350.233 316.331C350.914 315.775 349.944 314.816 349.268 315.366C340.954 322.132 331.778 327.682 321.948 331.946C322.281 332.082 322.613 332.218 322.951 332.355C318.061 316.435 302.114 308.72 291.363 297.315C291.319 297.669 291.27 298.029 291.227 298.384C300.659 292.681 310.483 287.349 319.62 281.194C323.001 278.915 324.347 275.927 325.579 272.171C327.008 267.815 328.343 263.431 329.592 259.021C329.832 258.181 328.518 257.816 328.278 258.661Z" fill="#333333"/>
<path d="M349.111 316.031C350.13 328.08 350.926 340.156 350.932 352.248C350.932 352.614 351.242 352.935 351.613 352.93C363.853 352.69 376.049 351.294 388.005 348.666C398.173 346.437 409.872 344.043 417.549 336.465C418.176 335.849 417.211 334.884 416.584 335.5C408.891 343.095 396.826 345.395 386.62 347.571C375.106 350.029 363.378 351.332 351.608 351.567C351.837 351.796 352.06 352.019 352.289 352.248C352.284 340.156 351.488 328.08 350.468 316.031C350.397 315.164 349.034 315.153 349.111 316.031Z" fill="#333333"/>
<path d="M325.465 269.265C335.541 274.684 346.521 276.799 357.833 277.65C369.479 278.528 382.04 278.451 392.557 272.678C393.326 272.258 392.639 271.08 391.87 271.5C381.571 277.159 369.233 277.148 357.833 276.287C346.755 275.453 336.015 273.397 326.152 268.087C325.378 267.673 324.691 268.85 325.465 269.265Z" fill="#333333"/>
<path d="M387.514 347.707C384.723 358.78 381.931 369.847 379.135 380.92C377.739 386.454 376.343 391.993 374.948 397.527C373.623 402.777 372.227 407.923 372.227 413.375C372.232 424.704 371.791 435.69 369.817 446.888C367.887 457.825 365.041 468.554 362.016 479.229C361.421 481.334 360.969 483.214 361.841 485.308C362.893 487.832 364.867 490.16 366.383 492.423C368.111 495.012 369.839 497.602 371.567 500.192C372.265 501.239 375.923 505.747 373.165 506.969C372.363 507.323 373.056 508.495 373.852 508.146C375.874 507.252 375.634 504.406 374.844 502.694C373.841 500.524 372.058 498.48 370.728 496.484C369.098 494.042 367.462 491.594 365.832 489.152C363.94 486.311 362.168 484.12 363.068 480.521C363.776 477.692 364.665 474.9 365.434 472.087C366.982 466.395 368.416 460.671 369.643 454.903C371.954 444.037 373.535 432.975 373.688 421.859C373.77 415.992 373.317 410.344 374.615 404.56C375.896 398.851 377.45 393.192 378.878 387.517C382.193 374.372 385.508 361.222 388.828 348.078C389.046 347.222 387.732 346.856 387.514 347.707Z" fill="#333333"/>
<path d="M351.487 353.742C351.874 366.511 352.261 379.279 352.648 392.048C352.845 398.503 352.877 404.751 351.1 411.02C349.426 416.93 347.338 422.633 346.171 428.685C343.898 440.499 343.756 452.602 344.089 464.591C344.449 477.408 345.07 490.226 345.583 503.043C345.653 504.804 345.337 507.051 347.136 508.021C349.235 509.15 352.736 509.1 355.074 509.417C361.213 510.245 367.379 510.409 373.322 508.441C374.151 508.168 373.796 506.849 372.962 507.127C367.488 508.937 361.807 508.899 356.143 508.195C353.973 507.923 350.969 507.907 348.925 507.105C346.008 505.96 346.847 500.383 346.733 497.624C346.259 485.761 345.643 473.892 345.392 462.023C345.141 450.334 345.43 438.525 347.894 427.054C349.11 421.379 351.198 415.998 352.686 410.41C354.115 405.05 354.229 399.642 354.077 394.13C353.706 380.67 353.264 367.209 352.855 353.748C352.828 352.865 351.465 352.859 351.487 353.742Z" fill="#333333"/>
<path d="M292.192 298.841C285.672 302.93 279.446 307.461 273.389 312.199C267.702 316.647 261.869 321.14 256.956 326.455C252.742 331.019 249.133 336.307 248.746 342.68C248.457 347.445 249.509 355.329 253.898 358.158C258.914 361.391 266.285 359.783 271.758 359.205C279.407 358.398 287.046 357.52 294.684 356.61C302.098 355.727 309.508 354.822 316.928 353.955C320.58 353.53 324.239 353.11 327.897 352.701C329.958 352.472 332.019 352.243 334.079 352.03C336.734 351.758 338.076 351.829 339.351 354.364C341.352 358.349 342.999 362.705 344.258 366.979C344.972 369.406 345.528 371.886 345.785 374.4C345.948 375.997 345.79 377.703 346.199 379.274C346.679 381.095 348.571 383.21 350.631 382.174C352.093 381.438 352.376 379.503 351.182 378.423C350.533 377.834 349.568 378.799 350.217 379.388C349.312 379.23 348.412 379.072 347.507 378.914C347.366 378.063 347.289 377.207 347.278 376.346C347.229 375.697 347.202 375.054 347.142 374.405C347.006 373.058 346.793 371.717 346.521 370.392C345.861 367.203 344.825 364.106 343.647 361.075C342.677 358.589 341.674 356.087 340.524 353.677C339.602 351.741 338.566 350.515 336.309 350.482C333.207 350.438 329.963 351.104 326.883 351.447C323.563 351.818 320.248 352.199 316.928 352.586C310.478 353.339 304.028 354.124 297.584 354.893C291.2 355.656 284.816 356.408 278.421 357.111C272.554 357.76 266.356 359.014 260.44 358.573C257.18 358.327 254.034 357.509 252.41 354.396C250.883 351.469 250.142 347.642 250.076 344.365C249.94 337.49 253.696 331.896 258.238 327.061C262.975 322.017 268.525 317.716 273.961 313.447C280.051 308.666 286.321 304.108 292.879 299.997C293.626 299.55 292.939 298.373 292.192 298.841Z" fill="#333333"/>
<path d="M282.297 332.746C293.381 329.061 305.44 329.917 316.737 332.13C321.922 333.145 326.997 334.6 332.264 335.156C335.142 335.462 338.043 335.527 340.921 335.167C343.953 334.786 346.913 334.088 349.983 334.071C350.86 334.066 350.86 332.703 349.983 332.708C347.18 332.719 344.503 333.275 341.745 333.684C338.588 334.153 335.426 334.137 332.258 333.793C326.12 333.134 320.199 331.302 314.12 330.271C303.483 328.467 292.29 327.987 281.932 331.433C281.108 331.705 281.463 333.025 282.297 332.746Z" fill="#333333"/>
<path d="M318.176 154.714C316.676 159.605 311.568 162.51 307.146 164.261C302.959 165.918 299.061 167.592 295.888 170.906C293.195 173.72 291.178 176.931 291.717 180.938C291.935 182.535 292.426 184.056 293.102 185.512C293.762 186.924 295.73 189.17 295.168 190.779C294.651 192.251 292.819 193.75 291.87 194.982C290.463 196.814 289.215 198.766 288.294 200.892C286.854 204.229 286.396 207.778 286.958 211.365C288.157 219.074 292.083 225.916 298.587 230.321C305.86 235.245 315.221 236.662 323.589 234.007C324.423 233.745 324.069 232.426 323.23 232.693C307.163 237.791 289.52 226.849 288.13 209.757C287.748 205.046 289.471 200.668 292.164 196.868C293.353 195.195 296.662 192.529 296.788 190.25C296.913 187.927 294.247 185.147 293.56 182.955C291.821 177.427 295.119 172.847 299.41 169.614C305.952 164.68 316.687 164.244 319.495 155.079C319.746 154.234 318.432 153.875 318.176 154.714Z" fill="#333333"/>
<path d="M353.472 129.636C339.417 136.521 337.324 154.175 344.989 166.643C345.447 167.39 346.625 166.703 346.167 165.956C338.872 154.087 340.748 137.383 354.159 130.813C354.944 130.432 354.257 129.254 353.472 129.636Z" fill="#333333"/>
<path d="M358.128 256.447C358.455 256.916 359 257.101 359.54 256.91C360.102 256.714 360.5 256.163 360.363 255.558C360.102 254.392 358.324 254.419 357.997 255.52C357.746 256.365 359.06 256.725 359.311 255.88C359.295 255.929 359.257 255.967 359.224 256.005C359.278 255.94 359.235 256 359.197 256.022C359.12 256.06 359.109 256.033 359.197 256.027C359.295 256.022 359.066 256.033 359.169 256.033C359.268 256.033 359.049 256.033 359.142 256.027C359.164 256.027 359.257 256.022 359.18 256.033C359.131 256.038 359.191 256.054 359.153 256.022C359.099 255.973 359.06 255.94 359.044 255.864C359.028 255.809 359.044 255.76 359.049 255.705C359.055 255.667 359.082 255.591 359.06 255.678C359.077 255.656 359.088 255.64 359.104 255.618C359.093 255.629 359.077 255.64 359.066 255.651C359.082 255.635 359.099 255.618 359.12 255.607C359.104 255.618 359.088 255.624 359.071 255.635C359.082 255.618 359.175 255.575 359.082 255.618C359.169 255.613 359.186 255.607 359.131 255.613C359.093 255.613 359.099 255.613 359.148 255.624C359.257 255.646 359.082 255.575 359.175 255.635C359.235 255.673 359.268 255.689 359.311 255.755C359.104 255.455 358.711 255.313 358.379 255.509C358.074 255.695 357.921 256.147 358.128 256.447Z" fill="#333333"/>
<path d="M352.741 508.833C355.112 508.686 356.634 506.063 355.603 503.926C355.221 503.136 354.049 503.828 354.426 504.613C354.993 505.796 354.038 507.388 352.735 507.47C351.874 507.524 351.863 508.887 352.741 508.833Z" fill="#333333"/>
<path d="M360.172 509.367C361.083 508.228 361.388 506.729 360.81 505.36C360.478 504.564 359.158 504.913 359.496 505.72C359.872 506.614 359.829 507.623 359.207 508.402C358.668 509.084 359.627 510.054 360.172 509.367Z" fill="#333333"/>
<path d="M363.695 509.574C364.987 508.664 365.592 507.116 365.194 505.573C364.976 504.722 363.662 505.082 363.88 505.933C364.115 506.849 363.787 507.841 363.002 508.391C362.294 508.898 362.975 510.081 363.695 509.574Z" fill="#333333"/>
<path d="M368.306 509.357C369.2 508.31 369.511 506.881 368.993 505.584C368.671 504.782 367.352 505.131 367.679 505.944C368.012 506.778 367.941 507.688 367.346 508.392C366.779 509.057 367.739 510.027 368.306 509.357Z" fill="#333333"/>
<path d="M349.939 316.495C356.639 300.412 354.121 282.437 359.186 265.95C359.442 265.111 358.128 264.751 357.872 265.59C352.807 282.082 355.32 300.057 348.625 316.135C348.287 316.937 349.601 317.291 349.939 316.495Z" fill="#333333"/>
<path d="M360.701 270.312C359.66 271.5 359.218 273.359 360.352 274.651C361.453 275.905 363.182 275.867 364.316 274.711C365.417 273.588 366.142 271.871 364.948 270.535C363.809 269.259 361.944 269.581 360.995 270.884C360.477 271.593 361.661 272.274 362.173 271.571C362.702 270.84 363.852 270.933 364.158 271.822C364.419 272.59 363.705 273.501 363.138 273.953C362.506 274.46 361.633 274.253 361.224 273.55C360.788 272.803 361.143 271.871 361.661 271.271C362.244 270.617 361.284 269.646 360.701 270.312Z" fill="#333333"/>
<path d="M349.268 317.389C353.036 320.736 357.043 323.762 361.295 326.472C362.037 326.946 362.724 325.763 361.982 325.294C357.828 322.65 353.913 319.695 350.233 316.429C349.579 315.846 348.614 316.805 349.268 317.389Z" fill="#333333"/>
<path d="M373.284 278.244C378.85 284.525 387.301 285.626 394.939 287.752C395.784 287.987 396.144 286.673 395.299 286.438C387.884 284.372 379.657 283.385 374.243 277.279C373.665 276.625 372.7 277.59 373.284 278.244Z" fill="#333333"/>
<path d="M318.509 281.532C321.491 283.62 326.224 282.954 329.435 281.733C332.984 280.387 335.901 277.906 337.836 274.651C338.283 273.893 337.106 273.212 336.659 273.964C334.903 276.914 332.286 279.176 329.07 280.419C326.202 281.526 321.873 282.229 319.191 280.354C318.482 279.852 317.795 281.03 318.509 281.532Z" fill="#333333"/>
<path d="M359.377 409.913C361.29 411.429 363.722 411.723 365.935 410.688C366.731 410.317 366.039 409.139 365.248 409.51C363.64 410.262 361.737 410.05 360.342 408.948C359.66 408.409 358.69 409.368 359.377 409.913Z" fill="#333333"/>
<path d="M333.736 35.9061C333.785 37.1545 334.641 38.6865 336.059 38.6429C337.536 38.5939 338.561 37.2363 338.627 35.8515C338.67 34.9738 337.307 34.9792 337.264 35.8515C337.237 36.4567 336.757 37.2908 336.043 37.2799C335.432 37.269 335.121 36.4131 335.099 35.9061C335.067 35.0283 333.704 35.0228 333.736 35.9061Z" fill="#333333"/>
<path d="M344.422 35.3115C344.449 36.5873 345.393 37.7812 346.712 37.8794C348.146 37.9884 349.067 36.7236 349.356 35.4533C349.547 34.5973 348.233 34.232 348.042 35.0934C347.911 35.6659 347.611 36.5 346.914 36.5327C346.259 36.5654 345.801 35.9112 345.791 35.317C345.763 34.4337 344.4 34.4283 344.422 35.3115Z" fill="#333333"/>
<path d="M371.752 52.6763C368.344 50.7082 368.323 46.7501 369.489 43.4844C371.169 38.7957 375.541 37.5036 380.17 38.1633C381.026 38.2833 381.396 36.9748 380.53 36.8494C375.328 36.1079 370.329 37.5036 368.306 42.7538C366.791 46.701 367.009 51.5096 371.06 53.8485C371.828 54.2901 372.515 53.1125 371.752 52.6763Z" fill="#333333"/>
<path d="M355.2 26.4908C358.466 29.5221 361.192 33.0767 361.339 37.7108C361.367 38.5831 362.73 38.5886 362.702 37.7108C362.544 32.7332 359.698 28.8078 356.165 25.5258C355.522 24.9315 354.557 25.8911 355.2 26.4908Z" fill="#333333"/>
<path d="M362.767 25.0569C366.66 27.7992 368.944 32.0844 369.081 36.8385C369.108 37.7162 370.471 37.7162 370.444 36.8385C370.291 31.5774 367.761 26.9051 363.46 23.8792C362.735 23.3777 362.053 24.5553 362.767 25.0569Z" fill="#333333"/>
<path d="M371.894 25.0674C374.44 28.3985 375.574 32.2694 375.203 36.451C375.127 37.3233 376.49 37.3179 376.566 36.451C376.953 32.0786 375.737 27.8697 373.071 24.3805C372.543 23.6935 371.359 24.3696 371.894 25.0674Z" fill="#333333"/>
<path d="M393.527 130.17C395.299 130.595 397.055 130.153 398.434 128.97C399.099 128.398 398.134 127.438 397.469 128.005C396.471 128.861 395.163 129.161 393.887 128.856C393.036 128.649 392.671 129.962 393.527 130.17Z" fill="#333333"/>
<path d="M364.082 126.294C363.907 131.822 366.873 136.51 371.191 139.765C373.164 141.254 375.427 142.208 377.477 143.565C380.59 145.631 381.735 148.87 382.275 152.408C382.405 153.275 383.719 152.904 383.589 152.048C382.831 147.076 380.781 143.772 376.359 141.346C370.52 138.141 365.216 133.566 365.445 126.294C365.472 125.421 364.109 125.421 364.082 126.294Z" fill="#333333"/>
<path d="M389.946 34.1669C394.133 31.1574 404.099 24.8714 399.17 18.7325C397.786 17.0097 395.703 16.0938 394.193 14.5127C392.186 12.4137 392.535 9.99307 394.111 7.71962C395.147 6.22579 396.515 4.9664 397.884 3.78333C398.445 3.29811 399.012 2.80743 399.596 2.34947C400.157 1.53168 400.817 1.439 401.575 2.07687C401.422 2.38218 401.237 2.66023 401.013 2.91647C399.497 5.56065 396.041 6.68375 394.765 9.54601C393.397 12.6209 395.894 13.4387 398.216 14.6545C409.878 20.7824 397.589 32.6404 391.112 37.0728C390.393 37.5634 391.074 38.7465 391.799 38.2504C397.033 34.6685 403.466 29.3965 404.328 22.6851C404.699 19.8174 403.712 17.1732 401.547 15.2596C400.452 14.2892 399.17 13.575 397.851 12.9644C397.551 12.8226 397.028 12.719 396.782 12.4955C396.341 12.0975 396.085 10.2602 396.314 9.56782C396.564 8.81545 397.736 7.99221 398.331 7.45792C399.906 6.05678 402.414 4.33942 403.003 2.18046C403.466 0.484914 402.191 -0.354681 400.593 0.141444C398.369 0.83929 395.91 3.5598 394.405 5.21173C392.797 6.97815 391.161 9.26251 391.369 11.7813C391.69 15.7394 396.003 16.9061 398.118 19.643C402.038 24.7187 392.688 30.5196 389.264 32.9838C388.55 33.4963 389.231 34.6794 389.946 34.1669Z" fill="#333333"/>
<path d="M341.712 41.4942C341.33 41.3034 341.036 41.0581 340.807 40.6928C340.671 41.0254 340.534 41.3579 340.398 41.6959C340.976 41.5596 341.772 41.3688 342.366 41.4997C342.23 41.3961 342.094 41.2925 341.957 41.1889C341.968 41.2107 341.985 41.2325 341.995 41.2543C341.974 41.0799 341.952 40.9054 341.925 40.731C341.897 40.8618 341.657 41.0799 341.576 41.1835C341.423 41.3797 341.27 41.5705 341.118 41.7668C340.889 42.0558 340.84 42.4483 341.118 42.7318C341.352 42.9717 341.854 43.0208 342.083 42.7318C342.513 42.1812 343.855 41.0035 342.96 40.3112C342.611 40.0386 342.006 40.1258 341.597 40.153C341.074 40.1858 340.551 40.2675 340.038 40.3875C339.618 40.4856 339.406 41.0254 339.629 41.3906C339.973 41.9413 340.436 42.3883 341.025 42.6773C341.805 43.0589 342.497 41.8868 341.712 41.4942Z" fill="#333333"/>
<path d="M322.014 32.5422C322.434 32.5367 322.854 32.5367 323.273 32.5313C323.491 32.5313 323.819 32.5694 324.031 32.5258C324.113 32.5258 324.2 32.5258 324.282 32.5258C324.206 32.1496 324.107 32.0515 323.988 32.2369C323.884 32.2641 323.59 32.6076 323.524 32.6676C323.361 32.8148 323.192 32.9674 323.028 33.1146C322.663 33.4417 322.297 33.7688 321.932 34.096C321.54 34.4503 321.763 35.0937 322.232 35.2354C323.35 35.5734 324.462 35.6225 325.612 35.4426C326.474 35.3063 326.108 33.9924 325.252 34.1287C324.353 34.2704 323.47 34.1832 322.597 33.9215C322.695 34.3031 322.799 34.6793 322.897 35.061C323.491 34.5267 324.097 33.9978 324.685 33.4581C325.1 33.0764 325.514 32.613 325.416 32.0024C325.334 31.4736 324.876 31.201 324.375 31.1683C323.595 31.1192 322.794 31.1792 322.014 31.1846C321.142 31.1846 321.136 32.5476 322.014 32.5422Z" fill="#333333"/>
<path d="M325.716 14.4199C326.25 14.4199 326.779 14.4145 327.313 14.4145C327.515 14.4145 327.842 14.4799 328.039 14.4145C328.24 14.3436 328.338 14.2891 328.049 14.4363C327.602 14.6598 327.172 15.0851 326.763 15.3795C326.261 15.7448 325.754 16.1155 325.253 16.4808C324.718 16.8678 324.882 17.7238 325.596 17.7511C326.932 17.8001 328.268 17.8492 329.603 17.8928C330.481 17.9255 330.481 16.5625 329.603 16.5298C328.268 16.4808 326.932 16.4317 325.596 16.3881C325.711 16.8133 325.825 17.2331 325.94 17.6584C326.779 17.0478 327.619 16.4426 328.458 15.8265C328.982 15.4449 329.636 14.9706 329.614 14.24C329.565 12.5445 326.757 13.0624 325.716 13.0624C324.838 13.0624 324.838 14.4254 325.716 14.4199Z" fill="#333333"/>
<path d="M519.035 227.067C518.893 224.188 534.339 218.867 541.301 216.616C541.742 211.96 541.459 207.505 540.483 203.471C534.508 206.573 520.474 213.584 519.689 211.42C518.915 209.294 531.078 199.017 536.639 194.464C534.813 191.728 532.48 189.432 529.639 187.737C526.324 185.763 522.617 184.782 518.73 184.684C515.317 192.202 508.927 205.09 505.4 204.578C502.031 204.093 501.965 194.922 502.276 189.056C497.958 191.4 493.765 194.633 489.955 198.641C491.634 205.003 494.916 218.715 492.342 219.876C489.873 220.988 485.577 211.769 483.472 206.797C482.927 207.62 482.393 208.454 481.875 209.315C474.106 222.351 471.996 236.613 475.196 247.424C479.65 245.309 487.839 242.092 490.652 245.396C493.166 248.346 486.062 253.814 480.572 257.396C482.027 259.032 483.707 260.449 485.62 261.589C499.844 270.066 521.227 260.405 533.379 240.01C535.609 236.264 537.37 232.421 538.678 228.583C531.918 229.133 519.171 229.793 519.035 227.067ZM526.957 245.527C526.673 247.135 522.399 247.724 517.416 246.841C512.433 245.958 508.622 243.935 508.911 242.327C509.194 240.719 513.469 240.13 518.452 241.013C523.429 241.896 527.24 243.919 526.957 245.527Z" fill="#333333"/>
<path d="M409.092 271.62C407.881 275.491 407.031 279.634 406.622 283.974C404.392 307.613 415.95 328.031 432.437 329.585C434.656 329.792 436.847 329.639 438.99 329.176C436.673 323.048 434.171 314.439 437.938 313.54C442.163 312.531 446.868 319.962 449.218 324.296C458.181 317.46 464.898 304.702 466.321 289.595C466.413 288.597 466.473 287.605 466.522 286.618C461.888 289.388 452.98 294.3 451.644 291.939C450.254 289.486 460.994 280.354 466.108 276.21C465.394 270.726 463.922 265.639 461.817 261.196C458.601 266.113 453.138 273.479 450.134 271.882C446.983 270.208 449.431 256.033 451.115 247.953C447.92 245.74 444.349 244.338 440.511 243.979C437.218 243.668 433.985 244.148 430.889 245.276C432.688 252.238 436.439 267.711 434.563 268.97C432.649 270.251 425.464 256.305 422.471 250.276C419.303 252.952 416.446 256.382 414.053 260.4C418.349 266.331 427.672 279.743 425.856 281.984C424.134 284.11 414.233 276.052 409.092 271.62ZM418.093 293.597C422.64 295.826 425.736 298.819 425.017 300.286C424.297 301.753 420.028 301.137 415.487 298.912C410.94 296.682 407.843 293.689 408.563 292.223C409.283 290.751 413.551 291.367 418.093 293.597Z" fill="#333333"/>
<path d="M438.434 508.309H401.437C392.37 508.309 385.021 500.96 385.021 491.893V457.775H454.855V491.893C454.849 500.96 447.5 508.309 438.434 508.309Z" fill="#F8BAB4"/>
<path d="M399.502 416.014C400.195 420.85 399.878 426.258 396.438 430.063C393.903 432.866 390.708 434.191 389.084 437.822C385.284 446.321 385.267 456.462 384.962 465.588C384.668 474.366 383.708 483.421 384.488 492.183C385.033 498.283 387.366 502.252 392.18 505.96C392.873 506.494 393.554 505.311 392.867 504.782C390.31 502.814 388.004 500.639 386.892 497.531C385.616 493.96 385.638 489.958 385.66 486.213C385.714 477.659 386.123 469.066 386.505 460.529C386.723 455.709 387.077 450.884 388.042 446.152C389.089 441.005 390.452 436.611 394.743 433.307C400.5 428.869 401.819 422.649 400.816 415.654C400.691 414.787 399.377 415.158 399.502 416.014Z" fill="#333333"/>
<path d="M400.348 416.504C406.797 416.444 413.247 416.395 419.697 416.341C422.859 416.314 426.015 416.286 429.178 416.264C430.742 416.254 432.307 416.237 433.866 416.226C434.809 416.221 437.732 416.701 438.293 415.981C437.764 416.668 438.718 417.638 439.258 416.946C440 415.986 439.596 415.18 438.457 414.858C436.854 414.405 434.482 414.863 432.83 414.874C430.562 414.896 428.294 414.912 426.026 414.934C417.467 415.005 408.907 415.076 400.353 415.152C399.475 415.147 399.47 416.51 400.348 416.504Z" fill="#333333"/>
<path d="M438.713 416.51C437.284 420.975 437.224 425.805 440.245 429.632C442.038 431.9 444.426 433.585 446.373 435.711C448.57 438.11 450.025 441.016 451.034 444.086C453.111 450.41 453.515 457.121 453.787 463.723C454.076 470.653 454.311 477.582 454.529 484.517C454.556 485.389 455.919 485.395 455.892 484.517C455.684 477.926 455.456 471.329 455.188 464.737C454.943 458.604 454.638 452.416 453.128 446.441C451.884 441.529 449.807 437.063 446.116 433.52C444.105 431.59 441.738 429.84 440.332 427.375C438.495 424.153 438.936 420.255 440.021 416.87C440.294 416.035 438.98 415.676 438.713 416.51Z" fill="#333333"/>
<path d="M497.528 242.899C494.311 249.605 491.525 256.546 488.658 263.409C483.069 276.778 477.656 290.222 472.373 303.716C458.961 337.992 446.16 372.622 435.741 407.94C430.971 424.105 426.484 440.553 424.298 457.302C424.183 458.169 425.546 458.163 425.661 457.302C427.585 442.554 431.396 428.036 435.469 413.757C440.479 396.207 446.214 378.865 452.255 361.642C463.29 330.168 475.349 299.038 488.112 268.224C491.525 259.98 494.835 251.633 498.695 243.592C499.087 242.801 497.909 242.109 497.528 242.899Z" fill="#333333"/>
<path d="M433.85 293.117C427.165 335.762 423.093 378.865 420.743 421.952C420.1 433.793 419.609 445.646 419.315 457.498C419.293 458.376 420.656 458.376 420.678 457.498C421.746 414.564 425.045 371.63 430.24 329.002C431.685 317.133 433.31 305.291 435.158 293.477C435.294 292.621 433.986 292.25 433.85 293.117Z" fill="#333333"/>
<path d="M520.928 216.441C515.525 218.284 510.634 221.119 506.393 224.865C510.024 217.27 513.851 209.768 517.836 202.359C518.251 201.585 517.073 200.898 516.659 201.672C509.713 214.604 503.236 227.803 497.452 241.297C496.367 235.087 492.992 229.608 487.856 225.775C487.153 225.252 486.471 226.435 487.169 226.953C492.561 230.982 495.887 237.082 496.394 243.783C493.733 250.091 491.231 256.469 488.903 262.908C488.603 263.737 489.923 264.091 490.217 263.268C492.501 256.949 494.96 250.696 497.561 244.508C497.702 244.399 497.79 244.23 497.779 243.99C500.036 238.642 502.407 233.337 504.877 228.076C504.975 228.049 505.079 227.994 505.166 227.901C509.718 223.278 515.154 219.849 521.293 217.755C522.116 217.472 521.762 216.158 520.928 216.441Z" fill="#FFECDD"/>
<path d="M452.386 278.571C446.667 282.928 441.013 287.464 436.81 293.308C439.16 281.635 441.22 269.745 440.91 257.811C440.888 256.933 439.525 256.933 439.547 257.811C439.89 270.884 437.377 283.882 434.744 296.628C433.413 303.078 431.832 309.56 430.638 316.092C429.025 310.858 424.314 306.469 418.917 305.477C418.061 305.319 417.69 306.632 418.557 306.791C425.056 307.99 430.393 314.391 429.821 321.026C429.439 323.648 429.139 326.281 428.975 328.92C428.921 329.798 430.284 329.792 430.338 328.92C430.491 326.445 430.769 323.975 431.118 321.511C431.134 321.462 431.151 321.402 431.156 321.342C431.167 321.249 431.173 321.151 431.183 321.058C432.377 312.88 434.427 304.768 436.117 296.71C436.199 296.655 436.276 296.585 436.341 296.481C440.512 289.601 446.765 284.552 453.084 279.738C453.76 279.22 453.084 278.037 452.386 278.571Z" fill="#FFECDD"/>
<path d="M40.6573 483.544L6.28372 495.957C3.6868 496.893 1.95728 499.358 1.95728 502.124V506.123H108.029V501.288C108.029 498.411 106.152 495.867 103.396 495.021L67.1713 483.898V400.4H60.7345V328.733H46.3853V400.405H40.652V483.544H40.6573Z" fill="#F8BAB4"/>
<path d="M71.3711 287.124C63.1149 290.181 60.354 300.59 60.3275 308.55C60.3011 316.383 64.0616 326.723 71.6302 330.235C79.4422 333.863 89.0524 330.098 93.2942 322.915C98.0015 314.945 97.2504 304.668 93.3629 296.555C89.5866 288.669 79.9658 281.052 71.3605 287.23C70.6729 287.722 71.334 288.87 72.0269 288.372C79.2094 283.216 87.5291 288.79 91.2473 295.343C95.1771 302.272 96.5946 311.152 93.8072 318.758C90.8824 326.723 82.6315 332.129 74.0791 329.738C66.8331 327.712 62.7235 318.837 61.8614 311.93C60.8617 303.933 63.1413 291.572 71.7202 288.394C72.5135 288.108 72.175 286.828 71.3711 287.124Z" fill="black"/>
<path d="M53.1025 260.388C34.21 266.666 27.5353 290.572 27.3396 308.396C27.2285 318.816 29.8572 329.05 34.9294 338.153C37.1243 342.093 39.7054 345.896 42.4927 349.434C45.3223 353.025 48.4958 355.358 52.6106 357.384C70.4453 366.148 93.5056 358.711 104.052 342.305C115.587 324.359 114.043 300.643 104.919 282.068C100.043 272.14 92.6699 262.805 82.2346 258.42C72.9418 254.517 61.6761 254.48 53.2982 260.546C52.6159 261.038 53.2771 262.186 53.9646 261.689C61.4751 256.252 71.318 255.918 79.8757 258.923C89.0363 262.138 96.0602 269.379 100.968 277.561C111.123 294.486 114.656 316.827 106.369 335.249C102.481 343.886 96.3088 350.852 87.8516 355.226C79.1617 359.721 68.7211 360.811 59.222 358.5C54.9114 357.447 49.9185 355.125 46.6076 352.095C43.6827 349.413 41.4296 345.922 39.2452 342.638C33.7499 334.382 30.0158 325.2 28.9739 315.293C27.8526 304.636 29.6456 293.455 33.3902 283.443C36.9551 273.917 43.4659 264.973 53.4516 261.657C54.2555 261.398 53.9117 260.118 53.1025 260.388Z" fill="black"/>
<path d="M40.8525 262.768C21.96 269.046 15.2853 292.952 15.0896 310.776C14.9785 321.196 17.6072 331.43 22.6794 340.533C24.8743 344.473 27.4554 348.276 30.2427 351.814C33.0723 355.405 36.2458 357.738 40.3606 359.764C58.1953 368.528 81.2556 361.091 91.802 344.685C103.337 326.739 101.793 303.023 92.6694 284.448C87.7929 274.52 80.4199 265.185 69.9846 260.8C60.6918 256.897 49.4261 256.86 41.0482 262.926C40.3659 263.418 41.0271 264.566 41.7146 264.069C49.2251 258.632 59.068 258.299 67.6257 261.303C76.7863 264.518 83.8102 271.759 88.7184 279.941C98.8734 296.866 102.407 319.207 94.1186 337.629C90.2311 346.266 84.0588 353.232 75.6016 357.606C66.9117 362.101 56.4711 363.191 46.972 360.88C42.6614 359.827 37.6685 357.505 34.3576 354.475C31.4327 351.793 29.1796 348.302 26.9952 345.018C21.4999 336.762 17.7658 327.58 16.7239 317.673C15.6026 307.016 17.3956 295.835 21.1402 285.823C24.7051 276.297 31.2159 267.353 41.2016 264.037C42.0108 263.778 41.6617 262.498 40.8525 262.768Z" fill="black"/>
<path d="M36.6901 246.192C10.7103 253.972 0.010583 285.035 4.88543e-06 309.692C-0.00528417 323.84 4.28413 337.513 11.9268 349.387C15.1584 354.411 18.8237 359.325 22.8381 363.746C26.8419 368.152 31.7449 370.908 37.1979 373.235C49.7541 378.587 65.0924 378.651 78.0981 374.859C90.9664 371.109 102.444 363.291 109.975 352.153C117.57 340.913 120.696 328.22 120.871 314.775C121.066 299.855 117.01 285.86 109.727 272.896C103.274 261.408 94.0816 250.994 82.0385 245.235C70.7675 239.845 56.9419 238.152 45.0098 242.368C42.1908 243.362 39.5304 244.706 37.0445 246.366C36.3411 246.837 37.0022 247.985 37.7109 247.509C48.3578 240.39 62.1675 239.967 74.1525 243.595C86.6558 247.377 96.8848 256.024 104.263 266.639C119.448 288.488 125.324 318.768 113.434 343.442C107.77 355.199 98.8259 364.291 87.0631 369.987C74.7237 375.969 60.7342 377.249 47.3106 374.933C40.7839 373.806 34.273 370.987 28.7513 367.343C24.1762 364.323 20.6855 359.341 17.4644 354.998C9.72127 344.558 3.94563 332.969 2.04687 320.006C-0.148091 305.054 2.55991 289.001 8.48893 275.16C13.9208 262.498 23.5151 251.491 37.0287 247.445C37.859 247.223 37.51 245.949 36.6901 246.192Z" fill="black"/>
<path d="M74.6705 330.933C72.2798 339.089 69.8892 347.244 67.4985 355.4C66.4143 359.097 65.4622 362.879 64.1294 366.496C63.4048 368.464 62.5215 370.347 61.2627 372.034C60.6333 372.875 59.9933 373.61 59.1312 374.218C58.5177 374.652 54.9159 376.62 54.7942 374.382C54.7466 373.536 53.4244 373.531 53.472 374.382C53.6571 377.789 57.8883 376.763 59.8876 375.34C63.262 372.939 64.9069 368.559 66.1128 364.767C69.6406 353.692 72.6765 342.437 75.9504 331.287C76.1831 330.462 74.9085 330.113 74.6705 330.933Z" fill="black"/>
<path d="M71.523 330.484C68.4184 338.735 64.9064 346.822 60.9502 354.697C59.0356 358.516 57.0205 362.281 54.9101 365.994C53.9369 367.708 52.9426 369.411 51.9271 371.098C51.4246 371.939 50.9275 372.912 50.2505 373.632C49.0551 375.171 47.8968 374.705 46.7756 372.23C46.9237 371.659 47.0294 371.082 47.0929 370.501C47.2146 369.67 45.9452 369.311 45.8182 370.152C45.5802 371.754 44.7446 373.796 46.0245 375.176C46.8443 376.059 48.1613 376.239 49.272 375.869C51.1337 375.256 52.1228 373.336 53.0642 371.77C54.6774 369.099 56.2271 366.386 57.7292 363.651C63.5366 353.089 68.5453 342.109 72.7924 330.833C73.0992 330.039 71.8192 329.696 71.523 330.484Z" fill="black"/>
<path d="M69.4242 329.669C64.2939 338.269 59.2851 346.954 53.9855 355.442C51.4785 359.457 48.834 363.397 45.8033 367.036C45.0153 367.983 44.2008 368.908 43.3598 369.813C42.8521 370.358 42.0746 371.564 41.4187 371.796C36.5158 373.547 40.4984 367.232 40.8581 365.878C41.0749 365.053 39.8003 364.704 39.5834 365.529C39.1074 367.316 35.0824 373.584 39.7474 374.002C41.6197 374.171 43.1853 371.939 44.296 370.749C46.2265 368.681 48.0089 366.475 49.6908 364.201C57.5397 353.575 63.8073 341.665 70.5667 330.341C71.0004 329.6 69.8579 328.934 69.4242 329.669Z" fill="black"/>
<path d="M77.7546 331.346C76.8396 339.163 75.9246 346.975 75.0096 354.792C74.56 358.632 74.1792 362.487 73.6344 366.317C73.3805 368.11 73.0738 369.908 72.5237 371.643C72.1376 372.859 71.651 375.721 69.5565 373.489C68.9589 372.854 69.1757 371.23 69.2127 370.447C69.2551 369.596 67.9328 369.601 67.8905 370.447C67.8006 372.203 68.631 377.768 71.6404 376.059C72.7934 375.403 73.2642 373.594 73.6503 372.426C74.4066 370.178 74.7715 367.829 75.0677 365.486C76.5169 354.12 77.7387 342.722 79.0662 331.346C79.172 330.505 77.8498 330.51 77.7546 331.346Z" fill="black"/>
<path d="M80.7006 331.329C81.3459 338.544 81.5892 345.79 81.3724 353.03C81.2719 356.479 81.0656 359.922 80.7588 363.354C80.5896 365.243 80.4045 367.131 80.1665 369.014C80.0554 369.897 80.0395 373.293 77.7176 370.595C77.3686 370.193 77.3051 369.003 77.1411 368.511C76.8767 367.707 75.602 368.051 75.8665 368.86C76.3954 370.468 77.2628 374.551 79.9866 373.15C80.9651 372.647 81.1238 371.51 81.2983 370.553C81.7532 368.025 81.9118 365.396 82.1287 362.841C83.0278 352.353 82.9644 341.812 82.0229 331.329C81.9489 330.488 80.6266 330.483 80.7006 331.329Z" fill="black"/>
<path d="M84.3069 330.045C85.6662 336.778 86.6923 343.563 87.3375 350.402C87.639 353.597 87.8611 356.797 87.9986 360.002C88.0727 361.678 88.1943 363.387 88.152 365.063C88.1362 365.608 88.2367 366.449 87.9934 366.936C85.8143 368.126 84.5555 367.941 84.2117 366.38C84.0107 365.91 83.8573 365.423 83.7515 364.921C83.5347 364.101 82.26 364.45 82.4769 365.27C83.0428 367.417 84.6189 370.86 87.5068 369.633C90.5321 368.348 89.4373 362.895 89.3421 360.504C88.9189 350.148 87.6337 339.845 85.5815 329.685C85.4123 328.86 84.1376 329.214 84.3069 330.045Z" fill="black"/>
<path d="M87.0254 328.727C89.3315 335.545 91.6375 342.373 93.4834 349.333C94.3825 352.718 95.2288 356.146 95.8053 359.605C95.9428 360.435 96.313 361.482 96.0168 362.302C95.3398 364.159 93.4199 363.259 92.5631 362.059C91.336 360.335 90.4527 358.282 89.7229 356.315C89.4267 355.527 88.152 355.865 88.4482 356.664C89.4161 359.266 91.2249 364.883 94.6417 365.132C97.6247 365.349 97.503 361.715 97.1751 359.748C95.3927 349.027 91.775 338.644 88.3054 328.378C88.0251 327.574 86.7504 327.918 87.0254 328.727Z" fill="black"/>
<path d="M3.67067 499.939C22.5843 499.812 41.5033 499.601 60.4169 499.675C61.2684 499.68 61.2684 498.358 60.4169 498.353C41.5033 498.279 22.5843 498.49 3.67067 498.617C2.81913 498.628 2.81384 499.95 3.67067 499.939Z" fill="black"/>
<path d="M40.9108 401.092C49.5055 401.605 58.095 400.352 66.6844 401.082C67.5306 401.156 67.5253 399.833 66.6844 399.759C58.095 399.024 49.5055 400.283 40.9108 399.77C40.0593 399.717 40.0646 401.039 40.9108 401.092Z" fill="black"/>
<path d="M66.065 400.706C66.8372 407.688 66.5991 414.727 66.5515 421.741C66.5039 428.484 66.4828 435.222 66.4616 441.966C66.4246 455.807 66.4034 469.654 66.2871 483.496C66.2818 484.347 67.6041 484.347 67.6094 483.496C67.7257 469.654 67.7469 455.807 67.7839 441.966C67.7998 435.392 67.8262 428.812 67.8685 422.238C67.9161 415.06 68.1753 407.857 67.3872 400.711C67.292 399.87 65.9698 399.86 66.065 400.706Z" fill="black"/>
<path d="M40.9582 484.501C49.5688 484.014 58.1899 484.041 66.8111 484.12C67.6626 484.13 67.6626 482.808 66.8111 482.798C58.1899 482.718 49.5688 482.687 40.9582 483.178C40.112 483.226 40.1067 484.548 40.9582 484.501Z" fill="black"/>
<path d="M66.9174 484.072C74.9461 486.457 82.9062 489.06 90.7869 491.9C94.7113 493.312 98.6094 494.782 102.492 496.311C105.268 497.401 107.125 498.268 107.305 501.515C107.384 502.991 107.32 504.419 107.58 505.879C107.728 506.715 109.002 506.36 108.854 505.53C108.336 502.579 109.367 498.982 106.691 496.829C105.48 495.856 103.782 495.401 102.359 494.841C99.9263 493.889 97.4881 492.958 95.0393 492.048C85.8892 488.652 76.6281 485.574 67.2717 482.792C66.4519 482.554 66.1028 483.834 66.9174 484.072Z" fill="black"/>
<path d="M89.4589 327.083C92.881 332.509 95.7635 338.227 98.4027 344.066C99.688 346.911 100.931 349.778 102.153 352.655C102.645 353.819 104.882 357.437 102.306 358.135C100.598 358.6 98.8047 356.786 98.1965 355.432C97.8474 354.66 96.7102 355.332 97.054 356.098C98.1224 358.468 101.153 360.319 103.766 359.171C106.135 358.129 104.723 355.443 103.993 353.639C100.206 344.288 95.9856 334.953 90.5961 326.411C90.1518 325.697 89.0041 326.358 89.4589 327.083Z" fill="black"/>
<path d="M92.3522 324.507C96.3084 328.669 100.037 333.033 103.48 337.629C105.025 339.692 106.511 341.797 107.939 343.934C108.272 344.436 108.769 344.991 109.002 345.547C109.743 346.203 109.721 346.911 108.928 347.678C108.917 348.81 108.5 349.223 107.68 348.921C105.903 349.037 104.274 347.35 103.523 345.943C103.121 345.192 101.984 345.859 102.38 346.61C103.665 349.022 106.41 350.83 109.245 350.227C112.064 349.63 111.647 347.276 110.404 345.288C105.532 337.476 99.6193 330.235 93.283 323.571C92.7012 322.952 91.7704 323.888 92.3522 324.507Z" fill="black"/>
<path d="M94.3411 319.879C97.7419 323.571 101.397 326.977 105.3 330.135C107.024 331.526 108.785 332.89 110.33 334.482C111.234 335.413 112.086 336.418 112.752 337.539C113.133 338.158 113.445 338.809 113.699 339.486C112.445 341.437 111.203 341.882 109.97 340.808C109.246 340.358 108.579 341.501 109.304 341.95C110.954 342.971 113.657 343.86 114.873 341.659C116.047 339.538 113.847 336.608 112.62 335.08C110.33 332.224 107.283 330.113 104.496 327.781C101.227 325.041 98.1651 322.085 95.2772 318.948C94.6954 318.314 93.7646 319.255 94.3411 319.879Z" fill="black"/>
<path d="M95.8479 316.029C100.301 317.6 104.316 320.006 108.081 322.83C109.954 324.232 111.752 325.729 113.529 327.252C114.285 327.903 115.735 328.744 116.237 329.595C117.364 330.357 116.999 331.33 115.148 332.52C114.323 332.462 113.519 332.298 112.741 332.028C111.921 331.785 111.572 333.065 112.392 333.303C114.344 333.879 117.284 334.371 118.289 331.986C119.347 329.474 116.036 327.649 114.471 326.316C108.944 321.593 103.131 317.192 96.2022 314.754C95.3983 314.474 95.0492 315.748 95.8479 316.029Z" fill="black"/>
<path d="M95.9074 312.596C100.345 313.622 104.788 314.648 109.13 316.04C111.547 316.812 113.927 317.69 116.233 318.753C117.154 319.176 119.296 319.615 117.487 321.17C116.635 321.905 113.393 320.519 112.568 320.139C111.801 319.784 111.129 320.927 111.901 321.281C113.917 322.207 117.392 323.344 119.507 322.074C121.358 320.964 119.936 319.239 118.661 318.457C115.667 316.616 111.886 315.5 108.559 314.474C104.513 313.231 100.387 312.274 96.2671 311.322C95.4314 311.131 95.077 312.406 95.9074 312.596Z" fill="black"/>
<path d="M96.1028 309.137C100.609 308.978 105.11 309.116 109.59 309.644C111.669 309.888 113.8 310.152 115.81 310.771C116.175 310.882 118.93 311.76 118.862 312.077C118.634 313.125 114.905 312.352 114.324 312.231C113.493 312.056 113.139 313.331 113.975 313.505C115.63 313.86 119.777 314.584 120.766 312.675C120.866 312.485 120.908 312.194 120.766 312.009C118.724 309.338 113.848 308.883 110.801 308.481C105.925 307.841 101.016 307.645 96.1081 307.825C95.2513 307.841 95.2513 309.163 96.1028 309.137Z" fill="black"/>
<path d="M96.0383 305.969C100.703 305.07 105.4 304.356 110.128 303.885C111.911 303.705 113.762 303.414 115.55 303.536C116.285 303.583 119.384 303.991 117.353 304.911C116.607 305.249 114.978 304.99 114.148 305.017C113.302 305.043 113.297 306.365 114.148 306.339C115.544 306.291 118.908 306.857 119.633 305.117C120.336 303.43 118.099 302.626 116.872 302.372C113.767 301.738 110.155 302.526 107.055 302.901C103.242 303.361 99.4551 303.97 95.684 304.694C94.8483 304.853 95.2027 306.127 96.0383 305.969Z" fill="black"/>
<path d="M67.6468 327.717C60.8081 335.518 53.9482 343.309 47.1676 351.163C43.8461 355.014 40.6621 359.028 37.2136 362.762C36.4732 363.566 35.701 364.344 34.8653 365.053C34.3258 365.507 32.1573 367.512 31.2952 367.501C27.0216 367.443 31.4539 360.721 32.4958 359.742C33.1199 359.161 32.1837 358.224 31.5596 358.806C29.6556 360.589 26.022 366.777 29.4916 368.834C31.0625 369.765 33.0723 368.041 34.2465 367.195C36.7376 365.412 38.7051 363.101 40.6727 360.779C49.8439 349.952 59.2267 339.316 68.583 328.648C69.1436 328.013 68.2127 327.072 67.6468 327.717Z" fill="black"/>
<path d="M66.1557 324.941C58.1692 330.896 50.7699 337.555 43.3705 344.214C39.5729 347.631 35.7701 351.047 31.8668 354.348C29.8728 356.035 27.7995 358.145 25.4829 359.372C23.8116 360.61 22.648 359.885 21.9921 357.204C22.3412 356.58 22.7485 355.987 23.2086 355.437C24.0073 354.485 24.9593 353.713 25.9907 353.036C26.6994 352.571 26.0383 351.423 25.3242 351.894C23.3091 353.221 17.2584 358.949 21.5531 361.091C23.4466 362.033 25.6839 360.896 27.2177 359.811C29.8146 357.981 32.2159 355.797 34.6171 353.724C45.3433 344.5 55.456 334.546 66.8168 326.078C67.4938 325.581 66.838 324.428 66.1557 324.941Z" fill="black"/>
<path d="M95.415 302.938C99.4188 301.235 103.55 299.902 107.717 298.654C109.5 298.12 111.287 297.522 113.112 297.141C113.784 296.982 114.461 296.877 115.154 296.824C115.942 296.496 116.227 296.655 116.011 297.284C116.264 298.442 113.705 298.701 112.911 298.844C112.076 298.992 112.43 300.267 113.26 300.119C114.62 299.876 118.126 299.019 118.206 297.115C118.28 295.332 115.804 295.438 114.709 295.549C111.42 295.888 108.172 297.12 105.031 298.093C101.545 299.172 98.1124 300.367 94.7539 301.795C93.9658 302.129 94.6375 303.266 95.415 302.938Z" fill="black"/>
<path d="M94.0924 299.754C97.8212 297.347 101.619 295.063 105.506 292.936C107.373 291.916 109.251 290.868 111.176 289.959C111.827 289.615 112.504 289.324 113.207 289.086C113.614 289.35 114.016 289.609 114.424 289.874C114.45 290.419 111.181 291.461 110.801 291.588C109.997 291.857 110.34 293.137 111.15 292.862C112.657 292.355 116.333 291.291 116.629 289.409C116.894 287.737 114.783 287.441 113.614 287.637C110.425 288.16 107.172 290.503 104.401 292.032C100.661 294.095 97.0067 296.3 93.4154 298.617C92.712 299.072 93.3731 300.219 94.0924 299.754Z" fill="black"/>
<path d="M92.0189 295.38C96.1867 291.762 100.328 288.113 104.522 284.527C105.559 283.638 109.298 279.877 110.737 280.581C111.461 280.935 110.647 281.21 110.16 281.628C109.616 282.094 109.06 282.538 108.489 282.972C107.325 283.86 106.114 284.664 104.871 285.431C104.147 285.875 104.813 287.018 105.538 286.573C107.109 285.605 108.627 284.569 110.07 283.416C110.816 282.818 112.313 281.935 112.63 281.009C113.265 279.158 111.435 278.592 109.965 279.142C106.781 280.332 103.972 283.257 101.46 285.436C98.0008 288.44 94.5418 291.445 91.0828 294.449C90.4375 295.004 91.379 295.935 92.0189 295.38Z" fill="black"/>
<path d="M90.062 291.942C92.7329 287.975 95.6102 284.162 98.7413 280.544C100.169 278.894 101.645 277.281 103.163 275.71C103.623 275.234 104.691 273.668 105.331 273.547C107.151 273.917 107.637 274.567 106.786 275.504C106.273 276.255 105.628 276.868 104.845 277.334C104.141 277.81 104.803 278.952 105.511 278.476C107.077 277.423 110.134 274.361 108.78 272.193C107.823 270.653 105.792 271.5 104.676 272.383C101.529 274.869 98.8365 278.317 96.2872 281.39C93.6585 284.553 91.215 287.859 88.9142 291.27C88.4435 291.979 89.5859 292.645 90.062 291.942Z" fill="black"/>
<path d="M86.4645 288.457C88.6383 282.216 91.1189 276.091 93.9591 270.12C94.5885 268.792 95.2232 267.465 95.9055 266.163C96.2228 265.561 96.5349 264.942 96.9263 264.376C97.2277 264 97.5292 263.625 97.8307 263.244C98.6717 263.709 99.5126 264.175 100.348 264.64C100.697 265.455 98.6981 268.528 98.2803 269.369C97.6033 270.739 96.921 272.108 96.244 273.484C95.8685 274.245 97.0056 274.917 97.3864 274.15C98.4654 271.971 99.6078 269.813 100.623 267.602C101.279 266.169 102.025 264.545 101.835 262.927C101.48 259.928 98.5236 260.716 96.8998 262.308C93.9644 265.19 92.3777 270.289 90.7434 273.986C88.7018 278.609 86.8612 283.321 85.2004 288.097C84.9095 288.912 86.1895 289.261 86.4645 288.457Z" fill="black"/>
<path d="M82.9014 286.225C83.6419 279.301 84.393 272.346 86.1542 265.592C86.9529 262.535 87.8203 258.933 89.5286 256.241C89.8565 255.162 90.5335 254.76 91.5543 255.03C92.8343 254.623 93.2997 255.188 92.9506 256.728C92.9559 257.653 92.7021 258.658 92.5381 259.568C92.2366 261.213 91.8399 262.826 91.3798 264.428C91.1471 265.248 92.4217 265.597 92.6545 264.778C93.4002 262.17 95.738 256.167 93.4267 253.792C91.0307 251.327 88.5184 255.109 87.6404 257.05C83.5308 266.1 82.6264 276.456 81.5845 286.219C81.4893 287.071 82.8168 287.06 82.9014 286.225Z" fill="black"/>
<path d="M77.7278 285.109C76.506 276.911 75.2948 268.665 75.4059 260.351C75.4588 256.516 75.4217 251.957 76.7652 248.329C76.9291 247.974 77.0984 247.625 77.2623 247.271C79.8169 246.869 81.0334 247.657 80.9118 249.619C80.9911 250.391 80.9858 251.179 81.0228 251.957C81.1233 254.199 81.2185 256.437 81.319 258.679C81.356 259.526 82.6783 259.531 82.6413 258.679C82.5091 255.67 82.5091 252.618 82.234 249.619C82.0912 248.08 81.7527 246.499 80.4146 245.557C77.1142 243.241 75.4006 247.81 74.9722 250.264C72.9412 261.948 74.7236 273.859 76.4531 285.458C76.58 286.299 77.8494 285.939 77.7278 285.109Z" fill="black"/>
<path d="M73.2594 287.061C71.3765 281.756 69.4883 276.44 68.0074 271.003C66.5952 265.82 65.8918 260.594 65.0878 255.3C64.7282 252.941 64.4003 250.571 64.7969 248.191C65.2518 245.462 67.8011 239.681 70.5091 244.378C73.233 249.101 71.2073 255.242 72.08 260.372C72.2228 261.208 73.4974 260.853 73.3546 260.023C72.4079 254.485 75.0788 246.552 70.4403 242.067C66.5741 238.327 63.8819 245.393 63.4588 248.239C63.1097 250.603 63.39 252.941 63.7444 255.284C64.2733 258.722 64.6224 262.17 65.3258 265.582C66.865 273.045 69.4301 280.248 71.9742 287.415C72.2651 288.208 73.545 287.87 73.2594 287.061Z" fill="black"/>
<path d="M63.86 322.338C54.9691 327.94 47.2683 335.101 38.9486 341.469C34.9448 344.531 30.7823 347.409 26.3131 349.741C25.0754 350.386 23.8113 350.995 22.5261 351.55C21.389 352.042 19.5431 353.073 18.279 353.094C17.8347 353.322 17.4433 353.205 17.0995 352.745C16.2163 352.56 16.0893 352.179 16.7187 351.597C16.9091 350.799 17.8294 350.106 18.3954 349.545C19.6965 348.255 21.1192 347.118 22.6266 346.081C23.3248 345.6 22.6636 344.457 21.9602 344.939C20.5903 345.885 11.1282 353.073 16.4807 354.58C18.6069 355.178 21.6799 353.364 23.5786 352.523C26.6463 351.164 29.5817 349.529 32.4008 347.715C43.7141 340.453 53.1444 330.653 64.5265 323.481C65.2458 323.026 64.5846 321.884 63.86 322.338Z" fill="black"/>
<path d="M61.4324 318.498C51.087 324.126 40.7469 329.753 30.4015 335.375C25.3082 338.147 20.2148 340.918 15.1162 343.69C14.5026 344.023 13.8944 344.404 13.265 344.7C12.5774 345.017 10.996 345.224 10.8003 344.055C10.6575 343.182 12.551 340.95 13.0535 340.342C14.7407 338.3 16.8827 336.803 19.2892 335.735C20.0667 335.391 19.395 334.254 18.6228 334.593C16.1105 335.703 13.8891 337.29 12.1173 339.406C11.0383 340.691 9.18187 342.912 9.40401 344.726C10.0175 349.74 19.7335 342.685 21.3414 341.807C34.9237 334.418 48.5112 327.029 62.0935 319.635C62.8499 319.233 62.1834 318.091 61.4324 318.498Z" fill="black"/>
<path d="M60.9669 314.241C50.5316 318.308 40.2232 322.735 29.5922 326.289C24.3825 328.029 19.0988 329.558 13.7251 330.705C12.461 330.975 11.1916 331.224 9.91697 331.451C9.12361 331.594 8.32497 331.753 7.52103 331.848C7.0556 331.89 6.59545 331.927 6.13001 331.969C5.62226 331.16 5.10922 330.346 4.60147 329.537C4.60147 328.521 6.55314 326.913 7.29889 326.379C8.5048 325.517 9.86937 325.051 11.3133 324.808C12.149 324.665 11.7946 323.391 10.9642 323.533C8.4519 323.957 6.19877 325.157 4.58561 327.151C3.58069 328.394 2.34834 330.335 3.33739 331.927C4.40049 333.641 6.68536 333.308 8.3567 333.048C12.0273 332.483 15.6662 331.684 19.2627 330.753C33.7283 327.014 47.4375 320.931 61.3213 315.515C62.104 315.214 61.7655 313.934 60.9669 314.241Z" fill="black"/>
<path d="M60.6868 310.74C49.6168 313.453 38.4675 315.854 27.2547 317.906C21.6271 318.938 15.9679 319.995 10.2557 320.434C9.10268 320.524 7.93909 320.609 6.78607 320.561C5.9028 320.53 5.00895 320.456 4.15741 320.196C2.69235 319.752 2.4279 319.847 2.72937 318.171C3.02027 316.573 3.11547 316.669 4.45889 316.087C5.10944 315.806 5.74413 315.563 6.43171 315.394C7.96024 315.013 9.44647 314.918 11.012 315.008C11.8636 315.055 11.8583 313.733 11.012 313.686C8.70071 313.553 -1.78219 314.902 0.301699 319.255C2.43848 323.714 12.0064 321.656 15.4866 321.191C30.8037 319.144 46.0361 315.685 61.0359 312.009C61.861 311.813 61.5119 310.539 60.6868 310.74Z" fill="black"/>
<path d="M60.4379 306.112C49.8016 307.778 39.1336 308.248 28.3968 308.82C23.1818 309.095 17.9721 309.37 12.7571 309.645C10.3929 309.772 7.77481 310.126 5.46349 309.465C3.44307 308.888 0.592277 307.286 3.44836 304.9C4.63311 303.911 6.65353 303.716 8.10273 303.684C8.95427 303.668 8.95427 302.346 8.10273 302.362C5.03508 302.425 -1.82483 304.646 1.68181 308.745C5.11441 312.76 12.9951 310.951 17.4538 310.713C31.9246 309.946 46.4589 309.623 60.7923 307.381C61.6279 307.259 61.2683 305.985 60.4379 306.112Z" fill="black"/>
<path d="M60.6017 302.822C54.4188 302.129 48.22 301.891 42.0001 302.044C35.8912 302.198 29.7718 302.584 23.6682 302.171C17.9878 301.791 12.228 300.696 7.09236 298.141C5.84414 297.522 4.23098 296.792 3.22607 295.798C1.95669 294.545 1.74513 292.778 4.28388 292.35C4.81807 292.26 5.50036 292.418 6.03455 292.466C9.29789 292.752 12.4925 293.397 15.6447 294.285C16.4645 294.518 16.8136 293.243 15.9938 293.011C12.5877 292.048 9.09691 291.361 5.55853 291.101C3.72852 290.964 1.4701 290.89 0.883011 293.069C0.317083 295.169 2.14709 296.739 3.6915 297.755C6.57932 299.659 9.94844 300.955 13.27 301.849C20.4525 303.784 27.9471 303.795 35.3253 303.573C43.7931 303.319 52.1604 303.197 60.5964 304.139C61.4426 304.239 61.4373 302.917 60.6017 302.822Z" fill="black"/>
<path d="M61.5483 299.997C49.3729 298.431 37.3086 296.057 25.4558 292.851C20.1985 291.429 14.7296 290.022 10.017 287.203C8.16059 286.092 2.02529 281.2 7.50475 280.581C10.4349 280.253 13.64 281.93 15.7451 283.791C16.3798 284.352 17.3212 283.421 16.6813 282.855C14.5445 280.967 12.0322 279.713 9.18666 279.364C7.58937 279.169 4.52701 278.857 3.77596 280.777C3.00905 282.739 5.32565 285.214 6.60032 286.362C8.80056 288.345 11.5985 289.657 14.3223 290.746C21.5842 293.655 29.4596 295.38 37.0758 297.072C45.1628 298.865 53.3291 300.261 61.543 301.319C62.3945 301.425 62.3839 300.103 61.5483 299.997Z" fill="black"/>
<path d="M62.395 297.284C51.1664 293.043 39.6997 289.023 28.8043 283.977C23.9383 281.724 18.9402 279.032 15.1109 275.213C14.1113 274.219 13.1698 273.113 12.5193 271.86C11.8687 270.612 11.599 270.421 12.6356 269.295C13.6141 268.232 13.5612 268.369 14.7407 268.755C17.6708 269.707 20.236 271.5 22.7483 273.23C23.4517 273.716 24.1129 272.569 23.4147 272.087C21.664 270.876 10.8479 263.313 10.2397 268.76C9.67376 273.838 16.6024 278.508 20.1514 280.804C26.0116 284.591 32.5753 287.108 39.0333 289.663C46.676 292.693 54.3504 295.655 62.0407 298.564C62.8393 298.86 63.1831 297.581 62.395 297.284Z" fill="black"/>
<path d="M63.611 294.412C53.7575 290.413 43.8352 285.294 35.0395 279.306C30.9511 276.524 27.0848 273.399 23.6364 269.85C21.8698 268.03 19.0349 265.592 18.2521 263.164C17.5857 262.424 17.8131 261.816 18.9291 261.34C19.2835 260.245 19.7225 259.938 20.2408 260.425C20.7115 260.514 21.5895 261.429 21.9227 261.694C23.1286 262.641 24.2869 263.64 25.4188 264.672C26.0482 265.243 26.9843 264.312 26.3549 263.735C24.5619 262.101 17.8025 255.114 16.4961 260.953C15.9461 263.413 18.3314 265.793 19.7542 267.507C21.9121 270.109 24.3133 272.499 26.868 274.71C32.0407 279.185 37.8216 282.892 43.8035 286.177C50.0922 289.631 56.603 292.989 63.2513 295.687C64.05 296.004 64.3938 294.729 63.611 294.412Z" fill="black"/>
<path d="M65.6215 292.323C57.9523 285.564 49.6644 279.55 41.9477 272.838C38.1713 269.554 34.5324 266.09 31.2373 262.313C29.4761 260.293 27.498 258.087 26.7787 255.438C26.694 254.956 26.6094 254.475 26.5248 253.994C26.1598 252.809 26.5777 252.301 27.7783 252.465C29.0794 252.211 29.3227 252.333 30.2166 253.216C31.2003 254.184 31.9302 255.379 32.6548 256.543C33.1044 257.262 34.2468 256.601 33.7972 255.876C32.6548 254.041 27.9317 247.578 25.5569 251.767C22.9177 256.416 30.0685 263.107 32.7606 265.947C42.429 276.134 54.1865 284.004 64.6906 293.26C65.3253 293.82 66.2614 292.889 65.6215 292.323Z" fill="black"/>
<path d="M67.4353 290.683C61.4905 282.961 54.1493 276.546 47.6173 269.353C44.2058 265.597 41.0165 261.609 38.5042 257.188C37.9119 256.146 37.3565 255.077 36.8488 253.988C36.3939 253.009 35.2726 251.322 35.3731 250.18C36.5103 248.001 37.494 247.53 38.3297 248.752C38.7951 249.281 39.2553 249.804 39.7207 250.333C40.6463 251.386 41.5772 252.444 42.5028 253.496C43.0634 254.136 43.9996 253.2 43.4389 252.56C41.9792 250.899 36.6848 242.807 34.2783 247.906C33.3791 249.815 34.5639 252.084 35.3361 253.829C36.616 256.717 38.2186 259.446 40.0222 262.038C47.5697 272.859 58.2747 280.92 66.2982 291.344C66.806 292.016 67.9537 291.36 67.4353 290.683Z" fill="black"/>
<path d="M69.5934 288.219C63.2888 279.698 58.5287 270.056 53.4036 260.811C51.0077 256.484 47.5804 251.417 47.3582 246.329C47.2789 244.547 48.0405 242.801 49.9287 242.431C51.5683 242.109 52.5574 243.066 53.43 244.356C54.8528 246.477 56.0746 248.746 57.2276 251.021C57.6137 251.782 58.7561 251.111 58.37 250.354C57.0478 247.741 55.6779 244.912 53.8373 242.616C52.7583 241.273 51.5313 240.718 49.8335 241.088C44.3064 242.294 46.0783 248.397 47.5698 252.179C50.0768 258.547 53.9219 264.476 57.2329 270.453C60.7237 276.752 64.1563 283.088 68.4457 288.885C68.9534 289.562 70.1011 288.906 69.5934 288.219Z" fill="black"/>
<path d="M116.897 224.117C119.01 221.989 119.245 219.087 120.912 216.7C122.69 214.161 125.924 213.213 128.734 212.139C133.941 210.15 137.033 207.107 138.722 201.778C139.19 200.305 139.354 198.687 139.881 197.249C140.998 194.192 142.448 194.022 145.085 193.813C146.929 193.669 148.703 193.552 150.19 192.423C152.155 190.92 152.806 188.423 154.08 186.415C155.742 183.801 159.016 183.662 160.643 181.14C161.208 180.263 159.721 179.409 159.159 180.281C157.795 182.394 154.662 182.659 153.107 184.774C151.236 187.327 150.678 191.082 147.13 191.944C145.143 192.425 142.924 191.948 141.043 192.826C138.949 193.805 138.471 195.826 137.97 197.93C137.03 201.875 135.874 206.077 132.383 208.514C130.354 209.935 127.857 210.622 125.559 211.543C123.532 212.359 121.492 213.325 120.065 214.99C118.052 217.348 117.883 220.678 115.674 222.907C114.947 223.653 116.164 224.86 116.897 224.117Z" fill="black"/>
<path d="M143.35 278.572C146.684 275.466 152.035 278.923 155.966 277.173C158.369 276.101 159.292 273.612 161.181 271.949C163.954 269.515 167.191 271.408 170.241 271.72C172.064 271.912 173.673 271.624 175.143 270.409C177.983 268.052 179.555 265.49 183.623 265.498C186.175 265.503 188.294 266.773 190.801 265.623C194.517 263.91 197.063 262.446 201.275 263.498C202.279 263.75 202.706 262.146 201.698 261.899C198.983 261.221 196.194 261.256 193.519 262.31C192.156 262.845 190.934 263.988 189.543 264.401C187.789 264.92 185.849 263.92 184.091 263.848C181.523 263.742 178.943 264.63 176.915 266.29C175.731 267.263 174.855 268.863 173.514 269.617C171.721 270.632 169.713 269.96 167.9 269.568C165.902 269.138 163.783 268.647 161.808 269.566C158.994 270.877 158.1 274.444 155.272 275.663C150.984 277.507 146.121 273.794 142.236 277.41C141.444 278.149 142.577 279.292 143.35 278.572Z" fill="black"/>
<path d="M156.681 335.02C162.813 328.187 170.751 339.915 177.602 338.581C179.922 338.13 180.78 336.364 182.057 334.555C183.363 332.71 185.233 330.698 187.639 330.631C190.025 330.559 192.032 332.444 193.981 333.502C196.243 334.732 198.45 335.053 200.933 334.184C202.541 333.623 204.03 332.697 205.655 332.184C207.749 331.528 209.741 331.704 211.827 332.132C216.958 333.185 222.942 335.707 227.271 331.106C228.002 330.334 226.868 329.177 226.134 329.954C220.749 335.675 212.543 328.814 206.122 330.348C202.279 331.264 199.298 334.257 195.234 332.312C192.584 331.044 190.361 328.755 187.197 329.03C184.908 329.233 183.032 330.746 181.593 332.485C180.176 334.199 179.345 336.726 176.716 337.04C174.449 337.309 172.025 335.789 170.139 334.736C165.784 332.297 159.749 329.159 155.524 333.865C154.836 334.653 155.969 335.811 156.681 335.02Z" fill="black"/>
</svg>
