<svg width="332" height="316" viewBox="0 0 332 316" fill="none" xmlns="http://www.w3.org/2000/svg">
<mask id="mask0" mask-type="alpha" maskUnits="userSpaceOnUse" x="0" y="0" width="332" height="316">
<rect width="332" height="316" fill="#EAF3FA"/>
</mask>
<g mask="url(#mask0)">
<path d="M176.008 324.553C169.606 315.262 157.367 315.664 148.273 298.922C135.294 275.038 197.416 222.067 134.566 201.638C160.949 181.686 163.879 163.878 179.375 138.147C214.828 79.282 291.81 3.93085 321.642 43.0191C340.225 67.3633 276.361 109.632 260.161 135.677C244.724 160.493 234.774 179.764 240.879 191.478C248.551 206.211 257.895 190.11 283.369 180.335C300.898 173.606 303.886 220.273 286.41 246.948C268.94 273.622 259.037 280.91 266.819 293.085C273.501 303.529 292.801 293.551 290.022 314.225C287.045 336.379 246.442 361.096 212.521 364.294C200.212 365.453 184.81 363.135 169.105 358.235C181.88 347.837 181.321 332.266 176.008 324.553Z" fill="#FFECDD"/>
<path d="M46.4341 255.61C86.8214 237.196 88.8195 190.092 126.877 199.459C129.626 200.135 132.183 200.863 134.566 201.638C130.133 204.988 125.042 208.401 119.111 211.926C102.334 221.887 87.8 253.49 86.6466 270.721C85.3767 289.758 90.0428 304.561 104.105 319.922C119.461 336.699 144.65 350.598 169.105 358.23C164.543 361.94 158.287 364.999 149.945 366.799C50.7973 388.184 4.5614 274.7 46.4341 255.61Z" fill="#F8BAB4"/>
<path d="M86.6468 270.721C87.7944 253.489 102.335 221.887 119.112 211.925C125.042 208.407 130.133 204.993 134.566 201.638C197.422 222.062 135.3 275.037 148.273 298.921C157.367 315.664 169.606 315.262 176.008 324.553C181.321 332.266 181.874 347.837 169.111 358.235C144.65 350.604 119.467 336.705 104.111 319.928C90.0488 304.56 85.3769 289.758 86.6468 270.721Z" fill="#F8BAB4"/>
<path d="M307.74 158.48C316.433 158.48 323.48 151.433 323.48 142.74C323.48 134.047 316.433 127 307.74 127C299.047 127 292 134.047 292 142.74C292 151.433 299.047 158.48 307.74 158.48Z" stroke="#FFECDD" stroke-width="1.5" stroke-miterlimit="10"/>
<path d="M194.923 60.0587C194.923 60.0587 200.061 62.2605 203.593 61.1749C208.771 59.5797 211.167 54.0396 211.167 54.0396L213.603 65.7568C213.603 65.7568 210.998 67.0055 206.371 66.9189C200.341 66.8068 195.081 62.495 195.081 62.495L194.923 60.0587Z" fill="#F8BAB4"/>
<path d="M59.1835 64.2432C59.1835 64.2432 61.7573 72.5406 61.7573 74.9819C61.7573 77.4232 60.2792 83.1468 59.5046 84.1152C58.735 85.0784 58.5413 85.6594 58.735 85.532C58.9286 85.4046 73.5255 87.1375 79.504 89.2628C85.4824 91.3881 93.0713 93.8906 98.4126 93.5695C103.749 93.2484 123.748 89.3902 123.748 89.3902C123.748 89.3902 134.166 92.7336 141.689 98.2635C149.211 103.793 152.106 107.203 152.106 107.203L168.247 114.084L168.635 133.568C168.635 133.568 180.658 161.544 183.171 165.978C185.678 170.417 187.798 174.337 190.117 175.56C192.431 176.783 191.983 177.94 196.162 180.381C200.341 182.823 201.564 182.889 201.564 182.889L198.415 188.613C198.415 188.613 211.212 188.806 217.772 191.635C224.331 194.463 228.123 197.679 228.832 197.358C229.54 197.037 239.509 179.739 241.63 176.457C243.75 173.18 255.136 152.436 255.803 149.108C256.471 145.78 254.473 122.325 253.143 115.006C251.813 107.687 249.769 96.2555 244.336 87.6115C238.903 78.9675 230.84 77.4079 225.82 76.3376C220.799 75.2673 215.04 73.7026 215.04 73.7026C215.04 73.7026 210.677 77.7341 205.249 76.7453C199.816 75.7566 195.953 73.7026 195.953 73.7026C195.953 73.7026 184.598 70.823 173.568 69.6711C162.544 68.5193 135.715 66.5418 130.201 66.2971C124.686 66.0525 59.1835 64.2432 59.1835 64.2432Z" fill="#FFECDD"/>
<path d="M213.562 34.7487C214.092 33.1636 216.432 28.648 218.873 32.0169C219.576 32.9852 219.592 34.5397 219.581 35.6916C219.556 38.2603 218.435 43.408 214.74 42.1949C214.439 42.0981 214.006 42.3122 213.955 42.6384C213.185 47.7758 212.186 53.2344 208.603 57.2353C204.526 61.7917 198.175 62.4084 193.221 58.8968C184.934 53.0203 184.002 41.3642 183.013 32.2309C182.926 31.4256 181.652 31.4155 181.739 32.2309C182.839 42.409 184.2 56.3026 194.863 61.3177C199.424 63.4634 204.689 62.5664 208.425 59.2128C213.017 55.0896 214.312 48.8003 215.183 42.9747C214.923 43.1225 214.658 43.2703 214.398 43.4181C219.979 45.2479 221.447 36.8332 220.606 33.1076C220.157 31.1249 218.858 29.5093 216.671 29.7437C214.22 30.0088 213.027 32.3278 212.334 34.4072C212.074 35.1921 213.302 35.5234 213.562 34.7487Z" fill="black"/>
<path d="M198.461 37.0015C198.634 37.9138 198.802 38.8261 198.975 39.7384C199.128 40.5437 200.357 40.2022 200.204 39.402C200.03 38.4897 199.862 37.5774 199.689 36.6651C199.541 35.8548 198.313 36.1962 198.461 37.0015Z" fill="black"/>
<path d="M187.126 39.6722C187.273 40.3959 187.391 41.1196 187.467 41.8485C187.549 42.6537 188.828 42.6639 188.741 41.8485C188.655 41.0024 188.527 40.1615 188.354 39.3307C188.186 38.5305 186.957 38.872 187.126 39.6722Z" fill="black"/>
<path d="M192.141 38.7699C192.574 39.9422 192.859 41.1144 192.992 42.3631C193.206 42.149 193.415 41.9401 193.629 41.726C191.937 41.6292 190.724 43.8003 191.264 45.258C191.861 46.8787 193.644 47.2304 195.163 46.838C195.958 46.6341 195.622 45.4007 194.827 45.6097C194.302 45.7473 193.644 45.8339 193.15 45.5587C192.151 45.0032 192.284 42.9237 193.634 43.0002C193.95 43.0206 194.307 42.6944 194.271 42.3631C194.129 41.0074 193.843 39.7179 193.374 38.4335C193.089 37.669 191.855 37.9952 192.141 38.7699Z" fill="black"/>
<path d="M204.019 42.5771C204.648 41.6032 204.641 40.4792 204.003 40.0666C203.365 39.6539 202.337 40.109 201.707 41.0829C201.078 42.0568 201.085 43.1809 201.723 43.5935C202.361 44.0061 203.389 43.5511 204.019 42.5771Z" fill="#F8BAB4"/>
<path d="M189.452 46.2629C189.696 45.5433 189.004 44.6576 187.906 44.2848C186.808 43.912 185.719 44.1931 185.475 44.9128C185.231 45.6324 185.923 46.518 187.021 46.8909C188.119 47.2637 189.207 46.9826 189.452 46.2629Z" fill="#F8BAB4"/>
<path d="M196.04 51.0479C196.335 51.4505 196.524 51.894 196.514 52.4036C196.509 52.6381 196.376 52.8623 196.366 53.0764C196.417 53.0764 196.468 53.0815 196.519 53.0815C196.473 53.0203 196.432 52.9592 196.386 52.9031C196.305 52.7451 196.172 52.5973 196.07 52.4495C195.902 52.1998 195.138 51.3027 195.296 51.0122C195.433 50.7574 195.984 51.1397 196.177 51.2722C196.855 51.7411 197.492 50.6351 196.819 50.1713C196.06 49.6463 194.913 49.3456 194.276 50.2324C193.507 51.3027 194.541 52.5005 195.153 53.3669C195.453 53.8001 195.754 54.2945 196.325 54.3557C196.835 54.4117 197.268 54.0804 197.502 53.6472C198.048 52.6483 197.783 51.2926 197.14 50.4057C196.661 49.7483 195.555 50.3802 196.04 51.0479Z" fill="black"/>
<path d="M182.294 32.501C189.475 34.0657 199.633 31.6856 202.747 24.3209C203.063 23.5768 201.967 22.9244 201.646 23.6787C198.756 30.493 189.281 32.7253 182.63 31.2728C181.835 31.0995 181.494 32.3278 182.294 32.501Z" fill="black"/>
<path d="M183.221 69.7477C181.591 61.6388 180.994 53.2854 180.311 45.0542C179.99 41.1807 179.695 37.3072 179.409 33.4338C179.017 28.1434 178.665 22.5982 181.534 17.8736C187.329 8.34787 200.774 5.46314 210.937 8.18987C221.875 11.1256 229.836 20.4627 236.38 29.1678C242.501 37.3072 248.505 49.2335 260.36 48.8359C260.212 48.4741 260.059 48.1122 259.911 47.7503C257.129 50.5688 256.15 54.5238 254.111 57.8418C251.848 61.5267 248.816 64.6815 245.279 67.1585C238.893 71.6232 231.258 73.7995 223.628 74.9004C222.818 75.0176 223.164 76.2459 223.964 76.1287C231.696 75.0125 239.453 72.7751 245.921 68.2594C248.908 66.1749 251.558 63.6418 253.719 60.701C256.471 56.9652 257.557 51.9449 260.813 48.6474C261.191 48.2651 260.926 47.5414 260.365 47.5618C253.78 47.7809 248.586 43.4895 244.713 38.5763C241.15 34.0606 238.123 29.1627 234.494 24.6878C227.792 16.4261 219.704 8.34787 208.812 6.40603C199.414 4.72922 188.405 7.41008 182.095 14.9379C175.948 22.2771 178.038 32.4399 178.731 41.2164C179.491 50.8288 180.092 60.6093 181.998 70.0738C182.156 70.8893 183.385 70.5478 183.221 69.7477Z" fill="black"/>
<path d="M59.6065 64.4472C53.2357 63.3667 46.6762 63.5145 40.3257 64.6867C35.9222 65.5022 29.8266 66.8324 26.9062 70.6244C25.0357 73.0555 25 77.2195 25 80.1449C25 82.9838 24.9949 87.6422 26.6156 90.1039C27.4158 91.3169 28.7563 91.7909 29.5819 90.3332C31.0396 87.7696 30.2139 83.468 29.3984 80.8483C29.1538 80.0685 27.9255 80.3998 28.1701 81.1847C28.4912 82.2142 29.8928 89.5738 28.1192 89.4719C26.6004 89.3852 26.3251 82.4435 26.2844 81.0522C26.2079 78.3254 26.2538 75.0737 27.319 72.5254C28.1549 70.5224 30.1935 69.3451 32.0895 68.4634C40.2136 64.6714 50.5497 64.1923 59.265 65.6755C60.0703 65.8131 60.4118 64.5848 59.6065 64.4472Z" fill="black"/>
<path d="M31.7939 79.4416C31.8245 82.0358 32.3342 84.5842 32.6961 87.1478C32.798 87.8766 33.2414 89.5738 32.6043 89.9204C31.7022 90.4148 30.9224 89.1814 30.4841 88.6462C29.9693 88.0091 29.0723 88.9163 29.582 89.5483C30.4484 90.6186 33.1853 92.5656 34.1129 90.2364C34.5512 89.1406 34.0059 87.372 33.8377 86.2661C33.4962 83.998 33.0885 81.7402 33.063 79.4416C33.0579 78.621 31.7837 78.621 31.7939 79.4416Z" fill="black"/>
<path d="M41.9262 74.2226C43.0373 75.196 40.3208 76.4855 39.8111 76.883C39.1383 77.4131 38.5064 77.989 37.9151 78.6108C37.1353 79.4314 36.065 80.4966 35.7236 81.6128C35.0865 83.7024 36.6308 84.9766 38.6338 84.7065C39.9079 84.5383 40.331 83.998 41.3707 83.2386C43.1087 81.9644 45.0964 81.0674 47.1605 80.4609C51.5692 79.1715 56.1918 79.2377 60.7126 79.7881C61.523 79.8901 61.5179 78.6108 60.7126 78.514C54.092 77.7036 46.7273 77.9839 41.0496 81.9135C40.489 82.3008 39.8213 83.0042 39.1944 83.2743C38.2362 83.6871 36.5645 83.6616 37.1914 81.5006C37.645 79.9462 40.2749 78.0909 41.4268 77.2704C42.7621 76.3173 44.602 74.8698 42.8283 73.3154C42.2116 72.7802 41.3095 73.6823 41.9262 74.2226Z" fill="black"/>
<path d="M58.475 64.3706C61.0437 71.0167 63.3678 79.4364 57.5474 85.1192C57.9042 85.3282 58.2558 85.532 58.6126 85.741C58.475 86.4239 58.1284 85.95 58.5922 86.0621C58.791 86.108 59.1325 86.0723 59.3312 86.0774C60.0702 86.1029 60.8093 86.1895 61.5432 86.271C63.6532 86.5004 65.753 86.8215 67.8478 87.1579C72.4858 87.9122 77.1594 88.7429 81.6853 90.0375C88.3008 91.9335 94.6666 94.3391 101.669 93.7683C108.993 93.1669 116.317 91.3524 123.539 90.0426C124.345 89.8948 124.003 88.6665 123.203 88.8143C119.146 89.5533 115.089 90.2872 111.027 91.0263C106.843 91.7857 102.607 92.7235 98.3311 92.6011C91.4251 92.4024 85.0287 89.4157 78.3775 87.8918C73.5153 86.7756 68.5766 85.9143 63.6277 85.2568C62.8225 85.1498 57.6748 83.9113 57.3792 85.4046C57.2569 86.0111 57.9653 86.4902 58.4444 86.0264C64.6063 80.0021 62.4453 71.1441 59.6982 64.0393C59.4128 63.2748 58.1794 63.601 58.475 64.3706Z" fill="black"/>
<path d="M58.9439 64.4318C64.0457 65.1709 69.2698 65.2116 74.4123 65.3849C83.1939 65.6754 91.9755 65.8589 100.757 66.0933C122.214 66.6642 143.707 67.3573 165.082 69.4011C175.317 70.3797 185.607 71.6029 195.612 74.0391C196.407 74.2327 196.748 73.0044 195.948 72.8108C177.146 68.239 157.376 67.2146 138.121 66.2055C118.127 65.1607 98.1119 64.8192 78.1024 64.228C71.864 64.0445 65.4677 64.1056 59.2752 63.2086C58.4852 63.0863 58.1386 64.3146 58.9439 64.4318Z" fill="black"/>
<path d="M123.493 89.9763C130.369 91.3881 137.188 95.8987 142.815 99.8741C149.186 104.369 154.155 109.527 158.294 116.107C166.285 128.808 171.856 142.921 178.043 156.539C180.541 162.038 182.951 167.91 186.601 172.767C187.085 173.414 188.196 172.782 187.701 172.125C184.404 167.726 182.161 162.477 179.883 157.513C176.682 150.54 173.66 143.492 170.434 136.535C164.328 123.36 157.937 109.823 146.179 100.776C142.03 97.5857 137.576 94.7774 132.917 92.3973C130.063 90.9396 127 89.3953 123.83 88.748C123.035 88.5849 122.688 89.8132 123.493 89.9763Z" fill="black"/>
<path d="M27.6553 77.1072C31.0344 78.0654 33.2362 81.2712 35.1627 83.9877C37.4206 87.1783 39.6733 90.3637 41.9311 93.5542C46.4417 99.9302 50.9574 106.311 55.4679 112.687C55.7483 113.085 56.5331 113.125 56.63 112.534C56.737 111.918 56.8389 111.296 56.946 110.679C56.6351 110.807 56.3242 110.934 56.0082 111.061C56.6911 111.382 57.3741 111.698 58.0519 112.02C58.4801 112.218 59.005 111.984 59.0101 111.469C59.0203 110.521 59.0305 109.578 59.0407 108.63C58.7706 108.834 58.5056 109.038 58.2354 109.247C59.3006 109.435 60.1773 109.797 61.0641 110.409C61.482 110.694 62.007 110.307 62.0223 109.859C62.0579 108.768 62.3841 108.472 63.485 108.498C63.8367 108.508 64.1119 108.197 64.1221 107.861C64.1374 107.325 64.1578 106.79 64.1731 106.26C63.959 106.474 63.75 106.683 63.536 106.897C64.0508 106.857 64.5604 106.821 65.0752 106.78C65.8856 106.719 65.8958 105.445 65.0752 105.506C64.5604 105.547 64.0508 105.582 63.536 105.623C63.1843 105.649 62.9091 105.893 62.8989 106.26C62.8836 106.795 62.8632 107.331 62.8479 107.861C63.062 107.647 63.271 107.438 63.485 107.224C62.6848 107.203 62.0325 107.29 61.2731 107.514C60.9978 107.596 60.8144 107.845 60.8042 108.131C60.7838 108.707 60.7685 109.283 60.7481 109.859C61.0692 109.675 61.3852 109.492 61.7063 109.308C60.6869 108.605 59.7899 108.233 58.5718 108.019C58.1692 107.947 57.7716 108.187 57.7665 108.635C57.7563 109.583 57.7461 110.526 57.736 111.474C58.057 111.291 58.373 111.107 58.6941 110.924C58.0112 110.603 57.3282 110.287 56.6504 109.966C56.314 109.808 55.789 109.904 55.7126 110.348C55.6055 110.964 55.5036 111.586 55.3966 112.203C55.7839 112.152 56.1713 112.101 56.5586 112.05C51.4568 104.838 46.3551 97.6316 41.2584 90.4198C39.0107 87.2394 36.8752 83.9368 34.4594 80.8788C32.752 78.7178 30.7031 76.6485 27.9866 75.8789C27.2068 75.6547 26.8704 76.883 27.6553 77.1072Z" fill="black"/>
<path d="M47.1297 80.7872C53.7198 89.1814 60.4576 97.489 66.5889 106.23C67.0578 106.898 68.1637 106.26 67.6897 105.588C61.4973 96.7551 54.6932 88.366 48.0319 79.8851C47.5222 79.2378 46.6252 80.145 47.1297 80.7872Z" fill="black"/>
<path d="M28.1039 76.837C31.9213 74.518 35.9579 72.775 40.2697 71.5976C41.0597 71.3836 40.7233 70.1502 39.9333 70.3694C35.5247 71.5722 31.3709 73.3611 27.4668 75.7362C26.7584 76.1643 27.4006 77.2652 28.1039 76.837Z" fill="black"/>
<path d="M53.679 106.158C55.7636 104.517 57.9501 103.024 60.2334 101.668C60.9367 101.25 60.2996 100.149 59.5912 100.567C57.2161 101.979 54.9481 103.544 52.782 105.256C52.1347 105.766 53.0419 106.663 53.679 106.158Z" fill="black"/>
<path d="M51.411 102.244C52.8177 101.52 54.1072 100.634 55.2947 99.5939C55.9114 99.0537 55.0093 98.1567 54.3926 98.6918C53.2866 99.6602 52.0736 100.471 50.7637 101.143C50.0349 101.515 50.6822 102.616 51.411 102.244Z" fill="black"/>
<path d="M49.3162 98.0546C50.3407 97.4838 51.2632 96.7499 52.043 95.8681C52.5883 95.2565 51.6862 94.3544 51.1408 94.966C50.4273 95.7713 49.6118 96.4288 48.669 96.9537C47.9605 97.3564 48.5976 98.4573 49.3162 98.0546Z" fill="black"/>
<path d="M46.1411 93.702C47.1604 92.8509 48.1747 91.9997 49.194 91.1486C49.8209 90.6236 48.9188 89.7266 48.2919 90.2465C47.2725 91.0976 46.2583 91.9488 45.239 92.7999C44.6121 93.3299 45.5142 94.227 46.1411 93.702Z" fill="black"/>
<path d="M42.9811 90.0886C43.8832 88.8857 44.9484 87.8307 46.1257 86.9031C46.773 86.3986 45.8658 85.5015 45.2236 86.001C43.9495 86.9949 42.8435 88.1467 41.8751 89.4413C41.3909 90.1039 42.4969 90.7409 42.9811 90.0886Z" fill="black"/>
<path d="M26.0601 89.6604C26.2895 111.744 28.2619 133.808 32.4616 155.504C34.3932 165.479 36.7835 175.361 39.6224 185.116C40.9985 189.846 42.4816 194.55 44.0616 199.214C45.4224 203.24 46.6507 207.74 49.4896 211.023C52.7769 214.82 57.8532 215.559 62.4403 213.841C67.2872 212.027 70.6816 207.888 73.7192 203.892C73.4287 203.969 73.1382 204.045 72.8477 204.122C74.9883 205.085 77.0117 206.395 79.1931 207.266C81.3439 208.128 83.7699 208.097 86.0481 208.158C85.8442 207.888 85.6404 207.623 85.4314 207.353C79.8811 222.307 76.8843 238.04 75.2177 253.865C73.5307 269.874 72.6285 286.306 73.3421 302.396C74.0403 318.17 76.9913 333.832 82.0319 348.796C86.6546 362.511 92.5311 376.711 102.21 387.664C112.648 399.478 126.546 408.774 141.52 413.723C142.3 413.983 142.637 412.75 141.857 412.495C128.315 408.025 115.813 399.921 105.869 389.738C95.4719 379.086 89.259 365.33 84.2999 351.462C79.0758 336.85 75.8394 321.529 74.815 306.04C73.7906 290.597 74.6213 274.823 75.9567 259.421C77.4806 241.837 80.5029 224.284 86.6597 207.689C86.8075 207.287 86.4253 206.894 86.043 206.884C83.8361 206.828 81.507 206.879 79.4377 205.997C77.4041 205.131 75.5082 203.938 73.4899 203.026C73.1433 202.873 72.8477 202.955 72.6183 203.255C69.4635 207.409 65.8092 211.792 60.5188 213.117C54.8156 214.55 50.458 211.43 48.088 206.405C46.1156 202.221 44.8312 197.618 43.4245 193.215C42.1198 189.132 40.8915 185.024 39.7447 180.896C34.6429 162.528 31.1517 143.731 29.2303 124.766C28.0478 113.105 27.4515 101.388 27.3343 89.6655C27.3241 88.8449 26.0499 88.8398 26.0601 89.6604Z" fill="black"/>
<path d="M34.8977 89.8438C34.9793 122.87 41.0647 156.264 52.9145 187.109C56.1509 195.534 59.8664 203.765 64.1119 211.731C64.4993 212.455 65.6001 211.813 65.2128 211.089C49.7342 182.078 40.9933 149.368 37.6091 116.759C36.6815 107.82 36.1923 98.8394 36.1719 89.8489C36.1719 89.0232 34.8977 89.0181 34.8977 89.8438Z" fill="black"/>
<path d="M71.6348 205.08C64.3822 219.764 62.8379 237.031 61.5892 253.132C60.1927 271.097 59.8767 289.201 61.1662 307.187C62.3639 323.858 65.2129 340.173 70.3045 356.105C73.8161 367.099 78.2808 377.842 85.3856 387.037C95.2477 399.809 109.111 408.733 123.152 416.287C123.876 416.674 124.518 415.573 123.794 415.186C111.231 408.428 98.8358 400.625 89.3305 389.83C81.5988 381.043 76.5429 370.549 72.7815 359.55C61.9001 327.752 60.366 293.885 62.3537 260.563C62.899 251.414 63.6483 242.245 65.0447 233.183C66.4871 223.815 68.5156 214.269 72.7407 205.722C73.0975 204.988 72.0017 204.341 71.6348 205.08Z" fill="black"/>
<path d="M71.1811 219.029C73.3676 219.228 75.9822 219.371 78.1024 218.703C78.8822 218.459 78.5509 217.225 77.766 217.475C75.763 218.107 73.2554 217.944 71.1862 217.755C70.3656 217.679 70.3707 218.953 71.1811 219.029Z" fill="black"/>
<path d="M69.1322 227.669C71.3595 227.103 73.7498 227.429 75.9822 226.863C76.7773 226.659 76.4409 225.431 75.6458 225.635C73.4186 226.201 71.0282 225.875 68.7959 226.44C68.0008 226.644 68.3372 227.872 69.1322 227.669Z" fill="black"/>
<path d="M66.9203 239.263C68.8264 239.055 70.7326 238.84 72.6439 238.632C73.4491 238.545 73.4593 237.266 72.6439 237.357C70.7377 237.566 68.8315 237.78 66.9203 237.989C66.115 238.076 66.1048 239.355 66.9203 239.263Z" fill="black"/>
<path d="M65.7582 248.346C68.0925 248.325 70.4217 248.071 72.756 248.05C73.5766 248.045 73.5766 246.771 72.756 246.776C70.4217 246.797 68.0925 247.051 65.7582 247.072C64.9377 247.077 64.9377 248.351 65.7582 248.346Z" fill="black"/>
<path d="M64.7592 257.912C67.0935 257.892 69.4227 257.637 71.757 257.617C72.5776 257.611 72.5776 256.337 71.757 256.342C69.4227 256.363 67.0935 256.618 64.7592 256.638C63.9387 256.643 63.9387 257.917 64.7592 257.912Z" fill="black"/>
<path d="M64.6726 269.038C66.8539 269.028 69.4991 268.936 71.5327 268.08C72.2768 267.769 71.9506 266.531 71.1963 266.852C69.2443 267.672 66.7673 267.754 64.6726 267.764C63.852 267.764 63.852 269.038 64.6726 269.038Z" fill="black"/>
<path d="M63.796 279.762C65.9621 278.987 68.3728 279.089 70.5389 278.314C71.3034 278.039 70.9773 276.811 70.2026 277.086C68.0365 277.861 65.6258 277.759 63.4597 278.533C62.6901 278.809 63.0214 280.037 63.796 279.762Z" fill="black"/>
<path d="M64.0661 289.211C65.9468 288.824 67.8224 288.436 69.703 288.044C70.5032 287.876 70.1668 286.647 69.3667 286.816C67.486 287.203 65.6104 287.59 63.7297 287.983C62.9244 288.146 63.2659 289.374 64.0661 289.211Z" fill="black"/>
<path d="M64.2903 298.905C66.6144 298.665 68.9079 298.196 71.232 297.957C72.0373 297.875 72.0475 296.596 71.232 296.683C68.9079 296.922 66.6144 297.391 64.2903 297.631C63.4799 297.717 63.4698 298.991 64.2903 298.905Z" fill="black"/>
<path d="M64.3617 309.047C66.6858 308.808 68.9793 308.339 71.3034 308.099C72.1087 308.018 72.1188 306.739 71.3034 306.825C68.9793 307.065 66.6858 307.534 64.3617 307.773C63.5564 307.855 63.5462 309.129 64.3617 309.047Z" fill="black"/>
<path d="M106.817 92.2851C105.288 101.714 106.313 110.903 106.476 120.363C106.491 121.209 107.648 121.153 107.75 120.363C108.321 115.944 113.499 114.084 117.383 115.027C121.496 116.026 124.589 119.456 127.219 122.549C133.228 129.608 138.804 137.029 144.65 144.22C150.047 150.856 155.842 157.039 161.673 163.282C166.907 168.893 172.187 174.755 176.04 181.431C176.448 182.14 177.554 181.503 177.141 180.789C170.062 168.521 158.849 159.128 149.782 148.42C144.375 142.034 139.268 135.403 134.033 128.874C129.854 123.66 125.42 116.601 118.866 114.17C113.896 112.33 107.22 114.609 106.476 120.363C106.899 120.363 107.327 120.363 107.75 120.363C107.592 111.026 106.537 101.933 108.045 92.6215C108.178 91.8213 106.95 91.4748 106.817 92.2851Z" fill="black"/>
<path d="M106.521 120.516C106.547 124.032 108.733 127.743 110.273 130.78C113.061 136.29 116.2 141.621 119.34 146.937C122.449 152.202 125.629 157.426 128.626 162.752C132.326 169.327 135.527 176.172 139.115 182.802C143.957 191.762 149.247 200.467 155.506 208.515C156.01 209.162 156.902 208.255 156.408 207.613C145.949 194.173 138.916 178.924 130.812 164.067C125.196 153.767 118.764 143.935 113.193 133.609C111.817 131.061 110.471 128.487 109.335 125.821C108.637 124.175 107.806 122.33 107.796 120.511C107.791 119.695 106.516 119.695 106.521 120.516Z" fill="black"/>
<path d="M114.049 114.971C118.412 126.194 124.676 136.672 130.914 146.932C137.881 158.389 145.231 169.602 152.223 181.044C155.322 186.11 158.375 191.222 161.031 196.538C161.397 197.272 162.498 196.625 162.131 195.896C157.076 185.769 150.796 176.243 144.757 166.687C137.627 155.403 130.415 144.149 123.942 132.478C120.736 126.698 117.678 120.801 115.278 114.634C114.982 113.875 113.749 114.201 114.049 114.971Z" fill="black"/>
<path d="M198.945 189.158C200.061 186.232 201.845 183.465 203.369 180.743C206.065 175.932 208.853 171.177 211.712 166.468C214.632 161.656 217.624 156.87 220.825 152.238C222.69 149.536 224.79 145.749 227.675 143.976C228.373 143.548 227.731 142.447 227.033 142.875C225.075 144.078 223.623 146.244 222.272 148.043C219.755 151.397 217.451 154.913 215.198 158.445C210.331 166.075 205.703 173.873 201.325 181.793C200.066 184.071 198.649 186.375 197.716 188.817C197.426 189.586 198.654 189.917 198.945 189.158Z" fill="black"/>
<path d="M214.928 74.4162C222.379 76.3937 230.814 77.1531 237.613 81.0011C242.965 84.0285 245.574 89.5788 247.526 95.1648C251.69 107.076 253.296 119.96 254.387 132.473C254.805 137.289 255.146 142.126 255.207 146.962C255.217 147.783 256.491 147.783 256.481 146.962C256.349 136.02 255.182 124.98 253.398 114.196C252.312 107.652 250.951 101.097 248.76 94.8284C247.007 89.8133 244.718 84.5331 240.345 81.261C233.358 76.0369 223.46 75.3642 215.275 73.193C214.474 72.9738 214.133 74.2072 214.928 74.4162Z" fill="black"/>
<path d="M198.491 189.775C203.822 189.775 209.388 190.157 214.591 191.339C217.262 191.946 219.877 192.884 222.226 194.311C224.255 195.544 225.906 197.267 228.251 197.894C229.046 198.108 229.382 196.879 228.587 196.665C225.906 195.942 223.862 193.648 221.406 192.399C219.107 191.232 216.63 190.442 214.107 189.938C209.016 188.913 203.679 188.506 198.491 188.506C197.675 188.5 197.67 189.775 198.491 189.775Z" fill="black"/>
<path d="M255.202 146.84C255.437 149.358 253.785 152.339 252.791 154.536C250.931 158.664 248.801 162.67 246.619 166.636C242.124 174.811 237.343 182.843 232.364 190.733C231.258 192.486 230.116 195.182 228.506 196.553C227.879 197.088 228.786 197.985 229.408 197.455C230.707 196.349 231.62 194.275 232.517 192.868C234.8 189.29 237.022 185.672 239.204 182.033C244.372 173.424 249.545 164.699 253.714 155.555C254.861 153.038 256.731 149.725 256.466 146.845C256.4 146.03 255.126 146.025 255.202 146.84Z" fill="black"/>
<path d="M243.169 178.19C251.874 179.785 260.431 183.134 268.448 186.808C272.51 188.669 276.532 190.707 280.273 193.169C282.357 194.54 286.073 196.732 286.888 199.3C287.352 200.753 286.807 202.909 286.618 204.361C286.175 207.735 285.537 211.084 284.885 214.417C283.183 223.112 281.195 231.756 279.116 240.369C276.893 249.579 274.569 258.779 271.924 267.881C272.184 267.734 272.449 267.586 272.709 267.438C263.479 264.645 254.076 263.085 244.438 262.892C236.151 262.724 227.884 263.203 219.607 262.504C218.791 262.433 218.796 263.712 219.607 263.779C227.654 264.456 235.702 264.028 243.76 264.151C253.52 264.298 263.025 265.833 272.368 268.661C272.699 268.763 273.056 268.539 273.153 268.218C278.234 250.721 282.541 232.898 286.062 215.024C286.725 211.66 287.357 208.286 287.821 204.891C288.06 203.153 288.575 200.967 288.162 199.219C287.658 197.063 285.247 195.264 283.606 193.99C280.252 191.39 276.486 189.321 272.694 187.435C263.561 182.884 253.586 178.817 243.51 176.972C242.71 176.814 242.363 178.042 243.169 178.19Z" fill="black"/>
<path d="M218.134 217.567C223.873 219.906 229.326 222.888 235.065 225.227C234.917 224.967 234.769 224.702 234.622 224.442C232.506 231.843 229.627 239.065 226.737 246.19C225.249 249.865 223.72 253.524 222.033 257.112C221.416 258.427 220.417 261.694 219.036 262.443C218.312 262.831 218.954 263.931 219.678 263.544C221.141 262.754 222.002 260.109 222.665 258.743C224.331 255.298 225.82 251.761 227.277 248.218C230.427 240.553 233.567 232.765 235.85 224.784C235.952 224.422 235.722 224.131 235.406 223.999C229.668 221.659 224.214 218.678 218.475 216.339C217.716 216.028 217.384 217.261 218.134 217.567Z" fill="black"/>
<path d="M154.492 238.871C149.563 279.262 143.09 319.439 137.504 359.744C135.894 371.359 134.365 382.99 132.948 394.631C132.851 395.441 134.125 395.436 134.222 394.631C139.151 354.24 145.623 314.062 151.209 273.758C152.82 262.142 154.349 250.512 155.766 238.871C155.863 238.061 154.588 238.066 154.492 238.871Z" fill="black"/>
<path d="M164.568 238.361C159.593 279.109 153.365 319.689 147.861 360.366C146.296 371.935 144.798 383.515 143.381 395.1C143.284 395.91 144.558 395.905 144.655 395.1C149.629 354.352 155.857 313.772 161.362 273.095C162.927 261.526 164.425 249.946 165.842 238.361C165.944 237.551 164.665 237.556 164.568 238.361Z" fill="black"/>
<path d="M186.397 172.884C190.076 177.242 194.648 180.499 199.939 182.624C200.698 182.93 201.029 181.696 200.275 181.396C195.199 179.357 190.826 176.156 187.299 171.982C186.764 171.355 185.867 172.257 186.397 172.884Z" fill="black"/>
<path d="M201.564 24.7745C203.674 29.7285 207.13 34.4174 212.782 35.2991C213.582 35.4265 213.929 34.1982 213.119 34.0708C207.767 33.235 204.648 28.7958 202.66 24.1272C202.344 23.3831 201.243 24.0304 201.564 24.7745Z" fill="black"/>
<path d="M226.497 263.34C225.585 267.922 223.557 272.096 221.615 276.311C221.273 277.05 222.369 277.698 222.716 276.953C224.703 272.642 226.793 268.366 227.726 263.677C227.889 262.876 226.661 262.535 226.497 263.34Z" fill="black"/>
<path d="M242.736 263.651C241.895 266.337 240.998 269.008 240.126 271.683C239.54 273.488 238.373 275.73 238.317 277.657C238.291 278.477 239.565 278.477 239.591 277.657C239.642 275.837 240.942 273.289 241.528 271.49C242.338 268.992 243.179 266.5 243.964 263.992C244.209 263.208 242.98 262.871 242.736 263.651Z" fill="black"/>
<path d="M240.682 280.113C239.667 277.937 238.638 274.971 235.682 275.486C234.031 275.771 232.914 277.213 231.299 277.596C229.01 278.141 226.64 276.857 224.413 276.515C221.167 276.021 219.067 277.157 217.721 280.103C215.728 284.466 213.858 288.89 211.926 293.278C210.927 295.551 209.928 297.819 208.929 300.092C208.333 301.453 206.886 303.441 207.054 304.985C207.161 305.954 207.777 306.219 208.593 306.677C210.861 307.952 212.869 309.496 214.867 311.168C220.779 316.122 227.176 319.878 234.739 321.672C243.21 323.68 252.124 323.236 260.319 320.311C261.084 320.036 260.758 318.807 259.983 319.083C251.991 321.932 243.342 322.401 235.08 320.444C230.978 319.47 227.012 317.921 223.358 315.811C219.541 313.604 216.401 310.597 212.91 307.957C212.094 307.34 211.264 306.749 210.392 306.224C209.893 305.923 209.383 305.643 208.858 305.383C208.588 304.358 208.715 303.421 209.24 302.559C209.984 300.24 211.253 297.977 212.237 295.745C214.235 291.204 216.233 286.658 218.231 282.116C219.367 279.527 220.351 277.407 223.679 277.698C225.662 277.871 227.507 278.773 229.494 278.936C231.278 279.084 232.405 278.528 233.929 277.723C235.804 276.729 236.971 276.169 238.398 278.263C238.903 279.002 239.209 279.95 239.586 280.761C239.927 281.5 241.023 280.852 240.682 280.113Z" fill="black"/>
<path d="M260.655 319.46C260.518 318.079 260.38 316.703 260.238 315.321C260.207 315 259.972 314.654 259.6 314.684C255.656 315.015 251.706 315.316 247.751 315.484C241.39 315.754 235.621 314.638 229.663 312.493C228.888 312.212 228.557 313.446 229.326 313.721C235.197 315.836 240.901 317.013 247.17 316.784C251.318 316.631 255.467 316.305 259.606 315.958C259.391 315.744 259.183 315.535 258.968 315.321C259.111 316.703 259.249 318.079 259.386 319.46C259.463 320.265 260.737 320.275 260.655 319.46Z" fill="black"/>
<path d="M260.543 315.775C260.763 308.201 253.887 302.783 246.573 304.705C246.833 304.853 247.098 305 247.358 305.148C244.891 296.994 242.629 288.737 240.982 280.373C240.824 279.568 239.596 279.909 239.754 280.71C241.4 289.073 243.663 297.325 246.13 305.485C246.232 305.816 246.573 306.02 246.915 305.928C253.449 304.21 259.463 309.032 259.269 315.77C259.244 316.595 260.518 316.595 260.543 315.775Z" fill="black"/>
<path d="M229.708 312.508C222.237 309.776 216.824 302.972 209.153 300.775C208.363 300.551 208.027 301.779 208.817 302.004C216.452 304.195 221.905 311.009 229.372 313.736C230.142 314.022 230.473 312.788 229.708 312.508Z" fill="black"/>
<path d="M241.665 286.525C238.505 285.684 235.361 285.363 232.089 285.557C231.385 285.597 231.207 286.601 231.92 286.81C234.586 287.59 237.165 288.548 239.693 289.705C239.8 289.308 239.907 288.915 240.014 288.518C237.853 288.446 235.733 288.538 233.582 288.798C233.21 288.844 232.807 289.175 232.965 289.603C233.297 290.49 233.801 290.75 234.642 291.199C236.477 292.172 238.383 293.044 240.243 293.961C240.294 293.574 240.345 293.186 240.396 292.799C238.179 293.161 235.962 293.528 233.745 293.89C233.297 293.961 233.103 294.669 233.465 294.955C236.222 297.106 239.988 297.641 242.389 300.255C242.481 299.899 242.578 299.547 242.669 299.19C240.503 299.501 238.337 299.812 236.166 300.118C235.509 300.21 235.61 301.188 236.166 301.346C236.482 301.438 236.803 301.53 237.124 301.621C237.914 301.851 238.251 300.622 237.461 300.393C237.145 300.301 236.823 300.21 236.502 300.118C236.502 300.526 236.502 300.938 236.502 301.346C238.668 301.035 240.835 300.724 243.006 300.419C243.51 300.347 243.577 299.669 243.286 299.353C240.84 296.693 237.145 296.219 234.362 294.053C234.27 294.41 234.173 294.761 234.081 295.118C236.298 294.756 238.516 294.389 240.733 294.027C241.268 293.941 241.354 293.095 240.886 292.865C239.739 292.299 238.587 291.734 237.44 291.168C236.655 290.781 234.535 290.179 234.194 289.272C233.99 289.542 233.786 289.807 233.577 290.077C235.723 289.817 237.843 289.726 240.009 289.797C240.61 289.817 240.916 288.88 240.33 288.609C237.705 287.407 235.024 286.398 232.252 285.587C232.196 286.005 232.14 286.423 232.084 286.841C235.228 286.652 238.276 286.953 241.319 287.763C242.119 287.962 242.46 286.734 241.665 286.525Z" fill="black"/>
<path d="M251.68 304.496C248.938 291.209 245.768 278.013 243.684 264.604C243.556 263.799 242.328 264.14 242.455 264.94C244.54 278.35 247.71 291.55 250.452 304.832C250.615 305.638 251.843 305.296 251.68 304.496Z" fill="black"/>
<path d="M235.539 224.667C238.826 220.248 243.964 217.97 248.52 215.126C249.213 214.692 248.576 213.591 247.878 214.025C243.092 217.006 237.883 219.386 234.438 224.019C233.949 224.682 235.055 225.314 235.539 224.667Z" fill="black"/>
<path d="M174.996 203.913C173.721 204.234 173.421 200.692 173.191 199.881C172.835 198.607 172.304 197.573 171.26 196.716C169.277 195.08 166.015 195.121 163.574 195.31C161 195.514 159.267 195.809 158.258 198.322C157.279 200.763 156.816 203.459 156.5 206.064C156.403 206.874 157.677 206.869 157.774 206.064C158.054 203.77 158.487 201.38 159.282 199.204C160.016 197.201 161.005 196.854 163.003 196.63C164.221 196.492 165.439 196.477 166.662 196.589C168.528 196.762 170.388 197.043 171.438 198.806C172.096 199.912 172.177 201.314 172.498 202.532C172.891 204.015 173.512 205.595 175.332 205.136C176.127 204.942 175.791 203.714 174.996 203.913Z" fill="black"/>
<path d="M170.23 172.767C170.959 177.971 172.264 183.124 173.37 188.256C173.997 191.171 174.629 194.086 175.24 197.012C175.566 198.566 176.081 200.228 176.147 201.823C176.183 202.639 177.457 202.644 177.422 201.823C177.238 197.42 175.643 192.766 174.72 188.48C173.579 183.164 172.213 177.823 171.458 172.431C171.346 171.62 170.118 171.967 170.23 172.767Z" fill="black"/>
<path d="M175.887 204.621C176.835 203.362 178.104 201.094 179.46 200.289C180.663 199.576 180.214 201.905 180.22 202.756C180.235 204.433 180.245 206.115 180.26 207.791C180.311 214.341 180.367 220.885 180.418 227.434C180.423 228.255 181.698 228.255 181.692 227.434C181.652 222.735 181.616 218.031 181.575 213.331C181.56 211.318 181.545 209.3 181.524 207.287C181.504 205.054 181.84 202.44 181.468 200.233C180.632 195.294 175.882 202.511 174.787 203.969C174.292 204.637 175.398 205.274 175.887 204.621Z" fill="black"/>
<path d="M180.632 227.128C175.317 230.589 169.083 232.403 162.753 232.546C157.371 232.668 150.129 231.613 148.1 225.727C147.835 224.957 146.602 225.288 146.872 226.063C148.804 231.664 154.94 233.535 160.322 233.79C167.661 234.136 175.113 232.24 181.28 228.224C181.963 227.786 181.32 226.68 180.632 227.128Z" fill="black"/>
<path d="M180.184 222.052C175.306 225.737 169.078 228.295 162.932 228.571C158.518 228.764 149.43 227.062 149.4 221.145C149.395 220.324 148.121 220.324 148.126 221.145C148.151 226.44 155.067 229.356 159.502 229.784C166.958 230.507 174.919 227.607 180.821 223.153C181.473 222.664 180.836 221.558 180.184 222.052Z" fill="black"/>
<path d="M168.956 201.64C167.284 201.844 165.607 201.951 163.925 201.956C163.105 201.961 163.105 203.235 163.925 203.23C165.612 203.225 167.284 203.118 168.956 202.914C169.761 202.812 169.771 201.538 168.956 201.64Z" fill="black"/>
<path d="M168.951 205.87C166.907 206.191 164.873 206.115 162.855 205.671C162.238 205.534 161.785 206.262 162.233 206.736C162.371 206.879 162.509 207.027 162.646 207.17C163.212 207.766 164.114 206.864 163.548 206.268C163.411 206.125 163.273 205.977 163.135 205.834C162.926 206.191 162.723 206.543 162.514 206.9C164.766 207.394 167.009 207.455 169.287 207.098C170.097 206.971 169.756 205.743 168.951 205.87Z" fill="black"/>
<path d="M168.778 209.876C167.279 209.952 165.781 210.029 164.287 210.1C163.518 210.141 162.223 209.911 161.617 210.498C161.347 210.758 161.408 211.13 161.617 211.4C161.637 211.425 161.663 211.456 161.683 211.481C161.846 211.69 162.238 211.721 162.453 211.583C162.473 211.568 162.498 211.553 162.519 211.537C163.202 211.089 162.56 209.983 161.877 210.436C161.856 210.452 161.831 210.467 161.81 210.482C162.065 210.518 162.325 210.549 162.58 210.584C162.56 210.559 162.534 210.528 162.514 210.503C162.514 210.803 162.514 211.104 162.514 211.405C162.59 211.328 163.548 211.42 163.783 211.41C164.364 211.379 164.95 211.354 165.531 211.323C166.611 211.267 167.692 211.216 168.778 211.16C169.593 211.109 169.598 209.835 168.778 209.876Z" fill="black"/>
<path d="M167.483 214.157C165.353 214.33 161.999 214.274 160.225 212.97C159.563 212.485 158.926 213.586 159.583 214.071C160.674 214.876 162.203 215.059 163.508 215.228C164.807 215.396 166.173 215.544 167.483 215.436C168.298 215.365 168.304 214.091 167.483 214.157Z" fill="black"/>
<path d="M156.479 206.043C156.092 208.204 155.903 210.543 154.767 212.48C153.6 214.468 151.495 215.584 150.047 217.332C147.953 219.855 146.903 222.923 146.78 226.18C146.75 227.001 148.024 227.001 148.054 226.18C148.238 221.466 150.557 218.459 153.921 215.436C156.637 212.995 157.096 209.825 157.713 206.379C157.85 205.579 156.622 205.238 156.479 206.043Z" fill="black"/>
<path d="M236.079 225.406C238.826 223.708 241.961 223.443 245.116 223.245C245.931 223.194 245.936 221.919 245.116 221.97C241.747 222.179 238.373 222.49 235.437 224.305C234.739 224.738 235.376 225.839 236.079 225.406Z" fill="black"/>
<path d="M154.925 316.856C177.799 317.829 200.708 317.294 223.582 318.262C224.403 318.298 224.403 317.024 223.582 316.988C200.708 316.015 177.799 316.55 154.925 315.581C154.104 315.551 154.104 316.825 154.925 316.856Z" fill="black"/>
<path d="M156.326 307.534C175.245 308.354 194.169 309.022 213.083 309.842C213.904 309.878 213.904 308.604 213.083 308.568C194.164 307.748 175.24 307.08 156.326 306.259C155.511 306.224 155.511 307.498 156.326 307.534Z" fill="black"/>
<path d="M150.154 239.126C172.789 238.932 195.428 238.744 218.063 238.453C222.303 238.397 226.549 238.397 230.784 238.234C231.599 238.203 231.605 236.929 230.784 236.96C207.023 237.872 183.171 237.561 159.395 237.77C156.316 237.796 153.238 237.826 150.154 237.852C149.334 237.857 149.329 239.131 150.154 239.126Z" fill="black"/>
<path d="M150.949 238.412C150.628 237.204 150.256 235.864 151.036 234.758C151.688 233.835 152.815 233.163 153.686 232.464C154.328 231.955 153.421 231.058 152.784 231.562C151.642 232.475 150.103 233.367 149.548 234.794C149.053 236.073 149.38 237.469 149.716 238.744C149.935 239.544 151.163 239.207 150.949 238.412Z" fill="black"/>
<path d="M222.206 196.288C221.054 198.597 220.555 201.043 220.066 203.561C219.408 206.93 218.669 210.279 217.808 213.602C217.4 215.182 216.967 216.762 216.513 218.331C216.126 219.672 215.881 221.894 215.076 223.02C214.393 223.973 213.628 224.284 213.465 222.679C213.394 221.986 213.419 221.277 213.409 220.584C213.369 218.821 213.333 217.057 213.292 215.294C213.277 214.692 212.446 214.59 212.263 215.156C210.871 219.402 210.387 224.218 208.272 228.193C207.772 229.136 206.957 230.523 206.534 228.836C206.305 227.934 206.57 226.761 206.687 225.869C207.166 222.302 207.849 218.765 208.669 215.258C208.797 214.703 207.981 214.295 207.711 214.855C206.575 217.18 205.438 219.504 204.409 221.879C204.031 222.755 203.659 223.642 203.318 224.534C203.007 225.334 202.579 227.918 201.983 228.413C201.417 228.423 200.846 228.428 200.28 228.438C200.352 227.888 200.418 227.342 200.489 226.792C200.576 226.18 200.683 225.564 200.785 224.957C200.994 223.734 201.223 222.516 201.473 221.298C202.034 218.561 202.711 215.854 203.466 213.163C203.654 212.491 202.706 212.282 202.451 212.883C201.544 215.034 200.642 217.19 199.735 219.341C199.348 220.263 198.96 221.186 198.573 222.108C198.313 222.725 198.058 223.336 197.798 223.953C195.861 224.035 195.178 223.438 195.754 222.159C195.652 220.528 196.748 218.326 197.273 216.797C198.063 214.488 199.006 212.231 199.995 209.998C201.616 206.349 203.145 202.496 205.127 199.025C207.227 195.356 211.325 192.557 215.28 191.248C215.917 191.034 215.647 190.019 214.999 190.233C210.479 191.732 206.04 194.948 203.828 199.234C201.04 204.626 198.425 210.345 196.412 216.079C195.856 217.659 192.064 226.935 196.504 226.858C198.196 226.828 198.69 224.519 199.2 223.311C200.622 219.927 202.044 216.548 203.466 213.163C203.129 213.072 202.793 212.975 202.451 212.883C201.361 216.767 200.448 220.696 199.771 224.677C199.516 226.175 198.293 229.88 200.448 230.665C202.589 231.445 203.109 228.25 203.547 226.96C204.903 222.969 206.768 219.172 208.618 215.391C208.297 215.258 207.976 215.12 207.66 214.988C207.38 216.181 203.405 232.189 207.329 230.9C209.098 230.319 209.938 227.093 210.428 225.594C211.518 222.251 212.181 218.785 213.277 215.442C212.935 215.396 212.589 215.35 212.247 215.304C212.298 217.546 212.278 219.799 212.395 222.037C212.451 223.158 212.492 224.447 213.251 225.355C214.811 227.215 215.688 224.575 216.095 223.311C217.502 218.958 218.72 214.545 219.76 210.085C220.769 205.737 221.11 200.86 223.118 196.828C223.414 196.217 222.512 195.682 222.206 196.288Z" fill="black"/>
<path d="M181.453 216.782C184.613 216.879 187.773 216.971 190.933 217.067C193.063 217.134 195.097 217.312 197.008 216.237C197.722 215.834 197.079 214.733 196.366 215.136C194.215 216.344 191.305 215.803 188.935 215.732C186.438 215.656 183.945 215.584 181.448 215.508C180.632 215.482 180.632 216.757 181.453 216.782Z" fill="black"/>
<path d="M211.101 54.6156C211.646 61.0935 213.007 67.4593 214.23 73.8302C214.383 74.6354 215.611 74.294 215.458 73.4938C214.255 67.235 212.91 60.9814 212.375 54.6156C212.309 53.8053 211.034 53.7951 211.101 54.6156Z" fill="black"/>
<path d="M194.74 61.4501C195.071 65.5529 195.469 69.6455 195.938 73.7382C196.029 74.5434 197.304 74.5536 197.212 73.7382C196.743 69.6506 196.345 65.5529 196.014 61.4501C195.953 60.6346 194.674 60.6295 194.74 61.4501Z" fill="black"/>
<path d="M196.208 75.1653C199.001 76.6739 202.329 76.9441 205.458 77.1021C208.888 77.2754 212.013 76.5516 214.964 74.778C215.667 74.355 215.025 73.2541 214.321 73.6771C209.531 76.5567 201.845 76.7555 196.855 74.0645C196.126 73.6771 195.484 74.7729 196.208 75.1653Z" fill="black"/>
<path d="M33.4555 89.0132C34.0823 89.9867 35.2699 90.3638 36.3402 89.9051C37.5073 89.4056 38.0425 88.2334 38.1291 87.0255C38.1852 86.2049 36.911 86.21 36.8549 87.0255C36.8142 87.632 36.6052 88.2436 36.0853 88.6004C35.5757 88.9469 34.9131 88.9214 34.5614 88.371C34.118 87.6779 33.012 88.32 33.4555 89.0132Z" fill="black"/>
<path d="M229.938 133.212C229.815 133.716 229.902 134.175 230.284 134.552C230.488 134.751 230.743 134.797 230.962 134.944C231.339 135.067 231.62 135.332 231.798 135.74C231.732 135.882 231.691 136.03 231.686 136.183C231.635 136.688 231.859 137.009 232.277 137.269C233.052 137.753 233.653 138.038 233.974 138.986C234.234 139.761 235.468 139.43 235.203 138.65C234.999 138.048 234.713 137.498 234.265 137.044C234.046 136.825 233.791 136.626 233.526 136.468C233.393 136.382 233.256 136.31 233.113 136.254C232.889 136.224 232.863 136.168 233.031 136.081C232.955 135.485 233.159 135.102 232.736 134.542C232.578 134.333 231.161 133.594 231.171 133.558C231.36 132.753 230.131 132.411 229.938 133.212Z" fill="black"/>
<path d="M221.875 129.843C221.681 129.42 223.363 129.297 223.628 129.083C224.123 128.691 224.036 127.982 224.51 127.646C224.999 127.299 225.652 127.626 226.197 127.274C226.865 126.841 227.089 125.969 227.746 125.48C228.399 124.996 227.762 123.89 227.104 124.379C226.737 124.654 226.406 124.924 226.12 125.286C225.927 125.526 225.794 125.852 225.55 126.035C225.244 126.265 225.152 126.188 224.785 126.183C223.98 126.173 223.378 126.428 223.088 127.228C223.037 127.361 223.042 127.661 222.961 127.763C222.599 128.207 222.492 127.87 222.094 127.957C221.753 128.033 221.447 128.089 221.161 128.314C220.453 128.869 220.443 129.731 220.784 130.48C221.11 131.229 222.206 130.582 221.875 129.843Z" fill="black"/>
<path d="M234.336 148.242C234.142 147.819 235.824 147.696 236.089 147.482C236.584 147.09 236.497 146.381 236.971 146.045C237.46 145.698 238.113 146.025 238.658 145.673C239.326 145.24 239.55 144.368 240.207 143.879C240.86 143.395 240.223 142.289 239.565 142.778C239.198 143.053 238.867 143.323 238.582 143.685C238.388 143.925 238.255 144.251 238.011 144.434C237.705 144.664 237.613 144.587 237.246 144.582C236.441 144.572 235.84 144.827 235.549 145.627C235.498 145.76 235.503 146.06 235.422 146.162C235.06 146.606 234.953 146.269 234.555 146.356C234.214 146.432 233.908 146.488 233.623 146.713C232.914 147.268 232.904 148.13 233.245 148.879C233.572 149.628 234.672 148.981 234.336 148.242Z" fill="black"/>
<path d="M231.533 119.899C231.237 121.148 232.196 121.464 233.052 122.04C233.582 122.396 233.419 122.875 233.663 123.416C233.944 124.043 235.121 124.807 234.932 125.536C234.729 126.331 235.957 126.667 236.161 125.872C236.569 124.303 235.014 123.823 234.754 122.478C234.662 122.014 234.627 121.673 234.27 121.321C234.015 121.071 232.675 120.592 232.761 120.235C232.955 119.44 231.722 119.099 231.533 119.899Z" fill="black"/>
<path d="M220.402 115.516C219.913 114.547 220.988 113.844 221.809 114.384C222.028 114.527 222.41 114.491 222.578 114.282C222.797 114.017 222.935 113.793 222.961 113.436C223.011 112.789 222.711 112.55 223.399 112.188C224.194 111.765 224.979 111.382 224.913 110.353C224.862 109.537 223.587 109.532 223.638 110.353C223.674 110.908 222.252 111.28 221.926 111.719C221.773 111.923 221.686 112.142 221.646 112.397C221.615 112.595 221.788 113.243 221.676 113.38C221.931 113.345 222.191 113.314 222.446 113.278C220.443 111.963 218.251 114.079 219.296 116.153C219.673 116.892 220.769 116.25 220.402 115.516Z" fill="black"/>
<path d="M242.032 131.127C241.838 130.704 243.52 130.582 243.785 130.368C244.28 129.975 244.193 129.267 244.667 128.93C245.156 128.584 245.809 128.91 246.354 128.558C247.022 128.125 247.246 127.253 247.904 126.764C248.556 126.28 247.919 125.174 247.261 125.663C246.894 125.939 246.563 126.209 246.278 126.571C246.084 126.81 245.951 127.136 245.707 127.32C245.401 127.549 245.309 127.473 244.942 127.468C244.137 127.457 243.536 127.712 243.245 128.512C243.194 128.645 243.199 128.946 243.118 129.048C242.756 129.491 242.649 129.155 242.251 129.241C241.91 129.318 241.604 129.374 241.319 129.598C240.61 130.154 240.6 131.015 240.941 131.764C241.268 132.518 242.369 131.871 242.032 131.127Z" fill="black"/>
<path d="M240.559 116.805C240.07 115.837 241.145 115.134 241.966 115.674C242.185 115.816 242.567 115.781 242.735 115.572C242.955 115.307 243.092 115.083 243.118 114.726C243.169 114.079 242.868 113.839 243.556 113.477C244.351 113.054 245.136 112.672 245.07 111.642C245.019 110.827 243.745 110.822 243.796 111.642C243.831 112.198 242.409 112.57 242.083 113.008C241.93 113.212 241.844 113.431 241.803 113.686C241.772 113.885 241.946 114.532 241.833 114.67C242.088 114.634 242.348 114.603 242.603 114.568C240.6 113.253 238.408 115.368 239.453 117.442C239.83 118.181 240.931 117.534 240.559 116.805Z" fill="black"/>
<path d="M229.25 108.406C229.26 108.661 229.27 108.911 229.28 109.165C229.291 109.441 229.469 109.716 229.749 109.782C230.198 109.889 230.855 109.68 231.237 109.823C231.818 110.042 231.599 111.046 231.854 111.52C232.038 111.862 232.328 112.116 232.726 112.172C233.189 112.244 234.321 111.474 234.244 112.376C234.178 113.192 235.452 113.187 235.519 112.376C235.57 111.734 235.264 111.123 234.698 110.796C234.443 110.649 234.117 110.572 233.827 110.592C233.475 110.618 233.098 110.975 232.919 110.613C232.797 110.363 232.95 109.864 232.858 109.563C232.766 109.267 232.578 109.002 232.323 108.819C231.64 108.335 230.84 108.732 230.091 108.554C230.249 108.758 230.402 108.962 230.56 109.17C230.549 108.916 230.539 108.666 230.529 108.411C230.488 107.591 229.214 107.585 229.25 108.406Z" fill="black"/>
<path d="M240.977 97.3768C240.987 97.6316 240.998 97.8814 241.008 98.1362C241.018 98.4114 241.196 98.6866 241.477 98.7529C241.925 98.8599 242.583 98.651 242.965 98.7937C243.546 99.0128 243.327 100.017 243.582 100.491C243.765 100.832 244.056 101.087 244.453 101.143C244.917 101.215 246.048 100.445 245.972 101.347C245.906 102.163 247.18 102.157 247.246 101.347C247.297 100.705 246.991 100.093 246.426 99.7671C246.171 99.6193 245.845 99.5429 245.554 99.5633C245.202 99.5888 244.825 99.9455 244.647 99.5837C244.525 99.3339 244.677 98.8344 244.586 98.5337C244.494 98.2381 244.305 97.9731 244.051 97.7896C243.368 97.3054 242.567 97.703 241.818 97.5246C241.976 97.7285 242.129 97.9323 242.287 98.1413C242.277 97.8865 242.267 97.6367 242.257 97.3819C242.216 96.5613 240.942 96.5562 240.977 97.3768Z" fill="black"/>
<path d="M212.782 100.45C212.793 100.705 212.803 100.955 212.813 101.21C212.823 101.485 213.002 101.76 213.282 101.826C213.73 101.933 214.388 101.724 214.77 101.867C215.351 102.086 215.132 103.09 215.387 103.564C215.57 103.906 215.861 104.161 216.258 104.217C216.722 104.288 217.854 103.518 217.777 104.42C217.711 105.236 218.985 105.231 219.051 104.42C219.102 103.778 218.797 103.167 218.231 102.84C217.976 102.693 217.65 102.616 217.359 102.637C217.008 102.662 216.63 103.019 216.452 102.657C216.33 102.407 216.483 101.908 216.391 101.607C216.299 101.311 216.111 101.046 215.856 100.863C215.173 100.379 214.373 100.776 213.623 100.598C213.781 100.802 213.934 101.006 214.092 101.215C214.082 100.96 214.072 100.71 214.062 100.455C214.021 99.6347 212.747 99.6296 212.782 100.45Z" fill="black"/>
<path d="M232.226 83.9011C232.237 84.1559 232.247 84.4057 232.257 84.6605C232.267 84.9357 232.445 85.211 232.726 85.2772C233.174 85.3842 233.832 85.1753 234.214 85.318C234.795 85.5371 234.576 86.5412 234.831 87.0152C235.014 87.3567 235.305 87.6115 235.702 87.6676C236.166 87.7389 237.298 86.9693 237.221 87.8714C237.155 88.6869 238.429 88.6818 238.495 87.8714C238.546 87.2293 238.24 86.6176 237.675 86.2915C237.42 86.1436 237.094 86.0672 236.803 86.0876C236.451 86.1131 236.074 86.4698 235.896 86.108C235.774 85.8582 235.927 85.3587 235.835 85.058C235.743 84.7624 235.554 84.4974 235.3 84.3139C234.617 83.8297 233.816 84.2273 233.067 84.0489C233.225 84.2528 233.378 84.4566 233.536 84.6656C233.526 84.4108 233.516 84.161 233.506 83.9062C233.465 83.0856 232.191 83.0805 232.226 83.9011Z" fill="black"/>
<path d="M215.58 78.6668C215.591 78.9217 215.601 79.1714 215.611 79.4262C215.621 79.7015 215.799 79.9767 216.08 80.0429C216.528 80.15 217.186 79.941 217.568 80.0837C218.149 80.3029 217.93 81.3069 218.185 81.7809C218.368 82.1224 218.659 82.3772 219.056 82.4333C219.52 82.5046 220.652 81.735 220.575 82.6371C220.509 83.4526 221.783 83.4475 221.849 82.6371C221.9 81.995 221.594 81.3834 221.029 81.0572C220.774 80.9094 220.448 80.8329 220.157 80.8533C219.805 80.8788 219.428 81.2356 219.25 80.8737C219.128 80.624 219.281 80.1245 219.189 79.8238C219.097 79.5282 218.908 79.2632 218.654 79.0797C217.971 78.5955 217.171 78.993 216.421 78.8146C216.579 79.0185 216.732 79.2224 216.89 79.4313C216.88 79.1765 216.87 78.9268 216.86 78.6719C216.819 77.8514 215.545 77.8463 215.58 78.6668Z" fill="black"/>
<path d="M195.581 93.544C195.591 93.7989 195.601 94.0486 195.612 94.3034C195.622 94.5787 195.8 94.8539 196.081 94.9201C196.529 95.0272 197.187 94.8182 197.569 94.9609C198.15 95.1801 197.931 96.1841 198.185 96.6581C198.369 96.9996 198.659 97.2544 199.057 97.3105C199.521 97.3818 200.652 96.6122 200.576 97.5143C200.51 98.3298 201.784 98.3247 201.85 97.5143C201.901 96.8722 201.595 96.2606 201.029 95.9344C200.775 95.7866 200.448 95.7101 200.158 95.7305C199.806 95.756 199.429 96.1128 199.251 95.7509C199.128 95.5012 199.281 95.0017 199.19 94.701C199.098 94.4054 198.909 94.1403 198.654 93.9569C197.971 93.4727 197.171 93.8702 196.422 93.6918C196.58 93.8957 196.733 94.0996 196.891 94.3085C196.881 94.0537 196.871 93.804 196.86 93.5491C196.82 92.7286 195.545 92.7235 195.581 93.544Z" fill="black"/>
<path d="M220.438 97.0506C220.142 96.4441 220.371 95.6949 220.917 95.3126C221.406 94.9711 221.89 95.1597 222.43 95.1037C223.113 95.0374 223.598 94.65 223.751 93.9722C223.832 93.6103 223.71 93.2688 223.735 92.9121C223.781 92.2342 223.934 92.382 224.541 92.3616C225.264 92.3362 225.871 92.0355 226.034 91.2964C226.212 90.4963 224.984 90.1548 224.806 90.96C224.755 91.1843 223.613 91.0416 223.384 91.118C223.012 91.2455 222.741 91.4799 222.583 91.8367C222.405 92.2291 222.451 92.6368 222.476 93.0548C222.537 93.9518 222.196 93.7479 221.442 93.7989C219.546 93.9314 218.547 96.0618 219.342 97.6826C219.699 98.4318 220.799 97.7845 220.438 97.0506Z" fill="black"/>
<path d="M206.111 91.5971C205.815 90.9906 206.044 90.2414 206.59 89.8591C207.079 89.5177 207.563 89.7062 208.104 89.6502C208.786 89.5839 209.271 89.1966 209.424 88.5187C209.505 88.1568 209.383 87.8154 209.408 87.4586C209.454 86.7807 209.607 86.9285 210.214 86.9081C210.937 86.8827 211.544 86.582 211.707 85.8429C211.885 85.0428 210.657 84.7013 210.479 85.5066C210.428 85.7308 209.286 85.5881 209.057 85.6646C208.685 85.792 208.414 86.0264 208.256 86.3832C208.078 86.7756 208.124 87.1834 208.149 87.6013C208.211 88.4983 207.869 88.2945 207.115 88.3454C205.219 88.4779 204.22 90.6083 205.015 92.2291C205.372 92.9732 206.467 92.331 206.111 91.5971Z" fill="black"/>
<path d="M188.741 91.0213C188.446 90.4148 188.675 89.6656 189.22 89.2833C189.71 88.9419 190.194 89.1304 190.734 89.0744C191.417 89.0081 191.901 88.6208 192.054 87.9429C192.136 87.581 192.013 87.2396 192.039 86.8828C192.085 86.2049 192.238 86.3527 192.844 86.3323C193.568 86.3069 194.174 86.0062 194.337 85.2671C194.516 84.467 193.288 84.1255 193.109 84.9308C193.058 85.155 191.917 85.0123 191.687 85.0887C191.315 85.2162 191.045 85.4506 190.887 85.8074C190.709 86.1998 190.755 86.6076 190.78 87.0255C190.841 87.9225 190.5 87.7186 189.745 87.7696C187.849 87.9021 186.85 90.0325 187.646 91.6533C188.002 92.4025 189.103 91.7552 188.741 91.0213Z" fill="black"/>
<path d="M196.56 126.372C196.57 126.627 196.58 126.876 196.59 127.131C196.6 127.407 196.779 127.682 197.059 127.748C197.508 127.855 198.165 127.646 198.547 127.789C199.128 128.008 198.909 129.012 199.164 129.486C199.347 129.827 199.638 130.082 200.036 130.138C200.499 130.21 201.631 129.44 201.554 130.342C201.488 131.158 202.762 131.153 202.828 130.342C202.879 129.7 202.574 129.088 202.008 128.762C201.753 128.614 201.427 128.538 201.136 128.558C200.785 128.584 200.408 128.941 200.229 128.579C200.107 128.329 200.26 127.83 200.168 127.529C200.076 127.233 199.888 126.968 199.633 126.785C198.95 126.301 198.15 126.698 197.401 126.52C197.559 126.724 197.711 126.927 197.869 127.136C197.859 126.882 197.849 126.632 197.839 126.377C197.798 125.556 196.524 125.551 196.56 126.372Z" fill="black"/>
<path d="M199.949 105.328C199.959 105.582 199.969 105.832 199.979 106.087C199.99 106.362 200.168 106.637 200.448 106.704C200.897 106.811 201.554 106.602 201.936 106.744C202.517 106.964 202.298 107.968 202.553 108.442C202.737 108.783 203.027 109.038 203.425 109.094C203.889 109.165 205.02 108.396 204.944 109.298C204.877 110.113 206.151 110.108 206.218 109.298C206.269 108.656 205.963 108.044 205.397 107.718C205.142 107.57 204.816 107.494 204.526 107.514C204.174 107.54 203.797 107.896 203.618 107.534C203.496 107.285 203.649 106.785 203.557 106.485C203.465 106.189 203.277 105.924 203.022 105.74C202.339 105.256 201.539 105.654 200.79 105.475C200.948 105.679 201.101 105.883 201.259 106.092C201.248 105.837 201.238 105.588 201.228 105.333C201.187 104.512 199.913 104.507 199.949 105.328Z" fill="black"/>
<path d="M209.449 126.081C209.459 126.336 209.469 126.586 209.48 126.841C209.49 127.116 209.668 127.391 209.948 127.457C210.397 127.564 211.054 127.355 211.437 127.498C212.018 127.717 211.799 128.721 212.053 129.195C212.237 129.537 212.527 129.792 212.925 129.848C213.389 129.919 214.52 129.15 214.444 130.052C214.378 130.867 215.652 130.862 215.718 130.052C215.769 129.409 215.463 128.798 214.897 128.472C214.643 128.324 214.316 128.247 214.026 128.268C213.674 128.293 213.297 128.65 213.119 128.288C212.996 128.038 213.149 127.539 213.057 127.238C212.966 126.943 212.777 126.678 212.522 126.494C211.839 126.01 211.039 126.407 210.29 126.229C210.448 126.433 210.601 126.637 210.759 126.846C210.749 126.591 210.738 126.341 210.728 126.086C210.687 125.261 209.413 125.256 209.449 126.081Z" fill="black"/>
<path d="M189.939 136.535C189.949 136.789 189.959 137.039 189.97 137.294C189.98 137.569 190.158 137.845 190.438 137.911C190.887 138.018 191.544 137.809 191.927 137.952C192.508 138.171 192.289 139.175 192.543 139.649C192.727 139.99 193.017 140.245 193.415 140.301C193.879 140.372 195.01 139.603 194.934 140.505C194.867 141.32 196.142 141.315 196.208 140.505C196.259 139.863 195.953 139.251 195.387 138.925C195.132 138.777 194.806 138.701 194.516 138.721C194.164 138.747 193.787 139.103 193.609 138.742C193.486 138.492 193.639 137.992 193.547 137.692C193.456 137.396 193.267 137.131 193.012 136.947C192.329 136.463 191.529 136.861 190.78 136.682C190.938 136.886 191.091 137.09 191.249 137.299C191.239 137.044 191.228 136.795 191.218 136.54C191.177 135.719 189.903 135.714 189.939 136.535Z" fill="black"/>
<path d="M176.657 138.11C176.667 138.364 176.677 138.614 176.688 138.869C176.698 139.144 176.876 139.419 177.156 139.486C177.605 139.593 178.262 139.384 178.645 139.526C179.226 139.746 179.007 140.75 179.261 141.224C179.445 141.565 179.735 141.82 180.133 141.876C180.597 141.947 181.728 141.178 181.652 142.08C181.586 142.895 182.86 142.89 182.926 142.08C182.977 141.438 182.671 140.826 182.105 140.5C181.851 140.352 181.524 140.276 181.234 140.296C180.882 140.321 180.505 140.678 180.327 140.316C180.204 140.067 180.357 139.567 180.265 139.266C180.174 138.971 179.985 138.706 179.73 138.522C179.047 138.038 178.247 138.436 177.498 138.257C177.656 138.461 177.809 138.665 177.967 138.874C177.957 138.619 177.946 138.369 177.936 138.115C177.895 137.289 176.621 137.284 176.657 138.11Z" fill="black"/>
<path d="M201.763 120.368C201.468 119.761 201.697 119.012 202.242 118.63C202.732 118.289 203.216 118.477 203.756 118.421C204.439 118.355 204.923 117.967 205.076 117.29C205.158 116.928 205.035 116.586 205.061 116.229C205.107 115.552 205.26 115.699 205.866 115.679C206.59 115.654 207.196 115.353 207.359 114.614C207.538 113.814 206.31 113.472 206.131 114.277C206.08 114.502 204.939 114.359 204.709 114.435C204.337 114.563 204.067 114.797 203.909 115.154C203.731 115.547 203.776 115.954 203.802 116.372C203.863 117.269 203.522 117.065 202.767 117.116C200.871 117.249 199.872 119.379 200.668 121C201.024 121.744 202.12 121.102 201.763 120.368Z" fill="black"/>
<path d="M189.169 114.563C188.874 113.956 189.103 113.207 189.648 112.825C190.138 112.483 190.622 112.672 191.162 112.616C191.845 112.549 192.329 112.162 192.482 111.484C192.564 111.122 192.441 110.781 192.467 110.424C192.513 109.746 192.666 109.894 193.272 109.874C193.996 109.848 194.602 109.548 194.765 108.809C194.944 108.008 193.716 107.667 193.537 108.472C193.486 108.696 192.345 108.554 192.115 108.63C191.743 108.758 191.473 108.992 191.315 109.349C191.137 109.741 191.183 110.149 191.208 110.567C191.269 111.464 190.928 111.26 190.173 111.311C188.277 111.444 187.278 113.574 188.074 115.195C188.43 115.939 189.531 115.297 189.169 114.563Z" fill="black"/>
<path d="M187.35 127.565C187.054 126.958 187.283 126.209 187.829 125.827C188.318 125.485 188.802 125.674 189.343 125.618C190.025 125.551 190.51 125.164 190.663 124.486C190.744 124.124 190.622 123.783 190.647 123.426C190.693 122.748 190.846 122.896 191.453 122.876C192.176 122.85 192.783 122.549 192.946 121.81C193.124 121.01 191.896 120.669 191.718 121.474C191.667 121.698 190.525 121.556 190.296 121.632C189.924 121.759 189.653 121.994 189.495 122.351C189.317 122.743 189.363 123.151 189.388 123.569C189.45 124.466 189.108 124.262 188.354 124.313C186.458 124.445 185.459 126.576 186.254 128.197C186.611 128.941 187.712 128.299 187.35 127.565Z" fill="black"/>
<path d="M171.846 114.41C171.856 114.665 171.866 114.914 171.876 115.169C171.886 115.445 172.065 115.72 172.345 115.786C172.794 115.893 173.451 115.684 173.833 115.827C174.414 116.046 174.195 117.05 174.45 117.524C174.634 117.865 174.924 118.12 175.322 118.176C175.785 118.248 176.917 117.478 176.84 118.38C176.774 119.196 178.048 119.191 178.115 118.38C178.166 117.738 177.86 117.126 177.294 116.8C177.039 116.652 176.713 116.576 176.423 116.596C176.071 116.622 175.694 116.979 175.515 116.617C175.393 116.367 175.546 115.868 175.454 115.567C175.362 115.271 175.174 115.006 174.919 114.823C174.236 114.339 173.436 114.736 172.687 114.558C172.845 114.762 172.998 114.965 173.156 115.174C173.145 114.92 173.135 114.67 173.125 114.415C173.084 113.594 171.81 113.589 171.846 114.41Z" fill="black"/>
<path d="M175.235 93.3656C175.245 93.6204 175.255 93.8701 175.266 94.125C175.276 94.4002 175.454 94.6754 175.735 94.7417C176.183 94.8487 176.841 94.6397 177.223 94.7825C177.804 95.0016 177.585 96.0057 177.84 96.4797C178.023 96.8211 178.313 97.076 178.711 97.132C179.175 97.2034 180.306 96.4338 180.23 97.3359C180.164 98.1514 181.438 98.1463 181.504 97.3359C181.555 96.6937 181.249 96.0821 180.683 95.7559C180.429 95.6081 180.102 95.5317 179.812 95.552C179.46 95.5775 179.083 95.9343 178.905 95.5724C178.782 95.3227 178.935 94.8232 178.844 94.5225C178.752 94.2269 178.563 93.9619 178.308 93.7784C177.625 93.2942 176.825 93.6918 176.076 93.5134C176.234 93.7172 176.387 93.9211 176.545 94.1301C176.535 93.8752 176.525 93.6255 176.514 93.3707C176.474 92.5501 175.199 92.545 175.235 93.3656Z" fill="black"/>
<path d="M177.049 108.406C176.754 107.799 176.983 107.05 177.529 106.668C178.018 106.327 178.502 106.515 179.042 106.459C179.725 106.393 180.209 106.005 180.362 105.328C180.444 104.966 180.322 104.624 180.347 104.267C180.393 103.59 180.546 103.737 181.152 103.717C181.876 103.692 182.482 103.391 182.646 102.652C182.824 101.852 181.596 101.51 181.417 102.315C181.366 102.54 180.225 102.397 179.995 102.473C179.623 102.601 179.353 102.835 179.195 103.192C179.017 103.584 179.063 103.992 179.088 104.41C179.149 105.307 178.808 105.103 178.053 105.154C176.158 105.287 175.159 107.417 175.954 109.038C176.31 109.782 177.411 109.14 177.049 108.406Z" fill="black"/>
<path d="M148.467 93.0192C148.477 93.2741 148.488 93.5238 148.498 93.7787C148.508 94.0539 148.686 94.3291 148.967 94.3954C149.415 94.5024 150.073 94.2934 150.455 94.4361C151.036 94.6553 150.817 95.6593 151.072 96.1333C151.255 96.4748 151.546 96.7296 151.943 96.7857C152.407 96.857 153.539 96.0874 153.462 96.9895C153.396 97.805 154.67 97.7999 154.736 96.9895C154.787 96.3474 154.481 95.7358 153.916 95.4096C153.661 95.2618 153.335 95.1853 153.044 95.2057C152.692 95.2312 152.315 95.588 152.137 95.2261C152.015 94.9764 152.167 94.4769 152.076 94.1762C151.984 93.8806 151.795 93.6156 151.541 93.4321C150.858 92.9479 150.057 93.3454 149.308 93.1671C149.466 93.3709 149.619 93.5748 149.777 93.7837C149.767 93.5289 149.757 93.2792 149.747 93.0244C149.706 92.2038 148.432 92.1987 148.467 93.0192Z" fill="black"/>
<path d="M141.628 90.5014C141.332 89.8949 141.561 89.1457 142.107 88.7634C142.596 88.422 143.08 88.6105 143.62 88.5545C144.303 88.4882 144.788 88.1009 144.94 87.423C145.022 87.0611 144.9 86.7196 144.925 86.3629C144.971 85.685 145.124 85.8328 145.73 85.8124C146.454 85.787 147.061 85.4863 147.224 84.7472C147.402 83.9471 146.174 83.6056 145.995 84.4109C145.944 84.6351 144.803 84.4924 144.573 84.5689C144.201 84.6963 143.931 84.9307 143.773 85.2875C143.595 85.6799 143.641 86.0877 143.666 86.5056C143.727 87.4026 143.386 87.1987 142.632 87.2497C140.736 87.3822 139.737 89.5126 140.532 91.1334C140.889 91.8775 141.989 91.2353 141.628 90.5014Z" fill="black"/>
<path d="M176.438 84.0132C176.142 83.4067 176.372 82.6575 176.917 82.2753C177.406 81.9338 177.89 82.1224 178.431 82.0663C179.114 82 179.598 81.6127 179.751 80.9348C179.832 80.573 179.71 80.2315 179.735 79.8747C179.781 79.1969 179.934 79.3447 180.541 79.3243C181.265 79.2988 181.871 78.9981 182.034 78.2591C182.212 77.4589 180.984 77.1174 180.806 77.9227C180.755 78.147 179.613 78.0042 179.384 78.0807C179.012 78.2081 178.742 78.4426 178.584 78.7993C178.405 79.1918 178.451 79.5995 178.477 80.0174C178.538 80.9145 178.196 80.7106 177.442 80.7616C175.546 80.8941 174.547 83.0245 175.342 84.6452C175.699 85.3893 176.8 84.7472 176.438 84.0132Z" fill="black"/>
<path d="M159.114 83.8604C159.124 84.1153 159.135 84.365 159.145 84.6199C159.155 84.8951 159.333 85.1703 159.614 85.2366C160.062 85.3436 160.72 85.1346 161.102 85.2773C161.683 85.4965 161.464 86.5005 161.719 86.9745C161.902 87.316 162.193 87.5709 162.59 87.6269C163.054 87.6983 164.185 86.9287 164.109 87.8308C164.043 88.6463 165.317 88.6412 165.383 87.8308C165.434 87.1886 165.128 86.577 164.563 86.2508C164.308 86.103 163.982 86.0265 163.691 86.0469C163.339 86.0724 162.962 86.4292 162.784 86.0673C162.662 85.8176 162.814 85.3181 162.723 85.0174C162.631 84.7218 162.442 84.4568 162.188 84.2733C161.505 83.7891 160.704 84.1866 159.955 84.0082C160.113 84.2121 160.266 84.416 160.424 84.625C160.414 84.3701 160.404 84.1204 160.394 83.8655C160.353 83.045 159.079 83.0399 159.114 83.8604Z" fill="black"/>
<path d="M144.752 72.245C144.762 72.4998 144.772 72.7495 144.782 73.0044C144.792 73.2796 144.971 73.5548 145.251 73.6211C145.7 73.7281 146.357 73.5191 146.739 73.6618C147.32 73.881 147.101 74.885 147.356 75.359C147.54 75.7005 147.83 75.9553 148.228 76.0114C148.691 76.0827 149.823 75.3132 149.746 76.2153C149.68 77.0307 150.954 77.0256 151.021 76.2153C151.072 75.5731 150.766 74.9615 150.2 74.6353C149.945 74.4875 149.619 74.411 149.329 74.4314C148.977 74.4569 148.6 74.8137 148.421 74.4518C148.299 74.2021 148.452 73.7026 148.36 73.4019C148.268 73.1063 148.08 72.8413 147.825 72.6578C147.142 72.1736 146.342 72.5712 145.593 72.3928C145.751 72.5966 145.904 72.8005 146.062 73.0095C146.051 72.7546 146.041 72.5049 146.031 72.2501C145.99 71.4295 144.716 71.4244 144.752 72.245Z" fill="black"/>
<path d="M164.318 77.8564C164.022 77.2499 164.252 76.5007 164.797 76.1184C165.286 75.7769 165.771 75.9655 166.311 75.9094C166.994 75.8432 167.478 75.4558 167.631 74.778C167.712 74.4161 167.59 74.0746 167.616 73.7179C167.661 73.04 167.814 73.1878 168.421 73.1674C169.145 73.1419 169.751 72.8412 169.914 72.1022C170.093 71.302 168.864 70.9606 168.686 71.7658C168.635 71.9901 167.493 71.8474 167.264 71.9238C166.892 72.0512 166.622 72.2857 166.464 72.6425C166.285 73.0349 166.331 73.4426 166.357 73.8606C166.418 74.7576 166.076 74.5537 165.322 74.6047C163.426 74.7372 162.427 76.8676 163.222 78.4884C163.579 79.2325 164.68 78.5903 164.318 77.8564Z" fill="black"/>
<path d="M164.461 102.601C164.165 101.994 164.394 101.245 164.94 100.863C165.429 100.521 165.913 100.71 166.453 100.654C167.136 100.588 167.62 100.2 167.773 99.5225C167.855 99.1606 167.733 98.8192 167.758 98.4624C167.804 97.7845 167.957 97.9323 168.563 97.9119C169.287 97.8864 169.894 97.5857 170.057 96.8467C170.235 96.0465 169.007 95.7051 168.828 96.5103C168.777 96.7346 167.636 96.5919 167.406 96.6683C167.034 96.7958 166.764 97.0302 166.606 97.387C166.428 97.7794 166.474 98.1872 166.499 98.6051C166.56 99.5021 166.219 99.2982 165.465 99.3492C163.569 99.4817 162.57 101.612 163.365 103.233C163.722 103.982 164.822 103.335 164.461 102.601Z" fill="black"/>
<path d="M132.163 79.9002C132.173 80.155 132.183 80.4048 132.193 80.6596C132.204 80.9348 132.382 81.21 132.662 81.2763C133.111 81.3833 133.768 81.1744 134.151 81.3171C134.732 81.5362 134.512 82.5403 134.767 83.0143C134.951 83.3557 135.241 83.6106 135.639 83.6666C136.103 83.738 137.234 82.9684 137.158 83.8705C137.091 84.686 138.365 84.6809 138.432 83.8705C138.483 83.2283 138.177 82.6167 137.611 82.2905C137.356 82.1427 137.03 82.0663 136.74 82.0867C136.388 82.1121 136.011 82.4689 135.832 82.1071C135.71 81.8573 135.863 81.3578 135.771 81.0571C135.68 80.7615 135.491 80.4965 135.236 80.313C134.553 79.8288 133.753 80.2264 133.004 80.048C133.162 80.2519 133.315 80.4557 133.473 80.6647C133.462 80.4099 133.452 80.1601 133.442 79.9053C133.401 79.0796 132.127 79.0796 132.163 79.9002Z" fill="black"/>
<path d="M104.202 78.1929C104.213 78.4477 104.223 78.6975 104.233 78.9523C104.243 79.2275 104.422 79.5027 104.702 79.569C105.15 79.676 105.808 79.467 106.19 79.6097C106.771 79.8289 106.552 80.833 106.807 81.3069C106.99 81.6484 107.281 81.9032 107.678 81.9593C108.142 82.0307 109.274 81.2611 109.197 82.1632C109.131 82.9786 110.405 82.9735 110.471 82.1632C110.522 81.521 110.217 80.9094 109.651 80.5832C109.396 80.4354 109.07 80.359 108.779 80.3793C108.428 80.4048 108.05 80.7616 107.872 80.3997C107.75 80.15 107.903 79.6505 107.811 79.3498C107.719 79.0542 107.531 78.7892 107.276 78.6057C106.593 78.1215 105.793 78.5191 105.043 78.3407C105.201 78.5445 105.354 78.7484 105.512 78.9574C105.502 78.7025 105.492 78.4528 105.482 78.198C105.441 77.3723 104.167 77.3672 104.202 78.1929Z" fill="black"/>
<path d="M97.3627 75.67C97.0671 75.0635 97.2964 74.3143 97.8418 73.932C98.3311 73.5905 98.8152 73.7791 99.3555 73.723C100.038 73.6568 100.523 73.2694 100.676 72.5916C100.757 72.2297 100.635 71.8882 100.66 71.5315C100.706 70.8536 100.859 71.0014 101.466 70.981C102.189 70.9555 102.796 70.6548 102.959 69.9158C103.137 69.1156 101.909 68.7742 101.731 69.5794C101.68 69.8037 100.538 69.661 100.309 69.7374C99.9365 69.8648 99.6664 70.0993 99.5084 70.4561C99.33 70.8485 99.3759 71.2563 99.4014 71.6742C99.4625 72.5712 99.121 72.3673 98.3667 72.4183C96.4708 72.5508 95.4718 74.6812 96.2669 76.302C96.6237 77.0461 97.7245 76.4039 97.3627 75.67Z" fill="black"/>
<path d="M70.7887 83.8043C70.4931 83.1978 70.7225 82.4485 71.2678 82.0663C71.7571 81.7248 72.2413 81.9134 72.7815 81.8573C73.4645 81.7911 73.9487 81.4037 74.1016 80.7259C74.1831 80.364 74.0608 80.0225 74.0863 79.6658C74.1321 78.9879 74.285 79.1357 74.8915 79.1153C75.6153 79.0898 76.2218 78.7891 76.3849 78.0501C76.5633 77.2499 75.335 76.9084 75.1566 77.7137C75.1056 77.938 73.964 77.7953 73.7346 77.8717C73.3625 77.9991 73.0924 78.2336 72.9344 78.5903C72.756 78.9828 72.8019 79.3905 72.8274 79.8085C72.8886 80.7055 72.5471 80.5016 71.7928 80.5526C69.8968 80.6851 68.8978 82.8155 69.6929 84.4362C70.0497 85.1855 71.1506 84.5382 70.7887 83.8043Z" fill="black"/>
<path d="M114.849 69.0289C114.86 69.2837 114.87 69.5335 114.88 69.7883C114.89 70.0635 115.069 70.3387 115.349 70.405C115.797 70.512 116.455 70.3031 116.837 70.4458C117.418 70.6649 117.199 71.669 117.454 72.143C117.637 72.4844 117.928 72.7393 118.325 72.7953C118.789 72.8667 119.921 72.0971 119.844 72.9992C119.778 73.8147 121.052 73.8096 121.118 72.9992C121.169 72.357 120.863 71.7454 120.298 71.4192C120.043 71.2714 119.717 71.195 119.426 71.2154C119.075 71.2408 118.697 71.5976 118.519 71.2357C118.397 70.986 118.55 70.4865 118.458 70.1858C118.366 69.8902 118.178 69.6252 117.923 69.4417C117.24 68.9575 116.44 69.3551 115.69 69.1767C115.848 69.3806 116.001 69.5844 116.159 69.7934C116.149 69.5386 116.139 69.2888 116.129 69.034C116.088 68.2134 114.814 68.2083 114.849 69.0289Z" fill="black"/>
<path d="M79.0403 82.7697C79.0505 83.0245 79.0607 83.2742 79.0709 83.5291C79.0811 83.8043 79.2594 84.0795 79.5397 84.1458C79.9883 84.2528 80.6457 84.0438 81.028 84.1865C81.609 84.4057 81.3898 85.4097 81.6447 85.8837C81.8282 86.2252 82.1187 86.4801 82.5162 86.5361C82.98 86.6075 84.1115 85.8379 84.035 86.74C83.9688 87.5555 85.2429 87.5504 85.3092 86.74C85.3601 86.0978 85.0544 85.4862 84.4886 85.16C84.2338 85.0122 83.9076 84.9358 83.6171 84.9561C83.2654 84.9816 82.8883 85.3384 82.7099 84.9765C82.5876 84.7268 82.7405 84.2273 82.6487 83.9266C82.557 83.631 82.3684 83.366 82.1136 83.1825C81.4306 82.6983 80.6304 83.0958 79.8812 82.9175C80.0392 83.1213 80.1921 83.3252 80.3501 83.5342C80.3399 83.2793 80.3297 83.0296 80.3195 82.7748C80.2788 81.9491 79.0046 81.944 79.0403 82.7697Z" fill="black"/>
<path d="M65.7022 68.4736C65.7123 68.7285 65.7225 68.9782 65.7327 69.233C65.7429 69.5083 65.9213 69.7835 66.2016 69.8497C66.6501 69.9568 67.3076 69.7478 67.6898 69.8905C68.2709 70.1097 68.0517 71.1137 68.3066 71.5877C68.49 71.9292 68.7805 72.184 69.1781 72.2401C69.6419 72.3114 70.7733 71.5418 70.6969 72.444C70.6306 73.2594 71.9048 73.2543 71.9711 72.444C72.022 71.8018 71.7162 71.1902 71.1505 70.864C70.8957 70.7162 70.5695 70.6397 70.279 70.6601C69.9273 70.6856 69.5501 71.0424 69.3718 70.6805C69.2494 70.4308 69.4023 69.9313 69.3106 69.6306C69.2189 69.335 69.0303 69.07 68.7754 68.8865C68.0925 68.4023 67.2923 68.7998 66.5431 68.6214C66.7011 68.8253 66.854 69.0292 67.012 69.2381C67.0018 68.9833 66.9916 68.7336 66.9814 68.4787C66.9406 67.6531 65.6665 67.648 65.7022 68.4736Z" fill="black"/>
<path d="M84.6516 70.8639C84.6618 71.1187 84.672 71.3684 84.6822 71.6233C84.6924 71.8985 84.8708 72.1737 85.1511 72.24C85.5996 72.347 86.2571 72.138 86.6393 72.2807C87.2203 72.4999 87.0012 73.5039 87.256 73.9779C87.4395 74.3194 87.73 74.5743 88.1275 74.6303C88.5913 74.7017 89.7228 73.9321 89.6463 74.8342C89.5801 75.6497 90.8542 75.6446 90.9205 74.8342C90.9715 74.192 90.6657 73.5804 90.0999 73.2542C89.8451 73.1064 89.5189 73.03 89.2284 73.0503C88.8767 73.0758 88.4996 73.4326 88.3212 73.0707C88.1989 72.821 88.3518 72.3215 88.2601 72.0208C88.1683 71.7252 87.9797 71.4602 87.7249 71.2767C87.0419 70.7925 86.2418 71.19 85.4926 71.0117C85.6506 71.2155 85.8035 71.4194 85.9615 71.6284C85.9513 71.3735 85.9411 71.1238 85.9309 70.869C85.8901 70.0484 84.6159 70.0433 84.6516 70.8639Z" fill="black"/>
<path d="M95.5434 88.5442C95.2477 87.9377 95.4771 87.1885 96.0224 86.8063C96.5117 86.4648 96.9959 86.6534 97.5361 86.5973C98.2191 86.531 98.7033 86.1437 98.8562 85.4658C98.9377 85.104 98.8154 84.7625 98.8409 84.4057C98.8868 83.7279 99.0397 83.8757 99.6462 83.8553C100.37 83.8298 100.976 83.5291 101.139 82.7901C101.318 81.9899 100.09 81.6484 99.9112 82.4537C99.8602 82.678 98.7186 82.5352 98.4892 82.6117C98.1172 82.7391 97.847 82.9736 97.689 83.3303C97.5107 83.7228 97.5565 84.1305 97.582 84.5484C97.6432 85.4454 97.3017 85.2416 96.5474 85.2926C94.6514 85.4251 93.6525 87.5555 94.4476 89.1762C94.8043 89.9254 95.9052 89.2781 95.5434 88.5442Z" fill="black"/>
<path d="M120.196 87.7695C119.9 87.163 120.13 86.4137 120.675 86.0315C121.164 85.69 121.648 85.8786 122.189 85.8225C122.872 85.7563 123.356 85.3689 123.509 84.6911C123.59 84.3292 123.468 83.9877 123.493 83.631C123.539 82.9531 123.692 83.1009 124.299 83.0805C125.022 83.055 125.629 82.7543 125.792 82.0153C125.97 81.2151 124.742 80.8736 124.564 81.6789C124.513 81.9032 123.371 81.7605 123.142 81.8369C122.77 81.9644 122.5 82.1988 122.342 82.5556C122.163 82.948 122.209 83.3557 122.235 83.7737C122.296 84.6707 121.954 84.4668 121.2 84.5178C119.304 84.6503 118.305 86.7807 119.1 88.4014C119.457 89.1507 120.558 88.5034 120.196 87.7695Z" fill="black"/>
<path d="M134.028 73.1879C133.733 72.5814 133.962 71.8322 134.508 71.45C134.997 71.1085 135.481 71.2971 136.021 71.241C136.704 71.1747 137.188 70.7874 137.341 70.1095C137.423 69.7477 137.301 69.4062 137.326 69.0494C137.372 68.3715 137.525 68.5194 138.131 68.499C138.855 68.4735 139.462 68.1728 139.625 67.4338C139.803 66.6336 138.575 66.2921 138.396 67.0974C138.345 67.3216 137.204 67.1789 136.974 67.2554C136.602 67.3828 136.332 67.6172 136.174 67.974C135.996 68.3665 136.042 68.7742 136.067 69.1921C136.128 70.0891 135.787 69.8853 135.032 69.9362C133.137 70.0688 132.138 72.1992 132.933 73.8199C133.289 74.5691 134.39 73.9218 134.028 73.1879Z" fill="black"/>
<path d="M174.471 132.427C174.175 131.82 174.404 131.071 174.95 130.689C175.439 130.347 175.923 130.536 176.463 130.48C177.146 130.414 177.631 130.026 177.783 129.348C177.865 128.987 177.743 128.645 177.768 128.288C177.814 127.61 177.967 127.758 178.573 127.738C179.297 127.712 179.904 127.412 180.067 126.673C180.245 125.872 179.017 125.531 178.838 126.336C178.787 126.561 177.646 126.418 177.416 126.494C177.044 126.622 176.774 126.856 176.616 127.213C176.438 127.605 176.484 128.013 176.509 128.431C176.57 129.328 176.229 129.124 175.475 129.175C173.579 129.308 172.58 131.438 173.375 133.059C173.732 133.808 174.832 133.161 174.471 132.427Z" fill="black"/>
<path d="M185.734 153.812C185.438 153.206 185.668 152.457 186.213 152.074C186.702 151.733 187.187 151.922 187.727 151.865C188.41 151.799 188.894 151.412 189.047 150.734C189.128 150.372 189.006 150.031 189.032 149.674C189.077 148.996 189.23 149.144 189.837 149.123C190.561 149.098 191.167 148.797 191.33 148.058C191.509 147.258 190.28 146.917 190.102 147.722C190.051 147.946 188.909 147.803 188.68 147.88C188.308 148.007 188.038 148.242 187.88 148.599C187.701 148.991 187.747 149.399 187.773 149.817C187.834 150.714 187.492 150.51 186.738 150.561C184.842 150.693 183.843 152.824 184.638 154.444C184.995 155.194 186.096 154.546 185.734 153.812Z" fill="black"/>
<path d="M206.692 154.179C206.702 154.434 206.712 154.684 206.722 154.939C206.732 155.214 206.911 155.489 207.191 155.556C207.64 155.663 208.297 155.454 208.679 155.596C209.26 155.815 209.041 156.819 209.296 157.293C209.48 157.635 209.77 157.89 210.168 157.946C210.631 158.017 211.763 157.248 211.686 158.15C211.62 158.965 212.894 158.96 212.961 158.15C213.012 157.508 212.706 156.896 212.14 156.57C211.885 156.422 211.559 156.345 211.268 156.366C210.917 156.391 210.54 156.748 210.361 156.386C210.239 156.137 210.392 155.637 210.3 155.336C210.208 155.041 210.02 154.776 209.765 154.592C209.082 154.108 208.282 154.506 207.533 154.327C207.691 154.531 207.844 154.735 208.001 154.944C207.991 154.689 207.981 154.439 207.971 154.185C207.93 153.364 206.656 153.359 206.692 154.179Z" fill="black"/>
<path d="M222.751 154.22C222.762 154.475 222.772 154.725 222.782 154.98C222.792 155.255 222.971 155.53 223.251 155.596C223.699 155.703 224.357 155.494 224.739 155.637C225.32 155.856 225.101 156.86 225.356 157.334C225.539 157.676 225.83 157.931 226.227 157.987C226.691 158.058 227.823 157.288 227.746 158.19C227.68 159.006 228.954 159.001 229.02 158.19C229.071 157.548 228.766 156.937 228.2 156.61C227.945 156.463 227.619 156.386 227.328 156.407C226.977 156.432 226.599 156.789 226.421 156.427C226.299 156.177 226.452 155.678 226.36 155.377C226.268 155.081 226.08 154.816 225.825 154.633C225.142 154.149 224.342 154.546 223.592 154.368C223.75 154.572 223.903 154.776 224.061 154.985C224.051 154.73 224.041 154.48 224.031 154.225C223.99 153.4 222.716 153.4 222.751 154.22Z" fill="black"/>
<path d="M245.671 136.912C245.681 137.167 245.692 137.416 245.702 137.671C245.712 137.946 245.89 138.222 246.171 138.288C246.619 138.395 247.277 138.186 247.659 138.329C248.24 138.548 248.021 139.552 248.276 140.026C248.459 140.367 248.75 140.622 249.147 140.678C249.611 140.75 250.742 139.98 250.666 140.882C250.6 141.698 251.874 141.692 251.94 140.882C251.991 140.24 251.685 139.628 251.12 139.302C250.865 139.154 250.539 139.078 250.248 139.098C249.896 139.124 249.519 139.48 249.341 139.119C249.218 138.869 249.371 138.369 249.28 138.069C249.188 137.773 248.999 137.508 248.744 137.325C248.062 136.84 247.261 137.238 246.512 137.06C246.67 137.263 246.823 137.467 246.981 137.676C246.971 137.421 246.961 137.172 246.95 136.917C246.915 136.096 245.635 136.091 245.671 136.912Z" fill="black"/>
<path d="M213.853 147.498C213.557 146.891 213.786 146.142 214.332 145.76C214.821 145.418 215.305 145.607 215.845 145.551C216.528 145.484 217.013 145.097 217.166 144.419C217.247 144.057 217.125 143.716 217.15 143.359C217.196 142.681 217.349 142.829 217.955 142.809C218.679 142.783 219.286 142.482 219.449 141.743C219.627 140.943 218.399 140.602 218.221 141.407C218.17 141.631 217.028 141.489 216.799 141.565C216.426 141.692 216.156 141.927 215.998 142.284C215.82 142.676 215.866 143.084 215.891 143.502C215.952 144.399 215.611 144.195 214.857 144.246C212.961 144.378 211.962 146.509 212.757 148.13C213.114 148.874 214.215 148.232 213.853 147.498Z" fill="black"/>
<path d="M201.264 141.693C200.968 141.086 201.198 140.337 201.743 139.955C202.232 139.613 202.716 139.802 203.257 139.746C203.94 139.679 204.424 139.292 204.577 138.614C204.658 138.252 204.536 137.911 204.561 137.554C204.607 136.876 204.76 137.024 205.367 137.004C206.09 136.978 206.697 136.677 206.86 135.938C207.038 135.138 205.81 134.797 205.632 135.602C205.581 135.826 204.439 135.684 204.21 135.76C203.838 135.887 203.567 136.122 203.409 136.479C203.231 136.871 203.277 137.279 203.302 137.697C203.364 138.594 203.022 138.39 202.268 138.441C200.372 138.573 199.373 140.704 200.168 142.325C200.525 143.074 201.626 142.426 201.264 141.693Z" fill="black"/>
<path d="M199.444 154.694C199.149 154.088 199.378 153.339 199.923 152.956C200.413 152.615 200.897 152.803 201.437 152.747C202.12 152.681 202.604 152.294 202.757 151.616C202.839 151.254 202.716 150.913 202.742 150.556C202.788 149.878 202.941 150.026 203.547 150.005C204.271 149.98 204.877 149.679 205.04 148.94C205.219 148.14 203.991 147.798 203.812 148.604C203.761 148.828 202.619 148.685 202.39 148.762C202.018 148.889 201.748 149.124 201.59 149.48C201.412 149.873 201.457 150.281 201.483 150.698C201.544 151.595 201.203 151.392 200.448 151.443C198.552 151.575 197.553 153.706 198.348 155.326C198.705 156.07 199.806 155.428 199.444 154.694Z" fill="black"/>
<path d="M187.304 163.639C187.314 163.894 187.324 164.143 187.335 164.398C187.345 164.673 187.523 164.949 187.803 165.015C188.252 165.122 188.909 164.913 189.292 165.056C189.873 165.275 189.654 166.279 189.908 166.753C190.092 167.094 190.382 167.349 190.78 167.405C191.244 167.477 192.375 166.707 192.299 167.609C192.232 168.425 193.507 168.419 193.573 167.609C193.624 166.967 193.318 166.355 192.752 166.029C192.497 165.881 192.171 165.805 191.881 165.825C191.529 165.851 191.152 166.207 190.974 165.846C190.851 165.596 191.004 165.096 190.912 164.796C190.821 164.5 190.632 164.235 190.377 164.052C189.694 163.567 188.894 163.965 188.145 163.787C188.303 163.99 188.456 164.194 188.614 164.403C188.604 164.148 188.593 163.899 188.583 163.644C188.542 162.823 187.268 162.818 187.304 163.639Z" fill="black"/>
<path d="M240.977 151.162C240.987 151.417 240.998 151.667 241.008 151.921C241.018 152.197 241.196 152.472 241.477 152.538C241.925 152.645 242.583 152.436 242.965 152.579C243.546 152.798 243.327 153.802 243.582 154.276C243.765 154.618 244.056 154.872 244.453 154.929C244.917 155 246.048 154.23 245.972 155.132C245.906 155.948 247.18 155.943 247.246 155.132C247.297 154.49 246.991 153.879 246.426 153.552C246.171 153.405 245.845 153.328 245.554 153.349C245.202 153.374 244.825 153.731 244.647 153.369C244.525 153.119 244.677 152.62 244.586 152.319C244.494 152.023 244.305 151.758 244.051 151.575C243.368 151.091 242.567 151.488 241.818 151.31C241.976 151.514 242.129 151.718 242.287 151.927C242.277 151.672 242.267 151.422 242.257 151.167C242.216 150.347 240.942 150.342 240.977 151.162Z" fill="black"/>
<path d="M213.73 169.658C213.608 170.163 213.695 170.621 214.077 170.998C214.281 171.197 214.536 171.243 214.755 171.391C215.132 171.513 215.412 171.778 215.591 172.186C215.524 172.329 215.484 172.476 215.479 172.629C215.428 173.134 215.652 173.455 216.07 173.715C216.844 174.199 217.446 174.485 217.767 175.433C218.027 176.207 219.26 175.876 218.995 175.096C218.791 174.495 218.506 173.944 218.057 173.491C217.838 173.272 217.583 173.073 217.318 172.915C217.186 172.828 217.048 172.757 216.906 172.701C216.681 172.67 216.656 172.614 216.824 172.527C216.748 171.931 216.952 171.549 216.528 170.988C216.37 170.779 214.954 170.04 214.964 170.005C215.152 169.199 213.924 168.858 213.73 169.658Z" fill="black"/>
<path d="M236.4 169.016C236.207 168.593 237.889 168.471 238.154 168.257C238.648 167.864 238.561 167.156 239.035 166.819C239.525 166.473 240.177 166.799 240.722 166.447C241.39 166.014 241.614 165.142 242.272 164.653C242.924 164.169 242.287 163.063 241.63 163.552C241.263 163.827 240.931 164.098 240.646 164.459C240.452 164.699 240.32 165.025 240.075 165.209C239.769 165.438 239.678 165.362 239.311 165.356C238.505 165.346 237.904 165.601 237.613 166.401C237.562 166.534 237.567 166.835 237.486 166.936C237.124 167.38 237.017 167.043 236.619 167.13C236.278 167.207 235.972 167.263 235.687 167.487C234.978 168.042 234.968 168.904 235.31 169.653C235.636 170.402 236.737 169.755 236.4 169.016Z" fill="black"/>
<path d="M218.129 184.688C217.935 184.265 219.617 184.143 219.882 183.929C220.377 183.536 220.29 182.828 220.764 182.491C221.253 182.145 221.906 182.471 222.451 182.119C223.119 181.686 223.343 180.815 224 180.325C224.653 179.841 224.016 178.735 223.358 179.224C222.991 179.5 222.66 179.77 222.374 180.132C222.181 180.371 222.048 180.697 221.804 180.881C221.498 181.11 221.406 181.034 221.039 181.029C220.234 181.018 219.632 181.273 219.342 182.073C219.291 182.206 219.296 182.507 219.214 182.609C218.853 183.052 218.746 182.716 218.348 182.802C218.007 182.879 217.701 182.935 217.415 183.159C216.707 183.715 216.697 184.576 217.038 185.325C217.364 186.074 218.465 185.427 218.129 184.688Z" fill="black"/>
<path d="M225.825 167.574C225.631 167.151 227.313 167.028 227.578 166.814C228.072 166.422 227.986 165.713 228.46 165.377C228.949 165.03 229.601 165.356 230.147 165.005C230.814 164.572 231.039 163.7 231.696 163.211C232.348 162.727 231.711 161.621 231.054 162.11C230.687 162.385 230.356 162.655 230.07 163.017C229.877 163.257 229.744 163.583 229.499 163.766C229.194 163.996 229.102 163.919 228.735 163.914C227.93 163.904 227.328 164.159 227.038 164.959C226.987 165.091 226.992 165.392 226.91 165.494C226.548 165.937 226.441 165.601 226.044 165.688C225.702 165.764 225.397 165.82 225.111 166.045C224.403 166.6 224.392 167.461 224.734 168.211C225.06 168.965 226.161 168.318 225.825 167.574Z" fill="black"/>
<path d="M206.101 180.917C206.111 181.171 206.121 181.421 206.131 181.676C206.141 181.951 206.32 182.226 206.6 182.293C207.049 182.4 207.706 182.191 208.088 182.333C208.669 182.553 208.45 183.557 208.705 184.031C208.889 184.372 209.179 184.627 209.577 184.683C210.04 184.754 211.172 183.985 211.095 184.887C211.029 185.702 212.303 185.697 212.37 184.887C212.421 184.245 212.115 183.633 211.549 183.307C211.294 183.159 210.968 183.083 210.677 183.103C210.326 183.129 209.949 183.485 209.77 183.123C209.648 182.874 209.801 182.374 209.709 182.074C209.617 181.778 209.429 181.513 209.174 181.329C208.491 180.845 207.691 181.243 206.942 181.064C207.1 181.268 207.252 181.472 207.41 181.681C207.4 181.426 207.39 181.177 207.38 180.922C207.344 180.101 206.07 180.096 206.101 180.917Z" fill="black"/>
<path d="M229.464 173.358C229.474 173.613 229.484 173.863 229.494 174.118C229.505 174.393 229.683 174.668 229.963 174.734C230.412 174.841 231.069 174.632 231.452 174.775C232.033 174.994 231.813 175.998 232.068 176.472C232.252 176.814 232.542 177.069 232.94 177.125C233.404 177.196 234.535 176.426 234.459 177.328C234.392 178.144 235.667 178.139 235.733 177.328C235.784 176.686 235.478 176.075 234.912 175.748C234.657 175.601 234.331 175.524 234.041 175.545C233.689 175.57 233.312 175.927 233.134 175.565C233.011 175.315 233.164 174.816 233.072 174.515C232.981 174.219 232.792 173.954 232.537 173.771C231.854 173.287 231.054 173.684 230.305 173.506C230.463 173.71 230.616 173.914 230.774 174.123C230.764 173.868 230.753 173.618 230.743 173.363C230.702 172.543 229.428 172.538 229.464 173.358Z" fill="black"/>
<path d="M224.77 187.608C224.78 187.863 224.79 188.113 224.8 188.368C224.811 188.643 224.989 188.918 225.269 188.985C225.718 189.092 226.375 188.883 226.757 189.025C227.339 189.244 227.119 190.249 227.374 190.723C227.558 191.064 227.848 191.319 228.246 191.375C228.709 191.446 229.841 190.677 229.765 191.579C229.698 192.394 230.972 192.389 231.039 191.579C231.09 190.937 230.784 190.325 230.218 189.999C229.963 189.851 229.637 189.775 229.347 189.795C228.995 189.82 228.618 190.177 228.439 189.815C228.317 189.566 228.47 189.066 228.378 188.765C228.286 188.47 228.098 188.205 227.843 188.021C227.16 187.537 226.36 187.935 225.611 187.756C225.769 187.96 225.922 188.164 226.08 188.373C226.069 188.118 226.059 187.868 226.049 187.614C226.008 186.788 224.734 186.788 224.77 187.608Z" fill="black"/>
<path d="M198.629 168.792C198.333 168.185 198.563 167.436 199.108 167.054C199.597 166.712 200.081 166.901 200.622 166.845C201.305 166.778 201.789 166.391 201.942 165.713C202.023 165.351 201.901 165.01 201.926 164.653C201.972 163.975 202.125 164.123 202.732 164.103C203.455 164.077 204.062 163.776 204.225 163.037C204.403 162.237 203.175 161.896 202.997 162.701C202.946 162.925 201.804 162.783 201.575 162.859C201.203 162.986 200.932 163.221 200.774 163.578C200.596 163.97 200.642 164.378 200.667 164.796C200.729 165.693 200.387 165.489 199.633 165.54C197.737 165.672 196.738 167.803 197.533 169.424C197.89 170.173 198.986 169.525 198.629 168.792Z" fill="black"/>
<path d="M199.031 178.679C198.736 178.073 198.965 177.323 199.51 176.941C200 176.6 200.484 176.788 201.024 176.732C201.707 176.666 202.191 176.279 202.344 175.601C202.426 175.239 202.303 174.897 202.329 174.541C202.375 173.863 202.528 174.011 203.134 173.99C203.858 173.965 204.465 173.664 204.628 172.925C204.806 172.125 203.578 171.783 203.399 172.589C203.348 172.813 202.207 172.67 201.977 172.747C201.605 172.874 201.335 173.108 201.177 173.465C200.999 173.858 201.045 174.265 201.07 174.683C201.131 175.58 200.79 175.376 200.035 175.427C198.139 175.56 197.141 177.69 197.936 179.311C198.292 180.055 199.393 179.413 199.031 178.679Z" fill="black"/>
<path d="M232.721 101.016C232.563 100.547 232.884 100.216 233.347 100.257C233.689 100.287 233.974 100.491 234.336 100.476C234.907 100.445 235.356 100.078 235.473 99.5226C235.549 99.1454 235.519 99.2117 235.901 99.069C236.176 98.9671 236.411 98.8193 236.599 98.5899C236.966 98.1516 236.992 97.5757 236.569 97.173C235.977 96.6073 235.075 97.5043 235.666 98.0751C235.442 97.8611 235.646 97.8509 235.259 97.9273C235.136 97.9528 235.004 98.014 234.892 98.07C234.667 98.1822 234.443 98.3402 234.311 98.5644C234.234 98.6969 234.234 98.8345 234.183 98.9722C234.168 99.0333 234.168 99.0894 234.178 99.1505C234.209 99.2729 234.183 99.278 234.097 99.1658C233.827 99.1862 233.485 98.9518 233.189 98.9467C231.971 98.9263 231.105 100.226 231.477 101.347C231.752 102.132 232.981 101.796 232.721 101.016Z" fill="black"/>
<path d="M168.074 101.704C167.738 112.376 167.728 123.059 168.038 133.732C168.064 134.552 169.338 134.552 169.313 133.732C169.002 123.054 169.017 112.376 169.348 101.704C169.374 100.883 168.1 100.883 168.074 101.704Z" fill="black"/>
<path d="M152.274 107.652C157.56 109.736 162.87 111.76 168.033 114.125C168.772 114.466 169.42 113.365 168.676 113.024C163.411 110.613 157.998 108.549 152.611 106.423C151.851 106.118 151.52 107.351 152.274 107.652Z" fill="black"/>
</g>
</svg>
