<svg width="327" height="318" viewBox="0 0 327 318" fill="none" xmlns="http://www.w3.org/2000/svg">
<rect width="325.429" height="317.603" rx="20" fill="white"/>
<mask id="mask0" style="mask-type:alpha" maskUnits="userSpaceOnUse" x="1" y="0" width="326" height="318">
<rect x="1" width="325.429" height="317.603" rx="20" fill="#EAF3FA"/>
</mask>
<g mask="url(#mask0)">
<path d="M276.223 217.615C300.16 195.068 306.55 137.787 257.469 118.823C229.142 107.876 200.942 121.542 182.232 149.581C199.198 158.291 214.386 176.851 224.081 210.926C235.327 250.455 213.959 286.828 184.397 312.708C201.18 335.16 224.131 346.639 244.075 346.362C284.9 345.803 280.958 327.879 267.325 305.969C249.252 276.905 248.023 244.181 276.223 217.615Z" fill="#FFECDD"/>
<path d="M182.232 149.581C174.801 145.766 167.033 143.834 159.237 143.324C140.599 142.1 126.302 143.834 113.905 129.858C103.047 117.621 94.0049 109.936 77.4325 116.841C34.9413 134.548 28.092 203.002 66.8069 231.928C118.152 270.288 80.3062 310.892 91.0038 328.721C99.8575 343.477 119.331 352.918 155.017 333.671C165.272 328.139 175.15 320.797 184.391 312.708C174.541 299.53 173.561 283.129 169.812 262.542C161.679 217.786 164.143 176.69 182.232 149.581Z" fill="#F8BAB4"/>
<path d="M224.081 210.92C214.386 176.845 199.198 158.291 182.232 149.575C164.143 176.685 161.978 219.785 170.123 264.53C173.871 285.122 174.547 299.518 184.397 312.697C213.959 286.827 235.327 250.449 224.081 210.92Z" fill="#F8BAB4"/>
<path d="M75.4707 231.962C65.8362 243.025 55.9139 253.834 45.7202 264.376C45.3437 264.764 45.5818 265.639 46.2074 265.556C54.7622 264.459 62.5805 266.979 70.7254 269.199C73.6767 270.002 77.0155 271.768 78.5548 268.291C84.3521 255.218 89.8669 241.935 96.7716 229.404C97.0762 228.845 96.5723 228.275 95.9909 228.385C89.6953 229.581 83.4052 230.777 77.1096 231.968C76.2348 232.134 76.6058 233.468 77.4751 233.302C83.7707 232.106 90.0607 230.91 96.3564 229.72C96.0961 229.382 95.8359 229.044 95.5756 228.701C91.9932 235.202 88.7042 241.719 85.9191 248.601C83.6323 254.26 80.6367 259.598 78.3001 265.223C77.7298 266.597 77.4529 268.922 75.7531 269.011C74.8173 269.061 73.6268 268.54 72.7354 268.302C71.0134 267.842 69.3024 267.366 67.5804 266.89C60.4321 264.924 53.6824 263.202 46.2074 264.16C46.368 264.553 46.5341 264.946 46.6947 265.34C56.8939 254.792 66.8107 243.983 76.4452 232.926C77.0321 232.272 76.0576 231.287 75.4707 231.962Z" fill="black"/>
<path d="M205.796 174.176C205.796 174.176 182.49 177.265 167.701 176.989C154.993 176.751 132.408 177.548 132.408 177.548C132.408 177.548 119.828 264.723 119.828 268.621C119.828 272.519 122.004 281.113 123.039 286.057C125.104 295.919 143.687 395.713 143.687 395.713C143.687 395.713 171.217 392.274 171.676 392.274C172.136 392.274 166.4 327.812 163.415 312.901C160.431 297.989 156.992 274.13 156.992 267.48C156.992 260.825 168.232 210.128 168.232 210.814C168.232 211.501 176.948 266.788 178.326 295.005C179.705 323.222 180.619 401.682 180.619 401.682L207.689 403.974C207.689 403.974 209.755 281.932 209.295 276.423C208.836 270.913 205.796 174.176 205.796 174.176Z" fill="#F8BAB4"/>
<path d="M156.256 64.9135L156.76 70.6C156.76 70.6 160.808 78.6896 165.359 78.6896C169.911 78.6896 172.563 73.2522 172.563 73.2522L172.939 68.7008C172.939 68.7008 169.778 72.4937 166.998 72.3663C164.218 72.239 160.298 69.2047 159.036 67.4383C157.773 65.672 156.256 64.9135 156.256 64.9135Z" fill="#F8BAB4"/>
<path d="M172.009 39.8861C172.009 40.9382 172.009 41.9847 172.009 43.0367C172.009 43.9282 173.393 43.9282 173.393 43.0367C173.393 41.9847 173.393 40.9382 173.393 39.8861C173.393 38.9947 172.009 38.9947 172.009 39.8861Z" fill="black"/>
<path d="M157.74 40.5561C157.901 41.5528 158.061 42.5494 158.222 43.5461C158.36 44.4209 159.695 44.05 159.556 43.1807C159.396 42.184 159.235 41.1873 159.074 40.1907C158.936 39.3103 157.602 39.6813 157.74 40.5561Z" fill="black"/>
<path d="M165.542 40.1961C165.642 41.2094 165.741 42.2227 165.846 43.2415C165.891 43.6623 166.256 44.061 166.721 43.9115C167.33 43.7177 168.117 43.8118 168.305 44.5537C168.548 45.5227 167.447 45.9878 166.815 45.3234C166.323 44.8029 165.509 45.3455 165.658 45.9989C165.752 46.3865 165.835 46.536 166.123 46.8128C166.76 47.4385 167.74 46.4585 167.103 45.8328C167.065 45.7664 167.031 45.6944 166.993 45.6279C166.605 45.8549 166.223 46.0764 165.835 46.3034C167.109 47.6434 169.396 47.0454 169.684 45.1573C169.971 43.247 168.067 42.0289 166.356 42.577C166.649 42.7985 166.937 43.02 167.231 43.247C167.131 42.2337 167.031 41.2205 166.926 40.2016C166.843 39.3157 165.453 39.3102 165.542 40.1961Z" fill="black"/>
<path d="M163.122 53.9446C165.603 54.5371 168.111 54.3765 170.475 53.402C171.289 53.0698 170.929 51.7298 170.11 52.0676C167.967 52.9479 165.752 53.1528 163.493 52.6102C162.624 52.4053 162.253 53.7397 163.122 53.9446Z" fill="black"/>
<path d="M153.781 35.6171C150.542 43.3634 150.686 52.2171 153.98 59.9302C156.4 65.5946 163.072 76.1427 170.459 71.8459C178 67.4606 181.339 56.8904 182.518 48.834C183.692 40.8274 181.079 33.5241 173.271 30.2849C169.263 28.6238 164.894 28.3636 160.713 29.6149C157.629 30.5396 155.691 32.5773 154.019 35.235C153.543 35.9936 154.739 36.6857 155.215 35.9327C157.164 32.832 159.423 31.1044 163.105 30.4953C167.723 29.7312 172.341 30.6836 176.206 33.4134C184.661 39.3878 181.339 52.6269 177.79 60.4784C175.985 64.4651 171.959 71.5802 166.86 71.5359C162.275 71.4971 158.139 65.0852 156.278 61.5415C152.137 53.6623 151.688 44.1884 155.127 35.9825C155.459 35.1631 154.119 34.8032 153.781 35.6171Z" fill="black"/>
<path d="M151.66 48.3355C149.113 47.4385 147.618 50.3233 147.685 52.5326C147.773 55.5503 150.021 57.7097 152.579 58.9666C153.377 59.3598 154.08 58.1638 153.277 57.7706C151.782 57.0397 150.337 56.0542 149.573 54.5204C148.942 53.2413 148.654 48.7508 151.289 49.6755C152.131 49.9634 152.496 48.629 151.66 48.3355Z" fill="black"/>
<path d="M182.701 51.2647C183.116 50.0354 184.506 50.8162 184.888 51.5858C185.248 52.3112 185.182 53.1472 184.866 53.8726C184.268 55.2513 182.906 56.0819 181.417 56.0044C180.525 55.9545 180.531 57.3443 181.417 57.3886C184.274 57.5381 186.942 54.9191 186.455 51.9955C186.25 50.7608 185.42 49.5205 184.119 49.2769C182.884 49.0443 181.76 49.7364 181.367 50.8992C181.079 51.7464 182.419 52.1063 182.701 51.2647Z" fill="black"/>
<path d="M155.708 63.8061C156.19 70.3453 155.99 77.034 154.733 83.4847C154.562 84.354 155.896 84.725 156.068 83.8501C157.347 77.2777 157.585 70.4726 157.087 63.8061C157.031 62.9257 155.642 62.9146 155.708 63.8061Z" fill="black"/>
<path d="M197.014 82.7206C193.83 73.8115 193.232 64.9135 193.481 55.5614C193.681 48.0698 193.731 40.3013 191.881 32.9814C189.988 25.4787 184.489 18.4799 177.252 15.4843C168.747 11.9628 159.34 12.7324 151.167 16.7136C143.404 20.4954 137.79 26.3037 133.41 33.668C128.698 41.5915 125.287 50.3345 119.507 57.5935C116.284 61.6411 112.452 65.218 108.089 68.0087C103.571 70.899 98.4935 72.4771 93.6708 74.7362C86.0075 78.3187 79.3465 84.4814 76.3675 92.5267C73.0785 101.414 74.8781 111.469 80.5978 118.927C85.8912 125.832 93.7151 129.459 102.342 129.752C103.233 129.785 103.233 128.401 102.342 128.368C94.1802 128.086 86.7716 124.675 81.7495 118.158C76.3454 111.148 74.5846 101.735 77.5469 93.3185C80.7086 84.3429 88.4383 78.3463 96.9598 74.8026C105.166 71.3918 112.403 67.6709 118.455 60.9656C129.279 48.9613 132.408 30.6171 146.173 21.2152C153.72 16.0602 162.673 13.2585 171.776 15.2518C180.807 17.2341 188.105 24.0114 190.469 33.0091C192.457 40.5727 192.308 48.6734 192.081 56.4363C191.809 65.6167 192.573 74.3652 195.691 83.086C195.979 83.9221 197.313 83.5622 197.014 82.7206Z" fill="black"/>
<path d="M99.6896 137.775C96.4892 142.964 92.2091 147.36 88.8426 152.421C85.692 157.155 83.6986 162.554 82.2867 168.03C81.2402 172.11 80.31 176.219 79.2137 180.283C78.073 184.525 76.2347 188.456 74.2525 192.354C73.8483 193.146 75.0443 193.849 75.4485 193.052C77.3145 189.386 79.1472 185.66 80.2657 181.684C81.4229 177.592 82.3587 173.434 83.3886 169.309C84.8116 163.611 86.7662 158.035 90.033 153.113C93.394 148.047 97.6797 143.661 100.88 138.467C101.356 137.714 100.16 137.017 99.6896 137.775Z" fill="black"/>
<path d="M74.3189 192.133C70.1274 198.212 63.8318 202.636 57.6469 206.473C50.7754 210.737 45.1166 215.886 39.5242 221.706C39.1366 222.11 39.3525 222.675 39.8287 222.863C44.2639 224.591 48.6492 222.625 52.204 219.884C54.5905 218.046 56.7776 215.975 59.3302 214.358C61.8772 212.747 64.6125 211.473 67.3478 210.233C67.0322 210.15 66.7166 210.067 66.401 209.984C69.4297 215.017 62.6967 221.174 67.2315 225.98C67.5471 226.313 68.0898 226.207 68.3168 225.842C70.598 222.182 72.7353 218.367 75.2436 214.857C77.248 212.049 80.5924 210.139 81.5891 206.706C82.63 203.129 81.4949 199.336 82.2701 195.715C83.228 191.247 86.1627 187.493 89.0585 184.093C93.8148 178.506 99.0086 173.213 102.857 166.922C107.059 160.045 107.619 151.607 112.154 144.996C112.657 144.259 111.461 143.567 110.958 144.298C106.495 150.81 105.946 159.06 101.893 165.837C97.7572 172.747 91.9323 178.34 86.8825 184.547C84.7507 187.166 82.7629 189.956 81.5891 193.151C80.3155 196.64 80.8083 199.951 80.6422 203.561C80.5093 206.468 79.5791 208.273 77.4474 210.294C76.1849 211.49 75.0498 212.736 74.0476 214.153C71.5504 217.669 69.402 221.479 67.1208 225.139C67.4807 225.095 67.8461 225.045 68.206 225C64.2083 220.765 70.5759 214.247 67.5914 209.281C67.3866 208.937 66.9879 208.877 66.6446 209.032C62.5084 210.909 58.5328 212.924 54.9891 215.798C50.7976 219.198 46.0579 223.81 40.1942 221.523C40.2938 221.911 40.399 222.293 40.4987 222.68C43.5219 219.535 46.5507 216.363 49.9061 213.561C53.3225 210.704 57.1209 208.478 60.8639 206.086C66.3567 202.575 71.7774 198.234 75.5039 192.83C76.0188 192.099 74.8228 191.402 74.3189 192.133Z" fill="black"/>
<path d="M50.5042 219.364C49.0092 221.18 47.8631 223.223 46.5619 225.172C46.3072 225.554 46.5674 226.069 46.9772 226.191C50.4599 227.237 53.079 225.045 55.2606 222.558C58.4277 218.948 61.4233 215.189 64.5462 211.534C65.122 210.859 64.1475 209.879 63.5661 210.554C61.3236 213.179 59.131 215.842 56.9106 218.483C54.5906 221.246 51.5729 226.124 47.3426 224.851C47.481 225.188 47.6194 225.526 47.7579 225.87C48.9926 224.02 50.0668 222.066 51.4843 220.338C52.0435 219.657 51.0746 218.671 50.5042 219.364Z" fill="black"/>
<path d="M59.2248 216.196C59.0975 217.88 59.0366 219.557 59.0477 221.241C59.0477 221.601 59.3633 221.949 59.7398 221.933C61.4729 221.85 62.6689 220.781 63.361 219.214C63.8317 218.157 63.9535 216.994 64.3355 215.909C64.9501 214.164 66.2237 212.913 67.6633 211.817C68.361 211.285 67.6744 210.078 66.9656 210.621C65.5703 211.684 64.2414 212.852 63.4496 214.452C62.5138 216.357 62.5748 220.405 59.7398 220.543C59.9724 220.776 60.1994 221.003 60.4319 221.235C60.4209 219.546 60.4817 217.874 60.6091 216.191C60.6755 215.311 59.2913 215.316 59.2248 216.196Z" fill="black"/>
<path d="M230.69 140.046C233.404 144.376 237.235 147.797 240.164 151.961C243.093 156.125 245.076 160.865 246.488 165.737C247.828 170.366 248.669 175.078 250.657 179.502C252.861 184.397 255.474 189.131 257.905 193.915C258.309 194.707 259.505 194.01 259.101 193.218C256.67 188.434 254.046 183.705 251.853 178.805C249.671 173.927 248.907 168.639 247.279 163.584C245.879 159.242 243.996 155.012 241.366 151.269C238.437 147.105 234.605 143.683 231.892 139.353C231.416 138.589 230.214 139.287 230.69 140.046Z" fill="black"/>
<path d="M257.7 193.312C260.723 199.519 266.255 203.467 271.958 207.016C278.874 211.313 284.594 216.435 290.219 222.293C290.319 221.905 290.424 221.523 290.524 221.135C284.66 223.422 279.92 218.81 275.729 215.41C272.191 212.536 268.204 210.521 264.073 208.644C263.73 208.489 263.337 208.544 263.127 208.893C260.142 213.86 266.51 220.371 262.512 224.613C262.872 224.657 263.237 224.707 263.597 224.751C261.166 220.848 258.918 216.706 256.133 213.035C255.076 211.639 253.83 210.521 252.606 209.286C250.79 207.448 250.347 205.687 250.491 203.201C250.685 199.907 251.72 196.629 250.74 193.362C249.827 190.316 247.606 187.98 245.458 185.743C239.788 179.846 233.935 173.511 229.539 166.596C227.252 163.002 225.63 159.193 224.517 155.079C223.459 151.175 222.507 147.41 220.198 144.027C219.7 143.296 218.498 143.988 219.002 144.724C221.599 148.534 222.379 152.88 223.675 157.216C224.749 160.793 226.338 164.143 228.343 167.288C232.518 173.855 237.994 179.901 243.337 185.532C246.061 188.406 249.367 191.296 249.766 195.499C250.092 198.893 248.714 202.249 249.146 205.648C249.589 209.092 252.429 210.659 254.489 213.151C257.551 216.861 259.86 221.363 262.401 225.438C262.628 225.803 263.176 225.908 263.486 225.576C268.021 220.77 261.294 214.613 264.317 209.58C264.001 209.663 263.686 209.746 263.37 209.829C265.962 211.008 268.558 212.21 270.989 213.705C273.702 215.377 276.006 217.542 278.514 219.48C282.069 222.221 286.449 224.192 290.889 222.459C291.365 222.271 291.581 221.706 291.194 221.302C286.244 216.152 281.227 211.241 275.181 207.387C268.868 203.362 262.307 199.613 258.891 192.609C258.509 191.817 257.313 192.515 257.7 193.312Z" fill="black"/>
<path d="M279.161 220.587C280.512 222.154 281.78 223.782 282.971 225.477C283.109 225.139 283.248 224.801 283.386 224.458C279.062 225.759 275.734 220.482 273.514 217.559C271.709 215.178 269.97 212.764 268.043 210.477C267.467 209.796 266.493 210.776 267.063 211.457C269.992 214.929 272.478 218.744 275.468 222.16C277.644 224.652 280.269 226.839 283.752 225.792C284.15 225.67 284.433 225.155 284.167 224.773C282.91 222.979 281.57 221.263 280.141 219.602C279.56 218.932 278.58 219.917 279.161 220.587Z" fill="black"/>
<path d="M270.12 215.803C270.247 217.487 270.308 219.164 270.297 220.848C270.529 220.615 270.756 220.388 270.989 220.155C268.176 220.017 268.209 215.958 267.279 214.065C266.493 212.464 265.159 211.296 263.763 210.233C263.054 209.69 262.362 210.892 263.066 211.429C264.505 212.525 265.768 213.777 266.393 215.521C266.781 216.606 266.892 217.769 267.368 218.827C268.071 220.382 269.25 221.457 270.989 221.545C271.366 221.562 271.681 221.213 271.681 220.853C271.692 219.164 271.631 217.492 271.504 215.809C271.438 214.923 270.053 214.917 270.12 215.803Z" fill="black"/>
<path d="M151.461 80.7937C155.531 85.9044 160.115 90.2344 167.048 88.6508C171.876 87.5489 177.408 84.2599 178.216 78.9554C178.349 78.0861 177.014 77.7096 176.882 78.59C176.151 83.4127 171.079 86.3363 166.682 87.3163C160.326 88.7338 156.118 84.4315 152.441 79.8136C151.887 79.1215 150.913 80.1016 151.461 80.7937Z" fill="black"/>
<path d="M151.743 79.415C138.089 79.9244 125.193 87.0949 117.508 98.3683C109.318 110.389 106.356 125.35 96.6495 136.424C96.3173 136.806 96.4281 137.438 96.9541 137.582C104.252 139.542 109.988 144.481 116.361 148.279C118.399 149.497 120.215 151.059 122.336 149.42C124.645 147.642 126.616 145.012 128.626 142.897C129.241 142.249 128.261 141.269 127.646 141.917C125.857 143.8 124.113 146.12 122.076 147.725C120.237 149.171 119.119 148.301 117.436 147.316C116.035 146.491 114.667 145.61 113.316 144.713C108.244 141.358 103.272 137.847 97.3251 136.253C97.4247 136.64 97.5299 137.022 97.6296 137.41C106.472 127.316 109.822 114.105 116.444 102.682C123.825 89.9409 136.86 81.3585 151.749 80.8048C152.635 80.7661 152.64 79.3818 151.743 79.415Z" fill="black"/>
<path d="M126.611 112.875C129.54 135.3 126.932 157.836 124.258 180.145C124.191 180.693 124.883 180.975 125.299 180.743C129.307 178.511 134.003 178.329 138.488 178.046C143.045 177.758 147.607 177.692 152.17 177.642C161.394 177.548 170.619 177.515 179.844 177.382C195.807 177.155 212.834 175.693 225.369 164.685C226.039 164.098 225.059 163.118 224.389 163.705C210.735 175.704 191.793 175.898 174.611 176.053C165.724 176.136 156.837 176.153 147.956 176.313C140.525 176.446 131.312 175.809 124.601 179.547C124.95 179.746 125.293 179.945 125.642 180.145C128.316 157.836 130.924 135.295 127.995 112.875C127.884 112.006 126.5 111.995 126.611 112.875Z" fill="black"/>
<path d="M200.519 105.899C201.998 117.438 203.758 128.999 207.612 140.023C209.484 145.383 211.809 150.571 214.495 155.571C216.726 159.724 220.292 162.664 224.495 164.735C225.292 165.128 225.995 163.932 225.192 163.539C220.591 161.275 217.374 158.124 215.01 153.589C212.402 148.584 210.165 143.384 208.393 138.025C204.949 127.615 203.293 116.746 201.904 105.904C201.793 105.029 200.409 105.018 200.519 105.899Z" fill="black"/>
<path d="M202.136 114.392C206.261 125.782 211.333 136.79 216.195 147.875C216.4 148.34 217.18 148.318 217.391 147.875C219.074 144.303 222.894 142.825 226.339 141.43C229.312 140.228 232.335 139.165 235.297 137.953C240.702 135.743 245.868 133.002 249.616 128.412C250.175 127.726 249.201 126.74 248.636 127.432C244.112 132.969 237.545 135.66 231.034 138.141C225.923 140.09 218.731 141.79 216.189 147.177C216.588 147.177 216.986 147.177 217.385 147.177C212.573 136.197 207.551 125.3 203.465 114.021C203.172 113.191 201.832 113.551 202.136 114.392Z" fill="black"/>
<path d="M177.252 78.9609C184.677 82.7316 193.371 81.962 200.862 85.4392C208.348 88.9165 212.606 96.4026 217.28 102.809C225.347 113.855 237.811 120.561 248.819 128.268C249.549 128.783 250.242 127.582 249.516 127.072C243.808 123.069 237.905 119.342 232.285 115.217C226.011 110.616 221 105.727 216.521 99.3649C212.523 93.6839 208.387 87.5987 201.97 84.4481C194.401 80.7272 185.491 81.5965 177.956 77.7704C177.158 77.3607 176.455 78.5567 177.252 78.9609Z" fill="black"/>
<path d="M132.104 177.299C129.33 194.364 127.048 211.512 124.584 228.622C123.267 237.78 121.711 246.927 120.576 256.107C119.668 263.444 118.693 270.781 120.697 277.995C122.89 285.88 124.402 293.997 126.102 301.998C129.219 316.672 132.198 331.378 135.016 346.118C138.145 362.446 141.212 378.819 143.405 395.309C143.521 396.178 144.905 396.189 144.789 395.309C140.902 366.051 134.85 337.015 128.809 308.139C126.799 298.538 124.856 288.903 122.491 279.38C122.098 277.79 121.567 276.224 121.246 274.618C120.443 270.587 120.952 266.417 121.312 262.364C122.104 253.5 123.649 244.712 124.922 235.908C127.735 216.495 130.293 197.033 133.444 177.67C133.582 176.795 132.248 176.418 132.104 177.299Z" fill="black"/>
<path d="M167.551 211.357C164.262 223.444 160.78 235.498 158.593 247.852C157.513 253.953 156.898 260.105 156.178 266.251C155.608 271.118 156.007 275.437 156.882 280.238C161.117 303.41 164.412 326.81 167.192 350.204C168.842 364.107 170.259 378.038 171.599 391.975C171.832 391.743 172.059 391.516 172.291 391.283C170.78 391.172 169.141 391.549 167.651 391.731C164.739 392.097 161.832 392.501 158.925 392.894C155.83 393.315 152.734 393.747 149.634 394.14C148.072 394.339 146.35 394.738 144.766 394.616C143.881 394.55 143.881 395.934 144.766 396.001C146.278 396.111 147.917 395.735 149.407 395.552C152.319 395.187 155.226 394.782 158.133 394.389C161.228 393.968 164.323 393.537 167.424 393.143C168.986 392.944 170.708 392.545 172.291 392.667C172.64 392.695 173.016 392.329 172.983 391.975C170.746 368.731 168.233 345.519 164.943 322.402C163.194 310.093 161.261 297.807 159.229 285.537C158.471 280.946 157.125 276.245 157.131 271.578C157.136 265.421 158.26 258.909 159.168 252.824C161.25 238.87 165.182 225.316 168.88 211.728C169.118 210.864 167.784 210.493 167.551 211.357Z" fill="black"/>
<path d="M205.264 173.467C205.187 208.378 208.315 243.228 208.476 278.134C208.548 293.77 207.839 309.424 207.684 325.066C207.518 342.103 207.479 359.135 207.507 376.173C207.524 385.63 207.573 395.087 207.623 404.544C207.629 405.436 209.013 405.436 209.007 404.544C208.88 380.215 208.819 355.885 209.013 331.555C209.14 315.398 209.7 299.247 209.855 283.089C210.015 266.124 209.174 249.142 208.476 232.199C207.673 212.636 206.604 193.046 206.649 173.467C206.649 172.576 205.264 172.576 205.264 173.467Z" fill="black"/>
<path d="M163.869 184.436C167.751 212.869 172.579 241.24 175.608 269.778C179.102 302.729 179.124 336.112 179.661 369.212C179.833 379.888 180.342 390.663 179.932 401.333C179.899 402.224 181.283 402.224 181.317 401.333C181.66 392.335 181.256 383.254 181.123 374.257C180.885 358.26 180.564 342.269 180.121 326.278C179.661 309.595 179.179 292.895 177.64 276.268C176.389 262.735 174.412 249.297 172.524 235.842C170.099 218.583 167.568 201.335 165.209 184.065C165.082 183.19 163.748 183.561 163.869 184.436Z" fill="black"/>
<path d="M171.992 69.7195C171.942 74.5478 172.302 79.3263 173.044 84.0937C173.183 84.9685 174.517 84.5976 174.379 83.7283C173.653 79.0827 173.327 74.4205 173.377 69.7251C173.388 68.8281 172.003 68.8281 171.992 69.7195Z" fill="black"/>
<path d="M108.15 128.451C107.729 130.096 107.84 131.103 109.086 132.222C110.138 133.169 109.645 133.861 109.485 135.134C109.385 135.915 109.457 136.568 109.928 137.216C110.448 137.93 111.65 137.238 111.124 136.519C110.282 135.372 111.572 133.722 111.113 132.405C110.98 132.034 110.786 131.74 110.487 131.48C110.288 131.308 109.955 131.22 109.784 131.037C109.086 130.289 109.28 129.636 109.485 128.828C109.706 127.953 108.372 127.587 108.15 128.451Z" fill="black"/>
<path d="M114.601 126.624C114.656 125.489 116.345 126.463 116.943 126.186C117.586 125.893 117.536 125.339 117.785 124.774C118.278 123.645 119.175 123.983 120.033 123.44C120.686 123.025 120.465 122.277 120.946 121.829C121.605 121.225 120.62 120.245 119.966 120.849C119.634 121.153 119.629 121.436 119.44 121.812C119.141 122.399 118.748 122.316 118.172 122.543C117.231 122.914 116.816 123.612 116.423 124.475C116.163 125.046 116.456 124.813 115.775 124.636C115.343 124.525 114.922 124.542 114.507 124.708C113.687 125.035 113.272 125.771 113.228 126.618C113.173 127.51 114.557 127.51 114.601 126.624Z" fill="black"/>
<path d="M114.922 110.256C114.235 111.635 114.695 112.903 115.913 113.761C116.162 113.938 116.633 114.127 116.793 114.398C117.059 114.852 116.766 115.301 116.799 115.76C116.821 116.081 116.898 116.314 117.098 116.569C117.164 116.652 117.652 116.967 117.652 116.962C117.867 117.825 119.202 117.46 118.986 116.596C118.864 116.098 118.432 116.109 118.244 115.749C118.022 115.323 118.382 114.57 118.183 114.066C117.723 112.892 115.365 112.466 116.112 110.96C116.511 110.162 115.32 109.459 114.922 110.256Z" fill="black"/>
<path d="M118.023 131.779C116.677 133.202 119.174 133.8 119.446 134.913C119.64 135.721 118.981 136.513 119.485 137.283C119.867 137.858 121.45 137.991 120.775 138.883C120.232 139.591 121.434 140.284 121.971 139.58C122.38 139.043 122.486 138.357 122.236 137.725C121.96 137.017 121.45 137.044 121.007 136.607C120.609 136.219 120.93 134.874 120.664 134.198C120.548 133.91 119.523 132.2 119.003 132.753C119.617 132.111 118.637 131.131 118.023 131.779Z" fill="black"/>
<path d="M122.319 107.499C122.258 106.712 122.07 105.732 123.133 105.456C123.51 105.356 123.881 105.528 124.274 105.367C124.733 105.184 125.021 104.797 125.187 104.337C125.298 104.027 125.259 103.584 125.42 103.307C125.642 102.925 126.179 102.853 126.533 102.704C127.17 102.432 127.496 101.995 127.535 101.314C127.579 100.422 126.195 100.428 126.151 101.314C126.145 101.397 124.944 101.751 124.767 101.879C124.529 102.05 124.368 102.272 124.235 102.532C124.086 102.831 124.052 103.152 123.975 103.468C123.825 104.11 123.753 104.033 123.128 104.071C121.229 104.182 120.808 105.86 120.93 107.499C121.001 108.379 122.386 108.39 122.319 107.499Z" fill="black"/>
<path d="M127.685 92.9586C127.768 93.623 127.984 94.1103 128.471 94.5698C129.014 95.0793 129.822 95.2841 130.31 95.8489C130.819 96.4469 130.503 97.2719 131.157 97.8312C131.949 98.5011 132.663 98.7946 133.111 99.8467C133.46 100.666 134.651 99.9574 134.307 99.149C134.025 98.4845 133.637 97.9142 133.089 97.4436C132.873 97.2553 132.48 97.1113 132.303 96.912C131.866 96.4247 132.159 96.2974 131.949 95.8323C131.727 95.334 131.472 94.9851 131.046 94.6418C130.47 94.1712 129.169 93.7947 129.064 92.9641C128.959 92.0837 127.574 92.0726 127.685 92.9586Z" fill="black"/>
<path d="M133.466 110.705C133.565 109.348 135.991 109.957 136.816 109.453C137.369 109.116 137.458 108.556 137.796 108.075C137.879 107.881 137.967 107.687 138.05 107.493C138.543 107.238 139.058 107.117 139.601 107.117C140.005 107.017 140.398 106.978 140.791 106.823C141.577 106.524 142.209 106.054 142.796 105.461C143.427 104.83 142.447 103.85 141.816 104.481C141.013 105.284 140.199 105.644 139.075 105.771C138.654 105.821 138.194 105.749 137.79 105.932C136.976 106.303 136.954 106.973 136.489 107.621C135.703 108.717 134.396 108.091 133.294 108.684C132.458 109.132 132.148 109.802 132.081 110.71C132.015 111.596 133.399 111.591 133.466 110.705Z" fill="black"/>
<path d="M143.693 93.7891C143.144 94.3428 142.967 95.0405 143.255 95.7935C143.676 96.8954 145.027 96.8788 145.514 97.7426C145.896 98.4181 145.398 99.149 146.134 99.8799C147.175 100.91 149.279 100.5 149.219 102.504C149.191 103.396 150.575 103.396 150.603 102.504C150.63 101.707 150.608 100.888 150.066 100.245C149.512 99.5919 148.742 99.5975 148.006 99.2929C146.561 98.7005 147.441 98.0028 146.91 97.0836C146.605 96.5632 144.058 95.3838 144.673 94.7636C145.298 94.1379 144.318 93.1579 143.693 93.7891Z" fill="black"/>
<path d="M140.26 92.4601C140.143 91.314 141.445 91.397 142.092 90.8156C142.596 90.3616 142.652 89.6473 143.078 89.1601C143.598 88.5621 144.285 88.9718 144.949 88.6451C145.758 88.2464 146.151 87.4103 147.054 87.0449C147.868 86.7182 147.513 85.3782 146.688 85.7105C146.201 85.9043 145.747 86.1147 145.326 86.4414C144.944 86.7404 144.65 87.2387 144.202 87.3771C143.277 87.6651 142.718 87.3218 142.048 88.2077C141.788 88.5565 141.694 88.9884 141.45 89.3372C141.029 89.9463 140.387 89.9408 139.822 90.3173C139.108 90.7935 138.787 91.6296 138.87 92.4601C138.964 93.3405 140.348 93.3516 140.26 92.4601Z" fill="black"/>
<path d="M154.755 95.6163C154.689 95.273 156.649 94.9684 156.965 94.758C157.596 94.3261 157.579 93.4347 158.094 93.0526C158.476 92.7702 159.296 93.0803 159.816 92.8201C160.303 92.5764 160.564 92.1778 160.536 91.6351C160.492 90.7492 159.107 90.7437 159.152 91.6351C159.135 91.3085 157.336 91.6961 157.131 91.8677C156.461 92.4269 156.743 93.3793 155.818 93.7558C155.176 94.0216 154.534 93.8943 153.969 94.3704C153.449 94.8134 153.299 95.3339 153.421 95.9873C153.587 96.8566 154.921 96.4856 154.755 95.6163Z" fill="black"/>
<path d="M138.621 112.947C138.742 113.878 139.091 114.669 139.933 115.168C140.525 115.522 141.649 115.627 141.804 116.497C141.904 117.045 141.5 117.587 141.677 118.213C141.993 119.326 142.851 119.182 143.67 119.702C144.418 120.179 144.174 120.716 144.506 121.319C144.634 121.552 145.387 121.917 145.415 122.1C145.542 122.98 146.876 122.604 146.749 121.735C146.688 121.336 146.527 121.325 146.345 121.015C146.223 120.91 146.084 120.821 145.935 120.755C145.835 120.456 145.769 120.157 145.736 119.846C145.392 118.866 144.8 118.889 144.041 118.368C142.574 117.366 143.737 116.358 143.1 115.107C142.491 113.905 140.215 114.514 140.005 112.947C139.889 112.078 138.499 112.067 138.621 112.947Z" fill="black"/>
<path d="M157.286 97.1889C157.109 98.324 157.657 98.8002 158.637 99.2653C159.373 99.6141 160.043 99.8633 160.088 100.782C160.099 101.065 160.021 101.336 160.071 101.613C160.149 102.073 160.293 102.344 160.697 102.587C161.228 102.909 161.943 102.82 162.446 103.235C163.044 103.734 162.862 104.409 163.166 104.996C163.332 105.312 163.582 105.517 163.914 105.616C164.119 105.677 164.373 105.705 164.589 105.649C165.32 105.461 164.805 105.411 165.149 104.902C164.65 105.644 165.846 106.336 166.345 105.6C166.804 104.924 166.405 104.055 165.592 103.933C165.298 103.889 165.088 104.06 164.838 104.055C163.953 104.027 164.595 104.094 164.312 103.584C164.036 103.086 163.991 102.715 163.521 102.311C163.022 101.884 162.391 101.857 161.887 101.508C161.483 101.225 161.666 101.469 161.511 101.004C161.439 100.782 161.527 100.417 161.477 100.162C161.356 99.5421 161.029 98.9663 160.525 98.5676C160.237 98.3351 158.576 97.8422 158.62 97.5543C158.753 96.685 157.419 96.314 157.286 97.1889Z" fill="black"/>
<path d="M132.469 124.597C132.679 124.32 132.79 124.032 132.906 123.711C133.133 123.08 133.161 122.886 133.853 123.03C134.517 123.174 135.187 123.379 135.802 122.947C136.383 122.543 136.223 121.845 136.627 121.419C137.064 120.948 137.862 121.43 138.211 120.611C138.559 119.802 137.363 119.093 137.015 119.913C137.042 119.852 136.25 119.929 136.145 119.974C135.896 120.079 135.702 120.24 135.547 120.467C135.37 120.721 135.359 121.037 135.215 121.297C134.888 121.906 134.534 121.746 133.936 121.629C133.327 121.513 132.74 121.535 132.253 121.962C131.671 122.471 131.716 123.307 131.267 123.9C130.73 124.603 131.932 125.295 132.469 124.597Z" fill="black"/>
<path d="M144.983 131.076C145.248 130.262 145.121 129.813 145.824 129.265C146.439 128.783 146.721 128.944 147.436 128.794C148.205 128.634 148.681 128.279 149.185 127.704C149.894 126.89 149.888 126.447 151.173 126.264C151.433 126.225 151.754 126.325 152.02 126.231C152.906 125.904 153.537 124.597 154.058 123.911C154.6 123.202 153.399 122.515 152.862 123.213C152.22 124.049 151.921 124.52 150.852 124.808C150.525 124.896 150.309 124.846 150.016 124.957C148.62 125.478 148.416 127.067 146.843 127.482C145.99 127.709 145.248 127.438 144.54 128.147C143.864 128.822 143.92 129.869 143.643 130.716C143.371 131.557 144.711 131.923 144.983 131.076Z" fill="black"/>
<path d="M153.764 114.653C153.748 114.193 153.681 113.8 154.229 113.888C154.567 113.944 154.833 114.038 155.182 113.96C155.752 113.833 156.073 113.385 156.223 112.842C156.295 112.593 156.267 112.261 156.383 112.028C156.599 111.602 157.075 111.69 157.474 111.552C158.094 111.336 158.41 110.887 158.487 110.262C158.598 109.381 157.214 109.387 157.103 110.262C157.103 110.267 156.101 110.428 155.996 110.478C155.713 110.599 155.481 110.788 155.309 111.042C155.077 111.391 155.06 112.488 154.733 112.593C154.512 112.665 154.008 112.393 153.726 112.427C153.432 112.46 153.172 112.576 152.956 112.77C152.435 113.235 152.352 113.988 152.38 114.647C152.413 115.544 153.798 115.544 153.764 114.653Z" fill="black"/>
<path d="M166.826 113.008C166.666 112.626 169.063 111.989 169.429 111.652C170.11 111.026 169.883 110.074 170.359 109.426C170.796 108.828 171.959 108.966 172.646 108.573C173.415 108.13 173.875 107.454 174.202 106.652C174.539 105.827 173.199 105.467 172.867 106.286C172.485 107.216 171.71 107.593 170.763 107.654C170.431 107.676 170.11 107.621 169.8 107.792C168.903 108.296 169.019 109.664 168.443 110.384C167.779 111.214 166.588 111.004 165.868 111.856C165.37 112.449 165.331 113.019 165.625 113.711C165.979 114.52 167.175 113.817 166.826 113.008Z" fill="black"/>
<path d="M169.683 98.5842C169.789 97.0283 171.101 97.809 172.037 97.1778C172.59 96.8013 172.762 96.1867 172.9 95.5665C172.983 95.2011 172.972 94.8522 173.321 94.6806C173.593 94.5532 173.997 94.6363 174.301 94.4923C175.06 94.1269 175.409 93.3074 175.702 92.5765C176.029 91.746 174.694 91.3916 174.368 92.2111C174.058 92.9918 173.665 93.0915 172.895 93.3517C172.64 93.4403 172.419 93.5178 172.214 93.7006C171.627 94.2266 171.793 94.9464 171.477 95.5887C171.095 96.3694 169.866 95.9043 169.185 96.4358C168.526 96.9563 168.349 97.7979 168.294 98.5897C168.238 99.4701 169.623 99.4701 169.683 98.5842Z" fill="black"/>
<path d="M135.238 132.715C134.789 133.456 134.717 134.398 135.359 135.084C135.902 135.666 136.777 135.472 136.843 136.552C136.876 137.05 136.517 137.465 136.649 138.013C136.926 139.176 138.283 138.938 138.532 140.09C138.765 141.17 138.405 141.823 139.418 142.582C140.132 143.119 140.819 141.917 140.116 141.386C139.551 140.959 140.049 139.436 139.723 138.766C139.34 137.975 138.814 138.263 138.288 137.798C137.773 137.343 138.488 136.136 138.133 135.389C137.862 134.813 136.063 134.027 136.434 133.407C136.893 132.648 135.697 131.95 135.238 132.715Z" fill="black"/>
<path d="M146.245 135.35C146.112 136.076 146.345 136.646 147.026 137C147.857 137.438 148.266 137.283 148.288 138.362C148.299 138.833 148.15 139.176 148.355 139.647C148.809 140.721 150.293 140.61 150.775 141.613C151.284 142.67 150.752 143.678 151.666 144.641C152.281 145.289 153.255 144.309 152.646 143.661C151.937 142.914 152.397 141.574 151.899 140.699C151.467 139.94 150.847 140.023 150.287 139.52C149.23 138.573 150.249 137.565 149.556 136.59C149.352 136.303 147.607 135.577 147.585 135.716C147.74 134.846 146.406 134.47 146.245 135.35Z" fill="black"/>
<path d="M138.848 150.472C138.98 150.317 139.113 150.162 139.252 150.001C139.468 150.062 139.684 150.128 139.9 150.189C140.071 150.239 140.226 150.317 140.409 150.333C140.68 150.367 140.963 150.333 141.212 150.2C141.882 149.852 141.987 149.126 142.131 148.467C142.203 148.135 142.109 148.024 142.353 147.714C142.663 147.321 142.64 147.471 143.1 147.432C143.488 147.399 143.842 147.288 144.169 147.078C144.866 146.629 145.154 145.953 145.232 145.156C145.315 144.27 143.931 144.276 143.848 145.156C143.781 145.848 143.045 146.003 142.541 146.031C142.353 146.042 142.092 146.042 141.91 146.109C141.583 146.219 141.334 146.435 141.145 146.718C140.963 146.983 140.885 147.299 140.83 147.609C140.736 148.107 140.941 148.811 140.271 148.844C139.972 148.86 139.59 148.611 139.252 148.611C138.925 148.611 138.537 148.705 138.255 148.877C137.535 149.314 137.347 150.068 137.513 150.832C137.701 151.706 139.036 151.341 138.848 150.472Z" fill="black"/>
<path d="M131.688 150.738C131.239 151.341 131.295 152.05 131.793 152.637C132.098 152.991 132.441 153.024 132.801 153.279C133.986 154.11 133.559 154.337 133.504 155.422C133.46 156.236 133.515 157.044 134.224 157.576C134.573 157.836 135.082 157.764 135.409 157.98C136.134 158.456 136.317 159.863 136.572 160.621C136.854 161.463 138.194 161.103 137.906 160.256C137.607 159.37 137.391 158.152 136.826 157.382C136.583 157.055 136.489 156.978 136.19 156.812C135.348 156.341 134.994 156.463 134.922 155.256C134.877 154.481 135.182 153.827 134.778 153.091C134.617 152.803 132.873 151.457 132.884 151.446C133.416 150.721 132.214 150.029 131.688 150.738Z" fill="black"/>
<path d="M136.267 166.856C136.195 165.256 138.266 166.047 139.074 165.688C139.695 165.411 139.966 164.912 140.182 164.303C140.315 163.927 140.353 163.495 140.736 163.262C140.963 163.124 141.566 163.268 141.86 163.124C142.253 162.936 142.806 161.789 143.083 161.773C143.969 161.717 143.975 160.333 143.083 160.389C142.053 160.455 141.932 161.341 141.129 161.723C140.221 162.149 139.573 161.95 139.119 163.024C138.798 163.777 138.726 164.314 137.74 164.447C137.197 164.519 136.705 164.37 136.179 164.608C135.282 165.012 134.844 165.903 134.888 166.861C134.922 167.742 136.306 167.747 136.267 166.856Z" fill="black"/>
<path d="M129.662 168.085C129.629 168.738 129.939 169.248 130.492 169.602C131.24 170.078 132.331 169.934 132.137 171.114C132.043 171.69 131.965 172.249 132.342 172.747C132.53 173.002 133.936 173.528 133.931 173.561C133.848 174.447 135.232 174.442 135.315 173.561C135.37 172.93 135.033 172.476 134.468 172.21C134.053 172.016 133.571 172.16 133.444 171.618C133.388 171.391 133.576 170.992 133.593 170.743C133.632 170.117 133.477 169.586 132.978 169.181C132.569 168.849 131.024 168.633 131.052 168.085C131.09 167.194 129.706 167.194 129.662 168.085Z" fill="black"/>
<path d="M144.218 166.717C144.075 167.293 144.014 167.941 144.462 168.401C144.667 168.611 144.916 168.716 145.21 168.772C145.73 168.877 145.869 168.661 145.835 169.281C145.808 169.829 145.78 170.4 146.156 170.843C146.777 171.579 148.327 171.07 148.233 172.326C148.166 173.212 149.551 173.212 149.617 172.326C149.672 171.618 149.418 170.942 148.87 170.477C148.36 170.045 147.303 170.134 147.203 169.514C147.114 168.943 147.347 168.445 146.965 167.919C146.782 167.67 146.538 167.531 146.245 167.448C145.852 167.338 145.42 167.598 145.547 167.077C145.769 166.219 144.434 165.848 144.218 166.717Z" fill="black"/>
<path d="M145.703 152.05C145.758 152.487 145.808 152.786 146.134 153.124C146.505 153.506 146.987 153.478 147.375 153.755C148.394 154.497 147.535 155.959 148.454 156.862C149.18 157.576 150.442 157.443 150.858 158.434C151.184 159.22 151.456 159.735 152.408 159.58C153.283 159.436 152.912 158.102 152.042 158.246C152.707 158.135 151.444 156.806 151.262 156.69C150.559 156.241 149.468 156.347 149.268 155.344C149.119 154.586 149.529 153.938 149.036 153.224C148.731 152.781 147.131 152.377 147.087 152.055C146.976 151.181 145.592 151.169 145.703 152.05Z" fill="black"/>
<path d="M154.728 165.433C154.589 164.691 156.378 164.597 156.826 164.231C157.463 163.716 157.452 162.803 158.067 162.315C158.654 161.845 158.465 162.116 159.146 162.238C159.434 162.288 159.645 162.288 159.916 162.205C160.547 162.016 161.123 160.787 161.693 160.798C162.585 160.815 162.585 159.431 161.693 159.414C161.162 159.403 160.808 159.481 160.392 159.846C159.783 160.383 159.916 160.859 158.936 160.699C158.011 160.544 157.38 160.582 156.799 161.446C156.439 161.978 156.428 162.67 155.885 163.035C155.437 163.334 154.905 163.168 154.412 163.423C153.499 163.894 153.222 164.862 153.399 165.804C153.56 166.673 154.894 166.302 154.728 165.433Z" fill="black"/>
<path d="M163.249 165.837C163.05 166.446 162.917 167.199 163.338 167.758C163.975 168.6 164.91 167.93 165.215 169.17C165.398 169.929 165.254 170.688 165.907 171.275C166.223 171.551 166.516 171.485 166.843 171.657C167.657 172.072 167.823 172.41 167.906 173.251C167.989 174.132 169.373 174.137 169.29 173.251C169.218 172.493 169.113 171.695 168.631 171.075C168.017 170.283 166.92 170.438 166.605 169.353C166.4 168.65 166.566 167.947 166.012 167.343C165.78 167.094 165.497 166.928 165.165 166.867C164.622 166.762 164.351 166.939 164.589 166.214C164.861 165.355 163.526 164.99 163.249 165.837Z" fill="black"/>
<path d="M156.151 135.555C155.973 135.068 157.574 135.239 157.839 135.118C158.31 134.896 158.365 134.47 158.57 134.049C158.858 133.457 159.207 133.689 159.75 133.44C160.265 133.202 160.542 132.781 160.741 132.266C161.062 131.436 159.722 131.076 159.406 131.901C159.251 132.305 158.587 132.216 158.266 132.355C158 132.465 157.812 132.632 157.635 132.859C157.457 133.097 157.413 133.473 157.23 133.684C157.241 133.855 157.164 133.9 157.003 133.816C156.882 133.794 156.754 133.778 156.632 133.783C155.47 133.761 154.368 134.708 154.816 135.932C155.121 136.751 156.461 136.391 156.151 135.555Z" fill="black"/>
<path d="M160.293 121.17C160.265 122.05 160.575 122.836 161.345 123.329C161.81 123.628 162.358 123.595 162.696 124.049C163.067 124.542 162.829 125.09 162.939 125.683C163.072 126.413 163.46 126.729 164.102 127.05C164.445 127.222 164.844 127.249 165.088 127.626C165.215 127.82 165.21 128.218 165.326 128.451C165.525 128.861 165.741 129.049 166.134 129.259C166.92 129.675 167.624 128.479 166.832 128.063C166.284 127.776 166.367 126.69 165.852 126.242C165.52 125.954 165.221 126.015 164.872 125.815C164.285 125.483 164.302 125.306 164.302 124.691C164.302 124.132 164.296 123.578 163.942 123.108C163.344 122.31 161.638 122.504 161.682 121.17C161.71 120.278 160.326 120.278 160.293 121.17Z" fill="black"/>
<path d="M156.206 151.053C156.173 150.344 158.227 150.538 158.698 150.228C159.163 149.918 159.274 149.425 159.523 148.966C159.756 148.534 159.684 148.595 160.121 148.395C160.381 148.274 160.708 148.257 160.985 148.141C161.677 147.842 162.17 147.371 162.624 146.779C163.166 146.075 161.965 145.383 161.428 146.081C160.935 146.723 160.348 146.939 159.578 147.066C159.351 147.105 159.097 147.105 158.892 147.227C158.654 147.371 158.532 147.637 158.427 147.88C158.139 148.523 158.338 148.728 157.596 148.949C156.854 149.171 156.19 148.872 155.525 149.403C155.005 149.818 154.794 150.416 154.828 151.064C154.866 151.945 156.251 151.95 156.206 151.053Z" fill="black"/>
<path d="M163.676 137.986C163.416 138.789 163.2 140.062 164.063 140.577C164.451 140.81 164.944 140.638 165.326 140.832C166.184 141.264 165.802 142.249 166.156 142.941C166.655 143.921 167.696 143.368 168.194 144.121C168.482 144.558 168.449 145.062 168.836 145.494C169.207 145.904 169.678 146.114 170.193 146.264C171.051 146.513 171.417 145.178 170.558 144.929C169.157 144.514 169.833 143.058 168.748 142.465C168.537 142.349 168.305 142.366 168.083 142.305C167.291 142.078 167.452 142.105 167.375 141.308C167.314 140.682 167.059 140.184 166.533 139.835C166.151 139.58 165.724 139.608 165.326 139.436C165.143 139.409 164.96 139.392 164.772 139.376C164.8 139.021 164.883 138.683 165.01 138.351C165.287 137.504 163.953 137.139 163.676 137.986Z" fill="black"/>
<path d="M169.617 154.807C169.778 153.888 170.89 154.198 171.549 153.844C172.385 153.39 172.435 152.587 172.956 151.906C174.008 150.538 174.451 151.779 175.625 151.308C176.522 150.948 176.854 149.896 177.767 149.453C178.57 149.065 177.867 147.875 177.07 148.257C176.566 148.501 176.189 148.789 175.78 149.154C175.187 149.68 175.16 149.868 174.301 149.818C173.31 149.763 172.696 149.841 172.059 150.721C171.605 151.341 171.566 151.939 170.874 152.354C170.281 152.709 170.065 152.471 169.479 152.653C168.687 152.897 168.41 153.694 168.283 154.442C168.133 155.311 169.467 155.688 169.617 154.807Z" fill="black"/>
<path d="M173.952 159.193C173.897 159.807 173.919 160.405 174.467 160.793C175.154 161.28 176.267 160.787 176.577 161.751C176.776 162.365 176.61 162.891 177.202 163.345C177.95 163.921 178.731 163.766 179.179 164.774C179.539 165.588 180.729 164.885 180.375 164.076C180.087 163.423 179.617 162.897 178.974 162.576C178.775 162.476 178.426 162.443 178.254 162.327C177.861 162.055 178 161.684 177.911 161.286C177.789 160.743 177.457 160.311 176.97 160.04C176.444 159.746 175.275 159.929 175.336 159.193C175.414 158.307 174.03 158.312 173.952 159.193Z" fill="black"/>
<path d="M179.251 171.457C179.102 170.649 181.178 170.577 181.599 170.394C182.081 170.189 182.358 169.946 182.662 169.525C182.845 169.276 182.906 168.954 183.078 168.711C184.346 166.9 183.764 168.091 184.944 167.703C185.857 167.404 185.946 166.186 186.682 165.654C187.524 165.045 188.349 164.94 188.991 164.054C189.517 163.334 188.316 162.642 187.795 163.357C187.147 164.248 185.752 164.525 184.971 165.355C184.567 165.787 184.268 166.07 183.72 166.28C183.111 166.513 182.862 166.474 182.408 167.011C181.837 167.686 181.571 168.739 180.746 169.209C180.303 169.464 179.595 169.337 179.107 169.547C178.083 169.99 177.712 170.771 177.911 171.823C178.078 172.703 179.412 172.332 179.251 171.457Z" fill="black"/>
<path d="M184.019 150.483C183.714 151.114 183.753 151.745 184.202 152.305C184.761 153.013 185.602 153.002 186.372 153.334C187.192 153.683 186.754 154.774 187.38 155.378C187.596 155.583 187.867 155.699 188.149 155.771C188.349 155.821 188.952 155.765 189.069 155.92C189.595 156.629 190.796 155.937 190.265 155.223C189.971 154.829 189.667 154.625 189.185 154.525C188.753 154.436 188.471 154.586 188.299 154.043C188.216 153.783 188.277 153.495 188.172 153.224C187.978 152.714 187.585 152.377 187.108 152.138C186.798 151.983 184.982 151.657 185.215 151.175C185.597 150.383 184.401 149.68 184.019 150.483Z" fill="black"/>
<path d="M190.386 169.132C190.398 169.037 190.403 168.938 190.414 168.844C190.492 168.057 189.251 167.919 189.052 168.661C188.903 169.22 189.074 169.735 189.578 170.056C189.877 170.25 190.154 170.217 190.486 170.289C191.134 170.427 191.123 170.56 191.189 171.141C191.261 171.751 191.643 171.978 192.191 172.105C192.845 172.26 193.216 172.31 193.648 172.891C193.936 173.284 194.129 173.755 194.329 174.198C194.694 175.012 195.885 174.309 195.525 173.5C195.165 172.697 194.772 171.894 194.063 171.335C193.808 171.136 193.531 170.964 193.221 170.859C193.199 170.854 192.203 170.627 192.513 170.815C192.712 170.937 192.612 170.411 192.562 170.211C192.491 169.923 192.324 169.63 192.119 169.414C191.898 169.187 190.53 168.489 190.392 169.015C189.938 168.954 189.484 168.893 189.03 168.833C189.019 168.927 189.013 169.026 189.002 169.12C188.919 170.017 190.303 170.012 190.386 169.132Z" fill="black"/>
<path d="M193.93 159.597C194.173 159.951 195.242 159.27 195.447 159.071C196.067 158.445 196.156 157.747 196.981 157.238C197.656 156.823 198.526 157.111 199.112 156.59C199.572 156.186 199.611 155.566 199.561 154.995C199.478 154.115 198.094 154.11 198.177 154.995C198.232 155.588 198.016 155.416 197.551 155.483C197.152 155.538 196.781 155.754 196.438 155.953C195.63 156.418 195.22 156.928 194.699 157.67C194.378 158.129 194.129 158.157 193.62 158.356C193.343 158.467 193.105 158.556 192.894 158.788C192.496 159.226 192.396 159.807 192.734 160.3C193.238 161.025 194.439 160.333 193.93 159.597Z" fill="black"/>
<path d="M185.292 144.973C185.148 143.501 186.367 144.099 187.236 143.772C187.839 143.545 188.072 142.975 188.304 142.426C188.426 142.15 188.62 141.275 188.864 141.114C189.141 140.931 189.65 141.103 189.966 141.07C190.547 141.009 191.001 140.787 191.278 140.256C191.682 139.464 190.492 138.761 190.082 139.558C189.932 139.852 189.224 139.641 188.952 139.658C188.587 139.686 188.249 139.791 187.972 140.034C187.762 140.223 187.662 140.45 187.54 140.699C187.358 141.075 187.158 142.105 186.843 142.338C186.582 142.532 185.94 142.327 185.63 142.36C185.292 142.399 184.988 142.526 184.716 142.731C184.013 143.268 183.825 144.132 183.908 144.968C183.991 145.848 185.375 145.859 185.292 144.973Z" fill="black"/>
<path d="M191.737 144.713C191.56 145.289 191.737 145.787 192.202 146.169C192.479 146.391 192.767 146.485 193.105 146.574C193.249 146.612 193.515 146.59 193.636 146.673C193.902 146.862 193.902 147.305 193.952 147.581C194.063 148.19 194.157 148.722 194.705 149.099C194.993 149.298 195.314 149.381 195.663 149.425C195.785 149.442 196.992 149.492 196.936 149.591C196.504 150.372 197.701 151.07 198.132 150.289C198.448 149.719 198.398 149.076 197.933 148.589C197.689 148.334 197.346 148.202 197.008 148.124C196.61 148.035 195.984 148.196 195.635 148.024C195.093 147.748 195.314 146.535 194.971 146.02C194.788 145.743 194.544 145.56 194.245 145.428C194.168 145.394 193.044 145.156 193.066 145.079C193.332 144.226 191.992 143.861 191.737 144.713Z" fill="black"/>
<path d="M175.187 131.358C175.386 132.266 175.885 132.476 176.699 132.726C177.634 133.008 177.496 133.955 178.271 134.492C178.62 134.73 178.935 134.597 179.273 134.747C179.827 134.99 179.877 135.583 180.17 136.026C180.375 136.341 180.635 136.613 180.973 136.79C181.222 136.923 182.562 137.039 182.584 137.343C182.645 138.229 184.03 138.235 183.969 137.343C183.919 136.596 183.548 136.114 182.845 135.848C182.136 135.583 181.638 135.727 181.206 135.012C180.956 134.597 180.907 134.11 180.547 133.755C180.27 133.484 180.087 133.468 179.722 133.346C179.102 133.135 179.445 133.822 178.786 132.775C178.692 132.626 178.681 132.416 178.581 132.272C178.382 131.978 178.216 131.662 177.895 131.48C177.618 131.325 176.604 131.341 176.527 130.993C176.333 130.123 174.999 130.489 175.187 131.358Z" fill="black"/>
<path d="M174.954 126.114C174.982 125.599 174.761 125.073 175.381 124.941C175.746 124.863 176.139 125.057 176.527 124.924C177.219 124.686 177.502 124.093 177.789 123.473C178.238 122.504 178.958 122.737 179.772 122.277C180.48 121.873 180.923 121.17 181.084 120.384C181.261 119.514 179.927 119.143 179.75 120.018C179.473 121.38 178.399 120.993 177.507 121.557C176.776 122.017 176.837 122.892 176.278 123.423C175.752 123.922 174.772 123.279 174.096 123.844C173.415 124.415 173.615 125.345 173.576 126.125C173.526 127.006 174.91 127 174.954 126.114Z" fill="black"/>
<path d="M179.235 111.253C179.201 111.242 179.163 111.231 179.129 111.22C179.29 111.502 179.451 111.79 179.611 112.072C179.617 112.028 179.622 111.989 179.628 111.945C179.406 112.117 179.185 112.283 178.958 112.454C179.002 112.46 179.052 112.46 179.096 112.466C178.897 112.349 178.698 112.239 178.498 112.122C178.659 112.338 178.592 112.798 178.797 113.064C179.085 113.435 179.545 113.623 179.982 113.722C180.724 113.889 181.372 113.817 181.704 114.581C181.92 115.073 181.815 115.622 182.169 116.081C182.878 117 184.129 116.402 184.777 117.205C185.082 117.582 185.126 118.019 185.552 118.318C185.835 118.518 186.765 118.501 186.887 118.673C187.402 119.387 188.603 118.7 188.083 117.975C187.767 117.532 187.634 117.526 187.153 117.31C186.106 116.851 186.239 116.646 185.613 115.926C185.276 115.539 184.999 115.461 184.517 115.323C183.548 115.051 183.293 115.245 183.044 114.21C182.784 113.13 182.324 112.787 181.317 112.46C180.846 112.305 180.276 112.322 179.888 111.901C179.805 111.807 179.871 111.591 179.75 111.485C179.434 111.225 179.417 111.103 178.963 111.07C178.692 111.048 178.338 111.297 178.293 111.58C178.288 111.624 178.282 111.663 178.277 111.707C178.221 112.089 178.365 112.432 178.758 112.56C178.792 112.571 178.83 112.582 178.864 112.593C179.722 112.853 180.087 111.519 179.235 111.253Z" fill="black"/>
<path d="M186.2 130.095C185.957 129.625 186.04 129.232 186.455 128.911C186.632 128.949 186.804 128.977 186.987 128.999C187.203 128.994 187.457 128.944 187.646 128.828C188.277 128.451 187.967 127.942 188.166 127.421C188.299 127.072 188.31 127.183 188.759 127.089C189.041 127.028 189.301 126.973 189.545 126.795C190.314 126.231 190.359 125.278 191.3 124.797C192.092 124.392 191.394 123.196 190.602 123.601C190.087 123.866 189.667 124.182 189.318 124.647C188.908 125.195 188.941 125.494 188.183 125.771C187.457 126.031 186.893 126.103 186.782 127.017C186.699 127.67 186.97 127.416 186.383 127.515C186.001 127.582 185.702 127.593 185.387 127.853C184.578 128.512 184.667 129.536 184.872 130.466C185.06 131.336 186.394 130.965 186.2 130.095Z" fill="black"/>
<path d="M191.582 131.518C191.543 132.283 191.914 132.908 192.634 133.218C193.077 133.407 193.476 133.368 193.941 133.384C195.059 133.429 195.508 133.567 195.879 134.58C196.111 135.206 196.327 135.793 196.97 136.098C197.462 136.33 198.022 136.147 198.52 136.363C199.124 136.629 199.461 137.443 199.738 137.991C200.142 138.783 201.338 138.085 200.934 137.294C200.53 136.502 200.037 135.605 199.218 135.167C198.42 134.735 197.662 135.106 197.219 134.215C196.914 133.595 196.876 132.925 196.316 132.443C195.84 132.033 192.95 131.901 192.966 131.518C193.011 130.633 191.626 130.633 191.582 131.518Z" fill="black"/>
<path d="M187.612 111.103C187.751 110.876 187.889 110.649 188.028 110.428C188.188 110.478 188.349 110.528 188.504 110.577C188.709 110.655 188.858 110.744 189.069 110.782C189.357 110.838 189.628 110.832 189.899 110.705C190.564 110.406 190.791 109.675 190.896 109.01C190.984 108.424 190.94 108.197 191.566 108.141C191.937 108.108 192.302 108.152 192.646 107.947C193.31 107.554 193.41 106.757 193.382 106.059C193.349 105.173 191.964 105.168 191.998 106.059C192.031 106.895 191.505 106.668 190.924 106.773C190.553 106.84 190.248 107.023 190.015 107.311C189.772 107.604 189.672 107.953 189.6 108.324C189.495 108.833 189.633 109.337 189.074 109.315C188.742 109.304 188.399 109.038 188.028 109.038C187.623 109.033 187.197 109.154 186.87 109.387C186.2 109.863 185.979 110.716 186.278 111.469C186.605 112.288 187.945 111.934 187.612 111.103Z" fill="black"/>
<path d="M180.165 96.5797C180.37 97.1224 180.685 97.5155 181.217 97.7757C182.081 98.191 183.094 97.9086 183.786 98.6949C184.279 99.2541 184.091 100.079 184.639 100.577C184.827 100.749 186.333 101.015 186.245 100.777C186.555 101.607 187.889 101.247 187.579 100.411C187.358 99.8078 186.987 99.5421 186.339 99.4701C186.256 99.459 185.663 99.5587 185.591 99.4978C185.453 99.3649 185.42 98.7115 185.314 98.49C185.015 97.8699 184.506 97.3494 183.891 97.0393C183.316 96.7458 181.749 96.8677 181.499 96.2143C181.184 95.3837 179.849 95.7436 180.165 96.5797Z" fill="black"/>
<path d="M188.797 92.7315C188.759 92.7093 188.72 92.6817 188.687 92.6595C188.792 92.7979 188.897 92.9364 189.002 93.0748C189.096 93.3738 188.753 93.2686 189.152 93.3738C189.279 93.407 189.445 93.3793 189.573 93.3572C189.855 93.3074 190.104 93.1966 190.309 92.9973C190.68 92.6318 190.73 92.1224 190.763 91.6296C190.774 91.4137 190.724 91.0593 190.852 90.8711C191.018 90.6274 191.516 90.5444 191.754 90.3616C192.214 90.0073 192.468 89.437 192.252 88.8777C191.931 88.0582 190.591 88.4126 190.918 89.2432C190.929 89.2764 190.215 89.6086 190.126 89.6695C189.877 89.8467 189.711 90.0571 189.584 90.3284C189.401 90.7271 189.528 91.8068 189.246 91.9785C189.052 92.1003 188.576 91.9618 188.321 92.0726C188.083 92.1778 187.895 92.3384 187.767 92.5654C187.48 93.0803 187.618 93.6063 188.1 93.922C188.842 94.4148 189.539 93.2188 188.797 92.7315Z" fill="black"/>
<path d="M181.71 83.7892C181.078 84.4979 181.355 85.5167 182.158 85.9652C182.612 86.2199 183.149 86.1922 183.598 86.4359C184.063 86.685 184.351 87.1667 184.384 87.6872C184.439 88.5731 185.824 88.5787 185.768 87.6872C185.713 86.8567 185.386 86.1036 184.744 85.5555C184.462 85.3118 184.135 85.1346 183.78 85.0184C183.581 84.9519 183.371 84.9298 183.171 84.8689C183.033 84.8412 182.9 84.7969 182.778 84.7304C182.723 84.5809 182.695 84.592 182.684 84.7637C183.282 84.1103 182.308 83.1247 181.71 83.7892Z" fill="black"/>
<path d="M201.028 164.519C200.89 165.156 201.017 165.793 201.56 166.208C202.202 166.701 203.636 166.219 203.83 167.083C203.985 167.764 203.791 168.384 204.284 168.982C204.578 169.342 206.084 169.896 206.15 169.148C206.216 168.988 206.283 168.821 206.355 168.661C206.316 168.705 206.283 168.75 206.244 168.794C205.668 169.464 206.643 170.449 207.224 169.774C207.639 169.287 207.673 168.622 207.147 168.179C206.909 167.98 206.604 167.913 206.3 167.913C206.106 167.913 205.929 167.991 205.74 168.008C205.275 168.046 205.342 167.991 205.225 167.603C204.998 166.856 205.331 166.142 204.627 165.538C204.35 165.3 204.013 165.189 203.658 165.156C203.393 165.128 202.263 165.35 202.368 164.89C202.551 164.015 201.217 163.644 201.028 164.519Z" fill="black"/>
<path d="M208.958 162.869C208.93 162.62 208.825 162.094 209.002 161.878C209.157 161.695 209.556 161.74 209.766 161.679C210.27 161.529 210.619 161.203 210.785 160.704C210.862 160.472 210.807 160.167 210.896 159.946C211.056 159.547 211.488 159.464 211.743 159.165C212.103 158.739 212.141 158.24 211.87 157.764C211.433 156.989 210.237 157.686 210.674 158.462C210.441 158.041 209.688 159.098 209.616 159.309C209.539 159.541 209.605 160.051 209.484 160.234C209.334 160.444 209.063 160.389 208.836 160.455C207.701 160.782 207.463 161.806 207.568 162.875C207.667 163.744 209.052 163.755 208.958 162.869Z" fill="black"/>
<path d="M204.102 152.055C204.113 152.078 205.181 151.723 205.325 151.651C205.735 151.441 206.029 151.125 206.178 150.682C206.261 150.444 206.256 150.239 206.455 150.068C206.638 149.907 206.964 149.863 207.169 149.708C207.529 149.431 207.679 149.11 207.717 148.667C207.8 147.781 206.416 147.786 206.333 148.667C206.339 148.606 205.829 148.833 205.757 148.877C205.525 149.005 205.32 149.16 205.17 149.381C205.01 149.614 205.015 149.879 204.899 150.117C204.733 150.466 204.578 150.461 204.218 150.566C203.227 150.843 202.28 151.668 202.917 152.759C203.349 153.523 204.545 152.825 204.102 152.055Z" fill="black"/>
<path d="M196.084 127.011C195.807 125.743 197.108 124.73 198.271 125.107C198.725 125.251 199.124 124.868 199.146 124.437C199.234 122.942 200.137 121.646 201.538 121.087C202.357 120.76 201.997 119.42 201.172 119.752C199.162 120.555 197.894 122.266 197.761 124.437C198.055 124.215 198.343 123.994 198.636 123.767C196.41 123.047 194.256 125.14 194.749 127.377C194.938 128.252 196.272 127.881 196.084 127.011Z" fill="black"/>
<path d="M195.63 95.3174C195.702 96.0372 195.935 96.6739 196.555 97.1058C197.496 97.7647 199.296 97.0338 199.777 98.324C200.115 99.232 199.478 100.339 200.032 101.203C200.193 101.452 201.843 102.139 201.826 101.868C201.881 102.754 203.266 102.759 203.21 101.868C203.172 101.22 202.867 100.793 202.23 100.572C201.876 100.45 201.444 100.594 201.189 100.267C201.007 100.029 201.239 98.8334 201.2 98.4901C201.117 97.7758 200.846 97.0781 200.276 96.6241C199.567 96.0593 197.114 96.3749 197.014 95.3118C196.931 94.4425 195.547 94.4314 195.63 95.3174Z" fill="black"/>
<path d="M205.414 107.527C205.519 106.314 205.619 105.627 207.036 105.589C207.291 105.583 207.557 105.655 207.817 105.594C208.465 105.456 208.825 104.963 208.98 104.354C209.096 103.889 208.93 103.601 209.523 103.346C209.822 103.219 210.248 103.252 210.575 103.125C211.372 102.809 211.926 102.217 212.291 101.458C212.679 100.661 211.483 99.9574 211.095 100.76C210.663 101.657 210.043 101.79 209.157 101.973C208.786 102.05 208.498 102.089 208.221 102.349C207.994 102.56 207.872 102.815 207.784 103.108C207.59 103.772 207.922 104.188 206.975 104.193C204.871 104.199 204.207 105.544 204.03 107.532C203.952 108.412 205.336 108.407 205.414 107.527Z" fill="black"/>
<path d="M208.553 115.417C208.675 116.081 209.09 116.469 209.694 116.735C210.641 117.15 211.383 116.956 211.294 118.335C211.261 118.883 211.244 119.459 211.637 119.902C212.235 120.577 213.819 120.395 213.293 121.757C212.972 122.587 214.312 122.947 214.627 122.122C214.91 121.397 214.838 120.594 214.367 119.952C214.168 119.68 213.913 119.448 213.614 119.293C213.021 118.988 212.706 119.121 212.678 118.335C212.65 117.615 212.844 116.989 212.352 116.364C211.848 115.721 210.015 115.738 209.888 115.046C209.727 114.171 208.393 114.542 208.553 115.417Z" fill="black"/>
<path d="M214.4 128.346C214.079 127 215.923 127.327 216.499 126.978C217.269 126.513 217.246 125.838 218.238 125.5C218.869 125.284 219.539 125.24 220.17 124.952C221.117 124.52 221.942 123.894 222.767 123.268C223.465 122.737 222.778 121.535 222.069 122.072C220.552 123.23 219.373 123.745 217.518 124.176C216.482 124.415 216.482 125.057 215.696 125.583C214.976 126.065 214.135 125.827 213.492 126.596C212.966 127.222 212.883 127.953 213.066 128.717C213.271 129.581 214.605 129.215 214.4 128.346Z" fill="black"/>
<path d="M220.807 130.428C220.967 130.965 221.255 131.258 221.748 131.502C221.958 131.607 222.246 131.629 222.44 131.751C223.094 132.15 222.961 132.593 223.121 133.224C223.287 133.877 223.514 134.398 224.118 134.752C224.561 135.018 225.225 135.129 225.569 135.561C225.929 136.015 226.006 136.806 226.072 137.355C226.183 138.224 227.567 138.235 227.457 137.355C227.352 136.507 227.235 135.599 226.759 134.863C226.233 134.043 225.264 133.933 224.799 133.169C224.345 132.415 224.649 131.518 223.869 130.909C223.503 130.627 222.246 130.455 222.13 130.062C221.886 129.21 220.552 129.569 220.807 130.428Z" fill="black"/>
<path d="M229.722 130.987C229.744 131.031 231.277 130.417 231.466 130.262C231.942 129.863 231.986 129.387 232.025 128.811C232.058 128.257 231.892 128.318 232.457 128.185C232.706 128.13 232.983 128.174 233.232 128.108C233.575 128.013 234.893 126.901 234.987 126.961C235.275 127.15 235.79 127.044 235.934 126.712C236.183 126.147 236.133 125.765 235.746 125.284C235.187 124.592 234.212 125.572 234.766 126.264C234.755 126.181 234.744 126.098 234.738 126.015C235.054 125.932 235.369 125.848 235.685 125.765C234.76 125.167 234.112 125.749 233.415 126.352C232.667 127 231.455 126.579 230.862 127.487C230.569 127.941 230.79 128.362 230.641 128.811C230.419 129.492 229.705 129.365 229.19 129.669C228.442 130.106 228.088 130.92 228.526 131.685C228.974 132.46 230.17 131.762 229.722 130.987Z" fill="black"/>
<path d="M212.518 106.07C212.418 106.729 212.507 107.261 213.005 107.742C213.786 108.501 215.275 108.307 215.613 109.47C215.812 110.157 215.657 110.849 216.089 111.48C216.289 111.768 216.527 111.967 216.842 112.128C216.97 112.194 218.476 112.571 218.326 112.798C217.833 113.545 219.029 114.237 219.522 113.495C219.893 112.936 219.849 112.344 219.434 111.812C218.675 110.838 217.451 111.347 217.053 109.913C216.859 109.204 216.975 108.54 216.444 107.936C216.017 107.449 213.769 106.995 213.852 106.441C213.985 105.566 212.651 105.195 212.518 106.07Z" fill="black"/>
<path d="M217.734 137.537C217.285 136.74 219.107 136.912 219.401 136.961C219.744 137.017 220.181 136.878 220.253 136.48C220.353 135.92 220.652 135.605 221.211 135.494C222.086 135.317 221.715 133.983 220.846 134.16C219.86 134.359 219.102 135.123 218.919 136.114C219.201 135.954 219.489 135.793 219.771 135.633C218.814 135.478 217.69 135.339 216.92 136.076C216.311 136.657 216.128 137.51 216.543 138.246C216.975 139.016 218.171 138.318 217.734 137.537Z" fill="black"/>
<path d="M225.059 117.51C225.148 118.351 225.585 118.689 226.355 118.961C226.693 119.082 226.826 118.972 227.158 119.21C227.568 119.503 227.479 119.592 227.54 120.074C227.59 120.45 227.628 120.804 227.8 121.148C228.166 121.856 228.847 122.072 229.589 122.178C230.342 122.283 230.585 122.521 230.801 123.23C230.929 123.645 231.084 123.955 231.371 124.282C231.969 124.946 232.944 123.966 232.352 123.302C231.814 122.704 232.041 121.812 231.327 121.275C230.646 120.755 229.306 121.059 228.952 120.256C228.669 119.625 228.924 118.922 228.459 118.318C228.265 118.069 228.016 117.897 227.723 117.787C227.562 117.726 226.444 117.61 226.432 117.504C226.355 116.629 224.971 116.624 225.059 117.51Z" fill="black"/>
<path d="M202.396 93.3462C202.407 92.8977 202.418 92.4492 202.429 92.0007C202.136 92.2222 201.848 92.4437 201.554 92.6707C202.23 92.7648 202.977 92.8257 203.609 92.499C203.858 92.3717 204.074 92.1889 204.229 91.9509C204.356 91.7626 204.412 91.2532 204.528 91.1369C204.367 91.2034 204.201 91.2698 204.041 91.3418C204.688 91.2753 205.07 91.6519 205.663 91.1757C205.829 91.0428 206.333 90.1236 206.46 90.1181C207.346 90.0793 207.352 88.6951 206.46 88.7338C205.978 88.756 205.657 88.9442 205.353 89.3097C205.225 89.4592 205.115 89.7859 204.96 89.8966C204.694 90.0849 204.76 89.9686 204.389 89.9464C203.863 89.9132 203.465 90.1015 203.249 90.5887C203.116 90.8877 203.204 91.1258 202.889 91.303C202.656 91.4414 202.18 91.3695 201.931 91.3307C201.482 91.2698 201.067 91.5024 201.056 92.0007C201.045 92.4492 201.034 92.8977 201.023 93.3462C200.99 94.2377 202.374 94.2321 202.396 93.3462Z" fill="black"/>
<path d="M164.894 194.098C160.005 206.008 155.78 218.195 152.502 230.654C150.857 236.894 149.456 243.201 148.355 249.563C147.33 255.482 146.267 261.617 146.284 267.635C146.306 273.859 148.382 279.839 149.927 285.802C151.621 292.342 153.133 298.925 154.495 305.536C157.23 318.776 159.373 332.125 161.195 345.519C163.305 360.984 164.982 376.505 166.66 392.019C166.754 392.894 168.138 392.905 168.044 392.019C165.204 365.779 162.358 339.495 157.474 313.538C156.228 306.899 154.844 300.287 153.299 293.715C151.782 287.27 149.761 280.919 148.421 274.441C147.009 267.613 148 260.709 149.036 253.893C149.977 247.708 151.217 241.567 152.696 235.487C156.101 221.479 160.747 207.791 166.217 194.458C166.566 193.644 165.232 193.284 164.894 194.098Z" fill="black"/>
<path d="M125.896 283.865C129.468 285.022 133.15 284.701 136.489 283.006C137.286 282.602 136.583 281.406 135.791 281.81C132.768 283.344 129.479 283.571 126.262 282.53C125.415 282.259 125.055 283.593 125.896 283.865Z" fill="black"/>
<path d="M200.702 286.877C198.509 289.966 196.184 292.951 193.72 295.824C193.144 296.5 194.118 297.48 194.7 296.804C197.241 293.837 199.639 290.758 201.898 287.574C202.418 286.849 201.217 286.157 200.702 286.877Z" fill="black"/>
<path d="M202.203 291.146C199.052 298.46 195.375 305.509 191.167 312.27C190.697 313.028 191.893 313.726 192.363 312.967C196.571 306.206 200.248 299.158 203.399 291.843C203.747 291.035 202.551 290.326 202.203 291.146Z" fill="black"/>
<path d="M129.927 197.343C134.163 196.053 136.649 192.288 138.942 188.755C141.372 185.006 143.604 181.097 145.647 177.122C146.051 176.33 144.861 175.627 144.451 176.424C142.735 179.774 140.869 183.052 138.886 186.252C136.583 189.968 134.025 194.652 129.562 196.003C128.709 196.269 129.069 197.603 129.927 197.343Z" fill="black"/>
<path d="M194.555 176.396C195.757 178.423 196.853 180.649 198.52 182.348C200.275 184.137 202.656 185.35 204.755 186.678C205.508 187.155 206.205 185.959 205.452 185.482C203.454 184.22 201.167 183.063 199.495 181.368C197.922 179.768 196.881 177.609 195.746 175.698C195.297 174.934 194.101 175.626 194.555 176.396Z" fill="black"/>
<path d="M94.3133 84.7858C96.5669 80.5112 103.134 78.5068 107.209 76.4027C111.605 74.127 115.98 71.7572 120.005 68.8558C126.605 64.0995 132.203 57.8703 134.628 49.9689C134.889 49.1162 133.554 48.7508 133.294 49.6035C130.465 58.8227 123.172 65.4726 115.182 70.3951C110.958 72.9975 106.506 75.2012 102.098 77.4714C98.8205 79.1602 94.9335 80.6607 93.1284 84.0882C92.702 84.8744 93.8925 85.5721 94.3133 84.7858Z" fill="black"/>
<path d="M175.486 27.8153C183.465 29.6481 186.555 37.6657 186.006 45.1462C185.94 46.0377 187.324 46.0322 187.391 45.1462C187.989 37.0511 184.417 28.4466 175.857 26.4809C174.988 26.276 174.617 27.6105 175.486 27.8153Z" fill="black"/>
<path d="M178.395 48.1332C179.374 47.0646 179.6 45.6774 178.899 45.0348C178.198 44.3922 176.835 44.7375 175.856 45.806C174.877 46.8746 174.651 48.2618 175.352 48.9044C176.053 49.547 177.415 49.2018 178.395 48.1332Z" fill="#F8BAB4"/>
<path d="M159.537 48.5297C160.012 47.7061 159.38 46.4509 158.125 45.7261C156.869 45.0014 155.466 45.0815 154.991 45.9051C154.515 46.7287 155.147 47.9839 156.403 48.7087C157.658 49.4334 159.061 49.3533 159.537 48.5297Z" fill="#F8BAB4"/>
<path d="M25.6868 99.0775C27.0191 99.8147 28.8832 100.169 30.3739 99.8058C30.2725 99.393 30.1711 98.9801 30.0698 98.5673C28.4079 99.4178 28.0735 101.414 28.6998 103.042C28.9835 102.767 29.2672 102.492 29.551 102.217C27.5675 101.321 26.1746 101.972 24.2578 102.626C24.4129 103.025 24.571 103.428 24.7261 103.826C26.8043 102.801 27.5055 100.14 26.0542 98.2839C25.5424 97.6303 24.5078 98.3997 25.0197 99.0533C25.9223 100.206 25.6168 101.956 24.2578 102.626C23.5189 102.99 23.9267 104.1 24.7261 103.826C26.3052 103.288 27.3691 102.644 29.052 103.404C29.5635 103.633 30.1011 103.086 29.9032 102.578C29.5625 101.688 29.5293 100.286 30.538 99.7672C31.1282 99.4632 30.9989 98.3388 30.2339 98.5287C28.9228 98.8485 27.3607 98.5456 26.192 97.8988C25.4677 97.4867 24.9645 98.6768 25.6868 99.0775Z" fill="black"/>
<path d="M283.512 80.1261C284.377 78.8728 284.913 77.0527 284.698 75.5335C284.277 75.5937 283.857 75.654 283.436 75.7142C284.119 77.4518 286.072 77.981 287.754 77.518C287.508 77.2086 287.262 76.8991 287.016 76.5897C285.93 78.4754 286.44 79.9255 286.903 81.8975C287.315 81.7824 287.731 81.6647 288.143 81.5496C287.328 79.3806 284.749 78.4208 282.759 79.6824C282.058 80.1274 282.722 81.2327 283.422 80.7877C284.659 80.0029 286.37 80.4792 286.903 81.8975C287.192 82.6686 288.337 82.372 288.143 81.5496C287.763 79.9252 287.227 78.8031 288.148 77.2031C288.427 76.7167 287.935 76.1278 287.41 76.2747C286.491 76.5261 285.093 76.4213 284.676 75.3664C284.432 74.7492 283.3 74.7671 283.414 75.5471C283.603 76.8833 283.148 78.408 282.389 79.5074C281.907 80.1876 283.042 80.8054 283.512 80.1261Z" fill="black"/>
<path d="M54.906 38.9634C56.2384 39.7006 58.1024 40.0552 59.5931 39.6917C59.4917 39.2788 59.3904 38.866 59.289 38.4532C57.6271 39.3037 57.2927 41.2997 57.919 42.9282C58.2027 42.6529 58.4864 42.3777 58.7702 42.1024C56.7868 41.2071 55.3938 41.8576 53.477 42.5123C53.6321 42.9109 53.7902 43.3136 53.9453 43.7122C56.0235 42.687 56.7248 40.0262 55.2734 38.1698C54.7616 37.5162 53.7271 38.2856 54.2389 38.9392C55.1415 40.0924 54.836 41.8421 53.477 42.5123C52.7381 42.8755 53.1459 43.9856 53.9453 43.7122C55.5244 43.1738 56.5883 42.5303 58.2712 43.2894C58.7827 43.5192 59.3203 42.9717 59.1224 42.4636C58.7817 41.5735 58.7485 40.1721 59.7572 39.6531C60.3474 39.3491 60.2181 38.2247 59.4531 38.4146C58.142 38.7344 56.58 38.4315 55.4112 37.7847C54.6828 37.3757 54.1838 38.5627 54.906 38.9634Z" fill="black"/>
<path d="M226.566 42.1323C227.43 40.879 227.967 39.0589 227.752 37.5396C227.331 37.5999 226.91 37.6601 226.489 37.7203C227.172 39.4579 229.126 39.9871 230.808 39.5242C230.562 39.2147 230.316 38.9053 230.07 38.5958C228.984 40.4815 229.494 41.9317 229.957 43.9036C230.369 43.7886 230.785 43.6708 231.197 43.5558C230.381 41.3867 227.802 40.427 225.812 41.6885C225.111 42.1335 225.775 43.2388 226.476 42.7938C227.712 42.0091 229.423 42.4853 229.957 43.9036C230.245 44.6747 231.39 44.3781 231.197 43.5558C230.817 41.9313 230.281 40.8093 231.202 39.2093C231.481 38.7228 230.989 38.134 230.464 38.2809C229.545 38.5323 228.147 38.4274 227.73 37.3725C227.485 36.7553 226.353 36.7733 226.467 37.5532C226.656 38.8894 226.201 40.4141 225.442 41.5135C224.964 42.1981 226.096 42.8116 226.566 42.1323Z" fill="black"/>
</g>
</svg>
