<svg width="332" height="379" viewBox="0 0 332 379" fill="none" xmlns="http://www.w3.org/2000/svg">
<path d="M289.58 123.592C287.412 116.74 284.661 109.796 281.247 102.767C225.856 -11.4338 111.252 25.836 87.4477 57.3338C63.6429 88.8262 63.6054 111.722 81.0737 132.462C86.3345 138.705 97.3431 140.866 108.775 142.358C109.524 134.179 109.626 120.046 109.647 119.554C109.818 115.098 107.351 101.403 110.883 99.7284C113.249 98.605 117.996 105.554 122.159 107.667C123.23 108.213 124.627 107.335 125.911 107.186C129.834 106.726 137.166 107.437 138.295 107.555C138.397 107.41 138.83 107.009 140.158 105.982C142.866 103.874 148.892 101.879 148.892 101.879C148.892 101.879 149.486 113.198 149.181 122.02C148.881 130.841 143.064 136.153 143.064 136.153C143.064 136.153 150.246 144.91 152.113 153.496C154.506 164.495 151.717 175.942 151.776 176.114C151.776 176.114 164.861 188.594 164.605 189.969C165.45 189.423 169.812 187.519 170.684 192.558C171.417 196.773 170.304 201.32 169.71 202.62C168.977 204.225 166.376 204.001 166.141 203.974C163.507 203.68 137.963 177.007 133.468 174.68C131.059 173.434 126.216 188.599 122.111 189.423C127.549 194.885 132.456 202.134 133.559 214.657C134.18 221.729 134.265 228.052 133.896 233.728C140.345 229.571 147.671 224.393 147.671 224.393L155.587 233.514C155.587 233.514 152.435 237.29 149.646 239.901C146.858 242.511 139.569 246.197 139.569 246.197C139.569 246.197 141.458 247.369 148.207 252.135C154.955 256.902 157.203 264.46 159.274 270.125C160.757 274.191 161.586 277.283 160.441 280.466C160.409 280.616 160.371 280.766 160.334 280.915C159.836 282.729 158.594 284.419 157 285.35C156.165 285.928 155.298 286.136 154.447 286.094C154.26 286.099 154.067 286.088 153.88 286.067C152.665 285.939 151.535 285.355 150.561 284.623C149.796 284.045 149.106 283.323 148.571 282.515C148.308 282.21 148.116 281.958 148.03 281.819C147.907 281.627 147.832 281.306 147.762 280.873C147.543 280.215 147.436 279.524 147.484 278.829C147.195 276.887 146.617 274.234 144.883 271.383C141.822 266.343 132.553 260.496 132.553 260.496C132.553 260.496 137.68 274.887 138.584 280.643C139.483 286.399 137.503 299.89 136.786 304.929C136.063 309.968 134.618 318.447 134.618 318.447C134.618 318.447 132.012 316.361 128.362 312.713C124.712 309.064 124.541 302.463 123.497 295.343C122.545 288.833 121.737 284.061 117.493 272.554C109.722 279.321 100.458 282.392 92.5051 284.505C79.4307 287.971 47.6517 301.602 59.8003 327.6C70.7072 350.94 124.134 354.465 177.379 329.312C185.391 325.53 195.961 319.239 207.494 310.776C253.931 276.684 316.023 207.258 289.58 123.592Z" fill="#FFECDD"/>
<path d="M138.44 107.565C138.44 107.565 138.381 107.56 138.29 107.549C138.183 107.699 138.44 107.565 138.44 107.565Z" fill="#CAE9ED"/>
<path d="M164.481 190.097C164.556 190.081 164.583 190.033 164.599 189.969C164.465 190.054 164.417 190.108 164.481 190.097Z" fill="#CAE9ED"/>
<path d="M292.095 153.967C284.951 153.967 279.139 148.157 279.139 141.016C279.139 133.874 284.951 128.064 292.095 128.064C299.24 128.064 305.052 133.874 305.052 141.016C305.052 148.157 299.24 153.967 292.095 153.967ZM292.095 129.675C285.839 129.675 280.744 134.762 280.744 141.021C280.744 147.274 285.834 152.367 292.095 152.367C298.357 152.367 303.447 147.28 303.447 141.021C303.447 134.762 298.357 129.675 292.095 129.675Z" fill="#FFECDD"/>
<path d="M224.658 120.431C226.097 119.778 227.548 118.446 228.169 116.98C227.762 116.809 227.355 116.638 226.948 116.467C226.627 118.376 228.083 119.89 229.828 120.377C229.774 119.971 229.721 119.564 229.667 119.157C227.692 120.254 227.371 121.816 226.729 123.817C227.157 123.935 227.591 124.052 228.019 124.17C228.452 121.805 226.67 119.575 224.224 119.634C223.363 119.655 223.363 120.992 224.224 120.971C225.744 120.934 227.013 122.271 226.729 123.817C226.574 124.657 227.751 125.004 228.019 124.17C228.549 122.522 228.672 121.238 230.347 120.308C230.855 120.024 230.732 119.238 230.186 119.088C229.234 118.82 228.046 117.981 228.238 116.82C228.351 116.14 227.334 115.552 227.018 116.306C226.472 117.595 225.252 118.708 223.989 119.281C223.197 119.634 223.876 120.784 224.658 120.431Z" fill="#333333"/>
<path d="M217.08 68.4775C218.519 67.8249 219.97 66.4929 220.591 65.0271C220.184 64.8559 219.777 64.6847 219.37 64.5136C219.049 66.4233 220.505 67.9372 222.25 68.424C222.196 68.0175 222.143 67.6109 222.089 67.2044C220.114 68.301 219.793 69.8631 219.151 71.8638C219.579 71.9815 220.012 72.0991 220.441 72.2168C220.874 69.8524 219.092 67.6216 216.646 67.6805C215.785 67.7019 215.785 69.0392 216.646 69.0178C218.166 68.9804 219.435 70.3178 219.151 71.8638C218.996 72.7036 220.173 73.0514 220.441 72.2168C220.97 70.5692 221.094 69.2853 222.769 68.3545C223.277 68.071 223.154 67.2846 222.608 67.1348C221.656 66.8673 220.467 66.0275 220.66 64.8666C220.772 64.1872 219.756 63.5988 219.44 64.3531C218.894 65.6423 217.674 66.755 216.411 67.3274C215.619 67.6805 216.298 68.8306 217.08 68.4775Z" fill="#333333"/>
<path d="M248.863 198.961C250.303 198.309 251.753 196.977 252.374 195.511C251.967 195.34 251.56 195.169 251.154 194.997C250.832 196.907 252.288 198.421 254.033 198.908C253.979 198.501 253.926 198.095 253.872 197.688C251.897 198.785 251.576 200.347 250.934 202.348C251.362 202.465 251.796 202.583 252.224 202.701C252.657 200.336 250.875 198.105 248.429 198.164C247.568 198.186 247.568 199.523 248.429 199.502C249.949 199.464 251.218 200.802 250.934 202.348C250.779 203.187 251.956 203.535 252.224 202.701C252.754 201.053 252.877 199.769 254.552 198.838C255.06 198.555 254.937 197.768 254.391 197.619C253.439 197.351 252.251 196.511 252.443 195.351C252.556 194.671 251.539 194.083 251.223 194.837C250.677 196.126 249.457 197.239 248.194 197.811C247.402 198.164 248.082 199.314 248.863 198.961Z" fill="#333333"/>
<path d="M168.903 127.84C168.903 127.84 167.137 130.846 163.503 132.403C159.869 133.96 153.329 136.035 150.734 135.516C148.138 134.997 145.13 134.377 145.13 134.377L143.364 137.282C143.364 137.282 149.075 145.686 151.253 151.704C153.431 157.722 153.49 162.462 152.939 167.089C152.387 171.716 150.975 173.519 151.681 175.327C152.388 177.13 164.552 190.231 164.552 190.231C164.552 190.231 167.223 186.78 169.262 189.68C171.301 192.585 170.359 193.836 170.359 193.836C170.359 193.836 172.087 195.719 171.536 196.816C170.985 197.913 169.968 198.619 169.968 198.619C169.968 198.619 171.226 200.502 170.204 202.149C169.181 203.797 168.004 203.797 167.223 203.797C166.436 203.797 165.339 203.952 165.339 203.952C165.339 203.952 153.099 191.097 148.994 187.69C144.89 184.282 133.56 174.482 133.56 174.482C133.56 174.482 127.582 180.735 125.564 183.934C123.547 187.133 121.112 192.135 121.181 193.387C121.251 194.639 123.895 196.586 125.425 197.907C126.956 199.229 134.71 207.761 138.253 212.843C141.796 217.925 153.506 231.17 157.226 234.257C160.945 237.344 172.569 249.503 183.824 249.503C195.079 249.503 197.53 246.144 198.622 244.239C199.713 242.335 211.332 215.657 212.237 199.143C213.146 182.629 212.51 165.933 208.062 156.952C203.615 147.97 197.985 141.256 190.177 136.356C182.368 131.456 170.204 127.465 170.204 127.465L168.903 127.84Z" fill="#FFECDD"/>
<path d="M107.962 139.031C107.962 139.031 96.1131 145.627 90.3492 158.514C84.5907 171.395 74.5293 200.282 74.5293 212.779C74.5293 225.27 76.4827 239.617 83.6113 245.865C90.7399 252.113 98.4518 249.867 105.19 247.722C111.928 245.576 134.973 233.957 140.148 230.058C145.323 226.152 147.667 224.398 147.667 224.398L136.193 206.985C136.193 206.985 119.896 208.681 111.483 212.886C103.07 217.09 101.947 218.214 101.947 218.214C101.947 218.214 99.4205 214.148 99.8433 207.702C100.266 201.256 100.967 199.715 100.967 199.715C100.967 199.715 94.5183 188.364 97.1835 176.873C99.8487 165.382 105.174 159.075 105.174 159.075C105.174 159.075 106.271 152.832 107.052 150.949C107.834 149.066 108.524 147.74 108.524 147.74L107.962 139.031Z" fill="#FFECDD"/>
<path d="M97.7887 250.006C93.9247 261.641 94.2832 275.122 95.9637 287.116C96.6969 292.321 97.7191 297.729 100.106 302.463C102.632 307.476 106.405 311.964 110.836 315.393C115.605 319.079 121.251 321.491 127.266 322.128C134.55 322.898 141.438 320.833 147.967 317.784C160.528 311.916 172.286 304.293 183.145 295.701C196.979 284.756 209.454 271.955 219.307 257.287C219.788 256.57 218.627 255.901 218.151 256.613C202.304 280.209 179.5 299.639 154.496 313.012C148.625 316.153 142.471 319.384 135.845 320.502C128.888 321.673 121.802 320.496 115.658 317.014C105.859 311.466 100.079 301.987 97.976 291.165C96.6166 284.179 96.1403 276.989 96.2741 269.874C96.3972 263.316 96.9913 256.618 99.0678 250.359C99.3514 249.541 98.0563 249.193 97.7887 250.006Z" fill="#333333"/>
<path d="M149.166 123.609C149.166 123.609 150.178 123.079 155.749 123.582C161.839 124.128 167.062 126.738 167.062 126.738L163.643 116.959L162.305 108.234C162.305 108.234 159.356 112.883 156.798 115.873C153.667 119.532 149.262 120.378 149.262 120.378L149.166 123.609Z" fill="#F8BAB4"/>
<path d="M161.958 107.56C161.808 111.011 162.867 114.563 163.783 117.853C164.778 121.437 165.955 124.962 167.085 128.509C167.342 129.327 168.637 128.98 168.374 128.156C167.32 124.839 166.223 121.544 165.27 118.195C164.307 114.803 163.146 111.128 163.296 107.566C163.333 106.704 161.995 106.704 161.958 107.56Z" fill="#333333"/>
<path d="M148.268 89.9069C148.524 91.0196 148.84 92.4747 149.729 93.2717C150.365 93.8441 151.318 92.9026 150.676 92.3249C149.975 91.6936 149.761 90.4258 149.557 89.5485C149.365 88.714 148.075 89.0671 148.268 89.9069Z" fill="#333333"/>
<path d="M136.524 92.453C136.599 93.8171 137.199 95.0422 138.039 96.096C138.574 96.7701 139.516 95.8178 138.986 95.1491C138.382 94.3895 137.916 93.4373 137.868 92.453C137.82 91.5971 136.482 91.5918 136.524 92.453Z" fill="#333333"/>
<path d="M141.256 73.0186C142.064 81.1284 148.513 88.2005 156.69 89.3453C159.452 89.7304 163.787 88.7675 164.301 92.4854C164.654 95.0264 164.226 97.653 164.295 100.205C164.429 105.073 168.261 107.459 170.407 111.439C170.814 112.198 171.97 111.524 171.563 110.765C170.621 109.015 169.315 107.592 168.074 106.052C165.922 103.393 165.607 101.05 165.698 97.7172C165.778 94.8445 166.532 90.1691 163.273 88.7461C161.475 87.9651 159.415 88.2914 157.52 88.1095C155.021 87.8688 152.618 86.9754 150.504 85.6381C146.11 82.8563 143.102 78.2076 142.588 73.024C142.508 72.1734 141.17 72.1627 141.256 73.0186Z" fill="#333333"/>
<path d="M134.823 104.137C129.273 103.425 129.685 97.7493 127.047 93.9405C125.645 91.9184 123.59 90.5543 122.53 88.2754C121.342 85.7183 121.133 82.7761 121.321 79.9997C121.695 74.5165 123.777 68.9584 127.352 64.7591C130.536 61.0198 134.861 58.5965 139.147 56.3443C139.907 55.9431 139.233 54.7876 138.473 55.1889C133.603 57.7459 128.818 60.5651 125.436 65.0212C121.931 69.6431 119.983 75.6453 119.929 81.4388C119.902 83.9958 120.272 86.6277 121.379 88.9548C122.749 91.8328 125.543 93.55 126.951 96.4173C127.989 98.525 128.31 101.093 129.728 103.003C130.975 104.688 132.822 105.217 134.823 105.474C135.674 105.586 135.669 104.244 134.823 104.137Z" fill="#333333"/>
<path d="M156.194 96.4879C157.14 95.4555 157.358 94.1153 156.681 93.4945C156.003 92.8736 154.686 93.2072 153.739 94.2396C152.793 95.272 152.575 96.6122 153.252 97.233C153.93 97.8539 155.247 97.5203 156.194 96.4879Z" fill="#F8BAB4"/>
<path d="M138.167 100.089C138.627 99.2933 138.016 98.0806 136.803 97.3804C135.589 96.6802 134.233 96.7577 133.774 97.5534C133.314 98.3491 133.925 99.5618 135.138 100.262C136.351 100.962 137.708 100.885 138.167 100.089Z" fill="#F8BAB4"/>
<path d="M140.962 72.9543C138.976 75.7735 136.391 77.9882 133.635 80.0263C131.778 81.4012 130.253 82.8081 129.814 85.1833C129.659 86.0231 130.948 86.3869 131.104 85.5363C131.682 82.4229 134.684 81 136.932 79.1437C138.901 77.5174 140.646 75.7147 142.118 73.623C142.615 72.9276 141.454 72.2589 140.962 72.9543Z" fill="#333333"/>
<path d="M145.266 74.8589C148.091 81.1071 154.283 84.7073 161.118 84.1403C161.969 84.0707 161.979 82.7333 161.118 82.8029C154.717 83.3378 149.065 80.0318 146.422 74.1849C146.068 73.4038 144.912 74.0832 145.266 74.8589Z" fill="#333333"/>
<path d="M127.159 86.9003C125.612 79.9085 131.548 77.0626 136.225 73.6068C139.864 70.916 141.448 67.7385 142.016 63.2663C142.123 62.4157 140.785 62.4211 140.678 63.2663C140.25 66.6472 139.185 69.4503 136.519 71.6917C134.571 73.3287 132.302 74.5269 130.301 76.0943C126.72 78.8921 124.863 82.6903 125.869 87.2534C126.051 88.0932 127.341 87.7402 127.159 86.9003Z" fill="#333333"/>
<path d="M132.928 174.017C129.246 177.729 125.842 181.811 123.284 186.39C122.139 188.439 119.308 192.499 121.01 194.762C122.84 197.196 125.591 199.127 127.812 201.181C130.611 203.77 133.688 206.493 135.519 209.885C135.925 210.644 137.081 209.97 136.674 209.211C133.742 203.781 128.219 199.881 123.814 195.725C123.279 195.222 121.978 194.318 121.78 193.569C121.582 192.825 122.46 191.226 122.749 190.53C123.241 189.337 123.809 188.187 124.435 187.064C126.945 182.581 130.263 178.601 133.87 174.963C134.486 174.348 133.538 173.401 132.928 174.017Z" fill="#333333"/>
<path d="M134.76 208.499C141.38 219.508 149.622 229.357 159.592 237.488C169.15 245.288 181.01 253.627 193.887 249.171C194.695 248.893 194.347 247.599 193.533 247.882C180.411 252.429 168.144 243.057 158.666 234.984C149.59 227.254 142.054 218.032 135.916 207.83C135.472 207.087 134.31 207.761 134.76 208.499Z" fill="#333333"/>
<path d="M133.208 175.21C142.199 182.095 150.553 189.932 158.469 198.009C162.857 202.492 167.122 207.119 171.019 212.041C174.123 215.967 177.264 220.199 179.036 224.928C179.335 225.725 180.63 225.383 180.325 224.575C178.613 220.006 175.717 215.935 172.753 212.105C168.798 206.996 164.43 202.209 159.924 197.581C151.784 189.225 143.157 181.158 133.882 174.054C133.203 173.53 132.534 174.691 133.208 175.21Z" fill="#333333"/>
<path d="M175.524 215.791C173.25 207.365 175.39 198.56 176.953 190.193C178.446 182.196 180.26 174.236 183.498 166.741C183.835 165.96 182.685 165.275 182.342 166.067C178.922 173.974 177.044 182.346 175.487 190.792C173.951 199.116 171.97 207.777 174.234 216.154C174.459 216.978 175.749 216.625 175.524 215.791Z" fill="#333333"/>
<path d="M146.581 135.976C151.521 136.902 156.985 136.089 161.62 134.216C163.375 133.51 165.034 132.617 166.383 131.279C167.389 130.279 168.325 128.583 169.867 128.53C170.568 128.508 171.472 128.942 172.131 129.145C182.609 132.344 192.697 136.838 199.997 145.311C209.55 156.401 211.932 172.128 212.039 186.299C212.13 198.132 210.257 210.077 207.19 221.488C205.643 227.238 203.77 232.973 201.121 238.317C199.382 241.821 197.177 245.962 193.57 247.845C192.805 248.241 193.484 249.396 194.244 249C197.257 247.433 199.312 244.357 200.95 241.489C203.46 237.103 205.274 232.31 206.81 227.511C210.61 215.662 212.858 203.102 213.307 190.659C213.8 176.9 212.205 161.392 204.734 149.494C198.37 139.352 188.464 133.537 177.493 129.562C175.315 128.771 173.094 127.915 170.835 127.39C168.898 126.936 167.86 127.738 166.468 129.188C161.716 134.141 153.635 135.955 146.934 134.698C146.099 134.532 145.735 135.821 146.581 135.976Z" fill="#333333"/>
<path d="M152.168 108.015C152.607 107.271 151.451 106.597 151.012 107.341C150.68 107.897 150.236 108.352 149.717 108.694C149.728 109.192 149.744 109.689 149.754 110.187C150.734 109.737 151.585 109.004 152.168 108.015Z" fill="#333333"/>
<path d="M144.611 99.1504C144.483 99.236 144.359 99.3323 144.236 99.4339C144.258 99.5944 144.284 99.7495 144.306 99.91C144.408 99.6586 144.509 99.4072 144.611 99.1504Z" fill="#333333"/>
<path d="M143.899 102.419C144.006 101.392 144.429 100.894 145.291 100.306C145.563 100.119 145.644 99.8672 145.596 99.5516C145.333 97.7542 145.071 95.9514 144.809 94.154C144.686 93.3034 143.396 93.6672 143.519 94.5071C143.76 96.1494 143.995 97.7916 144.236 99.4339C144.359 99.3376 144.482 99.2414 144.611 99.1504C144.509 99.4018 144.407 99.6533 144.306 99.9047C144.284 99.7442 144.258 99.5891 144.236 99.4286C143.037 100.397 142.181 101.868 142.433 103.328C142.893 103.066 143.364 102.826 143.846 102.612C143.867 102.547 143.872 102.488 143.899 102.419Z" fill="#333333"/>
<path d="M136.706 106.576C132.741 100.178 130.279 92.8809 131.119 85.3489C131.215 84.493 129.878 84.5037 129.781 85.3489C128.984 92.4851 131.124 99.8139 134.823 106.297C135.122 106.33 135.427 106.362 135.727 106.399C136.059 106.442 136.385 106.517 136.706 106.576Z" fill="#333333"/>
<path d="M164.183 101.51C162.861 106.222 160.619 110.866 157.392 114.578C155.808 116.397 153.94 118.045 151.692 118.976C151.012 119.259 150.375 119.462 149.755 119.532C149.744 119.783 149.744 120.04 149.733 120.292C149.723 120.495 149.712 120.703 149.701 120.907C152.527 120.72 155.46 118.516 157.36 116.584C161.304 112.588 163.969 107.233 165.478 101.868C165.708 101.033 164.419 100.68 164.183 101.51Z" fill="#333333"/>
<path d="M130.669 106.142C128.978 106.201 127.292 106.394 125.633 106.725C123.974 107.052 122.679 107.742 120.956 106.426C120.351 105.961 119.907 105.121 119.382 104.548C117.06 101.991 114.202 100.055 111.039 98.6852C110.643 98.514 110.193 98.6317 110.054 99.0864C108.898 102.933 108.16 106.929 108.047 110.957C107.94 114.787 108.781 118.446 108.438 122.287C107.662 131.055 107.266 139.871 107.876 148.66C107.935 149.516 109.273 149.521 109.214 148.66C108.625 140.187 108.957 131.665 109.696 123.213C109.867 121.249 110.119 119.275 109.899 117.301C109.706 115.6 109.396 113.947 109.38 112.225C109.337 108.154 110.022 104.104 111.135 100.194C110.878 100.076 110.627 99.9584 110.365 99.8461C110.691 99.7123 111.018 99.5786 111.349 99.4448C111.275 99.6909 111.21 99.9424 111.135 100.194C113.378 101.242 115.449 102.574 117.258 104.297C118.606 105.581 119.704 107.779 121.448 108.544C123.3 109.357 125.917 107.983 127.833 107.731C130.466 107.383 133.088 107.416 135.695 107.769C135.395 107.287 135.106 106.795 134.828 106.303C133.447 106.153 132.056 106.094 130.669 106.142Z" fill="#333333"/>
<path d="M110.365 99.8353C110.622 99.9476 110.879 100.065 111.136 100.183C111.205 99.9316 111.275 99.6802 111.35 99.4341C111.018 99.5678 110.692 99.7016 110.365 99.8353Z" fill="#333333"/>
<path d="M148.219 101.879C148.224 102.141 148.229 102.398 148.235 102.66C148.508 102.612 148.786 102.564 149.07 102.526C148.781 102.307 148.502 102.093 148.219 101.879Z" fill="#333333"/>
<path d="M148.357 120.827C148.186 124.042 147.715 127.23 146.5 130.236C144.959 134.045 142.363 137.458 138.264 138.576C134.453 139.614 129.963 139.304 126.517 137.324C125.767 136.896 125.093 138.052 125.842 138.48C132.66 142.39 141.791 140.727 146.056 134.056C148.561 130.135 149.449 125.486 149.695 120.902C149.246 120.934 148.801 120.912 148.357 120.827Z" fill="#333333"/>
<path d="M149.749 119.527C149.856 116.419 149.824 113.3 149.749 110.181C149.311 110.379 148.845 110.518 148.363 110.593C148.39 112.337 148.422 114.086 148.433 115.83C148.444 117.034 148.444 118.237 148.406 119.446C148.861 119.559 149.305 119.58 149.749 119.527Z" fill="#333333"/>
<path d="M144.232 103.944C145.484 103.35 146.817 102.922 148.235 102.66C148.229 102.398 148.224 102.141 148.219 101.879C148.502 102.093 148.781 102.307 149.064 102.526C148.786 102.564 148.508 102.612 148.229 102.66C148.267 104.858 148.31 107.052 148.347 109.25C148.834 109.149 149.3 108.967 149.717 108.694C149.658 106.42 149.594 104.147 149.557 101.879C149.551 101.397 149.139 101.178 148.711 101.232C147.015 101.462 145.382 101.922 143.852 102.612C143.702 103.179 143.83 103.623 144.232 103.944Z" fill="#333333"/>
<path d="M138.917 108.042C140.116 106.64 141.475 105.501 142.979 104.613C142.685 104.195 142.508 103.767 142.433 103.334C141.706 103.751 141.005 104.222 140.341 104.757C139.811 105.185 139.089 106.207 138.5 106.48C137.911 106.752 137.312 106.688 136.707 106.581C137.028 107.095 137.355 107.603 137.692 108.106C137.884 108.143 138.072 108.175 138.264 108.218C138.489 108.261 138.757 108.223 138.917 108.042Z" fill="#333333"/>
<path d="M148.367 110.593C148.849 110.518 149.314 110.379 149.753 110.181C149.742 109.683 149.732 109.186 149.716 108.688C149.298 108.961 148.833 109.143 148.346 109.245C148.356 109.694 148.362 110.144 148.367 110.593Z" fill="#333333"/>
<path d="M144.23 103.944C143.829 103.623 143.701 103.184 143.85 102.617C143.369 102.831 142.898 103.072 142.438 103.334C142.512 103.767 142.689 104.195 142.983 104.613C143.385 104.372 143.802 104.147 144.23 103.944Z" fill="#333333"/>
<path d="M149.749 119.527C149.299 119.575 148.86 119.559 148.416 119.446C148.406 119.906 148.384 120.366 148.357 120.826C148.796 120.907 149.246 120.933 149.695 120.901C149.706 120.698 149.717 120.489 149.727 120.286C149.738 120.035 149.744 119.778 149.749 119.527Z" fill="#333333"/>
<path d="M135.733 106.399C135.433 106.356 135.128 106.329 134.828 106.297C135.112 106.79 135.401 107.282 135.695 107.763C136.364 107.854 137.028 107.972 137.691 108.1C137.354 107.597 137.022 107.089 136.707 106.576C136.386 106.517 136.059 106.442 135.733 106.399Z" fill="#333333"/>
<path d="M130.617 121.661C128.519 121.982 126.507 121.469 124.768 120.276C124.056 119.789 123.387 120.945 124.093 121.431C126.148 122.838 128.525 123.325 130.97 122.951C131.821 122.822 131.457 121.533 130.617 121.661Z" fill="#333333"/>
<path d="M142.519 122.876C144.264 122.967 146.303 122.186 146.961 120.447C147.266 119.64 145.976 119.292 145.671 120.094C145.233 121.244 143.584 121.597 142.519 121.539C141.663 121.496 141.663 122.833 142.519 122.876Z" fill="#333333"/>
<path d="M142.493 137.442C145.485 141.513 148.204 145.836 150.205 150.484C152.49 155.78 153.058 161.023 152.362 166.742C152.046 169.347 151.147 172.091 151.12 174.712C151.104 176.339 152.046 177.296 153.106 178.414C156.708 182.228 160.085 186.24 163.718 190.028C164.318 190.648 165.26 189.702 164.666 189.081C161.224 185.491 158.019 181.693 154.62 178.066C153.32 176.681 152.501 175.9 152.571 173.808C152.619 172.353 153.106 170.829 153.331 169.39C153.721 166.881 154.032 164.345 154.048 161.799C154.096 152.549 148.963 144.006 143.649 136.774C143.146 136.084 141.985 136.747 142.493 137.442Z" fill="#333333"/>
<path d="M104.543 158.819C98.4316 166.03 95.8841 176.788 96.5424 186.101C97.2649 196.27 102.75 209.692 113.636 212.533C114.471 212.752 114.824 211.463 113.989 211.244C103.382 208.478 98.1693 194.869 97.8161 184.983C97.5057 176.344 99.807 166.458 105.485 159.76C106.042 159.113 105.1 158.161 104.543 158.819Z" fill="#333333"/>
<path d="M107.706 137.956C93.6038 146.472 86.7749 162.51 82.0653 177.59C78.2869 189.696 74.5407 202.225 73.9466 214.962C73.5185 224.195 74.7922 233.68 79.5767 241.736C80.0156 242.474 81.1716 241.806 80.7327 241.062C72.8388 227.768 74.5728 210.869 78.121 196.485C81.209 183.962 84.7091 171.059 90.5907 159.536C94.7705 151.362 100.422 143.915 108.375 139.112C109.119 138.668 108.444 137.507 107.706 137.956Z" fill="#333333"/>
<path d="M79.6892 241.837C82.622 246.181 86.7215 250.359 92.282 250.83C96.5688 251.194 101.096 249.69 105.083 248.326C116.354 244.469 127.213 238.858 137.317 232.588C140.759 230.454 144.805 228.191 147.443 225.035C147.989 224.377 147.052 223.43 146.496 224.088C144.43 226.559 141.412 228.367 138.736 230.101C134.288 232.984 129.67 235.6 124.976 238.055C115.921 242.79 105.704 248.187 95.4021 249.396C89.0334 250.145 84.2489 246.203 80.8452 241.158C80.3635 240.452 79.2022 241.121 79.6892 241.837Z" fill="#333333"/>
<path d="M109.129 246.395C109.113 253.665 111.703 260.662 114.508 267.269C116.991 273.121 120.582 279.054 121.85 285.334C122.546 288.784 122.428 292.406 122.856 295.899C123.263 299.232 124.109 302.463 125.024 305.683C125.752 308.251 126.458 310.942 127.994 313.167C129.568 315.451 131.874 317.094 134.117 318.661C134.823 319.153 135.492 317.998 134.791 317.506C132.329 315.783 129.835 313.964 128.395 311.257C126.897 308.438 126.18 305.052 125.393 301.981C123.879 296.092 124.446 289.892 122.926 284.066C121.47 278.503 118.559 273.276 116.279 268.028C113.319 261.213 110.451 253.938 110.467 246.395C110.472 245.534 109.134 245.534 109.129 246.395Z" fill="#333333"/>
<path d="M131.934 261.299C135.878 270.115 138.158 279.284 137.789 288.982C137.425 298.569 135.311 308.043 133.941 317.511C133.817 318.351 135.107 318.715 135.23 317.864C136.654 308.048 138.88 298.21 139.153 288.266C139.415 278.578 137.029 269.425 133.095 260.625C132.742 259.838 131.586 260.518 131.934 261.299Z" fill="#333333"/>
<path d="M136.879 130.135L136.178 129.118C135.835 128.621 136.183 127.947 136.788 127.936L138.233 127.915C138.854 127.904 139.218 128.605 138.859 129.108L138.115 130.145C137.81 130.573 137.173 130.568 136.879 130.135Z" fill="#333333"/>
<path d="M150.209 147.954C156.974 148.606 163.423 146.386 169.492 143.589C174.56 141.256 179.446 138.218 182.127 133.157C182.529 132.398 181.378 131.718 180.971 132.483C178.392 137.351 173.672 140.197 168.812 142.439C162.957 145.14 156.738 147.248 150.204 146.616C149.353 146.531 149.358 147.868 150.209 147.954Z" fill="#333333"/>
<path d="M150.927 137.48C151.5 140.663 152.072 143.846 152.645 147.023C152.795 147.868 154.085 147.51 153.935 146.67C153.362 143.487 152.789 140.304 152.217 137.127C152.062 136.276 150.772 136.635 150.927 137.48Z" fill="#333333"/>
<path d="M158.028 135.356C160.041 138.389 161.892 141.519 163.589 144.739C163.99 145.499 165.146 144.825 164.745 144.065C163.054 140.839 161.197 137.715 159.184 134.682C158.714 133.965 157.552 134.634 158.028 135.356Z" fill="#333333"/>
<path d="M164.761 131.408C167.876 134.243 170.862 137.217 173.875 140.165C174.491 140.769 175.438 139.823 174.823 139.218C171.81 136.276 168.823 133.302 165.708 130.461C165.077 129.883 164.124 130.825 164.761 131.408Z" fill="#333333"/>
<path d="M137.418 57.0342C141.454 54.7768 146.741 54.3863 151.231 54.8035C156.08 55.2529 161.662 56.7935 165.622 59.6983C169.353 62.4372 171.247 67.0003 173.045 71.1087C176.267 78.4856 175.512 89.864 184.648 93.0576C186.789 93.8066 189.074 94.0205 191.209 94.7855C193.607 95.6414 195.833 96.9521 197.771 98.5997C201.26 101.569 203.834 105.597 204.974 110.037C207.677 120.586 200.976 131.729 190.878 135.228C190.069 135.506 190.417 136.8 191.231 136.517C199.489 133.655 205.723 126.117 206.772 117.398C207.843 108.496 202.887 99.5466 195.175 95.1386C190.728 92.5976 184.557 93.0416 181.025 89.1204C176.877 84.5252 177.054 77.8384 174.988 72.3123C173.484 68.2895 171.552 63.8441 168.635 60.6291C165.317 56.9754 160.019 55.1191 155.309 54.092C149.422 52.8135 142.171 52.8402 136.744 55.8787C135.989 56.3014 136.664 57.4568 137.418 57.0342Z" fill="#333333"/>
<path d="M196.856 108.935C200.42 113.974 200.003 120.404 195.737 124.882C195.143 125.502 196.091 126.454 196.685 125.829C201.351 120.934 201.935 113.803 198.012 108.261C197.514 107.565 196.358 108.234 196.856 108.935Z" fill="#333333"/>
<path d="M119.425 163.954C120.795 158.69 113.629 154.084 116.31 149.248C115.963 149.291 115.609 149.339 115.262 149.382C119.34 152.971 122.31 157.631 125.018 162.296C127.977 167.383 126.254 173.433 128.084 178.927C128.357 179.74 129.647 179.393 129.374 178.574C127.49 172.904 129.256 166.923 126.174 161.622C123.407 156.866 120.367 152.1 116.209 148.44C115.893 148.162 115.379 148.178 115.16 148.574C112.104 154.084 119.543 158.214 118.141 163.601C117.916 164.43 119.206 164.789 119.425 163.954Z" fill="#333333"/>
<path d="M118.613 162.847C115.605 161.451 111.495 159.589 109.771 156.673C108.182 153.983 110.066 150.5 109.536 147.483C109.45 147.002 108.728 146.82 108.417 147.189C102.793 153.795 105.661 163.43 105.565 171.294C105.511 175.418 106.421 178.28 109.493 181.137C113.148 184.534 116.975 187.77 120.71 191.081C121.353 191.648 122.3 190.707 121.658 190.134C118.634 187.454 115.61 184.78 112.586 182.1C111.104 180.789 109.333 179.505 108.251 177.82C106.983 175.857 106.876 173.562 106.908 171.294C106.962 167.394 106.576 163.596 106.378 159.707C106.17 155.593 106.598 151.388 109.365 148.136C108.99 148.039 108.621 147.938 108.246 147.841C108.835 151.201 106.576 154.748 108.76 157.834C110.778 160.686 114.877 162.585 117.938 164.008C118.714 164.361 119.394 163.205 118.613 162.847Z" fill="#333333"/>
<path d="M105.709 159.825C106.506 160.804 106.929 162.023 107.705 163.013C108.433 163.938 109.364 164.655 110.301 165.356C110.991 165.869 111.66 164.709 110.975 164.2C109.958 163.441 108.979 162.638 108.31 161.542C107.758 160.638 107.325 159.701 106.656 158.878C106.11 158.209 105.168 159.161 105.709 159.825Z" fill="#333333"/>
<path d="M105.714 165.564C106.131 166.543 106.688 167.437 107.346 168.276C107.662 168.678 107.994 169.068 108.341 169.437C108.55 169.657 109.342 170.299 109.385 170.427C109.658 171.24 110.953 170.892 110.675 170.074C110.397 169.25 109.39 168.635 108.829 167.988C108.02 167.051 107.351 166.024 106.864 164.885C106.533 164.099 105.382 164.778 105.714 165.564Z" fill="#333333"/>
<path d="M106.02 172.064C107.064 173.712 108.236 175.268 109.536 176.723C110.109 177.365 111.051 176.418 110.484 175.776C109.263 174.402 108.161 172.941 107.176 171.385C106.716 170.662 105.555 171.331 106.02 172.064Z" fill="#333333"/>
<path d="M96.7719 223.451C106.239 213.603 121.069 209.772 134.235 208.323C135.08 208.232 135.091 206.889 134.235 206.985C120.727 208.473 105.554 212.388 95.83 222.504C95.2306 223.13 96.1779 224.077 96.7719 223.451Z" fill="#333333"/>
<path d="M164.851 190.589C166.05 189.723 167.891 188.455 169.117 189.985C169.978 191.055 170.567 193.58 168.646 193.853C167.795 193.976 168.159 195.265 168.999 195.142C171.696 194.757 171.568 191.499 170.514 189.669C168.983 187.016 166.205 187.963 164.177 189.439C163.487 189.937 164.156 191.098 164.851 190.589Z" fill="#333333"/>
<path d="M169.958 194.259C170.515 195.174 171.184 196.281 170.328 197.217C170.135 197.431 168.337 198.822 168.112 198.565C167.545 197.913 166.603 198.865 167.165 199.512C168.267 200.775 170.296 199.015 171.168 198.25C172.682 196.923 172.008 195.067 171.114 193.58C170.67 192.847 169.514 193.521 169.958 194.259Z" fill="#333333"/>
<path d="M169.412 198.86C169.936 200.004 170.054 201.759 169.053 202.701C168.202 203.498 166.779 203.3 165.724 203.182C164.868 203.091 164.873 204.428 165.724 204.519C167.346 204.696 169.24 204.717 170.321 203.268C171.419 201.791 171.295 199.774 170.568 198.18C170.209 197.405 169.053 198.084 169.412 198.86Z" fill="#333333"/>
<path d="M139.367 246.786C146.019 243.458 152.361 240.019 156.289 233.407C156.728 232.663 155.572 231.989 155.133 232.733C151.317 239.152 145.125 242.41 138.692 245.63C137.916 246.015 138.596 247.171 139.367 246.786Z" fill="#333333"/>
<path d="M149.846 283.457C151.291 282.686 152.313 281.269 152.548 279.648C152.671 278.808 151.382 278.444 151.259 279.295C151.066 280.605 150.343 281.68 149.171 282.306C148.411 282.708 149.086 283.863 149.846 283.457Z" fill="#333333"/>
<path d="M153.629 286.174C155.582 284.992 156.781 283.066 157.07 280.819C157.177 279.968 155.839 279.974 155.732 280.819C155.507 282.579 154.464 284.104 152.955 285.018C152.216 285.462 152.89 286.618 153.629 286.174Z" fill="#333333"/>
<path d="M101.819 217.203C99.3679 211.639 100.09 205.873 101.011 200.058C101.145 199.218 99.855 198.854 99.7212 199.705C98.7418 205.91 98.0621 211.971 100.663 217.882C101.011 218.663 102.167 217.984 101.819 217.203Z" fill="#333333"/>
<path d="M210.573 214.293C213.881 211.57 218.58 211.073 222.706 211.367C227.517 211.709 231.542 214.266 234.688 217.824C238.028 221.606 240.072 226.228 242.283 230.705C244.573 235.354 246.821 240.024 249.037 244.71C256.695 260.919 263.861 277.353 271.011 293.792C274.565 301.955 278.129 310.118 281.838 318.212C282.196 318.993 283.347 318.314 282.994 317.538C275.571 301.34 268.688 284.912 261.447 268.633C257.187 259.052 252.82 249.519 248.298 240.056C245.868 234.969 243.407 229.898 240.87 224.864C238.9 220.959 236.455 217.225 233.083 214.379C226.88 209.142 216.171 207.959 209.626 213.352C208.962 213.892 209.91 214.833 210.573 214.293Z" fill="#333333"/>
<path d="M287.458 316.982C289.101 318.223 289.78 320.743 290.23 322.652C290.455 323.599 290.497 324.359 291.338 324.958C292.274 325.627 293.644 325.68 294.741 325.755C296.855 325.899 298.819 326.039 300.917 326.418C305.477 327.248 310.064 327.938 314.672 328.462C317.165 328.745 319.67 328.981 322.175 329.189C324.669 329.398 331.926 329.345 329.86 334.041C329.517 334.822 330.668 335.502 331.016 334.715C332.648 331.003 329.871 328.82 326.349 328.243C320.51 327.28 314.495 327.199 308.624 326.343C303.861 325.648 299.221 324.824 294.436 324.396C291.375 324.123 291.664 322.192 290.754 319.812C290.171 318.287 289.454 316.821 288.127 315.826C287.447 315.307 286.778 316.468 287.458 316.982Z" fill="#333333"/>
<path d="M272.949 334.999C274.63 334.731 277.579 334.426 278.804 333.078C279.88 331.896 278.976 329.719 278.526 328.435C278.103 327.237 277.209 326.087 276.894 324.894C276.198 322.283 277.589 321.518 279.559 320.341C281.009 319.475 282.534 318.843 284.108 318.244C285.002 317.907 286.757 316.623 287.624 317.249C288.32 317.758 288.989 316.597 288.298 316.094C286.58 314.842 284.6 316.597 282.936 317.239C280.528 318.169 277.584 319.432 275.807 321.374C274.239 323.086 275.294 324.589 276.187 326.402C276.696 327.429 277.258 328.537 277.52 329.66C277.852 331.078 278.135 332.148 276.615 332.72C275.326 333.207 273.956 333.485 272.596 333.699C271.745 333.843 272.104 335.133 272.949 334.999Z" fill="#333333"/>
<path d="M279.265 352.529C290.236 351.165 301.325 350.443 312.098 347.832C319.259 346.094 330.68 342.89 331.37 333.945C331.435 333.089 330.097 333.089 330.032 333.945C329.342 342.873 316.182 345.618 309.283 347.105C299.388 349.229 289.289 349.951 279.265 351.197C278.42 351.294 278.409 352.636 279.265 352.529Z" fill="#333333"/>
<path d="M279.725 351.256C278.868 348.206 278.087 345.109 276.904 342.162C276.444 341.017 275.93 339.893 275.309 338.824C275.202 338.642 272.756 334.95 273.19 334.934C274.046 334.908 274.052 333.57 273.19 333.597C269.781 333.704 272.708 337.278 273.463 338.38C276.139 342.29 277.177 347.121 278.44 351.614C278.665 352.438 279.955 352.085 279.725 351.256Z" fill="#333333"/>
<path d="M278.543 349.207C288.642 348.736 298.687 347.351 308.513 344.97C313.228 343.831 317.969 342.536 322.524 340.856C325.858 339.631 328.946 338 330.894 334.929C331.354 334.202 330.198 333.528 329.738 334.255C327.324 338.064 322.861 339.401 318.794 340.701C314.646 342.023 310.445 343.173 306.201 344.141C297.108 346.217 287.855 347.436 278.543 347.87C277.681 347.912 277.681 349.25 278.543 349.207Z" fill="#333333"/>
<path d="M286.574 329.162C287.393 328.863 288.191 328.51 288.945 328.066C289.298 327.857 289.636 327.632 289.967 327.397C290.144 327.269 290.781 326.595 290.968 326.6C290.754 326.434 290.54 326.274 290.321 326.108C290.326 326.145 290.337 326.177 290.342 326.215C290.401 325.995 290.454 325.781 290.513 325.562C290.487 325.589 290.454 325.621 290.428 325.648C290.695 325.61 290.968 325.578 291.236 325.541C291.214 325.525 291.193 325.509 291.172 325.493C290.471 324.99 289.802 326.151 290.497 326.648C290.519 326.664 290.54 326.68 290.562 326.696C290.802 326.867 291.172 326.782 291.37 326.589C291.632 326.338 291.68 326.097 291.61 325.749C291.552 325.455 291.247 325.268 290.963 325.257C290.16 325.225 289.529 326.081 288.908 326.498C288.068 327.065 287.163 327.52 286.211 327.873C285.413 328.167 285.761 329.457 286.574 329.162Z" fill="#333333"/>
<path d="M287.907 330.687C289.93 329.949 291.765 328.917 293.457 327.59C294.131 327.06 293.178 326.119 292.509 326.643C291.011 327.82 289.341 328.74 287.548 329.398C286.751 329.687 287.093 330.981 287.907 330.687Z" fill="#333333"/>
<path d="M290.99 331.859C293.746 330.928 296.304 329.606 298.638 327.873C298.37 327.526 298.097 327.172 297.83 326.825C297.669 326.996 297.508 327.167 297.353 327.338C296.765 327.97 297.712 328.916 298.301 328.285C298.461 328.114 298.622 327.943 298.777 327.772C299.269 327.242 298.6 326.247 297.969 326.723C295.721 328.392 293.297 329.681 290.637 330.575C289.823 330.842 290.171 332.137 290.99 331.859Z" fill="#333333"/>
<path d="M296.689 332.244C299.087 331.57 301.249 330.447 303.208 328.901C303.882 328.366 302.929 327.424 302.26 327.954C300.494 329.35 298.503 330.345 296.336 330.955C295.506 331.19 295.854 332.479 296.689 332.244Z" fill="#333333"/>
<path d="M301.678 332.768C303.524 331.993 305.194 330.966 306.703 329.65C307.351 329.083 306.403 328.141 305.756 328.703C304.434 329.858 302.946 330.8 301.325 331.479C300.538 331.805 300.886 333.1 301.678 332.768Z" fill="#333333"/>
<path d="M306.436 332.977C307.742 332.228 309.053 331.474 310.359 330.725C311.103 330.297 310.434 329.141 309.685 329.569C308.379 330.318 307.068 331.072 305.762 331.821C305.018 332.249 305.687 333.405 306.436 332.977Z" fill="#333333"/>
<path d="M256.797 325.626C263.824 320.207 270.883 314.836 277.905 309.417C278.579 308.898 277.91 307.738 277.231 308.262C270.204 313.681 263.145 319.052 256.123 324.471C255.449 324.99 256.112 326.15 256.797 325.626Z" fill="#333333"/>
<path d="M216.311 250.22C219.827 262.877 226.613 274.71 232.826 286.19C240.024 299.483 246.687 313.146 255.009 325.787C255.48 326.504 256.642 325.835 256.165 325.113C247.988 312.686 241.437 299.269 234.357 286.206C228.068 274.603 221.154 262.658 217.6 249.862C217.37 249.038 216.08 249.386 216.311 250.22Z" fill="#333333"/>
<path d="M164.334 343.125C175.455 339.241 186.201 333.929 196.707 328.649C209.091 322.427 221.999 315.885 232.687 306.951C235.422 304.667 239.773 301.137 239.623 297.124C239.591 296.268 238.253 296.263 238.285 297.124C238.413 300.591 234.405 303.747 232.061 305.737C227.346 309.738 222.053 313.066 216.755 316.227C204.627 323.471 191.912 329.788 179.035 335.587C174.09 337.813 169.102 340.038 163.981 341.83C163.172 342.119 163.52 343.408 164.334 343.125Z" fill="#333333"/>
<path d="M148.45 326.102C144.324 326.53 140.214 327.065 136.119 327.744C133.765 328.135 131.421 328.568 129.087 329.05C127.797 329.312 125.94 329.355 124.854 330.173C122.729 331.773 122.804 336.673 122.381 339.032C121.643 343.156 119.807 346.542 118.368 350.41C116.147 356.369 116.259 363.142 118.421 369.096C119.433 371.894 120.883 374.515 122.756 376.831C123.382 377.607 123.784 378.26 124.688 378.474C125.4 378.639 126.754 378.056 127.519 377.901C128.777 377.644 130.034 377.393 131.292 377.136C132.138 376.965 131.779 375.676 130.939 375.847C129.376 376.163 127.797 376.596 126.219 376.804C124.142 377.077 123.527 375.804 122.424 374.14C120.803 371.696 119.62 368.978 118.903 366.132C117.41 360.216 118.03 354.112 120.589 348.591C121.787 346.002 122.852 343.552 123.42 340.738C123.949 338.112 123.773 332.409 126.443 330.981C127.749 330.28 129.992 330.227 131.447 329.943C133.117 329.622 134.798 329.317 136.478 329.039C140.454 328.381 144.447 327.857 148.455 327.445C149.296 327.349 149.306 326.011 148.45 326.102Z" fill="#333333"/>
<path d="M160.068 340.032C157.092 340.332 154.807 341.979 152.736 344.05C150.049 346.735 147.593 349.8 145.297 352.818C139.795 360.045 135.407 368.026 130.842 375.852C130.408 376.596 131.564 377.27 131.998 376.526C135.926 369.791 139.72 362.955 144.205 356.568C146.405 353.433 148.834 350.501 151.323 347.596C153.635 344.9 156.3 341.749 160.068 341.37C160.913 341.284 160.924 339.947 160.068 340.032Z" fill="#333333"/>
<path d="M160.674 340.648C160.567 337.673 160.465 332.345 157.078 331.04C155.247 330.334 152.903 331.345 151.057 331.505C149.917 331.607 148.119 331.981 147.482 330.949C146.808 329.863 148.761 328.055 149.494 327.044C150.003 326.348 148.841 325.68 148.338 326.37C147.295 327.803 143.142 332.12 146.973 332.816C149.109 333.201 151.367 332.789 153.492 332.532C154.562 332.399 156.537 332.222 157.442 332.848C158.218 333.388 158.501 334.736 158.71 335.592C159.111 337.229 159.277 338.973 159.341 340.648C159.368 341.509 160.706 341.509 160.674 340.648Z" fill="#333333"/>
<path d="M128.146 329.558C126.834 334.357 125.523 339.171 124.913 344.114C124.56 346.944 124.694 349.854 123.998 352.636C123.527 354.524 122.735 356.295 122.505 358.242C121.697 365.063 125.256 372.643 130.661 376.757C131.346 377.276 132.015 376.115 131.335 375.601C125.373 371.065 122.339 362.468 124.571 355.311C125.866 351.159 125.786 347.11 126.433 342.836C127.097 338.46 128.274 334.18 129.441 329.911C129.666 329.082 128.376 328.729 128.146 329.558Z" fill="#333333"/>
<path d="M139.786 356.359C139.251 355.139 138.614 353.984 137.833 352.908C137.512 352.47 137.174 352.037 136.821 351.625C136.639 351.416 136.452 351.207 136.259 351.004C136.115 350.854 135.97 350.704 135.82 350.56C135.649 350.357 135.622 350.362 135.745 350.576C135.58 350.79 135.419 351.004 135.253 351.223C135.28 351.213 135.312 351.207 135.339 351.197C135.119 351.138 134.905 351.084 134.686 351.025C134.713 351.047 134.739 351.068 134.766 351.09C134.729 350.822 134.697 350.549 134.659 350.282C134.648 350.303 134.638 350.319 134.627 350.341C134.236 351.106 135.387 351.785 135.783 351.015C135.794 350.993 135.804 350.977 135.815 350.956C135.938 350.715 135.943 350.335 135.708 350.148C135.451 349.94 135.226 349.833 134.889 349.94C134.616 350.025 134.386 350.287 134.397 350.587C134.44 351.582 135.767 352.427 136.345 353.165C137.276 354.358 138.02 355.663 138.63 357.049C138.978 357.819 140.129 357.14 139.786 356.359Z" fill="#333333"/>
<path d="M141.622 353.117C139.936 350.811 138.213 348.533 135.783 346.96C135.612 347.366 135.441 347.773 135.269 348.179C135.393 348.212 135.521 348.238 135.644 348.27C136.479 348.474 136.838 347.184 135.997 346.981C135.874 346.949 135.746 346.922 135.623 346.89C134.879 346.708 134.467 347.698 135.109 348.11C137.335 349.549 138.925 351.667 140.466 353.786C140.969 354.481 142.131 353.812 141.622 353.117Z" fill="#333333"/>
<path d="M144.906 349.496C143.697 346.81 141.963 344.462 139.753 342.515C139.485 342.862 139.212 343.215 138.945 343.563C139.057 343.622 139.169 343.681 139.282 343.74C140.042 344.135 140.721 342.985 139.956 342.584C139.844 342.525 139.731 342.466 139.619 342.408C138.977 342.071 138.211 342.932 138.811 343.456C140.941 345.334 142.589 347.581 143.756 350.17C144.104 350.956 145.254 350.277 144.906 349.496Z" fill="#333333"/>
<path d="M148.064 345.649C146.566 343.381 144.901 341.247 143.066 339.246C142.482 338.61 141.54 339.556 142.118 340.193C143.879 342.108 145.474 344.152 146.908 346.323C147.384 347.04 148.54 346.366 148.064 345.649Z" fill="#333333"/>
<path d="M151.173 342.509C150.001 340.803 148.92 338.941 147.614 337.331C147.042 336.625 145.773 336.363 145.725 337.625C145.693 338.486 147.031 338.486 147.063 337.625C146.603 338.01 146.56 338.369 146.935 338.695C147.095 338.925 147.25 339.155 147.411 339.385C147.689 339.786 147.962 340.193 148.241 340.594C148.835 341.455 149.429 342.322 150.023 343.183C150.499 343.889 151.66 343.221 151.173 342.509Z" fill="#333333"/>
<path d="M151.538 319.785C156.863 326.408 162.316 333.421 163.092 342.194C163.167 343.044 164.505 343.05 164.43 342.194C163.617 333.02 158.062 325.776 152.48 318.838C151.945 318.169 151.008 319.122 151.538 319.785Z" fill="#333333"/>
<path d="M152.581 319.437C172.414 308.23 190.643 294.385 210.819 283.761C211.579 283.36 210.904 282.205 210.144 282.606C189.968 293.23 171.735 307.074 151.906 318.282C151.152 318.704 151.826 319.86 152.581 319.437Z" fill="#333333"/>
<path d="M148.482 327.686C150.901 326.825 153.272 325.835 155.589 324.728C156.365 324.359 155.686 323.203 154.915 323.572C152.699 324.631 150.441 325.568 148.129 326.397C147.321 326.686 147.669 327.975 148.482 327.686Z" fill="#333333"/>
<path d="M210.183 270.307C214.132 268.344 218.51 268.424 222.813 268.414C223.675 268.408 223.675 267.071 222.813 267.076C218.243 267.092 213.688 267.076 209.503 269.157C208.732 269.537 209.412 270.692 210.183 270.307Z" fill="#333333"/>
<path d="M264.427 319.587C267.622 324.235 270.636 328.991 273.477 333.864C273.911 334.608 275.067 333.934 274.633 333.19C271.792 328.322 268.773 323.561 265.583 318.913C265.102 318.206 263.94 318.875 264.427 319.587Z" fill="#333333"/>
<path d="M112.189 41.713C111.772 38.9152 126.356 32.2444 132.944 29.3771C132.928 24.7872 132.227 20.4648 130.889 16.6239C125.349 20.2241 112.307 28.4088 111.333 26.376C110.375 24.3753 121.277 13.1788 126.275 8.19846C124.226 5.70025 121.732 3.67815 118.794 2.29798C115.368 0.687788 111.649 0.0833021 107.844 0.356126C105.232 8.02728 100.217 21.2191 96.7173 21.0586C93.3778 20.9035 92.4412 11.9538 92.179 6.19776C88.1866 8.89925 84.3975 12.4567 81.0526 16.7362C83.3004 22.7918 87.8226 35.866 85.4143 37.2461C83.1077 38.5675 78.0288 29.9762 75.5028 25.3222C75.0479 26.1781 74.6037 27.0447 74.1862 27.9327C67.839 41.408 67.1433 55.5307 71.3016 65.7856C75.4546 63.2981 83.1452 59.3716 86.2064 62.3299C88.9412 64.9725 82.5244 70.9907 77.5044 75.0081C79.0831 76.4685 80.8599 77.6936 82.8348 78.6244C97.5415 85.5413 117.509 74.0666 127.431 52.9897C129.256 49.1166 130.605 45.1955 131.52 41.3225C124.975 42.4993 112.585 44.3663 112.189 41.713ZM121.689 58.9865C121.566 60.5859 117.445 61.5649 112.494 61.1797C107.539 60.7892 103.627 59.179 103.75 57.5795C103.873 55.98 107.994 55.0011 112.944 55.3862C117.9 55.7768 121.812 57.387 121.689 58.9865Z" fill="#333333"/>
<path d="M9.03407 95.7213C8.2206 99.6157 7.78711 103.746 7.80316 108.02C7.88344 131.317 21.1291 150.152 37.3772 150.099C39.5661 150.093 41.6907 149.73 43.7405 149.077C40.8933 143.316 37.6234 135.147 41.2198 133.911C45.2497 132.526 50.5587 139.33 53.2667 143.342C61.3693 135.805 66.7104 122.709 66.6622 107.816C66.6569 106.832 66.6248 105.859 66.5713 104.89C62.3112 108.036 54.0748 113.685 52.5442 111.508C50.9493 109.245 60.5719 99.3001 65.1744 94.7691C63.9542 89.4785 62.0276 84.6533 59.5497 80.5181C56.8791 85.6269 52.2445 93.3408 49.1565 92.0676C45.9187 90.7356 46.9569 76.6611 47.8292 68.6048C44.4951 66.7485 40.8773 65.7214 37.0882 65.7375C33.845 65.7482 30.7303 66.5239 27.8135 67.9254C30.2379 74.5481 35.381 89.302 33.663 90.7142C31.9184 92.1479 23.5642 79.2182 20.0641 73.6119C17.2277 76.5327 14.7658 80.149 12.8071 84.3055C17.5702 89.6871 27.958 101.895 26.4007 104.254C24.9236 106.49 14.4822 99.5622 9.03407 95.7213ZM19.9303 116.328C24.581 118.071 27.8992 120.698 27.3372 122.201C26.7753 123.704 22.5474 123.512 17.8913 121.768C13.2406 120.024 9.92247 117.397 10.4844 115.894C11.0463 114.391 15.2743 114.584 19.9303 116.328Z" fill="#333333"/>
<path d="M53.9472 325.872H17.6299C8.72984 325.872 1.51562 318.661 1.51562 309.765V276.288H70.0668V309.765C70.0615 318.661 62.8473 325.872 53.9472 325.872Z" fill="#F8BAB4"/>
<path d="M15.7293 235.316C16.4089 240.061 16.0985 245.367 12.7215 249.101C10.233 251.851 7.09681 253.151 5.50198 256.714C1.77178 265.053 1.75572 275.004 1.45602 283.959C1.16702 292.571 0.225111 301.457 0.990418 310.053C1.5256 316.039 3.81616 319.934 8.5418 323.572C9.22147 324.096 9.89045 322.935 9.21613 322.416C6.70613 320.485 4.44233 318.35 3.35056 315.301C2.09824 311.797 2.11964 307.871 2.14105 304.196C2.19457 295.802 2.59596 287.372 2.97059 278.994C3.18466 274.265 3.53252 269.531 4.47978 264.888C5.50733 259.838 6.84528 255.526 11.0571 252.284C16.7086 247.93 18.0038 241.826 17.0191 234.963C16.896 234.112 15.6062 234.471 15.7293 235.316Z" fill="#333333"/>
<path d="M16.5596 235.792C22.8908 235.733 29.222 235.685 35.5532 235.632C38.6572 235.605 41.7559 235.578 44.8599 235.557C46.3959 235.546 47.9319 235.53 49.4625 235.519C50.3883 235.514 53.2569 235.985 53.8081 235.279C53.289 235.953 54.2256 236.905 54.7554 236.225C55.4832 235.284 55.0872 234.492 53.9687 234.177C52.3953 233.733 50.0672 234.182 48.4456 234.193C46.2193 234.214 43.9929 234.23 41.7666 234.251C33.3643 234.321 24.962 234.391 16.565 234.465C15.698 234.465 15.698 235.803 16.5596 235.792Z" fill="#333333"/>
<path d="M54.2148 235.798C52.8126 240.179 52.7537 244.918 55.7186 248.674C57.4793 250.899 59.8234 252.552 61.734 254.638C63.8908 256.992 65.3197 259.843 66.3098 262.855C68.3488 269.061 68.7449 275.646 69.0125 282.124C69.2961 288.923 69.5262 295.722 69.7403 302.527C69.7671 303.383 71.105 303.388 71.0783 302.527C70.8749 296.059 70.6501 289.587 70.3879 283.119C70.1471 277.101 69.8474 271.029 68.3649 265.166C67.1447 260.346 65.1057 255.965 61.4825 252.488C59.5077 250.594 57.185 248.877 55.8042 246.459C54.0007 243.298 54.4342 239.473 55.4992 236.151C55.7668 235.332 54.477 234.979 54.2148 235.798Z" fill="#333333"/>
<path d="M92.6558 59.3341C90.1458 66.2029 88.0907 73.2588 85.9393 80.2452C81.7221 93.9613 77.6815 107.736 73.78 121.549C64.013 156.112 54.8828 190.958 48.1181 226.238C45.0034 242.474 42.1723 258.977 41.6371 275.533C41.6104 276.395 42.9483 276.395 42.9751 275.533C43.446 260.94 45.7633 246.411 48.3804 232.074C51.5968 214.453 55.5464 196.971 59.8011 179.574C67.6094 147.638 76.4559 115.942 86.0356 84.4981C88.5617 76.2117 90.97 67.8344 93.9456 59.6925C94.2399 58.8794 92.9448 58.5317 92.6558 59.3341Z" fill="#333333"/>
<path d="M35.2626 114.466C32.8061 156.839 32.9559 199.421 34.7969 241.815C35.2947 253.285 35.9476 264.754 36.7771 276.202C36.8413 277.058 38.1793 277.063 38.1151 276.202C35.0324 233.866 34.1601 191.311 35.2037 148.879C35.4873 137.399 35.9369 125.93 36.6005 114.466C36.6487 113.61 35.3107 113.61 35.2626 114.466Z" fill="#333333"/>
<path d="M87.4758 79.8868C92.8971 58.6065 100.229 37.8505 108.69 17.6028C109.022 16.811 107.727 16.4633 107.401 17.2497C98.9393 37.5028 91.6074 58.2588 86.186 79.5337C85.9719 80.3629 87.2617 80.7213 87.4758 79.8868Z" fill="white"/>
<path d="M80.9843 44.6178C86.7803 48.1163 90.6229 53.8456 91.72 60.5164C91.8592 61.3616 93.1489 61.0032 93.0098 60.1634C91.8592 53.1662 87.7276 47.1267 81.6586 43.4623C80.9254 43.0129 80.2511 44.1684 80.9843 44.6178Z" fill="white"/>
<path d="M98.6709 43.9007C102.711 38.9043 107.748 35.0152 113.597 32.3565C114.378 32.0035 113.699 30.848 112.923 31.2011C106.972 33.9025 101.834 37.8718 97.7236 42.9538C97.1884 43.6225 98.1303 44.5747 98.6709 43.9007Z" fill="white"/>
<path d="M37.4623 79.2663C39.0197 91.7788 37.8798 104.489 36.5632 116.97C35.4233 127.797 33.5448 138.801 33.9301 149.724C33.9622 150.58 35.3002 150.586 35.2681 149.724C34.8827 138.806 36.7612 127.802 37.9012 116.97C39.2177 104.489 40.3576 91.7734 38.8003 79.2663C38.6932 78.4211 37.3553 78.4104 37.4623 79.2663Z" fill="white"/>
<path d="M37.9937 117.467C41.4456 110.293 47.1025 104.741 52.861 99.3911C53.4925 98.8026 52.5453 97.8611 51.9138 98.4442C46.0696 103.869 40.3378 109.518 36.8377 116.793C36.4685 117.563 37.6191 118.243 37.9937 117.467Z" fill="white"/>
<path d="M21.7556 129.182C28.2312 129.728 34.1289 135.703 34.0058 142.246C33.9898 143.107 35.3277 143.107 35.3438 142.246C35.4776 134.928 28.943 128.444 21.7556 127.845C20.8939 127.77 20.8993 129.107 21.7556 129.182Z" fill="white"/>
<path d="M193.608 13.1338C193.355 14.636 193.639 16.5126 194.477 17.7981C194.833 17.5651 195.189 17.3322 195.545 17.0992C194.19 15.8142 192.196 16.1627 190.868 17.2952C191.222 17.4713 191.576 17.6475 191.93 17.8236C192.116 15.6545 191.039 14.5568 189.785 12.9661C189.46 13.245 189.133 13.5281 188.808 13.807C190.466 15.4267 193.209 15.2032 194.478 13.2165C194.925 12.5162 193.856 11.7961 193.409 12.4964C192.621 13.7315 190.869 14.0253 189.785 12.9661C189.197 12.3898 188.285 13.1437 188.808 13.807C189.841 15.1177 190.801 15.9074 190.644 17.7476C190.597 18.3067 191.292 18.6317 191.706 18.276C192.433 17.6585 193.744 17.161 194.568 17.9401C195.051 18.3957 196.069 17.8998 195.636 17.2412C194.899 16.1107 194.665 14.5362 194.888 13.2183C195.029 12.3994 193.743 12.3234 193.608 13.1338Z" fill="#333333"/>
<path d="M161.383 34.5891C160.827 31.6421 158.57 29.8038 157.549 27.0773C156.465 24.1733 157.518 20.9718 158.226 18.0486C159.538 12.631 158.86 6.90195 155.824 5.8896C154.876 4.66954 151.952 6.00807 149.712 7.14905C149.332 9.42531 148.684 6.90917 150.13 8.51139L153.917 7.15604C155.633 6.81031 157.279 8.72937 157.308 12.9872C157.328 15.4643 156.478 17.9102 155.934 20.3256C155.458 22.458 155.097 24.6862 155.66 26.8055C156.461 29.801 159.109 31.8271 159.693 34.911C159.895 35.9331 161.579 35.6142 161.383 34.5891Z" fill="#333333"/>
</svg>
